G04 #@! TF.GenerationSoftware,KiCad,Pcbnew,5.1.6+dfsg1-1~bpo9+1*
G04 #@! TF.CreationDate,2022-04-20T06:51:38+02:00*
G04 #@! TF.ProjectId,sdrtrx-arduino,73647274-7278-42d6-9172-6475696e6f2e,rev?*
G04 #@! TF.SameCoordinates,Original*
G04 #@! TF.FileFunction,Paste,Bot*
G04 #@! TF.FilePolarity,Positive*
%FSLAX46Y46*%
G04 Gerber Fmt 4.6, Leading zero omitted, Abs format (unit mm)*
G04 Created by KiCad (PCBNEW 5.1.6+dfsg1-1~bpo9+1) date 2022-04-20 06:51:38*
%MOMM*%
%LPD*%
G01*
G04 APERTURE LIST*
%ADD10R,1.200000X0.900000*%
%ADD11R,1.100000X0.250000*%
%ADD12R,1.190000X3.300000*%
%ADD13R,0.500000X0.500000*%
%ADD14R,1.190000X2.790000*%
%ADD15R,0.900000X0.800000*%
G04 APERTURE END LIST*
G36*
G01*
X150743750Y-75650000D02*
X151656250Y-75650000D01*
G75*
G02*
X151900000Y-75893750I0J-243750D01*
G01*
X151900000Y-76381250D01*
G75*
G02*
X151656250Y-76625000I-243750J0D01*
G01*
X150743750Y-76625000D01*
G75*
G02*
X150500000Y-76381250I0J243750D01*
G01*
X150500000Y-75893750D01*
G75*
G02*
X150743750Y-75650000I243750J0D01*
G01*
G37*
G36*
G01*
X150743750Y-73775000D02*
X151656250Y-73775000D01*
G75*
G02*
X151900000Y-74018750I0J-243750D01*
G01*
X151900000Y-74506250D01*
G75*
G02*
X151656250Y-74750000I-243750J0D01*
G01*
X150743750Y-74750000D01*
G75*
G02*
X150500000Y-74506250I0J243750D01*
G01*
X150500000Y-74018750D01*
G75*
G02*
X150743750Y-73775000I243750J0D01*
G01*
G37*
D10*
X154000000Y-76250000D03*
X154000000Y-72950000D03*
G36*
G01*
X135700000Y-48745000D02*
X135700000Y-49045000D01*
G75*
G02*
X135550000Y-49195000I-150000J0D01*
G01*
X133900000Y-49195000D01*
G75*
G02*
X133750000Y-49045000I0J150000D01*
G01*
X133750000Y-48745000D01*
G75*
G02*
X133900000Y-48595000I150000J0D01*
G01*
X135550000Y-48595000D01*
G75*
G02*
X135700000Y-48745000I0J-150000D01*
G01*
G37*
G36*
G01*
X135700000Y-50015000D02*
X135700000Y-50315000D01*
G75*
G02*
X135550000Y-50465000I-150000J0D01*
G01*
X133900000Y-50465000D01*
G75*
G02*
X133750000Y-50315000I0J150000D01*
G01*
X133750000Y-50015000D01*
G75*
G02*
X133900000Y-49865000I150000J0D01*
G01*
X135550000Y-49865000D01*
G75*
G02*
X135700000Y-50015000I0J-150000D01*
G01*
G37*
G36*
G01*
X135700000Y-51285000D02*
X135700000Y-51585000D01*
G75*
G02*
X135550000Y-51735000I-150000J0D01*
G01*
X133900000Y-51735000D01*
G75*
G02*
X133750000Y-51585000I0J150000D01*
G01*
X133750000Y-51285000D01*
G75*
G02*
X133900000Y-51135000I150000J0D01*
G01*
X135550000Y-51135000D01*
G75*
G02*
X135700000Y-51285000I0J-150000D01*
G01*
G37*
G36*
G01*
X135700000Y-52555000D02*
X135700000Y-52855000D01*
G75*
G02*
X135550000Y-53005000I-150000J0D01*
G01*
X133900000Y-53005000D01*
G75*
G02*
X133750000Y-52855000I0J150000D01*
G01*
X133750000Y-52555000D01*
G75*
G02*
X133900000Y-52405000I150000J0D01*
G01*
X135550000Y-52405000D01*
G75*
G02*
X135700000Y-52555000I0J-150000D01*
G01*
G37*
G36*
G01*
X140650000Y-52555000D02*
X140650000Y-52855000D01*
G75*
G02*
X140500000Y-53005000I-150000J0D01*
G01*
X138850000Y-53005000D01*
G75*
G02*
X138700000Y-52855000I0J150000D01*
G01*
X138700000Y-52555000D01*
G75*
G02*
X138850000Y-52405000I150000J0D01*
G01*
X140500000Y-52405000D01*
G75*
G02*
X140650000Y-52555000I0J-150000D01*
G01*
G37*
G36*
G01*
X140650000Y-51285000D02*
X140650000Y-51585000D01*
G75*
G02*
X140500000Y-51735000I-150000J0D01*
G01*
X138850000Y-51735000D01*
G75*
G02*
X138700000Y-51585000I0J150000D01*
G01*
X138700000Y-51285000D01*
G75*
G02*
X138850000Y-51135000I150000J0D01*
G01*
X140500000Y-51135000D01*
G75*
G02*
X140650000Y-51285000I0J-150000D01*
G01*
G37*
G36*
G01*
X140650000Y-50015000D02*
X140650000Y-50315000D01*
G75*
G02*
X140500000Y-50465000I-150000J0D01*
G01*
X138850000Y-50465000D01*
G75*
G02*
X138700000Y-50315000I0J150000D01*
G01*
X138700000Y-50015000D01*
G75*
G02*
X138850000Y-49865000I150000J0D01*
G01*
X140500000Y-49865000D01*
G75*
G02*
X140650000Y-50015000I0J-150000D01*
G01*
G37*
G36*
G01*
X140650000Y-48745000D02*
X140650000Y-49045000D01*
G75*
G02*
X140500000Y-49195000I-150000J0D01*
G01*
X138850000Y-49195000D01*
G75*
G02*
X138700000Y-49045000I0J150000D01*
G01*
X138700000Y-48745000D01*
G75*
G02*
X138850000Y-48595000I150000J0D01*
G01*
X140500000Y-48595000D01*
G75*
G02*
X140650000Y-48745000I0J-150000D01*
G01*
G37*
D11*
X151650000Y-51800000D03*
X151650000Y-52300000D03*
X151650000Y-52800000D03*
X151650000Y-53300000D03*
X151650000Y-53800000D03*
X155950000Y-53800000D03*
X155950000Y-53300000D03*
X155950000Y-52800000D03*
X155950000Y-52300000D03*
X155950000Y-51800000D03*
G36*
G01*
X143343750Y-49050000D02*
X144256250Y-49050000D01*
G75*
G02*
X144500000Y-49293750I0J-243750D01*
G01*
X144500000Y-49781250D01*
G75*
G02*
X144256250Y-50025000I-243750J0D01*
G01*
X143343750Y-50025000D01*
G75*
G02*
X143100000Y-49781250I0J243750D01*
G01*
X143100000Y-49293750D01*
G75*
G02*
X143343750Y-49050000I243750J0D01*
G01*
G37*
G36*
G01*
X143343750Y-47175000D02*
X144256250Y-47175000D01*
G75*
G02*
X144500000Y-47418750I0J-243750D01*
G01*
X144500000Y-47906250D01*
G75*
G02*
X144256250Y-48150000I-243750J0D01*
G01*
X143343750Y-48150000D01*
G75*
G02*
X143100000Y-47906250I0J243750D01*
G01*
X143100000Y-47418750D01*
G75*
G02*
X143343750Y-47175000I243750J0D01*
G01*
G37*
G36*
G01*
X144256250Y-51950000D02*
X143343750Y-51950000D01*
G75*
G02*
X143100000Y-51706250I0J243750D01*
G01*
X143100000Y-51218750D01*
G75*
G02*
X143343750Y-50975000I243750J0D01*
G01*
X144256250Y-50975000D01*
G75*
G02*
X144500000Y-51218750I0J-243750D01*
G01*
X144500000Y-51706250D01*
G75*
G02*
X144256250Y-51950000I-243750J0D01*
G01*
G37*
G36*
G01*
X144256250Y-53825000D02*
X143343750Y-53825000D01*
G75*
G02*
X143100000Y-53581250I0J243750D01*
G01*
X143100000Y-53093750D01*
G75*
G02*
X143343750Y-52850000I243750J0D01*
G01*
X144256250Y-52850000D01*
G75*
G02*
X144500000Y-53093750I0J-243750D01*
G01*
X144500000Y-53581250D01*
G75*
G02*
X144256250Y-53825000I-243750J0D01*
G01*
G37*
G36*
G01*
X153850000Y-50056250D02*
X153850000Y-49143750D01*
G75*
G02*
X154093750Y-48900000I243750J0D01*
G01*
X154581250Y-48900000D01*
G75*
G02*
X154825000Y-49143750I0J-243750D01*
G01*
X154825000Y-50056250D01*
G75*
G02*
X154581250Y-50300000I-243750J0D01*
G01*
X154093750Y-50300000D01*
G75*
G02*
X153850000Y-50056250I0J243750D01*
G01*
G37*
G36*
G01*
X151975000Y-50056250D02*
X151975000Y-49143750D01*
G75*
G02*
X152218750Y-48900000I243750J0D01*
G01*
X152706250Y-48900000D01*
G75*
G02*
X152950000Y-49143750I0J-243750D01*
G01*
X152950000Y-50056250D01*
G75*
G02*
X152706250Y-50300000I-243750J0D01*
G01*
X152218750Y-50300000D01*
G75*
G02*
X151975000Y-50056250I0J243750D01*
G01*
G37*
D12*
X114540000Y-28800000D03*
X112000000Y-22400000D03*
X109460000Y-28800000D03*
G36*
G01*
X106943750Y-62250000D02*
X107856250Y-62250000D01*
G75*
G02*
X108100000Y-62493750I0J-243750D01*
G01*
X108100000Y-62981250D01*
G75*
G02*
X107856250Y-63225000I-243750J0D01*
G01*
X106943750Y-63225000D01*
G75*
G02*
X106700000Y-62981250I0J243750D01*
G01*
X106700000Y-62493750D01*
G75*
G02*
X106943750Y-62250000I243750J0D01*
G01*
G37*
G36*
G01*
X106943750Y-60375000D02*
X107856250Y-60375000D01*
G75*
G02*
X108100000Y-60618750I0J-243750D01*
G01*
X108100000Y-61106250D01*
G75*
G02*
X107856250Y-61350000I-243750J0D01*
G01*
X106943750Y-61350000D01*
G75*
G02*
X106700000Y-61106250I0J243750D01*
G01*
X106700000Y-60618750D01*
G75*
G02*
X106943750Y-60375000I243750J0D01*
G01*
G37*
G36*
G01*
X112856250Y-61350000D02*
X111943750Y-61350000D01*
G75*
G02*
X111700000Y-61106250I0J243750D01*
G01*
X111700000Y-60618750D01*
G75*
G02*
X111943750Y-60375000I243750J0D01*
G01*
X112856250Y-60375000D01*
G75*
G02*
X113100000Y-60618750I0J-243750D01*
G01*
X113100000Y-61106250D01*
G75*
G02*
X112856250Y-61350000I-243750J0D01*
G01*
G37*
G36*
G01*
X112856250Y-63225000D02*
X111943750Y-63225000D01*
G75*
G02*
X111700000Y-62981250I0J243750D01*
G01*
X111700000Y-62493750D01*
G75*
G02*
X111943750Y-62250000I243750J0D01*
G01*
X112856250Y-62250000D01*
G75*
G02*
X113100000Y-62493750I0J-243750D01*
G01*
X113100000Y-62981250D01*
G75*
G02*
X112856250Y-63225000I-243750J0D01*
G01*
G37*
G36*
G01*
X144125000Y-77150000D02*
X144125000Y-74650000D01*
G75*
G02*
X144375000Y-74400000I250000J0D01*
G01*
X145975000Y-74400000D01*
G75*
G02*
X146225000Y-74650000I0J-250000D01*
G01*
X146225000Y-77150000D01*
G75*
G02*
X145975000Y-77400000I-250000J0D01*
G01*
X144375000Y-77400000D01*
G75*
G02*
X144125000Y-77150000I0J250000D01*
G01*
G37*
G36*
G01*
X137775000Y-77150000D02*
X137775000Y-74650000D01*
G75*
G02*
X138025000Y-74400000I250000J0D01*
G01*
X139625000Y-74400000D01*
G75*
G02*
X139875000Y-74650000I0J-250000D01*
G01*
X139875000Y-77150000D01*
G75*
G02*
X139625000Y-77400000I-250000J0D01*
G01*
X138025000Y-77400000D01*
G75*
G02*
X137775000Y-77150000I0J250000D01*
G01*
G37*
G36*
G01*
X142225000Y-79400000D02*
X142225000Y-78200000D01*
G75*
G02*
X142425000Y-78000000I200000J0D01*
G01*
X142825000Y-78000000D01*
G75*
G02*
X143025000Y-78200000I0J-200000D01*
G01*
X143025000Y-79400000D01*
G75*
G02*
X142825000Y-79600000I-200000J0D01*
G01*
X142425000Y-79600000D01*
G75*
G02*
X142225000Y-79400000I0J200000D01*
G01*
G37*
G36*
G01*
X140975000Y-79400000D02*
X140975000Y-78200000D01*
G75*
G02*
X141175000Y-78000000I200000J0D01*
G01*
X141575000Y-78000000D01*
G75*
G02*
X141775000Y-78200000I0J-200000D01*
G01*
X141775000Y-79400000D01*
G75*
G02*
X141575000Y-79600000I-200000J0D01*
G01*
X141175000Y-79600000D01*
G75*
G02*
X140975000Y-79400000I0J200000D01*
G01*
G37*
G36*
G01*
X165175500Y-96600000D02*
X167675500Y-96600000D01*
G75*
G02*
X167925500Y-96850000I0J-250000D01*
G01*
X167925500Y-98450000D01*
G75*
G02*
X167675500Y-98700000I-250000J0D01*
G01*
X165175500Y-98700000D01*
G75*
G02*
X164925500Y-98450000I0J250000D01*
G01*
X164925500Y-96850000D01*
G75*
G02*
X165175500Y-96600000I250000J0D01*
G01*
G37*
G36*
G01*
X165175500Y-86500000D02*
X167675500Y-86500000D01*
G75*
G02*
X167925500Y-86750000I0J-250000D01*
G01*
X167925500Y-88350000D01*
G75*
G02*
X167675500Y-88600000I-250000J0D01*
G01*
X165175500Y-88600000D01*
G75*
G02*
X164925500Y-88350000I0J250000D01*
G01*
X164925500Y-86750000D01*
G75*
G02*
X165175500Y-86500000I250000J0D01*
G01*
G37*
G36*
G01*
X162925500Y-94700000D02*
X164125500Y-94700000D01*
G75*
G02*
X164325500Y-94900000I0J-200000D01*
G01*
X164325500Y-95300000D01*
G75*
G02*
X164125500Y-95500000I-200000J0D01*
G01*
X162925500Y-95500000D01*
G75*
G02*
X162725500Y-95300000I0J200000D01*
G01*
X162725500Y-94900000D01*
G75*
G02*
X162925500Y-94700000I200000J0D01*
G01*
G37*
G36*
G01*
X162925500Y-93450000D02*
X164125500Y-93450000D01*
G75*
G02*
X164325500Y-93650000I0J-200000D01*
G01*
X164325500Y-94050000D01*
G75*
G02*
X164125500Y-94250000I-200000J0D01*
G01*
X162925500Y-94250000D01*
G75*
G02*
X162725500Y-94050000I0J200000D01*
G01*
X162725500Y-93650000D01*
G75*
G02*
X162925500Y-93450000I200000J0D01*
G01*
G37*
G36*
G01*
X162925500Y-92200000D02*
X164125500Y-92200000D01*
G75*
G02*
X164325500Y-92400000I0J-200000D01*
G01*
X164325500Y-92800000D01*
G75*
G02*
X164125500Y-93000000I-200000J0D01*
G01*
X162925500Y-93000000D01*
G75*
G02*
X162725500Y-92800000I0J200000D01*
G01*
X162725500Y-92400000D01*
G75*
G02*
X162925500Y-92200000I200000J0D01*
G01*
G37*
G36*
G01*
X162925500Y-90950000D02*
X164125500Y-90950000D01*
G75*
G02*
X164325500Y-91150000I0J-200000D01*
G01*
X164325500Y-91550000D01*
G75*
G02*
X164125500Y-91750000I-200000J0D01*
G01*
X162925500Y-91750000D01*
G75*
G02*
X162725500Y-91550000I0J200000D01*
G01*
X162725500Y-91150000D01*
G75*
G02*
X162925500Y-90950000I200000J0D01*
G01*
G37*
G36*
G01*
X162925500Y-89700000D02*
X164125500Y-89700000D01*
G75*
G02*
X164325500Y-89900000I0J-200000D01*
G01*
X164325500Y-90300000D01*
G75*
G02*
X164125500Y-90500000I-200000J0D01*
G01*
X162925500Y-90500000D01*
G75*
G02*
X162725500Y-90300000I0J200000D01*
G01*
X162725500Y-89900000D01*
G75*
G02*
X162925500Y-89700000I200000J0D01*
G01*
G37*
G36*
G01*
X122250000Y-64000000D02*
X124750000Y-64000000D01*
G75*
G02*
X125000000Y-64250000I0J-250000D01*
G01*
X125000000Y-65850000D01*
G75*
G02*
X124750000Y-66100000I-250000J0D01*
G01*
X122250000Y-66100000D01*
G75*
G02*
X122000000Y-65850000I0J250000D01*
G01*
X122000000Y-64250000D01*
G75*
G02*
X122250000Y-64000000I250000J0D01*
G01*
G37*
G36*
G01*
X122250000Y-53900000D02*
X124750000Y-53900000D01*
G75*
G02*
X125000000Y-54150000I0J-250000D01*
G01*
X125000000Y-55750000D01*
G75*
G02*
X124750000Y-56000000I-250000J0D01*
G01*
X122250000Y-56000000D01*
G75*
G02*
X122000000Y-55750000I0J250000D01*
G01*
X122000000Y-54150000D01*
G75*
G02*
X122250000Y-53900000I250000J0D01*
G01*
G37*
G36*
G01*
X120000000Y-62100000D02*
X121200000Y-62100000D01*
G75*
G02*
X121400000Y-62300000I0J-200000D01*
G01*
X121400000Y-62700000D01*
G75*
G02*
X121200000Y-62900000I-200000J0D01*
G01*
X120000000Y-62900000D01*
G75*
G02*
X119800000Y-62700000I0J200000D01*
G01*
X119800000Y-62300000D01*
G75*
G02*
X120000000Y-62100000I200000J0D01*
G01*
G37*
G36*
G01*
X120000000Y-60850000D02*
X121200000Y-60850000D01*
G75*
G02*
X121400000Y-61050000I0J-200000D01*
G01*
X121400000Y-61450000D01*
G75*
G02*
X121200000Y-61650000I-200000J0D01*
G01*
X120000000Y-61650000D01*
G75*
G02*
X119800000Y-61450000I0J200000D01*
G01*
X119800000Y-61050000D01*
G75*
G02*
X120000000Y-60850000I200000J0D01*
G01*
G37*
G36*
G01*
X120000000Y-59600000D02*
X121200000Y-59600000D01*
G75*
G02*
X121400000Y-59800000I0J-200000D01*
G01*
X121400000Y-60200000D01*
G75*
G02*
X121200000Y-60400000I-200000J0D01*
G01*
X120000000Y-60400000D01*
G75*
G02*
X119800000Y-60200000I0J200000D01*
G01*
X119800000Y-59800000D01*
G75*
G02*
X120000000Y-59600000I200000J0D01*
G01*
G37*
G36*
G01*
X120000000Y-58350000D02*
X121200000Y-58350000D01*
G75*
G02*
X121400000Y-58550000I0J-200000D01*
G01*
X121400000Y-58950000D01*
G75*
G02*
X121200000Y-59150000I-200000J0D01*
G01*
X120000000Y-59150000D01*
G75*
G02*
X119800000Y-58950000I0J200000D01*
G01*
X119800000Y-58550000D01*
G75*
G02*
X120000000Y-58350000I200000J0D01*
G01*
G37*
G36*
G01*
X120000000Y-57100000D02*
X121200000Y-57100000D01*
G75*
G02*
X121400000Y-57300000I0J-200000D01*
G01*
X121400000Y-57700000D01*
G75*
G02*
X121200000Y-57900000I-200000J0D01*
G01*
X120000000Y-57900000D01*
G75*
G02*
X119800000Y-57700000I0J200000D01*
G01*
X119800000Y-57300000D01*
G75*
G02*
X120000000Y-57100000I200000J0D01*
G01*
G37*
G36*
G01*
X103550000Y-60543750D02*
X103550000Y-61456250D01*
G75*
G02*
X103306250Y-61700000I-243750J0D01*
G01*
X102818750Y-61700000D01*
G75*
G02*
X102575000Y-61456250I0J243750D01*
G01*
X102575000Y-60543750D01*
G75*
G02*
X102818750Y-60300000I243750J0D01*
G01*
X103306250Y-60300000D01*
G75*
G02*
X103550000Y-60543750I0J-243750D01*
G01*
G37*
G36*
G01*
X105425000Y-60543750D02*
X105425000Y-61456250D01*
G75*
G02*
X105181250Y-61700000I-243750J0D01*
G01*
X104693750Y-61700000D01*
G75*
G02*
X104450000Y-61456250I0J243750D01*
G01*
X104450000Y-60543750D01*
G75*
G02*
X104693750Y-60300000I243750J0D01*
G01*
X105181250Y-60300000D01*
G75*
G02*
X105425000Y-60543750I0J-243750D01*
G01*
G37*
G36*
G01*
X115350000Y-60743750D02*
X115350000Y-61656250D01*
G75*
G02*
X115106250Y-61900000I-243750J0D01*
G01*
X114618750Y-61900000D01*
G75*
G02*
X114375000Y-61656250I0J243750D01*
G01*
X114375000Y-60743750D01*
G75*
G02*
X114618750Y-60500000I243750J0D01*
G01*
X115106250Y-60500000D01*
G75*
G02*
X115350000Y-60743750I0J-243750D01*
G01*
G37*
G36*
G01*
X117225000Y-60743750D02*
X117225000Y-61656250D01*
G75*
G02*
X116981250Y-61900000I-243750J0D01*
G01*
X116493750Y-61900000D01*
G75*
G02*
X116250000Y-61656250I0J243750D01*
G01*
X116250000Y-60743750D01*
G75*
G02*
X116493750Y-60500000I243750J0D01*
G01*
X116981250Y-60500000D01*
G75*
G02*
X117225000Y-60743750I0J-243750D01*
G01*
G37*
G36*
G01*
X158206250Y-68050000D02*
X157293750Y-68050000D01*
G75*
G02*
X157050000Y-67806250I0J243750D01*
G01*
X157050000Y-67318750D01*
G75*
G02*
X157293750Y-67075000I243750J0D01*
G01*
X158206250Y-67075000D01*
G75*
G02*
X158450000Y-67318750I0J-243750D01*
G01*
X158450000Y-67806250D01*
G75*
G02*
X158206250Y-68050000I-243750J0D01*
G01*
G37*
G36*
G01*
X158206250Y-69925000D02*
X157293750Y-69925000D01*
G75*
G02*
X157050000Y-69681250I0J243750D01*
G01*
X157050000Y-69193750D01*
G75*
G02*
X157293750Y-68950000I243750J0D01*
G01*
X158206250Y-68950000D01*
G75*
G02*
X158450000Y-69193750I0J-243750D01*
G01*
X158450000Y-69681250D01*
G75*
G02*
X158206250Y-69925000I-243750J0D01*
G01*
G37*
G36*
G01*
X165250000Y-70875000D02*
X167750000Y-70875000D01*
G75*
G02*
X168000000Y-71125000I0J-250000D01*
G01*
X168000000Y-72725000D01*
G75*
G02*
X167750000Y-72975000I-250000J0D01*
G01*
X165250000Y-72975000D01*
G75*
G02*
X165000000Y-72725000I0J250000D01*
G01*
X165000000Y-71125000D01*
G75*
G02*
X165250000Y-70875000I250000J0D01*
G01*
G37*
G36*
G01*
X165250000Y-64525000D02*
X167750000Y-64525000D01*
G75*
G02*
X168000000Y-64775000I0J-250000D01*
G01*
X168000000Y-66375000D01*
G75*
G02*
X167750000Y-66625000I-250000J0D01*
G01*
X165250000Y-66625000D01*
G75*
G02*
X165000000Y-66375000I0J250000D01*
G01*
X165000000Y-64775000D01*
G75*
G02*
X165250000Y-64525000I250000J0D01*
G01*
G37*
G36*
G01*
X163000000Y-68975000D02*
X164200000Y-68975000D01*
G75*
G02*
X164400000Y-69175000I0J-200000D01*
G01*
X164400000Y-69575000D01*
G75*
G02*
X164200000Y-69775000I-200000J0D01*
G01*
X163000000Y-69775000D01*
G75*
G02*
X162800000Y-69575000I0J200000D01*
G01*
X162800000Y-69175000D01*
G75*
G02*
X163000000Y-68975000I200000J0D01*
G01*
G37*
G36*
G01*
X163000000Y-67725000D02*
X164200000Y-67725000D01*
G75*
G02*
X164400000Y-67925000I0J-200000D01*
G01*
X164400000Y-68325000D01*
G75*
G02*
X164200000Y-68525000I-200000J0D01*
G01*
X163000000Y-68525000D01*
G75*
G02*
X162800000Y-68325000I0J200000D01*
G01*
X162800000Y-67925000D01*
G75*
G02*
X163000000Y-67725000I200000J0D01*
G01*
G37*
D13*
X153606500Y-45042000D03*
X153606500Y-42842000D03*
G36*
G01*
X165175500Y-48099000D02*
X167675500Y-48099000D01*
G75*
G02*
X167925500Y-48349000I0J-250000D01*
G01*
X167925500Y-49949000D01*
G75*
G02*
X167675500Y-50199000I-250000J0D01*
G01*
X165175500Y-50199000D01*
G75*
G02*
X164925500Y-49949000I0J250000D01*
G01*
X164925500Y-48349000D01*
G75*
G02*
X165175500Y-48099000I250000J0D01*
G01*
G37*
G36*
G01*
X165175500Y-41749000D02*
X167675500Y-41749000D01*
G75*
G02*
X167925500Y-41999000I0J-250000D01*
G01*
X167925500Y-43599000D01*
G75*
G02*
X167675500Y-43849000I-250000J0D01*
G01*
X165175500Y-43849000D01*
G75*
G02*
X164925500Y-43599000I0J250000D01*
G01*
X164925500Y-41999000D01*
G75*
G02*
X165175500Y-41749000I250000J0D01*
G01*
G37*
G36*
G01*
X162925500Y-46199000D02*
X164125500Y-46199000D01*
G75*
G02*
X164325500Y-46399000I0J-200000D01*
G01*
X164325500Y-46799000D01*
G75*
G02*
X164125500Y-46999000I-200000J0D01*
G01*
X162925500Y-46999000D01*
G75*
G02*
X162725500Y-46799000I0J200000D01*
G01*
X162725500Y-46399000D01*
G75*
G02*
X162925500Y-46199000I200000J0D01*
G01*
G37*
G36*
G01*
X162925500Y-44949000D02*
X164125500Y-44949000D01*
G75*
G02*
X164325500Y-45149000I0J-200000D01*
G01*
X164325500Y-45549000D01*
G75*
G02*
X164125500Y-45749000I-200000J0D01*
G01*
X162925500Y-45749000D01*
G75*
G02*
X162725500Y-45549000I0J200000D01*
G01*
X162725500Y-45149000D01*
G75*
G02*
X162925500Y-44949000I200000J0D01*
G01*
G37*
G36*
G01*
X104509000Y-87303000D02*
X102009000Y-87303000D01*
G75*
G02*
X101759000Y-87053000I0J250000D01*
G01*
X101759000Y-85453000D01*
G75*
G02*
X102009000Y-85203000I250000J0D01*
G01*
X104509000Y-85203000D01*
G75*
G02*
X104759000Y-85453000I0J-250000D01*
G01*
X104759000Y-87053000D01*
G75*
G02*
X104509000Y-87303000I-250000J0D01*
G01*
G37*
G36*
G01*
X104509000Y-96153000D02*
X102009000Y-96153000D01*
G75*
G02*
X101759000Y-95903000I0J250000D01*
G01*
X101759000Y-94303000D01*
G75*
G02*
X102009000Y-94053000I250000J0D01*
G01*
X104509000Y-94053000D01*
G75*
G02*
X104759000Y-94303000I0J-250000D01*
G01*
X104759000Y-95903000D01*
G75*
G02*
X104509000Y-96153000I-250000J0D01*
G01*
G37*
G36*
G01*
X106759000Y-89203000D02*
X105559000Y-89203000D01*
G75*
G02*
X105359000Y-89003000I0J200000D01*
G01*
X105359000Y-88603000D01*
G75*
G02*
X105559000Y-88403000I200000J0D01*
G01*
X106759000Y-88403000D01*
G75*
G02*
X106959000Y-88603000I0J-200000D01*
G01*
X106959000Y-89003000D01*
G75*
G02*
X106759000Y-89203000I-200000J0D01*
G01*
G37*
G36*
G01*
X106759000Y-90453000D02*
X105559000Y-90453000D01*
G75*
G02*
X105359000Y-90253000I0J200000D01*
G01*
X105359000Y-89853000D01*
G75*
G02*
X105559000Y-89653000I200000J0D01*
G01*
X106759000Y-89653000D01*
G75*
G02*
X106959000Y-89853000I0J-200000D01*
G01*
X106959000Y-90253000D01*
G75*
G02*
X106759000Y-90453000I-200000J0D01*
G01*
G37*
G36*
G01*
X106759000Y-91703000D02*
X105559000Y-91703000D01*
G75*
G02*
X105359000Y-91503000I0J200000D01*
G01*
X105359000Y-91103000D01*
G75*
G02*
X105559000Y-90903000I200000J0D01*
G01*
X106759000Y-90903000D01*
G75*
G02*
X106959000Y-91103000I0J-200000D01*
G01*
X106959000Y-91503000D01*
G75*
G02*
X106759000Y-91703000I-200000J0D01*
G01*
G37*
G36*
G01*
X106759000Y-92953000D02*
X105559000Y-92953000D01*
G75*
G02*
X105359000Y-92753000I0J200000D01*
G01*
X105359000Y-92353000D01*
G75*
G02*
X105559000Y-92153000I200000J0D01*
G01*
X106759000Y-92153000D01*
G75*
G02*
X106959000Y-92353000I0J-200000D01*
G01*
X106959000Y-92753000D01*
G75*
G02*
X106759000Y-92953000I-200000J0D01*
G01*
G37*
G36*
G01*
X165175500Y-81125000D02*
X167675500Y-81125000D01*
G75*
G02*
X167925500Y-81375000I0J-250000D01*
G01*
X167925500Y-82975000D01*
G75*
G02*
X167675500Y-83225000I-250000J0D01*
G01*
X165175500Y-83225000D01*
G75*
G02*
X164925500Y-82975000I0J250000D01*
G01*
X164925500Y-81375000D01*
G75*
G02*
X165175500Y-81125000I250000J0D01*
G01*
G37*
G36*
G01*
X165175500Y-74775000D02*
X167675500Y-74775000D01*
G75*
G02*
X167925500Y-75025000I0J-250000D01*
G01*
X167925500Y-76625000D01*
G75*
G02*
X167675500Y-76875000I-250000J0D01*
G01*
X165175500Y-76875000D01*
G75*
G02*
X164925500Y-76625000I0J250000D01*
G01*
X164925500Y-75025000D01*
G75*
G02*
X165175500Y-74775000I250000J0D01*
G01*
G37*
G36*
G01*
X162925500Y-79225000D02*
X164125500Y-79225000D01*
G75*
G02*
X164325500Y-79425000I0J-200000D01*
G01*
X164325500Y-79825000D01*
G75*
G02*
X164125500Y-80025000I-200000J0D01*
G01*
X162925500Y-80025000D01*
G75*
G02*
X162725500Y-79825000I0J200000D01*
G01*
X162725500Y-79425000D01*
G75*
G02*
X162925500Y-79225000I200000J0D01*
G01*
G37*
G36*
G01*
X162925500Y-77975000D02*
X164125500Y-77975000D01*
G75*
G02*
X164325500Y-78175000I0J-200000D01*
G01*
X164325500Y-78575000D01*
G75*
G02*
X164125500Y-78775000I-200000J0D01*
G01*
X162925500Y-78775000D01*
G75*
G02*
X162725500Y-78575000I0J200000D01*
G01*
X162725500Y-78175000D01*
G75*
G02*
X162925500Y-77975000I200000J0D01*
G01*
G37*
G36*
G01*
X165250000Y-60750000D02*
X167750000Y-60750000D01*
G75*
G02*
X168000000Y-61000000I0J-250000D01*
G01*
X168000000Y-62600000D01*
G75*
G02*
X167750000Y-62850000I-250000J0D01*
G01*
X165250000Y-62850000D01*
G75*
G02*
X165000000Y-62600000I0J250000D01*
G01*
X165000000Y-61000000D01*
G75*
G02*
X165250000Y-60750000I250000J0D01*
G01*
G37*
G36*
G01*
X165250000Y-53150000D02*
X167750000Y-53150000D01*
G75*
G02*
X168000000Y-53400000I0J-250000D01*
G01*
X168000000Y-55000000D01*
G75*
G02*
X167750000Y-55250000I-250000J0D01*
G01*
X165250000Y-55250000D01*
G75*
G02*
X165000000Y-55000000I0J250000D01*
G01*
X165000000Y-53400000D01*
G75*
G02*
X165250000Y-53150000I250000J0D01*
G01*
G37*
G36*
G01*
X163000000Y-58850000D02*
X164200000Y-58850000D01*
G75*
G02*
X164400000Y-59050000I0J-200000D01*
G01*
X164400000Y-59450000D01*
G75*
G02*
X164200000Y-59650000I-200000J0D01*
G01*
X163000000Y-59650000D01*
G75*
G02*
X162800000Y-59450000I0J200000D01*
G01*
X162800000Y-59050000D01*
G75*
G02*
X163000000Y-58850000I200000J0D01*
G01*
G37*
G36*
G01*
X163000000Y-57600000D02*
X164200000Y-57600000D01*
G75*
G02*
X164400000Y-57800000I0J-200000D01*
G01*
X164400000Y-58200000D01*
G75*
G02*
X164200000Y-58400000I-200000J0D01*
G01*
X163000000Y-58400000D01*
G75*
G02*
X162800000Y-58200000I0J200000D01*
G01*
X162800000Y-57800000D01*
G75*
G02*
X163000000Y-57600000I200000J0D01*
G01*
G37*
G36*
G01*
X163000000Y-56350000D02*
X164200000Y-56350000D01*
G75*
G02*
X164400000Y-56550000I0J-200000D01*
G01*
X164400000Y-56950000D01*
G75*
G02*
X164200000Y-57150000I-200000J0D01*
G01*
X163000000Y-57150000D01*
G75*
G02*
X162800000Y-56950000I0J200000D01*
G01*
X162800000Y-56550000D01*
G75*
G02*
X163000000Y-56350000I200000J0D01*
G01*
G37*
G36*
G01*
X152342000Y-37805500D02*
X152342000Y-37505500D01*
G75*
G02*
X152492000Y-37355500I150000J0D01*
G01*
X154242000Y-37355500D01*
G75*
G02*
X154392000Y-37505500I0J-150000D01*
G01*
X154392000Y-37805500D01*
G75*
G02*
X154242000Y-37955500I-150000J0D01*
G01*
X152492000Y-37955500D01*
G75*
G02*
X152342000Y-37805500I0J150000D01*
G01*
G37*
G36*
G01*
X152342000Y-36535500D02*
X152342000Y-36235500D01*
G75*
G02*
X152492000Y-36085500I150000J0D01*
G01*
X154242000Y-36085500D01*
G75*
G02*
X154392000Y-36235500I0J-150000D01*
G01*
X154392000Y-36535500D01*
G75*
G02*
X154242000Y-36685500I-150000J0D01*
G01*
X152492000Y-36685500D01*
G75*
G02*
X152342000Y-36535500I0J150000D01*
G01*
G37*
G36*
G01*
X152342000Y-35265500D02*
X152342000Y-34965500D01*
G75*
G02*
X152492000Y-34815500I150000J0D01*
G01*
X154242000Y-34815500D01*
G75*
G02*
X154392000Y-34965500I0J-150000D01*
G01*
X154392000Y-35265500D01*
G75*
G02*
X154242000Y-35415500I-150000J0D01*
G01*
X152492000Y-35415500D01*
G75*
G02*
X152342000Y-35265500I0J150000D01*
G01*
G37*
G36*
G01*
X152342000Y-33995500D02*
X152342000Y-33695500D01*
G75*
G02*
X152492000Y-33545500I150000J0D01*
G01*
X154242000Y-33545500D01*
G75*
G02*
X154392000Y-33695500I0J-150000D01*
G01*
X154392000Y-33995500D01*
G75*
G02*
X154242000Y-34145500I-150000J0D01*
G01*
X152492000Y-34145500D01*
G75*
G02*
X152342000Y-33995500I0J150000D01*
G01*
G37*
G36*
G01*
X152342000Y-32725500D02*
X152342000Y-32425500D01*
G75*
G02*
X152492000Y-32275500I150000J0D01*
G01*
X154242000Y-32275500D01*
G75*
G02*
X154392000Y-32425500I0J-150000D01*
G01*
X154392000Y-32725500D01*
G75*
G02*
X154242000Y-32875500I-150000J0D01*
G01*
X152492000Y-32875500D01*
G75*
G02*
X152342000Y-32725500I0J150000D01*
G01*
G37*
G36*
G01*
X152342000Y-31455500D02*
X152342000Y-31155500D01*
G75*
G02*
X152492000Y-31005500I150000J0D01*
G01*
X154242000Y-31005500D01*
G75*
G02*
X154392000Y-31155500I0J-150000D01*
G01*
X154392000Y-31455500D01*
G75*
G02*
X154242000Y-31605500I-150000J0D01*
G01*
X152492000Y-31605500D01*
G75*
G02*
X152342000Y-31455500I0J150000D01*
G01*
G37*
G36*
G01*
X152342000Y-30185500D02*
X152342000Y-29885500D01*
G75*
G02*
X152492000Y-29735500I150000J0D01*
G01*
X154242000Y-29735500D01*
G75*
G02*
X154392000Y-29885500I0J-150000D01*
G01*
X154392000Y-30185500D01*
G75*
G02*
X154242000Y-30335500I-150000J0D01*
G01*
X152492000Y-30335500D01*
G75*
G02*
X152342000Y-30185500I0J150000D01*
G01*
G37*
G36*
G01*
X152342000Y-28915500D02*
X152342000Y-28615500D01*
G75*
G02*
X152492000Y-28465500I150000J0D01*
G01*
X154242000Y-28465500D01*
G75*
G02*
X154392000Y-28615500I0J-150000D01*
G01*
X154392000Y-28915500D01*
G75*
G02*
X154242000Y-29065500I-150000J0D01*
G01*
X152492000Y-29065500D01*
G75*
G02*
X152342000Y-28915500I0J150000D01*
G01*
G37*
G36*
G01*
X143042000Y-28915500D02*
X143042000Y-28615500D01*
G75*
G02*
X143192000Y-28465500I150000J0D01*
G01*
X144942000Y-28465500D01*
G75*
G02*
X145092000Y-28615500I0J-150000D01*
G01*
X145092000Y-28915500D01*
G75*
G02*
X144942000Y-29065500I-150000J0D01*
G01*
X143192000Y-29065500D01*
G75*
G02*
X143042000Y-28915500I0J150000D01*
G01*
G37*
G36*
G01*
X143042000Y-30185500D02*
X143042000Y-29885500D01*
G75*
G02*
X143192000Y-29735500I150000J0D01*
G01*
X144942000Y-29735500D01*
G75*
G02*
X145092000Y-29885500I0J-150000D01*
G01*
X145092000Y-30185500D01*
G75*
G02*
X144942000Y-30335500I-150000J0D01*
G01*
X143192000Y-30335500D01*
G75*
G02*
X143042000Y-30185500I0J150000D01*
G01*
G37*
G36*
G01*
X143042000Y-31455500D02*
X143042000Y-31155500D01*
G75*
G02*
X143192000Y-31005500I150000J0D01*
G01*
X144942000Y-31005500D01*
G75*
G02*
X145092000Y-31155500I0J-150000D01*
G01*
X145092000Y-31455500D01*
G75*
G02*
X144942000Y-31605500I-150000J0D01*
G01*
X143192000Y-31605500D01*
G75*
G02*
X143042000Y-31455500I0J150000D01*
G01*
G37*
G36*
G01*
X143042000Y-32725500D02*
X143042000Y-32425500D01*
G75*
G02*
X143192000Y-32275500I150000J0D01*
G01*
X144942000Y-32275500D01*
G75*
G02*
X145092000Y-32425500I0J-150000D01*
G01*
X145092000Y-32725500D01*
G75*
G02*
X144942000Y-32875500I-150000J0D01*
G01*
X143192000Y-32875500D01*
G75*
G02*
X143042000Y-32725500I0J150000D01*
G01*
G37*
G36*
G01*
X143042000Y-33995500D02*
X143042000Y-33695500D01*
G75*
G02*
X143192000Y-33545500I150000J0D01*
G01*
X144942000Y-33545500D01*
G75*
G02*
X145092000Y-33695500I0J-150000D01*
G01*
X145092000Y-33995500D01*
G75*
G02*
X144942000Y-34145500I-150000J0D01*
G01*
X143192000Y-34145500D01*
G75*
G02*
X143042000Y-33995500I0J150000D01*
G01*
G37*
G36*
G01*
X143042000Y-35265500D02*
X143042000Y-34965500D01*
G75*
G02*
X143192000Y-34815500I150000J0D01*
G01*
X144942000Y-34815500D01*
G75*
G02*
X145092000Y-34965500I0J-150000D01*
G01*
X145092000Y-35265500D01*
G75*
G02*
X144942000Y-35415500I-150000J0D01*
G01*
X143192000Y-35415500D01*
G75*
G02*
X143042000Y-35265500I0J150000D01*
G01*
G37*
G36*
G01*
X143042000Y-36535500D02*
X143042000Y-36235500D01*
G75*
G02*
X143192000Y-36085500I150000J0D01*
G01*
X144942000Y-36085500D01*
G75*
G02*
X145092000Y-36235500I0J-150000D01*
G01*
X145092000Y-36535500D01*
G75*
G02*
X144942000Y-36685500I-150000J0D01*
G01*
X143192000Y-36685500D01*
G75*
G02*
X143042000Y-36535500I0J150000D01*
G01*
G37*
G36*
G01*
X143042000Y-37805500D02*
X143042000Y-37505500D01*
G75*
G02*
X143192000Y-37355500I150000J0D01*
G01*
X144942000Y-37355500D01*
G75*
G02*
X145092000Y-37505500I0J-150000D01*
G01*
X145092000Y-37805500D01*
G75*
G02*
X144942000Y-37955500I-150000J0D01*
G01*
X143192000Y-37955500D01*
G75*
G02*
X143042000Y-37805500I0J150000D01*
G01*
G37*
D14*
X151257000Y-87757000D03*
X153797000Y-82927000D03*
X156337000Y-87757000D03*
G36*
G01*
X160476250Y-75550000D02*
X159563750Y-75550000D01*
G75*
G02*
X159320000Y-75306250I0J243750D01*
G01*
X159320000Y-74818750D01*
G75*
G02*
X159563750Y-74575000I243750J0D01*
G01*
X160476250Y-74575000D01*
G75*
G02*
X160720000Y-74818750I0J-243750D01*
G01*
X160720000Y-75306250D01*
G75*
G02*
X160476250Y-75550000I-243750J0D01*
G01*
G37*
G36*
G01*
X160476250Y-77425000D02*
X159563750Y-77425000D01*
G75*
G02*
X159320000Y-77181250I0J243750D01*
G01*
X159320000Y-76693750D01*
G75*
G02*
X159563750Y-76450000I243750J0D01*
G01*
X160476250Y-76450000D01*
G75*
G02*
X160720000Y-76693750I0J-243750D01*
G01*
X160720000Y-77181250D01*
G75*
G02*
X160476250Y-77425000I-243750J0D01*
G01*
G37*
G36*
G01*
X163962500Y-28078750D02*
X163962500Y-27166250D01*
G75*
G02*
X164206250Y-26922500I243750J0D01*
G01*
X164693750Y-26922500D01*
G75*
G02*
X164937500Y-27166250I0J-243750D01*
G01*
X164937500Y-28078750D01*
G75*
G02*
X164693750Y-28322500I-243750J0D01*
G01*
X164206250Y-28322500D01*
G75*
G02*
X163962500Y-28078750I0J243750D01*
G01*
G37*
G36*
G01*
X162087500Y-28078750D02*
X162087500Y-27166250D01*
G75*
G02*
X162331250Y-26922500I243750J0D01*
G01*
X162818750Y-26922500D01*
G75*
G02*
X163062500Y-27166250I0J-243750D01*
G01*
X163062500Y-28078750D01*
G75*
G02*
X162818750Y-28322500I-243750J0D01*
G01*
X162331250Y-28322500D01*
G75*
G02*
X162087500Y-28078750I0J243750D01*
G01*
G37*
G36*
G01*
X163962500Y-35063750D02*
X163962500Y-34151250D01*
G75*
G02*
X164206250Y-33907500I243750J0D01*
G01*
X164693750Y-33907500D01*
G75*
G02*
X164937500Y-34151250I0J-243750D01*
G01*
X164937500Y-35063750D01*
G75*
G02*
X164693750Y-35307500I-243750J0D01*
G01*
X164206250Y-35307500D01*
G75*
G02*
X163962500Y-35063750I0J243750D01*
G01*
G37*
G36*
G01*
X162087500Y-35063750D02*
X162087500Y-34151250D01*
G75*
G02*
X162331250Y-33907500I243750J0D01*
G01*
X162818750Y-33907500D01*
G75*
G02*
X163062500Y-34151250I0J-243750D01*
G01*
X163062500Y-35063750D01*
G75*
G02*
X162818750Y-35307500I-243750J0D01*
G01*
X162331250Y-35307500D01*
G75*
G02*
X162087500Y-35063750I0J243750D01*
G01*
G37*
G36*
G01*
X160222250Y-87355500D02*
X159309750Y-87355500D01*
G75*
G02*
X159066000Y-87111750I0J243750D01*
G01*
X159066000Y-86624250D01*
G75*
G02*
X159309750Y-86380500I243750J0D01*
G01*
X160222250Y-86380500D01*
G75*
G02*
X160466000Y-86624250I0J-243750D01*
G01*
X160466000Y-87111750D01*
G75*
G02*
X160222250Y-87355500I-243750J0D01*
G01*
G37*
G36*
G01*
X160222250Y-89230500D02*
X159309750Y-89230500D01*
G75*
G02*
X159066000Y-88986750I0J243750D01*
G01*
X159066000Y-88499250D01*
G75*
G02*
X159309750Y-88255500I243750J0D01*
G01*
X160222250Y-88255500D01*
G75*
G02*
X160466000Y-88499250I0J-243750D01*
G01*
X160466000Y-88986750D01*
G75*
G02*
X160222250Y-89230500I-243750J0D01*
G01*
G37*
G36*
G01*
X124511750Y-93922000D02*
X125424250Y-93922000D01*
G75*
G02*
X125668000Y-94165750I0J-243750D01*
G01*
X125668000Y-94653250D01*
G75*
G02*
X125424250Y-94897000I-243750J0D01*
G01*
X124511750Y-94897000D01*
G75*
G02*
X124268000Y-94653250I0J243750D01*
G01*
X124268000Y-94165750D01*
G75*
G02*
X124511750Y-93922000I243750J0D01*
G01*
G37*
G36*
G01*
X124511750Y-92047000D02*
X125424250Y-92047000D01*
G75*
G02*
X125668000Y-92290750I0J-243750D01*
G01*
X125668000Y-92778250D01*
G75*
G02*
X125424250Y-93022000I-243750J0D01*
G01*
X124511750Y-93022000D01*
G75*
G02*
X124268000Y-92778250I0J243750D01*
G01*
X124268000Y-92290750D01*
G75*
G02*
X124511750Y-92047000I243750J0D01*
G01*
G37*
G36*
G01*
X121019250Y-93922000D02*
X121931750Y-93922000D01*
G75*
G02*
X122175500Y-94165750I0J-243750D01*
G01*
X122175500Y-94653250D01*
G75*
G02*
X121931750Y-94897000I-243750J0D01*
G01*
X121019250Y-94897000D01*
G75*
G02*
X120775500Y-94653250I0J243750D01*
G01*
X120775500Y-94165750D01*
G75*
G02*
X121019250Y-93922000I243750J0D01*
G01*
G37*
G36*
G01*
X121019250Y-92047000D02*
X121931750Y-92047000D01*
G75*
G02*
X122175500Y-92290750I0J-243750D01*
G01*
X122175500Y-92778250D01*
G75*
G02*
X121931750Y-93022000I-243750J0D01*
G01*
X121019250Y-93022000D01*
G75*
G02*
X120775500Y-92778250I0J243750D01*
G01*
X120775500Y-92290750D01*
G75*
G02*
X121019250Y-92047000I243750J0D01*
G01*
G37*
G36*
G01*
X145085750Y-90317500D02*
X145998250Y-90317500D01*
G75*
G02*
X146242000Y-90561250I0J-243750D01*
G01*
X146242000Y-91048750D01*
G75*
G02*
X145998250Y-91292500I-243750J0D01*
G01*
X145085750Y-91292500D01*
G75*
G02*
X144842000Y-91048750I0J243750D01*
G01*
X144842000Y-90561250D01*
G75*
G02*
X145085750Y-90317500I243750J0D01*
G01*
G37*
G36*
G01*
X145085750Y-88442500D02*
X145998250Y-88442500D01*
G75*
G02*
X146242000Y-88686250I0J-243750D01*
G01*
X146242000Y-89173750D01*
G75*
G02*
X145998250Y-89417500I-243750J0D01*
G01*
X145085750Y-89417500D01*
G75*
G02*
X144842000Y-89173750I0J243750D01*
G01*
X144842000Y-88686250D01*
G75*
G02*
X145085750Y-88442500I243750J0D01*
G01*
G37*
G36*
G01*
X157793750Y-58200000D02*
X158706250Y-58200000D01*
G75*
G02*
X158950000Y-58443750I0J-243750D01*
G01*
X158950000Y-58931250D01*
G75*
G02*
X158706250Y-59175000I-243750J0D01*
G01*
X157793750Y-59175000D01*
G75*
G02*
X157550000Y-58931250I0J243750D01*
G01*
X157550000Y-58443750D01*
G75*
G02*
X157793750Y-58200000I243750J0D01*
G01*
G37*
G36*
G01*
X157793750Y-56325000D02*
X158706250Y-56325000D01*
G75*
G02*
X158950000Y-56568750I0J-243750D01*
G01*
X158950000Y-57056250D01*
G75*
G02*
X158706250Y-57300000I-243750J0D01*
G01*
X157793750Y-57300000D01*
G75*
G02*
X157550000Y-57056250I0J243750D01*
G01*
X157550000Y-56568750D01*
G75*
G02*
X157793750Y-56325000I243750J0D01*
G01*
G37*
G36*
G01*
X107003000Y-77037250D02*
X107003000Y-76124750D01*
G75*
G02*
X107246750Y-75881000I243750J0D01*
G01*
X107734250Y-75881000D01*
G75*
G02*
X107978000Y-76124750I0J-243750D01*
G01*
X107978000Y-77037250D01*
G75*
G02*
X107734250Y-77281000I-243750J0D01*
G01*
X107246750Y-77281000D01*
G75*
G02*
X107003000Y-77037250I0J243750D01*
G01*
G37*
G36*
G01*
X105128000Y-77037250D02*
X105128000Y-76124750D01*
G75*
G02*
X105371750Y-75881000I243750J0D01*
G01*
X105859250Y-75881000D01*
G75*
G02*
X106103000Y-76124750I0J-243750D01*
G01*
X106103000Y-77037250D01*
G75*
G02*
X105859250Y-77281000I-243750J0D01*
G01*
X105371750Y-77281000D01*
G75*
G02*
X105128000Y-77037250I0J243750D01*
G01*
G37*
G36*
G01*
X125424250Y-87116500D02*
X124511750Y-87116500D01*
G75*
G02*
X124268000Y-86872750I0J243750D01*
G01*
X124268000Y-86385250D01*
G75*
G02*
X124511750Y-86141500I243750J0D01*
G01*
X125424250Y-86141500D01*
G75*
G02*
X125668000Y-86385250I0J-243750D01*
G01*
X125668000Y-86872750D01*
G75*
G02*
X125424250Y-87116500I-243750J0D01*
G01*
G37*
G36*
G01*
X125424250Y-88991500D02*
X124511750Y-88991500D01*
G75*
G02*
X124268000Y-88747750I0J243750D01*
G01*
X124268000Y-88260250D01*
G75*
G02*
X124511750Y-88016500I243750J0D01*
G01*
X125424250Y-88016500D01*
G75*
G02*
X125668000Y-88260250I0J-243750D01*
G01*
X125668000Y-88747750D01*
G75*
G02*
X125424250Y-88991500I-243750J0D01*
G01*
G37*
G36*
G01*
X156743750Y-49650000D02*
X157656250Y-49650000D01*
G75*
G02*
X157900000Y-49893750I0J-243750D01*
G01*
X157900000Y-50381250D01*
G75*
G02*
X157656250Y-50625000I-243750J0D01*
G01*
X156743750Y-50625000D01*
G75*
G02*
X156500000Y-50381250I0J243750D01*
G01*
X156500000Y-49893750D01*
G75*
G02*
X156743750Y-49650000I243750J0D01*
G01*
G37*
G36*
G01*
X156743750Y-47775000D02*
X157656250Y-47775000D01*
G75*
G02*
X157900000Y-48018750I0J-243750D01*
G01*
X157900000Y-48506250D01*
G75*
G02*
X157656250Y-48750000I-243750J0D01*
G01*
X156743750Y-48750000D01*
G75*
G02*
X156500000Y-48506250I0J243750D01*
G01*
X156500000Y-48018750D01*
G75*
G02*
X156743750Y-47775000I243750J0D01*
G01*
G37*
G36*
G01*
X116574250Y-44885000D02*
X117486750Y-44885000D01*
G75*
G02*
X117730500Y-45128750I0J-243750D01*
G01*
X117730500Y-45616250D01*
G75*
G02*
X117486750Y-45860000I-243750J0D01*
G01*
X116574250Y-45860000D01*
G75*
G02*
X116330500Y-45616250I0J243750D01*
G01*
X116330500Y-45128750D01*
G75*
G02*
X116574250Y-44885000I243750J0D01*
G01*
G37*
G36*
G01*
X116574250Y-43010000D02*
X117486750Y-43010000D01*
G75*
G02*
X117730500Y-43253750I0J-243750D01*
G01*
X117730500Y-43741250D01*
G75*
G02*
X117486750Y-43985000I-243750J0D01*
G01*
X116574250Y-43985000D01*
G75*
G02*
X116330500Y-43741250I0J243750D01*
G01*
X116330500Y-43253750D01*
G75*
G02*
X116574250Y-43010000I243750J0D01*
G01*
G37*
G36*
G01*
X156983750Y-43492000D02*
X156071250Y-43492000D01*
G75*
G02*
X155827500Y-43248250I0J243750D01*
G01*
X155827500Y-42760750D01*
G75*
G02*
X156071250Y-42517000I243750J0D01*
G01*
X156983750Y-42517000D01*
G75*
G02*
X157227500Y-42760750I0J-243750D01*
G01*
X157227500Y-43248250D01*
G75*
G02*
X156983750Y-43492000I-243750J0D01*
G01*
G37*
G36*
G01*
X156983750Y-45367000D02*
X156071250Y-45367000D01*
G75*
G02*
X155827500Y-45123250I0J243750D01*
G01*
X155827500Y-44635750D01*
G75*
G02*
X156071250Y-44392000I243750J0D01*
G01*
X156983750Y-44392000D01*
G75*
G02*
X157227500Y-44635750I0J-243750D01*
G01*
X157227500Y-45123250D01*
G75*
G02*
X156983750Y-45367000I-243750J0D01*
G01*
G37*
G36*
G01*
X106985750Y-54107500D02*
X107898250Y-54107500D01*
G75*
G02*
X108142000Y-54351250I0J-243750D01*
G01*
X108142000Y-54838750D01*
G75*
G02*
X107898250Y-55082500I-243750J0D01*
G01*
X106985750Y-55082500D01*
G75*
G02*
X106742000Y-54838750I0J243750D01*
G01*
X106742000Y-54351250D01*
G75*
G02*
X106985750Y-54107500I243750J0D01*
G01*
G37*
G36*
G01*
X106985750Y-52232500D02*
X107898250Y-52232500D01*
G75*
G02*
X108142000Y-52476250I0J-243750D01*
G01*
X108142000Y-52963750D01*
G75*
G02*
X107898250Y-53207500I-243750J0D01*
G01*
X106985750Y-53207500D01*
G75*
G02*
X106742000Y-52963750I0J243750D01*
G01*
X106742000Y-52476250D01*
G75*
G02*
X106985750Y-52232500I243750J0D01*
G01*
G37*
G36*
G01*
X159436750Y-49650000D02*
X160349250Y-49650000D01*
G75*
G02*
X160593000Y-49893750I0J-243750D01*
G01*
X160593000Y-50381250D01*
G75*
G02*
X160349250Y-50625000I-243750J0D01*
G01*
X159436750Y-50625000D01*
G75*
G02*
X159193000Y-50381250I0J243750D01*
G01*
X159193000Y-49893750D01*
G75*
G02*
X159436750Y-49650000I243750J0D01*
G01*
G37*
G36*
G01*
X159436750Y-47775000D02*
X160349250Y-47775000D01*
G75*
G02*
X160593000Y-48018750I0J-243750D01*
G01*
X160593000Y-48506250D01*
G75*
G02*
X160349250Y-48750000I-243750J0D01*
G01*
X159436750Y-48750000D01*
G75*
G02*
X159193000Y-48506250I0J243750D01*
G01*
X159193000Y-48018750D01*
G75*
G02*
X159436750Y-47775000I243750J0D01*
G01*
G37*
G36*
G01*
X112065750Y-54107500D02*
X112978250Y-54107500D01*
G75*
G02*
X113222000Y-54351250I0J-243750D01*
G01*
X113222000Y-54838750D01*
G75*
G02*
X112978250Y-55082500I-243750J0D01*
G01*
X112065750Y-55082500D01*
G75*
G02*
X111822000Y-54838750I0J243750D01*
G01*
X111822000Y-54351250D01*
G75*
G02*
X112065750Y-54107500I243750J0D01*
G01*
G37*
G36*
G01*
X112065750Y-52232500D02*
X112978250Y-52232500D01*
G75*
G02*
X113222000Y-52476250I0J-243750D01*
G01*
X113222000Y-52963750D01*
G75*
G02*
X112978250Y-53207500I-243750J0D01*
G01*
X112065750Y-53207500D01*
G75*
G02*
X111822000Y-52963750I0J243750D01*
G01*
X111822000Y-52476250D01*
G75*
G02*
X112065750Y-52232500I243750J0D01*
G01*
G37*
D15*
X168767000Y-33655000D03*
X166767000Y-32705000D03*
X166767000Y-34605000D03*
X147558000Y-84836000D03*
X145558000Y-83886000D03*
X145558000Y-85786000D03*
G36*
G01*
X117486750Y-48445000D02*
X116574250Y-48445000D01*
G75*
G02*
X116330500Y-48201250I0J243750D01*
G01*
X116330500Y-47713750D01*
G75*
G02*
X116574250Y-47470000I243750J0D01*
G01*
X117486750Y-47470000D01*
G75*
G02*
X117730500Y-47713750I0J-243750D01*
G01*
X117730500Y-48201250D01*
G75*
G02*
X117486750Y-48445000I-243750J0D01*
G01*
G37*
G36*
G01*
X117486750Y-50320000D02*
X116574250Y-50320000D01*
G75*
G02*
X116330500Y-50076250I0J243750D01*
G01*
X116330500Y-49588750D01*
G75*
G02*
X116574250Y-49345000I243750J0D01*
G01*
X117486750Y-49345000D01*
G75*
G02*
X117730500Y-49588750I0J-243750D01*
G01*
X117730500Y-50076250D01*
G75*
G02*
X117486750Y-50320000I-243750J0D01*
G01*
G37*
G36*
G01*
X148330500Y-25515250D02*
X148330500Y-26427750D01*
G75*
G02*
X148086750Y-26671500I-243750J0D01*
G01*
X147599250Y-26671500D01*
G75*
G02*
X147355500Y-26427750I0J243750D01*
G01*
X147355500Y-25515250D01*
G75*
G02*
X147599250Y-25271500I243750J0D01*
G01*
X148086750Y-25271500D01*
G75*
G02*
X148330500Y-25515250I0J-243750D01*
G01*
G37*
G36*
G01*
X150205500Y-25515250D02*
X150205500Y-26427750D01*
G75*
G02*
X149961750Y-26671500I-243750J0D01*
G01*
X149474250Y-26671500D01*
G75*
G02*
X149230500Y-26427750I0J243750D01*
G01*
X149230500Y-25515250D01*
G75*
G02*
X149474250Y-25271500I243750J0D01*
G01*
X149961750Y-25271500D01*
G75*
G02*
X150205500Y-25515250I0J-243750D01*
G01*
G37*
G36*
G01*
X130143750Y-50450000D02*
X131056250Y-50450000D01*
G75*
G02*
X131300000Y-50693750I0J-243750D01*
G01*
X131300000Y-51181250D01*
G75*
G02*
X131056250Y-51425000I-243750J0D01*
G01*
X130143750Y-51425000D01*
G75*
G02*
X129900000Y-51181250I0J243750D01*
G01*
X129900000Y-50693750D01*
G75*
G02*
X130143750Y-50450000I243750J0D01*
G01*
G37*
G36*
G01*
X130143750Y-48575000D02*
X131056250Y-48575000D01*
G75*
G02*
X131300000Y-48818750I0J-243750D01*
G01*
X131300000Y-49306250D01*
G75*
G02*
X131056250Y-49550000I-243750J0D01*
G01*
X130143750Y-49550000D01*
G75*
G02*
X129900000Y-49306250I0J243750D01*
G01*
X129900000Y-48818750D01*
G75*
G02*
X130143750Y-48575000I243750J0D01*
G01*
G37*
G36*
G01*
X147308250Y-44392000D02*
X148220750Y-44392000D01*
G75*
G02*
X148464500Y-44635750I0J-243750D01*
G01*
X148464500Y-45123250D01*
G75*
G02*
X148220750Y-45367000I-243750J0D01*
G01*
X147308250Y-45367000D01*
G75*
G02*
X147064500Y-45123250I0J243750D01*
G01*
X147064500Y-44635750D01*
G75*
G02*
X147308250Y-44392000I243750J0D01*
G01*
G37*
G36*
G01*
X147308250Y-42517000D02*
X148220750Y-42517000D01*
G75*
G02*
X148464500Y-42760750I0J-243750D01*
G01*
X148464500Y-43248250D01*
G75*
G02*
X148220750Y-43492000I-243750J0D01*
G01*
X147308250Y-43492000D01*
G75*
G02*
X147064500Y-43248250I0J243750D01*
G01*
X147064500Y-42760750D01*
G75*
G02*
X147308250Y-42517000I243750J0D01*
G01*
G37*
M02*
