G04 #@! TF.GenerationSoftware,KiCad,Pcbnew,5.1.6+dfsg1-1~bpo9+1*
G04 #@! TF.CreationDate,2022-04-20T06:51:38+02:00*
G04 #@! TF.ProjectId,sdrtrx-arduino,73647274-7278-42d6-9172-6475696e6f2e,rev?*
G04 #@! TF.SameCoordinates,Original*
G04 #@! TF.FileFunction,Soldermask,Top*
G04 #@! TF.FilePolarity,Negative*
%FSLAX46Y46*%
G04 Gerber Fmt 4.6, Leading zero omitted, Abs format (unit mm)*
G04 Created by KiCad (PCBNEW 5.1.6+dfsg1-1~bpo9+1) date 2022-04-20 06:51:38*
%MOMM*%
%LPD*%
G01*
G04 APERTURE LIST*
%ADD10R,1.800000X1.800000*%
%ADD11O,2.100000X1.800000*%
%ADD12R,2.100000X2.100000*%
%ADD13C,2.100000*%
%ADD14R,2.100000X3.300000*%
%ADD15O,1.900000X1.900000*%
%ADD16R,1.900000X1.900000*%
%ADD17O,1.800000X1.800000*%
%ADD18C,3.600000*%
%ADD19O,1.700000X1.700000*%
%ADD20R,1.700000X1.700000*%
G04 APERTURE END LIST*
G36*
G01*
X109257456Y-33875000D02*
X107942544Y-33875000D01*
G75*
G02*
X107675000Y-33607456I0J267544D01*
G01*
X107675000Y-32617544D01*
G75*
G02*
X107942544Y-32350000I267544J0D01*
G01*
X109257456Y-32350000D01*
G75*
G02*
X109525000Y-32617544I0J-267544D01*
G01*
X109525000Y-33607456D01*
G75*
G02*
X109257456Y-33875000I-267544J0D01*
G01*
G37*
G36*
G01*
X109257456Y-36850000D02*
X107942544Y-36850000D01*
G75*
G02*
X107675000Y-36582456I0J267544D01*
G01*
X107675000Y-35592544D01*
G75*
G02*
X107942544Y-35325000I267544J0D01*
G01*
X109257456Y-35325000D01*
G75*
G02*
X109525000Y-35592544I0J-267544D01*
G01*
X109525000Y-36582456D01*
G75*
G02*
X109257456Y-36850000I-267544J0D01*
G01*
G37*
D10*
X124600000Y-70600000D03*
X128200000Y-72000000D03*
X129540000Y-93726000D03*
X109601000Y-94107000D03*
X137223500Y-93726000D03*
D11*
X108521500Y-47902500D03*
G36*
G01*
X107736206Y-44502500D02*
X109306794Y-44502500D01*
G75*
G02*
X109571500Y-44767206I0J-264706D01*
G01*
X109571500Y-46037794D01*
G75*
G02*
X109306794Y-46302500I-264706J0D01*
G01*
X107736206Y-46302500D01*
G75*
G02*
X107471500Y-46037794I0J264706D01*
G01*
X107471500Y-44767206D01*
G75*
G02*
X107736206Y-44502500I264706J0D01*
G01*
G37*
D10*
X109750000Y-86500000D03*
D12*
X112458500Y-57531000D03*
D13*
X109958500Y-57531000D03*
X107458500Y-57531000D03*
D14*
X115558500Y-65031000D03*
X104358500Y-65031000D03*
D13*
X112458500Y-72031000D03*
X107458500Y-72031000D03*
G36*
G01*
X117057250Y-34372500D02*
X118019750Y-34372500D01*
G75*
G02*
X118288500Y-34641250I0J-268750D01*
G01*
X118288500Y-35178750D01*
G75*
G02*
X118019750Y-35447500I-268750J0D01*
G01*
X117057250Y-35447500D01*
G75*
G02*
X116788500Y-35178750I0J268750D01*
G01*
X116788500Y-34641250D01*
G75*
G02*
X117057250Y-34372500I268750J0D01*
G01*
G37*
G36*
G01*
X117057250Y-32497500D02*
X118019750Y-32497500D01*
G75*
G02*
X118288500Y-32766250I0J-268750D01*
G01*
X118288500Y-33303750D01*
G75*
G02*
X118019750Y-33572500I-268750J0D01*
G01*
X117057250Y-33572500D01*
G75*
G02*
X116788500Y-33303750I0J268750D01*
G01*
X116788500Y-32766250D01*
G75*
G02*
X117057250Y-32497500I268750J0D01*
G01*
G37*
D15*
X112458500Y-38100000D03*
X112458500Y-35560000D03*
D16*
X112458500Y-33020000D03*
D17*
X168100000Y-22540000D03*
X165560000Y-22540000D03*
X163020000Y-22540000D03*
X160480000Y-22540000D03*
X157940000Y-22540000D03*
X155400000Y-22540000D03*
X152860000Y-22540000D03*
X150320000Y-22540000D03*
X147780000Y-22540000D03*
X145240000Y-22540000D03*
X142700000Y-22540000D03*
X140160000Y-22540000D03*
X137620000Y-22540000D03*
X135080000Y-22540000D03*
X132540000Y-22540000D03*
D10*
X130000000Y-22540000D03*
D17*
X104013000Y-35560000D03*
D10*
X104013000Y-33020000D03*
D17*
X104076500Y-26225500D03*
D10*
X104076500Y-23685500D03*
D18*
X155000000Y-97000000D03*
X122500000Y-22500000D03*
X122500000Y-77500000D03*
D19*
X104203500Y-98298000D03*
X104203500Y-83058000D03*
X139763500Y-98298000D03*
X106743500Y-83058000D03*
X137223500Y-98298000D03*
X109283500Y-83058000D03*
X134683500Y-98298000D03*
X111823500Y-83058000D03*
X132143500Y-98298000D03*
X114363500Y-83058000D03*
X129603500Y-98298000D03*
X116903500Y-83058000D03*
X127063500Y-98298000D03*
X119443500Y-83058000D03*
X124523500Y-98298000D03*
X121983500Y-83058000D03*
X121983500Y-98298000D03*
X124523500Y-83058000D03*
X119443500Y-98298000D03*
X127063500Y-83058000D03*
X116903500Y-98298000D03*
X129603500Y-83058000D03*
X114363500Y-98298000D03*
X132143500Y-83058000D03*
X111823500Y-98298000D03*
X134683500Y-83058000D03*
X109283500Y-98298000D03*
X137223500Y-83058000D03*
X106743500Y-98298000D03*
D20*
X139763500Y-83058000D03*
M02*
