%FSLAX45Y45*%
G04 Gerber Fmt 4.5, Leading zero omitted, Abs format (unit mm)*
G04 Created by KiCad (PCBNEW 5.1.6+dfsg1-1~bpo9+1) date 2022-04-20 06:51:43*
%MOMM*%
%LPD*%
G01*
G04 APERTURE LIST*
%TA.AperFunction,Profile*%
%ADD10C,0.050000*%
%TD*%
%ADD11C,0.200000*%
%ADD12C,0.300000*%
G04 APERTURE END LIST*
D10*
X17000000Y-2000000D02*
X17000000Y-10000000D01*
X10000000Y-2000000D02*
X17000000Y-2000000D01*
X10000000Y-10000000D02*
X10000000Y-2000000D01*
X10000000Y-10000000D02*
X17000000Y-10000000D01*
D11*
X10254300Y-7460300D02*
X10294300Y-7500300D01*
X10294300Y-7460300D02*
X10254300Y-7500300D01*
X10324150Y-5250500D02*
X10364150Y-5290500D01*
X10364150Y-5250500D02*
X10324150Y-5290500D01*
X10597200Y-9422450D02*
X10637200Y-9462450D01*
X10637200Y-9422450D02*
X10597200Y-9462450D01*
X10720000Y-2860000D02*
X10760000Y-2900000D01*
X10760000Y-2860000D02*
X10720000Y-2900000D01*
X10749600Y-6850700D02*
X10789600Y-6890700D01*
X10789600Y-6850700D02*
X10749600Y-6890700D01*
X11100000Y-5940000D02*
X11140000Y-5980000D01*
X11140000Y-5940000D02*
X11100000Y-5980000D01*
X11111550Y-9009700D02*
X11151550Y-9049700D01*
X11151550Y-9009700D02*
X11111550Y-9049700D01*
X11400000Y-2220000D02*
X11440000Y-2260000D01*
X11440000Y-2220000D02*
X11400000Y-2260000D01*
X11410000Y-8704900D02*
X11450000Y-8744900D01*
X11450000Y-8704900D02*
X11410000Y-8744900D01*
X11498900Y-8787450D02*
X11538900Y-8827450D01*
X11538900Y-8787450D02*
X11498900Y-8827450D01*
X11600500Y-8882700D02*
X11640500Y-8922700D01*
X11640500Y-8882700D02*
X11600500Y-8922700D01*
X11660000Y-5740000D02*
X11700000Y-5780000D01*
X11700000Y-5740000D02*
X11660000Y-5780000D01*
X11660000Y-5860000D02*
X11700000Y-5900000D01*
X11700000Y-5860000D02*
X11660000Y-5900000D01*
X11680000Y-6920000D02*
X11720000Y-6960000D01*
X11720000Y-6920000D02*
X11680000Y-6960000D01*
X11689400Y-8971600D02*
X11729400Y-9011600D01*
X11729400Y-8971600D02*
X11689400Y-9011600D01*
X11930700Y-8577900D02*
X11970700Y-8617900D01*
X11970700Y-8577900D02*
X11930700Y-8617900D01*
X12200000Y-6740000D02*
X12240000Y-6780000D01*
X12240000Y-6740000D02*
X12200000Y-6780000D01*
X12280000Y-6120000D02*
X12320000Y-6160000D01*
X12320000Y-6120000D02*
X12280000Y-6160000D01*
X12580000Y-6655000D02*
X12620000Y-6695000D01*
X12620000Y-6655000D02*
X12580000Y-6695000D01*
X12655000Y-9305000D02*
X12695000Y-9345000D01*
X12695000Y-9305000D02*
X12655000Y-9345000D01*
X12755000Y-8755000D02*
X12795000Y-8795000D01*
X12795000Y-8755000D02*
X12755000Y-8795000D01*
X12857800Y-8025450D02*
X12897800Y-8065450D01*
X12897800Y-8025450D02*
X12857800Y-8065450D01*
X13020000Y-5280000D02*
X13060000Y-5320000D01*
X13060000Y-5280000D02*
X13020000Y-5320000D01*
X13035600Y-7961950D02*
X13075600Y-8001950D01*
X13075600Y-7961950D02*
X13035600Y-8001950D01*
X13240000Y-4980000D02*
X13280000Y-5020000D01*
X13280000Y-4980000D02*
X13240000Y-5020000D01*
X13372150Y-2532700D02*
X13412150Y-2572700D01*
X13412150Y-2532700D02*
X13372150Y-2572700D01*
X13677950Y-6857050D02*
X13717950Y-6897050D01*
X13717950Y-6857050D02*
X13677950Y-6897050D01*
X14200000Y-4840000D02*
X14240000Y-4880000D01*
X14240000Y-4840000D02*
X14200000Y-4880000D01*
X14200000Y-5240000D02*
X14240000Y-5280000D01*
X14240000Y-5240000D02*
X14200000Y-5280000D01*
X14255000Y-8480000D02*
X14295000Y-8520000D01*
X14295000Y-8480000D02*
X14255000Y-8520000D01*
X14620000Y-5140000D02*
X14660000Y-5180000D01*
X14660000Y-5140000D02*
X14620000Y-5180000D01*
X14680250Y-2983550D02*
X14720250Y-3023550D01*
X14720250Y-2983550D02*
X14680250Y-3023550D01*
X14845350Y-3218500D02*
X14885350Y-3258500D01*
X14885350Y-3218500D02*
X14845350Y-3258500D01*
X14855000Y-7280000D02*
X14895000Y-7320000D01*
X14895000Y-7280000D02*
X14855000Y-7320000D01*
X14940000Y-5137300D02*
X14980000Y-5177300D01*
X14980000Y-5137300D02*
X14940000Y-5177300D01*
X15588300Y-3618550D02*
X15628300Y-3658550D01*
X15628300Y-3618550D02*
X15588300Y-3658550D01*
X15594650Y-3358200D02*
X15634650Y-3398200D01*
X15634650Y-3358200D02*
X15594650Y-3398200D01*
X15594650Y-3485200D02*
X15634650Y-3525200D01*
X15634650Y-3485200D02*
X15594650Y-3525200D01*
X15785150Y-8279450D02*
X15825150Y-8319450D01*
X15825150Y-8279450D02*
X15785150Y-8319450D01*
X16051850Y-9117650D02*
X16091850Y-9157650D01*
X16091850Y-9117650D02*
X16051850Y-9157650D01*
X16051850Y-9244650D02*
X16091850Y-9284650D01*
X16091850Y-9244650D02*
X16051850Y-9284650D01*
X16051850Y-9371650D02*
X16091850Y-9411650D01*
X16091850Y-9371650D02*
X16051850Y-9411650D01*
X16420150Y-3199450D02*
X16460150Y-3239450D01*
X16460150Y-3199450D02*
X16420150Y-3239450D01*
X16509050Y-3288350D02*
X16549050Y-3328350D01*
X16549050Y-3288350D02*
X16509050Y-3328350D01*
X10902150Y-4540250D02*
G75*
G03*
X10902150Y-4540250I-50000J0D01*
G01*
X10902150Y-4790250D02*
G75*
G03*
X10902150Y-4790250I-50000J0D01*
G01*
X10451300Y-3302000D02*
G75*
G03*
X10451300Y-3302000I-50000J0D01*
G01*
X10451300Y-3556000D02*
G75*
G03*
X10451300Y-3556000I-50000J0D01*
G01*
X13772350Y-9372600D02*
G75*
G03*
X13772350Y-9372600I-50000J0D01*
G01*
X10470350Y-8305800D02*
G75*
G03*
X10470350Y-8305800I-50000J0D01*
G01*
X10470350Y-9829800D02*
G75*
G03*
X10470350Y-9829800I-50000J0D01*
G01*
X10724350Y-8305800D02*
G75*
G03*
X10724350Y-8305800I-50000J0D01*
G01*
X10724350Y-9829800D02*
G75*
G03*
X10724350Y-9829800I-50000J0D01*
G01*
X10978350Y-8305800D02*
G75*
G03*
X10978350Y-8305800I-50000J0D01*
G01*
X10978350Y-9829800D02*
G75*
G03*
X10978350Y-9829800I-50000J0D01*
G01*
X11232350Y-8305800D02*
G75*
G03*
X11232350Y-8305800I-50000J0D01*
G01*
X11232350Y-9829800D02*
G75*
G03*
X11232350Y-9829800I-50000J0D01*
G01*
X11486350Y-8305800D02*
G75*
G03*
X11486350Y-8305800I-50000J0D01*
G01*
X11486350Y-9829800D02*
G75*
G03*
X11486350Y-9829800I-50000J0D01*
G01*
X11740350Y-8305800D02*
G75*
G03*
X11740350Y-8305800I-50000J0D01*
G01*
X11740350Y-9829800D02*
G75*
G03*
X11740350Y-9829800I-50000J0D01*
G01*
X11994350Y-8305800D02*
G75*
G03*
X11994350Y-8305800I-50000J0D01*
G01*
X11994350Y-9829800D02*
G75*
G03*
X11994350Y-9829800I-50000J0D01*
G01*
X12248350Y-8305800D02*
G75*
G03*
X12248350Y-8305800I-50000J0D01*
G01*
X12248350Y-9829800D02*
G75*
G03*
X12248350Y-9829800I-50000J0D01*
G01*
X12502350Y-8305800D02*
G75*
G03*
X12502350Y-8305800I-50000J0D01*
G01*
X12502350Y-9829800D02*
G75*
G03*
X12502350Y-9829800I-50000J0D01*
G01*
X12756350Y-8305800D02*
G75*
G03*
X12756350Y-8305800I-50000J0D01*
G01*
X12756350Y-9829800D02*
G75*
G03*
X12756350Y-9829800I-50000J0D01*
G01*
X13010350Y-8305800D02*
G75*
G03*
X13010350Y-8305800I-50000J0D01*
G01*
X13010350Y-9829800D02*
G75*
G03*
X13010350Y-9829800I-50000J0D01*
G01*
X13264350Y-8305800D02*
G75*
G03*
X13264350Y-8305800I-50000J0D01*
G01*
X13264350Y-9829800D02*
G75*
G03*
X13264350Y-9829800I-50000J0D01*
G01*
X13518350Y-8305800D02*
G75*
G03*
X13518350Y-8305800I-50000J0D01*
G01*
X13518350Y-9829800D02*
G75*
G03*
X13518350Y-9829800I-50000J0D01*
G01*
X13772350Y-8305800D02*
G75*
G03*
X13772350Y-8305800I-50000J0D01*
G01*
X13772350Y-9829800D02*
G75*
G03*
X13772350Y-9829800I-50000J0D01*
G01*
X14026350Y-8305800D02*
G75*
G03*
X14026350Y-8305800I-50000J0D01*
G01*
X14026350Y-9829800D02*
G75*
G03*
X14026350Y-9829800I-50000J0D01*
G01*
X10457650Y-2368550D02*
G75*
G03*
X10457650Y-2368550I-50000J0D01*
G01*
X10457650Y-2622550D02*
G75*
G03*
X10457650Y-2622550I-50000J0D01*
G01*
X13050000Y-2254000D02*
G75*
G03*
X13050000Y-2254000I-50000J0D01*
G01*
X13304000Y-2254000D02*
G75*
G03*
X13304000Y-2254000I-50000J0D01*
G01*
X13558000Y-2254000D02*
G75*
G03*
X13558000Y-2254000I-50000J0D01*
G01*
X13812000Y-2254000D02*
G75*
G03*
X13812000Y-2254000I-50000J0D01*
G01*
X14066000Y-2254000D02*
G75*
G03*
X14066000Y-2254000I-50000J0D01*
G01*
X14320000Y-2254000D02*
G75*
G03*
X14320000Y-2254000I-50000J0D01*
G01*
X14574000Y-2254000D02*
G75*
G03*
X14574000Y-2254000I-50000J0D01*
G01*
X14828000Y-2254000D02*
G75*
G03*
X14828000Y-2254000I-50000J0D01*
G01*
X15082000Y-2254000D02*
G75*
G03*
X15082000Y-2254000I-50000J0D01*
G01*
X15336000Y-2254000D02*
G75*
G03*
X15336000Y-2254000I-50000J0D01*
G01*
X15590000Y-2254000D02*
G75*
G03*
X15590000Y-2254000I-50000J0D01*
G01*
X15844000Y-2254000D02*
G75*
G03*
X15844000Y-2254000I-50000J0D01*
G01*
X16098000Y-2254000D02*
G75*
G03*
X16098000Y-2254000I-50000J0D01*
G01*
X16352000Y-2254000D02*
G75*
G03*
X16352000Y-2254000I-50000J0D01*
G01*
X16606000Y-2254000D02*
G75*
G03*
X16606000Y-2254000I-50000J0D01*
G01*
X16860000Y-2254000D02*
G75*
G03*
X16860000Y-2254000I-50000J0D01*
G01*
X10795850Y-5753100D02*
G75*
G03*
X10795850Y-5753100I-50000J0D01*
G01*
X10795850Y-7203100D02*
G75*
G03*
X10795850Y-7203100I-50000J0D01*
G01*
X11045850Y-5753100D02*
G75*
G03*
X11045850Y-5753100I-50000J0D01*
G01*
X11295850Y-5753100D02*
G75*
G03*
X11295850Y-5753100I-50000J0D01*
G01*
X11295850Y-7203100D02*
G75*
G03*
X11295850Y-7203100I-50000J0D01*
G01*
X11025000Y-8650000D02*
G75*
G03*
X11025000Y-8650000I-50000J0D01*
G01*
X13004000Y-9372600D02*
G75*
G03*
X13004000Y-9372600I-50000J0D01*
G01*
X12510000Y-7060000D02*
G75*
G03*
X12510000Y-7060000I-50000J0D01*
G01*
X12870000Y-7200000D02*
G75*
G03*
X12870000Y-7200000I-50000J0D01*
G01*
X11010100Y-9410700D02*
G75*
G03*
X11010100Y-9410700I-50000J0D01*
G01*
X11295850Y-3302000D02*
G75*
G03*
X11295850Y-3302000I-50000J0D01*
G01*
X11295850Y-3556000D02*
G75*
G03*
X11295850Y-3556000I-50000J0D01*
G01*
X11295850Y-3810000D02*
G75*
G03*
X11295850Y-3810000I-50000J0D01*
G01*
X10435850Y-6428100D02*
X10435850Y-6578100D01*
X10360850Y-6503100D02*
X10510850Y-6503100D01*
X10370850Y-6438100D02*
X10370850Y-6568100D01*
X10500850Y-6438100D02*
X10500850Y-6568100D01*
X10370850Y-6568100D02*
G75*
G03*
X10500850Y-6568100I65000J0D01*
G01*
X10500850Y-6438100D02*
G75*
G03*
X10370850Y-6438100I-65000J0D01*
G01*
X11555850Y-6428100D02*
X11555850Y-6578100D01*
X11480850Y-6503100D02*
X11630850Y-6503100D01*
X11490850Y-6438100D02*
X11490850Y-6568100D01*
X11620850Y-6438100D02*
X11620850Y-6568100D01*
X11490850Y-6568100D02*
G75*
G03*
X11620850Y-6568100I65000J0D01*
G01*
X11620850Y-6438100D02*
G75*
G03*
X11490850Y-6438100I-65000J0D01*
G01*
D12*
X10283928Y-10468214D02*
X10283928Y-10168214D01*
X10355357Y-10168214D01*
X10398214Y-10182500D01*
X10426786Y-10211072D01*
X10441071Y-10239643D01*
X10455357Y-10296786D01*
X10455357Y-10339643D01*
X10441071Y-10396786D01*
X10426786Y-10425357D01*
X10398214Y-10453929D01*
X10355357Y-10468214D01*
X10283928Y-10468214D01*
X10583928Y-10468214D02*
X10583928Y-10268214D01*
X10583928Y-10325357D02*
X10598214Y-10296786D01*
X10612500Y-10282500D01*
X10641071Y-10268214D01*
X10669643Y-10268214D01*
X10769643Y-10468214D02*
X10769643Y-10268214D01*
X10769643Y-10168214D02*
X10755357Y-10182500D01*
X10769643Y-10196786D01*
X10783928Y-10182500D01*
X10769643Y-10168214D01*
X10769643Y-10196786D01*
X10955357Y-10468214D02*
X10926786Y-10453929D01*
X10912500Y-10425357D01*
X10912500Y-10168214D01*
X11112500Y-10468214D02*
X11083928Y-10453929D01*
X11069643Y-10425357D01*
X11069643Y-10168214D01*
X11455357Y-10468214D02*
X11455357Y-10168214D01*
X11555357Y-10382500D01*
X11655357Y-10168214D01*
X11655357Y-10468214D01*
X11926786Y-10468214D02*
X11926786Y-10311072D01*
X11912500Y-10282500D01*
X11883928Y-10268214D01*
X11826786Y-10268214D01*
X11798214Y-10282500D01*
X11926786Y-10453929D02*
X11898214Y-10468214D01*
X11826786Y-10468214D01*
X11798214Y-10453929D01*
X11783928Y-10425357D01*
X11783928Y-10396786D01*
X11798214Y-10368214D01*
X11826786Y-10353929D01*
X11898214Y-10353929D01*
X11926786Y-10339643D01*
X12069643Y-10268214D02*
X12069643Y-10568214D01*
X12069643Y-10282500D02*
X12098214Y-10268214D01*
X12155357Y-10268214D01*
X12183928Y-10282500D01*
X12198214Y-10296786D01*
X12212500Y-10325357D01*
X12212500Y-10411072D01*
X12198214Y-10439643D01*
X12183928Y-10453929D01*
X12155357Y-10468214D01*
X12098214Y-10468214D01*
X12069643Y-10453929D01*
X12341071Y-10439643D02*
X12355357Y-10453929D01*
X12341071Y-10468214D01*
X12326786Y-10453929D01*
X12341071Y-10439643D01*
X12341071Y-10468214D01*
X12341071Y-10282500D02*
X12355357Y-10296786D01*
X12341071Y-10311072D01*
X12326786Y-10296786D01*
X12341071Y-10282500D01*
X12341071Y-10311072D01*
X9957500Y-10942500D02*
X9997500Y-10982500D01*
X9997500Y-10942500D02*
X9957500Y-10982500D01*
X10341071Y-10798214D02*
X10369643Y-10798214D01*
X10398214Y-10812500D01*
X10412500Y-10826786D01*
X10426786Y-10855357D01*
X10441071Y-10912500D01*
X10441071Y-10983929D01*
X10426786Y-11041072D01*
X10412500Y-11069643D01*
X10398214Y-11083929D01*
X10369643Y-11098214D01*
X10341071Y-11098214D01*
X10312500Y-11083929D01*
X10298214Y-11069643D01*
X10283928Y-11041072D01*
X10269643Y-10983929D01*
X10269643Y-10912500D01*
X10283928Y-10855357D01*
X10298214Y-10826786D01*
X10312500Y-10812500D01*
X10341071Y-10798214D01*
X10569643Y-11069643D02*
X10583928Y-11083929D01*
X10569643Y-11098214D01*
X10555357Y-11083929D01*
X10569643Y-11069643D01*
X10569643Y-11098214D01*
X10841071Y-10898214D02*
X10841071Y-11098214D01*
X10769643Y-10783929D02*
X10698214Y-10998214D01*
X10883928Y-10998214D01*
X11055357Y-10798214D02*
X11083928Y-10798214D01*
X11112500Y-10812500D01*
X11126786Y-10826786D01*
X11141071Y-10855357D01*
X11155357Y-10912500D01*
X11155357Y-10983929D01*
X11141071Y-11041072D01*
X11126786Y-11069643D01*
X11112500Y-11083929D01*
X11083928Y-11098214D01*
X11055357Y-11098214D01*
X11026786Y-11083929D01*
X11012500Y-11069643D01*
X10998214Y-11041072D01*
X10983928Y-10983929D01*
X10983928Y-10912500D01*
X10998214Y-10855357D01*
X11012500Y-10826786D01*
X11026786Y-10812500D01*
X11055357Y-10798214D01*
X11283928Y-11098214D02*
X11283928Y-10898214D01*
X11283928Y-10926786D02*
X11298214Y-10912500D01*
X11326786Y-10898214D01*
X11369643Y-10898214D01*
X11398214Y-10912500D01*
X11412500Y-10941072D01*
X11412500Y-11098214D01*
X11412500Y-10941072D02*
X11426786Y-10912500D01*
X11455357Y-10898214D01*
X11498214Y-10898214D01*
X11526786Y-10912500D01*
X11541071Y-10941072D01*
X11541071Y-11098214D01*
X11683928Y-11098214D02*
X11683928Y-10898214D01*
X11683928Y-10926786D02*
X11698214Y-10912500D01*
X11726786Y-10898214D01*
X11769643Y-10898214D01*
X11798214Y-10912500D01*
X11812500Y-10941072D01*
X11812500Y-11098214D01*
X11812500Y-10941072D02*
X11826786Y-10912500D01*
X11855357Y-10898214D01*
X11898214Y-10898214D01*
X11926786Y-10912500D01*
X11941071Y-10941072D01*
X11941071Y-11098214D01*
X12526786Y-10783929D02*
X12269643Y-11169643D01*
X12912500Y-10798214D02*
X12941071Y-10798214D01*
X12969643Y-10812500D01*
X12983928Y-10826786D01*
X12998214Y-10855357D01*
X13012500Y-10912500D01*
X13012500Y-10983929D01*
X12998214Y-11041072D01*
X12983928Y-11069643D01*
X12969643Y-11083929D01*
X12941071Y-11098214D01*
X12912500Y-11098214D01*
X12883928Y-11083929D01*
X12869643Y-11069643D01*
X12855357Y-11041072D01*
X12841071Y-10983929D01*
X12841071Y-10912500D01*
X12855357Y-10855357D01*
X12869643Y-10826786D01*
X12883928Y-10812500D01*
X12912500Y-10798214D01*
X13141071Y-11069643D02*
X13155357Y-11083929D01*
X13141071Y-11098214D01*
X13126786Y-11083929D01*
X13141071Y-11069643D01*
X13141071Y-11098214D01*
X13341071Y-10798214D02*
X13369643Y-10798214D01*
X13398214Y-10812500D01*
X13412500Y-10826786D01*
X13426786Y-10855357D01*
X13441071Y-10912500D01*
X13441071Y-10983929D01*
X13426786Y-11041072D01*
X13412500Y-11069643D01*
X13398214Y-11083929D01*
X13369643Y-11098214D01*
X13341071Y-11098214D01*
X13312500Y-11083929D01*
X13298214Y-11069643D01*
X13283928Y-11041072D01*
X13269643Y-10983929D01*
X13269643Y-10912500D01*
X13283928Y-10855357D01*
X13298214Y-10826786D01*
X13312500Y-10812500D01*
X13341071Y-10798214D01*
X13726786Y-11098214D02*
X13555357Y-11098214D01*
X13641071Y-11098214D02*
X13641071Y-10798214D01*
X13612500Y-10841072D01*
X13583928Y-10869643D01*
X13555357Y-10883929D01*
X13983928Y-10798214D02*
X13926786Y-10798214D01*
X13898214Y-10812500D01*
X13883928Y-10826786D01*
X13855357Y-10869643D01*
X13841071Y-10926786D01*
X13841071Y-11041072D01*
X13855357Y-11069643D01*
X13869643Y-11083929D01*
X13898214Y-11098214D01*
X13955357Y-11098214D01*
X13983928Y-11083929D01*
X13998214Y-11069643D01*
X14012500Y-11041072D01*
X14012500Y-10969643D01*
X13998214Y-10941072D01*
X13983928Y-10926786D01*
X13955357Y-10912500D01*
X13898214Y-10912500D01*
X13869643Y-10926786D01*
X13855357Y-10941072D01*
X13841071Y-10969643D01*
X14126786Y-10798214D02*
X14126786Y-10855357D01*
X14241071Y-10798214D02*
X14241071Y-10855357D01*
X14683928Y-11212500D02*
X14669643Y-11198214D01*
X14641071Y-11155357D01*
X14626786Y-11126786D01*
X14612500Y-11083929D01*
X14598214Y-11012500D01*
X14598214Y-10955357D01*
X14612500Y-10883929D01*
X14626786Y-10841072D01*
X14641071Y-10812500D01*
X14669643Y-10769643D01*
X14683928Y-10755357D01*
X14926786Y-10898214D02*
X14926786Y-11098214D01*
X14855357Y-10783929D02*
X14783928Y-10998214D01*
X14969643Y-10998214D01*
X15212500Y-10898214D02*
X15212500Y-11098214D01*
X15141071Y-10783929D02*
X15069643Y-10998214D01*
X15255357Y-10998214D01*
X15598214Y-11098214D02*
X15598214Y-10798214D01*
X15726786Y-11098214D02*
X15726786Y-10941072D01*
X15712500Y-10912500D01*
X15683928Y-10898214D01*
X15641071Y-10898214D01*
X15612500Y-10912500D01*
X15598214Y-10926786D01*
X15912500Y-11098214D02*
X15883928Y-11083929D01*
X15869643Y-11069643D01*
X15855357Y-11041072D01*
X15855357Y-10955357D01*
X15869643Y-10926786D01*
X15883928Y-10912500D01*
X15912500Y-10898214D01*
X15955357Y-10898214D01*
X15983928Y-10912500D01*
X15998214Y-10926786D01*
X16012500Y-10955357D01*
X16012500Y-11041072D01*
X15998214Y-11069643D01*
X15983928Y-11083929D01*
X15955357Y-11098214D01*
X15912500Y-11098214D01*
X16183928Y-11098214D02*
X16155357Y-11083929D01*
X16141071Y-11055357D01*
X16141071Y-10798214D01*
X16412500Y-11083929D02*
X16383928Y-11098214D01*
X16326786Y-11098214D01*
X16298214Y-11083929D01*
X16283928Y-11055357D01*
X16283928Y-10941072D01*
X16298214Y-10912500D01*
X16326786Y-10898214D01*
X16383928Y-10898214D01*
X16412500Y-10912500D01*
X16426786Y-10941072D01*
X16426786Y-10969643D01*
X16283928Y-10998214D01*
X16541071Y-11083929D02*
X16569643Y-11098214D01*
X16626786Y-11098214D01*
X16655357Y-11083929D01*
X16669643Y-11055357D01*
X16669643Y-11041072D01*
X16655357Y-11012500D01*
X16626786Y-10998214D01*
X16583928Y-10998214D01*
X16555357Y-10983929D01*
X16541071Y-10955357D01*
X16541071Y-10941072D01*
X16555357Y-10912500D01*
X16583928Y-10898214D01*
X16626786Y-10898214D01*
X16655357Y-10912500D01*
X16769643Y-11212500D02*
X16783928Y-11198214D01*
X16812500Y-11155357D01*
X16826786Y-11126786D01*
X16841071Y-11083929D01*
X16855357Y-11012500D01*
X16855357Y-10955357D01*
X16841071Y-10883929D01*
X16826786Y-10841072D01*
X16812500Y-10812500D01*
X16783928Y-10769643D01*
X16769643Y-10755357D01*
X9997500Y-11358500D02*
G75*
G03*
X9997500Y-11358500I-50000J0D01*
G01*
X10441071Y-11494214D02*
X10269643Y-11494214D01*
X10355357Y-11494214D02*
X10355357Y-11194214D01*
X10326786Y-11237071D01*
X10298214Y-11265643D01*
X10269643Y-11279929D01*
X10569643Y-11465643D02*
X10583928Y-11479929D01*
X10569643Y-11494214D01*
X10555357Y-11479929D01*
X10569643Y-11465643D01*
X10569643Y-11494214D01*
X10769643Y-11194214D02*
X10798214Y-11194214D01*
X10826786Y-11208500D01*
X10841071Y-11222786D01*
X10855357Y-11251357D01*
X10869643Y-11308500D01*
X10869643Y-11379929D01*
X10855357Y-11437071D01*
X10841071Y-11465643D01*
X10826786Y-11479929D01*
X10798214Y-11494214D01*
X10769643Y-11494214D01*
X10741071Y-11479929D01*
X10726786Y-11465643D01*
X10712500Y-11437071D01*
X10698214Y-11379929D01*
X10698214Y-11308500D01*
X10712500Y-11251357D01*
X10726786Y-11222786D01*
X10741071Y-11208500D01*
X10769643Y-11194214D01*
X11055357Y-11194214D02*
X11083928Y-11194214D01*
X11112500Y-11208500D01*
X11126786Y-11222786D01*
X11141071Y-11251357D01*
X11155357Y-11308500D01*
X11155357Y-11379929D01*
X11141071Y-11437071D01*
X11126786Y-11465643D01*
X11112500Y-11479929D01*
X11083928Y-11494214D01*
X11055357Y-11494214D01*
X11026786Y-11479929D01*
X11012500Y-11465643D01*
X10998214Y-11437071D01*
X10983928Y-11379929D01*
X10983928Y-11308500D01*
X10998214Y-11251357D01*
X11012500Y-11222786D01*
X11026786Y-11208500D01*
X11055357Y-11194214D01*
X11283928Y-11494214D02*
X11283928Y-11294214D01*
X11283928Y-11322786D02*
X11298214Y-11308500D01*
X11326786Y-11294214D01*
X11369643Y-11294214D01*
X11398214Y-11308500D01*
X11412500Y-11337071D01*
X11412500Y-11494214D01*
X11412500Y-11337071D02*
X11426786Y-11308500D01*
X11455357Y-11294214D01*
X11498214Y-11294214D01*
X11526786Y-11308500D01*
X11541071Y-11337071D01*
X11541071Y-11494214D01*
X11683928Y-11494214D02*
X11683928Y-11294214D01*
X11683928Y-11322786D02*
X11698214Y-11308500D01*
X11726786Y-11294214D01*
X11769643Y-11294214D01*
X11798214Y-11308500D01*
X11812500Y-11337071D01*
X11812500Y-11494214D01*
X11812500Y-11337071D02*
X11826786Y-11308500D01*
X11855357Y-11294214D01*
X11898214Y-11294214D01*
X11926786Y-11308500D01*
X11941071Y-11337071D01*
X11941071Y-11494214D01*
X12526786Y-11179929D02*
X12269643Y-11565643D01*
X12912500Y-11194214D02*
X12941071Y-11194214D01*
X12969643Y-11208500D01*
X12983928Y-11222786D01*
X12998214Y-11251357D01*
X13012500Y-11308500D01*
X13012500Y-11379929D01*
X12998214Y-11437071D01*
X12983928Y-11465643D01*
X12969643Y-11479929D01*
X12941071Y-11494214D01*
X12912500Y-11494214D01*
X12883928Y-11479929D01*
X12869643Y-11465643D01*
X12855357Y-11437071D01*
X12841071Y-11379929D01*
X12841071Y-11308500D01*
X12855357Y-11251357D01*
X12869643Y-11222786D01*
X12883928Y-11208500D01*
X12912500Y-11194214D01*
X13141071Y-11465643D02*
X13155357Y-11479929D01*
X13141071Y-11494214D01*
X13126786Y-11479929D01*
X13141071Y-11465643D01*
X13141071Y-11494214D01*
X13341071Y-11194214D02*
X13369643Y-11194214D01*
X13398214Y-11208500D01*
X13412500Y-11222786D01*
X13426786Y-11251357D01*
X13441071Y-11308500D01*
X13441071Y-11379929D01*
X13426786Y-11437071D01*
X13412500Y-11465643D01*
X13398214Y-11479929D01*
X13369643Y-11494214D01*
X13341071Y-11494214D01*
X13312500Y-11479929D01*
X13298214Y-11465643D01*
X13283928Y-11437071D01*
X13269643Y-11379929D01*
X13269643Y-11308500D01*
X13283928Y-11251357D01*
X13298214Y-11222786D01*
X13312500Y-11208500D01*
X13341071Y-11194214D01*
X13541071Y-11194214D02*
X13726786Y-11194214D01*
X13626786Y-11308500D01*
X13669643Y-11308500D01*
X13698214Y-11322786D01*
X13712500Y-11337071D01*
X13726786Y-11365643D01*
X13726786Y-11437071D01*
X13712500Y-11465643D01*
X13698214Y-11479929D01*
X13669643Y-11494214D01*
X13583928Y-11494214D01*
X13555357Y-11479929D01*
X13541071Y-11465643D01*
X13869643Y-11494214D02*
X13926786Y-11494214D01*
X13955357Y-11479929D01*
X13969643Y-11465643D01*
X13998214Y-11422786D01*
X14012500Y-11365643D01*
X14012500Y-11251357D01*
X13998214Y-11222786D01*
X13983928Y-11208500D01*
X13955357Y-11194214D01*
X13898214Y-11194214D01*
X13869643Y-11208500D01*
X13855357Y-11222786D01*
X13841071Y-11251357D01*
X13841071Y-11322786D01*
X13855357Y-11351357D01*
X13869643Y-11365643D01*
X13898214Y-11379929D01*
X13955357Y-11379929D01*
X13983928Y-11365643D01*
X13998214Y-11351357D01*
X14012500Y-11322786D01*
X14126786Y-11194214D02*
X14126786Y-11251357D01*
X14241071Y-11194214D02*
X14241071Y-11251357D01*
X14683928Y-11608500D02*
X14669643Y-11594214D01*
X14641071Y-11551357D01*
X14626786Y-11522786D01*
X14612500Y-11479929D01*
X14598214Y-11408500D01*
X14598214Y-11351357D01*
X14612500Y-11279929D01*
X14626786Y-11237071D01*
X14641071Y-11208500D01*
X14669643Y-11165643D01*
X14683928Y-11151357D01*
X14926786Y-11194214D02*
X14869643Y-11194214D01*
X14841071Y-11208500D01*
X14826786Y-11222786D01*
X14798214Y-11265643D01*
X14783928Y-11322786D01*
X14783928Y-11437071D01*
X14798214Y-11465643D01*
X14812500Y-11479929D01*
X14841071Y-11494214D01*
X14898214Y-11494214D01*
X14926786Y-11479929D01*
X14941071Y-11465643D01*
X14955357Y-11437071D01*
X14955357Y-11365643D01*
X14941071Y-11337071D01*
X14926786Y-11322786D01*
X14898214Y-11308500D01*
X14841071Y-11308500D01*
X14812500Y-11322786D01*
X14798214Y-11337071D01*
X14783928Y-11365643D01*
X15212500Y-11194214D02*
X15155357Y-11194214D01*
X15126786Y-11208500D01*
X15112500Y-11222786D01*
X15083928Y-11265643D01*
X15069643Y-11322786D01*
X15069643Y-11437071D01*
X15083928Y-11465643D01*
X15098214Y-11479929D01*
X15126786Y-11494214D01*
X15183928Y-11494214D01*
X15212500Y-11479929D01*
X15226786Y-11465643D01*
X15241071Y-11437071D01*
X15241071Y-11365643D01*
X15226786Y-11337071D01*
X15212500Y-11322786D01*
X15183928Y-11308500D01*
X15126786Y-11308500D01*
X15098214Y-11322786D01*
X15083928Y-11337071D01*
X15069643Y-11365643D01*
X15598214Y-11494214D02*
X15598214Y-11194214D01*
X15726786Y-11494214D02*
X15726786Y-11337071D01*
X15712500Y-11308500D01*
X15683928Y-11294214D01*
X15641071Y-11294214D01*
X15612500Y-11308500D01*
X15598214Y-11322786D01*
X15912500Y-11494214D02*
X15883928Y-11479929D01*
X15869643Y-11465643D01*
X15855357Y-11437071D01*
X15855357Y-11351357D01*
X15869643Y-11322786D01*
X15883928Y-11308500D01*
X15912500Y-11294214D01*
X15955357Y-11294214D01*
X15983928Y-11308500D01*
X15998214Y-11322786D01*
X16012500Y-11351357D01*
X16012500Y-11437071D01*
X15998214Y-11465643D01*
X15983928Y-11479929D01*
X15955357Y-11494214D01*
X15912500Y-11494214D01*
X16183928Y-11494214D02*
X16155357Y-11479929D01*
X16141071Y-11451357D01*
X16141071Y-11194214D01*
X16412500Y-11479929D02*
X16383928Y-11494214D01*
X16326786Y-11494214D01*
X16298214Y-11479929D01*
X16283928Y-11451357D01*
X16283928Y-11337071D01*
X16298214Y-11308500D01*
X16326786Y-11294214D01*
X16383928Y-11294214D01*
X16412500Y-11308500D01*
X16426786Y-11337071D01*
X16426786Y-11365643D01*
X16283928Y-11394214D01*
X16541071Y-11479929D02*
X16569643Y-11494214D01*
X16626786Y-11494214D01*
X16655357Y-11479929D01*
X16669643Y-11451357D01*
X16669643Y-11437071D01*
X16655357Y-11408500D01*
X16626786Y-11394214D01*
X16583928Y-11394214D01*
X16555357Y-11379929D01*
X16541071Y-11351357D01*
X16541071Y-11337071D01*
X16555357Y-11308500D01*
X16583928Y-11294214D01*
X16626786Y-11294214D01*
X16655357Y-11308500D01*
X16769643Y-11608500D02*
X16783928Y-11594214D01*
X16812500Y-11551357D01*
X16826786Y-11522786D01*
X16841071Y-11479929D01*
X16855357Y-11408500D01*
X16855357Y-11351357D01*
X16841071Y-11279929D01*
X16826786Y-11237071D01*
X16812500Y-11208500D01*
X16783928Y-11165643D01*
X16769643Y-11151357D01*
X9922500Y-11679500D02*
X9922500Y-11829500D01*
X9847500Y-11754500D02*
X9997500Y-11754500D01*
X10441071Y-11890214D02*
X10269643Y-11890214D01*
X10355357Y-11890214D02*
X10355357Y-11590214D01*
X10326786Y-11633071D01*
X10298214Y-11661643D01*
X10269643Y-11675929D01*
X10569643Y-11861643D02*
X10583928Y-11875929D01*
X10569643Y-11890214D01*
X10555357Y-11875929D01*
X10569643Y-11861643D01*
X10569643Y-11890214D01*
X10855357Y-11590214D02*
X10712500Y-11590214D01*
X10698214Y-11733071D01*
X10712500Y-11718786D01*
X10741071Y-11704500D01*
X10812500Y-11704500D01*
X10841071Y-11718786D01*
X10855357Y-11733071D01*
X10869643Y-11761643D01*
X10869643Y-11833071D01*
X10855357Y-11861643D01*
X10841071Y-11875929D01*
X10812500Y-11890214D01*
X10741071Y-11890214D01*
X10712500Y-11875929D01*
X10698214Y-11861643D01*
X11055357Y-11590214D02*
X11083928Y-11590214D01*
X11112500Y-11604500D01*
X11126786Y-11618786D01*
X11141071Y-11647357D01*
X11155357Y-11704500D01*
X11155357Y-11775929D01*
X11141071Y-11833071D01*
X11126786Y-11861643D01*
X11112500Y-11875929D01*
X11083928Y-11890214D01*
X11055357Y-11890214D01*
X11026786Y-11875929D01*
X11012500Y-11861643D01*
X10998214Y-11833071D01*
X10983928Y-11775929D01*
X10983928Y-11704500D01*
X10998214Y-11647357D01*
X11012500Y-11618786D01*
X11026786Y-11604500D01*
X11055357Y-11590214D01*
X11283928Y-11890214D02*
X11283928Y-11690214D01*
X11283928Y-11718786D02*
X11298214Y-11704500D01*
X11326786Y-11690214D01*
X11369643Y-11690214D01*
X11398214Y-11704500D01*
X11412500Y-11733071D01*
X11412500Y-11890214D01*
X11412500Y-11733071D02*
X11426786Y-11704500D01*
X11455357Y-11690214D01*
X11498214Y-11690214D01*
X11526786Y-11704500D01*
X11541071Y-11733071D01*
X11541071Y-11890214D01*
X11683928Y-11890214D02*
X11683928Y-11690214D01*
X11683928Y-11718786D02*
X11698214Y-11704500D01*
X11726786Y-11690214D01*
X11769643Y-11690214D01*
X11798214Y-11704500D01*
X11812500Y-11733071D01*
X11812500Y-11890214D01*
X11812500Y-11733071D02*
X11826786Y-11704500D01*
X11855357Y-11690214D01*
X11898214Y-11690214D01*
X11926786Y-11704500D01*
X11941071Y-11733071D01*
X11941071Y-11890214D01*
X12526786Y-11575929D02*
X12269643Y-11961643D01*
X12912500Y-11590214D02*
X12941071Y-11590214D01*
X12969643Y-11604500D01*
X12983928Y-11618786D01*
X12998214Y-11647357D01*
X13012500Y-11704500D01*
X13012500Y-11775929D01*
X12998214Y-11833071D01*
X12983928Y-11861643D01*
X12969643Y-11875929D01*
X12941071Y-11890214D01*
X12912500Y-11890214D01*
X12883928Y-11875929D01*
X12869643Y-11861643D01*
X12855357Y-11833071D01*
X12841071Y-11775929D01*
X12841071Y-11704500D01*
X12855357Y-11647357D01*
X12869643Y-11618786D01*
X12883928Y-11604500D01*
X12912500Y-11590214D01*
X13141071Y-11861643D02*
X13155357Y-11875929D01*
X13141071Y-11890214D01*
X13126786Y-11875929D01*
X13141071Y-11861643D01*
X13141071Y-11890214D01*
X13341071Y-11590214D02*
X13369643Y-11590214D01*
X13398214Y-11604500D01*
X13412500Y-11618786D01*
X13426786Y-11647357D01*
X13441071Y-11704500D01*
X13441071Y-11775929D01*
X13426786Y-11833071D01*
X13412500Y-11861643D01*
X13398214Y-11875929D01*
X13369643Y-11890214D01*
X13341071Y-11890214D01*
X13312500Y-11875929D01*
X13298214Y-11861643D01*
X13283928Y-11833071D01*
X13269643Y-11775929D01*
X13269643Y-11704500D01*
X13283928Y-11647357D01*
X13298214Y-11618786D01*
X13312500Y-11604500D01*
X13341071Y-11590214D01*
X13712500Y-11590214D02*
X13569643Y-11590214D01*
X13555357Y-11733071D01*
X13569643Y-11718786D01*
X13598214Y-11704500D01*
X13669643Y-11704500D01*
X13698214Y-11718786D01*
X13712500Y-11733071D01*
X13726786Y-11761643D01*
X13726786Y-11833071D01*
X13712500Y-11861643D01*
X13698214Y-11875929D01*
X13669643Y-11890214D01*
X13598214Y-11890214D01*
X13569643Y-11875929D01*
X13555357Y-11861643D01*
X13869643Y-11890214D02*
X13926786Y-11890214D01*
X13955357Y-11875929D01*
X13969643Y-11861643D01*
X13998214Y-11818786D01*
X14012500Y-11761643D01*
X14012500Y-11647357D01*
X13998214Y-11618786D01*
X13983928Y-11604500D01*
X13955357Y-11590214D01*
X13898214Y-11590214D01*
X13869643Y-11604500D01*
X13855357Y-11618786D01*
X13841071Y-11647357D01*
X13841071Y-11718786D01*
X13855357Y-11747357D01*
X13869643Y-11761643D01*
X13898214Y-11775929D01*
X13955357Y-11775929D01*
X13983928Y-11761643D01*
X13998214Y-11747357D01*
X14012500Y-11718786D01*
X14126786Y-11590214D02*
X14126786Y-11647357D01*
X14241071Y-11590214D02*
X14241071Y-11647357D01*
X14683928Y-12004500D02*
X14669643Y-11990214D01*
X14641071Y-11947357D01*
X14626786Y-11918786D01*
X14612500Y-11875929D01*
X14598214Y-11804500D01*
X14598214Y-11747357D01*
X14612500Y-11675929D01*
X14626786Y-11633071D01*
X14641071Y-11604500D01*
X14669643Y-11561643D01*
X14683928Y-11547357D01*
X14855357Y-11590214D02*
X14883928Y-11590214D01*
X14912500Y-11604500D01*
X14926786Y-11618786D01*
X14941071Y-11647357D01*
X14955357Y-11704500D01*
X14955357Y-11775929D01*
X14941071Y-11833071D01*
X14926786Y-11861643D01*
X14912500Y-11875929D01*
X14883928Y-11890214D01*
X14855357Y-11890214D01*
X14826786Y-11875929D01*
X14812500Y-11861643D01*
X14798214Y-11833071D01*
X14783928Y-11775929D01*
X14783928Y-11704500D01*
X14798214Y-11647357D01*
X14812500Y-11618786D01*
X14826786Y-11604500D01*
X14855357Y-11590214D01*
X15312500Y-11890214D02*
X15312500Y-11590214D01*
X15441071Y-11890214D02*
X15441071Y-11733071D01*
X15426786Y-11704500D01*
X15398214Y-11690214D01*
X15355357Y-11690214D01*
X15326786Y-11704500D01*
X15312500Y-11718786D01*
X15626786Y-11890214D02*
X15598214Y-11875929D01*
X15583928Y-11861643D01*
X15569643Y-11833071D01*
X15569643Y-11747357D01*
X15583928Y-11718786D01*
X15598214Y-11704500D01*
X15626786Y-11690214D01*
X15669643Y-11690214D01*
X15698214Y-11704500D01*
X15712500Y-11718786D01*
X15726786Y-11747357D01*
X15726786Y-11833071D01*
X15712500Y-11861643D01*
X15698214Y-11875929D01*
X15669643Y-11890214D01*
X15626786Y-11890214D01*
X15898214Y-11890214D02*
X15869643Y-11875929D01*
X15855357Y-11847357D01*
X15855357Y-11590214D01*
X16126786Y-11875929D02*
X16098214Y-11890214D01*
X16041071Y-11890214D01*
X16012500Y-11875929D01*
X15998214Y-11847357D01*
X15998214Y-11733071D01*
X16012500Y-11704500D01*
X16041071Y-11690214D01*
X16098214Y-11690214D01*
X16126786Y-11704500D01*
X16141071Y-11733071D01*
X16141071Y-11761643D01*
X15998214Y-11790214D01*
X16255357Y-11875929D02*
X16283928Y-11890214D01*
X16341071Y-11890214D01*
X16369643Y-11875929D01*
X16383928Y-11847357D01*
X16383928Y-11833071D01*
X16369643Y-11804500D01*
X16341071Y-11790214D01*
X16298214Y-11790214D01*
X16269643Y-11775929D01*
X16255357Y-11747357D01*
X16255357Y-11733071D01*
X16269643Y-11704500D01*
X16298214Y-11690214D01*
X16341071Y-11690214D01*
X16369643Y-11704500D01*
X16741071Y-11775929D02*
X16969643Y-11775929D01*
X16855357Y-11890214D02*
X16855357Y-11661643D01*
X17326786Y-11618786D02*
X17341071Y-11604500D01*
X17369643Y-11590214D01*
X17441071Y-11590214D01*
X17469643Y-11604500D01*
X17483928Y-11618786D01*
X17498214Y-11647357D01*
X17498214Y-11675929D01*
X17483928Y-11718786D01*
X17312500Y-11890214D01*
X17498214Y-11890214D01*
X17841071Y-11875929D02*
X17869643Y-11890214D01*
X17926786Y-11890214D01*
X17955357Y-11875929D01*
X17969643Y-11847357D01*
X17969643Y-11833071D01*
X17955357Y-11804500D01*
X17926786Y-11790214D01*
X17883928Y-11790214D01*
X17855357Y-11775929D01*
X17841071Y-11747357D01*
X17841071Y-11733071D01*
X17855357Y-11704500D01*
X17883928Y-11690214D01*
X17926786Y-11690214D01*
X17955357Y-11704500D01*
X18141071Y-11890214D02*
X18112500Y-11875929D01*
X18098214Y-11847357D01*
X18098214Y-11590214D01*
X18298214Y-11890214D02*
X18269643Y-11875929D01*
X18255357Y-11861643D01*
X18241071Y-11833071D01*
X18241071Y-11747357D01*
X18255357Y-11718786D01*
X18269643Y-11704500D01*
X18298214Y-11690214D01*
X18341071Y-11690214D01*
X18369643Y-11704500D01*
X18383928Y-11718786D01*
X18398214Y-11747357D01*
X18398214Y-11833071D01*
X18383928Y-11861643D01*
X18369643Y-11875929D01*
X18341071Y-11890214D01*
X18298214Y-11890214D01*
X18483928Y-11690214D02*
X18598214Y-11690214D01*
X18526786Y-11590214D02*
X18526786Y-11847357D01*
X18541071Y-11875929D01*
X18569643Y-11890214D01*
X18598214Y-11890214D01*
X18683928Y-11875929D02*
X18712500Y-11890214D01*
X18769643Y-11890214D01*
X18798214Y-11875929D01*
X18812500Y-11847357D01*
X18812500Y-11833071D01*
X18798214Y-11804500D01*
X18769643Y-11790214D01*
X18726786Y-11790214D01*
X18698214Y-11775929D01*
X18683928Y-11747357D01*
X18683928Y-11733071D01*
X18698214Y-11704500D01*
X18726786Y-11690214D01*
X18769643Y-11690214D01*
X18798214Y-11704500D01*
X18912500Y-12004500D02*
X18926786Y-11990214D01*
X18955357Y-11947357D01*
X18969643Y-11918786D01*
X18983928Y-11875929D01*
X18998214Y-11804500D01*
X18998214Y-11747357D01*
X18983928Y-11675929D01*
X18969643Y-11633071D01*
X18955357Y-11604500D01*
X18926786Y-11561643D01*
X18912500Y-11547357D01*
M02*
