G04 #@! TF.GenerationSoftware,KiCad,Pcbnew,5.1.6+dfsg1-1~bpo9+1*
G04 #@! TF.CreationDate,2022-04-20T06:51:38+02:00*
G04 #@! TF.ProjectId,sdrtrx-arduino,73647274-7278-42d6-9172-6475696e6f2e,rev?*
G04 #@! TF.SameCoordinates,Original*
G04 #@! TF.FileFunction,Copper,L1,Top*
G04 #@! TF.FilePolarity,Positive*
%FSLAX46Y46*%
G04 Gerber Fmt 4.6, Leading zero omitted, Abs format (unit mm)*
G04 Created by KiCad (PCBNEW 5.1.6+dfsg1-1~bpo9+1) date 2022-04-20 06:51:38*
%MOMM*%
%LPD*%
G01*
G04 APERTURE LIST*
G04 #@! TA.AperFunction,ComponentPad*
%ADD10R,1.700000X1.700000*%
G04 #@! TD*
G04 #@! TA.AperFunction,ComponentPad*
%ADD11O,2.000000X1.700000*%
G04 #@! TD*
G04 #@! TA.AperFunction,ComponentPad*
%ADD12R,2.000000X2.000000*%
G04 #@! TD*
G04 #@! TA.AperFunction,ComponentPad*
%ADD13C,2.000000*%
G04 #@! TD*
G04 #@! TA.AperFunction,ComponentPad*
%ADD14R,2.000000X3.200000*%
G04 #@! TD*
G04 #@! TA.AperFunction,ComponentPad*
%ADD15O,1.800000X1.800000*%
G04 #@! TD*
G04 #@! TA.AperFunction,ComponentPad*
%ADD16R,1.800000X1.800000*%
G04 #@! TD*
G04 #@! TA.AperFunction,ComponentPad*
%ADD17O,1.700000X1.700000*%
G04 #@! TD*
G04 #@! TA.AperFunction,ComponentPad*
%ADD18O,1.600000X1.600000*%
G04 #@! TD*
G04 #@! TA.AperFunction,ComponentPad*
%ADD19R,1.600000X1.600000*%
G04 #@! TD*
G04 #@! TA.AperFunction,ViaPad*
%ADD20C,0.800000*%
G04 #@! TD*
G04 #@! TA.AperFunction,Conductor*
%ADD21C,0.254000*%
G04 #@! TD*
G04 #@! TA.AperFunction,Conductor*
%ADD22C,0.508000*%
G04 #@! TD*
G04 #@! TA.AperFunction,Conductor*
%ADD23C,1.016000*%
G04 #@! TD*
G04 APERTURE END LIST*
G04 #@! TA.AperFunction,SMDPad,CuDef*
G36*
G01*
X109225000Y-33825000D02*
X107975000Y-33825000D01*
G75*
G02*
X107725000Y-33575000I0J250000D01*
G01*
X107725000Y-32650000D01*
G75*
G02*
X107975000Y-32400000I250000J0D01*
G01*
X109225000Y-32400000D01*
G75*
G02*
X109475000Y-32650000I0J-250000D01*
G01*
X109475000Y-33575000D01*
G75*
G02*
X109225000Y-33825000I-250000J0D01*
G01*
G37*
G04 #@! TD.AperFunction*
G04 #@! TA.AperFunction,SMDPad,CuDef*
G36*
G01*
X109225000Y-36800000D02*
X107975000Y-36800000D01*
G75*
G02*
X107725000Y-36550000I0J250000D01*
G01*
X107725000Y-35625000D01*
G75*
G02*
X107975000Y-35375000I250000J0D01*
G01*
X109225000Y-35375000D01*
G75*
G02*
X109475000Y-35625000I0J-250000D01*
G01*
X109475000Y-36550000D01*
G75*
G02*
X109225000Y-36800000I-250000J0D01*
G01*
G37*
G04 #@! TD.AperFunction*
D10*
X124600000Y-70600000D03*
X128200000Y-72000000D03*
X129540000Y-93726000D03*
X109601000Y-94107000D03*
X137223500Y-93726000D03*
D11*
X108521500Y-47902500D03*
G04 #@! TA.AperFunction,ComponentPad*
G36*
G01*
X107771500Y-44552500D02*
X109271500Y-44552500D01*
G75*
G02*
X109521500Y-44802500I0J-250000D01*
G01*
X109521500Y-46002500D01*
G75*
G02*
X109271500Y-46252500I-250000J0D01*
G01*
X107771500Y-46252500D01*
G75*
G02*
X107521500Y-46002500I0J250000D01*
G01*
X107521500Y-44802500D01*
G75*
G02*
X107771500Y-44552500I250000J0D01*
G01*
G37*
G04 #@! TD.AperFunction*
D10*
X109750000Y-86500000D03*
D12*
X112458500Y-57531000D03*
D13*
X109958500Y-57531000D03*
X107458500Y-57531000D03*
D14*
X115558500Y-65031000D03*
X104358500Y-65031000D03*
D13*
X112458500Y-72031000D03*
X107458500Y-72031000D03*
G04 #@! TA.AperFunction,SMDPad,CuDef*
G36*
G01*
X117082250Y-34422500D02*
X117994750Y-34422500D01*
G75*
G02*
X118238500Y-34666250I0J-243750D01*
G01*
X118238500Y-35153750D01*
G75*
G02*
X117994750Y-35397500I-243750J0D01*
G01*
X117082250Y-35397500D01*
G75*
G02*
X116838500Y-35153750I0J243750D01*
G01*
X116838500Y-34666250D01*
G75*
G02*
X117082250Y-34422500I243750J0D01*
G01*
G37*
G04 #@! TD.AperFunction*
G04 #@! TA.AperFunction,SMDPad,CuDef*
G36*
G01*
X117082250Y-32547500D02*
X117994750Y-32547500D01*
G75*
G02*
X118238500Y-32791250I0J-243750D01*
G01*
X118238500Y-33278750D01*
G75*
G02*
X117994750Y-33522500I-243750J0D01*
G01*
X117082250Y-33522500D01*
G75*
G02*
X116838500Y-33278750I0J243750D01*
G01*
X116838500Y-32791250D01*
G75*
G02*
X117082250Y-32547500I243750J0D01*
G01*
G37*
G04 #@! TD.AperFunction*
D15*
X112458500Y-38100000D03*
X112458500Y-35560000D03*
D16*
X112458500Y-33020000D03*
D17*
X168100000Y-22540000D03*
X165560000Y-22540000D03*
X163020000Y-22540000D03*
X160480000Y-22540000D03*
X157940000Y-22540000D03*
X155400000Y-22540000D03*
X152860000Y-22540000D03*
X150320000Y-22540000D03*
X147780000Y-22540000D03*
X145240000Y-22540000D03*
X142700000Y-22540000D03*
X140160000Y-22540000D03*
X137620000Y-22540000D03*
X135080000Y-22540000D03*
X132540000Y-22540000D03*
D10*
X130000000Y-22540000D03*
D17*
X104013000Y-35560000D03*
D10*
X104013000Y-33020000D03*
D17*
X104076500Y-26225500D03*
D10*
X104076500Y-23685500D03*
D18*
X104203500Y-98298000D03*
X104203500Y-83058000D03*
X139763500Y-98298000D03*
X106743500Y-83058000D03*
X137223500Y-98298000D03*
X109283500Y-83058000D03*
X134683500Y-98298000D03*
X111823500Y-83058000D03*
X132143500Y-98298000D03*
X114363500Y-83058000D03*
X129603500Y-98298000D03*
X116903500Y-83058000D03*
X127063500Y-98298000D03*
X119443500Y-83058000D03*
X124523500Y-98298000D03*
X121983500Y-83058000D03*
X121983500Y-98298000D03*
X124523500Y-83058000D03*
X119443500Y-98298000D03*
X127063500Y-83058000D03*
X116903500Y-98298000D03*
X129603500Y-83058000D03*
X114363500Y-98298000D03*
X132143500Y-83058000D03*
X111823500Y-98298000D03*
X134683500Y-83058000D03*
X109283500Y-98298000D03*
X137223500Y-83058000D03*
X106743500Y-98298000D03*
D19*
X139763500Y-83058000D03*
D20*
X126000000Y-66750000D03*
X165290500Y-33083500D03*
X148653500Y-32385000D03*
X133921500Y-25527000D03*
X107696000Y-68707000D03*
X117000000Y-69400000D03*
X122200000Y-67600000D03*
X123000000Y-61400000D03*
X106172000Y-94424500D03*
X102743000Y-74803000D03*
X103441500Y-52705000D03*
X126750000Y-93250000D03*
X107400000Y-28800000D03*
X127750000Y-87750000D03*
X148750000Y-73000000D03*
X156146500Y-35052000D03*
X128778000Y-80454500D03*
X130400000Y-53000000D03*
X156083000Y-36385500D03*
X130556000Y-79819500D03*
X119507000Y-85979000D03*
X111315500Y-90297000D03*
X132600000Y-50000000D03*
X142750000Y-85000000D03*
X117094000Y-89916000D03*
X158051500Y-82994500D03*
X156146500Y-33782000D03*
X116205000Y-89027000D03*
X160718500Y-93916500D03*
X115189000Y-88074500D03*
X160718500Y-92646500D03*
X114300000Y-87249000D03*
X160718500Y-91376500D03*
X114200000Y-22400000D03*
X147002500Y-30035500D03*
X164401500Y-32194500D03*
X136979500Y-68770500D03*
X116800000Y-58800000D03*
X111200000Y-59600000D03*
X116800000Y-57600000D03*
X149600000Y-51573000D03*
X146400000Y-51600000D03*
X142200000Y-48600000D03*
X142200000Y-52600000D03*
D21*
X121000000Y-71750000D02*
X126000000Y-66750000D01*
X106743500Y-83058000D02*
X106743500Y-81756500D01*
X121000000Y-72500000D02*
X121000000Y-71750000D01*
X109000000Y-79500000D02*
X114000000Y-79500000D01*
X114000000Y-79500000D02*
X121000000Y-72500000D01*
X106743500Y-81756500D02*
X109000000Y-79500000D01*
X119750000Y-37121500D02*
X117538500Y-34910000D01*
X104203500Y-83058000D02*
X104203500Y-81796500D01*
X113633000Y-78867000D02*
X119750000Y-72750000D01*
X104203500Y-81796500D02*
X107133000Y-78867000D01*
X119750000Y-72750000D02*
X119750000Y-37121500D01*
X107133000Y-78867000D02*
X113633000Y-78867000D01*
D22*
X165290500Y-33083500D02*
X164026578Y-33083500D01*
X164026578Y-33083500D02*
X159321500Y-33083500D01*
X158623000Y-32385000D02*
X148653500Y-32385000D01*
X159321500Y-33083500D02*
X158623000Y-32385000D01*
X132987000Y-25527000D02*
X130000000Y-22540000D01*
X133921500Y-25527000D02*
X132987000Y-25527000D01*
D23*
X108521500Y-47902500D02*
X108521500Y-49022000D01*
X109958500Y-50459000D02*
X109958500Y-57531000D01*
X108521500Y-49022000D02*
X109958500Y-50459000D01*
X109958500Y-69531000D02*
X112458500Y-72031000D01*
D21*
X109935000Y-68707000D02*
X109958500Y-68683500D01*
X107696000Y-68707000D02*
X109935000Y-68707000D01*
D23*
X109958500Y-68683500D02*
X109958500Y-69531000D01*
X109958500Y-57531000D02*
X109958500Y-68683500D01*
D21*
X132192000Y-83058000D02*
X132143500Y-83058000D01*
X108785501Y-73358001D02*
X108785501Y-73385501D01*
X107458500Y-72031000D02*
X108785501Y-73358001D01*
X108785501Y-73385501D02*
X109800000Y-74400000D01*
X109800000Y-74400000D02*
X114400000Y-74400000D01*
X117000000Y-71800000D02*
X117000000Y-69400000D01*
X114400000Y-74400000D02*
X117000000Y-71800000D01*
X122200000Y-67600000D02*
X123200000Y-66600000D01*
X123200000Y-66600000D02*
X123200000Y-62200000D01*
X123200000Y-61600000D02*
X123000000Y-61400000D01*
X123200000Y-62200000D02*
X123200000Y-61600000D01*
D23*
X105537000Y-45402500D02*
X108521500Y-45402500D01*
X132143500Y-98298000D02*
X132143500Y-96542160D01*
X103124000Y-95948500D02*
X100901500Y-93726000D01*
X132143500Y-96542160D02*
X131549840Y-95948500D01*
X100901500Y-50038000D02*
X105537000Y-45402500D01*
D21*
X106934000Y-27305000D02*
X106934000Y-21590000D01*
X106934000Y-21590000D02*
X106235500Y-20891500D01*
X102044500Y-20891500D02*
X101092000Y-21844000D01*
X106235500Y-20891500D02*
X102044500Y-20891500D01*
X101092000Y-21844000D02*
X101092000Y-42735500D01*
X103759000Y-45402500D02*
X108521500Y-45402500D01*
X101092000Y-42735500D02*
X103759000Y-45402500D01*
X106172000Y-95885000D02*
X106108500Y-95948500D01*
X106172000Y-94424500D02*
X106172000Y-95885000D01*
D23*
X106108500Y-95948500D02*
X103124000Y-95948500D01*
D21*
X101219000Y-74803000D02*
X100901500Y-75120500D01*
X102743000Y-74803000D02*
X101219000Y-74803000D01*
D23*
X100901500Y-93726000D02*
X100901500Y-75120500D01*
D21*
X101219000Y-52705000D02*
X100901500Y-53022500D01*
X103441500Y-52705000D02*
X101219000Y-52705000D01*
D23*
X100901500Y-53022500D02*
X100901500Y-50038000D01*
X100901500Y-75120500D02*
X100901500Y-53022500D01*
D21*
X126750000Y-93250000D02*
X126750000Y-95750000D01*
D23*
X126551500Y-95948500D02*
X106108500Y-95948500D01*
D21*
X126750000Y-95750000D02*
X126551500Y-95948500D01*
D23*
X131549840Y-95948500D02*
X126551500Y-95948500D01*
D21*
X106934000Y-28334000D02*
X107400000Y-28800000D01*
X106934000Y-27305000D02*
X106934000Y-28334000D01*
X127750000Y-87750000D02*
X143000000Y-87750000D01*
X143000000Y-87750000D02*
X144250000Y-86500000D01*
X144250000Y-86500000D02*
X144250000Y-78250000D01*
X144250000Y-78250000D02*
X144250000Y-75750000D01*
X147000000Y-73000000D02*
X148750000Y-73000000D01*
X144250000Y-75750000D02*
X147000000Y-73000000D01*
X131000000Y-78232500D02*
X130916250Y-78316250D01*
X139948000Y-35052000D02*
X131000000Y-44000000D01*
X130916250Y-78316250D02*
X128778000Y-80454500D01*
X156146500Y-35052000D02*
X139948000Y-35052000D01*
X131000000Y-53000000D02*
X130400000Y-53000000D01*
X131000000Y-44000000D02*
X131000000Y-53000000D01*
X131000000Y-53000000D02*
X131000000Y-78232500D01*
X111315500Y-89157538D02*
X111315500Y-90297000D01*
X114494038Y-85979000D02*
X111315500Y-89157538D01*
X119507000Y-85979000D02*
X114494038Y-85979000D01*
X131600000Y-78775500D02*
X130556000Y-79819500D01*
X140614500Y-36385500D02*
X131600000Y-45400000D01*
X156083000Y-36385500D02*
X140614500Y-36385500D01*
X132600000Y-50000000D02*
X131600000Y-50000000D01*
X131600000Y-50000000D02*
X131600000Y-78775500D01*
X131600000Y-45400000D02*
X131600000Y-50000000D01*
X124523500Y-83439000D02*
X124523500Y-83058000D01*
X124523500Y-83058000D02*
X124523500Y-84523500D01*
X125000000Y-85000000D02*
X142750000Y-85000000D01*
X124523500Y-84523500D02*
X125000000Y-85000000D01*
X117094000Y-89916000D02*
X119126000Y-89916000D01*
X119126000Y-89916000D02*
X119824500Y-90614500D01*
X119824500Y-90614500D02*
X139509500Y-90614500D01*
X139509500Y-90614500D02*
X154622500Y-90614500D01*
X154622500Y-90614500D02*
X160591500Y-96583500D01*
X160591500Y-96583500D02*
X165354000Y-96583500D01*
X165354000Y-96583500D02*
X166116000Y-95821500D01*
X166116000Y-95821500D02*
X166116000Y-88328500D01*
X160782000Y-82994500D02*
X158051500Y-82994500D01*
X166116000Y-88328500D02*
X160782000Y-82994500D01*
X127063500Y-80010000D02*
X127063500Y-83058000D01*
X156146500Y-33782000D02*
X139418000Y-33782000D01*
X129636750Y-43563250D02*
X129636750Y-77436750D01*
X129636750Y-77436750D02*
X127063500Y-80010000D01*
X139418000Y-33782000D02*
X129636750Y-43563250D01*
X116205000Y-89027000D02*
X119634000Y-89027000D01*
X119634000Y-89027000D02*
X120650000Y-90043000D01*
X120650000Y-90043000D02*
X154749500Y-90043000D01*
X158623000Y-93916500D02*
X160718500Y-93916500D01*
X154749500Y-90043000D02*
X158623000Y-93916500D01*
X115189000Y-88074500D02*
X119580010Y-88074500D01*
X121094500Y-89588990D02*
X155374990Y-89588990D01*
X119580010Y-88074500D02*
X121094500Y-89588990D01*
X158432500Y-92646500D02*
X160718500Y-92646500D01*
X155374990Y-89588990D02*
X158432500Y-92646500D01*
X160718500Y-91376500D02*
X158051500Y-91376500D01*
X158051500Y-91376500D02*
X155765500Y-89090500D01*
X119396576Y-87249000D02*
X114300000Y-87249000D01*
X121238076Y-89090500D02*
X119396576Y-87249000D01*
X155765500Y-89090500D02*
X121238076Y-89090500D01*
D23*
X104076500Y-32956500D02*
X104013000Y-33020000D01*
X104076500Y-26225500D02*
X104076500Y-32956500D01*
X108633500Y-33020000D02*
X108648500Y-33035000D01*
X104013000Y-33020000D02*
X108633500Y-33020000D01*
D21*
X135080000Y-24241500D02*
X135080000Y-22540000D01*
X116014500Y-25844500D02*
X117475000Y-27305000D01*
X117475000Y-27305000D02*
X133794500Y-27305000D01*
X135080000Y-26019500D02*
X135080000Y-22540000D01*
X133794500Y-27305000D02*
X135080000Y-26019500D01*
X116014500Y-25844500D02*
X116014500Y-23814500D01*
X114600000Y-22400000D02*
X114200000Y-22400000D01*
X116014500Y-23814500D02*
X114600000Y-22400000D01*
X112473500Y-33035000D02*
X112458500Y-33020000D01*
X117538500Y-33035000D02*
X112473500Y-33035000D01*
X147002500Y-30035500D02*
X162877500Y-30035500D01*
X164401500Y-31559500D02*
X164401500Y-32194500D01*
X162877500Y-30035500D02*
X164401500Y-31559500D01*
X136979500Y-75682000D02*
X136979500Y-68770500D01*
X129603500Y-83058000D02*
X136979500Y-75682000D01*
D23*
X111188500Y-42545000D02*
X108648500Y-40005000D01*
X138747500Y-91884500D02*
X106172000Y-91884500D01*
X139763500Y-92900500D02*
X138747500Y-91884500D01*
X139763500Y-98298000D02*
X139763500Y-92900500D01*
X106172000Y-91884500D02*
X102362000Y-87757000D01*
X102362000Y-87757000D02*
X102362000Y-78359000D01*
X118427500Y-72453500D02*
X118427500Y-45783500D01*
X102362000Y-78359000D02*
X103822500Y-76898500D01*
X103822500Y-76898500D02*
X113982500Y-76898500D01*
X113982500Y-76898500D02*
X118427500Y-72453500D01*
X115189000Y-42545000D02*
X111188500Y-42545000D01*
X118427500Y-45783500D02*
X115189000Y-42545000D01*
X108648500Y-36136000D02*
X108600000Y-36087500D01*
X108648500Y-40005000D02*
X108648500Y-36136000D01*
D21*
X116000000Y-59600000D02*
X111200000Y-59600000D01*
X116800000Y-58800000D02*
X116000000Y-59600000D01*
X112527500Y-57600000D02*
X112458500Y-57531000D01*
X116800000Y-57600000D02*
X112527500Y-57600000D01*
X146427000Y-51573000D02*
X146400000Y-51600000D01*
X149600000Y-51573000D02*
X146427000Y-51573000D01*
X142200000Y-48600000D02*
X142200000Y-52600000D01*
X119443500Y-83058000D02*
X119443500Y-81443500D01*
X117800000Y-79800000D02*
X117800000Y-76342066D01*
X117800000Y-76342066D02*
X122200000Y-71942066D01*
X119443500Y-81443500D02*
X117800000Y-79800000D01*
X123657934Y-71942066D02*
X124800000Y-70800000D01*
X122200000Y-71942066D02*
X123657934Y-71942066D01*
X121983500Y-83058000D02*
X123441500Y-81600000D01*
X123441500Y-81600000D02*
X124800000Y-81600000D01*
X128000000Y-78400000D02*
X128000000Y-76800000D01*
X124800000Y-81600000D02*
X128000000Y-78400000D01*
X128000000Y-76800000D02*
X128000000Y-77041500D01*
X128000000Y-72000000D02*
X128000000Y-76800000D01*
M02*
