M48
; DRILL file {KiCad 5.1.6+dfsg1-1~bpo9+1} date Wed Apr 20 06:51:42 2022
; FORMAT={-:-/ absolute / metric / decimal}
; #@! TF.CreationDate,2022-04-20T06:51:42+02:00
; #@! TF.GenerationSoftware,Kicad,Pcbnew,5.1.6+dfsg1-1~bpo9+1
; #@! TF.FileFunction,Plated,1,2,PTH
FMAT,2
METRIC
T1C0.400
T2C1.000
T3C1.500
%
G90
G05
T1
X102.743Y-74.803
X103.441Y-52.705
X106.172Y-94.424
X107.4Y-28.8
X107.696Y-68.707
X111.2Y-59.6
X111.316Y-90.297
X114.2Y-22.4
X114.3Y-87.249
X115.189Y-88.075
X116.205Y-89.027
X116.8Y-57.6
X116.8Y-58.8
X117.0Y-69.4
X117.094Y-89.916
X119.507Y-85.979
X122.2Y-67.6
X123.0Y-61.4
X126.0Y-66.75
X126.75Y-93.25
X127.75Y-87.75
X128.778Y-80.454
X130.4Y-53.0
X130.556Y-79.819
X132.6Y-50.0
X133.921Y-25.527
X136.98Y-68.77
X142.2Y-48.6
X142.2Y-52.6
X142.75Y-85.0
X146.4Y-51.6
X147.002Y-30.035
X148.653Y-32.385
X148.75Y-73.0
X149.6Y-51.573
X156.083Y-36.386
X156.147Y-33.782
X156.147Y-35.052
X158.052Y-82.995
X160.719Y-91.376
X160.719Y-92.646
X160.719Y-93.916
X164.401Y-32.194
X165.29Y-33.084
T2
X108.521Y-45.402
X108.521Y-47.902
X104.013Y-33.02
X104.013Y-35.56
X137.224Y-93.726
X104.203Y-83.058
X104.203Y-98.298
X106.743Y-83.058
X106.743Y-98.298
X109.283Y-83.058
X109.283Y-98.298
X111.823Y-83.058
X111.823Y-98.298
X114.363Y-83.058
X114.363Y-98.298
X116.903Y-83.058
X116.903Y-98.298
X119.444Y-83.058
X119.444Y-98.298
X121.983Y-83.058
X121.983Y-98.298
X124.523Y-83.058
X124.523Y-98.298
X127.063Y-83.058
X127.063Y-98.298
X129.603Y-83.058
X129.603Y-98.298
X132.143Y-83.058
X132.143Y-98.298
X134.683Y-83.058
X134.683Y-98.298
X137.224Y-83.058
X137.224Y-98.298
X139.763Y-83.058
X139.763Y-98.298
X104.076Y-23.685
X104.076Y-26.226
X130.0Y-22.54
X132.54Y-22.54
X135.08Y-22.54
X137.62Y-22.54
X140.16Y-22.54
X142.7Y-22.54
X145.24Y-22.54
X147.78Y-22.54
X150.32Y-22.54
X152.86Y-22.54
X155.4Y-22.54
X157.94Y-22.54
X160.48Y-22.54
X163.02Y-22.54
X165.56Y-22.54
X168.1Y-22.54
X107.459Y-57.531
X107.459Y-72.031
X109.959Y-57.531
X112.459Y-57.531
X112.459Y-72.031
X109.75Y-86.5
X129.54Y-93.726
X124.6Y-70.6
X128.2Y-72.0
X109.601Y-94.107
X112.459Y-33.02
X112.459Y-35.56
X112.459Y-38.1
T3
X104.358Y-64.381G85X104.358Y-65.681
G05
X115.558Y-64.381G85X115.558Y-65.681
G05
T0
M30
