%FSLAX45Y45*%
G04 Gerber Fmt 4.5, Leading zero omitted, Abs format (unit mm)*
G04 Created by KiCad (PCBNEW 5.1.6+dfsg1-1~bpo9+1) date 2022-04-04 20:18:46*
%MOMM*%
%LPD*%
G01*
G04 APERTURE LIST*
%TA.AperFunction,Profile*%
%ADD10C,0.050000*%
%TD*%
%ADD11C,0.200000*%
%ADD12C,0.300000*%
G04 APERTURE END LIST*
D10*
X10900000Y-6200000D02*
X10900000Y-7500000D01*
X8000000Y-7500000D02*
X10900000Y-7500000D01*
X8000000Y-6200000D02*
X10900000Y-6200000D01*
X8000000Y-7500000D02*
X8000000Y-6200000D01*
D11*
X10231700Y-6384300D02*
X10277700Y-6430300D01*
X10277700Y-6384300D02*
X10231700Y-6430300D01*
X10231700Y-7260300D02*
X10277700Y-7306300D01*
X10277700Y-7260300D02*
X10231700Y-7306300D01*
X9892900Y-6477000D02*
G75*
G03*
X9892900Y-6477000I-25000J0D01*
G01*
X10017900Y-6477000D02*
G75*
G03*
X10017900Y-6477000I-25000J0D01*
G01*
X8674100Y-6785300D02*
X8674100Y-6905300D01*
X8614100Y-6845300D02*
X8734100Y-6845300D01*
X8332489Y-6503689D02*
X8332489Y-6326911D01*
X8155711Y-6326911D01*
X8155711Y-6503689D01*
X8332489Y-6503689D01*
X8332489Y-7363689D02*
X8332489Y-7186911D01*
X8155711Y-7186911D01*
X8155711Y-7363689D01*
X8332489Y-7363689D01*
X9192489Y-6503689D02*
X9192489Y-6326911D01*
X9015711Y-6326911D01*
X9015711Y-6503689D01*
X9192489Y-6503689D01*
X9192489Y-7363689D02*
X9192489Y-7186911D01*
X9015711Y-7186911D01*
X9015711Y-7363689D01*
X9192489Y-7363689D01*
D12*
X8283928Y-7968214D02*
X8283928Y-7668214D01*
X8355357Y-7668214D01*
X8398214Y-7682500D01*
X8426786Y-7711071D01*
X8441071Y-7739643D01*
X8455357Y-7796786D01*
X8455357Y-7839643D01*
X8441071Y-7896786D01*
X8426786Y-7925357D01*
X8398214Y-7953929D01*
X8355357Y-7968214D01*
X8283928Y-7968214D01*
X8583928Y-7968214D02*
X8583928Y-7768214D01*
X8583928Y-7825357D02*
X8598214Y-7796786D01*
X8612500Y-7782500D01*
X8641071Y-7768214D01*
X8669643Y-7768214D01*
X8769643Y-7968214D02*
X8769643Y-7768214D01*
X8769643Y-7668214D02*
X8755357Y-7682500D01*
X8769643Y-7696786D01*
X8783928Y-7682500D01*
X8769643Y-7668214D01*
X8769643Y-7696786D01*
X8955357Y-7968214D02*
X8926786Y-7953929D01*
X8912500Y-7925357D01*
X8912500Y-7668214D01*
X9112500Y-7968214D02*
X9083928Y-7953929D01*
X9069643Y-7925357D01*
X9069643Y-7668214D01*
X9455357Y-7968214D02*
X9455357Y-7668214D01*
X9555357Y-7882500D01*
X9655357Y-7668214D01*
X9655357Y-7968214D01*
X9926786Y-7968214D02*
X9926786Y-7811071D01*
X9912500Y-7782500D01*
X9883928Y-7768214D01*
X9826786Y-7768214D01*
X9798214Y-7782500D01*
X9926786Y-7953929D02*
X9898214Y-7968214D01*
X9826786Y-7968214D01*
X9798214Y-7953929D01*
X9783928Y-7925357D01*
X9783928Y-7896786D01*
X9798214Y-7868214D01*
X9826786Y-7853929D01*
X9898214Y-7853929D01*
X9926786Y-7839643D01*
X10069643Y-7768214D02*
X10069643Y-8068214D01*
X10069643Y-7782500D02*
X10098214Y-7768214D01*
X10155357Y-7768214D01*
X10183928Y-7782500D01*
X10198214Y-7796786D01*
X10212500Y-7825357D01*
X10212500Y-7911071D01*
X10198214Y-7939643D01*
X10183928Y-7953929D01*
X10155357Y-7968214D01*
X10098214Y-7968214D01*
X10069643Y-7953929D01*
X10341071Y-7939643D02*
X10355357Y-7953929D01*
X10341071Y-7968214D01*
X10326786Y-7953929D01*
X10341071Y-7939643D01*
X10341071Y-7968214D01*
X10341071Y-7782500D02*
X10355357Y-7796786D01*
X10341071Y-7811071D01*
X10326786Y-7796786D01*
X10341071Y-7782500D01*
X10341071Y-7811071D01*
X7951500Y-8439500D02*
X7997500Y-8485500D01*
X7997500Y-8439500D02*
X7951500Y-8485500D01*
X8341071Y-8298214D02*
X8369643Y-8298214D01*
X8398214Y-8312500D01*
X8412500Y-8326786D01*
X8426786Y-8355357D01*
X8441071Y-8412500D01*
X8441071Y-8483929D01*
X8426786Y-8541072D01*
X8412500Y-8569643D01*
X8398214Y-8583929D01*
X8369643Y-8598214D01*
X8341071Y-8598214D01*
X8312500Y-8583929D01*
X8298214Y-8569643D01*
X8283928Y-8541072D01*
X8269643Y-8483929D01*
X8269643Y-8412500D01*
X8283928Y-8355357D01*
X8298214Y-8326786D01*
X8312500Y-8312500D01*
X8341071Y-8298214D01*
X8569643Y-8569643D02*
X8583928Y-8583929D01*
X8569643Y-8598214D01*
X8555357Y-8583929D01*
X8569643Y-8569643D01*
X8569643Y-8598214D01*
X8841071Y-8398214D02*
X8841071Y-8598214D01*
X8769643Y-8283929D02*
X8698214Y-8498214D01*
X8883928Y-8498214D01*
X9126786Y-8298214D02*
X9069643Y-8298214D01*
X9041071Y-8312500D01*
X9026786Y-8326786D01*
X8998214Y-8369643D01*
X8983928Y-8426786D01*
X8983928Y-8541072D01*
X8998214Y-8569643D01*
X9012500Y-8583929D01*
X9041071Y-8598214D01*
X9098214Y-8598214D01*
X9126786Y-8583929D01*
X9141071Y-8569643D01*
X9155357Y-8541072D01*
X9155357Y-8469643D01*
X9141071Y-8441072D01*
X9126786Y-8426786D01*
X9098214Y-8412500D01*
X9041071Y-8412500D01*
X9012500Y-8426786D01*
X8998214Y-8441072D01*
X8983928Y-8469643D01*
X9283928Y-8598214D02*
X9283928Y-8398214D01*
X9283928Y-8426786D02*
X9298214Y-8412500D01*
X9326786Y-8398214D01*
X9369643Y-8398214D01*
X9398214Y-8412500D01*
X9412500Y-8441072D01*
X9412500Y-8598214D01*
X9412500Y-8441072D02*
X9426786Y-8412500D01*
X9455357Y-8398214D01*
X9498214Y-8398214D01*
X9526786Y-8412500D01*
X9541071Y-8441072D01*
X9541071Y-8598214D01*
X9683928Y-8598214D02*
X9683928Y-8398214D01*
X9683928Y-8426786D02*
X9698214Y-8412500D01*
X9726786Y-8398214D01*
X9769643Y-8398214D01*
X9798214Y-8412500D01*
X9812500Y-8441072D01*
X9812500Y-8598214D01*
X9812500Y-8441072D02*
X9826786Y-8412500D01*
X9855357Y-8398214D01*
X9898214Y-8398214D01*
X9926786Y-8412500D01*
X9941071Y-8441072D01*
X9941071Y-8598214D01*
X10526786Y-8283929D02*
X10269643Y-8669643D01*
X10912500Y-8298214D02*
X10941071Y-8298214D01*
X10969643Y-8312500D01*
X10983928Y-8326786D01*
X10998214Y-8355357D01*
X11012500Y-8412500D01*
X11012500Y-8483929D01*
X10998214Y-8541072D01*
X10983928Y-8569643D01*
X10969643Y-8583929D01*
X10941071Y-8598214D01*
X10912500Y-8598214D01*
X10883928Y-8583929D01*
X10869643Y-8569643D01*
X10855357Y-8541072D01*
X10841071Y-8483929D01*
X10841071Y-8412500D01*
X10855357Y-8355357D01*
X10869643Y-8326786D01*
X10883928Y-8312500D01*
X10912500Y-8298214D01*
X11141071Y-8569643D02*
X11155357Y-8583929D01*
X11141071Y-8598214D01*
X11126786Y-8583929D01*
X11141071Y-8569643D01*
X11141071Y-8598214D01*
X11341071Y-8298214D02*
X11369643Y-8298214D01*
X11398214Y-8312500D01*
X11412500Y-8326786D01*
X11426786Y-8355357D01*
X11441071Y-8412500D01*
X11441071Y-8483929D01*
X11426786Y-8541072D01*
X11412500Y-8569643D01*
X11398214Y-8583929D01*
X11369643Y-8598214D01*
X11341071Y-8598214D01*
X11312500Y-8583929D01*
X11298214Y-8569643D01*
X11283928Y-8541072D01*
X11269643Y-8483929D01*
X11269643Y-8412500D01*
X11283928Y-8355357D01*
X11298214Y-8326786D01*
X11312500Y-8312500D01*
X11341071Y-8298214D01*
X11726786Y-8598214D02*
X11555357Y-8598214D01*
X11641071Y-8598214D02*
X11641071Y-8298214D01*
X11612500Y-8341071D01*
X11583928Y-8369643D01*
X11555357Y-8383929D01*
X11898214Y-8426786D02*
X11869643Y-8412500D01*
X11855357Y-8398214D01*
X11841071Y-8369643D01*
X11841071Y-8355357D01*
X11855357Y-8326786D01*
X11869643Y-8312500D01*
X11898214Y-8298214D01*
X11955357Y-8298214D01*
X11983928Y-8312500D01*
X11998214Y-8326786D01*
X12012500Y-8355357D01*
X12012500Y-8369643D01*
X11998214Y-8398214D01*
X11983928Y-8412500D01*
X11955357Y-8426786D01*
X11898214Y-8426786D01*
X11869643Y-8441072D01*
X11855357Y-8455357D01*
X11841071Y-8483929D01*
X11841071Y-8541072D01*
X11855357Y-8569643D01*
X11869643Y-8583929D01*
X11898214Y-8598214D01*
X11955357Y-8598214D01*
X11983928Y-8583929D01*
X11998214Y-8569643D01*
X12012500Y-8541072D01*
X12012500Y-8483929D01*
X11998214Y-8455357D01*
X11983928Y-8441072D01*
X11955357Y-8426786D01*
X12126786Y-8298214D02*
X12126786Y-8355357D01*
X12241071Y-8298214D02*
X12241071Y-8355357D01*
X12683928Y-8712500D02*
X12669643Y-8698214D01*
X12641071Y-8655357D01*
X12626786Y-8626786D01*
X12612500Y-8583929D01*
X12598214Y-8512500D01*
X12598214Y-8455357D01*
X12612500Y-8383929D01*
X12626786Y-8341071D01*
X12641071Y-8312500D01*
X12669643Y-8269643D01*
X12683928Y-8255357D01*
X12783928Y-8326786D02*
X12798214Y-8312500D01*
X12826786Y-8298214D01*
X12898214Y-8298214D01*
X12926786Y-8312500D01*
X12941071Y-8326786D01*
X12955357Y-8355357D01*
X12955357Y-8383929D01*
X12941071Y-8426786D01*
X12769643Y-8598214D01*
X12955357Y-8598214D01*
X13312500Y-8598214D02*
X13312500Y-8298214D01*
X13441071Y-8598214D02*
X13441071Y-8441072D01*
X13426786Y-8412500D01*
X13398214Y-8398214D01*
X13355357Y-8398214D01*
X13326786Y-8412500D01*
X13312500Y-8426786D01*
X13626786Y-8598214D02*
X13598214Y-8583929D01*
X13583928Y-8569643D01*
X13569643Y-8541072D01*
X13569643Y-8455357D01*
X13583928Y-8426786D01*
X13598214Y-8412500D01*
X13626786Y-8398214D01*
X13669643Y-8398214D01*
X13698214Y-8412500D01*
X13712500Y-8426786D01*
X13726786Y-8455357D01*
X13726786Y-8541072D01*
X13712500Y-8569643D01*
X13698214Y-8583929D01*
X13669643Y-8598214D01*
X13626786Y-8598214D01*
X13898214Y-8598214D02*
X13869643Y-8583929D01*
X13855357Y-8555357D01*
X13855357Y-8298214D01*
X14126786Y-8583929D02*
X14098214Y-8598214D01*
X14041071Y-8598214D01*
X14012500Y-8583929D01*
X13998214Y-8555357D01*
X13998214Y-8441072D01*
X14012500Y-8412500D01*
X14041071Y-8398214D01*
X14098214Y-8398214D01*
X14126786Y-8412500D01*
X14141071Y-8441072D01*
X14141071Y-8469643D01*
X13998214Y-8498214D01*
X14255357Y-8583929D02*
X14283928Y-8598214D01*
X14341071Y-8598214D01*
X14369643Y-8583929D01*
X14383928Y-8555357D01*
X14383928Y-8541072D01*
X14369643Y-8512500D01*
X14341071Y-8498214D01*
X14298214Y-8498214D01*
X14269643Y-8483929D01*
X14255357Y-8455357D01*
X14255357Y-8441072D01*
X14269643Y-8412500D01*
X14298214Y-8398214D01*
X14341071Y-8398214D01*
X14369643Y-8412500D01*
X14483928Y-8712500D02*
X14498214Y-8698214D01*
X14526786Y-8655357D01*
X14541071Y-8626786D01*
X14555357Y-8583929D01*
X14569643Y-8512500D01*
X14569643Y-8455357D01*
X14555357Y-8383929D01*
X14541071Y-8341071D01*
X14526786Y-8312500D01*
X14498214Y-8269643D01*
X14483928Y-8255357D01*
X7997500Y-8858500D02*
G75*
G03*
X7997500Y-8858500I-25000J0D01*
G01*
X8341071Y-8694214D02*
X8369643Y-8694214D01*
X8398214Y-8708500D01*
X8412500Y-8722786D01*
X8426786Y-8751357D01*
X8441071Y-8808500D01*
X8441071Y-8879929D01*
X8426786Y-8937072D01*
X8412500Y-8965643D01*
X8398214Y-8979929D01*
X8369643Y-8994214D01*
X8341071Y-8994214D01*
X8312500Y-8979929D01*
X8298214Y-8965643D01*
X8283928Y-8937072D01*
X8269643Y-8879929D01*
X8269643Y-8808500D01*
X8283928Y-8751357D01*
X8298214Y-8722786D01*
X8312500Y-8708500D01*
X8341071Y-8694214D01*
X8569643Y-8965643D02*
X8583928Y-8979929D01*
X8569643Y-8994214D01*
X8555357Y-8979929D01*
X8569643Y-8965643D01*
X8569643Y-8994214D01*
X8855357Y-8694214D02*
X8712500Y-8694214D01*
X8698214Y-8837072D01*
X8712500Y-8822786D01*
X8741071Y-8808500D01*
X8812500Y-8808500D01*
X8841071Y-8822786D01*
X8855357Y-8837072D01*
X8869643Y-8865643D01*
X8869643Y-8937072D01*
X8855357Y-8965643D01*
X8841071Y-8979929D01*
X8812500Y-8994214D01*
X8741071Y-8994214D01*
X8712500Y-8979929D01*
X8698214Y-8965643D01*
X9055357Y-8694214D02*
X9083928Y-8694214D01*
X9112500Y-8708500D01*
X9126786Y-8722786D01*
X9141071Y-8751357D01*
X9155357Y-8808500D01*
X9155357Y-8879929D01*
X9141071Y-8937072D01*
X9126786Y-8965643D01*
X9112500Y-8979929D01*
X9083928Y-8994214D01*
X9055357Y-8994214D01*
X9026786Y-8979929D01*
X9012500Y-8965643D01*
X8998214Y-8937072D01*
X8983928Y-8879929D01*
X8983928Y-8808500D01*
X8998214Y-8751357D01*
X9012500Y-8722786D01*
X9026786Y-8708500D01*
X9055357Y-8694214D01*
X9283928Y-8994214D02*
X9283928Y-8794214D01*
X9283928Y-8822786D02*
X9298214Y-8808500D01*
X9326786Y-8794214D01*
X9369643Y-8794214D01*
X9398214Y-8808500D01*
X9412500Y-8837072D01*
X9412500Y-8994214D01*
X9412500Y-8837072D02*
X9426786Y-8808500D01*
X9455357Y-8794214D01*
X9498214Y-8794214D01*
X9526786Y-8808500D01*
X9541071Y-8837072D01*
X9541071Y-8994214D01*
X9683928Y-8994214D02*
X9683928Y-8794214D01*
X9683928Y-8822786D02*
X9698214Y-8808500D01*
X9726786Y-8794214D01*
X9769643Y-8794214D01*
X9798214Y-8808500D01*
X9812500Y-8837072D01*
X9812500Y-8994214D01*
X9812500Y-8837072D02*
X9826786Y-8808500D01*
X9855357Y-8794214D01*
X9898214Y-8794214D01*
X9926786Y-8808500D01*
X9941071Y-8837072D01*
X9941071Y-8994214D01*
X10526786Y-8679929D02*
X10269643Y-9065643D01*
X10912500Y-8694214D02*
X10941071Y-8694214D01*
X10969643Y-8708500D01*
X10983928Y-8722786D01*
X10998214Y-8751357D01*
X11012500Y-8808500D01*
X11012500Y-8879929D01*
X10998214Y-8937072D01*
X10983928Y-8965643D01*
X10969643Y-8979929D01*
X10941071Y-8994214D01*
X10912500Y-8994214D01*
X10883928Y-8979929D01*
X10869643Y-8965643D01*
X10855357Y-8937072D01*
X10841071Y-8879929D01*
X10841071Y-8808500D01*
X10855357Y-8751357D01*
X10869643Y-8722786D01*
X10883928Y-8708500D01*
X10912500Y-8694214D01*
X11141071Y-8965643D02*
X11155357Y-8979929D01*
X11141071Y-8994214D01*
X11126786Y-8979929D01*
X11141071Y-8965643D01*
X11141071Y-8994214D01*
X11341071Y-8694214D02*
X11369643Y-8694214D01*
X11398214Y-8708500D01*
X11412500Y-8722786D01*
X11426786Y-8751357D01*
X11441071Y-8808500D01*
X11441071Y-8879929D01*
X11426786Y-8937072D01*
X11412500Y-8965643D01*
X11398214Y-8979929D01*
X11369643Y-8994214D01*
X11341071Y-8994214D01*
X11312500Y-8979929D01*
X11298214Y-8965643D01*
X11283928Y-8937072D01*
X11269643Y-8879929D01*
X11269643Y-8808500D01*
X11283928Y-8751357D01*
X11298214Y-8722786D01*
X11312500Y-8708500D01*
X11341071Y-8694214D01*
X11555357Y-8722786D02*
X11569643Y-8708500D01*
X11598214Y-8694214D01*
X11669643Y-8694214D01*
X11698214Y-8708500D01*
X11712500Y-8722786D01*
X11726786Y-8751357D01*
X11726786Y-8779929D01*
X11712500Y-8822786D01*
X11541071Y-8994214D01*
X11726786Y-8994214D01*
X11912500Y-8694214D02*
X11941071Y-8694214D01*
X11969643Y-8708500D01*
X11983928Y-8722786D01*
X11998214Y-8751357D01*
X12012500Y-8808500D01*
X12012500Y-8879929D01*
X11998214Y-8937072D01*
X11983928Y-8965643D01*
X11969643Y-8979929D01*
X11941071Y-8994214D01*
X11912500Y-8994214D01*
X11883928Y-8979929D01*
X11869643Y-8965643D01*
X11855357Y-8937072D01*
X11841071Y-8879929D01*
X11841071Y-8808500D01*
X11855357Y-8751357D01*
X11869643Y-8722786D01*
X11883928Y-8708500D01*
X11912500Y-8694214D01*
X12126786Y-8694214D02*
X12126786Y-8751357D01*
X12241071Y-8694214D02*
X12241071Y-8751357D01*
X12683928Y-9108500D02*
X12669643Y-9094214D01*
X12641071Y-9051357D01*
X12626786Y-9022786D01*
X12612500Y-8979929D01*
X12598214Y-8908500D01*
X12598214Y-8851357D01*
X12612500Y-8779929D01*
X12626786Y-8737072D01*
X12641071Y-8708500D01*
X12669643Y-8665643D01*
X12683928Y-8651357D01*
X12783928Y-8722786D02*
X12798214Y-8708500D01*
X12826786Y-8694214D01*
X12898214Y-8694214D01*
X12926786Y-8708500D01*
X12941071Y-8722786D01*
X12955357Y-8751357D01*
X12955357Y-8779929D01*
X12941071Y-8822786D01*
X12769643Y-8994214D01*
X12955357Y-8994214D01*
X13312500Y-8994214D02*
X13312500Y-8694214D01*
X13441071Y-8994214D02*
X13441071Y-8837072D01*
X13426786Y-8808500D01*
X13398214Y-8794214D01*
X13355357Y-8794214D01*
X13326786Y-8808500D01*
X13312500Y-8822786D01*
X13626786Y-8994214D02*
X13598214Y-8979929D01*
X13583928Y-8965643D01*
X13569643Y-8937072D01*
X13569643Y-8851357D01*
X13583928Y-8822786D01*
X13598214Y-8808500D01*
X13626786Y-8794214D01*
X13669643Y-8794214D01*
X13698214Y-8808500D01*
X13712500Y-8822786D01*
X13726786Y-8851357D01*
X13726786Y-8937072D01*
X13712500Y-8965643D01*
X13698214Y-8979929D01*
X13669643Y-8994214D01*
X13626786Y-8994214D01*
X13898214Y-8994214D02*
X13869643Y-8979929D01*
X13855357Y-8951357D01*
X13855357Y-8694214D01*
X14126786Y-8979929D02*
X14098214Y-8994214D01*
X14041071Y-8994214D01*
X14012500Y-8979929D01*
X13998214Y-8951357D01*
X13998214Y-8837072D01*
X14012500Y-8808500D01*
X14041071Y-8794214D01*
X14098214Y-8794214D01*
X14126786Y-8808500D01*
X14141071Y-8837072D01*
X14141071Y-8865643D01*
X13998214Y-8894214D01*
X14255357Y-8979929D02*
X14283928Y-8994214D01*
X14341071Y-8994214D01*
X14369643Y-8979929D01*
X14383928Y-8951357D01*
X14383928Y-8937072D01*
X14369643Y-8908500D01*
X14341071Y-8894214D01*
X14298214Y-8894214D01*
X14269643Y-8879929D01*
X14255357Y-8851357D01*
X14255357Y-8837072D01*
X14269643Y-8808500D01*
X14298214Y-8794214D01*
X14341071Y-8794214D01*
X14369643Y-8808500D01*
X14483928Y-9108500D02*
X14498214Y-9094214D01*
X14526786Y-9051357D01*
X14541071Y-9022786D01*
X14555357Y-8979929D01*
X14569643Y-8908500D01*
X14569643Y-8851357D01*
X14555357Y-8779929D01*
X14541071Y-8737072D01*
X14526786Y-8708500D01*
X14498214Y-8665643D01*
X14483928Y-8651357D01*
X7937500Y-9194500D02*
X7937500Y-9314500D01*
X7877500Y-9254500D02*
X7997500Y-9254500D01*
X8441071Y-9390214D02*
X8269643Y-9390214D01*
X8355357Y-9390214D02*
X8355357Y-9090214D01*
X8326786Y-9133072D01*
X8298214Y-9161643D01*
X8269643Y-9175929D01*
X8569643Y-9361643D02*
X8583928Y-9375929D01*
X8569643Y-9390214D01*
X8555357Y-9375929D01*
X8569643Y-9361643D01*
X8569643Y-9390214D01*
X8698214Y-9118786D02*
X8712500Y-9104500D01*
X8741071Y-9090214D01*
X8812500Y-9090214D01*
X8841071Y-9104500D01*
X8855357Y-9118786D01*
X8869643Y-9147357D01*
X8869643Y-9175929D01*
X8855357Y-9218786D01*
X8683928Y-9390214D01*
X8869643Y-9390214D01*
X9055357Y-9090214D02*
X9083928Y-9090214D01*
X9112500Y-9104500D01*
X9126786Y-9118786D01*
X9141071Y-9147357D01*
X9155357Y-9204500D01*
X9155357Y-9275929D01*
X9141071Y-9333072D01*
X9126786Y-9361643D01*
X9112500Y-9375929D01*
X9083928Y-9390214D01*
X9055357Y-9390214D01*
X9026786Y-9375929D01*
X9012500Y-9361643D01*
X8998214Y-9333072D01*
X8983928Y-9275929D01*
X8983928Y-9204500D01*
X8998214Y-9147357D01*
X9012500Y-9118786D01*
X9026786Y-9104500D01*
X9055357Y-9090214D01*
X9283928Y-9390214D02*
X9283928Y-9190214D01*
X9283928Y-9218786D02*
X9298214Y-9204500D01*
X9326786Y-9190214D01*
X9369643Y-9190214D01*
X9398214Y-9204500D01*
X9412500Y-9233072D01*
X9412500Y-9390214D01*
X9412500Y-9233072D02*
X9426786Y-9204500D01*
X9455357Y-9190214D01*
X9498214Y-9190214D01*
X9526786Y-9204500D01*
X9541071Y-9233072D01*
X9541071Y-9390214D01*
X9683928Y-9390214D02*
X9683928Y-9190214D01*
X9683928Y-9218786D02*
X9698214Y-9204500D01*
X9726786Y-9190214D01*
X9769643Y-9190214D01*
X9798214Y-9204500D01*
X9812500Y-9233072D01*
X9812500Y-9390214D01*
X9812500Y-9233072D02*
X9826786Y-9204500D01*
X9855357Y-9190214D01*
X9898214Y-9190214D01*
X9926786Y-9204500D01*
X9941071Y-9233072D01*
X9941071Y-9390214D01*
X10526786Y-9075929D02*
X10269643Y-9461643D01*
X10912500Y-9090214D02*
X10941071Y-9090214D01*
X10969643Y-9104500D01*
X10983928Y-9118786D01*
X10998214Y-9147357D01*
X11012500Y-9204500D01*
X11012500Y-9275929D01*
X10998214Y-9333072D01*
X10983928Y-9361643D01*
X10969643Y-9375929D01*
X10941071Y-9390214D01*
X10912500Y-9390214D01*
X10883928Y-9375929D01*
X10869643Y-9361643D01*
X10855357Y-9333072D01*
X10841071Y-9275929D01*
X10841071Y-9204500D01*
X10855357Y-9147357D01*
X10869643Y-9118786D01*
X10883928Y-9104500D01*
X10912500Y-9090214D01*
X11141071Y-9361643D02*
X11155357Y-9375929D01*
X11141071Y-9390214D01*
X11126786Y-9375929D01*
X11141071Y-9361643D01*
X11141071Y-9390214D01*
X11341071Y-9090214D02*
X11369643Y-9090214D01*
X11398214Y-9104500D01*
X11412500Y-9118786D01*
X11426786Y-9147357D01*
X11441071Y-9204500D01*
X11441071Y-9275929D01*
X11426786Y-9333072D01*
X11412500Y-9361643D01*
X11398214Y-9375929D01*
X11369643Y-9390214D01*
X11341071Y-9390214D01*
X11312500Y-9375929D01*
X11298214Y-9361643D01*
X11283928Y-9333072D01*
X11269643Y-9275929D01*
X11269643Y-9204500D01*
X11283928Y-9147357D01*
X11298214Y-9118786D01*
X11312500Y-9104500D01*
X11341071Y-9090214D01*
X11698214Y-9190214D02*
X11698214Y-9390214D01*
X11626786Y-9075929D02*
X11555357Y-9290214D01*
X11741071Y-9290214D01*
X11826786Y-9090214D02*
X12026786Y-9090214D01*
X11898214Y-9390214D01*
X12126786Y-9090214D02*
X12126786Y-9147357D01*
X12241071Y-9090214D02*
X12241071Y-9147357D01*
X12683928Y-9504500D02*
X12669643Y-9490214D01*
X12641071Y-9447357D01*
X12626786Y-9418786D01*
X12612500Y-9375929D01*
X12598214Y-9304500D01*
X12598214Y-9247357D01*
X12612500Y-9175929D01*
X12626786Y-9133072D01*
X12641071Y-9104500D01*
X12669643Y-9061643D01*
X12683928Y-9047357D01*
X12955357Y-9390214D02*
X12783928Y-9390214D01*
X12869643Y-9390214D02*
X12869643Y-9090214D01*
X12841071Y-9133072D01*
X12812500Y-9161643D01*
X12783928Y-9175929D01*
X13312500Y-9390214D02*
X13312500Y-9090214D01*
X13441071Y-9390214D02*
X13441071Y-9233072D01*
X13426786Y-9204500D01*
X13398214Y-9190214D01*
X13355357Y-9190214D01*
X13326786Y-9204500D01*
X13312500Y-9218786D01*
X13626786Y-9390214D02*
X13598214Y-9375929D01*
X13583928Y-9361643D01*
X13569643Y-9333072D01*
X13569643Y-9247357D01*
X13583928Y-9218786D01*
X13598214Y-9204500D01*
X13626786Y-9190214D01*
X13669643Y-9190214D01*
X13698214Y-9204500D01*
X13712500Y-9218786D01*
X13726786Y-9247357D01*
X13726786Y-9333072D01*
X13712500Y-9361643D01*
X13698214Y-9375929D01*
X13669643Y-9390214D01*
X13626786Y-9390214D01*
X13898214Y-9390214D02*
X13869643Y-9375929D01*
X13855357Y-9347357D01*
X13855357Y-9090214D01*
X14126786Y-9375929D02*
X14098214Y-9390214D01*
X14041071Y-9390214D01*
X14012500Y-9375929D01*
X13998214Y-9347357D01*
X13998214Y-9233072D01*
X14012500Y-9204500D01*
X14041071Y-9190214D01*
X14098214Y-9190214D01*
X14126786Y-9204500D01*
X14141071Y-9233072D01*
X14141071Y-9261643D01*
X13998214Y-9290214D01*
X14241071Y-9504500D02*
X14255357Y-9490214D01*
X14283928Y-9447357D01*
X14298214Y-9418786D01*
X14312500Y-9375929D01*
X14326786Y-9304500D01*
X14326786Y-9247357D01*
X14312500Y-9175929D01*
X14298214Y-9133072D01*
X14283928Y-9104500D01*
X14255357Y-9061643D01*
X14241071Y-9047357D01*
X7960889Y-9738889D02*
X7960889Y-9562111D01*
X7784111Y-9562111D01*
X7784111Y-9738889D01*
X7960889Y-9738889D01*
X8269643Y-9514786D02*
X8283928Y-9500500D01*
X8312500Y-9486214D01*
X8383928Y-9486214D01*
X8412500Y-9500500D01*
X8426786Y-9514786D01*
X8441071Y-9543357D01*
X8441071Y-9571929D01*
X8426786Y-9614786D01*
X8255357Y-9786214D01*
X8441071Y-9786214D01*
X8569643Y-9757643D02*
X8583928Y-9771929D01*
X8569643Y-9786214D01*
X8555357Y-9771929D01*
X8569643Y-9757643D01*
X8569643Y-9786214D01*
X8855357Y-9486214D02*
X8712500Y-9486214D01*
X8698214Y-9629072D01*
X8712500Y-9614786D01*
X8741071Y-9600500D01*
X8812500Y-9600500D01*
X8841071Y-9614786D01*
X8855357Y-9629072D01*
X8869643Y-9657643D01*
X8869643Y-9729072D01*
X8855357Y-9757643D01*
X8841071Y-9771929D01*
X8812500Y-9786214D01*
X8741071Y-9786214D01*
X8712500Y-9771929D01*
X8698214Y-9757643D01*
X9055357Y-9486214D02*
X9083928Y-9486214D01*
X9112500Y-9500500D01*
X9126786Y-9514786D01*
X9141071Y-9543357D01*
X9155357Y-9600500D01*
X9155357Y-9671929D01*
X9141071Y-9729072D01*
X9126786Y-9757643D01*
X9112500Y-9771929D01*
X9083928Y-9786214D01*
X9055357Y-9786214D01*
X9026786Y-9771929D01*
X9012500Y-9757643D01*
X8998214Y-9729072D01*
X8983928Y-9671929D01*
X8983928Y-9600500D01*
X8998214Y-9543357D01*
X9012500Y-9514786D01*
X9026786Y-9500500D01*
X9055357Y-9486214D01*
X9283928Y-9786214D02*
X9283928Y-9586214D01*
X9283928Y-9614786D02*
X9298214Y-9600500D01*
X9326786Y-9586214D01*
X9369643Y-9586214D01*
X9398214Y-9600500D01*
X9412500Y-9629072D01*
X9412500Y-9786214D01*
X9412500Y-9629072D02*
X9426786Y-9600500D01*
X9455357Y-9586214D01*
X9498214Y-9586214D01*
X9526786Y-9600500D01*
X9541071Y-9629072D01*
X9541071Y-9786214D01*
X9683928Y-9786214D02*
X9683928Y-9586214D01*
X9683928Y-9614786D02*
X9698214Y-9600500D01*
X9726786Y-9586214D01*
X9769643Y-9586214D01*
X9798214Y-9600500D01*
X9812500Y-9629072D01*
X9812500Y-9786214D01*
X9812500Y-9629072D02*
X9826786Y-9600500D01*
X9855357Y-9586214D01*
X9898214Y-9586214D01*
X9926786Y-9600500D01*
X9941071Y-9629072D01*
X9941071Y-9786214D01*
X10526786Y-9471929D02*
X10269643Y-9857643D01*
X10912500Y-9486214D02*
X10941071Y-9486214D01*
X10969643Y-9500500D01*
X10983928Y-9514786D01*
X10998214Y-9543357D01*
X11012500Y-9600500D01*
X11012500Y-9671929D01*
X10998214Y-9729072D01*
X10983928Y-9757643D01*
X10969643Y-9771929D01*
X10941071Y-9786214D01*
X10912500Y-9786214D01*
X10883928Y-9771929D01*
X10869643Y-9757643D01*
X10855357Y-9729072D01*
X10841071Y-9671929D01*
X10841071Y-9600500D01*
X10855357Y-9543357D01*
X10869643Y-9514786D01*
X10883928Y-9500500D01*
X10912500Y-9486214D01*
X11141071Y-9757643D02*
X11155357Y-9771929D01*
X11141071Y-9786214D01*
X11126786Y-9771929D01*
X11141071Y-9757643D01*
X11141071Y-9786214D01*
X11341071Y-9486214D02*
X11369643Y-9486214D01*
X11398214Y-9500500D01*
X11412500Y-9514786D01*
X11426786Y-9543357D01*
X11441071Y-9600500D01*
X11441071Y-9671929D01*
X11426786Y-9729072D01*
X11412500Y-9757643D01*
X11398214Y-9771929D01*
X11369643Y-9786214D01*
X11341071Y-9786214D01*
X11312500Y-9771929D01*
X11298214Y-9757643D01*
X11283928Y-9729072D01*
X11269643Y-9671929D01*
X11269643Y-9600500D01*
X11283928Y-9543357D01*
X11298214Y-9514786D01*
X11312500Y-9500500D01*
X11341071Y-9486214D01*
X11583928Y-9786214D02*
X11641071Y-9786214D01*
X11669643Y-9771929D01*
X11683928Y-9757643D01*
X11712500Y-9714786D01*
X11726786Y-9657643D01*
X11726786Y-9543357D01*
X11712500Y-9514786D01*
X11698214Y-9500500D01*
X11669643Y-9486214D01*
X11612500Y-9486214D01*
X11583928Y-9500500D01*
X11569643Y-9514786D01*
X11555357Y-9543357D01*
X11555357Y-9614786D01*
X11569643Y-9643357D01*
X11583928Y-9657643D01*
X11612500Y-9671929D01*
X11669643Y-9671929D01*
X11698214Y-9657643D01*
X11712500Y-9643357D01*
X11726786Y-9614786D01*
X11898214Y-9614786D02*
X11869643Y-9600500D01*
X11855357Y-9586214D01*
X11841071Y-9557643D01*
X11841071Y-9543357D01*
X11855357Y-9514786D01*
X11869643Y-9500500D01*
X11898214Y-9486214D01*
X11955357Y-9486214D01*
X11983928Y-9500500D01*
X11998214Y-9514786D01*
X12012500Y-9543357D01*
X12012500Y-9557643D01*
X11998214Y-9586214D01*
X11983928Y-9600500D01*
X11955357Y-9614786D01*
X11898214Y-9614786D01*
X11869643Y-9629072D01*
X11855357Y-9643357D01*
X11841071Y-9671929D01*
X11841071Y-9729072D01*
X11855357Y-9757643D01*
X11869643Y-9771929D01*
X11898214Y-9786214D01*
X11955357Y-9786214D01*
X11983928Y-9771929D01*
X11998214Y-9757643D01*
X12012500Y-9729072D01*
X12012500Y-9671929D01*
X11998214Y-9643357D01*
X11983928Y-9629072D01*
X11955357Y-9614786D01*
X12126786Y-9486214D02*
X12126786Y-9543357D01*
X12241071Y-9486214D02*
X12241071Y-9543357D01*
X12683928Y-9900500D02*
X12669643Y-9886214D01*
X12641071Y-9843357D01*
X12626786Y-9814786D01*
X12612500Y-9771929D01*
X12598214Y-9700500D01*
X12598214Y-9643357D01*
X12612500Y-9571929D01*
X12626786Y-9529072D01*
X12641071Y-9500500D01*
X12669643Y-9457643D01*
X12683928Y-9443357D01*
X12926786Y-9586214D02*
X12926786Y-9786214D01*
X12855357Y-9471929D02*
X12783928Y-9686214D01*
X12969643Y-9686214D01*
X13312500Y-9786214D02*
X13312500Y-9486214D01*
X13441071Y-9786214D02*
X13441071Y-9629072D01*
X13426786Y-9600500D01*
X13398214Y-9586214D01*
X13355357Y-9586214D01*
X13326786Y-9600500D01*
X13312500Y-9614786D01*
X13626786Y-9786214D02*
X13598214Y-9771929D01*
X13583928Y-9757643D01*
X13569643Y-9729072D01*
X13569643Y-9643357D01*
X13583928Y-9614786D01*
X13598214Y-9600500D01*
X13626786Y-9586214D01*
X13669643Y-9586214D01*
X13698214Y-9600500D01*
X13712500Y-9614786D01*
X13726786Y-9643357D01*
X13726786Y-9729072D01*
X13712500Y-9757643D01*
X13698214Y-9771929D01*
X13669643Y-9786214D01*
X13626786Y-9786214D01*
X13898214Y-9786214D02*
X13869643Y-9771929D01*
X13855357Y-9743357D01*
X13855357Y-9486214D01*
X14126786Y-9771929D02*
X14098214Y-9786214D01*
X14041071Y-9786214D01*
X14012500Y-9771929D01*
X13998214Y-9743357D01*
X13998214Y-9629072D01*
X14012500Y-9600500D01*
X14041071Y-9586214D01*
X14098214Y-9586214D01*
X14126786Y-9600500D01*
X14141071Y-9629072D01*
X14141071Y-9657643D01*
X13998214Y-9686214D01*
X14255357Y-9771929D02*
X14283928Y-9786214D01*
X14341071Y-9786214D01*
X14369643Y-9771929D01*
X14383928Y-9743357D01*
X14383928Y-9729072D01*
X14369643Y-9700500D01*
X14341071Y-9686214D01*
X14298214Y-9686214D01*
X14269643Y-9671929D01*
X14255357Y-9643357D01*
X14255357Y-9629072D01*
X14269643Y-9600500D01*
X14298214Y-9586214D01*
X14341071Y-9586214D01*
X14369643Y-9600500D01*
X14483928Y-9900500D02*
X14498214Y-9886214D01*
X14526786Y-9843357D01*
X14541071Y-9814786D01*
X14555357Y-9771929D01*
X14569643Y-9700500D01*
X14569643Y-9643357D01*
X14555357Y-9571929D01*
X14541071Y-9529072D01*
X14526786Y-9500500D01*
X14498214Y-9457643D01*
X14483928Y-9443357D01*
M02*
