%FSLAX45Y45*%
G04 Gerber Fmt 4.5, Leading zero omitted, Abs format (unit mm)*
G04 Created by KiCad (PCBNEW 5.1.6+dfsg1-1~bpo9+1) date 2022-04-04 20:18:46*
%MOMM*%
%LPD*%
G01*
G04 APERTURE LIST*
%TA.AperFunction,Profile*%
%ADD10C,0.050000*%
%TD*%
%ADD11C,0.200000*%
%ADD12C,0.300000*%
G04 APERTURE END LIST*
D10*
X10900000Y-6200000D02*
X10900000Y-7500000D01*
X8000000Y-7500000D02*
X10900000Y-7500000D01*
X8000000Y-6200000D02*
X10900000Y-6200000D01*
X8000000Y-7500000D02*
X8000000Y-6200000D01*
D11*
D12*
X8283928Y-7968214D02*
X8283928Y-7668214D01*
X8355357Y-7668214D01*
X8398214Y-7682500D01*
X8426786Y-7711071D01*
X8441071Y-7739643D01*
X8455357Y-7796786D01*
X8455357Y-7839643D01*
X8441071Y-7896786D01*
X8426786Y-7925357D01*
X8398214Y-7953929D01*
X8355357Y-7968214D01*
X8283928Y-7968214D01*
X8583928Y-7968214D02*
X8583928Y-7768214D01*
X8583928Y-7825357D02*
X8598214Y-7796786D01*
X8612500Y-7782500D01*
X8641071Y-7768214D01*
X8669643Y-7768214D01*
X8769643Y-7968214D02*
X8769643Y-7768214D01*
X8769643Y-7668214D02*
X8755357Y-7682500D01*
X8769643Y-7696786D01*
X8783928Y-7682500D01*
X8769643Y-7668214D01*
X8769643Y-7696786D01*
X8955357Y-7968214D02*
X8926786Y-7953929D01*
X8912500Y-7925357D01*
X8912500Y-7668214D01*
X9112500Y-7968214D02*
X9083928Y-7953929D01*
X9069643Y-7925357D01*
X9069643Y-7668214D01*
X9455357Y-7968214D02*
X9455357Y-7668214D01*
X9555357Y-7882500D01*
X9655357Y-7668214D01*
X9655357Y-7968214D01*
X9926786Y-7968214D02*
X9926786Y-7811071D01*
X9912500Y-7782500D01*
X9883928Y-7768214D01*
X9826786Y-7768214D01*
X9798214Y-7782500D01*
X9926786Y-7953929D02*
X9898214Y-7968214D01*
X9826786Y-7968214D01*
X9798214Y-7953929D01*
X9783928Y-7925357D01*
X9783928Y-7896786D01*
X9798214Y-7868214D01*
X9826786Y-7853929D01*
X9898214Y-7853929D01*
X9926786Y-7839643D01*
X10069643Y-7768214D02*
X10069643Y-8068214D01*
X10069643Y-7782500D02*
X10098214Y-7768214D01*
X10155357Y-7768214D01*
X10183928Y-7782500D01*
X10198214Y-7796786D01*
X10212500Y-7825357D01*
X10212500Y-7911071D01*
X10198214Y-7939643D01*
X10183928Y-7953929D01*
X10155357Y-7968214D01*
X10098214Y-7968214D01*
X10069643Y-7953929D01*
X10341071Y-7939643D02*
X10355357Y-7953929D01*
X10341071Y-7968214D01*
X10326786Y-7953929D01*
X10341071Y-7939643D01*
X10341071Y-7968214D01*
X10341071Y-7782500D02*
X10355357Y-7796786D01*
X10341071Y-7811071D01*
X10326786Y-7796786D01*
X10341071Y-7782500D01*
X10341071Y-7811071D01*
M02*
