G04 #@! TF.GenerationSoftware,KiCad,Pcbnew,5.1.6+dfsg1-1~bpo9+1*
G04 #@! TF.CreationDate,2022-04-04T20:18:43+02:00*
G04 #@! TF.ProjectId,sdrtrx-bias-t,73647274-7278-42d6-9269-61732d742e6b,rev?*
G04 #@! TF.SameCoordinates,Original*
G04 #@! TF.FileFunction,Copper,L1,Top*
G04 #@! TF.FilePolarity,Positive*
%FSLAX46Y46*%
G04 Gerber Fmt 4.6, Leading zero omitted, Abs format (unit mm)*
G04 Created by KiCad (PCBNEW 5.1.6+dfsg1-1~bpo9+1) date 2022-04-04 20:18:43*
%MOMM*%
%LPD*%
G01*
G04 APERTURE LIST*
G04 #@! TA.AperFunction,ComponentPad*
%ADD10C,3.500000*%
G04 #@! TD*
G04 #@! TA.AperFunction,ComponentPad*
%ADD11C,2.250000*%
G04 #@! TD*
G04 #@! TA.AperFunction,ComponentPad*
%ADD12O,0.800000X1.300000*%
G04 #@! TD*
G04 #@! TA.AperFunction,Conductor*
%ADD13R,0.950000X0.460000*%
G04 #@! TD*
G04 #@! TA.AperFunction,ViaPad*
%ADD14C,0.970000*%
G04 #@! TD*
G04 #@! TA.AperFunction,SMDPad,CuDef*
%ADD15R,5.080000X2.420000*%
G04 #@! TD*
G04 #@! TA.AperFunction,SMDPad,CuDef*
%ADD16R,5.080000X2.290000*%
G04 #@! TD*
G04 #@! TA.AperFunction,Conductor*
%ADD17C,1.270000*%
G04 #@! TD*
G04 #@! TA.AperFunction,Conductor*
%ADD18C,0.254000*%
G04 #@! TD*
G04 #@! TA.AperFunction,Conductor*
%ADD19C,0.508000*%
G04 #@! TD*
G04 APERTURE END LIST*
G04 #@! TA.AperFunction,SMDPad,CuDef*
G36*
G01*
X95219000Y-63629250D02*
X95219000Y-63116750D01*
G75*
G02*
X95437750Y-62898000I218750J0D01*
G01*
X95875250Y-62898000D01*
G75*
G02*
X96094000Y-63116750I0J-218750D01*
G01*
X96094000Y-63629250D01*
G75*
G02*
X95875250Y-63848000I-218750J0D01*
G01*
X95437750Y-63848000D01*
G75*
G02*
X95219000Y-63629250I0J218750D01*
G01*
G37*
G04 #@! TD.AperFunction*
G04 #@! TA.AperFunction,SMDPad,CuDef*
G36*
G01*
X93644000Y-63629250D02*
X93644000Y-63116750D01*
G75*
G02*
X93862750Y-62898000I218750J0D01*
G01*
X94300250Y-62898000D01*
G75*
G02*
X94519000Y-63116750I0J-218750D01*
G01*
X94519000Y-63629250D01*
G75*
G02*
X94300250Y-63848000I-218750J0D01*
G01*
X93862750Y-63848000D01*
G75*
G02*
X93644000Y-63629250I0J218750D01*
G01*
G37*
G04 #@! TD.AperFunction*
G04 #@! TA.AperFunction,SMDPad,CuDef*
G36*
G01*
X100045000Y-68709250D02*
X100045000Y-68196750D01*
G75*
G02*
X100263750Y-67978000I218750J0D01*
G01*
X100701250Y-67978000D01*
G75*
G02*
X100920000Y-68196750I0J-218750D01*
G01*
X100920000Y-68709250D01*
G75*
G02*
X100701250Y-68928000I-218750J0D01*
G01*
X100263750Y-68928000D01*
G75*
G02*
X100045000Y-68709250I0J218750D01*
G01*
G37*
G04 #@! TD.AperFunction*
G04 #@! TA.AperFunction,SMDPad,CuDef*
G36*
G01*
X98470000Y-68709250D02*
X98470000Y-68196750D01*
G75*
G02*
X98688750Y-67978000I218750J0D01*
G01*
X99126250Y-67978000D01*
G75*
G02*
X99345000Y-68196750I0J-218750D01*
G01*
X99345000Y-68709250D01*
G75*
G02*
X99126250Y-68928000I-218750J0D01*
G01*
X98688750Y-68928000D01*
G75*
G02*
X98470000Y-68709250I0J218750D01*
G01*
G37*
G04 #@! TD.AperFunction*
G04 #@! TA.AperFunction,SMDPad,CuDef*
G36*
G01*
X100200750Y-71216000D02*
X100713250Y-71216000D01*
G75*
G02*
X100932000Y-71434750I0J-218750D01*
G01*
X100932000Y-71872250D01*
G75*
G02*
X100713250Y-72091000I-218750J0D01*
G01*
X100200750Y-72091000D01*
G75*
G02*
X99982000Y-71872250I0J218750D01*
G01*
X99982000Y-71434750D01*
G75*
G02*
X100200750Y-71216000I218750J0D01*
G01*
G37*
G04 #@! TD.AperFunction*
G04 #@! TA.AperFunction,SMDPad,CuDef*
G36*
G01*
X100200750Y-69641000D02*
X100713250Y-69641000D01*
G75*
G02*
X100932000Y-69859750I0J-218750D01*
G01*
X100932000Y-70297250D01*
G75*
G02*
X100713250Y-70516000I-218750J0D01*
G01*
X100200750Y-70516000D01*
G75*
G02*
X99982000Y-70297250I0J218750D01*
G01*
X99982000Y-69859750D01*
G75*
G02*
X100200750Y-69641000I218750J0D01*
G01*
G37*
G04 #@! TD.AperFunction*
G04 #@! TA.AperFunction,SMDPad,CuDef*
G36*
G01*
X94109250Y-66680500D02*
X93596750Y-66680500D01*
G75*
G02*
X93378000Y-66461750I0J218750D01*
G01*
X93378000Y-66024250D01*
G75*
G02*
X93596750Y-65805500I218750J0D01*
G01*
X94109250Y-65805500D01*
G75*
G02*
X94328000Y-66024250I0J-218750D01*
G01*
X94328000Y-66461750D01*
G75*
G02*
X94109250Y-66680500I-218750J0D01*
G01*
G37*
G04 #@! TD.AperFunction*
G04 #@! TA.AperFunction,SMDPad,CuDef*
G36*
G01*
X94109250Y-68255500D02*
X93596750Y-68255500D01*
G75*
G02*
X93378000Y-68036750I0J218750D01*
G01*
X93378000Y-67599250D01*
G75*
G02*
X93596750Y-67380500I218750J0D01*
G01*
X94109250Y-67380500D01*
G75*
G02*
X94328000Y-67599250I0J-218750D01*
G01*
X94328000Y-68036750D01*
G75*
G02*
X94109250Y-68255500I-218750J0D01*
G01*
G37*
G04 #@! TD.AperFunction*
D10*
X91041000Y-72753000D03*
X82441000Y-72753000D03*
X82441000Y-64153000D03*
X91041000Y-64153000D03*
D11*
X86741000Y-68453000D03*
D12*
X99929000Y-64770000D03*
G04 #@! TA.AperFunction,ComponentPad*
G36*
G01*
X98279000Y-65220000D02*
X98279000Y-64320000D01*
G75*
G02*
X98479000Y-64120000I200000J0D01*
G01*
X98879000Y-64120000D01*
G75*
G02*
X99079000Y-64320000I0J-200000D01*
G01*
X99079000Y-65220000D01*
G75*
G02*
X98879000Y-65420000I-200000J0D01*
G01*
X98479000Y-65420000D01*
G75*
G02*
X98279000Y-65220000I0J200000D01*
G01*
G37*
G04 #@! TD.AperFunction*
D13*
X102997000Y-64073000D03*
X102997000Y-72833000D03*
D14*
X102547000Y-64073000D03*
X102547000Y-72833000D03*
D15*
X105987000Y-64073000D03*
X105987000Y-72833000D03*
D16*
X105987000Y-68453000D03*
G04 #@! TA.AperFunction,SMDPad,CuDef*
G36*
G01*
X96743000Y-68709250D02*
X96743000Y-68196750D01*
G75*
G02*
X96961750Y-67978000I218750J0D01*
G01*
X97399250Y-67978000D01*
G75*
G02*
X97618000Y-68196750I0J-218750D01*
G01*
X97618000Y-68709250D01*
G75*
G02*
X97399250Y-68928000I-218750J0D01*
G01*
X96961750Y-68928000D01*
G75*
G02*
X96743000Y-68709250I0J218750D01*
G01*
G37*
G04 #@! TD.AperFunction*
G04 #@! TA.AperFunction,SMDPad,CuDef*
G36*
G01*
X95168000Y-68709250D02*
X95168000Y-68196750D01*
G75*
G02*
X95386750Y-67978000I218750J0D01*
G01*
X95824250Y-67978000D01*
G75*
G02*
X96043000Y-68196750I0J-218750D01*
G01*
X96043000Y-68709250D01*
G75*
G02*
X95824250Y-68928000I-218750J0D01*
G01*
X95386750Y-68928000D01*
G75*
G02*
X95168000Y-68709250I0J218750D01*
G01*
G37*
G04 #@! TD.AperFunction*
D17*
X97180500Y-68453000D02*
X98907500Y-68453000D01*
X95605500Y-68453000D02*
X86741000Y-68453000D01*
D18*
X95656500Y-64363500D02*
X95656500Y-63373000D01*
X98272500Y-64363500D02*
X98679000Y-64770000D01*
X95656500Y-64363500D02*
X98272500Y-64363500D01*
X95656500Y-64439500D02*
X93853000Y-66243000D01*
X95656500Y-64363500D02*
X95656500Y-64439500D01*
D19*
X103182000Y-64073000D02*
X101919000Y-64073000D01*
X103182000Y-72833000D02*
X101792000Y-72833000D01*
X91821000Y-63373000D02*
X91041000Y-64153000D01*
X94081500Y-63373000D02*
X91821000Y-63373000D01*
X100612500Y-71653500D02*
X101792000Y-72833000D01*
X100457000Y-71653500D02*
X100612500Y-71653500D01*
D18*
X100482500Y-70053000D02*
X100457000Y-70078500D01*
X100482500Y-68453000D02*
X100482500Y-70053000D01*
D17*
X100482500Y-68453000D02*
X106622000Y-68453000D01*
D18*
G36*
X94646150Y-62788858D02*
G01*
X94597392Y-62949592D01*
X94580928Y-63116750D01*
X94580928Y-63629250D01*
X94597392Y-63796408D01*
X94646150Y-63957142D01*
X94725329Y-64105275D01*
X94809965Y-64208405D01*
X93850942Y-65167428D01*
X93596750Y-65167428D01*
X93429592Y-65183892D01*
X93268858Y-65232650D01*
X93120725Y-65311829D01*
X92990885Y-65418385D01*
X92884329Y-65548225D01*
X92805150Y-65696358D01*
X92756392Y-65857092D01*
X92739928Y-66024250D01*
X92739928Y-66461750D01*
X92756392Y-66628908D01*
X92805150Y-66789642D01*
X92884329Y-66937775D01*
X92960426Y-67030500D01*
X92884329Y-67123225D01*
X92852378Y-67183000D01*
X87960016Y-67183000D01*
X87862935Y-67085919D01*
X87574673Y-66893308D01*
X87254373Y-66760636D01*
X86914345Y-66693000D01*
X86567655Y-66693000D01*
X86227627Y-66760636D01*
X85907327Y-66893308D01*
X85619065Y-67085919D01*
X85373919Y-67331065D01*
X85181308Y-67619327D01*
X85048636Y-67939627D01*
X84981000Y-68279655D01*
X84981000Y-68626345D01*
X85048636Y-68966373D01*
X85181308Y-69286673D01*
X85373919Y-69574935D01*
X85619065Y-69820081D01*
X85907327Y-70012692D01*
X86227627Y-70145364D01*
X86567655Y-70213000D01*
X86914345Y-70213000D01*
X87254373Y-70145364D01*
X87574673Y-70012692D01*
X87862935Y-69820081D01*
X87960016Y-69723000D01*
X99357397Y-69723000D01*
X99343928Y-69859750D01*
X99343928Y-70297250D01*
X99360392Y-70464408D01*
X99409150Y-70625142D01*
X99488329Y-70773275D01*
X99594885Y-70903115D01*
X99724725Y-71009671D01*
X99872858Y-71088850D01*
X100033592Y-71137608D01*
X100200750Y-71154072D01*
X100713250Y-71154072D01*
X100880408Y-71137608D01*
X101041142Y-71088850D01*
X101189275Y-71009671D01*
X101319115Y-70903115D01*
X101425671Y-70773275D01*
X101504850Y-70625142D01*
X101553608Y-70464408D01*
X101570072Y-70297250D01*
X101570072Y-69859750D01*
X101556603Y-69723000D01*
X102821345Y-69723000D01*
X102857498Y-69842180D01*
X102916463Y-69952494D01*
X102995815Y-70049185D01*
X103092506Y-70128537D01*
X103202820Y-70187502D01*
X103322518Y-70223812D01*
X103447000Y-70236072D01*
X108340001Y-70236072D01*
X108340001Y-74340000D01*
X80660000Y-74340000D01*
X80660000Y-62660000D01*
X94715026Y-62660000D01*
X94646150Y-62788858D01*
G37*
X94646150Y-62788858D02*
X94597392Y-62949592D01*
X94580928Y-63116750D01*
X94580928Y-63629250D01*
X94597392Y-63796408D01*
X94646150Y-63957142D01*
X94725329Y-64105275D01*
X94809965Y-64208405D01*
X93850942Y-65167428D01*
X93596750Y-65167428D01*
X93429592Y-65183892D01*
X93268858Y-65232650D01*
X93120725Y-65311829D01*
X92990885Y-65418385D01*
X92884329Y-65548225D01*
X92805150Y-65696358D01*
X92756392Y-65857092D01*
X92739928Y-66024250D01*
X92739928Y-66461750D01*
X92756392Y-66628908D01*
X92805150Y-66789642D01*
X92884329Y-66937775D01*
X92960426Y-67030500D01*
X92884329Y-67123225D01*
X92852378Y-67183000D01*
X87960016Y-67183000D01*
X87862935Y-67085919D01*
X87574673Y-66893308D01*
X87254373Y-66760636D01*
X86914345Y-66693000D01*
X86567655Y-66693000D01*
X86227627Y-66760636D01*
X85907327Y-66893308D01*
X85619065Y-67085919D01*
X85373919Y-67331065D01*
X85181308Y-67619327D01*
X85048636Y-67939627D01*
X84981000Y-68279655D01*
X84981000Y-68626345D01*
X85048636Y-68966373D01*
X85181308Y-69286673D01*
X85373919Y-69574935D01*
X85619065Y-69820081D01*
X85907327Y-70012692D01*
X86227627Y-70145364D01*
X86567655Y-70213000D01*
X86914345Y-70213000D01*
X87254373Y-70145364D01*
X87574673Y-70012692D01*
X87862935Y-69820081D01*
X87960016Y-69723000D01*
X99357397Y-69723000D01*
X99343928Y-69859750D01*
X99343928Y-70297250D01*
X99360392Y-70464408D01*
X99409150Y-70625142D01*
X99488329Y-70773275D01*
X99594885Y-70903115D01*
X99724725Y-71009671D01*
X99872858Y-71088850D01*
X100033592Y-71137608D01*
X100200750Y-71154072D01*
X100713250Y-71154072D01*
X100880408Y-71137608D01*
X101041142Y-71088850D01*
X101189275Y-71009671D01*
X101319115Y-70903115D01*
X101425671Y-70773275D01*
X101504850Y-70625142D01*
X101553608Y-70464408D01*
X101570072Y-70297250D01*
X101570072Y-69859750D01*
X101556603Y-69723000D01*
X102821345Y-69723000D01*
X102857498Y-69842180D01*
X102916463Y-69952494D01*
X102995815Y-70049185D01*
X103092506Y-70128537D01*
X103202820Y-70187502D01*
X103322518Y-70223812D01*
X103447000Y-70236072D01*
X108340001Y-70236072D01*
X108340001Y-74340000D01*
X80660000Y-74340000D01*
X80660000Y-62660000D01*
X94715026Y-62660000D01*
X94646150Y-62788858D01*
G36*
X108340000Y-66669928D02*
G01*
X103447000Y-66669928D01*
X103322518Y-66682188D01*
X103202820Y-66718498D01*
X103092506Y-66777463D01*
X102995815Y-66856815D01*
X102916463Y-66953506D01*
X102857498Y-67063820D01*
X102821345Y-67183000D01*
X94853622Y-67183000D01*
X94821671Y-67123225D01*
X94745574Y-67030500D01*
X94821671Y-66937775D01*
X94900850Y-66789642D01*
X94949608Y-66628908D01*
X94966072Y-66461750D01*
X94966072Y-66207558D01*
X96048131Y-65125500D01*
X97640928Y-65125500D01*
X97640928Y-65220000D01*
X97657031Y-65383500D01*
X97704722Y-65540716D01*
X97782169Y-65685608D01*
X97886394Y-65812606D01*
X98013392Y-65916831D01*
X98158284Y-65994278D01*
X98315500Y-66041969D01*
X98479000Y-66058072D01*
X98879000Y-66058072D01*
X99042500Y-66041969D01*
X99199716Y-65994278D01*
X99344608Y-65916831D01*
X99471606Y-65812606D01*
X99575831Y-65685608D01*
X99653278Y-65540716D01*
X99700969Y-65383500D01*
X99717072Y-65220000D01*
X99717072Y-64320000D01*
X99700969Y-64156500D01*
X99653278Y-63999284D01*
X99575831Y-63854392D01*
X99471606Y-63727394D01*
X99344608Y-63623169D01*
X99199716Y-63545722D01*
X99042500Y-63498031D01*
X98879000Y-63481928D01*
X98479000Y-63481928D01*
X98315500Y-63498031D01*
X98158284Y-63545722D01*
X98053932Y-63601500D01*
X96732072Y-63601500D01*
X96732072Y-63116750D01*
X96715608Y-62949592D01*
X96666850Y-62788858D01*
X96597974Y-62660000D01*
X108340000Y-62660000D01*
X108340000Y-66669928D01*
G37*
X108340000Y-66669928D02*
X103447000Y-66669928D01*
X103322518Y-66682188D01*
X103202820Y-66718498D01*
X103092506Y-66777463D01*
X102995815Y-66856815D01*
X102916463Y-66953506D01*
X102857498Y-67063820D01*
X102821345Y-67183000D01*
X94853622Y-67183000D01*
X94821671Y-67123225D01*
X94745574Y-67030500D01*
X94821671Y-66937775D01*
X94900850Y-66789642D01*
X94949608Y-66628908D01*
X94966072Y-66461750D01*
X94966072Y-66207558D01*
X96048131Y-65125500D01*
X97640928Y-65125500D01*
X97640928Y-65220000D01*
X97657031Y-65383500D01*
X97704722Y-65540716D01*
X97782169Y-65685608D01*
X97886394Y-65812606D01*
X98013392Y-65916831D01*
X98158284Y-65994278D01*
X98315500Y-66041969D01*
X98479000Y-66058072D01*
X98879000Y-66058072D01*
X99042500Y-66041969D01*
X99199716Y-65994278D01*
X99344608Y-65916831D01*
X99471606Y-65812606D01*
X99575831Y-65685608D01*
X99653278Y-65540716D01*
X99700969Y-65383500D01*
X99717072Y-65220000D01*
X99717072Y-64320000D01*
X99700969Y-64156500D01*
X99653278Y-63999284D01*
X99575831Y-63854392D01*
X99471606Y-63727394D01*
X99344608Y-63623169D01*
X99199716Y-63545722D01*
X99042500Y-63498031D01*
X98879000Y-63481928D01*
X98479000Y-63481928D01*
X98315500Y-63498031D01*
X98158284Y-63545722D01*
X98053932Y-63601500D01*
X96732072Y-63601500D01*
X96732072Y-63116750D01*
X96715608Y-62949592D01*
X96666850Y-62788858D01*
X96597974Y-62660000D01*
X108340000Y-62660000D01*
X108340000Y-66669928D01*
M02*
