G04 #@! TF.GenerationSoftware,KiCad,Pcbnew,5.1.6+dfsg1-1~bpo9+1*
G04 #@! TF.CreationDate,2022-04-04T20:18:43+02:00*
G04 #@! TF.ProjectId,sdrtrx-bias-t,73647274-7278-42d6-9269-61732d742e6b,rev?*
G04 #@! TF.SameCoordinates,Original*
G04 #@! TF.FileFunction,Legend,Top*
G04 #@! TF.FilePolarity,Positive*
%FSLAX46Y46*%
G04 Gerber Fmt 4.6, Leading zero omitted, Abs format (unit mm)*
G04 Created by KiCad (PCBNEW 5.1.6+dfsg1-1~bpo9+1) date 2022-04-04 20:18:43*
%MOMM*%
%LPD*%
G01*
G04 APERTURE LIST*
%ADD10C,0.120000*%
%ADD11C,0.150000*%
%ADD12C,3.600000*%
%ADD13C,2.350000*%
%ADD14O,0.900000X1.400000*%
%ADD15R,5.180000X2.520000*%
%ADD16R,5.180000X2.390000*%
G04 APERTURE END LIST*
D10*
X94706221Y-63883000D02*
X95031779Y-63883000D01*
X94706221Y-62863000D02*
X95031779Y-62863000D01*
X99532221Y-67943000D02*
X99857779Y-67943000D01*
X99532221Y-68963000D02*
X99857779Y-68963000D01*
X100967000Y-70703221D02*
X100967000Y-71028779D01*
X99947000Y-70703221D02*
X99947000Y-71028779D01*
X93343000Y-67193279D02*
X93343000Y-66867721D01*
X94363000Y-67193279D02*
X94363000Y-66867721D01*
X83061000Y-70253000D02*
X83061000Y-66653000D01*
X89941000Y-69753000D02*
X89941000Y-67153000D01*
X85141000Y-64853000D02*
X88341000Y-64853000D01*
X85141000Y-72053000D02*
X88341000Y-72053000D01*
X97069000Y-62610000D02*
X97069000Y-66030000D01*
X97069000Y-66030000D02*
X101539000Y-66030000D01*
X101539000Y-66030000D02*
X101539000Y-62610000D01*
X101539000Y-62610000D02*
X97069000Y-62610000D01*
X99304000Y-65520000D02*
X97579000Y-65520000D01*
X97579000Y-65520000D02*
X97579000Y-64770000D01*
X97579000Y-64770000D02*
X97379000Y-64770000D01*
X97379000Y-64770000D02*
X97379000Y-63970000D01*
X97379000Y-63970000D02*
X97579000Y-63970000D01*
X97579000Y-63970000D02*
X97579000Y-63120000D01*
X97579000Y-63120000D02*
X99304000Y-63120000D01*
X99304000Y-65520000D02*
X101029000Y-65520000D01*
X101029000Y-65520000D02*
X101029000Y-64770000D01*
X101029000Y-64770000D02*
X101229000Y-64770000D01*
X101229000Y-64770000D02*
X101229000Y-63970000D01*
X101229000Y-63970000D02*
X101029000Y-63970000D01*
X101029000Y-63970000D02*
X101029000Y-63120000D01*
X101029000Y-63120000D02*
X99304000Y-63120000D01*
X96779000Y-66320000D02*
X96779000Y-65320000D01*
X96779000Y-66320000D02*
X97779000Y-66320000D01*
X101767000Y-68203000D02*
X102267000Y-68453000D01*
X101767000Y-68703000D02*
X101767000Y-68203000D01*
X102267000Y-68453000D02*
X101767000Y-68703000D01*
X96230221Y-67943000D02*
X96555779Y-67943000D01*
X96230221Y-68963000D02*
X96555779Y-68963000D01*
D11*
X96115142Y-65444666D02*
X96162761Y-65492285D01*
X96210380Y-65635142D01*
X96210380Y-65730380D01*
X96162761Y-65873238D01*
X96067523Y-65968476D01*
X95972285Y-66016095D01*
X95781809Y-66063714D01*
X95638952Y-66063714D01*
X95448476Y-66016095D01*
X95353238Y-65968476D01*
X95258000Y-65873238D01*
X95210380Y-65730380D01*
X95210380Y-65635142D01*
X95258000Y-65492285D01*
X95305619Y-65444666D01*
X95305619Y-65063714D02*
X95258000Y-65016095D01*
X95210380Y-64920857D01*
X95210380Y-64682761D01*
X95258000Y-64587523D01*
X95305619Y-64539904D01*
X95400857Y-64492285D01*
X95496095Y-64492285D01*
X95638952Y-64539904D01*
X96210380Y-65111333D01*
X96210380Y-64492285D01*
X99004380Y-70397666D02*
X98528190Y-70731000D01*
X99004380Y-70969095D02*
X98004380Y-70969095D01*
X98004380Y-70588142D01*
X98052000Y-70492904D01*
X98099619Y-70445285D01*
X98194857Y-70397666D01*
X98337714Y-70397666D01*
X98432952Y-70445285D01*
X98480571Y-70492904D01*
X98528190Y-70588142D01*
X98528190Y-70969095D01*
X98099619Y-70016714D02*
X98052000Y-69969095D01*
X98004380Y-69873857D01*
X98004380Y-69635761D01*
X98052000Y-69540523D01*
X98099619Y-69492904D01*
X98194857Y-69445285D01*
X98290095Y-69445285D01*
X98432952Y-69492904D01*
X99004380Y-70064333D01*
X99004380Y-69445285D01*
X99385380Y-72810666D02*
X98909190Y-73144000D01*
X99385380Y-73382095D02*
X98385380Y-73382095D01*
X98385380Y-73001142D01*
X98433000Y-72905904D01*
X98480619Y-72858285D01*
X98575857Y-72810666D01*
X98718714Y-72810666D01*
X98813952Y-72858285D01*
X98861571Y-72905904D01*
X98909190Y-73001142D01*
X98909190Y-73382095D01*
X99385380Y-71858285D02*
X99385380Y-72429714D01*
X99385380Y-72144000D02*
X98385380Y-72144000D01*
X98528238Y-72239238D01*
X98623476Y-72334476D01*
X98671095Y-72429714D01*
X92781380Y-67578166D02*
X92781380Y-68054357D01*
X91781380Y-68054357D01*
X92781380Y-66721023D02*
X92781380Y-67292452D01*
X92781380Y-67006738D02*
X91781380Y-67006738D01*
X91924238Y-67101976D01*
X92019476Y-67197214D01*
X92067095Y-67292452D01*
X93051380Y-71580333D02*
X93765666Y-71580333D01*
X93908523Y-71627952D01*
X94003761Y-71723190D01*
X94051380Y-71866047D01*
X94051380Y-71961285D01*
X93051380Y-71199380D02*
X93051380Y-70580333D01*
X93432333Y-70913666D01*
X93432333Y-70770809D01*
X93479952Y-70675571D01*
X93527571Y-70627952D01*
X93622809Y-70580333D01*
X93860904Y-70580333D01*
X93956142Y-70627952D01*
X94003761Y-70675571D01*
X94051380Y-70770809D01*
X94051380Y-71056523D01*
X94003761Y-71151761D01*
X93956142Y-71199380D01*
X100123666Y-66254380D02*
X100123666Y-66968666D01*
X100076047Y-67111523D01*
X99980809Y-67206761D01*
X99837952Y-67254380D01*
X99742714Y-67254380D01*
X100552238Y-66349619D02*
X100599857Y-66302000D01*
X100695095Y-66254380D01*
X100933190Y-66254380D01*
X101028428Y-66302000D01*
X101076047Y-66349619D01*
X101123666Y-66444857D01*
X101123666Y-66540095D01*
X101076047Y-66682952D01*
X100504619Y-67254380D01*
X101123666Y-67254380D01*
X100290380Y-73739333D02*
X101004666Y-73739333D01*
X101147523Y-73786952D01*
X101242761Y-73882190D01*
X101290380Y-74025047D01*
X101290380Y-74120285D01*
X101290380Y-72739333D02*
X101290380Y-73310761D01*
X101290380Y-73025047D02*
X100290380Y-73025047D01*
X100433238Y-73120285D01*
X100528476Y-73215523D01*
X100576095Y-73310761D01*
X95734142Y-70397666D02*
X95781761Y-70445285D01*
X95829380Y-70588142D01*
X95829380Y-70683380D01*
X95781761Y-70826238D01*
X95686523Y-70921476D01*
X95591285Y-70969095D01*
X95400809Y-71016714D01*
X95257952Y-71016714D01*
X95067476Y-70969095D01*
X94972238Y-70921476D01*
X94877000Y-70826238D01*
X94829380Y-70683380D01*
X94829380Y-70588142D01*
X94877000Y-70445285D01*
X94924619Y-70397666D01*
X95829380Y-69445285D02*
X95829380Y-70016714D01*
X95829380Y-69731000D02*
X94829380Y-69731000D01*
X94972238Y-69826238D01*
X95067476Y-69921476D01*
X95115095Y-70016714D01*
%LPC*%
G36*
G01*
X95169000Y-63654250D02*
X95169000Y-63091750D01*
G75*
G02*
X95412750Y-62848000I243750J0D01*
G01*
X95900250Y-62848000D01*
G75*
G02*
X96144000Y-63091750I0J-243750D01*
G01*
X96144000Y-63654250D01*
G75*
G02*
X95900250Y-63898000I-243750J0D01*
G01*
X95412750Y-63898000D01*
G75*
G02*
X95169000Y-63654250I0J243750D01*
G01*
G37*
G36*
G01*
X93594000Y-63654250D02*
X93594000Y-63091750D01*
G75*
G02*
X93837750Y-62848000I243750J0D01*
G01*
X94325250Y-62848000D01*
G75*
G02*
X94569000Y-63091750I0J-243750D01*
G01*
X94569000Y-63654250D01*
G75*
G02*
X94325250Y-63898000I-243750J0D01*
G01*
X93837750Y-63898000D01*
G75*
G02*
X93594000Y-63654250I0J243750D01*
G01*
G37*
G36*
G01*
X99995000Y-68734250D02*
X99995000Y-68171750D01*
G75*
G02*
X100238750Y-67928000I243750J0D01*
G01*
X100726250Y-67928000D01*
G75*
G02*
X100970000Y-68171750I0J-243750D01*
G01*
X100970000Y-68734250D01*
G75*
G02*
X100726250Y-68978000I-243750J0D01*
G01*
X100238750Y-68978000D01*
G75*
G02*
X99995000Y-68734250I0J243750D01*
G01*
G37*
G36*
G01*
X98420000Y-68734250D02*
X98420000Y-68171750D01*
G75*
G02*
X98663750Y-67928000I243750J0D01*
G01*
X99151250Y-67928000D01*
G75*
G02*
X99395000Y-68171750I0J-243750D01*
G01*
X99395000Y-68734250D01*
G75*
G02*
X99151250Y-68978000I-243750J0D01*
G01*
X98663750Y-68978000D01*
G75*
G02*
X98420000Y-68734250I0J243750D01*
G01*
G37*
G36*
G01*
X100175750Y-71166000D02*
X100738250Y-71166000D01*
G75*
G02*
X100982000Y-71409750I0J-243750D01*
G01*
X100982000Y-71897250D01*
G75*
G02*
X100738250Y-72141000I-243750J0D01*
G01*
X100175750Y-72141000D01*
G75*
G02*
X99932000Y-71897250I0J243750D01*
G01*
X99932000Y-71409750D01*
G75*
G02*
X100175750Y-71166000I243750J0D01*
G01*
G37*
G36*
G01*
X100175750Y-69591000D02*
X100738250Y-69591000D01*
G75*
G02*
X100982000Y-69834750I0J-243750D01*
G01*
X100982000Y-70322250D01*
G75*
G02*
X100738250Y-70566000I-243750J0D01*
G01*
X100175750Y-70566000D01*
G75*
G02*
X99932000Y-70322250I0J243750D01*
G01*
X99932000Y-69834750D01*
G75*
G02*
X100175750Y-69591000I243750J0D01*
G01*
G37*
G36*
G01*
X94134250Y-66730500D02*
X93571750Y-66730500D01*
G75*
G02*
X93328000Y-66486750I0J243750D01*
G01*
X93328000Y-65999250D01*
G75*
G02*
X93571750Y-65755500I243750J0D01*
G01*
X94134250Y-65755500D01*
G75*
G02*
X94378000Y-65999250I0J-243750D01*
G01*
X94378000Y-66486750D01*
G75*
G02*
X94134250Y-66730500I-243750J0D01*
G01*
G37*
G36*
G01*
X94134250Y-68305500D02*
X93571750Y-68305500D01*
G75*
G02*
X93328000Y-68061750I0J243750D01*
G01*
X93328000Y-67574250D01*
G75*
G02*
X93571750Y-67330500I243750J0D01*
G01*
X94134250Y-67330500D01*
G75*
G02*
X94378000Y-67574250I0J-243750D01*
G01*
X94378000Y-68061750D01*
G75*
G02*
X94134250Y-68305500I-243750J0D01*
G01*
G37*
D12*
X91041000Y-72753000D03*
X82441000Y-72753000D03*
X82441000Y-64153000D03*
X91041000Y-64153000D03*
D13*
X86741000Y-68453000D03*
D14*
X99929000Y-64770000D03*
G36*
G01*
X98229000Y-65245000D02*
X98229000Y-64295000D01*
G75*
G02*
X98454000Y-64070000I225000J0D01*
G01*
X98904000Y-64070000D01*
G75*
G02*
X99129000Y-64295000I0J-225000D01*
G01*
X99129000Y-65245000D01*
G75*
G02*
X98904000Y-65470000I-225000J0D01*
G01*
X98454000Y-65470000D01*
G75*
G02*
X98229000Y-65245000I0J225000D01*
G01*
G37*
D15*
X105987000Y-64073000D03*
X105987000Y-72833000D03*
D16*
X105987000Y-68453000D03*
G36*
G01*
X96693000Y-68734250D02*
X96693000Y-68171750D01*
G75*
G02*
X96936750Y-67928000I243750J0D01*
G01*
X97424250Y-67928000D01*
G75*
G02*
X97668000Y-68171750I0J-243750D01*
G01*
X97668000Y-68734250D01*
G75*
G02*
X97424250Y-68978000I-243750J0D01*
G01*
X96936750Y-68978000D01*
G75*
G02*
X96693000Y-68734250I0J243750D01*
G01*
G37*
G36*
G01*
X95118000Y-68734250D02*
X95118000Y-68171750D01*
G75*
G02*
X95361750Y-67928000I243750J0D01*
G01*
X95849250Y-67928000D01*
G75*
G02*
X96093000Y-68171750I0J-243750D01*
G01*
X96093000Y-68734250D01*
G75*
G02*
X95849250Y-68978000I-243750J0D01*
G01*
X95361750Y-68978000D01*
G75*
G02*
X95118000Y-68734250I0J243750D01*
G01*
G37*
M02*
