G04 #@! TF.GenerationSoftware,KiCad,Pcbnew,5.1.6+dfsg1-1~bpo9+1*
G04 #@! TF.CreationDate,2022-04-04T20:18:43+02:00*
G04 #@! TF.ProjectId,sdrtrx-bias-t,73647274-7278-42d6-9269-61732d742e6b,rev?*
G04 #@! TF.SameCoordinates,Original*
G04 #@! TF.FileFunction,Copper,L2,Bot*
G04 #@! TF.FilePolarity,Positive*
%FSLAX46Y46*%
G04 Gerber Fmt 4.6, Leading zero omitted, Abs format (unit mm)*
G04 Created by KiCad (PCBNEW 5.1.6+dfsg1-1~bpo9+1) date 2022-04-04 20:18:43*
%MOMM*%
%LPD*%
G01*
G04 APERTURE LIST*
G04 #@! TA.AperFunction,ComponentPad*
%ADD10C,3.500000*%
G04 #@! TD*
G04 #@! TA.AperFunction,ComponentPad*
%ADD11C,2.250000*%
G04 #@! TD*
G04 #@! TA.AperFunction,ComponentPad*
%ADD12O,0.800000X1.300000*%
G04 #@! TD*
G04 #@! TA.AperFunction,Conductor*
%ADD13R,0.950000X0.460000*%
G04 #@! TD*
G04 #@! TA.AperFunction,ViaPad*
%ADD14C,0.970000*%
G04 #@! TD*
G04 #@! TA.AperFunction,SMDPad,CuDef*
%ADD15R,5.080000X2.420000*%
G04 #@! TD*
G04 #@! TA.AperFunction,Conductor*
%ADD16C,0.508000*%
G04 #@! TD*
G04 #@! TA.AperFunction,Conductor*
%ADD17C,0.254000*%
G04 #@! TD*
G04 APERTURE END LIST*
D10*
X91041000Y-72753000D03*
X82441000Y-72753000D03*
X82441000Y-64153000D03*
X91041000Y-64153000D03*
D11*
X86741000Y-68453000D03*
D12*
X99929000Y-64770000D03*
G04 #@! TA.AperFunction,ComponentPad*
G36*
G01*
X98279000Y-65220000D02*
X98279000Y-64320000D01*
G75*
G02*
X98479000Y-64120000I200000J0D01*
G01*
X98879000Y-64120000D01*
G75*
G02*
X99079000Y-64320000I0J-200000D01*
G01*
X99079000Y-65220000D01*
G75*
G02*
X98879000Y-65420000I-200000J0D01*
G01*
X98479000Y-65420000D01*
G75*
G02*
X98279000Y-65220000I0J200000D01*
G01*
G37*
G04 #@! TD.AperFunction*
D13*
X102997000Y-64073000D03*
X102997000Y-72833000D03*
D14*
X102547000Y-64073000D03*
X102547000Y-72833000D03*
D15*
X105987000Y-64073000D03*
X105987000Y-72833000D03*
D16*
X103182000Y-64073000D02*
X101789000Y-64073000D01*
X103182000Y-72833000D02*
X101535000Y-72833000D01*
D17*
G36*
X108340001Y-74340000D02*
G01*
X80660000Y-74340000D01*
X80660000Y-68279655D01*
X84981000Y-68279655D01*
X84981000Y-68626345D01*
X85048636Y-68966373D01*
X85181308Y-69286673D01*
X85373919Y-69574935D01*
X85619065Y-69820081D01*
X85907327Y-70012692D01*
X86227627Y-70145364D01*
X86567655Y-70213000D01*
X86914345Y-70213000D01*
X87254373Y-70145364D01*
X87574673Y-70012692D01*
X87862935Y-69820081D01*
X88108081Y-69574935D01*
X88300692Y-69286673D01*
X88433364Y-68966373D01*
X88501000Y-68626345D01*
X88501000Y-68279655D01*
X88433364Y-67939627D01*
X88300692Y-67619327D01*
X88108081Y-67331065D01*
X87862935Y-67085919D01*
X87574673Y-66893308D01*
X87254373Y-66760636D01*
X86914345Y-66693000D01*
X86567655Y-66693000D01*
X86227627Y-66760636D01*
X85907327Y-66893308D01*
X85619065Y-67085919D01*
X85373919Y-67331065D01*
X85181308Y-67619327D01*
X85048636Y-67939627D01*
X84981000Y-68279655D01*
X80660000Y-68279655D01*
X80660000Y-64320000D01*
X97640928Y-64320000D01*
X97640928Y-65220000D01*
X97657031Y-65383500D01*
X97704722Y-65540716D01*
X97782169Y-65685608D01*
X97886394Y-65812606D01*
X98013392Y-65916831D01*
X98158284Y-65994278D01*
X98315500Y-66041969D01*
X98479000Y-66058072D01*
X98879000Y-66058072D01*
X99042500Y-66041969D01*
X99199716Y-65994278D01*
X99344608Y-65916831D01*
X99471606Y-65812606D01*
X99575831Y-65685608D01*
X99653278Y-65540716D01*
X99700969Y-65383500D01*
X99717072Y-65220000D01*
X99717072Y-64320000D01*
X99700969Y-64156500D01*
X99653278Y-63999284D01*
X99575831Y-63854392D01*
X99471606Y-63727394D01*
X99344608Y-63623169D01*
X99199716Y-63545722D01*
X99042500Y-63498031D01*
X98879000Y-63481928D01*
X98479000Y-63481928D01*
X98315500Y-63498031D01*
X98158284Y-63545722D01*
X98013392Y-63623169D01*
X97886394Y-63727394D01*
X97782169Y-63854392D01*
X97704722Y-63999284D01*
X97657031Y-64156500D01*
X97640928Y-64320000D01*
X80660000Y-64320000D01*
X80660000Y-62660000D01*
X108340000Y-62660000D01*
X108340001Y-74340000D01*
G37*
X108340001Y-74340000D02*
X80660000Y-74340000D01*
X80660000Y-68279655D01*
X84981000Y-68279655D01*
X84981000Y-68626345D01*
X85048636Y-68966373D01*
X85181308Y-69286673D01*
X85373919Y-69574935D01*
X85619065Y-69820081D01*
X85907327Y-70012692D01*
X86227627Y-70145364D01*
X86567655Y-70213000D01*
X86914345Y-70213000D01*
X87254373Y-70145364D01*
X87574673Y-70012692D01*
X87862935Y-69820081D01*
X88108081Y-69574935D01*
X88300692Y-69286673D01*
X88433364Y-68966373D01*
X88501000Y-68626345D01*
X88501000Y-68279655D01*
X88433364Y-67939627D01*
X88300692Y-67619327D01*
X88108081Y-67331065D01*
X87862935Y-67085919D01*
X87574673Y-66893308D01*
X87254373Y-66760636D01*
X86914345Y-66693000D01*
X86567655Y-66693000D01*
X86227627Y-66760636D01*
X85907327Y-66893308D01*
X85619065Y-67085919D01*
X85373919Y-67331065D01*
X85181308Y-67619327D01*
X85048636Y-67939627D01*
X84981000Y-68279655D01*
X80660000Y-68279655D01*
X80660000Y-64320000D01*
X97640928Y-64320000D01*
X97640928Y-65220000D01*
X97657031Y-65383500D01*
X97704722Y-65540716D01*
X97782169Y-65685608D01*
X97886394Y-65812606D01*
X98013392Y-65916831D01*
X98158284Y-65994278D01*
X98315500Y-66041969D01*
X98479000Y-66058072D01*
X98879000Y-66058072D01*
X99042500Y-66041969D01*
X99199716Y-65994278D01*
X99344608Y-65916831D01*
X99471606Y-65812606D01*
X99575831Y-65685608D01*
X99653278Y-65540716D01*
X99700969Y-65383500D01*
X99717072Y-65220000D01*
X99717072Y-64320000D01*
X99700969Y-64156500D01*
X99653278Y-63999284D01*
X99575831Y-63854392D01*
X99471606Y-63727394D01*
X99344608Y-63623169D01*
X99199716Y-63545722D01*
X99042500Y-63498031D01*
X98879000Y-63481928D01*
X98479000Y-63481928D01*
X98315500Y-63498031D01*
X98158284Y-63545722D01*
X98013392Y-63623169D01*
X97886394Y-63727394D01*
X97782169Y-63854392D01*
X97704722Y-63999284D01*
X97657031Y-64156500D01*
X97640928Y-64320000D01*
X80660000Y-64320000D01*
X80660000Y-62660000D01*
X108340000Y-62660000D01*
X108340001Y-74340000D01*
M02*
