G04 #@! TF.GenerationSoftware,KiCad,Pcbnew,5.1.6+dfsg1-1~bpo9+1*
G04 #@! TF.CreationDate,2022-04-04T20:18:43+02:00*
G04 #@! TF.ProjectId,sdrtrx-bias-t,73647274-7278-42d6-9269-61732d742e6b,rev?*
G04 #@! TF.SameCoordinates,Original*
G04 #@! TF.FileFunction,Paste,Top*
G04 #@! TF.FilePolarity,Positive*
%FSLAX46Y46*%
G04 Gerber Fmt 4.6, Leading zero omitted, Abs format (unit mm)*
G04 Created by KiCad (PCBNEW 5.1.6+dfsg1-1~bpo9+1) date 2022-04-04 20:18:43*
%MOMM*%
%LPD*%
G01*
G04 APERTURE LIST*
%ADD10R,5.080000X2.420000*%
%ADD11R,5.080000X2.290000*%
G04 APERTURE END LIST*
G36*
G01*
X95219000Y-63629250D02*
X95219000Y-63116750D01*
G75*
G02*
X95437750Y-62898000I218750J0D01*
G01*
X95875250Y-62898000D01*
G75*
G02*
X96094000Y-63116750I0J-218750D01*
G01*
X96094000Y-63629250D01*
G75*
G02*
X95875250Y-63848000I-218750J0D01*
G01*
X95437750Y-63848000D01*
G75*
G02*
X95219000Y-63629250I0J218750D01*
G01*
G37*
G36*
G01*
X93644000Y-63629250D02*
X93644000Y-63116750D01*
G75*
G02*
X93862750Y-62898000I218750J0D01*
G01*
X94300250Y-62898000D01*
G75*
G02*
X94519000Y-63116750I0J-218750D01*
G01*
X94519000Y-63629250D01*
G75*
G02*
X94300250Y-63848000I-218750J0D01*
G01*
X93862750Y-63848000D01*
G75*
G02*
X93644000Y-63629250I0J218750D01*
G01*
G37*
G36*
G01*
X100045000Y-68709250D02*
X100045000Y-68196750D01*
G75*
G02*
X100263750Y-67978000I218750J0D01*
G01*
X100701250Y-67978000D01*
G75*
G02*
X100920000Y-68196750I0J-218750D01*
G01*
X100920000Y-68709250D01*
G75*
G02*
X100701250Y-68928000I-218750J0D01*
G01*
X100263750Y-68928000D01*
G75*
G02*
X100045000Y-68709250I0J218750D01*
G01*
G37*
G36*
G01*
X98470000Y-68709250D02*
X98470000Y-68196750D01*
G75*
G02*
X98688750Y-67978000I218750J0D01*
G01*
X99126250Y-67978000D01*
G75*
G02*
X99345000Y-68196750I0J-218750D01*
G01*
X99345000Y-68709250D01*
G75*
G02*
X99126250Y-68928000I-218750J0D01*
G01*
X98688750Y-68928000D01*
G75*
G02*
X98470000Y-68709250I0J218750D01*
G01*
G37*
G36*
G01*
X100200750Y-71216000D02*
X100713250Y-71216000D01*
G75*
G02*
X100932000Y-71434750I0J-218750D01*
G01*
X100932000Y-71872250D01*
G75*
G02*
X100713250Y-72091000I-218750J0D01*
G01*
X100200750Y-72091000D01*
G75*
G02*
X99982000Y-71872250I0J218750D01*
G01*
X99982000Y-71434750D01*
G75*
G02*
X100200750Y-71216000I218750J0D01*
G01*
G37*
G36*
G01*
X100200750Y-69641000D02*
X100713250Y-69641000D01*
G75*
G02*
X100932000Y-69859750I0J-218750D01*
G01*
X100932000Y-70297250D01*
G75*
G02*
X100713250Y-70516000I-218750J0D01*
G01*
X100200750Y-70516000D01*
G75*
G02*
X99982000Y-70297250I0J218750D01*
G01*
X99982000Y-69859750D01*
G75*
G02*
X100200750Y-69641000I218750J0D01*
G01*
G37*
G36*
G01*
X94109250Y-66680500D02*
X93596750Y-66680500D01*
G75*
G02*
X93378000Y-66461750I0J218750D01*
G01*
X93378000Y-66024250D01*
G75*
G02*
X93596750Y-65805500I218750J0D01*
G01*
X94109250Y-65805500D01*
G75*
G02*
X94328000Y-66024250I0J-218750D01*
G01*
X94328000Y-66461750D01*
G75*
G02*
X94109250Y-66680500I-218750J0D01*
G01*
G37*
G36*
G01*
X94109250Y-68255500D02*
X93596750Y-68255500D01*
G75*
G02*
X93378000Y-68036750I0J218750D01*
G01*
X93378000Y-67599250D01*
G75*
G02*
X93596750Y-67380500I218750J0D01*
G01*
X94109250Y-67380500D01*
G75*
G02*
X94328000Y-67599250I0J-218750D01*
G01*
X94328000Y-68036750D01*
G75*
G02*
X94109250Y-68255500I-218750J0D01*
G01*
G37*
D10*
X105987000Y-64073000D03*
X105987000Y-72833000D03*
D11*
X105987000Y-68453000D03*
G36*
G01*
X96743000Y-68709250D02*
X96743000Y-68196750D01*
G75*
G02*
X96961750Y-67978000I218750J0D01*
G01*
X97399250Y-67978000D01*
G75*
G02*
X97618000Y-68196750I0J-218750D01*
G01*
X97618000Y-68709250D01*
G75*
G02*
X97399250Y-68928000I-218750J0D01*
G01*
X96961750Y-68928000D01*
G75*
G02*
X96743000Y-68709250I0J218750D01*
G01*
G37*
G36*
G01*
X95168000Y-68709250D02*
X95168000Y-68196750D01*
G75*
G02*
X95386750Y-67978000I218750J0D01*
G01*
X95824250Y-67978000D01*
G75*
G02*
X96043000Y-68196750I0J-218750D01*
G01*
X96043000Y-68709250D01*
G75*
G02*
X95824250Y-68928000I-218750J0D01*
G01*
X95386750Y-68928000D01*
G75*
G02*
X95168000Y-68709250I0J218750D01*
G01*
G37*
M02*
