G04 #@! TF.GenerationSoftware,KiCad,Pcbnew,5.1.6+dfsg1-1~bpo9+1*
G04 #@! TF.CreationDate,2022-04-04T20:18:43+02:00*
G04 #@! TF.ProjectId,sdrtrx-bias-t,73647274-7278-42d6-9269-61732d742e6b,rev?*
G04 #@! TF.SameCoordinates,Original*
G04 #@! TF.FileFunction,Soldermask,Top*
G04 #@! TF.FilePolarity,Negative*
%FSLAX46Y46*%
G04 Gerber Fmt 4.6, Leading zero omitted, Abs format (unit mm)*
G04 Created by KiCad (PCBNEW 5.1.6+dfsg1-1~bpo9+1) date 2022-04-04 20:18:43*
%MOMM*%
%LPD*%
G01*
G04 APERTURE LIST*
%ADD10C,3.600000*%
%ADD11C,2.350000*%
%ADD12O,0.900000X1.400000*%
%ADD13R,5.180000X2.520000*%
%ADD14R,5.180000X2.390000*%
G04 APERTURE END LIST*
G36*
G01*
X95169000Y-63654250D02*
X95169000Y-63091750D01*
G75*
G02*
X95412750Y-62848000I243750J0D01*
G01*
X95900250Y-62848000D01*
G75*
G02*
X96144000Y-63091750I0J-243750D01*
G01*
X96144000Y-63654250D01*
G75*
G02*
X95900250Y-63898000I-243750J0D01*
G01*
X95412750Y-63898000D01*
G75*
G02*
X95169000Y-63654250I0J243750D01*
G01*
G37*
G36*
G01*
X93594000Y-63654250D02*
X93594000Y-63091750D01*
G75*
G02*
X93837750Y-62848000I243750J0D01*
G01*
X94325250Y-62848000D01*
G75*
G02*
X94569000Y-63091750I0J-243750D01*
G01*
X94569000Y-63654250D01*
G75*
G02*
X94325250Y-63898000I-243750J0D01*
G01*
X93837750Y-63898000D01*
G75*
G02*
X93594000Y-63654250I0J243750D01*
G01*
G37*
G36*
G01*
X99995000Y-68734250D02*
X99995000Y-68171750D01*
G75*
G02*
X100238750Y-67928000I243750J0D01*
G01*
X100726250Y-67928000D01*
G75*
G02*
X100970000Y-68171750I0J-243750D01*
G01*
X100970000Y-68734250D01*
G75*
G02*
X100726250Y-68978000I-243750J0D01*
G01*
X100238750Y-68978000D01*
G75*
G02*
X99995000Y-68734250I0J243750D01*
G01*
G37*
G36*
G01*
X98420000Y-68734250D02*
X98420000Y-68171750D01*
G75*
G02*
X98663750Y-67928000I243750J0D01*
G01*
X99151250Y-67928000D01*
G75*
G02*
X99395000Y-68171750I0J-243750D01*
G01*
X99395000Y-68734250D01*
G75*
G02*
X99151250Y-68978000I-243750J0D01*
G01*
X98663750Y-68978000D01*
G75*
G02*
X98420000Y-68734250I0J243750D01*
G01*
G37*
G36*
G01*
X100175750Y-71166000D02*
X100738250Y-71166000D01*
G75*
G02*
X100982000Y-71409750I0J-243750D01*
G01*
X100982000Y-71897250D01*
G75*
G02*
X100738250Y-72141000I-243750J0D01*
G01*
X100175750Y-72141000D01*
G75*
G02*
X99932000Y-71897250I0J243750D01*
G01*
X99932000Y-71409750D01*
G75*
G02*
X100175750Y-71166000I243750J0D01*
G01*
G37*
G36*
G01*
X100175750Y-69591000D02*
X100738250Y-69591000D01*
G75*
G02*
X100982000Y-69834750I0J-243750D01*
G01*
X100982000Y-70322250D01*
G75*
G02*
X100738250Y-70566000I-243750J0D01*
G01*
X100175750Y-70566000D01*
G75*
G02*
X99932000Y-70322250I0J243750D01*
G01*
X99932000Y-69834750D01*
G75*
G02*
X100175750Y-69591000I243750J0D01*
G01*
G37*
G36*
G01*
X94134250Y-66730500D02*
X93571750Y-66730500D01*
G75*
G02*
X93328000Y-66486750I0J243750D01*
G01*
X93328000Y-65999250D01*
G75*
G02*
X93571750Y-65755500I243750J0D01*
G01*
X94134250Y-65755500D01*
G75*
G02*
X94378000Y-65999250I0J-243750D01*
G01*
X94378000Y-66486750D01*
G75*
G02*
X94134250Y-66730500I-243750J0D01*
G01*
G37*
G36*
G01*
X94134250Y-68305500D02*
X93571750Y-68305500D01*
G75*
G02*
X93328000Y-68061750I0J243750D01*
G01*
X93328000Y-67574250D01*
G75*
G02*
X93571750Y-67330500I243750J0D01*
G01*
X94134250Y-67330500D01*
G75*
G02*
X94378000Y-67574250I0J-243750D01*
G01*
X94378000Y-68061750D01*
G75*
G02*
X94134250Y-68305500I-243750J0D01*
G01*
G37*
D10*
X91041000Y-72753000D03*
X82441000Y-72753000D03*
X82441000Y-64153000D03*
X91041000Y-64153000D03*
D11*
X86741000Y-68453000D03*
D12*
X99929000Y-64770000D03*
G36*
G01*
X98229000Y-65245000D02*
X98229000Y-64295000D01*
G75*
G02*
X98454000Y-64070000I225000J0D01*
G01*
X98904000Y-64070000D01*
G75*
G02*
X99129000Y-64295000I0J-225000D01*
G01*
X99129000Y-65245000D01*
G75*
G02*
X98904000Y-65470000I-225000J0D01*
G01*
X98454000Y-65470000D01*
G75*
G02*
X98229000Y-65245000I0J225000D01*
G01*
G37*
D13*
X105987000Y-64073000D03*
X105987000Y-72833000D03*
D14*
X105987000Y-68453000D03*
G36*
G01*
X96693000Y-68734250D02*
X96693000Y-68171750D01*
G75*
G02*
X96936750Y-67928000I243750J0D01*
G01*
X97424250Y-67928000D01*
G75*
G02*
X97668000Y-68171750I0J-243750D01*
G01*
X97668000Y-68734250D01*
G75*
G02*
X97424250Y-68978000I-243750J0D01*
G01*
X96936750Y-68978000D01*
G75*
G02*
X96693000Y-68734250I0J243750D01*
G01*
G37*
G36*
G01*
X95118000Y-68734250D02*
X95118000Y-68171750D01*
G75*
G02*
X95361750Y-67928000I243750J0D01*
G01*
X95849250Y-67928000D01*
G75*
G02*
X96093000Y-68171750I0J-243750D01*
G01*
X96093000Y-68734250D01*
G75*
G02*
X95849250Y-68978000I-243750J0D01*
G01*
X95361750Y-68978000D01*
G75*
G02*
X95118000Y-68734250I0J243750D01*
G01*
G37*
M02*
