G04 #@! TF.GenerationSoftware,KiCad,Pcbnew,5.1.6+dfsg1-1~bpo9+1*
G04 #@! TF.CreationDate,2022-05-29T17:42:38+02:00*
G04 #@! TF.ProjectId,sdrtrx-meanwell,73647274-7278-42d6-9d65-616e77656c6c,1*
G04 #@! TF.SameCoordinates,Original*
G04 #@! TF.FileFunction,Soldermask,Top*
G04 #@! TF.FilePolarity,Negative*
%FSLAX46Y46*%
G04 Gerber Fmt 4.6, Leading zero omitted, Abs format (unit mm)*
G04 Created by KiCad (PCBNEW 5.1.6+dfsg1-1~bpo9+1) date 2022-05-29 17:42:38*
%MOMM*%
%LPD*%
G01*
G04 APERTURE LIST*
%ADD10C,2.100000*%
%ADD11O,2.100000X2.100000*%
%ADD12O,2.500000X2.500000*%
%ADD13C,2.500000*%
%ADD14C,5.180000*%
%ADD15O,2.600000X6.100001*%
%ADD16R,2.600000X6.100000*%
%ADD17O,2.600000X6.100000*%
%ADD18C,6.500000*%
G04 APERTURE END LIST*
D10*
X5200000Y39600000D03*
X5200000Y29600000D03*
X47200000Y39600000D03*
X47200000Y29600000D03*
X80200000Y39200000D03*
X80200000Y29200000D03*
X38000000Y29600000D03*
X38000000Y39600000D03*
G36*
G01*
X19625000Y25921738D02*
X19625000Y26878262D01*
G75*
G02*
X19896738Y27150000I271738J0D01*
G01*
X20603262Y27150000D01*
G75*
G02*
X20875000Y26878262I0J-271738D01*
G01*
X20875000Y25921738D01*
G75*
G02*
X20603262Y25650000I-271738J0D01*
G01*
X19896738Y25650000D01*
G75*
G02*
X19625000Y25921738I0J271738D01*
G01*
G37*
G36*
G01*
X17575000Y25921738D02*
X17575000Y26878262D01*
G75*
G02*
X17846738Y27150000I271738J0D01*
G01*
X18553262Y27150000D01*
G75*
G02*
X18825000Y26878262I0J-271738D01*
G01*
X18825000Y25921738D01*
G75*
G02*
X18553262Y25650000I-271738J0D01*
G01*
X17846738Y25650000D01*
G75*
G02*
X17575000Y25921738I0J271738D01*
G01*
G37*
G36*
G01*
X61800000Y26121738D02*
X61800000Y27078262D01*
G75*
G02*
X62071738Y27350000I271738J0D01*
G01*
X62778262Y27350000D01*
G75*
G02*
X63050000Y27078262I0J-271738D01*
G01*
X63050000Y26121738D01*
G75*
G02*
X62778262Y25850000I-271738J0D01*
G01*
X62071738Y25850000D01*
G75*
G02*
X61800000Y26121738I0J271738D01*
G01*
G37*
G36*
G01*
X59750000Y26121738D02*
X59750000Y27078262D01*
G75*
G02*
X60021738Y27350000I271738J0D01*
G01*
X60728262Y27350000D01*
G75*
G02*
X61000000Y27078262I0J-271738D01*
G01*
X61000000Y26121738D01*
G75*
G02*
X60728262Y25850000I-271738J0D01*
G01*
X60021738Y25850000D01*
G75*
G02*
X59750000Y26121738I0J271738D01*
G01*
G37*
G36*
G01*
X13400000Y26878262D02*
X13400000Y25921738D01*
G75*
G02*
X13128262Y25650000I-271738J0D01*
G01*
X12421738Y25650000D01*
G75*
G02*
X12150000Y25921738I0J271738D01*
G01*
X12150000Y26878262D01*
G75*
G02*
X12421738Y27150000I271738J0D01*
G01*
X13128262Y27150000D01*
G75*
G02*
X13400000Y26878262I0J-271738D01*
G01*
G37*
G36*
G01*
X15450000Y26878262D02*
X15450000Y25921738D01*
G75*
G02*
X15178262Y25650000I-271738J0D01*
G01*
X14471738Y25650000D01*
G75*
G02*
X14200000Y25921738I0J271738D01*
G01*
X14200000Y26878262D01*
G75*
G02*
X14471738Y27150000I271738J0D01*
G01*
X15178262Y27150000D01*
G75*
G02*
X15450000Y26878262I0J-271738D01*
G01*
G37*
G36*
G01*
X55175000Y27078262D02*
X55175000Y26121738D01*
G75*
G02*
X54903262Y25850000I-271738J0D01*
G01*
X54196738Y25850000D01*
G75*
G02*
X53925000Y26121738I0J271738D01*
G01*
X53925000Y27078262D01*
G75*
G02*
X54196738Y27350000I271738J0D01*
G01*
X54903262Y27350000D01*
G75*
G02*
X55175000Y27078262I0J-271738D01*
G01*
G37*
G36*
G01*
X57225000Y27078262D02*
X57225000Y26121738D01*
G75*
G02*
X56953262Y25850000I-271738J0D01*
G01*
X56246738Y25850000D01*
G75*
G02*
X55975000Y26121738I0J271738D01*
G01*
X55975000Y27078262D01*
G75*
G02*
X56246738Y27350000I271738J0D01*
G01*
X56953262Y27350000D01*
G75*
G02*
X57225000Y27078262I0J-271738D01*
G01*
G37*
D11*
X19850000Y77150000D03*
D10*
X10650000Y73850000D03*
D11*
X62461300Y77280001D03*
D10*
X53261300Y73980001D03*
D12*
X19880000Y73800000D03*
D13*
X14800000Y73800000D03*
D12*
X62348000Y73955600D03*
D13*
X57268000Y73955600D03*
G36*
G01*
X65292544Y68275000D02*
X67507456Y68275000D01*
G75*
G02*
X67775000Y68007456I0J-267544D01*
G01*
X67775000Y67017544D01*
G75*
G02*
X67507456Y66750000I-267544J0D01*
G01*
X65292544Y66750000D01*
G75*
G02*
X65025000Y67017544I0J267544D01*
G01*
X65025000Y68007456D01*
G75*
G02*
X65292544Y68275000I267544J0D01*
G01*
G37*
G36*
G01*
X65292544Y71250000D02*
X67507456Y71250000D01*
G75*
G02*
X67775000Y70982456I0J-267544D01*
G01*
X67775000Y69992544D01*
G75*
G02*
X67507456Y69725000I-267544J0D01*
G01*
X65292544Y69725000D01*
G75*
G02*
X65025000Y69992544I0J267544D01*
G01*
X65025000Y70982456D01*
G75*
G02*
X65292544Y71250000I267544J0D01*
G01*
G37*
G36*
G01*
X20892544Y67475000D02*
X23107456Y67475000D01*
G75*
G02*
X23375000Y67207456I0J-267544D01*
G01*
X23375000Y66217544D01*
G75*
G02*
X23107456Y65950000I-267544J0D01*
G01*
X20892544Y65950000D01*
G75*
G02*
X20625000Y66217544I0J267544D01*
G01*
X20625000Y67207456D01*
G75*
G02*
X20892544Y67475000I267544J0D01*
G01*
G37*
G36*
G01*
X20892544Y70450000D02*
X23107456Y70450000D01*
G75*
G02*
X23375000Y70182456I0J-267544D01*
G01*
X23375000Y69192544D01*
G75*
G02*
X23107456Y68925000I-267544J0D01*
G01*
X20892544Y68925000D01*
G75*
G02*
X20625000Y69192544I0J267544D01*
G01*
X20625000Y70182456D01*
G75*
G02*
X20892544Y70450000I267544J0D01*
G01*
G37*
G36*
G01*
X45292544Y69675000D02*
X47507456Y69675000D01*
G75*
G02*
X47775000Y69407456I0J-267544D01*
G01*
X47775000Y68417544D01*
G75*
G02*
X47507456Y68150000I-267544J0D01*
G01*
X45292544Y68150000D01*
G75*
G02*
X45025000Y68417544I0J267544D01*
G01*
X45025000Y69407456D01*
G75*
G02*
X45292544Y69675000I267544J0D01*
G01*
G37*
G36*
G01*
X45292544Y72650000D02*
X47507456Y72650000D01*
G75*
G02*
X47775000Y72382456I0J-267544D01*
G01*
X47775000Y71392544D01*
G75*
G02*
X47507456Y71125000I-267544J0D01*
G01*
X45292544Y71125000D01*
G75*
G02*
X45025000Y71392544I0J267544D01*
G01*
X45025000Y72382456D01*
G75*
G02*
X45292544Y72650000I267544J0D01*
G01*
G37*
G36*
G01*
X2892544Y69275000D02*
X5107456Y69275000D01*
G75*
G02*
X5375000Y69007456I0J-267544D01*
G01*
X5375000Y68017544D01*
G75*
G02*
X5107456Y67750000I-267544J0D01*
G01*
X2892544Y67750000D01*
G75*
G02*
X2625000Y68017544I0J267544D01*
G01*
X2625000Y69007456D01*
G75*
G02*
X2892544Y69275000I267544J0D01*
G01*
G37*
G36*
G01*
X2892544Y72250000D02*
X5107456Y72250000D01*
G75*
G02*
X5375000Y71982456I0J-267544D01*
G01*
X5375000Y70992544D01*
G75*
G02*
X5107456Y70725000I-267544J0D01*
G01*
X2892544Y70725000D01*
G75*
G02*
X2625000Y70992544I0J267544D01*
G01*
X2625000Y71982456D01*
G75*
G02*
X2892544Y72250000I267544J0D01*
G01*
G37*
G36*
G01*
X55720000Y34538095D02*
X55720000Y31961905D01*
G75*
G02*
X55458095Y31700000I-261905J0D01*
G01*
X53781905Y31700000D01*
G75*
G02*
X53520000Y31961905I0J261905D01*
G01*
X53520000Y34538095D01*
G75*
G02*
X53781905Y34800000I261905J0D01*
G01*
X55458095Y34800000D01*
G75*
G02*
X55720000Y34538095I0J-261905D01*
G01*
G37*
G36*
G01*
X63320000Y34538095D02*
X63320000Y31961905D01*
G75*
G02*
X63058095Y31700000I-261905J0D01*
G01*
X61381905Y31700000D01*
G75*
G02*
X61120000Y31961905I0J261905D01*
G01*
X61120000Y34538095D01*
G75*
G02*
X61381905Y34800000I261905J0D01*
G01*
X63058095Y34800000D01*
G75*
G02*
X63320000Y34538095I0J-261905D01*
G01*
G37*
G36*
G01*
X57620000Y30975000D02*
X57620000Y30025000D01*
G75*
G02*
X57395000Y29800000I-225000J0D01*
G01*
X56945000Y29800000D01*
G75*
G02*
X56720000Y30025000I0J225000D01*
G01*
X56720000Y30975000D01*
G75*
G02*
X56945000Y31200000I225000J0D01*
G01*
X57395000Y31200000D01*
G75*
G02*
X57620000Y30975000I0J-225000D01*
G01*
G37*
G36*
G01*
X58870000Y30975000D02*
X58870000Y30025000D01*
G75*
G02*
X58645000Y29800000I-225000J0D01*
G01*
X58195000Y29800000D01*
G75*
G02*
X57970000Y30025000I0J225000D01*
G01*
X57970000Y30975000D01*
G75*
G02*
X58195000Y31200000I225000J0D01*
G01*
X58645000Y31200000D01*
G75*
G02*
X58870000Y30975000I0J-225000D01*
G01*
G37*
G36*
G01*
X60120000Y30975000D02*
X60120000Y30025000D01*
G75*
G02*
X59895000Y29800000I-225000J0D01*
G01*
X59445000Y29800000D01*
G75*
G02*
X59220000Y30025000I0J225000D01*
G01*
X59220000Y30975000D01*
G75*
G02*
X59445000Y31200000I225000J0D01*
G01*
X59895000Y31200000D01*
G75*
G02*
X60120000Y30975000I0J-225000D01*
G01*
G37*
G36*
G01*
X28556000Y23245250D02*
X28556000Y22282750D01*
G75*
G02*
X28287250Y22014000I-268750J0D01*
G01*
X27749750Y22014000D01*
G75*
G02*
X27481000Y22282750I0J268750D01*
G01*
X27481000Y23245250D01*
G75*
G02*
X27749750Y23514000I268750J0D01*
G01*
X28287250Y23514000D01*
G75*
G02*
X28556000Y23245250I0J-268750D01*
G01*
G37*
G36*
G01*
X30431000Y23245250D02*
X30431000Y22282750D01*
G75*
G02*
X30162250Y22014000I-268750J0D01*
G01*
X29624750Y22014000D01*
G75*
G02*
X29356000Y22282750I0J268750D01*
G01*
X29356000Y23245250D01*
G75*
G02*
X29624750Y23514000I268750J0D01*
G01*
X30162250Y23514000D01*
G75*
G02*
X30431000Y23245250I0J-268750D01*
G01*
G37*
G36*
G01*
X70847000Y23664250D02*
X70847000Y22701750D01*
G75*
G02*
X70578250Y22433000I-268750J0D01*
G01*
X70040750Y22433000D01*
G75*
G02*
X69772000Y22701750I0J268750D01*
G01*
X69772000Y23664250D01*
G75*
G02*
X70040750Y23933000I268750J0D01*
G01*
X70578250Y23933000D01*
G75*
G02*
X70847000Y23664250I0J-268750D01*
G01*
G37*
G36*
G01*
X72722000Y23664250D02*
X72722000Y22701750D01*
G75*
G02*
X72453250Y22433000I-268750J0D01*
G01*
X71915750Y22433000D01*
G75*
G02*
X71647000Y22701750I0J268750D01*
G01*
X71647000Y23664250D01*
G75*
G02*
X71915750Y23933000I268750J0D01*
G01*
X72453250Y23933000D01*
G75*
G02*
X72722000Y23664250I0J-268750D01*
G01*
G37*
G36*
G01*
X25419000Y22282750D02*
X25419000Y23245250D01*
G75*
G02*
X25687750Y23514000I268750J0D01*
G01*
X26225250Y23514000D01*
G75*
G02*
X26494000Y23245250I0J-268750D01*
G01*
X26494000Y22282750D01*
G75*
G02*
X26225250Y22014000I-268750J0D01*
G01*
X25687750Y22014000D01*
G75*
G02*
X25419000Y22282750I0J268750D01*
G01*
G37*
G36*
G01*
X23544000Y22282750D02*
X23544000Y23245250D01*
G75*
G02*
X23812750Y23514000I268750J0D01*
G01*
X24350250Y23514000D01*
G75*
G02*
X24619000Y23245250I0J-268750D01*
G01*
X24619000Y22282750D01*
G75*
G02*
X24350250Y22014000I-268750J0D01*
G01*
X23812750Y22014000D01*
G75*
G02*
X23544000Y22282750I0J268750D01*
G01*
G37*
G36*
G01*
X67964000Y22701750D02*
X67964000Y23664250D01*
G75*
G02*
X68232750Y23933000I268750J0D01*
G01*
X68770250Y23933000D01*
G75*
G02*
X69039000Y23664250I0J-268750D01*
G01*
X69039000Y22701750D01*
G75*
G02*
X68770250Y22433000I-268750J0D01*
G01*
X68232750Y22433000D01*
G75*
G02*
X67964000Y22701750I0J268750D01*
G01*
G37*
G36*
G01*
X66089000Y22701750D02*
X66089000Y23664250D01*
G75*
G02*
X66357750Y23933000I268750J0D01*
G01*
X66895250Y23933000D01*
G75*
G02*
X67164000Y23664250I0J-268750D01*
G01*
X67164000Y22701750D01*
G75*
G02*
X66895250Y22433000I-268750J0D01*
G01*
X66357750Y22433000D01*
G75*
G02*
X66089000Y22701750I0J268750D01*
G01*
G37*
G36*
G01*
X44975000Y62634090D02*
X44975000Y64965910D01*
G75*
G02*
X45234090Y65225000I259090J0D01*
G01*
X47565910Y65225000D01*
G75*
G02*
X47825000Y64965910I0J-259090D01*
G01*
X47825000Y62634090D01*
G75*
G02*
X47565910Y62375000I-259090J0D01*
G01*
X45234090Y62375000D01*
G75*
G02*
X44975000Y62634090I0J259090D01*
G01*
G37*
G36*
G01*
X44930000Y75515090D02*
X44930000Y77846910D01*
G75*
G02*
X45189090Y78106000I259090J0D01*
G01*
X47520910Y78106000D01*
G75*
G02*
X47780000Y77846910I0J-259090D01*
G01*
X47780000Y75515090D01*
G75*
G02*
X47520910Y75256000I-259090J0D01*
G01*
X45189090Y75256000D01*
G75*
G02*
X44930000Y75515090I0J259090D01*
G01*
G37*
D14*
X80264000Y14351000D03*
X47244000Y54991000D03*
D15*
X53594000Y11811000D03*
X73914000Y11811000D03*
D16*
X71374000Y57531000D03*
D17*
X66294000Y57531000D03*
D15*
X56134000Y57531000D03*
X63754000Y11811000D03*
D14*
X38100000Y14351000D03*
X5080000Y54991000D03*
D15*
X11430000Y11811000D03*
X31750000Y11811000D03*
D16*
X29210000Y57531000D03*
D17*
X24130000Y57531000D03*
D15*
X13970000Y57531000D03*
X21590000Y11811000D03*
G36*
G01*
X13810000Y34855595D02*
X13810000Y32279405D01*
G75*
G02*
X13548095Y32017500I-261905J0D01*
G01*
X11871905Y32017500D01*
G75*
G02*
X11610000Y32279405I0J261905D01*
G01*
X11610000Y34855595D01*
G75*
G02*
X11871905Y35117500I261905J0D01*
G01*
X13548095Y35117500D01*
G75*
G02*
X13810000Y34855595I0J-261905D01*
G01*
G37*
G36*
G01*
X21410000Y34855595D02*
X21410000Y32279405D01*
G75*
G02*
X21148095Y32017500I-261905J0D01*
G01*
X19471905Y32017500D01*
G75*
G02*
X19210000Y32279405I0J261905D01*
G01*
X19210000Y34855595D01*
G75*
G02*
X19471905Y35117500I261905J0D01*
G01*
X21148095Y35117500D01*
G75*
G02*
X21410000Y34855595I0J-261905D01*
G01*
G37*
G36*
G01*
X15710000Y31292500D02*
X15710000Y30342500D01*
G75*
G02*
X15485000Y30117500I-225000J0D01*
G01*
X15035000Y30117500D01*
G75*
G02*
X14810000Y30342500I0J225000D01*
G01*
X14810000Y31292500D01*
G75*
G02*
X15035000Y31517500I225000J0D01*
G01*
X15485000Y31517500D01*
G75*
G02*
X15710000Y31292500I0J-225000D01*
G01*
G37*
G36*
G01*
X16960000Y31292500D02*
X16960000Y30342500D01*
G75*
G02*
X16735000Y30117500I-225000J0D01*
G01*
X16285000Y30117500D01*
G75*
G02*
X16060000Y30342500I0J225000D01*
G01*
X16060000Y31292500D01*
G75*
G02*
X16285000Y31517500I225000J0D01*
G01*
X16735000Y31517500D01*
G75*
G02*
X16960000Y31292500I0J-225000D01*
G01*
G37*
G36*
G01*
X18210000Y31292500D02*
X18210000Y30342500D01*
G75*
G02*
X17985000Y30117500I-225000J0D01*
G01*
X17535000Y30117500D01*
G75*
G02*
X17310000Y30342500I0J225000D01*
G01*
X17310000Y31292500D01*
G75*
G02*
X17535000Y31517500I225000J0D01*
G01*
X17985000Y31517500D01*
G75*
G02*
X18210000Y31292500I0J-225000D01*
G01*
G37*
G36*
G01*
X20424090Y5870000D02*
X22755910Y5870000D01*
G75*
G02*
X23015000Y5610910I0J-259090D01*
G01*
X23015000Y3279090D01*
G75*
G02*
X22755910Y3020000I-259090J0D01*
G01*
X20424090Y3020000D01*
G75*
G02*
X20165000Y3279090I0J259090D01*
G01*
X20165000Y5610910D01*
G75*
G02*
X20424090Y5870000I259090J0D01*
G01*
G37*
G36*
G01*
X30634090Y5870000D02*
X32965910Y5870000D01*
G75*
G02*
X33225000Y5610910I0J-259090D01*
G01*
X33225000Y3279090D01*
G75*
G02*
X32965910Y3020000I-259090J0D01*
G01*
X30634090Y3020000D01*
G75*
G02*
X30375000Y3279090I0J259090D01*
G01*
X30375000Y5610910D01*
G75*
G02*
X30634090Y5870000I259090J0D01*
G01*
G37*
G36*
G01*
X62588090Y5743000D02*
X64919910Y5743000D01*
G75*
G02*
X65179000Y5483910I0J-259090D01*
G01*
X65179000Y3152090D01*
G75*
G02*
X64919910Y2893000I-259090J0D01*
G01*
X62588090Y2893000D01*
G75*
G02*
X62329000Y3152090I0J259090D01*
G01*
X62329000Y5483910D01*
G75*
G02*
X62588090Y5743000I259090J0D01*
G01*
G37*
G36*
G01*
X71224090Y5743000D02*
X73555910Y5743000D01*
G75*
G02*
X73815000Y5483910I0J-259090D01*
G01*
X73815000Y3152090D01*
G75*
G02*
X73555910Y2893000I-259090J0D01*
G01*
X71224090Y2893000D01*
G75*
G02*
X70965000Y3152090I0J259090D01*
G01*
X70965000Y5483910D01*
G75*
G02*
X71224090Y5743000I259090J0D01*
G01*
G37*
G36*
G01*
X5425000Y64965910D02*
X5425000Y62634090D01*
G75*
G02*
X5165910Y62375000I-259090J0D01*
G01*
X2834090Y62375000D01*
G75*
G02*
X2575000Y62634090I0J259090D01*
G01*
X2575000Y64965910D01*
G75*
G02*
X2834090Y65225000I259090J0D01*
G01*
X5165910Y65225000D01*
G75*
G02*
X5425000Y64965910I0J-259090D01*
G01*
G37*
G36*
G01*
X5362000Y77765910D02*
X5362000Y75434090D01*
G75*
G02*
X5102910Y75175000I-259090J0D01*
G01*
X2771090Y75175000D01*
G75*
G02*
X2512000Y75434090I0J259090D01*
G01*
X2512000Y77765910D01*
G75*
G02*
X2771090Y78025000I259090J0D01*
G01*
X5102910Y78025000D01*
G75*
G02*
X5362000Y77765910I0J-259090D01*
G01*
G37*
D18*
X80000000Y75010000D03*
X80000000Y5010000D03*
X30000000Y75010000D03*
X5000000Y5010000D03*
M02*
