G04 #@! TF.GenerationSoftware,KiCad,Pcbnew,5.1.6+dfsg1-1~bpo9+1*
G04 #@! TF.CreationDate,2022-05-29T17:42:38+02:00*
G04 #@! TF.ProjectId,sdrtrx-meanwell,73647274-7278-42d6-9d65-616e77656c6c,1*
G04 #@! TF.SameCoordinates,Original*
G04 #@! TF.FileFunction,Copper,L1,Top*
G04 #@! TF.FilePolarity,Positive*
%FSLAX46Y46*%
G04 Gerber Fmt 4.6, Leading zero omitted, Abs format (unit mm)*
G04 Created by KiCad (PCBNEW 5.1.6+dfsg1-1~bpo9+1) date 2022-05-29 17:42:38*
%MOMM*%
%LPD*%
G01*
G04 APERTURE LIST*
G04 #@! TA.AperFunction,ComponentPad*
%ADD10C,2.000000*%
G04 #@! TD*
G04 #@! TA.AperFunction,ComponentPad*
%ADD11O,2.000000X2.000000*%
G04 #@! TD*
G04 #@! TA.AperFunction,ComponentPad*
%ADD12O,2.400000X2.400000*%
G04 #@! TD*
G04 #@! TA.AperFunction,ComponentPad*
%ADD13C,2.400000*%
G04 #@! TD*
G04 #@! TA.AperFunction,ComponentPad*
%ADD14C,5.080000*%
G04 #@! TD*
G04 #@! TA.AperFunction,ComponentPad*
%ADD15O,2.500000X6.000001*%
G04 #@! TD*
G04 #@! TA.AperFunction,ComponentPad*
%ADD16R,2.500000X6.000000*%
G04 #@! TD*
G04 #@! TA.AperFunction,ComponentPad*
%ADD17O,2.500000X6.000000*%
G04 #@! TD*
G04 #@! TA.AperFunction,ComponentPad*
%ADD18C,6.400000*%
G04 #@! TD*
G04 #@! TA.AperFunction,ViaPad*
%ADD19C,0.800000*%
G04 #@! TD*
G04 #@! TA.AperFunction,Conductor*
%ADD20C,2.540000*%
G04 #@! TD*
G04 #@! TA.AperFunction,Conductor*
%ADD21C,0.254000*%
G04 #@! TD*
G04 #@! TA.AperFunction,Conductor*
%ADD22C,1.016000*%
G04 #@! TD*
G04 #@! TA.AperFunction,Conductor*
%ADD23C,1.524000*%
G04 #@! TD*
G04 APERTURE END LIST*
D10*
X5200000Y39600000D03*
X5200000Y29600000D03*
X47200000Y39600000D03*
X47200000Y29600000D03*
X80200000Y39200000D03*
X80200000Y29200000D03*
X38000000Y29600000D03*
X38000000Y39600000D03*
G04 #@! TA.AperFunction,SMDPad,CuDef*
G36*
G01*
X19675000Y25949999D02*
X19675000Y26850001D01*
G75*
G02*
X19924999Y27100000I249999J0D01*
G01*
X20575001Y27100000D01*
G75*
G02*
X20825000Y26850001I0J-249999D01*
G01*
X20825000Y25949999D01*
G75*
G02*
X20575001Y25700000I-249999J0D01*
G01*
X19924999Y25700000D01*
G75*
G02*
X19675000Y25949999I0J249999D01*
G01*
G37*
G04 #@! TD.AperFunction*
G04 #@! TA.AperFunction,SMDPad,CuDef*
G36*
G01*
X17625000Y25949999D02*
X17625000Y26850001D01*
G75*
G02*
X17874999Y27100000I249999J0D01*
G01*
X18525001Y27100000D01*
G75*
G02*
X18775000Y26850001I0J-249999D01*
G01*
X18775000Y25949999D01*
G75*
G02*
X18525001Y25700000I-249999J0D01*
G01*
X17874999Y25700000D01*
G75*
G02*
X17625000Y25949999I0J249999D01*
G01*
G37*
G04 #@! TD.AperFunction*
G04 #@! TA.AperFunction,SMDPad,CuDef*
G36*
G01*
X61850000Y26149999D02*
X61850000Y27050001D01*
G75*
G02*
X62099999Y27300000I249999J0D01*
G01*
X62750001Y27300000D01*
G75*
G02*
X63000000Y27050001I0J-249999D01*
G01*
X63000000Y26149999D01*
G75*
G02*
X62750001Y25900000I-249999J0D01*
G01*
X62099999Y25900000D01*
G75*
G02*
X61850000Y26149999I0J249999D01*
G01*
G37*
G04 #@! TD.AperFunction*
G04 #@! TA.AperFunction,SMDPad,CuDef*
G36*
G01*
X59800000Y26149999D02*
X59800000Y27050001D01*
G75*
G02*
X60049999Y27300000I249999J0D01*
G01*
X60700001Y27300000D01*
G75*
G02*
X60950000Y27050001I0J-249999D01*
G01*
X60950000Y26149999D01*
G75*
G02*
X60700001Y25900000I-249999J0D01*
G01*
X60049999Y25900000D01*
G75*
G02*
X59800000Y26149999I0J249999D01*
G01*
G37*
G04 #@! TD.AperFunction*
G04 #@! TA.AperFunction,SMDPad,CuDef*
G36*
G01*
X13350000Y26850001D02*
X13350000Y25949999D01*
G75*
G02*
X13100001Y25700000I-249999J0D01*
G01*
X12449999Y25700000D01*
G75*
G02*
X12200000Y25949999I0J249999D01*
G01*
X12200000Y26850001D01*
G75*
G02*
X12449999Y27100000I249999J0D01*
G01*
X13100001Y27100000D01*
G75*
G02*
X13350000Y26850001I0J-249999D01*
G01*
G37*
G04 #@! TD.AperFunction*
G04 #@! TA.AperFunction,SMDPad,CuDef*
G36*
G01*
X15400000Y26850001D02*
X15400000Y25949999D01*
G75*
G02*
X15150001Y25700000I-249999J0D01*
G01*
X14499999Y25700000D01*
G75*
G02*
X14250000Y25949999I0J249999D01*
G01*
X14250000Y26850001D01*
G75*
G02*
X14499999Y27100000I249999J0D01*
G01*
X15150001Y27100000D01*
G75*
G02*
X15400000Y26850001I0J-249999D01*
G01*
G37*
G04 #@! TD.AperFunction*
G04 #@! TA.AperFunction,SMDPad,CuDef*
G36*
G01*
X55125000Y27050001D02*
X55125000Y26149999D01*
G75*
G02*
X54875001Y25900000I-249999J0D01*
G01*
X54224999Y25900000D01*
G75*
G02*
X53975000Y26149999I0J249999D01*
G01*
X53975000Y27050001D01*
G75*
G02*
X54224999Y27300000I249999J0D01*
G01*
X54875001Y27300000D01*
G75*
G02*
X55125000Y27050001I0J-249999D01*
G01*
G37*
G04 #@! TD.AperFunction*
G04 #@! TA.AperFunction,SMDPad,CuDef*
G36*
G01*
X57175000Y27050001D02*
X57175000Y26149999D01*
G75*
G02*
X56925001Y25900000I-249999J0D01*
G01*
X56274999Y25900000D01*
G75*
G02*
X56025000Y26149999I0J249999D01*
G01*
X56025000Y27050001D01*
G75*
G02*
X56274999Y27300000I249999J0D01*
G01*
X56925001Y27300000D01*
G75*
G02*
X57175000Y27050001I0J-249999D01*
G01*
G37*
G04 #@! TD.AperFunction*
D11*
X19850000Y77150000D03*
D10*
X10650000Y73850000D03*
D11*
X62461300Y77280001D03*
D10*
X53261300Y73980001D03*
D12*
X19880000Y73800000D03*
D13*
X14800000Y73800000D03*
D12*
X62348000Y73955600D03*
D13*
X57268000Y73955600D03*
G04 #@! TA.AperFunction,SMDPad,CuDef*
G36*
G01*
X65325000Y68225000D02*
X67475000Y68225000D01*
G75*
G02*
X67725000Y67975000I0J-250000D01*
G01*
X67725000Y67050000D01*
G75*
G02*
X67475000Y66800000I-250000J0D01*
G01*
X65325000Y66800000D01*
G75*
G02*
X65075000Y67050000I0J250000D01*
G01*
X65075000Y67975000D01*
G75*
G02*
X65325000Y68225000I250000J0D01*
G01*
G37*
G04 #@! TD.AperFunction*
G04 #@! TA.AperFunction,SMDPad,CuDef*
G36*
G01*
X65325000Y71200000D02*
X67475000Y71200000D01*
G75*
G02*
X67725000Y70950000I0J-250000D01*
G01*
X67725000Y70025000D01*
G75*
G02*
X67475000Y69775000I-250000J0D01*
G01*
X65325000Y69775000D01*
G75*
G02*
X65075000Y70025000I0J250000D01*
G01*
X65075000Y70950000D01*
G75*
G02*
X65325000Y71200000I250000J0D01*
G01*
G37*
G04 #@! TD.AperFunction*
G04 #@! TA.AperFunction,SMDPad,CuDef*
G36*
G01*
X20925000Y67425000D02*
X23075000Y67425000D01*
G75*
G02*
X23325000Y67175000I0J-250000D01*
G01*
X23325000Y66250000D01*
G75*
G02*
X23075000Y66000000I-250000J0D01*
G01*
X20925000Y66000000D01*
G75*
G02*
X20675000Y66250000I0J250000D01*
G01*
X20675000Y67175000D01*
G75*
G02*
X20925000Y67425000I250000J0D01*
G01*
G37*
G04 #@! TD.AperFunction*
G04 #@! TA.AperFunction,SMDPad,CuDef*
G36*
G01*
X20925000Y70400000D02*
X23075000Y70400000D01*
G75*
G02*
X23325000Y70150000I0J-250000D01*
G01*
X23325000Y69225000D01*
G75*
G02*
X23075000Y68975000I-250000J0D01*
G01*
X20925000Y68975000D01*
G75*
G02*
X20675000Y69225000I0J250000D01*
G01*
X20675000Y70150000D01*
G75*
G02*
X20925000Y70400000I250000J0D01*
G01*
G37*
G04 #@! TD.AperFunction*
G04 #@! TA.AperFunction,SMDPad,CuDef*
G36*
G01*
X45325000Y69625000D02*
X47475000Y69625000D01*
G75*
G02*
X47725000Y69375000I0J-250000D01*
G01*
X47725000Y68450000D01*
G75*
G02*
X47475000Y68200000I-250000J0D01*
G01*
X45325000Y68200000D01*
G75*
G02*
X45075000Y68450000I0J250000D01*
G01*
X45075000Y69375000D01*
G75*
G02*
X45325000Y69625000I250000J0D01*
G01*
G37*
G04 #@! TD.AperFunction*
G04 #@! TA.AperFunction,SMDPad,CuDef*
G36*
G01*
X45325000Y72600000D02*
X47475000Y72600000D01*
G75*
G02*
X47725000Y72350000I0J-250000D01*
G01*
X47725000Y71425000D01*
G75*
G02*
X47475000Y71175000I-250000J0D01*
G01*
X45325000Y71175000D01*
G75*
G02*
X45075000Y71425000I0J250000D01*
G01*
X45075000Y72350000D01*
G75*
G02*
X45325000Y72600000I250000J0D01*
G01*
G37*
G04 #@! TD.AperFunction*
G04 #@! TA.AperFunction,SMDPad,CuDef*
G36*
G01*
X2925000Y69225000D02*
X5075000Y69225000D01*
G75*
G02*
X5325000Y68975000I0J-250000D01*
G01*
X5325000Y68050000D01*
G75*
G02*
X5075000Y67800000I-250000J0D01*
G01*
X2925000Y67800000D01*
G75*
G02*
X2675000Y68050000I0J250000D01*
G01*
X2675000Y68975000D01*
G75*
G02*
X2925000Y69225000I250000J0D01*
G01*
G37*
G04 #@! TD.AperFunction*
G04 #@! TA.AperFunction,SMDPad,CuDef*
G36*
G01*
X2925000Y72200000D02*
X5075000Y72200000D01*
G75*
G02*
X5325000Y71950000I0J-250000D01*
G01*
X5325000Y71025000D01*
G75*
G02*
X5075000Y70775000I-250000J0D01*
G01*
X2925000Y70775000D01*
G75*
G02*
X2675000Y71025000I0J250000D01*
G01*
X2675000Y71950000D01*
G75*
G02*
X2925000Y72200000I250000J0D01*
G01*
G37*
G04 #@! TD.AperFunction*
G04 #@! TA.AperFunction,SMDPad,CuDef*
G36*
G01*
X55670000Y34500000D02*
X55670000Y32000000D01*
G75*
G02*
X55420000Y31750000I-250000J0D01*
G01*
X53820000Y31750000D01*
G75*
G02*
X53570000Y32000000I0J250000D01*
G01*
X53570000Y34500000D01*
G75*
G02*
X53820000Y34750000I250000J0D01*
G01*
X55420000Y34750000D01*
G75*
G02*
X55670000Y34500000I0J-250000D01*
G01*
G37*
G04 #@! TD.AperFunction*
G04 #@! TA.AperFunction,SMDPad,CuDef*
G36*
G01*
X63270000Y34500000D02*
X63270000Y32000000D01*
G75*
G02*
X63020000Y31750000I-250000J0D01*
G01*
X61420000Y31750000D01*
G75*
G02*
X61170000Y32000000I0J250000D01*
G01*
X61170000Y34500000D01*
G75*
G02*
X61420000Y34750000I250000J0D01*
G01*
X63020000Y34750000D01*
G75*
G02*
X63270000Y34500000I0J-250000D01*
G01*
G37*
G04 #@! TD.AperFunction*
G04 #@! TA.AperFunction,SMDPad,CuDef*
G36*
G01*
X57570000Y30950000D02*
X57570000Y30050000D01*
G75*
G02*
X57370000Y29850000I-200000J0D01*
G01*
X56970000Y29850000D01*
G75*
G02*
X56770000Y30050000I0J200000D01*
G01*
X56770000Y30950000D01*
G75*
G02*
X56970000Y31150000I200000J0D01*
G01*
X57370000Y31150000D01*
G75*
G02*
X57570000Y30950000I0J-200000D01*
G01*
G37*
G04 #@! TD.AperFunction*
G04 #@! TA.AperFunction,SMDPad,CuDef*
G36*
G01*
X58820000Y30950000D02*
X58820000Y30050000D01*
G75*
G02*
X58620000Y29850000I-200000J0D01*
G01*
X58220000Y29850000D01*
G75*
G02*
X58020000Y30050000I0J200000D01*
G01*
X58020000Y30950000D01*
G75*
G02*
X58220000Y31150000I200000J0D01*
G01*
X58620000Y31150000D01*
G75*
G02*
X58820000Y30950000I0J-200000D01*
G01*
G37*
G04 #@! TD.AperFunction*
G04 #@! TA.AperFunction,SMDPad,CuDef*
G36*
G01*
X60070000Y30950000D02*
X60070000Y30050000D01*
G75*
G02*
X59870000Y29850000I-200000J0D01*
G01*
X59470000Y29850000D01*
G75*
G02*
X59270000Y30050000I0J200000D01*
G01*
X59270000Y30950000D01*
G75*
G02*
X59470000Y31150000I200000J0D01*
G01*
X59870000Y31150000D01*
G75*
G02*
X60070000Y30950000I0J-200000D01*
G01*
G37*
G04 #@! TD.AperFunction*
G04 #@! TA.AperFunction,SMDPad,CuDef*
G36*
G01*
X28506000Y23220250D02*
X28506000Y22307750D01*
G75*
G02*
X28262250Y22064000I-243750J0D01*
G01*
X27774750Y22064000D01*
G75*
G02*
X27531000Y22307750I0J243750D01*
G01*
X27531000Y23220250D01*
G75*
G02*
X27774750Y23464000I243750J0D01*
G01*
X28262250Y23464000D01*
G75*
G02*
X28506000Y23220250I0J-243750D01*
G01*
G37*
G04 #@! TD.AperFunction*
G04 #@! TA.AperFunction,SMDPad,CuDef*
G36*
G01*
X30381000Y23220250D02*
X30381000Y22307750D01*
G75*
G02*
X30137250Y22064000I-243750J0D01*
G01*
X29649750Y22064000D01*
G75*
G02*
X29406000Y22307750I0J243750D01*
G01*
X29406000Y23220250D01*
G75*
G02*
X29649750Y23464000I243750J0D01*
G01*
X30137250Y23464000D01*
G75*
G02*
X30381000Y23220250I0J-243750D01*
G01*
G37*
G04 #@! TD.AperFunction*
G04 #@! TA.AperFunction,SMDPad,CuDef*
G36*
G01*
X70797000Y23639250D02*
X70797000Y22726750D01*
G75*
G02*
X70553250Y22483000I-243750J0D01*
G01*
X70065750Y22483000D01*
G75*
G02*
X69822000Y22726750I0J243750D01*
G01*
X69822000Y23639250D01*
G75*
G02*
X70065750Y23883000I243750J0D01*
G01*
X70553250Y23883000D01*
G75*
G02*
X70797000Y23639250I0J-243750D01*
G01*
G37*
G04 #@! TD.AperFunction*
G04 #@! TA.AperFunction,SMDPad,CuDef*
G36*
G01*
X72672000Y23639250D02*
X72672000Y22726750D01*
G75*
G02*
X72428250Y22483000I-243750J0D01*
G01*
X71940750Y22483000D01*
G75*
G02*
X71697000Y22726750I0J243750D01*
G01*
X71697000Y23639250D01*
G75*
G02*
X71940750Y23883000I243750J0D01*
G01*
X72428250Y23883000D01*
G75*
G02*
X72672000Y23639250I0J-243750D01*
G01*
G37*
G04 #@! TD.AperFunction*
G04 #@! TA.AperFunction,SMDPad,CuDef*
G36*
G01*
X25469000Y22307750D02*
X25469000Y23220250D01*
G75*
G02*
X25712750Y23464000I243750J0D01*
G01*
X26200250Y23464000D01*
G75*
G02*
X26444000Y23220250I0J-243750D01*
G01*
X26444000Y22307750D01*
G75*
G02*
X26200250Y22064000I-243750J0D01*
G01*
X25712750Y22064000D01*
G75*
G02*
X25469000Y22307750I0J243750D01*
G01*
G37*
G04 #@! TD.AperFunction*
G04 #@! TA.AperFunction,SMDPad,CuDef*
G36*
G01*
X23594000Y22307750D02*
X23594000Y23220250D01*
G75*
G02*
X23837750Y23464000I243750J0D01*
G01*
X24325250Y23464000D01*
G75*
G02*
X24569000Y23220250I0J-243750D01*
G01*
X24569000Y22307750D01*
G75*
G02*
X24325250Y22064000I-243750J0D01*
G01*
X23837750Y22064000D01*
G75*
G02*
X23594000Y22307750I0J243750D01*
G01*
G37*
G04 #@! TD.AperFunction*
G04 #@! TA.AperFunction,SMDPad,CuDef*
G36*
G01*
X68014000Y22726750D02*
X68014000Y23639250D01*
G75*
G02*
X68257750Y23883000I243750J0D01*
G01*
X68745250Y23883000D01*
G75*
G02*
X68989000Y23639250I0J-243750D01*
G01*
X68989000Y22726750D01*
G75*
G02*
X68745250Y22483000I-243750J0D01*
G01*
X68257750Y22483000D01*
G75*
G02*
X68014000Y22726750I0J243750D01*
G01*
G37*
G04 #@! TD.AperFunction*
G04 #@! TA.AperFunction,SMDPad,CuDef*
G36*
G01*
X66139000Y22726750D02*
X66139000Y23639250D01*
G75*
G02*
X66382750Y23883000I243750J0D01*
G01*
X66870250Y23883000D01*
G75*
G02*
X67114000Y23639250I0J-243750D01*
G01*
X67114000Y22726750D01*
G75*
G02*
X66870250Y22483000I-243750J0D01*
G01*
X66382750Y22483000D01*
G75*
G02*
X66139000Y22726750I0J243750D01*
G01*
G37*
G04 #@! TD.AperFunction*
G04 #@! TA.AperFunction,ComponentPad*
G36*
G01*
X45025000Y62674999D02*
X45025000Y64925001D01*
G75*
G02*
X45274999Y65175000I249999J0D01*
G01*
X47525001Y65175000D01*
G75*
G02*
X47775000Y64925001I0J-249999D01*
G01*
X47775000Y62674999D01*
G75*
G02*
X47525001Y62425000I-249999J0D01*
G01*
X45274999Y62425000D01*
G75*
G02*
X45025000Y62674999I0J249999D01*
G01*
G37*
G04 #@! TD.AperFunction*
G04 #@! TA.AperFunction,ComponentPad*
G36*
G01*
X44980000Y75555999D02*
X44980000Y77806001D01*
G75*
G02*
X45229999Y78056000I249999J0D01*
G01*
X47480001Y78056000D01*
G75*
G02*
X47730000Y77806001I0J-249999D01*
G01*
X47730000Y75555999D01*
G75*
G02*
X47480001Y75306000I-249999J0D01*
G01*
X45229999Y75306000D01*
G75*
G02*
X44980000Y75555999I0J249999D01*
G01*
G37*
G04 #@! TD.AperFunction*
D14*
X80264000Y14351000D03*
X47244000Y54991000D03*
D15*
X53594000Y11811000D03*
X73914000Y11811000D03*
D16*
X71374000Y57531000D03*
D17*
X66294000Y57531000D03*
D15*
X56134000Y57531000D03*
X63754000Y11811000D03*
D14*
X38100000Y14351000D03*
X5080000Y54991000D03*
D15*
X11430000Y11811000D03*
X31750000Y11811000D03*
D16*
X29210000Y57531000D03*
D17*
X24130000Y57531000D03*
D15*
X13970000Y57531000D03*
X21590000Y11811000D03*
G04 #@! TA.AperFunction,SMDPad,CuDef*
G36*
G01*
X13760000Y34817500D02*
X13760000Y32317500D01*
G75*
G02*
X13510000Y32067500I-250000J0D01*
G01*
X11910000Y32067500D01*
G75*
G02*
X11660000Y32317500I0J250000D01*
G01*
X11660000Y34817500D01*
G75*
G02*
X11910000Y35067500I250000J0D01*
G01*
X13510000Y35067500D01*
G75*
G02*
X13760000Y34817500I0J-250000D01*
G01*
G37*
G04 #@! TD.AperFunction*
G04 #@! TA.AperFunction,SMDPad,CuDef*
G36*
G01*
X21360000Y34817500D02*
X21360000Y32317500D01*
G75*
G02*
X21110000Y32067500I-250000J0D01*
G01*
X19510000Y32067500D01*
G75*
G02*
X19260000Y32317500I0J250000D01*
G01*
X19260000Y34817500D01*
G75*
G02*
X19510000Y35067500I250000J0D01*
G01*
X21110000Y35067500D01*
G75*
G02*
X21360000Y34817500I0J-250000D01*
G01*
G37*
G04 #@! TD.AperFunction*
G04 #@! TA.AperFunction,SMDPad,CuDef*
G36*
G01*
X15660000Y31267500D02*
X15660000Y30367500D01*
G75*
G02*
X15460000Y30167500I-200000J0D01*
G01*
X15060000Y30167500D01*
G75*
G02*
X14860000Y30367500I0J200000D01*
G01*
X14860000Y31267500D01*
G75*
G02*
X15060000Y31467500I200000J0D01*
G01*
X15460000Y31467500D01*
G75*
G02*
X15660000Y31267500I0J-200000D01*
G01*
G37*
G04 #@! TD.AperFunction*
G04 #@! TA.AperFunction,SMDPad,CuDef*
G36*
G01*
X16910000Y31267500D02*
X16910000Y30367500D01*
G75*
G02*
X16710000Y30167500I-200000J0D01*
G01*
X16310000Y30167500D01*
G75*
G02*
X16110000Y30367500I0J200000D01*
G01*
X16110000Y31267500D01*
G75*
G02*
X16310000Y31467500I200000J0D01*
G01*
X16710000Y31467500D01*
G75*
G02*
X16910000Y31267500I0J-200000D01*
G01*
G37*
G04 #@! TD.AperFunction*
G04 #@! TA.AperFunction,SMDPad,CuDef*
G36*
G01*
X18160000Y31267500D02*
X18160000Y30367500D01*
G75*
G02*
X17960000Y30167500I-200000J0D01*
G01*
X17560000Y30167500D01*
G75*
G02*
X17360000Y30367500I0J200000D01*
G01*
X17360000Y31267500D01*
G75*
G02*
X17560000Y31467500I200000J0D01*
G01*
X17960000Y31467500D01*
G75*
G02*
X18160000Y31267500I0J-200000D01*
G01*
G37*
G04 #@! TD.AperFunction*
G04 #@! TA.AperFunction,ComponentPad*
G36*
G01*
X20464999Y5820000D02*
X22715001Y5820000D01*
G75*
G02*
X22965000Y5570001I0J-249999D01*
G01*
X22965000Y3319999D01*
G75*
G02*
X22715001Y3070000I-249999J0D01*
G01*
X20464999Y3070000D01*
G75*
G02*
X20215000Y3319999I0J249999D01*
G01*
X20215000Y5570001D01*
G75*
G02*
X20464999Y5820000I249999J0D01*
G01*
G37*
G04 #@! TD.AperFunction*
G04 #@! TA.AperFunction,ComponentPad*
G36*
G01*
X30674999Y5820000D02*
X32925001Y5820000D01*
G75*
G02*
X33175000Y5570001I0J-249999D01*
G01*
X33175000Y3319999D01*
G75*
G02*
X32925001Y3070000I-249999J0D01*
G01*
X30674999Y3070000D01*
G75*
G02*
X30425000Y3319999I0J249999D01*
G01*
X30425000Y5570001D01*
G75*
G02*
X30674999Y5820000I249999J0D01*
G01*
G37*
G04 #@! TD.AperFunction*
G04 #@! TA.AperFunction,ComponentPad*
G36*
G01*
X62628999Y5693000D02*
X64879001Y5693000D01*
G75*
G02*
X65129000Y5443001I0J-249999D01*
G01*
X65129000Y3192999D01*
G75*
G02*
X64879001Y2943000I-249999J0D01*
G01*
X62628999Y2943000D01*
G75*
G02*
X62379000Y3192999I0J249999D01*
G01*
X62379000Y5443001D01*
G75*
G02*
X62628999Y5693000I249999J0D01*
G01*
G37*
G04 #@! TD.AperFunction*
G04 #@! TA.AperFunction,ComponentPad*
G36*
G01*
X71264999Y5693000D02*
X73515001Y5693000D01*
G75*
G02*
X73765000Y5443001I0J-249999D01*
G01*
X73765000Y3192999D01*
G75*
G02*
X73515001Y2943000I-249999J0D01*
G01*
X71264999Y2943000D01*
G75*
G02*
X71015000Y3192999I0J249999D01*
G01*
X71015000Y5443001D01*
G75*
G02*
X71264999Y5693000I249999J0D01*
G01*
G37*
G04 #@! TD.AperFunction*
G04 #@! TA.AperFunction,ComponentPad*
G36*
G01*
X5375000Y64925001D02*
X5375000Y62674999D01*
G75*
G02*
X5125001Y62425000I-249999J0D01*
G01*
X2874999Y62425000D01*
G75*
G02*
X2625000Y62674999I0J249999D01*
G01*
X2625000Y64925001D01*
G75*
G02*
X2874999Y65175000I249999J0D01*
G01*
X5125001Y65175000D01*
G75*
G02*
X5375000Y64925001I0J-249999D01*
G01*
G37*
G04 #@! TD.AperFunction*
G04 #@! TA.AperFunction,ComponentPad*
G36*
G01*
X5312000Y77725001D02*
X5312000Y75474999D01*
G75*
G02*
X5062001Y75225000I-249999J0D01*
G01*
X2811999Y75225000D01*
G75*
G02*
X2562000Y75474999I0J249999D01*
G01*
X2562000Y77725001D01*
G75*
G02*
X2811999Y77975000I249999J0D01*
G01*
X5062001Y77975000D01*
G75*
G02*
X5312000Y77725001I0J-249999D01*
G01*
G37*
G04 #@! TD.AperFunction*
D18*
X80000000Y75010000D03*
X80000000Y5010000D03*
X30000000Y75010000D03*
X5000000Y5010000D03*
D19*
X14400000Y22800000D03*
X58420000Y25220000D03*
D20*
X63754000Y11557000D02*
X63754000Y4318000D01*
D21*
X63754000Y11811000D02*
X65011000Y11811000D01*
X57170000Y30500000D02*
X56100000Y30500000D01*
X54550000Y28950000D02*
X54550000Y26600000D01*
X56100000Y30500000D02*
X54550000Y28950000D01*
X54550000Y26600000D02*
X54200000Y26600000D01*
X51200000Y29600000D02*
X47200000Y29600000D01*
X54200000Y26600000D02*
X51200000Y29600000D01*
X15260000Y30817500D02*
X14017500Y30817500D01*
X12775000Y29575000D02*
X12775000Y26400000D01*
X14017500Y30817500D02*
X12775000Y29575000D01*
X12775000Y26400000D02*
X10800000Y26400000D01*
X7600000Y29600000D02*
X5200000Y29600000D01*
X10800000Y26400000D02*
X7600000Y29600000D01*
D22*
X5200000Y26270600D02*
X14706600Y16764000D01*
X5200000Y29600000D02*
X5200000Y26270600D01*
D20*
X63881000Y17399000D02*
X63881000Y11684000D01*
X21590000Y16764000D02*
X23622000Y18796000D01*
X21590000Y4445000D02*
X21590000Y16764000D01*
X62484000Y18796000D02*
X63881000Y17399000D01*
D22*
X16637000Y16764000D02*
X21590000Y11811000D01*
X14706600Y16764000D02*
X16637000Y16764000D01*
X24081500Y19255500D02*
X23622000Y18796000D01*
X24081500Y22764000D02*
X24081500Y19255500D01*
X66626500Y20144500D02*
X63881000Y17399000D01*
X66626500Y23183000D02*
X66626500Y20144500D01*
X47200000Y19600000D02*
X48004000Y18796000D01*
D20*
X48004000Y18796000D02*
X62484000Y18796000D01*
D22*
X47200000Y29600000D02*
X47200000Y19600000D01*
D20*
X23622000Y18796000D02*
X48004000Y18796000D01*
D21*
X17760000Y30817500D02*
X19382500Y30817500D01*
X20250000Y29950000D02*
X20250000Y26400000D01*
X19382500Y30817500D02*
X20250000Y29950000D01*
X20250000Y26400000D02*
X31100000Y26400000D01*
X29893500Y22764000D02*
X31164000Y22764000D01*
X31164000Y22764000D02*
X32200000Y23800000D01*
X35200000Y29600000D02*
X38000000Y29600000D01*
X32200000Y26600000D02*
X35200000Y29600000D01*
X32200000Y26400000D02*
X32200000Y26600000D01*
X31100000Y26400000D02*
X32200000Y26400000D01*
X32200000Y23800000D02*
X32200000Y26400000D01*
D20*
X31750000Y4495000D02*
X31800000Y4445000D01*
X31750000Y11811000D02*
X31750000Y4495000D01*
D21*
X68501500Y23183000D02*
X70309500Y23183000D01*
D20*
X73914000Y5842000D02*
X72390000Y4318000D01*
X73914000Y11557000D02*
X73914000Y5842000D01*
D22*
X73914000Y11557000D02*
X73914000Y16764000D01*
X77000000Y29200000D02*
X80200000Y29200000D01*
X73914000Y26114000D02*
X77000000Y29200000D01*
X73914000Y16764000D02*
X73914000Y26114000D01*
D21*
X62425000Y26600000D02*
X62425000Y28975000D01*
X60900000Y30500000D02*
X59670000Y30500000D01*
X62425000Y28975000D02*
X60900000Y30500000D01*
X72184500Y23183000D02*
X73533000Y23183000D01*
X73914000Y26114000D02*
X73886000Y26114000D01*
X73533000Y23183000D02*
X73914000Y23564000D01*
X73886000Y26114000D02*
X73400000Y26600000D01*
X73400000Y26600000D02*
X62425000Y26600000D01*
D23*
X24003000Y57404000D02*
X24130000Y57277000D01*
D20*
X4000000Y63800000D02*
X4000000Y67800000D01*
X22000000Y63800000D02*
X22000000Y66000000D01*
X4000000Y63800000D02*
X22000000Y63800000D01*
X22000000Y63800000D02*
X22800000Y63800000D01*
X24130000Y62470000D02*
X24130000Y57531000D01*
X22800000Y63800000D02*
X24130000Y62470000D01*
D22*
X16999000Y50400000D02*
X24130000Y57531000D01*
X5200000Y42800000D02*
X12800000Y50400000D01*
X12800000Y50400000D02*
X16999000Y50400000D01*
X5200000Y39600000D02*
X5200000Y42800000D01*
D21*
X16510000Y24910000D02*
X14400000Y22800000D01*
X16620000Y26400000D02*
X16510000Y26510000D01*
X18200000Y26400000D02*
X16620000Y26400000D01*
X16510000Y30817500D02*
X16510000Y26510000D01*
X16400000Y26400000D02*
X16510000Y26290000D01*
X14825000Y26400000D02*
X16400000Y26400000D01*
X16510000Y26290000D02*
X16510000Y24910000D01*
X16510000Y26510000D02*
X16510000Y26290000D01*
X58400000Y26600000D02*
X58420000Y26620000D01*
X58420000Y26620000D02*
X58420000Y30500000D01*
X56600000Y26600000D02*
X58400000Y26600000D01*
X60375000Y26600000D02*
X58400000Y26600000D01*
X58420000Y25020000D02*
X58420000Y25220000D01*
X58420000Y25220000D02*
X58420000Y26620000D01*
D20*
X14750000Y73850000D02*
X14800000Y73800000D01*
X3937000Y76600000D02*
X3937000Y72263000D01*
X7900000Y76600000D02*
X10650000Y73850000D01*
X3937000Y76600000D02*
X7900000Y76600000D01*
X12000000Y76600000D02*
X14800000Y73800000D01*
X7900000Y76600000D02*
X12000000Y76600000D01*
D22*
X80124300Y39306500D02*
X80124300Y42862500D01*
X80124300Y42862500D02*
X71374000Y51612800D01*
D20*
X62461300Y74068900D02*
X62348000Y73955600D01*
X71200000Y57705000D02*
X71374000Y57531000D01*
X71374000Y64226000D02*
X71374000Y62374000D01*
X71374000Y62374000D02*
X71374000Y57531000D01*
D22*
X71374000Y53686500D02*
X71374000Y54426000D01*
X71374000Y54426000D02*
X71374000Y57531000D01*
X71374000Y51612800D02*
X71374000Y54426000D01*
D20*
X71374000Y73226000D02*
X67026000Y73226000D01*
X71374000Y62374000D02*
X71374000Y73226000D01*
X67026000Y73226000D02*
X66400000Y72600000D01*
X66400000Y72600000D02*
X66400000Y71200000D01*
X71374000Y75626000D02*
X71374000Y73226000D01*
X69719999Y77280001D02*
X71374000Y75626000D01*
X65080001Y76687601D02*
X65080001Y77280001D01*
X62348000Y73955600D02*
X65080001Y76687601D01*
X65080001Y77280001D02*
X69719999Y77280001D01*
X62461300Y77280001D02*
X65080001Y77280001D01*
D22*
X47200000Y39600000D02*
X47200000Y42600000D01*
X47200000Y42600000D02*
X53000000Y48400000D01*
X57163000Y48400000D02*
X66294000Y57531000D01*
X53000000Y48400000D02*
X57163000Y48400000D01*
D20*
X46400000Y63800000D02*
X65600000Y63800000D01*
X65600000Y63800000D02*
X66294000Y63106000D01*
X46400000Y63800000D02*
X46400000Y68200000D01*
X66294000Y61494000D02*
X66294000Y66694000D01*
X66294000Y63106000D02*
X66294000Y61494000D01*
X66294000Y61494000D02*
X66294000Y57531000D01*
D21*
X28018500Y22764000D02*
X25956500Y22764000D01*
D22*
X38049200Y39611300D02*
X38049200Y41871900D01*
X29210000Y50711100D02*
X29210000Y57531000D01*
X38049200Y41871900D02*
X29210000Y50711100D01*
D20*
X19850000Y73830000D02*
X19880000Y73800000D01*
D22*
X29210000Y57531000D02*
X29210000Y52722500D01*
D20*
X24000000Y73800000D02*
X22000000Y73800000D01*
X29210000Y68590000D02*
X24000000Y73800000D01*
X29210000Y57531000D02*
X29210000Y68590000D01*
X22000000Y73800000D02*
X22000000Y70400000D01*
X19880000Y73800000D02*
X22000000Y73800000D01*
X22000000Y75000000D02*
X22000000Y73800000D01*
X19850000Y77150000D02*
X22000000Y75000000D01*
X57243599Y73980001D02*
X57268000Y73955600D01*
X46355000Y76681000D02*
X46355000Y72645000D01*
X50560301Y76681000D02*
X53261300Y73980001D01*
X46355000Y76681000D02*
X50560301Y76681000D01*
X54542600Y76681000D02*
X57268000Y73955600D01*
X50560301Y76681000D02*
X54542600Y76681000D01*
M02*
