M48
; DRILL file {KiCad 5.1.6+dfsg1-1~bpo9+1} date Sun May 29 17:42:43 2022
; FORMAT={-:-/ absolute / metric / decimal}
; #@! TF.CreationDate,2022-05-29T17:42:43+02:00
; #@! TF.GenerationSoftware,Kicad,Pcbnew,5.1.6+dfsg1-1~bpo9+1
; #@! TF.FileFunction,Plated,1,2,PTH
FMAT,2
METRIC
T1C0.400
T2C1.000
T3C1.200
T4C1.500
T5C1.750
T6C2.032
T7C3.200
%
G90
G05
T1
X14.4Y22.8
X58.42Y25.22
T2
X5.2Y39.6
X5.2Y29.6
X80.2Y39.2
X80.2Y29.2
X38.0Y39.6
X38.0Y29.6
X10.65Y73.85
X19.85Y77.15
X53.261Y73.98
X62.461Y77.28
X47.2Y39.6
X47.2Y29.6
T3
X57.268Y73.956
X62.348Y73.956
X14.8Y73.8
X19.88Y73.8
T4
X11.43Y11.811
X13.97Y57.531
X21.59Y11.811
X24.13Y57.531
X29.21Y57.531
X31.75Y11.811
X53.594Y11.811
X56.134Y57.531
X63.754Y11.811
X66.294Y57.531
X71.374Y57.531
X73.914Y11.811
T5
X46.4Y63.8
X46.355Y76.681
X63.754Y4.318
X72.39Y4.318
X21.59Y4.445
X31.8Y4.445
X4.0Y63.8
X3.937Y76.6
T6
X5.08Y54.991
X38.1Y14.351
X47.244Y54.991
X80.264Y14.351
T7
X80.0Y5.01
X5.0Y5.01
X30.0Y75.01
X80.0Y75.01
T0
M30
