G04 #@! TF.GenerationSoftware,KiCad,Pcbnew,5.1.6+dfsg1-1~bpo9+1*
G04 #@! TF.CreationDate,2022-05-29T17:42:38+02:00*
G04 #@! TF.ProjectId,sdrtrx-meanwell,73647274-7278-42d6-9d65-616e77656c6c,1*
G04 #@! TF.SameCoordinates,Original*
G04 #@! TF.FileFunction,Paste,Top*
G04 #@! TF.FilePolarity,Positive*
%FSLAX46Y46*%
G04 Gerber Fmt 4.6, Leading zero omitted, Abs format (unit mm)*
G04 Created by KiCad (PCBNEW 5.1.6+dfsg1-1~bpo9+1) date 2022-05-29 17:42:38*
%MOMM*%
%LPD*%
G01*
G04 APERTURE LIST*
G04 APERTURE END LIST*
G36*
G01*
X19675000Y25949999D02*
X19675000Y26850001D01*
G75*
G02*
X19924999Y27100000I249999J0D01*
G01*
X20575001Y27100000D01*
G75*
G02*
X20825000Y26850001I0J-249999D01*
G01*
X20825000Y25949999D01*
G75*
G02*
X20575001Y25700000I-249999J0D01*
G01*
X19924999Y25700000D01*
G75*
G02*
X19675000Y25949999I0J249999D01*
G01*
G37*
G36*
G01*
X17625000Y25949999D02*
X17625000Y26850001D01*
G75*
G02*
X17874999Y27100000I249999J0D01*
G01*
X18525001Y27100000D01*
G75*
G02*
X18775000Y26850001I0J-249999D01*
G01*
X18775000Y25949999D01*
G75*
G02*
X18525001Y25700000I-249999J0D01*
G01*
X17874999Y25700000D01*
G75*
G02*
X17625000Y25949999I0J249999D01*
G01*
G37*
G36*
G01*
X61850000Y26149999D02*
X61850000Y27050001D01*
G75*
G02*
X62099999Y27300000I249999J0D01*
G01*
X62750001Y27300000D01*
G75*
G02*
X63000000Y27050001I0J-249999D01*
G01*
X63000000Y26149999D01*
G75*
G02*
X62750001Y25900000I-249999J0D01*
G01*
X62099999Y25900000D01*
G75*
G02*
X61850000Y26149999I0J249999D01*
G01*
G37*
G36*
G01*
X59800000Y26149999D02*
X59800000Y27050001D01*
G75*
G02*
X60049999Y27300000I249999J0D01*
G01*
X60700001Y27300000D01*
G75*
G02*
X60950000Y27050001I0J-249999D01*
G01*
X60950000Y26149999D01*
G75*
G02*
X60700001Y25900000I-249999J0D01*
G01*
X60049999Y25900000D01*
G75*
G02*
X59800000Y26149999I0J249999D01*
G01*
G37*
G36*
G01*
X13350000Y26850001D02*
X13350000Y25949999D01*
G75*
G02*
X13100001Y25700000I-249999J0D01*
G01*
X12449999Y25700000D01*
G75*
G02*
X12200000Y25949999I0J249999D01*
G01*
X12200000Y26850001D01*
G75*
G02*
X12449999Y27100000I249999J0D01*
G01*
X13100001Y27100000D01*
G75*
G02*
X13350000Y26850001I0J-249999D01*
G01*
G37*
G36*
G01*
X15400000Y26850001D02*
X15400000Y25949999D01*
G75*
G02*
X15150001Y25700000I-249999J0D01*
G01*
X14499999Y25700000D01*
G75*
G02*
X14250000Y25949999I0J249999D01*
G01*
X14250000Y26850001D01*
G75*
G02*
X14499999Y27100000I249999J0D01*
G01*
X15150001Y27100000D01*
G75*
G02*
X15400000Y26850001I0J-249999D01*
G01*
G37*
G36*
G01*
X55125000Y27050001D02*
X55125000Y26149999D01*
G75*
G02*
X54875001Y25900000I-249999J0D01*
G01*
X54224999Y25900000D01*
G75*
G02*
X53975000Y26149999I0J249999D01*
G01*
X53975000Y27050001D01*
G75*
G02*
X54224999Y27300000I249999J0D01*
G01*
X54875001Y27300000D01*
G75*
G02*
X55125000Y27050001I0J-249999D01*
G01*
G37*
G36*
G01*
X57175000Y27050001D02*
X57175000Y26149999D01*
G75*
G02*
X56925001Y25900000I-249999J0D01*
G01*
X56274999Y25900000D01*
G75*
G02*
X56025000Y26149999I0J249999D01*
G01*
X56025000Y27050001D01*
G75*
G02*
X56274999Y27300000I249999J0D01*
G01*
X56925001Y27300000D01*
G75*
G02*
X57175000Y27050001I0J-249999D01*
G01*
G37*
G36*
G01*
X65325000Y68225000D02*
X67475000Y68225000D01*
G75*
G02*
X67725000Y67975000I0J-250000D01*
G01*
X67725000Y67050000D01*
G75*
G02*
X67475000Y66800000I-250000J0D01*
G01*
X65325000Y66800000D01*
G75*
G02*
X65075000Y67050000I0J250000D01*
G01*
X65075000Y67975000D01*
G75*
G02*
X65325000Y68225000I250000J0D01*
G01*
G37*
G36*
G01*
X65325000Y71200000D02*
X67475000Y71200000D01*
G75*
G02*
X67725000Y70950000I0J-250000D01*
G01*
X67725000Y70025000D01*
G75*
G02*
X67475000Y69775000I-250000J0D01*
G01*
X65325000Y69775000D01*
G75*
G02*
X65075000Y70025000I0J250000D01*
G01*
X65075000Y70950000D01*
G75*
G02*
X65325000Y71200000I250000J0D01*
G01*
G37*
G36*
G01*
X20925000Y67425000D02*
X23075000Y67425000D01*
G75*
G02*
X23325000Y67175000I0J-250000D01*
G01*
X23325000Y66250000D01*
G75*
G02*
X23075000Y66000000I-250000J0D01*
G01*
X20925000Y66000000D01*
G75*
G02*
X20675000Y66250000I0J250000D01*
G01*
X20675000Y67175000D01*
G75*
G02*
X20925000Y67425000I250000J0D01*
G01*
G37*
G36*
G01*
X20925000Y70400000D02*
X23075000Y70400000D01*
G75*
G02*
X23325000Y70150000I0J-250000D01*
G01*
X23325000Y69225000D01*
G75*
G02*
X23075000Y68975000I-250000J0D01*
G01*
X20925000Y68975000D01*
G75*
G02*
X20675000Y69225000I0J250000D01*
G01*
X20675000Y70150000D01*
G75*
G02*
X20925000Y70400000I250000J0D01*
G01*
G37*
G36*
G01*
X45325000Y69625000D02*
X47475000Y69625000D01*
G75*
G02*
X47725000Y69375000I0J-250000D01*
G01*
X47725000Y68450000D01*
G75*
G02*
X47475000Y68200000I-250000J0D01*
G01*
X45325000Y68200000D01*
G75*
G02*
X45075000Y68450000I0J250000D01*
G01*
X45075000Y69375000D01*
G75*
G02*
X45325000Y69625000I250000J0D01*
G01*
G37*
G36*
G01*
X45325000Y72600000D02*
X47475000Y72600000D01*
G75*
G02*
X47725000Y72350000I0J-250000D01*
G01*
X47725000Y71425000D01*
G75*
G02*
X47475000Y71175000I-250000J0D01*
G01*
X45325000Y71175000D01*
G75*
G02*
X45075000Y71425000I0J250000D01*
G01*
X45075000Y72350000D01*
G75*
G02*
X45325000Y72600000I250000J0D01*
G01*
G37*
G36*
G01*
X2925000Y69225000D02*
X5075000Y69225000D01*
G75*
G02*
X5325000Y68975000I0J-250000D01*
G01*
X5325000Y68050000D01*
G75*
G02*
X5075000Y67800000I-250000J0D01*
G01*
X2925000Y67800000D01*
G75*
G02*
X2675000Y68050000I0J250000D01*
G01*
X2675000Y68975000D01*
G75*
G02*
X2925000Y69225000I250000J0D01*
G01*
G37*
G36*
G01*
X2925000Y72200000D02*
X5075000Y72200000D01*
G75*
G02*
X5325000Y71950000I0J-250000D01*
G01*
X5325000Y71025000D01*
G75*
G02*
X5075000Y70775000I-250000J0D01*
G01*
X2925000Y70775000D01*
G75*
G02*
X2675000Y71025000I0J250000D01*
G01*
X2675000Y71950000D01*
G75*
G02*
X2925000Y72200000I250000J0D01*
G01*
G37*
G36*
G01*
X55670000Y34500000D02*
X55670000Y32000000D01*
G75*
G02*
X55420000Y31750000I-250000J0D01*
G01*
X53820000Y31750000D01*
G75*
G02*
X53570000Y32000000I0J250000D01*
G01*
X53570000Y34500000D01*
G75*
G02*
X53820000Y34750000I250000J0D01*
G01*
X55420000Y34750000D01*
G75*
G02*
X55670000Y34500000I0J-250000D01*
G01*
G37*
G36*
G01*
X63270000Y34500000D02*
X63270000Y32000000D01*
G75*
G02*
X63020000Y31750000I-250000J0D01*
G01*
X61420000Y31750000D01*
G75*
G02*
X61170000Y32000000I0J250000D01*
G01*
X61170000Y34500000D01*
G75*
G02*
X61420000Y34750000I250000J0D01*
G01*
X63020000Y34750000D01*
G75*
G02*
X63270000Y34500000I0J-250000D01*
G01*
G37*
G36*
G01*
X57570000Y30950000D02*
X57570000Y30050000D01*
G75*
G02*
X57370000Y29850000I-200000J0D01*
G01*
X56970000Y29850000D01*
G75*
G02*
X56770000Y30050000I0J200000D01*
G01*
X56770000Y30950000D01*
G75*
G02*
X56970000Y31150000I200000J0D01*
G01*
X57370000Y31150000D01*
G75*
G02*
X57570000Y30950000I0J-200000D01*
G01*
G37*
G36*
G01*
X58820000Y30950000D02*
X58820000Y30050000D01*
G75*
G02*
X58620000Y29850000I-200000J0D01*
G01*
X58220000Y29850000D01*
G75*
G02*
X58020000Y30050000I0J200000D01*
G01*
X58020000Y30950000D01*
G75*
G02*
X58220000Y31150000I200000J0D01*
G01*
X58620000Y31150000D01*
G75*
G02*
X58820000Y30950000I0J-200000D01*
G01*
G37*
G36*
G01*
X60070000Y30950000D02*
X60070000Y30050000D01*
G75*
G02*
X59870000Y29850000I-200000J0D01*
G01*
X59470000Y29850000D01*
G75*
G02*
X59270000Y30050000I0J200000D01*
G01*
X59270000Y30950000D01*
G75*
G02*
X59470000Y31150000I200000J0D01*
G01*
X59870000Y31150000D01*
G75*
G02*
X60070000Y30950000I0J-200000D01*
G01*
G37*
G36*
G01*
X28506000Y23220250D02*
X28506000Y22307750D01*
G75*
G02*
X28262250Y22064000I-243750J0D01*
G01*
X27774750Y22064000D01*
G75*
G02*
X27531000Y22307750I0J243750D01*
G01*
X27531000Y23220250D01*
G75*
G02*
X27774750Y23464000I243750J0D01*
G01*
X28262250Y23464000D01*
G75*
G02*
X28506000Y23220250I0J-243750D01*
G01*
G37*
G36*
G01*
X30381000Y23220250D02*
X30381000Y22307750D01*
G75*
G02*
X30137250Y22064000I-243750J0D01*
G01*
X29649750Y22064000D01*
G75*
G02*
X29406000Y22307750I0J243750D01*
G01*
X29406000Y23220250D01*
G75*
G02*
X29649750Y23464000I243750J0D01*
G01*
X30137250Y23464000D01*
G75*
G02*
X30381000Y23220250I0J-243750D01*
G01*
G37*
G36*
G01*
X70797000Y23639250D02*
X70797000Y22726750D01*
G75*
G02*
X70553250Y22483000I-243750J0D01*
G01*
X70065750Y22483000D01*
G75*
G02*
X69822000Y22726750I0J243750D01*
G01*
X69822000Y23639250D01*
G75*
G02*
X70065750Y23883000I243750J0D01*
G01*
X70553250Y23883000D01*
G75*
G02*
X70797000Y23639250I0J-243750D01*
G01*
G37*
G36*
G01*
X72672000Y23639250D02*
X72672000Y22726750D01*
G75*
G02*
X72428250Y22483000I-243750J0D01*
G01*
X71940750Y22483000D01*
G75*
G02*
X71697000Y22726750I0J243750D01*
G01*
X71697000Y23639250D01*
G75*
G02*
X71940750Y23883000I243750J0D01*
G01*
X72428250Y23883000D01*
G75*
G02*
X72672000Y23639250I0J-243750D01*
G01*
G37*
G36*
G01*
X25469000Y22307750D02*
X25469000Y23220250D01*
G75*
G02*
X25712750Y23464000I243750J0D01*
G01*
X26200250Y23464000D01*
G75*
G02*
X26444000Y23220250I0J-243750D01*
G01*
X26444000Y22307750D01*
G75*
G02*
X26200250Y22064000I-243750J0D01*
G01*
X25712750Y22064000D01*
G75*
G02*
X25469000Y22307750I0J243750D01*
G01*
G37*
G36*
G01*
X23594000Y22307750D02*
X23594000Y23220250D01*
G75*
G02*
X23837750Y23464000I243750J0D01*
G01*
X24325250Y23464000D01*
G75*
G02*
X24569000Y23220250I0J-243750D01*
G01*
X24569000Y22307750D01*
G75*
G02*
X24325250Y22064000I-243750J0D01*
G01*
X23837750Y22064000D01*
G75*
G02*
X23594000Y22307750I0J243750D01*
G01*
G37*
G36*
G01*
X68014000Y22726750D02*
X68014000Y23639250D01*
G75*
G02*
X68257750Y23883000I243750J0D01*
G01*
X68745250Y23883000D01*
G75*
G02*
X68989000Y23639250I0J-243750D01*
G01*
X68989000Y22726750D01*
G75*
G02*
X68745250Y22483000I-243750J0D01*
G01*
X68257750Y22483000D01*
G75*
G02*
X68014000Y22726750I0J243750D01*
G01*
G37*
G36*
G01*
X66139000Y22726750D02*
X66139000Y23639250D01*
G75*
G02*
X66382750Y23883000I243750J0D01*
G01*
X66870250Y23883000D01*
G75*
G02*
X67114000Y23639250I0J-243750D01*
G01*
X67114000Y22726750D01*
G75*
G02*
X66870250Y22483000I-243750J0D01*
G01*
X66382750Y22483000D01*
G75*
G02*
X66139000Y22726750I0J243750D01*
G01*
G37*
G36*
G01*
X13760000Y34817500D02*
X13760000Y32317500D01*
G75*
G02*
X13510000Y32067500I-250000J0D01*
G01*
X11910000Y32067500D01*
G75*
G02*
X11660000Y32317500I0J250000D01*
G01*
X11660000Y34817500D01*
G75*
G02*
X11910000Y35067500I250000J0D01*
G01*
X13510000Y35067500D01*
G75*
G02*
X13760000Y34817500I0J-250000D01*
G01*
G37*
G36*
G01*
X21360000Y34817500D02*
X21360000Y32317500D01*
G75*
G02*
X21110000Y32067500I-250000J0D01*
G01*
X19510000Y32067500D01*
G75*
G02*
X19260000Y32317500I0J250000D01*
G01*
X19260000Y34817500D01*
G75*
G02*
X19510000Y35067500I250000J0D01*
G01*
X21110000Y35067500D01*
G75*
G02*
X21360000Y34817500I0J-250000D01*
G01*
G37*
G36*
G01*
X15660000Y31267500D02*
X15660000Y30367500D01*
G75*
G02*
X15460000Y30167500I-200000J0D01*
G01*
X15060000Y30167500D01*
G75*
G02*
X14860000Y30367500I0J200000D01*
G01*
X14860000Y31267500D01*
G75*
G02*
X15060000Y31467500I200000J0D01*
G01*
X15460000Y31467500D01*
G75*
G02*
X15660000Y31267500I0J-200000D01*
G01*
G37*
G36*
G01*
X16910000Y31267500D02*
X16910000Y30367500D01*
G75*
G02*
X16710000Y30167500I-200000J0D01*
G01*
X16310000Y30167500D01*
G75*
G02*
X16110000Y30367500I0J200000D01*
G01*
X16110000Y31267500D01*
G75*
G02*
X16310000Y31467500I200000J0D01*
G01*
X16710000Y31467500D01*
G75*
G02*
X16910000Y31267500I0J-200000D01*
G01*
G37*
G36*
G01*
X18160000Y31267500D02*
X18160000Y30367500D01*
G75*
G02*
X17960000Y30167500I-200000J0D01*
G01*
X17560000Y30167500D01*
G75*
G02*
X17360000Y30367500I0J200000D01*
G01*
X17360000Y31267500D01*
G75*
G02*
X17560000Y31467500I200000J0D01*
G01*
X17960000Y31467500D01*
G75*
G02*
X18160000Y31267500I0J-200000D01*
G01*
G37*
M02*
