%FSLAX45Y45*%
G04 Gerber Fmt 4.5, Leading zero omitted, Abs format (unit mm)*
G04 Created by KiCad (PCBNEW 5.1.6+dfsg1-1~bpo9+1) date 2022-05-29 17:42:44*
%MOMM*%
%LPD*%
G01*
G04 APERTURE LIST*
%TA.AperFunction,Profile*%
%ADD10C,0.100000*%
%TD*%
%ADD11C,0.200000*%
%ADD12C,0.300000*%
G04 APERTURE END LIST*
D10*
X0Y1000D02*
X8500000Y1000D01*
X8500000Y8001000D02*
X8500000Y1000D01*
X0Y8001000D02*
X0Y1000D01*
X0Y8001000D02*
X8500000Y8001000D01*
D11*
X1420000Y2300000D02*
X1460000Y2260000D01*
X1460000Y2300000D02*
X1420000Y2260000D01*
X5822000Y2542000D02*
X5862000Y2502000D01*
X5862000Y2542000D02*
X5822000Y2502000D01*
X570000Y3960000D02*
G75*
G03*
X570000Y3960000I-50000J0D01*
G01*
X570000Y2960000D02*
G75*
G03*
X570000Y2960000I-50000J0D01*
G01*
X8070000Y3920000D02*
G75*
G03*
X8070000Y3920000I-50000J0D01*
G01*
X8070000Y2920000D02*
G75*
G03*
X8070000Y2920000I-50000J0D01*
G01*
X3850000Y3960000D02*
G75*
G03*
X3850000Y3960000I-50000J0D01*
G01*
X3850000Y2960000D02*
G75*
G03*
X3850000Y2960000I-50000J0D01*
G01*
X1115000Y7385000D02*
G75*
G03*
X1115000Y7385000I-50000J0D01*
G01*
X2035000Y7715000D02*
G75*
G03*
X2035000Y7715000I-50000J0D01*
G01*
X5376130Y7398000D02*
G75*
G03*
X5376130Y7398000I-50000J0D01*
G01*
X6296130Y7728000D02*
G75*
G03*
X6296130Y7728000I-50000J0D01*
G01*
X4770000Y3960000D02*
G75*
G03*
X4770000Y3960000I-50000J0D01*
G01*
X4770000Y2960000D02*
G75*
G03*
X4770000Y2960000I-50000J0D01*
G01*
X5726800Y7455560D02*
X5726800Y7335560D01*
X5666800Y7395560D02*
X5786800Y7395560D01*
X6234800Y7455560D02*
X6234800Y7335560D01*
X6174800Y7395560D02*
X6294800Y7395560D01*
X1480000Y7440000D02*
X1480000Y7320000D01*
X1420000Y7380000D02*
X1540000Y7380000D01*
X1988000Y7440000D02*
X1988000Y7320000D01*
X1928000Y7380000D02*
X2048000Y7380000D01*
X1196034Y1128067D02*
X1196034Y1234134D01*
X1089967Y1234134D01*
X1089967Y1128067D01*
X1196034Y1128067D01*
X1450033Y5700066D02*
X1450033Y5806133D01*
X1343967Y5806133D01*
X1343967Y5700066D01*
X1450033Y5700066D01*
X2212034Y1128067D02*
X2212034Y1234134D01*
X2105967Y1234134D01*
X2105967Y1128067D01*
X2212034Y1128067D01*
X2466034Y5700066D02*
X2466034Y5806133D01*
X2359967Y5806133D01*
X2359967Y5700066D01*
X2466034Y5700066D01*
X2974033Y5700066D02*
X2974033Y5806133D01*
X2867966Y5806133D01*
X2867966Y5700066D01*
X2974033Y5700066D01*
X3228033Y1128067D02*
X3228033Y1234134D01*
X3121966Y1234134D01*
X3121966Y1128067D01*
X3228033Y1128067D01*
X5412434Y1128067D02*
X5412434Y1234134D01*
X5306367Y1234134D01*
X5306367Y1128067D01*
X5412434Y1128067D01*
X5666433Y5700066D02*
X5666433Y5806133D01*
X5560367Y5806133D01*
X5560367Y5700066D01*
X5666433Y5700066D01*
X6428433Y1128067D02*
X6428433Y1234134D01*
X6322366Y1234134D01*
X6322366Y1128067D01*
X6428433Y1128067D01*
X6682433Y5700066D02*
X6682433Y5806133D01*
X6576366Y5806133D01*
X6576366Y5700066D01*
X6682433Y5700066D01*
X7190433Y5700066D02*
X7190433Y5806133D01*
X7084366Y5806133D01*
X7084366Y5700066D01*
X7190433Y5700066D01*
X7444433Y1128067D02*
X7444433Y1234134D01*
X7338366Y1234134D01*
X7338366Y1128067D01*
X7444433Y1128067D01*
X4640000Y6292500D02*
X4727500Y6380000D01*
X4640000Y6467500D01*
X4552500Y6380000D01*
X4640000Y6292500D01*
X4635500Y7580600D02*
X4723000Y7668100D01*
X4635500Y7755600D01*
X4548000Y7668100D01*
X4635500Y7580600D01*
X6375400Y344300D02*
X6462900Y431800D01*
X6375400Y519300D01*
X6287900Y431800D01*
X6375400Y344300D01*
X7239000Y344300D02*
X7326500Y431800D01*
X7239000Y519300D01*
X7151500Y431800D01*
X7239000Y344300D01*
X2159000Y357000D02*
X2246500Y444500D01*
X2159000Y532000D01*
X2071500Y444500D01*
X2159000Y357000D01*
X3180000Y357000D02*
X3267500Y444500D01*
X3180000Y532000D01*
X3092500Y444500D01*
X3180000Y357000D01*
X400000Y6292500D02*
X487500Y6380000D01*
X400000Y6467500D01*
X312500Y6380000D01*
X400000Y6292500D01*
X393700Y7572500D02*
X481200Y7660000D01*
X393700Y7747500D01*
X306200Y7660000D01*
X393700Y7572500D01*
X406400Y5600700D02*
X609600Y5397500D01*
X609600Y5600700D02*
X406400Y5397500D01*
X609600Y5499100D02*
G75*
G03*
X609600Y5499100I-101600J0D01*
G01*
X3708400Y1536700D02*
X3911600Y1333500D01*
X3911600Y1536700D02*
X3708400Y1333500D01*
X3911600Y1435100D02*
G75*
G03*
X3911600Y1435100I-101600J0D01*
G01*
X4622800Y5600700D02*
X4826000Y5397500D01*
X4826000Y5600700D02*
X4622800Y5397500D01*
X4826000Y5499100D02*
G75*
G03*
X4826000Y5499100I-101600J0D01*
G01*
X7924800Y1536700D02*
X8128000Y1333500D01*
X8128000Y1536700D02*
X7924800Y1333500D01*
X8128000Y1435100D02*
G75*
G03*
X8128000Y1435100I-101600J0D01*
G01*
X7840000Y661000D02*
X8160000Y341000D01*
X8160000Y661000D02*
X7840000Y341000D01*
X8000000Y661000D02*
X8000000Y341000D01*
X7840000Y501000D02*
X8160000Y501000D01*
X340000Y661000D02*
X660000Y341000D01*
X660000Y661000D02*
X340000Y341000D01*
X500000Y661000D02*
X500000Y341000D01*
X340000Y501000D02*
X660000Y501000D01*
X2840000Y7661000D02*
X3160000Y7341000D01*
X3160000Y7661000D02*
X2840000Y7341000D01*
X3000000Y7661000D02*
X3000000Y7341000D01*
X2840000Y7501000D02*
X3160000Y7501000D01*
X7840000Y7661000D02*
X8160000Y7341000D01*
X8160000Y7661000D02*
X7840000Y7341000D01*
X8000000Y7661000D02*
X8000000Y7341000D01*
X7840000Y7501000D02*
X8160000Y7501000D01*
D12*
X281428Y-469714D02*
X281428Y-169714D01*
X352857Y-169714D01*
X395714Y-184000D01*
X424286Y-212571D01*
X438571Y-241143D01*
X452857Y-298286D01*
X452857Y-341143D01*
X438571Y-398286D01*
X424286Y-426857D01*
X395714Y-455429D01*
X352857Y-469714D01*
X281428Y-469714D01*
X581428Y-469714D02*
X581428Y-269714D01*
X581428Y-326857D02*
X595714Y-298286D01*
X610000Y-284000D01*
X638571Y-269714D01*
X667143Y-269714D01*
X767143Y-469714D02*
X767143Y-269714D01*
X767143Y-169714D02*
X752857Y-184000D01*
X767143Y-198286D01*
X781428Y-184000D01*
X767143Y-169714D01*
X767143Y-198286D01*
X952857Y-469714D02*
X924286Y-455429D01*
X910000Y-426857D01*
X910000Y-169714D01*
X1110000Y-469714D02*
X1081428Y-455429D01*
X1067143Y-426857D01*
X1067143Y-169714D01*
X1452857Y-469714D02*
X1452857Y-169714D01*
X1552857Y-384000D01*
X1652857Y-169714D01*
X1652857Y-469714D01*
X1924286Y-469714D02*
X1924286Y-312572D01*
X1910000Y-284000D01*
X1881428Y-269714D01*
X1824286Y-269714D01*
X1795714Y-284000D01*
X1924286Y-455429D02*
X1895714Y-469714D01*
X1824286Y-469714D01*
X1795714Y-455429D01*
X1781428Y-426857D01*
X1781428Y-398286D01*
X1795714Y-369714D01*
X1824286Y-355429D01*
X1895714Y-355429D01*
X1924286Y-341143D01*
X2067143Y-269714D02*
X2067143Y-569714D01*
X2067143Y-284000D02*
X2095714Y-269714D01*
X2152857Y-269714D01*
X2181428Y-284000D01*
X2195714Y-298286D01*
X2210000Y-326857D01*
X2210000Y-412571D01*
X2195714Y-441143D01*
X2181428Y-455429D01*
X2152857Y-469714D01*
X2095714Y-469714D01*
X2067143Y-455429D01*
X2338571Y-441143D02*
X2352857Y-455429D01*
X2338571Y-469714D01*
X2324286Y-455429D01*
X2338571Y-441143D01*
X2338571Y-469714D01*
X2338571Y-284000D02*
X2352857Y-298286D01*
X2338571Y-312572D01*
X2324286Y-298286D01*
X2338571Y-284000D01*
X2338571Y-312572D01*
X-45000Y-944000D02*
X-5000Y-984000D01*
X-5000Y-944000D02*
X-45000Y-984000D01*
X338571Y-799714D02*
X367143Y-799714D01*
X395714Y-814000D01*
X410000Y-828286D01*
X424286Y-856857D01*
X438571Y-914000D01*
X438571Y-985429D01*
X424286Y-1042571D01*
X410000Y-1071143D01*
X395714Y-1085429D01*
X367143Y-1099714D01*
X338571Y-1099714D01*
X310000Y-1085429D01*
X295714Y-1071143D01*
X281428Y-1042571D01*
X267143Y-985429D01*
X267143Y-914000D01*
X281428Y-856857D01*
X295714Y-828286D01*
X310000Y-814000D01*
X338571Y-799714D01*
X567143Y-1071143D02*
X581428Y-1085429D01*
X567143Y-1099714D01*
X552857Y-1085429D01*
X567143Y-1071143D01*
X567143Y-1099714D01*
X838571Y-899714D02*
X838571Y-1099714D01*
X767143Y-785429D02*
X695714Y-999714D01*
X881428Y-999714D01*
X1052857Y-799714D02*
X1081428Y-799714D01*
X1110000Y-814000D01*
X1124286Y-828286D01*
X1138571Y-856857D01*
X1152857Y-914000D01*
X1152857Y-985429D01*
X1138571Y-1042571D01*
X1124286Y-1071143D01*
X1110000Y-1085429D01*
X1081428Y-1099714D01*
X1052857Y-1099714D01*
X1024286Y-1085429D01*
X1010000Y-1071143D01*
X995714Y-1042571D01*
X981428Y-985429D01*
X981428Y-914000D01*
X995714Y-856857D01*
X1010000Y-828286D01*
X1024286Y-814000D01*
X1052857Y-799714D01*
X1281428Y-1099714D02*
X1281428Y-899714D01*
X1281428Y-928286D02*
X1295714Y-914000D01*
X1324286Y-899714D01*
X1367143Y-899714D01*
X1395714Y-914000D01*
X1410000Y-942571D01*
X1410000Y-1099714D01*
X1410000Y-942571D02*
X1424286Y-914000D01*
X1452857Y-899714D01*
X1495714Y-899714D01*
X1524286Y-914000D01*
X1538571Y-942571D01*
X1538571Y-1099714D01*
X1681428Y-1099714D02*
X1681428Y-899714D01*
X1681428Y-928286D02*
X1695714Y-914000D01*
X1724286Y-899714D01*
X1767143Y-899714D01*
X1795714Y-914000D01*
X1810000Y-942571D01*
X1810000Y-1099714D01*
X1810000Y-942571D02*
X1824286Y-914000D01*
X1852857Y-899714D01*
X1895714Y-899714D01*
X1924286Y-914000D01*
X1938571Y-942571D01*
X1938571Y-1099714D01*
X2524286Y-785429D02*
X2267143Y-1171143D01*
X2910000Y-799714D02*
X2938571Y-799714D01*
X2967143Y-814000D01*
X2981428Y-828286D01*
X2995714Y-856857D01*
X3010000Y-914000D01*
X3010000Y-985429D01*
X2995714Y-1042571D01*
X2981428Y-1071143D01*
X2967143Y-1085429D01*
X2938571Y-1099714D01*
X2910000Y-1099714D01*
X2881428Y-1085429D01*
X2867143Y-1071143D01*
X2852857Y-1042571D01*
X2838571Y-985429D01*
X2838571Y-914000D01*
X2852857Y-856857D01*
X2867143Y-828286D01*
X2881428Y-814000D01*
X2910000Y-799714D01*
X3138571Y-1071143D02*
X3152857Y-1085429D01*
X3138571Y-1099714D01*
X3124286Y-1085429D01*
X3138571Y-1071143D01*
X3138571Y-1099714D01*
X3338571Y-799714D02*
X3367143Y-799714D01*
X3395714Y-814000D01*
X3410000Y-828286D01*
X3424286Y-856857D01*
X3438571Y-914000D01*
X3438571Y-985429D01*
X3424286Y-1042571D01*
X3410000Y-1071143D01*
X3395714Y-1085429D01*
X3367143Y-1099714D01*
X3338571Y-1099714D01*
X3310000Y-1085429D01*
X3295714Y-1071143D01*
X3281428Y-1042571D01*
X3267143Y-985429D01*
X3267143Y-914000D01*
X3281428Y-856857D01*
X3295714Y-828286D01*
X3310000Y-814000D01*
X3338571Y-799714D01*
X3724286Y-1099714D02*
X3552857Y-1099714D01*
X3638571Y-1099714D02*
X3638571Y-799714D01*
X3610000Y-842571D01*
X3581428Y-871143D01*
X3552857Y-885429D01*
X3981428Y-799714D02*
X3924286Y-799714D01*
X3895714Y-814000D01*
X3881428Y-828286D01*
X3852857Y-871143D01*
X3838571Y-928286D01*
X3838571Y-1042571D01*
X3852857Y-1071143D01*
X3867143Y-1085429D01*
X3895714Y-1099714D01*
X3952857Y-1099714D01*
X3981428Y-1085429D01*
X3995714Y-1071143D01*
X4010000Y-1042571D01*
X4010000Y-971143D01*
X3995714Y-942571D01*
X3981428Y-928286D01*
X3952857Y-914000D01*
X3895714Y-914000D01*
X3867143Y-928286D01*
X3852857Y-942571D01*
X3838571Y-971143D01*
X4124286Y-799714D02*
X4124286Y-856857D01*
X4238571Y-799714D02*
X4238571Y-856857D01*
X4681428Y-1214000D02*
X4667143Y-1199714D01*
X4638571Y-1156857D01*
X4624286Y-1128286D01*
X4610000Y-1085429D01*
X4595714Y-1014000D01*
X4595714Y-956857D01*
X4610000Y-885429D01*
X4624286Y-842571D01*
X4638571Y-814000D01*
X4667143Y-771143D01*
X4681428Y-756857D01*
X4781428Y-828286D02*
X4795714Y-814000D01*
X4824286Y-799714D01*
X4895714Y-799714D01*
X4924286Y-814000D01*
X4938571Y-828286D01*
X4952857Y-856857D01*
X4952857Y-885429D01*
X4938571Y-928286D01*
X4767143Y-1099714D01*
X4952857Y-1099714D01*
X5310000Y-1099714D02*
X5310000Y-799714D01*
X5438571Y-1099714D02*
X5438571Y-942571D01*
X5424286Y-914000D01*
X5395714Y-899714D01*
X5352857Y-899714D01*
X5324286Y-914000D01*
X5310000Y-928286D01*
X5624286Y-1099714D02*
X5595714Y-1085429D01*
X5581428Y-1071143D01*
X5567143Y-1042571D01*
X5567143Y-956857D01*
X5581428Y-928286D01*
X5595714Y-914000D01*
X5624286Y-899714D01*
X5667143Y-899714D01*
X5695714Y-914000D01*
X5710000Y-928286D01*
X5724286Y-956857D01*
X5724286Y-1042571D01*
X5710000Y-1071143D01*
X5695714Y-1085429D01*
X5667143Y-1099714D01*
X5624286Y-1099714D01*
X5895714Y-1099714D02*
X5867143Y-1085429D01*
X5852857Y-1056857D01*
X5852857Y-799714D01*
X6124286Y-1085429D02*
X6095714Y-1099714D01*
X6038571Y-1099714D01*
X6010000Y-1085429D01*
X5995714Y-1056857D01*
X5995714Y-942571D01*
X6010000Y-914000D01*
X6038571Y-899714D01*
X6095714Y-899714D01*
X6124286Y-914000D01*
X6138571Y-942571D01*
X6138571Y-971143D01*
X5995714Y-999714D01*
X6252857Y-1085429D02*
X6281428Y-1099714D01*
X6338571Y-1099714D01*
X6367143Y-1085429D01*
X6381428Y-1056857D01*
X6381428Y-1042571D01*
X6367143Y-1014000D01*
X6338571Y-999714D01*
X6295714Y-999714D01*
X6267143Y-985429D01*
X6252857Y-956857D01*
X6252857Y-942571D01*
X6267143Y-914000D01*
X6295714Y-899714D01*
X6338571Y-899714D01*
X6367143Y-914000D01*
X6481428Y-1214000D02*
X6495714Y-1199714D01*
X6524286Y-1156857D01*
X6538571Y-1128286D01*
X6552857Y-1085429D01*
X6567143Y-1014000D01*
X6567143Y-956857D01*
X6552857Y-885429D01*
X6538571Y-842571D01*
X6524286Y-814000D01*
X6495714Y-771143D01*
X6481428Y-756857D01*
X-5000Y-1360000D02*
G75*
G03*
X-5000Y-1360000I-50000J0D01*
G01*
X438571Y-1495714D02*
X267143Y-1495714D01*
X352857Y-1495714D02*
X352857Y-1195714D01*
X324286Y-1238572D01*
X295714Y-1267143D01*
X267143Y-1281429D01*
X567143Y-1467143D02*
X581428Y-1481429D01*
X567143Y-1495714D01*
X552857Y-1481429D01*
X567143Y-1467143D01*
X567143Y-1495714D01*
X767143Y-1195714D02*
X795714Y-1195714D01*
X824286Y-1210000D01*
X838571Y-1224286D01*
X852857Y-1252857D01*
X867143Y-1310000D01*
X867143Y-1381429D01*
X852857Y-1438571D01*
X838571Y-1467143D01*
X824286Y-1481429D01*
X795714Y-1495714D01*
X767143Y-1495714D01*
X738571Y-1481429D01*
X724286Y-1467143D01*
X710000Y-1438571D01*
X695714Y-1381429D01*
X695714Y-1310000D01*
X710000Y-1252857D01*
X724286Y-1224286D01*
X738571Y-1210000D01*
X767143Y-1195714D01*
X1052857Y-1195714D02*
X1081428Y-1195714D01*
X1110000Y-1210000D01*
X1124286Y-1224286D01*
X1138571Y-1252857D01*
X1152857Y-1310000D01*
X1152857Y-1381429D01*
X1138571Y-1438571D01*
X1124286Y-1467143D01*
X1110000Y-1481429D01*
X1081428Y-1495714D01*
X1052857Y-1495714D01*
X1024286Y-1481429D01*
X1010000Y-1467143D01*
X995714Y-1438571D01*
X981428Y-1381429D01*
X981428Y-1310000D01*
X995714Y-1252857D01*
X1010000Y-1224286D01*
X1024286Y-1210000D01*
X1052857Y-1195714D01*
X1281428Y-1495714D02*
X1281428Y-1295714D01*
X1281428Y-1324286D02*
X1295714Y-1310000D01*
X1324286Y-1295714D01*
X1367143Y-1295714D01*
X1395714Y-1310000D01*
X1410000Y-1338572D01*
X1410000Y-1495714D01*
X1410000Y-1338572D02*
X1424286Y-1310000D01*
X1452857Y-1295714D01*
X1495714Y-1295714D01*
X1524286Y-1310000D01*
X1538571Y-1338572D01*
X1538571Y-1495714D01*
X1681428Y-1495714D02*
X1681428Y-1295714D01*
X1681428Y-1324286D02*
X1695714Y-1310000D01*
X1724286Y-1295714D01*
X1767143Y-1295714D01*
X1795714Y-1310000D01*
X1810000Y-1338572D01*
X1810000Y-1495714D01*
X1810000Y-1338572D02*
X1824286Y-1310000D01*
X1852857Y-1295714D01*
X1895714Y-1295714D01*
X1924286Y-1310000D01*
X1938571Y-1338572D01*
X1938571Y-1495714D01*
X2524286Y-1181429D02*
X2267143Y-1567143D01*
X2910000Y-1195714D02*
X2938571Y-1195714D01*
X2967143Y-1210000D01*
X2981428Y-1224286D01*
X2995714Y-1252857D01*
X3010000Y-1310000D01*
X3010000Y-1381429D01*
X2995714Y-1438571D01*
X2981428Y-1467143D01*
X2967143Y-1481429D01*
X2938571Y-1495714D01*
X2910000Y-1495714D01*
X2881428Y-1481429D01*
X2867143Y-1467143D01*
X2852857Y-1438571D01*
X2838571Y-1381429D01*
X2838571Y-1310000D01*
X2852857Y-1252857D01*
X2867143Y-1224286D01*
X2881428Y-1210000D01*
X2910000Y-1195714D01*
X3138571Y-1467143D02*
X3152857Y-1481429D01*
X3138571Y-1495714D01*
X3124286Y-1481429D01*
X3138571Y-1467143D01*
X3138571Y-1495714D01*
X3338571Y-1195714D02*
X3367143Y-1195714D01*
X3395714Y-1210000D01*
X3410000Y-1224286D01*
X3424286Y-1252857D01*
X3438571Y-1310000D01*
X3438571Y-1381429D01*
X3424286Y-1438571D01*
X3410000Y-1467143D01*
X3395714Y-1481429D01*
X3367143Y-1495714D01*
X3338571Y-1495714D01*
X3310000Y-1481429D01*
X3295714Y-1467143D01*
X3281428Y-1438571D01*
X3267143Y-1381429D01*
X3267143Y-1310000D01*
X3281428Y-1252857D01*
X3295714Y-1224286D01*
X3310000Y-1210000D01*
X3338571Y-1195714D01*
X3538571Y-1195714D02*
X3724286Y-1195714D01*
X3624286Y-1310000D01*
X3667143Y-1310000D01*
X3695714Y-1324286D01*
X3710000Y-1338572D01*
X3724286Y-1367143D01*
X3724286Y-1438571D01*
X3710000Y-1467143D01*
X3695714Y-1481429D01*
X3667143Y-1495714D01*
X3581428Y-1495714D01*
X3552857Y-1481429D01*
X3538571Y-1467143D01*
X3867143Y-1495714D02*
X3924286Y-1495714D01*
X3952857Y-1481429D01*
X3967143Y-1467143D01*
X3995714Y-1424286D01*
X4010000Y-1367143D01*
X4010000Y-1252857D01*
X3995714Y-1224286D01*
X3981428Y-1210000D01*
X3952857Y-1195714D01*
X3895714Y-1195714D01*
X3867143Y-1210000D01*
X3852857Y-1224286D01*
X3838571Y-1252857D01*
X3838571Y-1324286D01*
X3852857Y-1352857D01*
X3867143Y-1367143D01*
X3895714Y-1381429D01*
X3952857Y-1381429D01*
X3981428Y-1367143D01*
X3995714Y-1352857D01*
X4010000Y-1324286D01*
X4124286Y-1195714D02*
X4124286Y-1252857D01*
X4238571Y-1195714D02*
X4238571Y-1252857D01*
X4681428Y-1610000D02*
X4667143Y-1595714D01*
X4638571Y-1552857D01*
X4624286Y-1524286D01*
X4610000Y-1481429D01*
X4595714Y-1410000D01*
X4595714Y-1352857D01*
X4610000Y-1281429D01*
X4624286Y-1238572D01*
X4638571Y-1210000D01*
X4667143Y-1167143D01*
X4681428Y-1152857D01*
X4952857Y-1495714D02*
X4781428Y-1495714D01*
X4867143Y-1495714D02*
X4867143Y-1195714D01*
X4838571Y-1238572D01*
X4810000Y-1267143D01*
X4781428Y-1281429D01*
X5067143Y-1224286D02*
X5081428Y-1210000D01*
X5110000Y-1195714D01*
X5181428Y-1195714D01*
X5210000Y-1210000D01*
X5224286Y-1224286D01*
X5238571Y-1252857D01*
X5238571Y-1281429D01*
X5224286Y-1324286D01*
X5052857Y-1495714D01*
X5238571Y-1495714D01*
X5595714Y-1495714D02*
X5595714Y-1195714D01*
X5724286Y-1495714D02*
X5724286Y-1338572D01*
X5710000Y-1310000D01*
X5681428Y-1295714D01*
X5638571Y-1295714D01*
X5610000Y-1310000D01*
X5595714Y-1324286D01*
X5910000Y-1495714D02*
X5881428Y-1481429D01*
X5867143Y-1467143D01*
X5852857Y-1438571D01*
X5852857Y-1352857D01*
X5867143Y-1324286D01*
X5881428Y-1310000D01*
X5910000Y-1295714D01*
X5952857Y-1295714D01*
X5981428Y-1310000D01*
X5995714Y-1324286D01*
X6010000Y-1352857D01*
X6010000Y-1438571D01*
X5995714Y-1467143D01*
X5981428Y-1481429D01*
X5952857Y-1495714D01*
X5910000Y-1495714D01*
X6181428Y-1495714D02*
X6152857Y-1481429D01*
X6138571Y-1452857D01*
X6138571Y-1195714D01*
X6410000Y-1481429D02*
X6381428Y-1495714D01*
X6324286Y-1495714D01*
X6295714Y-1481429D01*
X6281428Y-1452857D01*
X6281428Y-1338572D01*
X6295714Y-1310000D01*
X6324286Y-1295714D01*
X6381428Y-1295714D01*
X6410000Y-1310000D01*
X6424286Y-1338572D01*
X6424286Y-1367143D01*
X6281428Y-1395714D01*
X6538571Y-1481429D02*
X6567143Y-1495714D01*
X6624286Y-1495714D01*
X6652857Y-1481429D01*
X6667143Y-1452857D01*
X6667143Y-1438571D01*
X6652857Y-1410000D01*
X6624286Y-1395714D01*
X6581428Y-1395714D01*
X6552857Y-1381429D01*
X6538571Y-1352857D01*
X6538571Y-1338572D01*
X6552857Y-1310000D01*
X6581428Y-1295714D01*
X6624286Y-1295714D01*
X6652857Y-1310000D01*
X6767143Y-1610000D02*
X6781428Y-1595714D01*
X6810000Y-1552857D01*
X6824286Y-1524286D01*
X6838571Y-1481429D01*
X6852857Y-1410000D01*
X6852857Y-1352857D01*
X6838571Y-1281429D01*
X6824286Y-1238572D01*
X6810000Y-1210000D01*
X6781428Y-1167143D01*
X6767143Y-1152857D01*
X-65000Y-1696000D02*
X-65000Y-1816000D01*
X-125000Y-1756000D02*
X-5000Y-1756000D01*
X438571Y-1891714D02*
X267143Y-1891714D01*
X352857Y-1891714D02*
X352857Y-1591714D01*
X324286Y-1634571D01*
X295714Y-1663143D01*
X267143Y-1677429D01*
X567143Y-1863143D02*
X581428Y-1877429D01*
X567143Y-1891714D01*
X552857Y-1877429D01*
X567143Y-1863143D01*
X567143Y-1891714D01*
X695714Y-1620286D02*
X710000Y-1606000D01*
X738571Y-1591714D01*
X810000Y-1591714D01*
X838571Y-1606000D01*
X852857Y-1620286D01*
X867143Y-1648857D01*
X867143Y-1677429D01*
X852857Y-1720286D01*
X681428Y-1891714D01*
X867143Y-1891714D01*
X1052857Y-1591714D02*
X1081428Y-1591714D01*
X1110000Y-1606000D01*
X1124286Y-1620286D01*
X1138571Y-1648857D01*
X1152857Y-1706000D01*
X1152857Y-1777429D01*
X1138571Y-1834571D01*
X1124286Y-1863143D01*
X1110000Y-1877429D01*
X1081428Y-1891714D01*
X1052857Y-1891714D01*
X1024286Y-1877429D01*
X1010000Y-1863143D01*
X995714Y-1834571D01*
X981428Y-1777429D01*
X981428Y-1706000D01*
X995714Y-1648857D01*
X1010000Y-1620286D01*
X1024286Y-1606000D01*
X1052857Y-1591714D01*
X1281428Y-1891714D02*
X1281428Y-1691714D01*
X1281428Y-1720286D02*
X1295714Y-1706000D01*
X1324286Y-1691714D01*
X1367143Y-1691714D01*
X1395714Y-1706000D01*
X1410000Y-1734571D01*
X1410000Y-1891714D01*
X1410000Y-1734571D02*
X1424286Y-1706000D01*
X1452857Y-1691714D01*
X1495714Y-1691714D01*
X1524286Y-1706000D01*
X1538571Y-1734571D01*
X1538571Y-1891714D01*
X1681428Y-1891714D02*
X1681428Y-1691714D01*
X1681428Y-1720286D02*
X1695714Y-1706000D01*
X1724286Y-1691714D01*
X1767143Y-1691714D01*
X1795714Y-1706000D01*
X1810000Y-1734571D01*
X1810000Y-1891714D01*
X1810000Y-1734571D02*
X1824286Y-1706000D01*
X1852857Y-1691714D01*
X1895714Y-1691714D01*
X1924286Y-1706000D01*
X1938571Y-1734571D01*
X1938571Y-1891714D01*
X2524286Y-1577429D02*
X2267143Y-1963143D01*
X2910000Y-1591714D02*
X2938571Y-1591714D01*
X2967143Y-1606000D01*
X2981428Y-1620286D01*
X2995714Y-1648857D01*
X3010000Y-1706000D01*
X3010000Y-1777429D01*
X2995714Y-1834571D01*
X2981428Y-1863143D01*
X2967143Y-1877429D01*
X2938571Y-1891714D01*
X2910000Y-1891714D01*
X2881428Y-1877429D01*
X2867143Y-1863143D01*
X2852857Y-1834571D01*
X2838571Y-1777429D01*
X2838571Y-1706000D01*
X2852857Y-1648857D01*
X2867143Y-1620286D01*
X2881428Y-1606000D01*
X2910000Y-1591714D01*
X3138571Y-1863143D02*
X3152857Y-1877429D01*
X3138571Y-1891714D01*
X3124286Y-1877429D01*
X3138571Y-1863143D01*
X3138571Y-1891714D01*
X3338571Y-1591714D02*
X3367143Y-1591714D01*
X3395714Y-1606000D01*
X3410000Y-1620286D01*
X3424286Y-1648857D01*
X3438571Y-1706000D01*
X3438571Y-1777429D01*
X3424286Y-1834571D01*
X3410000Y-1863143D01*
X3395714Y-1877429D01*
X3367143Y-1891714D01*
X3338571Y-1891714D01*
X3310000Y-1877429D01*
X3295714Y-1863143D01*
X3281428Y-1834571D01*
X3267143Y-1777429D01*
X3267143Y-1706000D01*
X3281428Y-1648857D01*
X3295714Y-1620286D01*
X3310000Y-1606000D01*
X3338571Y-1591714D01*
X3695714Y-1691714D02*
X3695714Y-1891714D01*
X3624286Y-1577429D02*
X3552857Y-1791714D01*
X3738571Y-1791714D01*
X3824286Y-1591714D02*
X4024286Y-1591714D01*
X3895714Y-1891714D01*
X4124286Y-1591714D02*
X4124286Y-1648857D01*
X4238571Y-1591714D02*
X4238571Y-1648857D01*
X4681428Y-2006000D02*
X4667143Y-1991714D01*
X4638571Y-1948857D01*
X4624286Y-1920286D01*
X4610000Y-1877429D01*
X4595714Y-1806000D01*
X4595714Y-1748857D01*
X4610000Y-1677429D01*
X4624286Y-1634571D01*
X4638571Y-1606000D01*
X4667143Y-1563143D01*
X4681428Y-1548857D01*
X4924286Y-1691714D02*
X4924286Y-1891714D01*
X4852857Y-1577429D02*
X4781428Y-1791714D01*
X4967143Y-1791714D01*
X5310000Y-1891714D02*
X5310000Y-1591714D01*
X5438571Y-1891714D02*
X5438571Y-1734571D01*
X5424286Y-1706000D01*
X5395714Y-1691714D01*
X5352857Y-1691714D01*
X5324286Y-1706000D01*
X5310000Y-1720286D01*
X5624286Y-1891714D02*
X5595714Y-1877429D01*
X5581428Y-1863143D01*
X5567143Y-1834571D01*
X5567143Y-1748857D01*
X5581428Y-1720286D01*
X5595714Y-1706000D01*
X5624286Y-1691714D01*
X5667143Y-1691714D01*
X5695714Y-1706000D01*
X5710000Y-1720286D01*
X5724286Y-1748857D01*
X5724286Y-1834571D01*
X5710000Y-1863143D01*
X5695714Y-1877429D01*
X5667143Y-1891714D01*
X5624286Y-1891714D01*
X5895714Y-1891714D02*
X5867143Y-1877429D01*
X5852857Y-1848857D01*
X5852857Y-1591714D01*
X6124286Y-1877429D02*
X6095714Y-1891714D01*
X6038571Y-1891714D01*
X6010000Y-1877429D01*
X5995714Y-1848857D01*
X5995714Y-1734571D01*
X6010000Y-1706000D01*
X6038571Y-1691714D01*
X6095714Y-1691714D01*
X6124286Y-1706000D01*
X6138571Y-1734571D01*
X6138571Y-1763143D01*
X5995714Y-1791714D01*
X6252857Y-1877429D02*
X6281428Y-1891714D01*
X6338571Y-1891714D01*
X6367143Y-1877429D01*
X6381428Y-1848857D01*
X6381428Y-1834571D01*
X6367143Y-1806000D01*
X6338571Y-1791714D01*
X6295714Y-1791714D01*
X6267143Y-1777429D01*
X6252857Y-1748857D01*
X6252857Y-1734571D01*
X6267143Y-1706000D01*
X6295714Y-1691714D01*
X6338571Y-1691714D01*
X6367143Y-1706000D01*
X6481428Y-2006000D02*
X6495714Y-1991714D01*
X6524286Y-1948857D01*
X6538571Y-1920286D01*
X6552857Y-1877429D01*
X6567143Y-1806000D01*
X6567143Y-1748857D01*
X6552857Y-1677429D01*
X6538571Y-1634571D01*
X6524286Y-1606000D01*
X6495714Y-1563143D01*
X6481428Y-1548857D01*
X-26967Y-2205034D02*
X-26967Y-2098967D01*
X-133034Y-2098967D01*
X-133034Y-2205034D01*
X-26967Y-2205034D01*
X438571Y-2287714D02*
X267143Y-2287714D01*
X352857Y-2287714D02*
X352857Y-1987714D01*
X324286Y-2030571D01*
X295714Y-2059143D01*
X267143Y-2073429D01*
X567143Y-2259143D02*
X581428Y-2273429D01*
X567143Y-2287714D01*
X552857Y-2273429D01*
X567143Y-2259143D01*
X567143Y-2287714D01*
X852857Y-1987714D02*
X710000Y-1987714D01*
X695714Y-2130572D01*
X710000Y-2116286D01*
X738571Y-2102000D01*
X810000Y-2102000D01*
X838571Y-2116286D01*
X852857Y-2130572D01*
X867143Y-2159143D01*
X867143Y-2230572D01*
X852857Y-2259143D01*
X838571Y-2273429D01*
X810000Y-2287714D01*
X738571Y-2287714D01*
X710000Y-2273429D01*
X695714Y-2259143D01*
X1052857Y-1987714D02*
X1081428Y-1987714D01*
X1110000Y-2002000D01*
X1124286Y-2016286D01*
X1138571Y-2044857D01*
X1152857Y-2102000D01*
X1152857Y-2173429D01*
X1138571Y-2230572D01*
X1124286Y-2259143D01*
X1110000Y-2273429D01*
X1081428Y-2287714D01*
X1052857Y-2287714D01*
X1024286Y-2273429D01*
X1010000Y-2259143D01*
X995714Y-2230572D01*
X981428Y-2173429D01*
X981428Y-2102000D01*
X995714Y-2044857D01*
X1010000Y-2016286D01*
X1024286Y-2002000D01*
X1052857Y-1987714D01*
X1281428Y-2287714D02*
X1281428Y-2087714D01*
X1281428Y-2116286D02*
X1295714Y-2102000D01*
X1324286Y-2087714D01*
X1367143Y-2087714D01*
X1395714Y-2102000D01*
X1410000Y-2130572D01*
X1410000Y-2287714D01*
X1410000Y-2130572D02*
X1424286Y-2102000D01*
X1452857Y-2087714D01*
X1495714Y-2087714D01*
X1524286Y-2102000D01*
X1538571Y-2130572D01*
X1538571Y-2287714D01*
X1681428Y-2287714D02*
X1681428Y-2087714D01*
X1681428Y-2116286D02*
X1695714Y-2102000D01*
X1724286Y-2087714D01*
X1767143Y-2087714D01*
X1795714Y-2102000D01*
X1810000Y-2130572D01*
X1810000Y-2287714D01*
X1810000Y-2130572D02*
X1824286Y-2102000D01*
X1852857Y-2087714D01*
X1895714Y-2087714D01*
X1924286Y-2102000D01*
X1938571Y-2130572D01*
X1938571Y-2287714D01*
X2524286Y-1973429D02*
X2267143Y-2359143D01*
X2910000Y-1987714D02*
X2938571Y-1987714D01*
X2967143Y-2002000D01*
X2981428Y-2016286D01*
X2995714Y-2044857D01*
X3010000Y-2102000D01*
X3010000Y-2173429D01*
X2995714Y-2230572D01*
X2981428Y-2259143D01*
X2967143Y-2273429D01*
X2938571Y-2287714D01*
X2910000Y-2287714D01*
X2881428Y-2273429D01*
X2867143Y-2259143D01*
X2852857Y-2230572D01*
X2838571Y-2173429D01*
X2838571Y-2102000D01*
X2852857Y-2044857D01*
X2867143Y-2016286D01*
X2881428Y-2002000D01*
X2910000Y-1987714D01*
X3138571Y-2259143D02*
X3152857Y-2273429D01*
X3138571Y-2287714D01*
X3124286Y-2273429D01*
X3138571Y-2259143D01*
X3138571Y-2287714D01*
X3338571Y-1987714D02*
X3367143Y-1987714D01*
X3395714Y-2002000D01*
X3410000Y-2016286D01*
X3424286Y-2044857D01*
X3438571Y-2102000D01*
X3438571Y-2173429D01*
X3424286Y-2230572D01*
X3410000Y-2259143D01*
X3395714Y-2273429D01*
X3367143Y-2287714D01*
X3338571Y-2287714D01*
X3310000Y-2273429D01*
X3295714Y-2259143D01*
X3281428Y-2230572D01*
X3267143Y-2173429D01*
X3267143Y-2102000D01*
X3281428Y-2044857D01*
X3295714Y-2016286D01*
X3310000Y-2002000D01*
X3338571Y-1987714D01*
X3710000Y-1987714D02*
X3567143Y-1987714D01*
X3552857Y-2130572D01*
X3567143Y-2116286D01*
X3595714Y-2102000D01*
X3667143Y-2102000D01*
X3695714Y-2116286D01*
X3710000Y-2130572D01*
X3724286Y-2159143D01*
X3724286Y-2230572D01*
X3710000Y-2259143D01*
X3695714Y-2273429D01*
X3667143Y-2287714D01*
X3595714Y-2287714D01*
X3567143Y-2273429D01*
X3552857Y-2259143D01*
X3867143Y-2287714D02*
X3924286Y-2287714D01*
X3952857Y-2273429D01*
X3967143Y-2259143D01*
X3995714Y-2216286D01*
X4010000Y-2159143D01*
X4010000Y-2044857D01*
X3995714Y-2016286D01*
X3981428Y-2002000D01*
X3952857Y-1987714D01*
X3895714Y-1987714D01*
X3867143Y-2002000D01*
X3852857Y-2016286D01*
X3838571Y-2044857D01*
X3838571Y-2116286D01*
X3852857Y-2144857D01*
X3867143Y-2159143D01*
X3895714Y-2173429D01*
X3952857Y-2173429D01*
X3981428Y-2159143D01*
X3995714Y-2144857D01*
X4010000Y-2116286D01*
X4124286Y-1987714D02*
X4124286Y-2044857D01*
X4238571Y-1987714D02*
X4238571Y-2044857D01*
X4681428Y-2402000D02*
X4667143Y-2387714D01*
X4638571Y-2344857D01*
X4624286Y-2316286D01*
X4610000Y-2273429D01*
X4595714Y-2202000D01*
X4595714Y-2144857D01*
X4610000Y-2073429D01*
X4624286Y-2030571D01*
X4638571Y-2002000D01*
X4667143Y-1959143D01*
X4681428Y-1944857D01*
X4952857Y-2287714D02*
X4781428Y-2287714D01*
X4867143Y-2287714D02*
X4867143Y-1987714D01*
X4838571Y-2030571D01*
X4810000Y-2059143D01*
X4781428Y-2073429D01*
X5067143Y-2016286D02*
X5081428Y-2002000D01*
X5110000Y-1987714D01*
X5181428Y-1987714D01*
X5210000Y-2002000D01*
X5224286Y-2016286D01*
X5238571Y-2044857D01*
X5238571Y-2073429D01*
X5224286Y-2116286D01*
X5052857Y-2287714D01*
X5238571Y-2287714D01*
X5595714Y-2287714D02*
X5595714Y-1987714D01*
X5724286Y-2287714D02*
X5724286Y-2130572D01*
X5710000Y-2102000D01*
X5681428Y-2087714D01*
X5638571Y-2087714D01*
X5610000Y-2102000D01*
X5595714Y-2116286D01*
X5910000Y-2287714D02*
X5881428Y-2273429D01*
X5867143Y-2259143D01*
X5852857Y-2230572D01*
X5852857Y-2144857D01*
X5867143Y-2116286D01*
X5881428Y-2102000D01*
X5910000Y-2087714D01*
X5952857Y-2087714D01*
X5981428Y-2102000D01*
X5995714Y-2116286D01*
X6010000Y-2144857D01*
X6010000Y-2230572D01*
X5995714Y-2259143D01*
X5981428Y-2273429D01*
X5952857Y-2287714D01*
X5910000Y-2287714D01*
X6181428Y-2287714D02*
X6152857Y-2273429D01*
X6138571Y-2244857D01*
X6138571Y-1987714D01*
X6410000Y-2273429D02*
X6381428Y-2287714D01*
X6324286Y-2287714D01*
X6295714Y-2273429D01*
X6281428Y-2244857D01*
X6281428Y-2130572D01*
X6295714Y-2102000D01*
X6324286Y-2087714D01*
X6381428Y-2087714D01*
X6410000Y-2102000D01*
X6424286Y-2130572D01*
X6424286Y-2159143D01*
X6281428Y-2187714D01*
X6538571Y-2273429D02*
X6567143Y-2287714D01*
X6624286Y-2287714D01*
X6652857Y-2273429D01*
X6667143Y-2244857D01*
X6667143Y-2230572D01*
X6652857Y-2202000D01*
X6624286Y-2187714D01*
X6581428Y-2187714D01*
X6552857Y-2173429D01*
X6538571Y-2144857D01*
X6538571Y-2130572D01*
X6552857Y-2102000D01*
X6581428Y-2087714D01*
X6624286Y-2087714D01*
X6652857Y-2102000D01*
X6767143Y-2402000D02*
X6781428Y-2387714D01*
X6810000Y-2344857D01*
X6824286Y-2316286D01*
X6838571Y-2273429D01*
X6852857Y-2202000D01*
X6852857Y-2144857D01*
X6838571Y-2073429D01*
X6824286Y-2030571D01*
X6810000Y-2002000D01*
X6781428Y-1959143D01*
X6767143Y-1944857D01*
X-92500Y-2635500D02*
X-5000Y-2548000D01*
X-92500Y-2460500D01*
X-180000Y-2548000D01*
X-92500Y-2635500D01*
X438571Y-2683714D02*
X267143Y-2683714D01*
X352857Y-2683714D02*
X352857Y-2383714D01*
X324286Y-2426572D01*
X295714Y-2455143D01*
X267143Y-2469429D01*
X567143Y-2655143D02*
X581428Y-2669429D01*
X567143Y-2683714D01*
X552857Y-2669429D01*
X567143Y-2655143D01*
X567143Y-2683714D01*
X681428Y-2383714D02*
X881428Y-2383714D01*
X752857Y-2683714D01*
X1138571Y-2383714D02*
X995714Y-2383714D01*
X981428Y-2526572D01*
X995714Y-2512286D01*
X1024286Y-2498000D01*
X1095714Y-2498000D01*
X1124286Y-2512286D01*
X1138571Y-2526572D01*
X1152857Y-2555143D01*
X1152857Y-2626572D01*
X1138571Y-2655143D01*
X1124286Y-2669429D01*
X1095714Y-2683714D01*
X1024286Y-2683714D01*
X995714Y-2669429D01*
X981428Y-2655143D01*
X1281428Y-2683714D02*
X1281428Y-2483714D01*
X1281428Y-2512286D02*
X1295714Y-2498000D01*
X1324286Y-2483714D01*
X1367143Y-2483714D01*
X1395714Y-2498000D01*
X1410000Y-2526572D01*
X1410000Y-2683714D01*
X1410000Y-2526572D02*
X1424286Y-2498000D01*
X1452857Y-2483714D01*
X1495714Y-2483714D01*
X1524286Y-2498000D01*
X1538571Y-2526572D01*
X1538571Y-2683714D01*
X1681428Y-2683714D02*
X1681428Y-2483714D01*
X1681428Y-2512286D02*
X1695714Y-2498000D01*
X1724286Y-2483714D01*
X1767143Y-2483714D01*
X1795714Y-2498000D01*
X1810000Y-2526572D01*
X1810000Y-2683714D01*
X1810000Y-2526572D02*
X1824286Y-2498000D01*
X1852857Y-2483714D01*
X1895714Y-2483714D01*
X1924286Y-2498000D01*
X1938571Y-2526572D01*
X1938571Y-2683714D01*
X2524286Y-2369429D02*
X2267143Y-2755143D01*
X2910000Y-2383714D02*
X2938571Y-2383714D01*
X2967143Y-2398000D01*
X2981428Y-2412286D01*
X2995714Y-2440857D01*
X3010000Y-2498000D01*
X3010000Y-2569429D01*
X2995714Y-2626572D01*
X2981428Y-2655143D01*
X2967143Y-2669429D01*
X2938571Y-2683714D01*
X2910000Y-2683714D01*
X2881428Y-2669429D01*
X2867143Y-2655143D01*
X2852857Y-2626572D01*
X2838571Y-2569429D01*
X2838571Y-2498000D01*
X2852857Y-2440857D01*
X2867143Y-2412286D01*
X2881428Y-2398000D01*
X2910000Y-2383714D01*
X3138571Y-2655143D02*
X3152857Y-2669429D01*
X3138571Y-2683714D01*
X3124286Y-2669429D01*
X3138571Y-2655143D01*
X3138571Y-2683714D01*
X3338571Y-2383714D02*
X3367143Y-2383714D01*
X3395714Y-2398000D01*
X3410000Y-2412286D01*
X3424286Y-2440857D01*
X3438571Y-2498000D01*
X3438571Y-2569429D01*
X3424286Y-2626572D01*
X3410000Y-2655143D01*
X3395714Y-2669429D01*
X3367143Y-2683714D01*
X3338571Y-2683714D01*
X3310000Y-2669429D01*
X3295714Y-2655143D01*
X3281428Y-2626572D01*
X3267143Y-2569429D01*
X3267143Y-2498000D01*
X3281428Y-2440857D01*
X3295714Y-2412286D01*
X3310000Y-2398000D01*
X3338571Y-2383714D01*
X3695714Y-2383714D02*
X3638571Y-2383714D01*
X3610000Y-2398000D01*
X3595714Y-2412286D01*
X3567143Y-2455143D01*
X3552857Y-2512286D01*
X3552857Y-2626572D01*
X3567143Y-2655143D01*
X3581428Y-2669429D01*
X3610000Y-2683714D01*
X3667143Y-2683714D01*
X3695714Y-2669429D01*
X3710000Y-2655143D01*
X3724286Y-2626572D01*
X3724286Y-2555143D01*
X3710000Y-2526572D01*
X3695714Y-2512286D01*
X3667143Y-2498000D01*
X3610000Y-2498000D01*
X3581428Y-2512286D01*
X3567143Y-2526572D01*
X3552857Y-2555143D01*
X3867143Y-2683714D02*
X3924286Y-2683714D01*
X3952857Y-2669429D01*
X3967143Y-2655143D01*
X3995714Y-2612286D01*
X4010000Y-2555143D01*
X4010000Y-2440857D01*
X3995714Y-2412286D01*
X3981428Y-2398000D01*
X3952857Y-2383714D01*
X3895714Y-2383714D01*
X3867143Y-2398000D01*
X3852857Y-2412286D01*
X3838571Y-2440857D01*
X3838571Y-2512286D01*
X3852857Y-2540857D01*
X3867143Y-2555143D01*
X3895714Y-2569429D01*
X3952857Y-2569429D01*
X3981428Y-2555143D01*
X3995714Y-2540857D01*
X4010000Y-2512286D01*
X4124286Y-2383714D02*
X4124286Y-2440857D01*
X4238571Y-2383714D02*
X4238571Y-2440857D01*
X4681428Y-2798000D02*
X4667143Y-2783714D01*
X4638571Y-2740857D01*
X4624286Y-2712286D01*
X4610000Y-2669429D01*
X4595714Y-2598000D01*
X4595714Y-2540857D01*
X4610000Y-2469429D01*
X4624286Y-2426572D01*
X4638571Y-2398000D01*
X4667143Y-2355143D01*
X4681428Y-2340857D01*
X4838571Y-2512286D02*
X4810000Y-2498000D01*
X4795714Y-2483714D01*
X4781428Y-2455143D01*
X4781428Y-2440857D01*
X4795714Y-2412286D01*
X4810000Y-2398000D01*
X4838571Y-2383714D01*
X4895714Y-2383714D01*
X4924286Y-2398000D01*
X4938571Y-2412286D01*
X4952857Y-2440857D01*
X4952857Y-2455143D01*
X4938571Y-2483714D01*
X4924286Y-2498000D01*
X4895714Y-2512286D01*
X4838571Y-2512286D01*
X4810000Y-2526572D01*
X4795714Y-2540857D01*
X4781428Y-2569429D01*
X4781428Y-2626572D01*
X4795714Y-2655143D01*
X4810000Y-2669429D01*
X4838571Y-2683714D01*
X4895714Y-2683714D01*
X4924286Y-2669429D01*
X4938571Y-2655143D01*
X4952857Y-2626572D01*
X4952857Y-2569429D01*
X4938571Y-2540857D01*
X4924286Y-2526572D01*
X4895714Y-2512286D01*
X5310000Y-2683714D02*
X5310000Y-2383714D01*
X5438571Y-2683714D02*
X5438571Y-2526572D01*
X5424286Y-2498000D01*
X5395714Y-2483714D01*
X5352857Y-2483714D01*
X5324286Y-2498000D01*
X5310000Y-2512286D01*
X5624286Y-2683714D02*
X5595714Y-2669429D01*
X5581428Y-2655143D01*
X5567143Y-2626572D01*
X5567143Y-2540857D01*
X5581428Y-2512286D01*
X5595714Y-2498000D01*
X5624286Y-2483714D01*
X5667143Y-2483714D01*
X5695714Y-2498000D01*
X5710000Y-2512286D01*
X5724286Y-2540857D01*
X5724286Y-2626572D01*
X5710000Y-2655143D01*
X5695714Y-2669429D01*
X5667143Y-2683714D01*
X5624286Y-2683714D01*
X5895714Y-2683714D02*
X5867143Y-2669429D01*
X5852857Y-2640857D01*
X5852857Y-2383714D01*
X6124286Y-2669429D02*
X6095714Y-2683714D01*
X6038571Y-2683714D01*
X6010000Y-2669429D01*
X5995714Y-2640857D01*
X5995714Y-2526572D01*
X6010000Y-2498000D01*
X6038571Y-2483714D01*
X6095714Y-2483714D01*
X6124286Y-2498000D01*
X6138571Y-2526572D01*
X6138571Y-2555143D01*
X5995714Y-2583714D01*
X6252857Y-2669429D02*
X6281428Y-2683714D01*
X6338571Y-2683714D01*
X6367143Y-2669429D01*
X6381428Y-2640857D01*
X6381428Y-2626572D01*
X6367143Y-2598000D01*
X6338571Y-2583714D01*
X6295714Y-2583714D01*
X6267143Y-2569429D01*
X6252857Y-2540857D01*
X6252857Y-2526572D01*
X6267143Y-2498000D01*
X6295714Y-2483714D01*
X6338571Y-2483714D01*
X6367143Y-2498000D01*
X6481428Y-2798000D02*
X6495714Y-2783714D01*
X6524286Y-2740857D01*
X6538571Y-2712286D01*
X6552857Y-2669429D01*
X6567143Y-2598000D01*
X6567143Y-2540857D01*
X6552857Y-2469429D01*
X6538571Y-2426572D01*
X6524286Y-2398000D01*
X6495714Y-2355143D01*
X6481428Y-2340857D01*
X-208200Y-2842400D02*
X-5000Y-3045600D01*
X-5000Y-2842400D02*
X-208200Y-3045600D01*
X-5000Y-2944000D02*
G75*
G03*
X-5000Y-2944000I-101600J0D01*
G01*
X267143Y-2808286D02*
X281428Y-2794000D01*
X310000Y-2779714D01*
X381428Y-2779714D01*
X410000Y-2794000D01*
X424286Y-2808286D01*
X438571Y-2836857D01*
X438571Y-2865429D01*
X424286Y-2908286D01*
X252857Y-3079714D01*
X438571Y-3079714D01*
X567143Y-3051143D02*
X581428Y-3065429D01*
X567143Y-3079714D01*
X552857Y-3065429D01*
X567143Y-3051143D01*
X567143Y-3079714D01*
X767143Y-2779714D02*
X795714Y-2779714D01*
X824286Y-2794000D01*
X838571Y-2808286D01*
X852857Y-2836857D01*
X867143Y-2894000D01*
X867143Y-2965429D01*
X852857Y-3022571D01*
X838571Y-3051143D01*
X824286Y-3065429D01*
X795714Y-3079714D01*
X767143Y-3079714D01*
X738571Y-3065429D01*
X724286Y-3051143D01*
X710000Y-3022571D01*
X695714Y-2965429D01*
X695714Y-2894000D01*
X710000Y-2836857D01*
X724286Y-2808286D01*
X738571Y-2794000D01*
X767143Y-2779714D01*
X967143Y-2779714D02*
X1152857Y-2779714D01*
X1052857Y-2894000D01*
X1095714Y-2894000D01*
X1124286Y-2908286D01*
X1138571Y-2922571D01*
X1152857Y-2951143D01*
X1152857Y-3022571D01*
X1138571Y-3051143D01*
X1124286Y-3065429D01*
X1095714Y-3079714D01*
X1010000Y-3079714D01*
X981428Y-3065429D01*
X967143Y-3051143D01*
X1281428Y-3079714D02*
X1281428Y-2879714D01*
X1281428Y-2908286D02*
X1295714Y-2894000D01*
X1324286Y-2879714D01*
X1367143Y-2879714D01*
X1395714Y-2894000D01*
X1410000Y-2922571D01*
X1410000Y-3079714D01*
X1410000Y-2922571D02*
X1424286Y-2894000D01*
X1452857Y-2879714D01*
X1495714Y-2879714D01*
X1524286Y-2894000D01*
X1538571Y-2922571D01*
X1538571Y-3079714D01*
X1681428Y-3079714D02*
X1681428Y-2879714D01*
X1681428Y-2908286D02*
X1695714Y-2894000D01*
X1724286Y-2879714D01*
X1767143Y-2879714D01*
X1795714Y-2894000D01*
X1810000Y-2922571D01*
X1810000Y-3079714D01*
X1810000Y-2922571D02*
X1824286Y-2894000D01*
X1852857Y-2879714D01*
X1895714Y-2879714D01*
X1924286Y-2894000D01*
X1938571Y-2922571D01*
X1938571Y-3079714D01*
X2524286Y-2765429D02*
X2267143Y-3151143D01*
X2910000Y-2779714D02*
X2938571Y-2779714D01*
X2967143Y-2794000D01*
X2981428Y-2808286D01*
X2995714Y-2836857D01*
X3010000Y-2894000D01*
X3010000Y-2965429D01*
X2995714Y-3022571D01*
X2981428Y-3051143D01*
X2967143Y-3065429D01*
X2938571Y-3079714D01*
X2910000Y-3079714D01*
X2881428Y-3065429D01*
X2867143Y-3051143D01*
X2852857Y-3022571D01*
X2838571Y-2965429D01*
X2838571Y-2894000D01*
X2852857Y-2836857D01*
X2867143Y-2808286D01*
X2881428Y-2794000D01*
X2910000Y-2779714D01*
X3138571Y-3051143D02*
X3152857Y-3065429D01*
X3138571Y-3079714D01*
X3124286Y-3065429D01*
X3138571Y-3051143D01*
X3138571Y-3079714D01*
X3338571Y-2779714D02*
X3367143Y-2779714D01*
X3395714Y-2794000D01*
X3410000Y-2808286D01*
X3424286Y-2836857D01*
X3438571Y-2894000D01*
X3438571Y-2965429D01*
X3424286Y-3022571D01*
X3410000Y-3051143D01*
X3395714Y-3065429D01*
X3367143Y-3079714D01*
X3338571Y-3079714D01*
X3310000Y-3065429D01*
X3295714Y-3051143D01*
X3281428Y-3022571D01*
X3267143Y-2965429D01*
X3267143Y-2894000D01*
X3281428Y-2836857D01*
X3295714Y-2808286D01*
X3310000Y-2794000D01*
X3338571Y-2779714D01*
X3610000Y-2908286D02*
X3581428Y-2894000D01*
X3567143Y-2879714D01*
X3552857Y-2851143D01*
X3552857Y-2836857D01*
X3567143Y-2808286D01*
X3581428Y-2794000D01*
X3610000Y-2779714D01*
X3667143Y-2779714D01*
X3695714Y-2794000D01*
X3710000Y-2808286D01*
X3724286Y-2836857D01*
X3724286Y-2851143D01*
X3710000Y-2879714D01*
X3695714Y-2894000D01*
X3667143Y-2908286D01*
X3610000Y-2908286D01*
X3581428Y-2922571D01*
X3567143Y-2936857D01*
X3552857Y-2965429D01*
X3552857Y-3022571D01*
X3567143Y-3051143D01*
X3581428Y-3065429D01*
X3610000Y-3079714D01*
X3667143Y-3079714D01*
X3695714Y-3065429D01*
X3710000Y-3051143D01*
X3724286Y-3022571D01*
X3724286Y-2965429D01*
X3710000Y-2936857D01*
X3695714Y-2922571D01*
X3667143Y-2908286D01*
X3910000Y-2779714D02*
X3938571Y-2779714D01*
X3967143Y-2794000D01*
X3981428Y-2808286D01*
X3995714Y-2836857D01*
X4010000Y-2894000D01*
X4010000Y-2965429D01*
X3995714Y-3022571D01*
X3981428Y-3051143D01*
X3967143Y-3065429D01*
X3938571Y-3079714D01*
X3910000Y-3079714D01*
X3881428Y-3065429D01*
X3867143Y-3051143D01*
X3852857Y-3022571D01*
X3838571Y-2965429D01*
X3838571Y-2894000D01*
X3852857Y-2836857D01*
X3867143Y-2808286D01*
X3881428Y-2794000D01*
X3910000Y-2779714D01*
X4124286Y-2779714D02*
X4124286Y-2836857D01*
X4238571Y-2779714D02*
X4238571Y-2836857D01*
X4681428Y-3194000D02*
X4667143Y-3179714D01*
X4638571Y-3136857D01*
X4624286Y-3108286D01*
X4610000Y-3065429D01*
X4595714Y-2994000D01*
X4595714Y-2936857D01*
X4610000Y-2865429D01*
X4624286Y-2822571D01*
X4638571Y-2794000D01*
X4667143Y-2751143D01*
X4681428Y-2736857D01*
X4924286Y-2879714D02*
X4924286Y-3079714D01*
X4852857Y-2765429D02*
X4781428Y-2979714D01*
X4967143Y-2979714D01*
X5310000Y-3079714D02*
X5310000Y-2779714D01*
X5438571Y-3079714D02*
X5438571Y-2922571D01*
X5424286Y-2894000D01*
X5395714Y-2879714D01*
X5352857Y-2879714D01*
X5324286Y-2894000D01*
X5310000Y-2908286D01*
X5624286Y-3079714D02*
X5595714Y-3065429D01*
X5581428Y-3051143D01*
X5567143Y-3022571D01*
X5567143Y-2936857D01*
X5581428Y-2908286D01*
X5595714Y-2894000D01*
X5624286Y-2879714D01*
X5667143Y-2879714D01*
X5695714Y-2894000D01*
X5710000Y-2908286D01*
X5724286Y-2936857D01*
X5724286Y-3022571D01*
X5710000Y-3051143D01*
X5695714Y-3065429D01*
X5667143Y-3079714D01*
X5624286Y-3079714D01*
X5895714Y-3079714D02*
X5867143Y-3065429D01*
X5852857Y-3036857D01*
X5852857Y-2779714D01*
X6124286Y-3065429D02*
X6095714Y-3079714D01*
X6038571Y-3079714D01*
X6010000Y-3065429D01*
X5995714Y-3036857D01*
X5995714Y-2922571D01*
X6010000Y-2894000D01*
X6038571Y-2879714D01*
X6095714Y-2879714D01*
X6124286Y-2894000D01*
X6138571Y-2922571D01*
X6138571Y-2951143D01*
X5995714Y-2979714D01*
X6252857Y-3065429D02*
X6281428Y-3079714D01*
X6338571Y-3079714D01*
X6367143Y-3065429D01*
X6381428Y-3036857D01*
X6381428Y-3022571D01*
X6367143Y-2994000D01*
X6338571Y-2979714D01*
X6295714Y-2979714D01*
X6267143Y-2965429D01*
X6252857Y-2936857D01*
X6252857Y-2922571D01*
X6267143Y-2894000D01*
X6295714Y-2879714D01*
X6338571Y-2879714D01*
X6367143Y-2894000D01*
X6481428Y-3194000D02*
X6495714Y-3179714D01*
X6524286Y-3136857D01*
X6538571Y-3108286D01*
X6552857Y-3065429D01*
X6567143Y-2994000D01*
X6567143Y-2936857D01*
X6552857Y-2865429D01*
X6538571Y-2822571D01*
X6524286Y-2794000D01*
X6495714Y-2751143D01*
X6481428Y-2736857D01*
X-325000Y-3180000D02*
X-5000Y-3500000D01*
X-5000Y-3180000D02*
X-325000Y-3500000D01*
X-165000Y-3180000D02*
X-165000Y-3500000D01*
X-325000Y-3340000D02*
X-5000Y-3340000D01*
X252857Y-3175714D02*
X438571Y-3175714D01*
X338571Y-3290000D01*
X381428Y-3290000D01*
X410000Y-3304286D01*
X424286Y-3318571D01*
X438571Y-3347143D01*
X438571Y-3418571D01*
X424286Y-3447143D01*
X410000Y-3461429D01*
X381428Y-3475714D01*
X295714Y-3475714D01*
X267143Y-3461429D01*
X252857Y-3447143D01*
X567143Y-3447143D02*
X581428Y-3461429D01*
X567143Y-3475714D01*
X552857Y-3461429D01*
X567143Y-3447143D01*
X567143Y-3475714D01*
X695714Y-3204286D02*
X710000Y-3190000D01*
X738571Y-3175714D01*
X810000Y-3175714D01*
X838571Y-3190000D01*
X852857Y-3204286D01*
X867143Y-3232857D01*
X867143Y-3261429D01*
X852857Y-3304286D01*
X681428Y-3475714D01*
X867143Y-3475714D01*
X1052857Y-3175714D02*
X1081428Y-3175714D01*
X1110000Y-3190000D01*
X1124286Y-3204286D01*
X1138571Y-3232857D01*
X1152857Y-3290000D01*
X1152857Y-3361429D01*
X1138571Y-3418571D01*
X1124286Y-3447143D01*
X1110000Y-3461429D01*
X1081428Y-3475714D01*
X1052857Y-3475714D01*
X1024286Y-3461429D01*
X1010000Y-3447143D01*
X995714Y-3418571D01*
X981428Y-3361429D01*
X981428Y-3290000D01*
X995714Y-3232857D01*
X1010000Y-3204286D01*
X1024286Y-3190000D01*
X1052857Y-3175714D01*
X1281428Y-3475714D02*
X1281428Y-3275714D01*
X1281428Y-3304286D02*
X1295714Y-3290000D01*
X1324286Y-3275714D01*
X1367143Y-3275714D01*
X1395714Y-3290000D01*
X1410000Y-3318571D01*
X1410000Y-3475714D01*
X1410000Y-3318571D02*
X1424286Y-3290000D01*
X1452857Y-3275714D01*
X1495714Y-3275714D01*
X1524286Y-3290000D01*
X1538571Y-3318571D01*
X1538571Y-3475714D01*
X1681428Y-3475714D02*
X1681428Y-3275714D01*
X1681428Y-3304286D02*
X1695714Y-3290000D01*
X1724286Y-3275714D01*
X1767143Y-3275714D01*
X1795714Y-3290000D01*
X1810000Y-3318571D01*
X1810000Y-3475714D01*
X1810000Y-3318571D02*
X1824286Y-3290000D01*
X1852857Y-3275714D01*
X1895714Y-3275714D01*
X1924286Y-3290000D01*
X1938571Y-3318571D01*
X1938571Y-3475714D01*
X2524286Y-3161429D02*
X2267143Y-3547143D01*
X2910000Y-3175714D02*
X2938571Y-3175714D01*
X2967143Y-3190000D01*
X2981428Y-3204286D01*
X2995714Y-3232857D01*
X3010000Y-3290000D01*
X3010000Y-3361429D01*
X2995714Y-3418571D01*
X2981428Y-3447143D01*
X2967143Y-3461429D01*
X2938571Y-3475714D01*
X2910000Y-3475714D01*
X2881428Y-3461429D01*
X2867143Y-3447143D01*
X2852857Y-3418571D01*
X2838571Y-3361429D01*
X2838571Y-3290000D01*
X2852857Y-3232857D01*
X2867143Y-3204286D01*
X2881428Y-3190000D01*
X2910000Y-3175714D01*
X3138571Y-3447143D02*
X3152857Y-3461429D01*
X3138571Y-3475714D01*
X3124286Y-3461429D01*
X3138571Y-3447143D01*
X3138571Y-3475714D01*
X3438571Y-3475714D02*
X3267143Y-3475714D01*
X3352857Y-3475714D02*
X3352857Y-3175714D01*
X3324286Y-3218571D01*
X3295714Y-3247143D01*
X3267143Y-3261429D01*
X3552857Y-3204286D02*
X3567143Y-3190000D01*
X3595714Y-3175714D01*
X3667143Y-3175714D01*
X3695714Y-3190000D01*
X3710000Y-3204286D01*
X3724286Y-3232857D01*
X3724286Y-3261429D01*
X3710000Y-3304286D01*
X3538571Y-3475714D01*
X3724286Y-3475714D01*
X3981428Y-3175714D02*
X3924286Y-3175714D01*
X3895714Y-3190000D01*
X3881428Y-3204286D01*
X3852857Y-3247143D01*
X3838571Y-3304286D01*
X3838571Y-3418571D01*
X3852857Y-3447143D01*
X3867143Y-3461429D01*
X3895714Y-3475714D01*
X3952857Y-3475714D01*
X3981428Y-3461429D01*
X3995714Y-3447143D01*
X4010000Y-3418571D01*
X4010000Y-3347143D01*
X3995714Y-3318571D01*
X3981428Y-3304286D01*
X3952857Y-3290000D01*
X3895714Y-3290000D01*
X3867143Y-3304286D01*
X3852857Y-3318571D01*
X3838571Y-3347143D01*
X4124286Y-3175714D02*
X4124286Y-3232857D01*
X4238571Y-3175714D02*
X4238571Y-3232857D01*
X4681428Y-3590000D02*
X4667143Y-3575714D01*
X4638571Y-3532857D01*
X4624286Y-3504286D01*
X4610000Y-3461429D01*
X4595714Y-3390000D01*
X4595714Y-3332857D01*
X4610000Y-3261429D01*
X4624286Y-3218571D01*
X4638571Y-3190000D01*
X4667143Y-3147143D01*
X4681428Y-3132857D01*
X4924286Y-3275714D02*
X4924286Y-3475714D01*
X4852857Y-3161429D02*
X4781428Y-3375714D01*
X4967143Y-3375714D01*
X5310000Y-3475714D02*
X5310000Y-3175714D01*
X5438571Y-3475714D02*
X5438571Y-3318571D01*
X5424286Y-3290000D01*
X5395714Y-3275714D01*
X5352857Y-3275714D01*
X5324286Y-3290000D01*
X5310000Y-3304286D01*
X5624286Y-3475714D02*
X5595714Y-3461429D01*
X5581428Y-3447143D01*
X5567143Y-3418571D01*
X5567143Y-3332857D01*
X5581428Y-3304286D01*
X5595714Y-3290000D01*
X5624286Y-3275714D01*
X5667143Y-3275714D01*
X5695714Y-3290000D01*
X5710000Y-3304286D01*
X5724286Y-3332857D01*
X5724286Y-3418571D01*
X5710000Y-3447143D01*
X5695714Y-3461429D01*
X5667143Y-3475714D01*
X5624286Y-3475714D01*
X5895714Y-3475714D02*
X5867143Y-3461429D01*
X5852857Y-3432857D01*
X5852857Y-3175714D01*
X6124286Y-3461429D02*
X6095714Y-3475714D01*
X6038571Y-3475714D01*
X6010000Y-3461429D01*
X5995714Y-3432857D01*
X5995714Y-3318571D01*
X6010000Y-3290000D01*
X6038571Y-3275714D01*
X6095714Y-3275714D01*
X6124286Y-3290000D01*
X6138571Y-3318571D01*
X6138571Y-3347143D01*
X5995714Y-3375714D01*
X6252857Y-3461429D02*
X6281428Y-3475714D01*
X6338571Y-3475714D01*
X6367143Y-3461429D01*
X6381428Y-3432857D01*
X6381428Y-3418571D01*
X6367143Y-3390000D01*
X6338571Y-3375714D01*
X6295714Y-3375714D01*
X6267143Y-3361429D01*
X6252857Y-3332857D01*
X6252857Y-3318571D01*
X6267143Y-3290000D01*
X6295714Y-3275714D01*
X6338571Y-3275714D01*
X6367143Y-3290000D01*
X6481428Y-3590000D02*
X6495714Y-3575714D01*
X6524286Y-3532857D01*
X6538571Y-3504286D01*
X6552857Y-3461429D01*
X6567143Y-3390000D01*
X6567143Y-3332857D01*
X6552857Y-3261429D01*
X6538571Y-3218571D01*
X6524286Y-3190000D01*
X6495714Y-3147143D01*
X6481428Y-3132857D01*
M02*
