%FSLAX45Y45*%
G04 Gerber Fmt 4.5, Leading zero omitted, Abs format (unit mm)*
G04 Created by KiCad (PCBNEW 5.1.6+dfsg1-1~bpo9+1) date 2022-04-04 20:28:34*
%MOMM*%
%LPD*%
G01*
G04 APERTURE LIST*
%TA.AperFunction,Profile*%
%ADD10C,0.100000*%
%TD*%
%ADD11C,0.200000*%
%ADD12C,0.300000*%
G04 APERTURE END LIST*
D10*
X15500000Y-3000000D02*
X7500000Y-3000000D01*
X15500000Y-3000000D02*
X15500000Y-8500000D01*
X7500000Y-8500000D02*
X7500000Y-3000000D01*
X7500000Y-8500000D02*
X15500000Y-8500000D01*
D11*
X10425750Y-5802950D02*
X10465750Y-5842950D01*
X10465750Y-5802950D02*
X10425750Y-5842950D01*
X10692450Y-6215700D02*
X10732450Y-6255700D01*
X10732450Y-6215700D02*
X10692450Y-6255700D01*
X10813100Y-7676200D02*
X10853100Y-7716200D01*
X10853100Y-7676200D02*
X10813100Y-7716200D01*
X11714800Y-7231700D02*
X11754800Y-7271700D01*
X11754800Y-7231700D02*
X11714800Y-7271700D01*
X13461600Y-6985000D02*
G75*
G03*
X13461600Y-6985000I-25000J0D01*
G01*
X13461600Y-7110000D02*
G75*
G03*
X13461600Y-7110000I-25000J0D01*
G01*
X14071200Y-7759700D02*
G75*
G03*
X14071200Y-7759700I-25000J0D01*
G01*
X14071200Y-7884700D02*
G75*
G03*
X14071200Y-7884700I-25000J0D01*
G01*
X13461600Y-7759700D02*
G75*
G03*
X13461600Y-7759700I-25000J0D01*
G01*
X13461600Y-7884700D02*
G75*
G03*
X13461600Y-7884700I-25000J0D01*
G01*
X9389300Y-3645700D02*
X9389300Y-3745700D01*
X9339300Y-3695700D02*
X9439300Y-3695700D01*
X9639300Y-3645700D02*
X9639300Y-3745700D01*
X9589300Y-3695700D02*
X9689300Y-3695700D01*
X11567350Y-3645700D02*
X11567350Y-3745700D01*
X11517350Y-3695700D02*
X11617350Y-3695700D01*
X11817350Y-3645700D02*
X11817350Y-3745700D01*
X11767350Y-3695700D02*
X11867350Y-3695700D01*
X12659550Y-3645700D02*
X12659550Y-3745700D01*
X12609550Y-3695700D02*
X12709550Y-3695700D01*
X12909550Y-3645700D02*
X12909550Y-3745700D01*
X12859550Y-3695700D02*
X12959550Y-3695700D01*
X10475150Y-3645700D02*
X10475150Y-3745700D01*
X10425150Y-3695700D02*
X10525150Y-3695700D01*
X10725150Y-3645700D02*
X10725150Y-3745700D01*
X10675150Y-3695700D02*
X10775150Y-3695700D01*
X13789850Y-3652050D02*
X13789850Y-3752050D01*
X13739850Y-3702050D02*
X13839850Y-3702050D01*
X14039850Y-3652050D02*
X14039850Y-3752050D01*
X13989850Y-3702050D02*
X14089850Y-3702050D01*
X8227250Y-5007140D02*
X8227250Y-5107140D01*
X8177250Y-5057140D02*
X8277250Y-5057140D01*
X8477250Y-5007140D02*
X8477250Y-5107140D01*
X8427250Y-5057140D02*
X8527250Y-5057140D01*
X9669027Y-5960627D02*
X9669027Y-5875773D01*
X9584173Y-5875773D01*
X9584173Y-5960627D01*
X9669027Y-5960627D01*
X9669027Y-6460627D02*
X9669027Y-6375773D01*
X9584173Y-6375773D01*
X9584173Y-6460627D01*
X9669027Y-6460627D01*
X8166100Y-7015350D02*
X8253600Y-6927850D01*
X8166100Y-6840350D01*
X8078600Y-6927850D01*
X8166100Y-7015350D01*
X8706100Y-7015350D02*
X8793600Y-6927850D01*
X8706100Y-6840350D01*
X8618600Y-6927850D01*
X8706100Y-7015350D01*
X9283700Y-7898000D02*
X9371200Y-7810500D01*
X9283700Y-7723000D01*
X9196200Y-7810500D01*
X9283700Y-7898000D01*
X9823700Y-7898000D02*
X9911200Y-7810500D01*
X9823700Y-7723000D01*
X9736200Y-7810500D01*
X9823700Y-7898000D01*
X14840000Y-7840000D02*
X15160000Y-8160000D01*
X15160000Y-7840000D02*
X14840000Y-8160000D01*
X15160000Y-8000000D02*
G75*
G03*
X15160000Y-8000000I-160000J0D01*
G01*
X14840000Y-3340000D02*
X15160000Y-3660000D01*
X15160000Y-3340000D02*
X14840000Y-3660000D01*
X15160000Y-3500000D02*
G75*
G03*
X15160000Y-3500000I-160000J0D01*
G01*
X7840000Y-7840000D02*
X8160000Y-8160000D01*
X8160000Y-7840000D02*
X7840000Y-8160000D01*
X8160000Y-8000000D02*
G75*
G03*
X8160000Y-8000000I-160000J0D01*
G01*
X7840000Y-3340000D02*
X8160000Y-3660000D01*
X8160000Y-3340000D02*
X7840000Y-3660000D01*
X8160000Y-3500000D02*
G75*
G03*
X8160000Y-3500000I-160000J0D01*
G01*
D12*
X7781428Y-8970714D02*
X7781428Y-8670714D01*
X7852857Y-8670714D01*
X7895714Y-8685000D01*
X7924286Y-8713572D01*
X7938571Y-8742143D01*
X7952857Y-8799286D01*
X7952857Y-8842143D01*
X7938571Y-8899286D01*
X7924286Y-8927857D01*
X7895714Y-8956429D01*
X7852857Y-8970714D01*
X7781428Y-8970714D01*
X8081428Y-8970714D02*
X8081428Y-8770714D01*
X8081428Y-8827857D02*
X8095714Y-8799286D01*
X8110000Y-8785000D01*
X8138571Y-8770714D01*
X8167143Y-8770714D01*
X8267143Y-8970714D02*
X8267143Y-8770714D01*
X8267143Y-8670714D02*
X8252857Y-8685000D01*
X8267143Y-8699286D01*
X8281428Y-8685000D01*
X8267143Y-8670714D01*
X8267143Y-8699286D01*
X8452857Y-8970714D02*
X8424286Y-8956429D01*
X8410000Y-8927857D01*
X8410000Y-8670714D01*
X8610000Y-8970714D02*
X8581428Y-8956429D01*
X8567143Y-8927857D01*
X8567143Y-8670714D01*
X8952857Y-8970714D02*
X8952857Y-8670714D01*
X9052857Y-8885000D01*
X9152857Y-8670714D01*
X9152857Y-8970714D01*
X9424286Y-8970714D02*
X9424286Y-8813572D01*
X9410000Y-8785000D01*
X9381428Y-8770714D01*
X9324286Y-8770714D01*
X9295714Y-8785000D01*
X9424286Y-8956429D02*
X9395714Y-8970714D01*
X9324286Y-8970714D01*
X9295714Y-8956429D01*
X9281428Y-8927857D01*
X9281428Y-8899286D01*
X9295714Y-8870714D01*
X9324286Y-8856429D01*
X9395714Y-8856429D01*
X9424286Y-8842143D01*
X9567143Y-8770714D02*
X9567143Y-9070714D01*
X9567143Y-8785000D02*
X9595714Y-8770714D01*
X9652857Y-8770714D01*
X9681428Y-8785000D01*
X9695714Y-8799286D01*
X9710000Y-8827857D01*
X9710000Y-8913572D01*
X9695714Y-8942143D01*
X9681428Y-8956429D01*
X9652857Y-8970714D01*
X9595714Y-8970714D01*
X9567143Y-8956429D01*
X9838571Y-8942143D02*
X9852857Y-8956429D01*
X9838571Y-8970714D01*
X9824286Y-8956429D01*
X9838571Y-8942143D01*
X9838571Y-8970714D01*
X9838571Y-8785000D02*
X9852857Y-8799286D01*
X9838571Y-8813572D01*
X9824286Y-8799286D01*
X9838571Y-8785000D01*
X9838571Y-8813572D01*
X7455000Y-9445000D02*
X7495000Y-9485000D01*
X7495000Y-9445000D02*
X7455000Y-9485000D01*
X7838571Y-9300714D02*
X7867143Y-9300714D01*
X7895714Y-9315000D01*
X7910000Y-9329286D01*
X7924286Y-9357857D01*
X7938571Y-9415000D01*
X7938571Y-9486429D01*
X7924286Y-9543572D01*
X7910000Y-9572143D01*
X7895714Y-9586429D01*
X7867143Y-9600714D01*
X7838571Y-9600714D01*
X7810000Y-9586429D01*
X7795714Y-9572143D01*
X7781428Y-9543572D01*
X7767143Y-9486429D01*
X7767143Y-9415000D01*
X7781428Y-9357857D01*
X7795714Y-9329286D01*
X7810000Y-9315000D01*
X7838571Y-9300714D01*
X8067143Y-9572143D02*
X8081428Y-9586429D01*
X8067143Y-9600714D01*
X8052857Y-9586429D01*
X8067143Y-9572143D01*
X8067143Y-9600714D01*
X8338571Y-9400714D02*
X8338571Y-9600714D01*
X8267143Y-9286429D02*
X8195714Y-9500714D01*
X8381428Y-9500714D01*
X8552857Y-9300714D02*
X8581428Y-9300714D01*
X8610000Y-9315000D01*
X8624286Y-9329286D01*
X8638571Y-9357857D01*
X8652857Y-9415000D01*
X8652857Y-9486429D01*
X8638571Y-9543572D01*
X8624286Y-9572143D01*
X8610000Y-9586429D01*
X8581428Y-9600714D01*
X8552857Y-9600714D01*
X8524286Y-9586429D01*
X8510000Y-9572143D01*
X8495714Y-9543572D01*
X8481428Y-9486429D01*
X8481428Y-9415000D01*
X8495714Y-9357857D01*
X8510000Y-9329286D01*
X8524286Y-9315000D01*
X8552857Y-9300714D01*
X8781428Y-9600714D02*
X8781428Y-9400714D01*
X8781428Y-9429286D02*
X8795714Y-9415000D01*
X8824286Y-9400714D01*
X8867143Y-9400714D01*
X8895714Y-9415000D01*
X8910000Y-9443572D01*
X8910000Y-9600714D01*
X8910000Y-9443572D02*
X8924286Y-9415000D01*
X8952857Y-9400714D01*
X8995714Y-9400714D01*
X9024286Y-9415000D01*
X9038571Y-9443572D01*
X9038571Y-9600714D01*
X9181428Y-9600714D02*
X9181428Y-9400714D01*
X9181428Y-9429286D02*
X9195714Y-9415000D01*
X9224286Y-9400714D01*
X9267143Y-9400714D01*
X9295714Y-9415000D01*
X9310000Y-9443572D01*
X9310000Y-9600714D01*
X9310000Y-9443572D02*
X9324286Y-9415000D01*
X9352857Y-9400714D01*
X9395714Y-9400714D01*
X9424286Y-9415000D01*
X9438571Y-9443572D01*
X9438571Y-9600714D01*
X10024286Y-9286429D02*
X9767143Y-9672143D01*
X10410000Y-9300714D02*
X10438571Y-9300714D01*
X10467143Y-9315000D01*
X10481428Y-9329286D01*
X10495714Y-9357857D01*
X10510000Y-9415000D01*
X10510000Y-9486429D01*
X10495714Y-9543572D01*
X10481428Y-9572143D01*
X10467143Y-9586429D01*
X10438571Y-9600714D01*
X10410000Y-9600714D01*
X10381428Y-9586429D01*
X10367143Y-9572143D01*
X10352857Y-9543572D01*
X10338571Y-9486429D01*
X10338571Y-9415000D01*
X10352857Y-9357857D01*
X10367143Y-9329286D01*
X10381428Y-9315000D01*
X10410000Y-9300714D01*
X10638571Y-9572143D02*
X10652857Y-9586429D01*
X10638571Y-9600714D01*
X10624286Y-9586429D01*
X10638571Y-9572143D01*
X10638571Y-9600714D01*
X10838571Y-9300714D02*
X10867143Y-9300714D01*
X10895714Y-9315000D01*
X10910000Y-9329286D01*
X10924286Y-9357857D01*
X10938571Y-9415000D01*
X10938571Y-9486429D01*
X10924286Y-9543572D01*
X10910000Y-9572143D01*
X10895714Y-9586429D01*
X10867143Y-9600714D01*
X10838571Y-9600714D01*
X10810000Y-9586429D01*
X10795714Y-9572143D01*
X10781428Y-9543572D01*
X10767143Y-9486429D01*
X10767143Y-9415000D01*
X10781428Y-9357857D01*
X10795714Y-9329286D01*
X10810000Y-9315000D01*
X10838571Y-9300714D01*
X11224286Y-9600714D02*
X11052857Y-9600714D01*
X11138571Y-9600714D02*
X11138571Y-9300714D01*
X11110000Y-9343572D01*
X11081428Y-9372143D01*
X11052857Y-9386429D01*
X11481428Y-9300714D02*
X11424286Y-9300714D01*
X11395714Y-9315000D01*
X11381428Y-9329286D01*
X11352857Y-9372143D01*
X11338571Y-9429286D01*
X11338571Y-9543572D01*
X11352857Y-9572143D01*
X11367143Y-9586429D01*
X11395714Y-9600714D01*
X11452857Y-9600714D01*
X11481428Y-9586429D01*
X11495714Y-9572143D01*
X11510000Y-9543572D01*
X11510000Y-9472143D01*
X11495714Y-9443572D01*
X11481428Y-9429286D01*
X11452857Y-9415000D01*
X11395714Y-9415000D01*
X11367143Y-9429286D01*
X11352857Y-9443572D01*
X11338571Y-9472143D01*
X11624286Y-9300714D02*
X11624286Y-9357857D01*
X11738571Y-9300714D02*
X11738571Y-9357857D01*
X12181428Y-9715000D02*
X12167143Y-9700714D01*
X12138571Y-9657857D01*
X12124286Y-9629286D01*
X12110000Y-9586429D01*
X12095714Y-9515000D01*
X12095714Y-9457857D01*
X12110000Y-9386429D01*
X12124286Y-9343572D01*
X12138571Y-9315000D01*
X12167143Y-9272143D01*
X12181428Y-9257857D01*
X12424286Y-9400714D02*
X12424286Y-9600714D01*
X12352857Y-9286429D02*
X12281428Y-9500714D01*
X12467143Y-9500714D01*
X12810000Y-9600714D02*
X12810000Y-9300714D01*
X12938571Y-9600714D02*
X12938571Y-9443572D01*
X12924286Y-9415000D01*
X12895714Y-9400714D01*
X12852857Y-9400714D01*
X12824286Y-9415000D01*
X12810000Y-9429286D01*
X13124286Y-9600714D02*
X13095714Y-9586429D01*
X13081428Y-9572143D01*
X13067143Y-9543572D01*
X13067143Y-9457857D01*
X13081428Y-9429286D01*
X13095714Y-9415000D01*
X13124286Y-9400714D01*
X13167143Y-9400714D01*
X13195714Y-9415000D01*
X13210000Y-9429286D01*
X13224286Y-9457857D01*
X13224286Y-9543572D01*
X13210000Y-9572143D01*
X13195714Y-9586429D01*
X13167143Y-9600714D01*
X13124286Y-9600714D01*
X13395714Y-9600714D02*
X13367143Y-9586429D01*
X13352857Y-9557857D01*
X13352857Y-9300714D01*
X13624286Y-9586429D02*
X13595714Y-9600714D01*
X13538571Y-9600714D01*
X13510000Y-9586429D01*
X13495714Y-9557857D01*
X13495714Y-9443572D01*
X13510000Y-9415000D01*
X13538571Y-9400714D01*
X13595714Y-9400714D01*
X13624286Y-9415000D01*
X13638571Y-9443572D01*
X13638571Y-9472143D01*
X13495714Y-9500714D01*
X13752857Y-9586429D02*
X13781428Y-9600714D01*
X13838571Y-9600714D01*
X13867143Y-9586429D01*
X13881428Y-9557857D01*
X13881428Y-9543572D01*
X13867143Y-9515000D01*
X13838571Y-9500714D01*
X13795714Y-9500714D01*
X13767143Y-9486429D01*
X13752857Y-9457857D01*
X13752857Y-9443572D01*
X13767143Y-9415000D01*
X13795714Y-9400714D01*
X13838571Y-9400714D01*
X13867143Y-9415000D01*
X13981428Y-9715000D02*
X13995714Y-9700714D01*
X14024286Y-9657857D01*
X14038571Y-9629286D01*
X14052857Y-9586429D01*
X14067143Y-9515000D01*
X14067143Y-9457857D01*
X14052857Y-9386429D01*
X14038571Y-9343572D01*
X14024286Y-9315000D01*
X13995714Y-9272143D01*
X13981428Y-9257857D01*
X7495000Y-9861000D02*
G75*
G03*
X7495000Y-9861000I-25000J0D01*
G01*
X7838571Y-9696714D02*
X7867143Y-9696714D01*
X7895714Y-9711000D01*
X7910000Y-9725286D01*
X7924286Y-9753857D01*
X7938571Y-9811000D01*
X7938571Y-9882429D01*
X7924286Y-9939572D01*
X7910000Y-9968143D01*
X7895714Y-9982429D01*
X7867143Y-9996714D01*
X7838571Y-9996714D01*
X7810000Y-9982429D01*
X7795714Y-9968143D01*
X7781428Y-9939572D01*
X7767143Y-9882429D01*
X7767143Y-9811000D01*
X7781428Y-9753857D01*
X7795714Y-9725286D01*
X7810000Y-9711000D01*
X7838571Y-9696714D01*
X8067143Y-9968143D02*
X8081428Y-9982429D01*
X8067143Y-9996714D01*
X8052857Y-9982429D01*
X8067143Y-9968143D01*
X8067143Y-9996714D01*
X8352857Y-9696714D02*
X8210000Y-9696714D01*
X8195714Y-9839572D01*
X8210000Y-9825286D01*
X8238571Y-9811000D01*
X8310000Y-9811000D01*
X8338571Y-9825286D01*
X8352857Y-9839572D01*
X8367143Y-9868143D01*
X8367143Y-9939572D01*
X8352857Y-9968143D01*
X8338571Y-9982429D01*
X8310000Y-9996714D01*
X8238571Y-9996714D01*
X8210000Y-9982429D01*
X8195714Y-9968143D01*
X8552857Y-9696714D02*
X8581428Y-9696714D01*
X8610000Y-9711000D01*
X8624286Y-9725286D01*
X8638571Y-9753857D01*
X8652857Y-9811000D01*
X8652857Y-9882429D01*
X8638571Y-9939572D01*
X8624286Y-9968143D01*
X8610000Y-9982429D01*
X8581428Y-9996714D01*
X8552857Y-9996714D01*
X8524286Y-9982429D01*
X8510000Y-9968143D01*
X8495714Y-9939572D01*
X8481428Y-9882429D01*
X8481428Y-9811000D01*
X8495714Y-9753857D01*
X8510000Y-9725286D01*
X8524286Y-9711000D01*
X8552857Y-9696714D01*
X8781428Y-9996714D02*
X8781428Y-9796714D01*
X8781428Y-9825286D02*
X8795714Y-9811000D01*
X8824286Y-9796714D01*
X8867143Y-9796714D01*
X8895714Y-9811000D01*
X8910000Y-9839572D01*
X8910000Y-9996714D01*
X8910000Y-9839572D02*
X8924286Y-9811000D01*
X8952857Y-9796714D01*
X8995714Y-9796714D01*
X9024286Y-9811000D01*
X9038571Y-9839572D01*
X9038571Y-9996714D01*
X9181428Y-9996714D02*
X9181428Y-9796714D01*
X9181428Y-9825286D02*
X9195714Y-9811000D01*
X9224286Y-9796714D01*
X9267143Y-9796714D01*
X9295714Y-9811000D01*
X9310000Y-9839572D01*
X9310000Y-9996714D01*
X9310000Y-9839572D02*
X9324286Y-9811000D01*
X9352857Y-9796714D01*
X9395714Y-9796714D01*
X9424286Y-9811000D01*
X9438571Y-9839572D01*
X9438571Y-9996714D01*
X10024286Y-9682429D02*
X9767143Y-10068143D01*
X10410000Y-9696714D02*
X10438571Y-9696714D01*
X10467143Y-9711000D01*
X10481428Y-9725286D01*
X10495714Y-9753857D01*
X10510000Y-9811000D01*
X10510000Y-9882429D01*
X10495714Y-9939572D01*
X10481428Y-9968143D01*
X10467143Y-9982429D01*
X10438571Y-9996714D01*
X10410000Y-9996714D01*
X10381428Y-9982429D01*
X10367143Y-9968143D01*
X10352857Y-9939572D01*
X10338571Y-9882429D01*
X10338571Y-9811000D01*
X10352857Y-9753857D01*
X10367143Y-9725286D01*
X10381428Y-9711000D01*
X10410000Y-9696714D01*
X10638571Y-9968143D02*
X10652857Y-9982429D01*
X10638571Y-9996714D01*
X10624286Y-9982429D01*
X10638571Y-9968143D01*
X10638571Y-9996714D01*
X10838571Y-9696714D02*
X10867143Y-9696714D01*
X10895714Y-9711000D01*
X10910000Y-9725286D01*
X10924286Y-9753857D01*
X10938571Y-9811000D01*
X10938571Y-9882429D01*
X10924286Y-9939572D01*
X10910000Y-9968143D01*
X10895714Y-9982429D01*
X10867143Y-9996714D01*
X10838571Y-9996714D01*
X10810000Y-9982429D01*
X10795714Y-9968143D01*
X10781428Y-9939572D01*
X10767143Y-9882429D01*
X10767143Y-9811000D01*
X10781428Y-9753857D01*
X10795714Y-9725286D01*
X10810000Y-9711000D01*
X10838571Y-9696714D01*
X11052857Y-9725286D02*
X11067143Y-9711000D01*
X11095714Y-9696714D01*
X11167143Y-9696714D01*
X11195714Y-9711000D01*
X11210000Y-9725286D01*
X11224286Y-9753857D01*
X11224286Y-9782429D01*
X11210000Y-9825286D01*
X11038571Y-9996714D01*
X11224286Y-9996714D01*
X11410000Y-9696714D02*
X11438571Y-9696714D01*
X11467143Y-9711000D01*
X11481428Y-9725286D01*
X11495714Y-9753857D01*
X11510000Y-9811000D01*
X11510000Y-9882429D01*
X11495714Y-9939572D01*
X11481428Y-9968143D01*
X11467143Y-9982429D01*
X11438571Y-9996714D01*
X11410000Y-9996714D01*
X11381428Y-9982429D01*
X11367143Y-9968143D01*
X11352857Y-9939572D01*
X11338571Y-9882429D01*
X11338571Y-9811000D01*
X11352857Y-9753857D01*
X11367143Y-9725286D01*
X11381428Y-9711000D01*
X11410000Y-9696714D01*
X11624286Y-9696714D02*
X11624286Y-9753857D01*
X11738571Y-9696714D02*
X11738571Y-9753857D01*
X12181428Y-10111000D02*
X12167143Y-10096714D01*
X12138571Y-10053857D01*
X12124286Y-10025286D01*
X12110000Y-9982429D01*
X12095714Y-9911000D01*
X12095714Y-9853857D01*
X12110000Y-9782429D01*
X12124286Y-9739572D01*
X12138571Y-9711000D01*
X12167143Y-9668143D01*
X12181428Y-9653857D01*
X12424286Y-9696714D02*
X12367143Y-9696714D01*
X12338571Y-9711000D01*
X12324286Y-9725286D01*
X12295714Y-9768143D01*
X12281428Y-9825286D01*
X12281428Y-9939572D01*
X12295714Y-9968143D01*
X12310000Y-9982429D01*
X12338571Y-9996714D01*
X12395714Y-9996714D01*
X12424286Y-9982429D01*
X12438571Y-9968143D01*
X12452857Y-9939572D01*
X12452857Y-9868143D01*
X12438571Y-9839572D01*
X12424286Y-9825286D01*
X12395714Y-9811000D01*
X12338571Y-9811000D01*
X12310000Y-9825286D01*
X12295714Y-9839572D01*
X12281428Y-9868143D01*
X12810000Y-9996714D02*
X12810000Y-9696714D01*
X12938571Y-9996714D02*
X12938571Y-9839572D01*
X12924286Y-9811000D01*
X12895714Y-9796714D01*
X12852857Y-9796714D01*
X12824286Y-9811000D01*
X12810000Y-9825286D01*
X13124286Y-9996714D02*
X13095714Y-9982429D01*
X13081428Y-9968143D01*
X13067143Y-9939572D01*
X13067143Y-9853857D01*
X13081428Y-9825286D01*
X13095714Y-9811000D01*
X13124286Y-9796714D01*
X13167143Y-9796714D01*
X13195714Y-9811000D01*
X13210000Y-9825286D01*
X13224286Y-9853857D01*
X13224286Y-9939572D01*
X13210000Y-9968143D01*
X13195714Y-9982429D01*
X13167143Y-9996714D01*
X13124286Y-9996714D01*
X13395714Y-9996714D02*
X13367143Y-9982429D01*
X13352857Y-9953857D01*
X13352857Y-9696714D01*
X13624286Y-9982429D02*
X13595714Y-9996714D01*
X13538571Y-9996714D01*
X13510000Y-9982429D01*
X13495714Y-9953857D01*
X13495714Y-9839572D01*
X13510000Y-9811000D01*
X13538571Y-9796714D01*
X13595714Y-9796714D01*
X13624286Y-9811000D01*
X13638571Y-9839572D01*
X13638571Y-9868143D01*
X13495714Y-9896714D01*
X13752857Y-9982429D02*
X13781428Y-9996714D01*
X13838571Y-9996714D01*
X13867143Y-9982429D01*
X13881428Y-9953857D01*
X13881428Y-9939572D01*
X13867143Y-9911000D01*
X13838571Y-9896714D01*
X13795714Y-9896714D01*
X13767143Y-9882429D01*
X13752857Y-9853857D01*
X13752857Y-9839572D01*
X13767143Y-9811000D01*
X13795714Y-9796714D01*
X13838571Y-9796714D01*
X13867143Y-9811000D01*
X13981428Y-10111000D02*
X13995714Y-10096714D01*
X14024286Y-10053857D01*
X14038571Y-10025286D01*
X14052857Y-9982429D01*
X14067143Y-9911000D01*
X14067143Y-9853857D01*
X14052857Y-9782429D01*
X14038571Y-9739572D01*
X14024286Y-9711000D01*
X13995714Y-9668143D01*
X13981428Y-9653857D01*
X7445000Y-10207000D02*
X7445000Y-10307000D01*
X7395000Y-10257000D02*
X7495000Y-10257000D01*
X7938571Y-10392714D02*
X7767143Y-10392714D01*
X7852857Y-10392714D02*
X7852857Y-10092714D01*
X7824286Y-10135572D01*
X7795714Y-10164143D01*
X7767143Y-10178429D01*
X8067143Y-10364143D02*
X8081428Y-10378429D01*
X8067143Y-10392714D01*
X8052857Y-10378429D01*
X8067143Y-10364143D01*
X8067143Y-10392714D01*
X8267143Y-10092714D02*
X8295714Y-10092714D01*
X8324286Y-10107000D01*
X8338571Y-10121286D01*
X8352857Y-10149857D01*
X8367143Y-10207000D01*
X8367143Y-10278429D01*
X8352857Y-10335572D01*
X8338571Y-10364143D01*
X8324286Y-10378429D01*
X8295714Y-10392714D01*
X8267143Y-10392714D01*
X8238571Y-10378429D01*
X8224286Y-10364143D01*
X8210000Y-10335572D01*
X8195714Y-10278429D01*
X8195714Y-10207000D01*
X8210000Y-10149857D01*
X8224286Y-10121286D01*
X8238571Y-10107000D01*
X8267143Y-10092714D01*
X8552857Y-10092714D02*
X8581428Y-10092714D01*
X8610000Y-10107000D01*
X8624286Y-10121286D01*
X8638571Y-10149857D01*
X8652857Y-10207000D01*
X8652857Y-10278429D01*
X8638571Y-10335572D01*
X8624286Y-10364143D01*
X8610000Y-10378429D01*
X8581428Y-10392714D01*
X8552857Y-10392714D01*
X8524286Y-10378429D01*
X8510000Y-10364143D01*
X8495714Y-10335572D01*
X8481428Y-10278429D01*
X8481428Y-10207000D01*
X8495714Y-10149857D01*
X8510000Y-10121286D01*
X8524286Y-10107000D01*
X8552857Y-10092714D01*
X8781428Y-10392714D02*
X8781428Y-10192714D01*
X8781428Y-10221286D02*
X8795714Y-10207000D01*
X8824286Y-10192714D01*
X8867143Y-10192714D01*
X8895714Y-10207000D01*
X8910000Y-10235572D01*
X8910000Y-10392714D01*
X8910000Y-10235572D02*
X8924286Y-10207000D01*
X8952857Y-10192714D01*
X8995714Y-10192714D01*
X9024286Y-10207000D01*
X9038571Y-10235572D01*
X9038571Y-10392714D01*
X9181428Y-10392714D02*
X9181428Y-10192714D01*
X9181428Y-10221286D02*
X9195714Y-10207000D01*
X9224286Y-10192714D01*
X9267143Y-10192714D01*
X9295714Y-10207000D01*
X9310000Y-10235572D01*
X9310000Y-10392714D01*
X9310000Y-10235572D02*
X9324286Y-10207000D01*
X9352857Y-10192714D01*
X9395714Y-10192714D01*
X9424286Y-10207000D01*
X9438571Y-10235572D01*
X9438571Y-10392714D01*
X10024286Y-10078429D02*
X9767143Y-10464143D01*
X10410000Y-10092714D02*
X10438571Y-10092714D01*
X10467143Y-10107000D01*
X10481428Y-10121286D01*
X10495714Y-10149857D01*
X10510000Y-10207000D01*
X10510000Y-10278429D01*
X10495714Y-10335572D01*
X10481428Y-10364143D01*
X10467143Y-10378429D01*
X10438571Y-10392714D01*
X10410000Y-10392714D01*
X10381428Y-10378429D01*
X10367143Y-10364143D01*
X10352857Y-10335572D01*
X10338571Y-10278429D01*
X10338571Y-10207000D01*
X10352857Y-10149857D01*
X10367143Y-10121286D01*
X10381428Y-10107000D01*
X10410000Y-10092714D01*
X10638571Y-10364143D02*
X10652857Y-10378429D01*
X10638571Y-10392714D01*
X10624286Y-10378429D01*
X10638571Y-10364143D01*
X10638571Y-10392714D01*
X10838571Y-10092714D02*
X10867143Y-10092714D01*
X10895714Y-10107000D01*
X10910000Y-10121286D01*
X10924286Y-10149857D01*
X10938571Y-10207000D01*
X10938571Y-10278429D01*
X10924286Y-10335572D01*
X10910000Y-10364143D01*
X10895714Y-10378429D01*
X10867143Y-10392714D01*
X10838571Y-10392714D01*
X10810000Y-10378429D01*
X10795714Y-10364143D01*
X10781428Y-10335572D01*
X10767143Y-10278429D01*
X10767143Y-10207000D01*
X10781428Y-10149857D01*
X10795714Y-10121286D01*
X10810000Y-10107000D01*
X10838571Y-10092714D01*
X11038571Y-10092714D02*
X11224286Y-10092714D01*
X11124286Y-10207000D01*
X11167143Y-10207000D01*
X11195714Y-10221286D01*
X11210000Y-10235572D01*
X11224286Y-10264143D01*
X11224286Y-10335572D01*
X11210000Y-10364143D01*
X11195714Y-10378429D01*
X11167143Y-10392714D01*
X11081428Y-10392714D01*
X11052857Y-10378429D01*
X11038571Y-10364143D01*
X11367143Y-10392714D02*
X11424286Y-10392714D01*
X11452857Y-10378429D01*
X11467143Y-10364143D01*
X11495714Y-10321286D01*
X11510000Y-10264143D01*
X11510000Y-10149857D01*
X11495714Y-10121286D01*
X11481428Y-10107000D01*
X11452857Y-10092714D01*
X11395714Y-10092714D01*
X11367143Y-10107000D01*
X11352857Y-10121286D01*
X11338571Y-10149857D01*
X11338571Y-10221286D01*
X11352857Y-10249857D01*
X11367143Y-10264143D01*
X11395714Y-10278429D01*
X11452857Y-10278429D01*
X11481428Y-10264143D01*
X11495714Y-10249857D01*
X11510000Y-10221286D01*
X11624286Y-10092714D02*
X11624286Y-10149857D01*
X11738571Y-10092714D02*
X11738571Y-10149857D01*
X12181428Y-10507000D02*
X12167143Y-10492714D01*
X12138571Y-10449857D01*
X12124286Y-10421286D01*
X12110000Y-10378429D01*
X12095714Y-10307000D01*
X12095714Y-10249857D01*
X12110000Y-10178429D01*
X12124286Y-10135572D01*
X12138571Y-10107000D01*
X12167143Y-10064143D01*
X12181428Y-10049857D01*
X12452857Y-10392714D02*
X12281428Y-10392714D01*
X12367143Y-10392714D02*
X12367143Y-10092714D01*
X12338571Y-10135572D01*
X12310000Y-10164143D01*
X12281428Y-10178429D01*
X12567143Y-10121286D02*
X12581428Y-10107000D01*
X12610000Y-10092714D01*
X12681428Y-10092714D01*
X12710000Y-10107000D01*
X12724286Y-10121286D01*
X12738571Y-10149857D01*
X12738571Y-10178429D01*
X12724286Y-10221286D01*
X12552857Y-10392714D01*
X12738571Y-10392714D01*
X13095714Y-10392714D02*
X13095714Y-10092714D01*
X13224286Y-10392714D02*
X13224286Y-10235572D01*
X13210000Y-10207000D01*
X13181428Y-10192714D01*
X13138571Y-10192714D01*
X13110000Y-10207000D01*
X13095714Y-10221286D01*
X13410000Y-10392714D02*
X13381428Y-10378429D01*
X13367143Y-10364143D01*
X13352857Y-10335572D01*
X13352857Y-10249857D01*
X13367143Y-10221286D01*
X13381428Y-10207000D01*
X13410000Y-10192714D01*
X13452857Y-10192714D01*
X13481428Y-10207000D01*
X13495714Y-10221286D01*
X13510000Y-10249857D01*
X13510000Y-10335572D01*
X13495714Y-10364143D01*
X13481428Y-10378429D01*
X13452857Y-10392714D01*
X13410000Y-10392714D01*
X13681428Y-10392714D02*
X13652857Y-10378429D01*
X13638571Y-10349857D01*
X13638571Y-10092714D01*
X13910000Y-10378429D02*
X13881428Y-10392714D01*
X13824286Y-10392714D01*
X13795714Y-10378429D01*
X13781428Y-10349857D01*
X13781428Y-10235572D01*
X13795714Y-10207000D01*
X13824286Y-10192714D01*
X13881428Y-10192714D01*
X13910000Y-10207000D01*
X13924286Y-10235572D01*
X13924286Y-10264143D01*
X13781428Y-10292714D01*
X14038571Y-10378429D02*
X14067143Y-10392714D01*
X14124286Y-10392714D01*
X14152857Y-10378429D01*
X14167143Y-10349857D01*
X14167143Y-10335572D01*
X14152857Y-10307000D01*
X14124286Y-10292714D01*
X14081428Y-10292714D01*
X14052857Y-10278429D01*
X14038571Y-10249857D01*
X14038571Y-10235572D01*
X14052857Y-10207000D01*
X14081428Y-10192714D01*
X14124286Y-10192714D01*
X14152857Y-10207000D01*
X14267143Y-10507000D02*
X14281428Y-10492714D01*
X14310000Y-10449857D01*
X14324286Y-10421286D01*
X14338571Y-10378429D01*
X14352857Y-10307000D01*
X14352857Y-10249857D01*
X14338571Y-10178429D01*
X14324286Y-10135572D01*
X14310000Y-10107000D01*
X14281428Y-10064143D01*
X14267143Y-10049857D01*
X7477427Y-10695427D02*
X7477427Y-10610573D01*
X7392573Y-10610573D01*
X7392573Y-10695427D01*
X7477427Y-10695427D01*
X7938571Y-10788714D02*
X7767143Y-10788714D01*
X7852857Y-10788714D02*
X7852857Y-10488714D01*
X7824286Y-10531572D01*
X7795714Y-10560143D01*
X7767143Y-10574429D01*
X8067143Y-10760143D02*
X8081428Y-10774429D01*
X8067143Y-10788714D01*
X8052857Y-10774429D01*
X8067143Y-10760143D01*
X8067143Y-10788714D01*
X8195714Y-10517286D02*
X8210000Y-10503000D01*
X8238571Y-10488714D01*
X8310000Y-10488714D01*
X8338571Y-10503000D01*
X8352857Y-10517286D01*
X8367143Y-10545857D01*
X8367143Y-10574429D01*
X8352857Y-10617286D01*
X8181428Y-10788714D01*
X8367143Y-10788714D01*
X8552857Y-10488714D02*
X8581428Y-10488714D01*
X8610000Y-10503000D01*
X8624286Y-10517286D01*
X8638571Y-10545857D01*
X8652857Y-10603000D01*
X8652857Y-10674429D01*
X8638571Y-10731572D01*
X8624286Y-10760143D01*
X8610000Y-10774429D01*
X8581428Y-10788714D01*
X8552857Y-10788714D01*
X8524286Y-10774429D01*
X8510000Y-10760143D01*
X8495714Y-10731572D01*
X8481428Y-10674429D01*
X8481428Y-10603000D01*
X8495714Y-10545857D01*
X8510000Y-10517286D01*
X8524286Y-10503000D01*
X8552857Y-10488714D01*
X8781428Y-10788714D02*
X8781428Y-10588714D01*
X8781428Y-10617286D02*
X8795714Y-10603000D01*
X8824286Y-10588714D01*
X8867143Y-10588714D01*
X8895714Y-10603000D01*
X8910000Y-10631572D01*
X8910000Y-10788714D01*
X8910000Y-10631572D02*
X8924286Y-10603000D01*
X8952857Y-10588714D01*
X8995714Y-10588714D01*
X9024286Y-10603000D01*
X9038571Y-10631572D01*
X9038571Y-10788714D01*
X9181428Y-10788714D02*
X9181428Y-10588714D01*
X9181428Y-10617286D02*
X9195714Y-10603000D01*
X9224286Y-10588714D01*
X9267143Y-10588714D01*
X9295714Y-10603000D01*
X9310000Y-10631572D01*
X9310000Y-10788714D01*
X9310000Y-10631572D02*
X9324286Y-10603000D01*
X9352857Y-10588714D01*
X9395714Y-10588714D01*
X9424286Y-10603000D01*
X9438571Y-10631572D01*
X9438571Y-10788714D01*
X10024286Y-10474429D02*
X9767143Y-10860143D01*
X10410000Y-10488714D02*
X10438571Y-10488714D01*
X10467143Y-10503000D01*
X10481428Y-10517286D01*
X10495714Y-10545857D01*
X10510000Y-10603000D01*
X10510000Y-10674429D01*
X10495714Y-10731572D01*
X10481428Y-10760143D01*
X10467143Y-10774429D01*
X10438571Y-10788714D01*
X10410000Y-10788714D01*
X10381428Y-10774429D01*
X10367143Y-10760143D01*
X10352857Y-10731572D01*
X10338571Y-10674429D01*
X10338571Y-10603000D01*
X10352857Y-10545857D01*
X10367143Y-10517286D01*
X10381428Y-10503000D01*
X10410000Y-10488714D01*
X10638571Y-10760143D02*
X10652857Y-10774429D01*
X10638571Y-10788714D01*
X10624286Y-10774429D01*
X10638571Y-10760143D01*
X10638571Y-10788714D01*
X10838571Y-10488714D02*
X10867143Y-10488714D01*
X10895714Y-10503000D01*
X10910000Y-10517286D01*
X10924286Y-10545857D01*
X10938571Y-10603000D01*
X10938571Y-10674429D01*
X10924286Y-10731572D01*
X10910000Y-10760143D01*
X10895714Y-10774429D01*
X10867143Y-10788714D01*
X10838571Y-10788714D01*
X10810000Y-10774429D01*
X10795714Y-10760143D01*
X10781428Y-10731572D01*
X10767143Y-10674429D01*
X10767143Y-10603000D01*
X10781428Y-10545857D01*
X10795714Y-10517286D01*
X10810000Y-10503000D01*
X10838571Y-10488714D01*
X11195714Y-10588714D02*
X11195714Y-10788714D01*
X11124286Y-10474429D02*
X11052857Y-10688714D01*
X11238571Y-10688714D01*
X11324286Y-10488714D02*
X11524286Y-10488714D01*
X11395714Y-10788714D01*
X11624286Y-10488714D02*
X11624286Y-10545857D01*
X11738571Y-10488714D02*
X11738571Y-10545857D01*
X12181428Y-10903000D02*
X12167143Y-10888714D01*
X12138571Y-10845857D01*
X12124286Y-10817286D01*
X12110000Y-10774429D01*
X12095714Y-10703000D01*
X12095714Y-10645857D01*
X12110000Y-10574429D01*
X12124286Y-10531572D01*
X12138571Y-10503000D01*
X12167143Y-10460143D01*
X12181428Y-10445857D01*
X12281428Y-10517286D02*
X12295714Y-10503000D01*
X12324286Y-10488714D01*
X12395714Y-10488714D01*
X12424286Y-10503000D01*
X12438571Y-10517286D01*
X12452857Y-10545857D01*
X12452857Y-10574429D01*
X12438571Y-10617286D01*
X12267143Y-10788714D01*
X12452857Y-10788714D01*
X12810000Y-10788714D02*
X12810000Y-10488714D01*
X12938571Y-10788714D02*
X12938571Y-10631572D01*
X12924286Y-10603000D01*
X12895714Y-10588714D01*
X12852857Y-10588714D01*
X12824286Y-10603000D01*
X12810000Y-10617286D01*
X13124286Y-10788714D02*
X13095714Y-10774429D01*
X13081428Y-10760143D01*
X13067143Y-10731572D01*
X13067143Y-10645857D01*
X13081428Y-10617286D01*
X13095714Y-10603000D01*
X13124286Y-10588714D01*
X13167143Y-10588714D01*
X13195714Y-10603000D01*
X13210000Y-10617286D01*
X13224286Y-10645857D01*
X13224286Y-10731572D01*
X13210000Y-10760143D01*
X13195714Y-10774429D01*
X13167143Y-10788714D01*
X13124286Y-10788714D01*
X13395714Y-10788714D02*
X13367143Y-10774429D01*
X13352857Y-10745857D01*
X13352857Y-10488714D01*
X13624286Y-10774429D02*
X13595714Y-10788714D01*
X13538571Y-10788714D01*
X13510000Y-10774429D01*
X13495714Y-10745857D01*
X13495714Y-10631572D01*
X13510000Y-10603000D01*
X13538571Y-10588714D01*
X13595714Y-10588714D01*
X13624286Y-10603000D01*
X13638571Y-10631572D01*
X13638571Y-10660143D01*
X13495714Y-10688714D01*
X13752857Y-10774429D02*
X13781428Y-10788714D01*
X13838571Y-10788714D01*
X13867143Y-10774429D01*
X13881428Y-10745857D01*
X13881428Y-10731572D01*
X13867143Y-10703000D01*
X13838571Y-10688714D01*
X13795714Y-10688714D01*
X13767143Y-10674429D01*
X13752857Y-10645857D01*
X13752857Y-10631572D01*
X13767143Y-10603000D01*
X13795714Y-10588714D01*
X13838571Y-10588714D01*
X13867143Y-10603000D01*
X13981428Y-10903000D02*
X13995714Y-10888714D01*
X14024286Y-10845857D01*
X14038571Y-10817286D01*
X14052857Y-10774429D01*
X14067143Y-10703000D01*
X14067143Y-10645857D01*
X14052857Y-10574429D01*
X14038571Y-10531572D01*
X14024286Y-10503000D01*
X13995714Y-10460143D01*
X13981428Y-10445857D01*
X7407500Y-11136500D02*
X7495000Y-11049000D01*
X7407500Y-10961500D01*
X7320000Y-11049000D01*
X7407500Y-11136500D01*
X7938571Y-11184714D02*
X7767143Y-11184714D01*
X7852857Y-11184714D02*
X7852857Y-10884714D01*
X7824286Y-10927572D01*
X7795714Y-10956143D01*
X7767143Y-10970429D01*
X8067143Y-11156143D02*
X8081428Y-11170429D01*
X8067143Y-11184714D01*
X8052857Y-11170429D01*
X8067143Y-11156143D01*
X8067143Y-11184714D01*
X8181428Y-10884714D02*
X8381428Y-10884714D01*
X8252857Y-11184714D01*
X8638571Y-10884714D02*
X8495714Y-10884714D01*
X8481428Y-11027572D01*
X8495714Y-11013286D01*
X8524286Y-10999000D01*
X8595714Y-10999000D01*
X8624286Y-11013286D01*
X8638571Y-11027572D01*
X8652857Y-11056143D01*
X8652857Y-11127572D01*
X8638571Y-11156143D01*
X8624286Y-11170429D01*
X8595714Y-11184714D01*
X8524286Y-11184714D01*
X8495714Y-11170429D01*
X8481428Y-11156143D01*
X8781428Y-11184714D02*
X8781428Y-10984714D01*
X8781428Y-11013286D02*
X8795714Y-10999000D01*
X8824286Y-10984714D01*
X8867143Y-10984714D01*
X8895714Y-10999000D01*
X8910000Y-11027572D01*
X8910000Y-11184714D01*
X8910000Y-11027572D02*
X8924286Y-10999000D01*
X8952857Y-10984714D01*
X8995714Y-10984714D01*
X9024286Y-10999000D01*
X9038571Y-11027572D01*
X9038571Y-11184714D01*
X9181428Y-11184714D02*
X9181428Y-10984714D01*
X9181428Y-11013286D02*
X9195714Y-10999000D01*
X9224286Y-10984714D01*
X9267143Y-10984714D01*
X9295714Y-10999000D01*
X9310000Y-11027572D01*
X9310000Y-11184714D01*
X9310000Y-11027572D02*
X9324286Y-10999000D01*
X9352857Y-10984714D01*
X9395714Y-10984714D01*
X9424286Y-10999000D01*
X9438571Y-11027572D01*
X9438571Y-11184714D01*
X10024286Y-10870429D02*
X9767143Y-11256143D01*
X10410000Y-10884714D02*
X10438571Y-10884714D01*
X10467143Y-10899000D01*
X10481428Y-10913286D01*
X10495714Y-10941857D01*
X10510000Y-10999000D01*
X10510000Y-11070429D01*
X10495714Y-11127572D01*
X10481428Y-11156143D01*
X10467143Y-11170429D01*
X10438571Y-11184714D01*
X10410000Y-11184714D01*
X10381428Y-11170429D01*
X10367143Y-11156143D01*
X10352857Y-11127572D01*
X10338571Y-11070429D01*
X10338571Y-10999000D01*
X10352857Y-10941857D01*
X10367143Y-10913286D01*
X10381428Y-10899000D01*
X10410000Y-10884714D01*
X10638571Y-11156143D02*
X10652857Y-11170429D01*
X10638571Y-11184714D01*
X10624286Y-11170429D01*
X10638571Y-11156143D01*
X10638571Y-11184714D01*
X10838571Y-10884714D02*
X10867143Y-10884714D01*
X10895714Y-10899000D01*
X10910000Y-10913286D01*
X10924286Y-10941857D01*
X10938571Y-10999000D01*
X10938571Y-11070429D01*
X10924286Y-11127572D01*
X10910000Y-11156143D01*
X10895714Y-11170429D01*
X10867143Y-11184714D01*
X10838571Y-11184714D01*
X10810000Y-11170429D01*
X10795714Y-11156143D01*
X10781428Y-11127572D01*
X10767143Y-11070429D01*
X10767143Y-10999000D01*
X10781428Y-10941857D01*
X10795714Y-10913286D01*
X10810000Y-10899000D01*
X10838571Y-10884714D01*
X11195714Y-10884714D02*
X11138571Y-10884714D01*
X11110000Y-10899000D01*
X11095714Y-10913286D01*
X11067143Y-10956143D01*
X11052857Y-11013286D01*
X11052857Y-11127572D01*
X11067143Y-11156143D01*
X11081428Y-11170429D01*
X11110000Y-11184714D01*
X11167143Y-11184714D01*
X11195714Y-11170429D01*
X11210000Y-11156143D01*
X11224286Y-11127572D01*
X11224286Y-11056143D01*
X11210000Y-11027572D01*
X11195714Y-11013286D01*
X11167143Y-10999000D01*
X11110000Y-10999000D01*
X11081428Y-11013286D01*
X11067143Y-11027572D01*
X11052857Y-11056143D01*
X11367143Y-11184714D02*
X11424286Y-11184714D01*
X11452857Y-11170429D01*
X11467143Y-11156143D01*
X11495714Y-11113286D01*
X11510000Y-11056143D01*
X11510000Y-10941857D01*
X11495714Y-10913286D01*
X11481428Y-10899000D01*
X11452857Y-10884714D01*
X11395714Y-10884714D01*
X11367143Y-10899000D01*
X11352857Y-10913286D01*
X11338571Y-10941857D01*
X11338571Y-11013286D01*
X11352857Y-11041857D01*
X11367143Y-11056143D01*
X11395714Y-11070429D01*
X11452857Y-11070429D01*
X11481428Y-11056143D01*
X11495714Y-11041857D01*
X11510000Y-11013286D01*
X11624286Y-10884714D02*
X11624286Y-10941857D01*
X11738571Y-10884714D02*
X11738571Y-10941857D01*
X12181428Y-11299000D02*
X12167143Y-11284714D01*
X12138571Y-11241857D01*
X12124286Y-11213286D01*
X12110000Y-11170429D01*
X12095714Y-11099000D01*
X12095714Y-11041857D01*
X12110000Y-10970429D01*
X12124286Y-10927572D01*
X12138571Y-10899000D01*
X12167143Y-10856143D01*
X12181428Y-10841857D01*
X12424286Y-10984714D02*
X12424286Y-11184714D01*
X12352857Y-10870429D02*
X12281428Y-11084714D01*
X12467143Y-11084714D01*
X12810000Y-11184714D02*
X12810000Y-10884714D01*
X12938571Y-11184714D02*
X12938571Y-11027572D01*
X12924286Y-10999000D01*
X12895714Y-10984714D01*
X12852857Y-10984714D01*
X12824286Y-10999000D01*
X12810000Y-11013286D01*
X13124286Y-11184714D02*
X13095714Y-11170429D01*
X13081428Y-11156143D01*
X13067143Y-11127572D01*
X13067143Y-11041857D01*
X13081428Y-11013286D01*
X13095714Y-10999000D01*
X13124286Y-10984714D01*
X13167143Y-10984714D01*
X13195714Y-10999000D01*
X13210000Y-11013286D01*
X13224286Y-11041857D01*
X13224286Y-11127572D01*
X13210000Y-11156143D01*
X13195714Y-11170429D01*
X13167143Y-11184714D01*
X13124286Y-11184714D01*
X13395714Y-11184714D02*
X13367143Y-11170429D01*
X13352857Y-11141857D01*
X13352857Y-10884714D01*
X13624286Y-11170429D02*
X13595714Y-11184714D01*
X13538571Y-11184714D01*
X13510000Y-11170429D01*
X13495714Y-11141857D01*
X13495714Y-11027572D01*
X13510000Y-10999000D01*
X13538571Y-10984714D01*
X13595714Y-10984714D01*
X13624286Y-10999000D01*
X13638571Y-11027572D01*
X13638571Y-11056143D01*
X13495714Y-11084714D01*
X13752857Y-11170429D02*
X13781428Y-11184714D01*
X13838571Y-11184714D01*
X13867143Y-11170429D01*
X13881428Y-11141857D01*
X13881428Y-11127572D01*
X13867143Y-11099000D01*
X13838571Y-11084714D01*
X13795714Y-11084714D01*
X13767143Y-11070429D01*
X13752857Y-11041857D01*
X13752857Y-11027572D01*
X13767143Y-10999000D01*
X13795714Y-10984714D01*
X13838571Y-10984714D01*
X13867143Y-10999000D01*
X13981428Y-11299000D02*
X13995714Y-11284714D01*
X14024286Y-11241857D01*
X14038571Y-11213286D01*
X14052857Y-11170429D01*
X14067143Y-11099000D01*
X14067143Y-11041857D01*
X14052857Y-10970429D01*
X14038571Y-10927572D01*
X14024286Y-10899000D01*
X13995714Y-10856143D01*
X13981428Y-10841857D01*
X7175000Y-11285000D02*
X7495000Y-11605000D01*
X7495000Y-11285000D02*
X7175000Y-11605000D01*
X7495000Y-11445000D02*
G75*
G03*
X7495000Y-11445000I-160000J0D01*
G01*
X7752857Y-11280714D02*
X7938571Y-11280714D01*
X7838571Y-11395000D01*
X7881428Y-11395000D01*
X7910000Y-11409286D01*
X7924286Y-11423571D01*
X7938571Y-11452143D01*
X7938571Y-11523571D01*
X7924286Y-11552143D01*
X7910000Y-11566429D01*
X7881428Y-11580714D01*
X7795714Y-11580714D01*
X7767143Y-11566429D01*
X7752857Y-11552143D01*
X8067143Y-11552143D02*
X8081428Y-11566429D01*
X8067143Y-11580714D01*
X8052857Y-11566429D01*
X8067143Y-11552143D01*
X8067143Y-11580714D01*
X8195714Y-11309286D02*
X8210000Y-11295000D01*
X8238571Y-11280714D01*
X8310000Y-11280714D01*
X8338571Y-11295000D01*
X8352857Y-11309286D01*
X8367143Y-11337857D01*
X8367143Y-11366429D01*
X8352857Y-11409286D01*
X8181428Y-11580714D01*
X8367143Y-11580714D01*
X8552857Y-11280714D02*
X8581428Y-11280714D01*
X8610000Y-11295000D01*
X8624286Y-11309286D01*
X8638571Y-11337857D01*
X8652857Y-11395000D01*
X8652857Y-11466429D01*
X8638571Y-11523571D01*
X8624286Y-11552143D01*
X8610000Y-11566429D01*
X8581428Y-11580714D01*
X8552857Y-11580714D01*
X8524286Y-11566429D01*
X8510000Y-11552143D01*
X8495714Y-11523571D01*
X8481428Y-11466429D01*
X8481428Y-11395000D01*
X8495714Y-11337857D01*
X8510000Y-11309286D01*
X8524286Y-11295000D01*
X8552857Y-11280714D01*
X8781428Y-11580714D02*
X8781428Y-11380714D01*
X8781428Y-11409286D02*
X8795714Y-11395000D01*
X8824286Y-11380714D01*
X8867143Y-11380714D01*
X8895714Y-11395000D01*
X8910000Y-11423571D01*
X8910000Y-11580714D01*
X8910000Y-11423571D02*
X8924286Y-11395000D01*
X8952857Y-11380714D01*
X8995714Y-11380714D01*
X9024286Y-11395000D01*
X9038571Y-11423571D01*
X9038571Y-11580714D01*
X9181428Y-11580714D02*
X9181428Y-11380714D01*
X9181428Y-11409286D02*
X9195714Y-11395000D01*
X9224286Y-11380714D01*
X9267143Y-11380714D01*
X9295714Y-11395000D01*
X9310000Y-11423571D01*
X9310000Y-11580714D01*
X9310000Y-11423571D02*
X9324286Y-11395000D01*
X9352857Y-11380714D01*
X9395714Y-11380714D01*
X9424286Y-11395000D01*
X9438571Y-11423571D01*
X9438571Y-11580714D01*
X10024286Y-11266429D02*
X9767143Y-11652143D01*
X10410000Y-11280714D02*
X10438571Y-11280714D01*
X10467143Y-11295000D01*
X10481428Y-11309286D01*
X10495714Y-11337857D01*
X10510000Y-11395000D01*
X10510000Y-11466429D01*
X10495714Y-11523571D01*
X10481428Y-11552143D01*
X10467143Y-11566429D01*
X10438571Y-11580714D01*
X10410000Y-11580714D01*
X10381428Y-11566429D01*
X10367143Y-11552143D01*
X10352857Y-11523571D01*
X10338571Y-11466429D01*
X10338571Y-11395000D01*
X10352857Y-11337857D01*
X10367143Y-11309286D01*
X10381428Y-11295000D01*
X10410000Y-11280714D01*
X10638571Y-11552143D02*
X10652857Y-11566429D01*
X10638571Y-11580714D01*
X10624286Y-11566429D01*
X10638571Y-11552143D01*
X10638571Y-11580714D01*
X10938571Y-11580714D02*
X10767143Y-11580714D01*
X10852857Y-11580714D02*
X10852857Y-11280714D01*
X10824286Y-11323571D01*
X10795714Y-11352143D01*
X10767143Y-11366429D01*
X11052857Y-11309286D02*
X11067143Y-11295000D01*
X11095714Y-11280714D01*
X11167143Y-11280714D01*
X11195714Y-11295000D01*
X11210000Y-11309286D01*
X11224286Y-11337857D01*
X11224286Y-11366429D01*
X11210000Y-11409286D01*
X11038571Y-11580714D01*
X11224286Y-11580714D01*
X11481428Y-11280714D02*
X11424286Y-11280714D01*
X11395714Y-11295000D01*
X11381428Y-11309286D01*
X11352857Y-11352143D01*
X11338571Y-11409286D01*
X11338571Y-11523571D01*
X11352857Y-11552143D01*
X11367143Y-11566429D01*
X11395714Y-11580714D01*
X11452857Y-11580714D01*
X11481428Y-11566429D01*
X11495714Y-11552143D01*
X11510000Y-11523571D01*
X11510000Y-11452143D01*
X11495714Y-11423571D01*
X11481428Y-11409286D01*
X11452857Y-11395000D01*
X11395714Y-11395000D01*
X11367143Y-11409286D01*
X11352857Y-11423571D01*
X11338571Y-11452143D01*
X11624286Y-11280714D02*
X11624286Y-11337857D01*
X11738571Y-11280714D02*
X11738571Y-11337857D01*
X12181428Y-11695000D02*
X12167143Y-11680714D01*
X12138571Y-11637857D01*
X12124286Y-11609286D01*
X12110000Y-11566429D01*
X12095714Y-11495000D01*
X12095714Y-11437857D01*
X12110000Y-11366429D01*
X12124286Y-11323571D01*
X12138571Y-11295000D01*
X12167143Y-11252143D01*
X12181428Y-11237857D01*
X12424286Y-11380714D02*
X12424286Y-11580714D01*
X12352857Y-11266429D02*
X12281428Y-11480714D01*
X12467143Y-11480714D01*
X12810000Y-11580714D02*
X12810000Y-11280714D01*
X12938571Y-11580714D02*
X12938571Y-11423571D01*
X12924286Y-11395000D01*
X12895714Y-11380714D01*
X12852857Y-11380714D01*
X12824286Y-11395000D01*
X12810000Y-11409286D01*
X13124286Y-11580714D02*
X13095714Y-11566429D01*
X13081428Y-11552143D01*
X13067143Y-11523571D01*
X13067143Y-11437857D01*
X13081428Y-11409286D01*
X13095714Y-11395000D01*
X13124286Y-11380714D01*
X13167143Y-11380714D01*
X13195714Y-11395000D01*
X13210000Y-11409286D01*
X13224286Y-11437857D01*
X13224286Y-11523571D01*
X13210000Y-11552143D01*
X13195714Y-11566429D01*
X13167143Y-11580714D01*
X13124286Y-11580714D01*
X13395714Y-11580714D02*
X13367143Y-11566429D01*
X13352857Y-11537857D01*
X13352857Y-11280714D01*
X13624286Y-11566429D02*
X13595714Y-11580714D01*
X13538571Y-11580714D01*
X13510000Y-11566429D01*
X13495714Y-11537857D01*
X13495714Y-11423571D01*
X13510000Y-11395000D01*
X13538571Y-11380714D01*
X13595714Y-11380714D01*
X13624286Y-11395000D01*
X13638571Y-11423571D01*
X13638571Y-11452143D01*
X13495714Y-11480714D01*
X13752857Y-11566429D02*
X13781428Y-11580714D01*
X13838571Y-11580714D01*
X13867143Y-11566429D01*
X13881428Y-11537857D01*
X13881428Y-11523571D01*
X13867143Y-11495000D01*
X13838571Y-11480714D01*
X13795714Y-11480714D01*
X13767143Y-11466429D01*
X13752857Y-11437857D01*
X13752857Y-11423571D01*
X13767143Y-11395000D01*
X13795714Y-11380714D01*
X13838571Y-11380714D01*
X13867143Y-11395000D01*
X13981428Y-11695000D02*
X13995714Y-11680714D01*
X14024286Y-11637857D01*
X14038571Y-11609286D01*
X14052857Y-11566429D01*
X14067143Y-11495000D01*
X14067143Y-11437857D01*
X14052857Y-11366429D01*
X14038571Y-11323571D01*
X14024286Y-11295000D01*
X13995714Y-11252143D01*
X13981428Y-11237857D01*
M02*
