%FSLAX45Y45*%
G04 Gerber Fmt 4.5, Leading zero omitted, Abs format (unit mm)*
G04 Created by KiCad (PCBNEW 5.1.6+dfsg1-1~bpo9+1) date 2022-04-04 20:28:34*
%MOMM*%
%LPD*%
G01*
G04 APERTURE LIST*
%TA.AperFunction,Profile*%
%ADD10C,0.100000*%
%TD*%
%ADD11C,0.200000*%
%ADD12C,0.300000*%
G04 APERTURE END LIST*
D10*
X15500000Y-3000000D02*
X7500000Y-3000000D01*
X15500000Y-3000000D02*
X15500000Y-8500000D01*
X7500000Y-8500000D02*
X7500000Y-3000000D01*
X7500000Y-8500000D02*
X15500000Y-8500000D01*
D11*
X9739300Y-3435700D02*
X9859300Y-3555700D01*
X9859300Y-3435700D02*
X9739300Y-3555700D01*
X10825150Y-3435700D02*
X10945150Y-3555700D01*
X10945150Y-3435700D02*
X10825150Y-3555700D01*
X14139850Y-3442050D02*
X14259850Y-3562050D01*
X14259850Y-3442050D02*
X14139850Y-3562050D01*
X8577250Y-4797140D02*
X8697250Y-4917140D01*
X8697250Y-4797140D02*
X8577250Y-4917140D01*
X11917350Y-3435700D02*
X12037350Y-3555700D01*
X12037350Y-3435700D02*
X11917350Y-3555700D01*
X13009550Y-3435700D02*
X13129550Y-3555700D01*
X13129550Y-3435700D02*
X13009550Y-3555700D01*
D12*
X7781428Y-8970714D02*
X7781428Y-8670714D01*
X7852857Y-8670714D01*
X7895714Y-8685000D01*
X7924286Y-8713572D01*
X7938571Y-8742143D01*
X7952857Y-8799286D01*
X7952857Y-8842143D01*
X7938571Y-8899286D01*
X7924286Y-8927857D01*
X7895714Y-8956429D01*
X7852857Y-8970714D01*
X7781428Y-8970714D01*
X8081428Y-8970714D02*
X8081428Y-8770714D01*
X8081428Y-8827857D02*
X8095714Y-8799286D01*
X8110000Y-8785000D01*
X8138571Y-8770714D01*
X8167143Y-8770714D01*
X8267143Y-8970714D02*
X8267143Y-8770714D01*
X8267143Y-8670714D02*
X8252857Y-8685000D01*
X8267143Y-8699286D01*
X8281428Y-8685000D01*
X8267143Y-8670714D01*
X8267143Y-8699286D01*
X8452857Y-8970714D02*
X8424286Y-8956429D01*
X8410000Y-8927857D01*
X8410000Y-8670714D01*
X8610000Y-8970714D02*
X8581428Y-8956429D01*
X8567143Y-8927857D01*
X8567143Y-8670714D01*
X8952857Y-8970714D02*
X8952857Y-8670714D01*
X9052857Y-8885000D01*
X9152857Y-8670714D01*
X9152857Y-8970714D01*
X9424286Y-8970714D02*
X9424286Y-8813572D01*
X9410000Y-8785000D01*
X9381428Y-8770714D01*
X9324286Y-8770714D01*
X9295714Y-8785000D01*
X9424286Y-8956429D02*
X9395714Y-8970714D01*
X9324286Y-8970714D01*
X9295714Y-8956429D01*
X9281428Y-8927857D01*
X9281428Y-8899286D01*
X9295714Y-8870714D01*
X9324286Y-8856429D01*
X9395714Y-8856429D01*
X9424286Y-8842143D01*
X9567143Y-8770714D02*
X9567143Y-9070714D01*
X9567143Y-8785000D02*
X9595714Y-8770714D01*
X9652857Y-8770714D01*
X9681428Y-8785000D01*
X9695714Y-8799286D01*
X9710000Y-8827857D01*
X9710000Y-8913572D01*
X9695714Y-8942143D01*
X9681428Y-8956429D01*
X9652857Y-8970714D01*
X9595714Y-8970714D01*
X9567143Y-8956429D01*
X9838571Y-8942143D02*
X9852857Y-8956429D01*
X9838571Y-8970714D01*
X9824286Y-8956429D01*
X9838571Y-8942143D01*
X9838571Y-8970714D01*
X9838571Y-8785000D02*
X9852857Y-8799286D01*
X9838571Y-8813572D01*
X9824286Y-8799286D01*
X9838571Y-8785000D01*
X9838571Y-8813572D01*
X7375000Y-9405000D02*
X7495000Y-9525000D01*
X7495000Y-9405000D02*
X7375000Y-9525000D01*
X7938571Y-9600714D02*
X7767143Y-9600714D01*
X7852857Y-9600714D02*
X7852857Y-9300714D01*
X7824286Y-9343572D01*
X7795714Y-9372143D01*
X7767143Y-9386429D01*
X8067143Y-9572143D02*
X8081428Y-9586429D01*
X8067143Y-9600714D01*
X8052857Y-9586429D01*
X8067143Y-9572143D01*
X8067143Y-9600714D01*
X8195714Y-9329286D02*
X8210000Y-9315000D01*
X8238571Y-9300714D01*
X8310000Y-9300714D01*
X8338571Y-9315000D01*
X8352857Y-9329286D01*
X8367143Y-9357857D01*
X8367143Y-9386429D01*
X8352857Y-9429286D01*
X8181428Y-9600714D01*
X8367143Y-9600714D01*
X8552857Y-9300714D02*
X8581428Y-9300714D01*
X8610000Y-9315000D01*
X8624286Y-9329286D01*
X8638571Y-9357857D01*
X8652857Y-9415000D01*
X8652857Y-9486429D01*
X8638571Y-9543572D01*
X8624286Y-9572143D01*
X8610000Y-9586429D01*
X8581428Y-9600714D01*
X8552857Y-9600714D01*
X8524286Y-9586429D01*
X8510000Y-9572143D01*
X8495714Y-9543572D01*
X8481428Y-9486429D01*
X8481428Y-9415000D01*
X8495714Y-9357857D01*
X8510000Y-9329286D01*
X8524286Y-9315000D01*
X8552857Y-9300714D01*
X8781428Y-9600714D02*
X8781428Y-9400714D01*
X8781428Y-9429286D02*
X8795714Y-9415000D01*
X8824286Y-9400714D01*
X8867143Y-9400714D01*
X8895714Y-9415000D01*
X8910000Y-9443572D01*
X8910000Y-9600714D01*
X8910000Y-9443572D02*
X8924286Y-9415000D01*
X8952857Y-9400714D01*
X8995714Y-9400714D01*
X9024286Y-9415000D01*
X9038571Y-9443572D01*
X9038571Y-9600714D01*
X9181428Y-9600714D02*
X9181428Y-9400714D01*
X9181428Y-9429286D02*
X9195714Y-9415000D01*
X9224286Y-9400714D01*
X9267143Y-9400714D01*
X9295714Y-9415000D01*
X9310000Y-9443572D01*
X9310000Y-9600714D01*
X9310000Y-9443572D02*
X9324286Y-9415000D01*
X9352857Y-9400714D01*
X9395714Y-9400714D01*
X9424286Y-9415000D01*
X9438571Y-9443572D01*
X9438571Y-9600714D01*
X10024286Y-9286429D02*
X9767143Y-9672143D01*
X10410000Y-9300714D02*
X10438571Y-9300714D01*
X10467143Y-9315000D01*
X10481428Y-9329286D01*
X10495714Y-9357857D01*
X10510000Y-9415000D01*
X10510000Y-9486429D01*
X10495714Y-9543572D01*
X10481428Y-9572143D01*
X10467143Y-9586429D01*
X10438571Y-9600714D01*
X10410000Y-9600714D01*
X10381428Y-9586429D01*
X10367143Y-9572143D01*
X10352857Y-9543572D01*
X10338571Y-9486429D01*
X10338571Y-9415000D01*
X10352857Y-9357857D01*
X10367143Y-9329286D01*
X10381428Y-9315000D01*
X10410000Y-9300714D01*
X10638571Y-9572143D02*
X10652857Y-9586429D01*
X10638571Y-9600714D01*
X10624286Y-9586429D01*
X10638571Y-9572143D01*
X10638571Y-9600714D01*
X10838571Y-9300714D02*
X10867143Y-9300714D01*
X10895714Y-9315000D01*
X10910000Y-9329286D01*
X10924286Y-9357857D01*
X10938571Y-9415000D01*
X10938571Y-9486429D01*
X10924286Y-9543572D01*
X10910000Y-9572143D01*
X10895714Y-9586429D01*
X10867143Y-9600714D01*
X10838571Y-9600714D01*
X10810000Y-9586429D01*
X10795714Y-9572143D01*
X10781428Y-9543572D01*
X10767143Y-9486429D01*
X10767143Y-9415000D01*
X10781428Y-9357857D01*
X10795714Y-9329286D01*
X10810000Y-9315000D01*
X10838571Y-9300714D01*
X11195714Y-9400714D02*
X11195714Y-9600714D01*
X11124286Y-9286429D02*
X11052857Y-9500714D01*
X11238571Y-9500714D01*
X11324286Y-9300714D02*
X11524286Y-9300714D01*
X11395714Y-9600714D01*
X11624286Y-9300714D02*
X11624286Y-9357857D01*
X11738571Y-9300714D02*
X11738571Y-9357857D01*
X12181428Y-9715000D02*
X12167143Y-9700714D01*
X12138571Y-9657857D01*
X12124286Y-9629286D01*
X12110000Y-9586429D01*
X12095714Y-9515000D01*
X12095714Y-9457857D01*
X12110000Y-9386429D01*
X12124286Y-9343572D01*
X12138571Y-9315000D01*
X12167143Y-9272143D01*
X12181428Y-9257857D01*
X12424286Y-9300714D02*
X12367143Y-9300714D01*
X12338571Y-9315000D01*
X12324286Y-9329286D01*
X12295714Y-9372143D01*
X12281428Y-9429286D01*
X12281428Y-9543572D01*
X12295714Y-9572143D01*
X12310000Y-9586429D01*
X12338571Y-9600714D01*
X12395714Y-9600714D01*
X12424286Y-9586429D01*
X12438571Y-9572143D01*
X12452857Y-9543572D01*
X12452857Y-9472143D01*
X12438571Y-9443572D01*
X12424286Y-9429286D01*
X12395714Y-9415000D01*
X12338571Y-9415000D01*
X12310000Y-9429286D01*
X12295714Y-9443572D01*
X12281428Y-9472143D01*
X12810000Y-9600714D02*
X12810000Y-9300714D01*
X12938571Y-9600714D02*
X12938571Y-9443572D01*
X12924286Y-9415000D01*
X12895714Y-9400714D01*
X12852857Y-9400714D01*
X12824286Y-9415000D01*
X12810000Y-9429286D01*
X13124286Y-9600714D02*
X13095714Y-9586429D01*
X13081428Y-9572143D01*
X13067143Y-9543572D01*
X13067143Y-9457857D01*
X13081428Y-9429286D01*
X13095714Y-9415000D01*
X13124286Y-9400714D01*
X13167143Y-9400714D01*
X13195714Y-9415000D01*
X13210000Y-9429286D01*
X13224286Y-9457857D01*
X13224286Y-9543572D01*
X13210000Y-9572143D01*
X13195714Y-9586429D01*
X13167143Y-9600714D01*
X13124286Y-9600714D01*
X13395714Y-9600714D02*
X13367143Y-9586429D01*
X13352857Y-9557857D01*
X13352857Y-9300714D01*
X13624286Y-9586429D02*
X13595714Y-9600714D01*
X13538571Y-9600714D01*
X13510000Y-9586429D01*
X13495714Y-9557857D01*
X13495714Y-9443572D01*
X13510000Y-9415000D01*
X13538571Y-9400714D01*
X13595714Y-9400714D01*
X13624286Y-9415000D01*
X13638571Y-9443572D01*
X13638571Y-9472143D01*
X13495714Y-9500714D01*
X13752857Y-9586429D02*
X13781428Y-9600714D01*
X13838571Y-9600714D01*
X13867143Y-9586429D01*
X13881428Y-9557857D01*
X13881428Y-9543572D01*
X13867143Y-9515000D01*
X13838571Y-9500714D01*
X13795714Y-9500714D01*
X13767143Y-9486429D01*
X13752857Y-9457857D01*
X13752857Y-9443572D01*
X13767143Y-9415000D01*
X13795714Y-9400714D01*
X13838571Y-9400714D01*
X13867143Y-9415000D01*
X13981428Y-9715000D02*
X13995714Y-9700714D01*
X14024286Y-9657857D01*
X14038571Y-9629286D01*
X14052857Y-9586429D01*
X14067143Y-9515000D01*
X14067143Y-9457857D01*
X14052857Y-9386429D01*
X14038571Y-9343572D01*
X14024286Y-9315000D01*
X13995714Y-9272143D01*
X13981428Y-9257857D01*
X14524286Y-9715000D02*
X14510000Y-9700714D01*
X14481428Y-9657857D01*
X14467143Y-9629286D01*
X14452857Y-9586429D01*
X14438571Y-9515000D01*
X14438571Y-9457857D01*
X14452857Y-9386429D01*
X14467143Y-9343572D01*
X14481428Y-9315000D01*
X14510000Y-9272143D01*
X14524286Y-9257857D01*
X14638571Y-9400714D02*
X14638571Y-9600714D01*
X14638571Y-9429286D02*
X14652857Y-9415000D01*
X14681428Y-9400714D01*
X14724286Y-9400714D01*
X14752857Y-9415000D01*
X14767143Y-9443572D01*
X14767143Y-9600714D01*
X14952857Y-9600714D02*
X14924286Y-9586429D01*
X14910000Y-9572143D01*
X14895714Y-9543572D01*
X14895714Y-9457857D01*
X14910000Y-9429286D01*
X14924286Y-9415000D01*
X14952857Y-9400714D01*
X14995714Y-9400714D01*
X15024286Y-9415000D01*
X15038571Y-9429286D01*
X15052857Y-9457857D01*
X15052857Y-9543572D01*
X15038571Y-9572143D01*
X15024286Y-9586429D01*
X14995714Y-9600714D01*
X14952857Y-9600714D01*
X15138571Y-9400714D02*
X15252857Y-9400714D01*
X15181428Y-9300714D02*
X15181428Y-9557857D01*
X15195714Y-9586429D01*
X15224286Y-9600714D01*
X15252857Y-9600714D01*
X15581428Y-9400714D02*
X15581428Y-9700714D01*
X15581428Y-9415000D02*
X15610000Y-9400714D01*
X15667143Y-9400714D01*
X15695714Y-9415000D01*
X15710000Y-9429286D01*
X15724286Y-9457857D01*
X15724286Y-9543572D01*
X15710000Y-9572143D01*
X15695714Y-9586429D01*
X15667143Y-9600714D01*
X15610000Y-9600714D01*
X15581428Y-9586429D01*
X15895714Y-9600714D02*
X15867143Y-9586429D01*
X15852857Y-9557857D01*
X15852857Y-9300714D01*
X16138571Y-9600714D02*
X16138571Y-9443572D01*
X16124286Y-9415000D01*
X16095714Y-9400714D01*
X16038571Y-9400714D01*
X16010000Y-9415000D01*
X16138571Y-9586429D02*
X16110000Y-9600714D01*
X16038571Y-9600714D01*
X16010000Y-9586429D01*
X15995714Y-9557857D01*
X15995714Y-9529286D01*
X16010000Y-9500714D01*
X16038571Y-9486429D01*
X16110000Y-9486429D01*
X16138571Y-9472143D01*
X16238571Y-9400714D02*
X16352857Y-9400714D01*
X16281428Y-9300714D02*
X16281428Y-9557857D01*
X16295714Y-9586429D01*
X16324286Y-9600714D01*
X16352857Y-9600714D01*
X16567143Y-9586429D02*
X16538571Y-9600714D01*
X16481428Y-9600714D01*
X16452857Y-9586429D01*
X16438571Y-9557857D01*
X16438571Y-9443572D01*
X16452857Y-9415000D01*
X16481428Y-9400714D01*
X16538571Y-9400714D01*
X16567143Y-9415000D01*
X16581428Y-9443572D01*
X16581428Y-9472143D01*
X16438571Y-9500714D01*
X16838571Y-9600714D02*
X16838571Y-9300714D01*
X16838571Y-9586429D02*
X16810000Y-9600714D01*
X16752857Y-9600714D01*
X16724286Y-9586429D01*
X16710000Y-9572143D01*
X16695714Y-9543572D01*
X16695714Y-9457857D01*
X16710000Y-9429286D01*
X16724286Y-9415000D01*
X16752857Y-9400714D01*
X16810000Y-9400714D01*
X16838571Y-9415000D01*
X16952857Y-9715000D02*
X16967143Y-9700714D01*
X16995714Y-9657857D01*
X17010000Y-9629286D01*
X17024286Y-9586429D01*
X17038571Y-9515000D01*
X17038571Y-9457857D01*
X17024286Y-9386429D01*
X17010000Y-9343572D01*
X16995714Y-9315000D01*
X16967143Y-9272143D01*
X16952857Y-9257857D01*
M02*
