G04 #@! TF.GenerationSoftware,KiCad,Pcbnew,5.1.6+dfsg1-1~bpo9+1*
G04 #@! TF.CreationDate,2022-04-04T20:28:32+02:00*
G04 #@! TF.ProjectId,sdrtr-power,73647274-722d-4706-9f77-65722e6b6963,rev?*
G04 #@! TF.SameCoordinates,Original*
G04 #@! TF.FileFunction,Soldermask,Top*
G04 #@! TF.FilePolarity,Negative*
%FSLAX46Y46*%
G04 Gerber Fmt 4.6, Leading zero omitted, Abs format (unit mm)*
G04 Created by KiCad (PCBNEW 5.1.6+dfsg1-1~bpo9+1) date 2022-04-04 20:28:32*
%MOMM*%
%LPD*%
G01*
G04 APERTURE LIST*
%ADD10C,1.300000*%
%ADD11O,1.800000X2.100000*%
%ADD12O,1.400000X0.900000*%
%ADD13C,2.500000*%
%ADD14R,2.500000X2.500000*%
%ADD15C,2.850000*%
%ADD16R,2.300000X1.600000*%
%ADD17R,1.300000X1.000000*%
%ADD18C,6.500000*%
G04 APERTURE END LIST*
D10*
X86372500Y-48571400D03*
D11*
X82272500Y-50571400D03*
G36*
G01*
X85672500Y-49786106D02*
X85672500Y-51356694D01*
G75*
G02*
X85407794Y-51621400I-264706J0D01*
G01*
X84137206Y-51621400D01*
G75*
G02*
X83872500Y-51356694I0J264706D01*
G01*
X83872500Y-49786106D01*
G75*
G02*
X84137206Y-49521400I264706J0D01*
G01*
X85407794Y-49521400D01*
G75*
G02*
X85672500Y-49786106I0J-264706D01*
G01*
G37*
D12*
X134366000Y-71100000D03*
G36*
G01*
X133891000Y-69400000D02*
X134841000Y-69400000D01*
G75*
G02*
X135066000Y-69625000I0J-225000D01*
G01*
X135066000Y-70075000D01*
G75*
G02*
X134841000Y-70300000I-225000J0D01*
G01*
X133891000Y-70300000D01*
G75*
G02*
X133666000Y-70075000I0J225000D01*
G01*
X133666000Y-69625000D01*
G75*
G02*
X133891000Y-69400000I225000J0D01*
G01*
G37*
D13*
X96266000Y-64182000D03*
D14*
X96266000Y-59182000D03*
D15*
X87061000Y-69278500D03*
G36*
G01*
X80236000Y-70444410D02*
X80236000Y-68112590D01*
G75*
G02*
X80495090Y-67853500I259090J0D01*
G01*
X82826910Y-67853500D01*
G75*
G02*
X83086000Y-68112590I0J-259090D01*
G01*
X83086000Y-70444410D01*
G75*
G02*
X82826910Y-70703500I-259090J0D01*
G01*
X80495090Y-70703500D01*
G75*
G02*
X80236000Y-70444410I0J259090D01*
G01*
G37*
G36*
G01*
X127946667Y-78993500D02*
X129863333Y-78993500D01*
G75*
G02*
X130130000Y-79260167I0J-266667D01*
G01*
X130130000Y-80326833D01*
G75*
G02*
X129863333Y-80593500I-266667J0D01*
G01*
X127946667Y-80593500D01*
G75*
G02*
X127680000Y-80326833I0J266667D01*
G01*
X127680000Y-79260167D01*
G75*
G02*
X127946667Y-78993500I266667J0D01*
G01*
G37*
G36*
G01*
X127946667Y-75743500D02*
X129863333Y-75743500D01*
G75*
G02*
X130130000Y-76010167I0J-266667D01*
G01*
X130130000Y-77076833D01*
G75*
G02*
X129863333Y-77343500I-266667J0D01*
G01*
X127946667Y-77343500D01*
G75*
G02*
X127680000Y-77076833I0J266667D01*
G01*
X127680000Y-76010167D01*
G75*
G02*
X127946667Y-75743500I266667J0D01*
G01*
G37*
G36*
G01*
X112210500Y-75517110D02*
X112210500Y-77644890D01*
G75*
G02*
X111949390Y-77906000I-261110J0D01*
G01*
X110121610Y-77906000D01*
G75*
G02*
X109860500Y-77644890I0J261110D01*
G01*
X109860500Y-75517110D01*
G75*
G02*
X110121610Y-75256000I261110J0D01*
G01*
X111949390Y-75256000D01*
G75*
G02*
X112210500Y-75517110I0J-261110D01*
G01*
G37*
G36*
G01*
X118610500Y-75517110D02*
X118610500Y-77644890D01*
G75*
G02*
X118349390Y-77906000I-261110J0D01*
G01*
X116521610Y-77906000D01*
G75*
G02*
X116260500Y-77644890I0J261110D01*
G01*
X116260500Y-75517110D01*
G75*
G02*
X116521610Y-75256000I261110J0D01*
G01*
X118349390Y-75256000D01*
G75*
G02*
X118610500Y-75517110I0J-261110D01*
G01*
G37*
G36*
G01*
X105108110Y-72891000D02*
X107235890Y-72891000D01*
G75*
G02*
X107497000Y-73152110I0J-261110D01*
G01*
X107497000Y-74979890D01*
G75*
G02*
X107235890Y-75241000I-261110J0D01*
G01*
X105108110Y-75241000D01*
G75*
G02*
X104847000Y-74979890I0J261110D01*
G01*
X104847000Y-73152110D01*
G75*
G02*
X105108110Y-72891000I261110J0D01*
G01*
G37*
G36*
G01*
X105108110Y-66491000D02*
X107235890Y-66491000D01*
G75*
G02*
X107497000Y-66752110I0J-261110D01*
G01*
X107497000Y-68579890D01*
G75*
G02*
X107235890Y-68841000I-261110J0D01*
G01*
X105108110Y-68841000D01*
G75*
G02*
X104847000Y-68579890I0J261110D01*
G01*
X104847000Y-66752110D01*
G75*
G02*
X105108110Y-66491000I261110J0D01*
G01*
G37*
D12*
X134366000Y-78847000D03*
G36*
G01*
X133891000Y-77147000D02*
X134841000Y-77147000D01*
G75*
G02*
X135066000Y-77372000I0J-225000D01*
G01*
X135066000Y-77822000D01*
G75*
G02*
X134841000Y-78047000I-225000J0D01*
G01*
X133891000Y-78047000D01*
G75*
G02*
X133666000Y-77822000I0J225000D01*
G01*
X133666000Y-77372000D01*
G75*
G02*
X133891000Y-77147000I225000J0D01*
G01*
G37*
G36*
G01*
X95285544Y-46318000D02*
X97500456Y-46318000D01*
G75*
G02*
X97768000Y-46585544I0J-267544D01*
G01*
X97768000Y-47575456D01*
G75*
G02*
X97500456Y-47843000I-267544J0D01*
G01*
X95285544Y-47843000D01*
G75*
G02*
X95018000Y-47575456I0J267544D01*
G01*
X95018000Y-46585544D01*
G75*
G02*
X95285544Y-46318000I267544J0D01*
G01*
G37*
G36*
G01*
X95285544Y-43343000D02*
X97500456Y-43343000D01*
G75*
G02*
X97768000Y-43610544I0J-267544D01*
G01*
X97768000Y-44600456D01*
G75*
G02*
X97500456Y-44868000I-267544J0D01*
G01*
X95285544Y-44868000D01*
G75*
G02*
X95018000Y-44600456I0J267544D01*
G01*
X95018000Y-43610544D01*
G75*
G02*
X95285544Y-43343000I267544J0D01*
G01*
G37*
G36*
G01*
X79147905Y-62809500D02*
X84174095Y-62809500D01*
G75*
G02*
X84436000Y-63071405I0J-261905D01*
G01*
X84436000Y-64747595D01*
G75*
G02*
X84174095Y-65009500I-261905J0D01*
G01*
X79147905Y-65009500D01*
G75*
G02*
X78886000Y-64747595I0J261905D01*
G01*
X78886000Y-63071405D01*
G75*
G02*
X79147905Y-62809500I261905J0D01*
G01*
G37*
G36*
G01*
X79147905Y-55859500D02*
X84174095Y-55859500D01*
G75*
G02*
X84436000Y-56121405I0J-261905D01*
G01*
X84436000Y-57797595D01*
G75*
G02*
X84174095Y-58059500I-261905J0D01*
G01*
X79147905Y-58059500D01*
G75*
G02*
X78886000Y-57797595I0J261905D01*
G01*
X78886000Y-56121405D01*
G75*
G02*
X79147905Y-55859500I261905J0D01*
G01*
G37*
X140462000Y-78847000D03*
G36*
G01*
X139987000Y-77147000D02*
X140937000Y-77147000D01*
G75*
G02*
X141162000Y-77372000I0J-225000D01*
G01*
X141162000Y-77822000D01*
G75*
G02*
X140937000Y-78047000I-225000J0D01*
G01*
X139987000Y-78047000D01*
G75*
G02*
X139762000Y-77822000I0J225000D01*
G01*
X139762000Y-77372000D01*
G75*
G02*
X139987000Y-77147000I225000J0D01*
G01*
G37*
D10*
X141998500Y-35020500D03*
D11*
X137898500Y-37020500D03*
G36*
G01*
X141298500Y-36235206D02*
X141298500Y-37805794D01*
G75*
G02*
X141033794Y-38070500I-264706J0D01*
G01*
X139763206Y-38070500D01*
G75*
G02*
X139498500Y-37805794I0J264706D01*
G01*
X139498500Y-36235206D01*
G75*
G02*
X139763206Y-35970500I264706J0D01*
G01*
X141033794Y-35970500D01*
G75*
G02*
X141298500Y-36235206I0J-264706D01*
G01*
G37*
D10*
X97993000Y-34957000D03*
D11*
X93893000Y-36957000D03*
G36*
G01*
X97293000Y-36171706D02*
X97293000Y-37742294D01*
G75*
G02*
X97028294Y-38007000I-264706J0D01*
G01*
X95757706Y-38007000D01*
G75*
G02*
X95493000Y-37742294I0J264706D01*
G01*
X95493000Y-36171706D01*
G75*
G02*
X95757706Y-35907000I264706J0D01*
G01*
X97028294Y-35907000D01*
G75*
G02*
X97293000Y-36171706I0J-264706D01*
G01*
G37*
D10*
X108851500Y-34957000D03*
D11*
X104751500Y-36957000D03*
G36*
G01*
X108151500Y-36171706D02*
X108151500Y-37742294D01*
G75*
G02*
X107886794Y-38007000I-264706J0D01*
G01*
X106616206Y-38007000D01*
G75*
G02*
X106351500Y-37742294I0J264706D01*
G01*
X106351500Y-36171706D01*
G75*
G02*
X106616206Y-35907000I264706J0D01*
G01*
X107886794Y-35907000D01*
G75*
G02*
X108151500Y-36171706I0J-264706D01*
G01*
G37*
D10*
X119773500Y-34957000D03*
D11*
X115673500Y-36957000D03*
G36*
G01*
X119073500Y-36171706D02*
X119073500Y-37742294D01*
G75*
G02*
X118808794Y-38007000I-264706J0D01*
G01*
X117538206Y-38007000D01*
G75*
G02*
X117273500Y-37742294I0J264706D01*
G01*
X117273500Y-36171706D01*
G75*
G02*
X117538206Y-35907000I264706J0D01*
G01*
X118808794Y-35907000D01*
G75*
G02*
X119073500Y-36171706I0J-264706D01*
G01*
G37*
D15*
X98237000Y-78105000D03*
G36*
G01*
X91412000Y-79270910D02*
X91412000Y-76939090D01*
G75*
G02*
X91671090Y-76680000I259090J0D01*
G01*
X94002910Y-76680000D01*
G75*
G02*
X94262000Y-76939090I0J-259090D01*
G01*
X94262000Y-79270910D01*
G75*
G02*
X94002910Y-79530000I-259090J0D01*
G01*
X91671090Y-79530000D01*
G75*
G02*
X91412000Y-79270910I0J259090D01*
G01*
G37*
D10*
X130695500Y-34957000D03*
D11*
X126595500Y-36957000D03*
G36*
G01*
X129995500Y-36171706D02*
X129995500Y-37742294D01*
G75*
G02*
X129730794Y-38007000I-264706J0D01*
G01*
X128460206Y-38007000D01*
G75*
G02*
X128195500Y-37742294I0J264706D01*
G01*
X128195500Y-36171706D01*
G75*
G02*
X128460206Y-35907000I264706J0D01*
G01*
X129730794Y-35907000D01*
G75*
G02*
X129995500Y-36171706I0J-264706D01*
G01*
G37*
G36*
G01*
X116157000Y-68633000D02*
X116507000Y-68633000D01*
G75*
G02*
X116682000Y-68808000I0J-175000D01*
G01*
X116682000Y-70508000D01*
G75*
G02*
X116507000Y-70683000I-175000J0D01*
G01*
X116157000Y-70683000D01*
G75*
G02*
X115982000Y-70508000I0J175000D01*
G01*
X115982000Y-68808000D01*
G75*
G02*
X116157000Y-68633000I175000J0D01*
G01*
G37*
G36*
G01*
X114887000Y-68633000D02*
X115237000Y-68633000D01*
G75*
G02*
X115412000Y-68808000I0J-175000D01*
G01*
X115412000Y-70508000D01*
G75*
G02*
X115237000Y-70683000I-175000J0D01*
G01*
X114887000Y-70683000D01*
G75*
G02*
X114712000Y-70508000I0J175000D01*
G01*
X114712000Y-68808000D01*
G75*
G02*
X114887000Y-68633000I175000J0D01*
G01*
G37*
G36*
G01*
X113617000Y-68633000D02*
X113967000Y-68633000D01*
G75*
G02*
X114142000Y-68808000I0J-175000D01*
G01*
X114142000Y-70508000D01*
G75*
G02*
X113967000Y-70683000I-175000J0D01*
G01*
X113617000Y-70683000D01*
G75*
G02*
X113442000Y-70508000I0J175000D01*
G01*
X113442000Y-68808000D01*
G75*
G02*
X113617000Y-68633000I175000J0D01*
G01*
G37*
G36*
G01*
X112347000Y-68633000D02*
X112697000Y-68633000D01*
G75*
G02*
X112872000Y-68808000I0J-175000D01*
G01*
X112872000Y-70508000D01*
G75*
G02*
X112697000Y-70683000I-175000J0D01*
G01*
X112347000Y-70683000D01*
G75*
G02*
X112172000Y-70508000I0J175000D01*
G01*
X112172000Y-68808000D01*
G75*
G02*
X112347000Y-68633000I175000J0D01*
G01*
G37*
G36*
G01*
X112347000Y-63683000D02*
X112697000Y-63683000D01*
G75*
G02*
X112872000Y-63858000I0J-175000D01*
G01*
X112872000Y-65558000D01*
G75*
G02*
X112697000Y-65733000I-175000J0D01*
G01*
X112347000Y-65733000D01*
G75*
G02*
X112172000Y-65558000I0J175000D01*
G01*
X112172000Y-63858000D01*
G75*
G02*
X112347000Y-63683000I175000J0D01*
G01*
G37*
G36*
G01*
X113617000Y-63683000D02*
X113967000Y-63683000D01*
G75*
G02*
X114142000Y-63858000I0J-175000D01*
G01*
X114142000Y-65558000D01*
G75*
G02*
X113967000Y-65733000I-175000J0D01*
G01*
X113617000Y-65733000D01*
G75*
G02*
X113442000Y-65558000I0J175000D01*
G01*
X113442000Y-63858000D01*
G75*
G02*
X113617000Y-63683000I175000J0D01*
G01*
G37*
G36*
G01*
X114887000Y-63683000D02*
X115237000Y-63683000D01*
G75*
G02*
X115412000Y-63858000I0J-175000D01*
G01*
X115412000Y-65558000D01*
G75*
G02*
X115237000Y-65733000I-175000J0D01*
G01*
X114887000Y-65733000D01*
G75*
G02*
X114712000Y-65558000I0J175000D01*
G01*
X114712000Y-63858000D01*
G75*
G02*
X114887000Y-63683000I175000J0D01*
G01*
G37*
G36*
G01*
X116157000Y-63683000D02*
X116507000Y-63683000D01*
G75*
G02*
X116682000Y-63858000I0J-175000D01*
G01*
X116682000Y-65558000D01*
G75*
G02*
X116507000Y-65733000I-175000J0D01*
G01*
X116157000Y-65733000D01*
G75*
G02*
X115982000Y-65558000I0J175000D01*
G01*
X115982000Y-63858000D01*
G75*
G02*
X116157000Y-63683000I175000J0D01*
G01*
G37*
G36*
G01*
X111923750Y-59402000D02*
X110961250Y-59402000D01*
G75*
G02*
X110692500Y-59133250I0J268750D01*
G01*
X110692500Y-58595750D01*
G75*
G02*
X110961250Y-58327000I268750J0D01*
G01*
X111923750Y-58327000D01*
G75*
G02*
X112192500Y-58595750I0J-268750D01*
G01*
X112192500Y-59133250D01*
G75*
G02*
X111923750Y-59402000I-268750J0D01*
G01*
G37*
G36*
G01*
X111923750Y-61277000D02*
X110961250Y-61277000D01*
G75*
G02*
X110692500Y-61008250I0J268750D01*
G01*
X110692500Y-60470750D01*
G75*
G02*
X110961250Y-60202000I268750J0D01*
G01*
X111923750Y-60202000D01*
G75*
G02*
X112192500Y-60470750I0J-268750D01*
G01*
X112192500Y-61008250D01*
G75*
G02*
X111923750Y-61277000I-268750J0D01*
G01*
G37*
G36*
G01*
X125114000Y-77461000D02*
X125114000Y-75701000D01*
G75*
G02*
X125384000Y-75431000I270000J0D01*
G01*
X126194000Y-75431000D01*
G75*
G02*
X126464000Y-75701000I0J-270000D01*
G01*
X126464000Y-77461000D01*
G75*
G02*
X126194000Y-77731000I-270000J0D01*
G01*
X125384000Y-77731000D01*
G75*
G02*
X125114000Y-77461000I0J270000D01*
G01*
G37*
G36*
G01*
X122964000Y-77461000D02*
X122964000Y-75701000D01*
G75*
G02*
X123234000Y-75431000I270000J0D01*
G01*
X124044000Y-75431000D01*
G75*
G02*
X124314000Y-75701000I0J-270000D01*
G01*
X124314000Y-77461000D01*
G75*
G02*
X124044000Y-77731000I-270000J0D01*
G01*
X123234000Y-77731000D01*
G75*
G02*
X122964000Y-77461000I0J270000D01*
G01*
G37*
D16*
X122682000Y-70256000D03*
X122682000Y-63856000D03*
D17*
X120904000Y-73280000D03*
X120904000Y-76580000D03*
G36*
G01*
X114447000Y-59663500D02*
X113137000Y-59663500D01*
G75*
G02*
X112867000Y-59393500I0J270000D01*
G01*
X112867000Y-58583500D01*
G75*
G02*
X113137000Y-58313500I270000J0D01*
G01*
X114447000Y-58313500D01*
G75*
G02*
X114717000Y-58583500I0J-270000D01*
G01*
X114717000Y-59393500D01*
G75*
G02*
X114447000Y-59663500I-270000J0D01*
G01*
G37*
G36*
G01*
X114447000Y-62463500D02*
X113137000Y-62463500D01*
G75*
G02*
X112867000Y-62193500I0J270000D01*
G01*
X112867000Y-61383500D01*
G75*
G02*
X113137000Y-61113500I270000J0D01*
G01*
X114447000Y-61113500D01*
G75*
G02*
X114717000Y-61383500I0J-270000D01*
G01*
X114717000Y-62193500D01*
G75*
G02*
X114447000Y-62463500I-270000J0D01*
G01*
G37*
G36*
G01*
X116987000Y-59663500D02*
X115677000Y-59663500D01*
G75*
G02*
X115407000Y-59393500I0J270000D01*
G01*
X115407000Y-58583500D01*
G75*
G02*
X115677000Y-58313500I270000J0D01*
G01*
X116987000Y-58313500D01*
G75*
G02*
X117257000Y-58583500I0J-270000D01*
G01*
X117257000Y-59393500D01*
G75*
G02*
X116987000Y-59663500I-270000J0D01*
G01*
G37*
G36*
G01*
X116987000Y-62463500D02*
X115677000Y-62463500D01*
G75*
G02*
X115407000Y-62193500I0J270000D01*
G01*
X115407000Y-61383500D01*
G75*
G02*
X115677000Y-61113500I270000J0D01*
G01*
X116987000Y-61113500D01*
G75*
G02*
X117257000Y-61383500I0J-270000D01*
G01*
X117257000Y-62193500D01*
G75*
G02*
X116987000Y-62463500I-270000J0D01*
G01*
G37*
D18*
X150000000Y-80000000D03*
X150000000Y-35000000D03*
X80000000Y-80000000D03*
X80000000Y-35000000D03*
G36*
G01*
X107605750Y-59417000D02*
X106643250Y-59417000D01*
G75*
G02*
X106374500Y-59148250I0J268750D01*
G01*
X106374500Y-58610750D01*
G75*
G02*
X106643250Y-58342000I268750J0D01*
G01*
X107605750Y-58342000D01*
G75*
G02*
X107874500Y-58610750I0J-268750D01*
G01*
X107874500Y-59148250D01*
G75*
G02*
X107605750Y-59417000I-268750J0D01*
G01*
G37*
G36*
G01*
X107605750Y-61292000D02*
X106643250Y-61292000D01*
G75*
G02*
X106374500Y-61023250I0J268750D01*
G01*
X106374500Y-60485750D01*
G75*
G02*
X106643250Y-60217000I268750J0D01*
G01*
X107605750Y-60217000D01*
G75*
G02*
X107874500Y-60485750I0J-268750D01*
G01*
X107874500Y-61023250D01*
G75*
G02*
X107605750Y-61292000I-268750J0D01*
G01*
G37*
G36*
G01*
X109764750Y-59417000D02*
X108802250Y-59417000D01*
G75*
G02*
X108533500Y-59148250I0J268750D01*
G01*
X108533500Y-58610750D01*
G75*
G02*
X108802250Y-58342000I268750J0D01*
G01*
X109764750Y-58342000D01*
G75*
G02*
X110033500Y-58610750I0J-268750D01*
G01*
X110033500Y-59148250D01*
G75*
G02*
X109764750Y-59417000I-268750J0D01*
G01*
G37*
G36*
G01*
X109764750Y-61292000D02*
X108802250Y-61292000D01*
G75*
G02*
X108533500Y-61023250I0J268750D01*
G01*
X108533500Y-60485750D01*
G75*
G02*
X108802250Y-60217000I268750J0D01*
G01*
X109764750Y-60217000D01*
G75*
G02*
X110033500Y-60485750I0J-268750D01*
G01*
X110033500Y-61023250D01*
G75*
G02*
X109764750Y-61292000I-268750J0D01*
G01*
G37*
M02*
