G04 #@! TF.GenerationSoftware,KiCad,Pcbnew,5.1.6+dfsg1-1~bpo9+1*
G04 #@! TF.CreationDate,2022-04-04T20:28:32+02:00*
G04 #@! TF.ProjectId,sdrtr-power,73647274-722d-4706-9f77-65722e6b6963,rev?*
G04 #@! TF.SameCoordinates,Original*
G04 #@! TF.FileFunction,Legend,Bot*
G04 #@! TF.FilePolarity,Positive*
%FSLAX46Y46*%
G04 Gerber Fmt 4.6, Leading zero omitted, Abs format (unit mm)*
G04 Created by KiCad (PCBNEW 5.1.6+dfsg1-1~bpo9+1) date 2022-04-04 20:28:32*
%MOMM*%
%LPD*%
G01*
G04 APERTURE LIST*
%ADD10C,1.300000*%
%ADD11O,1.800000X2.100000*%
%ADD12O,1.400000X0.900000*%
%ADD13C,2.500000*%
%ADD14R,2.500000X2.500000*%
%ADD15C,2.850000*%
%ADD16C,6.500000*%
G04 APERTURE END LIST*
%LPC*%
D10*
X86372500Y-48571400D03*
D11*
X82272500Y-50571400D03*
G36*
G01*
X85672500Y-49786106D02*
X85672500Y-51356694D01*
G75*
G02*
X85407794Y-51621400I-264706J0D01*
G01*
X84137206Y-51621400D01*
G75*
G02*
X83872500Y-51356694I0J264706D01*
G01*
X83872500Y-49786106D01*
G75*
G02*
X84137206Y-49521400I264706J0D01*
G01*
X85407794Y-49521400D01*
G75*
G02*
X85672500Y-49786106I0J-264706D01*
G01*
G37*
D12*
X134366000Y-71100000D03*
G36*
G01*
X133891000Y-69400000D02*
X134841000Y-69400000D01*
G75*
G02*
X135066000Y-69625000I0J-225000D01*
G01*
X135066000Y-70075000D01*
G75*
G02*
X134841000Y-70300000I-225000J0D01*
G01*
X133891000Y-70300000D01*
G75*
G02*
X133666000Y-70075000I0J225000D01*
G01*
X133666000Y-69625000D01*
G75*
G02*
X133891000Y-69400000I225000J0D01*
G01*
G37*
D13*
X96266000Y-64182000D03*
D14*
X96266000Y-59182000D03*
D15*
X87061000Y-69278500D03*
G36*
G01*
X80236000Y-70444410D02*
X80236000Y-68112590D01*
G75*
G02*
X80495090Y-67853500I259090J0D01*
G01*
X82826910Y-67853500D01*
G75*
G02*
X83086000Y-68112590I0J-259090D01*
G01*
X83086000Y-70444410D01*
G75*
G02*
X82826910Y-70703500I-259090J0D01*
G01*
X80495090Y-70703500D01*
G75*
G02*
X80236000Y-70444410I0J259090D01*
G01*
G37*
D12*
X134366000Y-78847000D03*
G36*
G01*
X133891000Y-77147000D02*
X134841000Y-77147000D01*
G75*
G02*
X135066000Y-77372000I0J-225000D01*
G01*
X135066000Y-77822000D01*
G75*
G02*
X134841000Y-78047000I-225000J0D01*
G01*
X133891000Y-78047000D01*
G75*
G02*
X133666000Y-77822000I0J225000D01*
G01*
X133666000Y-77372000D01*
G75*
G02*
X133891000Y-77147000I225000J0D01*
G01*
G37*
X140462000Y-78847000D03*
G36*
G01*
X139987000Y-77147000D02*
X140937000Y-77147000D01*
G75*
G02*
X141162000Y-77372000I0J-225000D01*
G01*
X141162000Y-77822000D01*
G75*
G02*
X140937000Y-78047000I-225000J0D01*
G01*
X139987000Y-78047000D01*
G75*
G02*
X139762000Y-77822000I0J225000D01*
G01*
X139762000Y-77372000D01*
G75*
G02*
X139987000Y-77147000I225000J0D01*
G01*
G37*
D10*
X141998500Y-35020500D03*
D11*
X137898500Y-37020500D03*
G36*
G01*
X141298500Y-36235206D02*
X141298500Y-37805794D01*
G75*
G02*
X141033794Y-38070500I-264706J0D01*
G01*
X139763206Y-38070500D01*
G75*
G02*
X139498500Y-37805794I0J264706D01*
G01*
X139498500Y-36235206D01*
G75*
G02*
X139763206Y-35970500I264706J0D01*
G01*
X141033794Y-35970500D01*
G75*
G02*
X141298500Y-36235206I0J-264706D01*
G01*
G37*
D10*
X97993000Y-34957000D03*
D11*
X93893000Y-36957000D03*
G36*
G01*
X97293000Y-36171706D02*
X97293000Y-37742294D01*
G75*
G02*
X97028294Y-38007000I-264706J0D01*
G01*
X95757706Y-38007000D01*
G75*
G02*
X95493000Y-37742294I0J264706D01*
G01*
X95493000Y-36171706D01*
G75*
G02*
X95757706Y-35907000I264706J0D01*
G01*
X97028294Y-35907000D01*
G75*
G02*
X97293000Y-36171706I0J-264706D01*
G01*
G37*
D10*
X108851500Y-34957000D03*
D11*
X104751500Y-36957000D03*
G36*
G01*
X108151500Y-36171706D02*
X108151500Y-37742294D01*
G75*
G02*
X107886794Y-38007000I-264706J0D01*
G01*
X106616206Y-38007000D01*
G75*
G02*
X106351500Y-37742294I0J264706D01*
G01*
X106351500Y-36171706D01*
G75*
G02*
X106616206Y-35907000I264706J0D01*
G01*
X107886794Y-35907000D01*
G75*
G02*
X108151500Y-36171706I0J-264706D01*
G01*
G37*
D10*
X119773500Y-34957000D03*
D11*
X115673500Y-36957000D03*
G36*
G01*
X119073500Y-36171706D02*
X119073500Y-37742294D01*
G75*
G02*
X118808794Y-38007000I-264706J0D01*
G01*
X117538206Y-38007000D01*
G75*
G02*
X117273500Y-37742294I0J264706D01*
G01*
X117273500Y-36171706D01*
G75*
G02*
X117538206Y-35907000I264706J0D01*
G01*
X118808794Y-35907000D01*
G75*
G02*
X119073500Y-36171706I0J-264706D01*
G01*
G37*
D15*
X98237000Y-78105000D03*
G36*
G01*
X91412000Y-79270910D02*
X91412000Y-76939090D01*
G75*
G02*
X91671090Y-76680000I259090J0D01*
G01*
X94002910Y-76680000D01*
G75*
G02*
X94262000Y-76939090I0J-259090D01*
G01*
X94262000Y-79270910D01*
G75*
G02*
X94002910Y-79530000I-259090J0D01*
G01*
X91671090Y-79530000D01*
G75*
G02*
X91412000Y-79270910I0J259090D01*
G01*
G37*
D10*
X130695500Y-34957000D03*
D11*
X126595500Y-36957000D03*
G36*
G01*
X129995500Y-36171706D02*
X129995500Y-37742294D01*
G75*
G02*
X129730794Y-38007000I-264706J0D01*
G01*
X128460206Y-38007000D01*
G75*
G02*
X128195500Y-37742294I0J264706D01*
G01*
X128195500Y-36171706D01*
G75*
G02*
X128460206Y-35907000I264706J0D01*
G01*
X129730794Y-35907000D01*
G75*
G02*
X129995500Y-36171706I0J-264706D01*
G01*
G37*
D16*
X150000000Y-80000000D03*
X150000000Y-35000000D03*
X80000000Y-80000000D03*
X80000000Y-35000000D03*
M02*
