G04 #@! TF.GenerationSoftware,KiCad,Pcbnew,5.1.6+dfsg1-1~bpo9+1*
G04 #@! TF.CreationDate,2022-04-04T20:28:32+02:00*
G04 #@! TF.ProjectId,sdrtr-power,73647274-722d-4706-9f77-65722e6b6963,rev?*
G04 #@! TF.SameCoordinates,Original*
G04 #@! TF.FileFunction,Paste,Top*
G04 #@! TF.FilePolarity,Positive*
%FSLAX46Y46*%
G04 Gerber Fmt 4.6, Leading zero omitted, Abs format (unit mm)*
G04 Created by KiCad (PCBNEW 5.1.6+dfsg1-1~bpo9+1) date 2022-04-04 20:28:32*
%MOMM*%
%LPD*%
G01*
G04 APERTURE LIST*
%ADD10R,2.200000X1.500000*%
%ADD11R,1.200000X0.900000*%
G04 APERTURE END LIST*
G36*
G01*
X127980000Y-79043500D02*
X129830000Y-79043500D01*
G75*
G02*
X130080000Y-79293500I0J-250000D01*
G01*
X130080000Y-80293500D01*
G75*
G02*
X129830000Y-80543500I-250000J0D01*
G01*
X127980000Y-80543500D01*
G75*
G02*
X127730000Y-80293500I0J250000D01*
G01*
X127730000Y-79293500D01*
G75*
G02*
X127980000Y-79043500I250000J0D01*
G01*
G37*
G36*
G01*
X127980000Y-75793500D02*
X129830000Y-75793500D01*
G75*
G02*
X130080000Y-76043500I0J-250000D01*
G01*
X130080000Y-77043500D01*
G75*
G02*
X129830000Y-77293500I-250000J0D01*
G01*
X127980000Y-77293500D01*
G75*
G02*
X127730000Y-77043500I0J250000D01*
G01*
X127730000Y-76043500D01*
G75*
G02*
X127980000Y-75793500I250000J0D01*
G01*
G37*
G36*
G01*
X112160500Y-75555999D02*
X112160500Y-77606001D01*
G75*
G02*
X111910501Y-77856000I-249999J0D01*
G01*
X110160499Y-77856000D01*
G75*
G02*
X109910500Y-77606001I0J249999D01*
G01*
X109910500Y-75555999D01*
G75*
G02*
X110160499Y-75306000I249999J0D01*
G01*
X111910501Y-75306000D01*
G75*
G02*
X112160500Y-75555999I0J-249999D01*
G01*
G37*
G36*
G01*
X118560500Y-75555999D02*
X118560500Y-77606001D01*
G75*
G02*
X118310501Y-77856000I-249999J0D01*
G01*
X116560499Y-77856000D01*
G75*
G02*
X116310500Y-77606001I0J249999D01*
G01*
X116310500Y-75555999D01*
G75*
G02*
X116560499Y-75306000I249999J0D01*
G01*
X118310501Y-75306000D01*
G75*
G02*
X118560500Y-75555999I0J-249999D01*
G01*
G37*
G36*
G01*
X105146999Y-72941000D02*
X107197001Y-72941000D01*
G75*
G02*
X107447000Y-73190999I0J-249999D01*
G01*
X107447000Y-74941001D01*
G75*
G02*
X107197001Y-75191000I-249999J0D01*
G01*
X105146999Y-75191000D01*
G75*
G02*
X104897000Y-74941001I0J249999D01*
G01*
X104897000Y-73190999D01*
G75*
G02*
X105146999Y-72941000I249999J0D01*
G01*
G37*
G36*
G01*
X105146999Y-66541000D02*
X107197001Y-66541000D01*
G75*
G02*
X107447000Y-66790999I0J-249999D01*
G01*
X107447000Y-68541001D01*
G75*
G02*
X107197001Y-68791000I-249999J0D01*
G01*
X105146999Y-68791000D01*
G75*
G02*
X104897000Y-68541001I0J249999D01*
G01*
X104897000Y-66790999D01*
G75*
G02*
X105146999Y-66541000I249999J0D01*
G01*
G37*
G36*
G01*
X95318000Y-46368000D02*
X97468000Y-46368000D01*
G75*
G02*
X97718000Y-46618000I0J-250000D01*
G01*
X97718000Y-47543000D01*
G75*
G02*
X97468000Y-47793000I-250000J0D01*
G01*
X95318000Y-47793000D01*
G75*
G02*
X95068000Y-47543000I0J250000D01*
G01*
X95068000Y-46618000D01*
G75*
G02*
X95318000Y-46368000I250000J0D01*
G01*
G37*
G36*
G01*
X95318000Y-43393000D02*
X97468000Y-43393000D01*
G75*
G02*
X97718000Y-43643000I0J-250000D01*
G01*
X97718000Y-44568000D01*
G75*
G02*
X97468000Y-44818000I-250000J0D01*
G01*
X95318000Y-44818000D01*
G75*
G02*
X95068000Y-44568000I0J250000D01*
G01*
X95068000Y-43643000D01*
G75*
G02*
X95318000Y-43393000I250000J0D01*
G01*
G37*
G36*
G01*
X79186000Y-62859500D02*
X84136000Y-62859500D01*
G75*
G02*
X84386000Y-63109500I0J-250000D01*
G01*
X84386000Y-64709500D01*
G75*
G02*
X84136000Y-64959500I-250000J0D01*
G01*
X79186000Y-64959500D01*
G75*
G02*
X78936000Y-64709500I0J250000D01*
G01*
X78936000Y-63109500D01*
G75*
G02*
X79186000Y-62859500I250000J0D01*
G01*
G37*
G36*
G01*
X79186000Y-55909500D02*
X84136000Y-55909500D01*
G75*
G02*
X84386000Y-56159500I0J-250000D01*
G01*
X84386000Y-57759500D01*
G75*
G02*
X84136000Y-58009500I-250000J0D01*
G01*
X79186000Y-58009500D01*
G75*
G02*
X78936000Y-57759500I0J250000D01*
G01*
X78936000Y-56159500D01*
G75*
G02*
X79186000Y-55909500I250000J0D01*
G01*
G37*
G36*
G01*
X116182000Y-68683000D02*
X116482000Y-68683000D01*
G75*
G02*
X116632000Y-68833000I0J-150000D01*
G01*
X116632000Y-70483000D01*
G75*
G02*
X116482000Y-70633000I-150000J0D01*
G01*
X116182000Y-70633000D01*
G75*
G02*
X116032000Y-70483000I0J150000D01*
G01*
X116032000Y-68833000D01*
G75*
G02*
X116182000Y-68683000I150000J0D01*
G01*
G37*
G36*
G01*
X114912000Y-68683000D02*
X115212000Y-68683000D01*
G75*
G02*
X115362000Y-68833000I0J-150000D01*
G01*
X115362000Y-70483000D01*
G75*
G02*
X115212000Y-70633000I-150000J0D01*
G01*
X114912000Y-70633000D01*
G75*
G02*
X114762000Y-70483000I0J150000D01*
G01*
X114762000Y-68833000D01*
G75*
G02*
X114912000Y-68683000I150000J0D01*
G01*
G37*
G36*
G01*
X113642000Y-68683000D02*
X113942000Y-68683000D01*
G75*
G02*
X114092000Y-68833000I0J-150000D01*
G01*
X114092000Y-70483000D01*
G75*
G02*
X113942000Y-70633000I-150000J0D01*
G01*
X113642000Y-70633000D01*
G75*
G02*
X113492000Y-70483000I0J150000D01*
G01*
X113492000Y-68833000D01*
G75*
G02*
X113642000Y-68683000I150000J0D01*
G01*
G37*
G36*
G01*
X112372000Y-68683000D02*
X112672000Y-68683000D01*
G75*
G02*
X112822000Y-68833000I0J-150000D01*
G01*
X112822000Y-70483000D01*
G75*
G02*
X112672000Y-70633000I-150000J0D01*
G01*
X112372000Y-70633000D01*
G75*
G02*
X112222000Y-70483000I0J150000D01*
G01*
X112222000Y-68833000D01*
G75*
G02*
X112372000Y-68683000I150000J0D01*
G01*
G37*
G36*
G01*
X112372000Y-63733000D02*
X112672000Y-63733000D01*
G75*
G02*
X112822000Y-63883000I0J-150000D01*
G01*
X112822000Y-65533000D01*
G75*
G02*
X112672000Y-65683000I-150000J0D01*
G01*
X112372000Y-65683000D01*
G75*
G02*
X112222000Y-65533000I0J150000D01*
G01*
X112222000Y-63883000D01*
G75*
G02*
X112372000Y-63733000I150000J0D01*
G01*
G37*
G36*
G01*
X113642000Y-63733000D02*
X113942000Y-63733000D01*
G75*
G02*
X114092000Y-63883000I0J-150000D01*
G01*
X114092000Y-65533000D01*
G75*
G02*
X113942000Y-65683000I-150000J0D01*
G01*
X113642000Y-65683000D01*
G75*
G02*
X113492000Y-65533000I0J150000D01*
G01*
X113492000Y-63883000D01*
G75*
G02*
X113642000Y-63733000I150000J0D01*
G01*
G37*
G36*
G01*
X114912000Y-63733000D02*
X115212000Y-63733000D01*
G75*
G02*
X115362000Y-63883000I0J-150000D01*
G01*
X115362000Y-65533000D01*
G75*
G02*
X115212000Y-65683000I-150000J0D01*
G01*
X114912000Y-65683000D01*
G75*
G02*
X114762000Y-65533000I0J150000D01*
G01*
X114762000Y-63883000D01*
G75*
G02*
X114912000Y-63733000I150000J0D01*
G01*
G37*
G36*
G01*
X116182000Y-63733000D02*
X116482000Y-63733000D01*
G75*
G02*
X116632000Y-63883000I0J-150000D01*
G01*
X116632000Y-65533000D01*
G75*
G02*
X116482000Y-65683000I-150000J0D01*
G01*
X116182000Y-65683000D01*
G75*
G02*
X116032000Y-65533000I0J150000D01*
G01*
X116032000Y-63883000D01*
G75*
G02*
X116182000Y-63733000I150000J0D01*
G01*
G37*
G36*
G01*
X111898750Y-59352000D02*
X110986250Y-59352000D01*
G75*
G02*
X110742500Y-59108250I0J243750D01*
G01*
X110742500Y-58620750D01*
G75*
G02*
X110986250Y-58377000I243750J0D01*
G01*
X111898750Y-58377000D01*
G75*
G02*
X112142500Y-58620750I0J-243750D01*
G01*
X112142500Y-59108250D01*
G75*
G02*
X111898750Y-59352000I-243750J0D01*
G01*
G37*
G36*
G01*
X111898750Y-61227000D02*
X110986250Y-61227000D01*
G75*
G02*
X110742500Y-60983250I0J243750D01*
G01*
X110742500Y-60495750D01*
G75*
G02*
X110986250Y-60252000I243750J0D01*
G01*
X111898750Y-60252000D01*
G75*
G02*
X112142500Y-60495750I0J-243750D01*
G01*
X112142500Y-60983250D01*
G75*
G02*
X111898750Y-61227000I-243750J0D01*
G01*
G37*
G36*
G01*
X125164000Y-77431000D02*
X125164000Y-75731000D01*
G75*
G02*
X125414000Y-75481000I250000J0D01*
G01*
X126164000Y-75481000D01*
G75*
G02*
X126414000Y-75731000I0J-250000D01*
G01*
X126414000Y-77431000D01*
G75*
G02*
X126164000Y-77681000I-250000J0D01*
G01*
X125414000Y-77681000D01*
G75*
G02*
X125164000Y-77431000I0J250000D01*
G01*
G37*
G36*
G01*
X123014000Y-77431000D02*
X123014000Y-75731000D01*
G75*
G02*
X123264000Y-75481000I250000J0D01*
G01*
X124014000Y-75481000D01*
G75*
G02*
X124264000Y-75731000I0J-250000D01*
G01*
X124264000Y-77431000D01*
G75*
G02*
X124014000Y-77681000I-250000J0D01*
G01*
X123264000Y-77681000D01*
G75*
G02*
X123014000Y-77431000I0J250000D01*
G01*
G37*
D10*
X122682000Y-70256000D03*
X122682000Y-63856000D03*
D11*
X120904000Y-73280000D03*
X120904000Y-76580000D03*
G36*
G01*
X114417000Y-59613500D02*
X113167000Y-59613500D01*
G75*
G02*
X112917000Y-59363500I0J250000D01*
G01*
X112917000Y-58613500D01*
G75*
G02*
X113167000Y-58363500I250000J0D01*
G01*
X114417000Y-58363500D01*
G75*
G02*
X114667000Y-58613500I0J-250000D01*
G01*
X114667000Y-59363500D01*
G75*
G02*
X114417000Y-59613500I-250000J0D01*
G01*
G37*
G36*
G01*
X114417000Y-62413500D02*
X113167000Y-62413500D01*
G75*
G02*
X112917000Y-62163500I0J250000D01*
G01*
X112917000Y-61413500D01*
G75*
G02*
X113167000Y-61163500I250000J0D01*
G01*
X114417000Y-61163500D01*
G75*
G02*
X114667000Y-61413500I0J-250000D01*
G01*
X114667000Y-62163500D01*
G75*
G02*
X114417000Y-62413500I-250000J0D01*
G01*
G37*
G36*
G01*
X116957000Y-59613500D02*
X115707000Y-59613500D01*
G75*
G02*
X115457000Y-59363500I0J250000D01*
G01*
X115457000Y-58613500D01*
G75*
G02*
X115707000Y-58363500I250000J0D01*
G01*
X116957000Y-58363500D01*
G75*
G02*
X117207000Y-58613500I0J-250000D01*
G01*
X117207000Y-59363500D01*
G75*
G02*
X116957000Y-59613500I-250000J0D01*
G01*
G37*
G36*
G01*
X116957000Y-62413500D02*
X115707000Y-62413500D01*
G75*
G02*
X115457000Y-62163500I0J250000D01*
G01*
X115457000Y-61413500D01*
G75*
G02*
X115707000Y-61163500I250000J0D01*
G01*
X116957000Y-61163500D01*
G75*
G02*
X117207000Y-61413500I0J-250000D01*
G01*
X117207000Y-62163500D01*
G75*
G02*
X116957000Y-62413500I-250000J0D01*
G01*
G37*
G36*
G01*
X107580750Y-59367000D02*
X106668250Y-59367000D01*
G75*
G02*
X106424500Y-59123250I0J243750D01*
G01*
X106424500Y-58635750D01*
G75*
G02*
X106668250Y-58392000I243750J0D01*
G01*
X107580750Y-58392000D01*
G75*
G02*
X107824500Y-58635750I0J-243750D01*
G01*
X107824500Y-59123250D01*
G75*
G02*
X107580750Y-59367000I-243750J0D01*
G01*
G37*
G36*
G01*
X107580750Y-61242000D02*
X106668250Y-61242000D01*
G75*
G02*
X106424500Y-60998250I0J243750D01*
G01*
X106424500Y-60510750D01*
G75*
G02*
X106668250Y-60267000I243750J0D01*
G01*
X107580750Y-60267000D01*
G75*
G02*
X107824500Y-60510750I0J-243750D01*
G01*
X107824500Y-60998250D01*
G75*
G02*
X107580750Y-61242000I-243750J0D01*
G01*
G37*
G36*
G01*
X109739750Y-59367000D02*
X108827250Y-59367000D01*
G75*
G02*
X108583500Y-59123250I0J243750D01*
G01*
X108583500Y-58635750D01*
G75*
G02*
X108827250Y-58392000I243750J0D01*
G01*
X109739750Y-58392000D01*
G75*
G02*
X109983500Y-58635750I0J-243750D01*
G01*
X109983500Y-59123250D01*
G75*
G02*
X109739750Y-59367000I-243750J0D01*
G01*
G37*
G36*
G01*
X109739750Y-61242000D02*
X108827250Y-61242000D01*
G75*
G02*
X108583500Y-60998250I0J243750D01*
G01*
X108583500Y-60510750D01*
G75*
G02*
X108827250Y-60267000I243750J0D01*
G01*
X109739750Y-60267000D01*
G75*
G02*
X109983500Y-60510750I0J-243750D01*
G01*
X109983500Y-60998250D01*
G75*
G02*
X109739750Y-61242000I-243750J0D01*
G01*
G37*
M02*
