G04 #@! TF.GenerationSoftware,KiCad,Pcbnew,5.1.6+dfsg1-1~bpo9+1*
G04 #@! TF.CreationDate,2022-04-04T20:28:32+02:00*
G04 #@! TF.ProjectId,sdrtr-power,73647274-722d-4706-9f77-65722e6b6963,rev?*
G04 #@! TF.SameCoordinates,Original*
G04 #@! TF.FileFunction,Copper,L2,Bot*
G04 #@! TF.FilePolarity,Positive*
%FSLAX46Y46*%
G04 Gerber Fmt 4.6, Leading zero omitted, Abs format (unit mm)*
G04 Created by KiCad (PCBNEW 5.1.6+dfsg1-1~bpo9+1) date 2022-04-04 20:28:32*
%MOMM*%
%LPD*%
G01*
G04 APERTURE LIST*
G04 #@! TA.AperFunction,ComponentPad*
%ADD10O,1.700000X2.000000*%
G04 #@! TD*
G04 #@! TA.AperFunction,ComponentPad*
%ADD11O,1.300000X0.800000*%
G04 #@! TD*
G04 #@! TA.AperFunction,ComponentPad*
%ADD12C,2.400000*%
G04 #@! TD*
G04 #@! TA.AperFunction,ComponentPad*
%ADD13R,2.400000X2.400000*%
G04 #@! TD*
G04 #@! TA.AperFunction,ComponentPad*
%ADD14C,2.750000*%
G04 #@! TD*
G04 #@! TA.AperFunction,ComponentPad*
%ADD15C,6.400000*%
G04 #@! TD*
G04 #@! TA.AperFunction,ViaPad*
%ADD16C,0.800000*%
G04 #@! TD*
G04 #@! TA.AperFunction,Conductor*
%ADD17C,2.032000*%
G04 #@! TD*
G04 #@! TA.AperFunction,Conductor*
%ADD18C,1.016000*%
G04 #@! TD*
G04 #@! TA.AperFunction,Conductor*
%ADD19C,0.254000*%
G04 #@! TD*
G04 APERTURE END LIST*
D10*
X82272500Y-50571400D03*
G04 #@! TA.AperFunction,ComponentPad*
G36*
G01*
X85622500Y-49821400D02*
X85622500Y-51321400D01*
G75*
G02*
X85372500Y-51571400I-250000J0D01*
G01*
X84172500Y-51571400D01*
G75*
G02*
X83922500Y-51321400I0J250000D01*
G01*
X83922500Y-49821400D01*
G75*
G02*
X84172500Y-49571400I250000J0D01*
G01*
X85372500Y-49571400D01*
G75*
G02*
X85622500Y-49821400I0J-250000D01*
G01*
G37*
G04 #@! TD.AperFunction*
D11*
X134366000Y-71100000D03*
G04 #@! TA.AperFunction,ComponentPad*
G36*
G01*
X133916000Y-69450000D02*
X134816000Y-69450000D01*
G75*
G02*
X135016000Y-69650000I0J-200000D01*
G01*
X135016000Y-70050000D01*
G75*
G02*
X134816000Y-70250000I-200000J0D01*
G01*
X133916000Y-70250000D01*
G75*
G02*
X133716000Y-70050000I0J200000D01*
G01*
X133716000Y-69650000D01*
G75*
G02*
X133916000Y-69450000I200000J0D01*
G01*
G37*
G04 #@! TD.AperFunction*
D12*
X96266000Y-64182000D03*
D13*
X96266000Y-59182000D03*
D14*
X87061000Y-69278500D03*
G04 #@! TA.AperFunction,ComponentPad*
G36*
G01*
X80286000Y-70403501D02*
X80286000Y-68153499D01*
G75*
G02*
X80535999Y-67903500I249999J0D01*
G01*
X82786001Y-67903500D01*
G75*
G02*
X83036000Y-68153499I0J-249999D01*
G01*
X83036000Y-70403501D01*
G75*
G02*
X82786001Y-70653500I-249999J0D01*
G01*
X80535999Y-70653500D01*
G75*
G02*
X80286000Y-70403501I0J249999D01*
G01*
G37*
G04 #@! TD.AperFunction*
D11*
X134366000Y-78847000D03*
G04 #@! TA.AperFunction,ComponentPad*
G36*
G01*
X133916000Y-77197000D02*
X134816000Y-77197000D01*
G75*
G02*
X135016000Y-77397000I0J-200000D01*
G01*
X135016000Y-77797000D01*
G75*
G02*
X134816000Y-77997000I-200000J0D01*
G01*
X133916000Y-77997000D01*
G75*
G02*
X133716000Y-77797000I0J200000D01*
G01*
X133716000Y-77397000D01*
G75*
G02*
X133916000Y-77197000I200000J0D01*
G01*
G37*
G04 #@! TD.AperFunction*
X140462000Y-78847000D03*
G04 #@! TA.AperFunction,ComponentPad*
G36*
G01*
X140012000Y-77197000D02*
X140912000Y-77197000D01*
G75*
G02*
X141112000Y-77397000I0J-200000D01*
G01*
X141112000Y-77797000D01*
G75*
G02*
X140912000Y-77997000I-200000J0D01*
G01*
X140012000Y-77997000D01*
G75*
G02*
X139812000Y-77797000I0J200000D01*
G01*
X139812000Y-77397000D01*
G75*
G02*
X140012000Y-77197000I200000J0D01*
G01*
G37*
G04 #@! TD.AperFunction*
D10*
X137898500Y-37020500D03*
G04 #@! TA.AperFunction,ComponentPad*
G36*
G01*
X141248500Y-36270500D02*
X141248500Y-37770500D01*
G75*
G02*
X140998500Y-38020500I-250000J0D01*
G01*
X139798500Y-38020500D01*
G75*
G02*
X139548500Y-37770500I0J250000D01*
G01*
X139548500Y-36270500D01*
G75*
G02*
X139798500Y-36020500I250000J0D01*
G01*
X140998500Y-36020500D01*
G75*
G02*
X141248500Y-36270500I0J-250000D01*
G01*
G37*
G04 #@! TD.AperFunction*
X93893000Y-36957000D03*
G04 #@! TA.AperFunction,ComponentPad*
G36*
G01*
X97243000Y-36207000D02*
X97243000Y-37707000D01*
G75*
G02*
X96993000Y-37957000I-250000J0D01*
G01*
X95793000Y-37957000D01*
G75*
G02*
X95543000Y-37707000I0J250000D01*
G01*
X95543000Y-36207000D01*
G75*
G02*
X95793000Y-35957000I250000J0D01*
G01*
X96993000Y-35957000D01*
G75*
G02*
X97243000Y-36207000I0J-250000D01*
G01*
G37*
G04 #@! TD.AperFunction*
X104751500Y-36957000D03*
G04 #@! TA.AperFunction,ComponentPad*
G36*
G01*
X108101500Y-36207000D02*
X108101500Y-37707000D01*
G75*
G02*
X107851500Y-37957000I-250000J0D01*
G01*
X106651500Y-37957000D01*
G75*
G02*
X106401500Y-37707000I0J250000D01*
G01*
X106401500Y-36207000D01*
G75*
G02*
X106651500Y-35957000I250000J0D01*
G01*
X107851500Y-35957000D01*
G75*
G02*
X108101500Y-36207000I0J-250000D01*
G01*
G37*
G04 #@! TD.AperFunction*
X115673500Y-36957000D03*
G04 #@! TA.AperFunction,ComponentPad*
G36*
G01*
X119023500Y-36207000D02*
X119023500Y-37707000D01*
G75*
G02*
X118773500Y-37957000I-250000J0D01*
G01*
X117573500Y-37957000D01*
G75*
G02*
X117323500Y-37707000I0J250000D01*
G01*
X117323500Y-36207000D01*
G75*
G02*
X117573500Y-35957000I250000J0D01*
G01*
X118773500Y-35957000D01*
G75*
G02*
X119023500Y-36207000I0J-250000D01*
G01*
G37*
G04 #@! TD.AperFunction*
D14*
X98237000Y-78105000D03*
G04 #@! TA.AperFunction,ComponentPad*
G36*
G01*
X91462000Y-79230001D02*
X91462000Y-76979999D01*
G75*
G02*
X91711999Y-76730000I249999J0D01*
G01*
X93962001Y-76730000D01*
G75*
G02*
X94212000Y-76979999I0J-249999D01*
G01*
X94212000Y-79230001D01*
G75*
G02*
X93962001Y-79480000I-249999J0D01*
G01*
X91711999Y-79480000D01*
G75*
G02*
X91462000Y-79230001I0J249999D01*
G01*
G37*
G04 #@! TD.AperFunction*
D10*
X126595500Y-36957000D03*
G04 #@! TA.AperFunction,ComponentPad*
G36*
G01*
X129945500Y-36207000D02*
X129945500Y-37707000D01*
G75*
G02*
X129695500Y-37957000I-250000J0D01*
G01*
X128495500Y-37957000D01*
G75*
G02*
X128245500Y-37707000I0J250000D01*
G01*
X128245500Y-36207000D01*
G75*
G02*
X128495500Y-35957000I250000J0D01*
G01*
X129695500Y-35957000D01*
G75*
G02*
X129945500Y-36207000I0J-250000D01*
G01*
G37*
G04 #@! TD.AperFunction*
D15*
X150000000Y-80000000D03*
X150000000Y-35000000D03*
X80000000Y-80000000D03*
X80000000Y-35000000D03*
D16*
X104457500Y-58229500D03*
X108331000Y-76962000D03*
X117348000Y-72517000D03*
X107124500Y-62357000D03*
D17*
X104751500Y-36957000D02*
X104751500Y-48347000D01*
X115673500Y-36957000D02*
X115673500Y-45299000D01*
X112625500Y-48347000D02*
X104751500Y-48347000D01*
X115673500Y-45299000D02*
X112625500Y-48347000D01*
X126595500Y-37020500D02*
X126595500Y-46632500D01*
X124881000Y-48347000D02*
X112625500Y-48347000D01*
X126595500Y-46632500D02*
X124881000Y-48347000D01*
D18*
X104457500Y-58229500D02*
X104457500Y-71818500D01*
X108331000Y-75692000D02*
X108331000Y-76962000D01*
X104457500Y-71818500D02*
X108331000Y-75692000D01*
D17*
X137898500Y-46632500D02*
X137898500Y-37020500D01*
X136184000Y-48347000D02*
X137898500Y-46632500D01*
X124881000Y-48347000D02*
X136184000Y-48347000D01*
X93829500Y-49760500D02*
X93829500Y-47601500D01*
X100203000Y-56134000D02*
X93829500Y-49760500D01*
X93829500Y-47601500D02*
X93829500Y-36957000D01*
X98237000Y-78105000D02*
X100203000Y-76139000D01*
X104751500Y-51585500D02*
X104751500Y-48347000D01*
X100203000Y-56134000D02*
X104751500Y-51585500D01*
X99775000Y-64182000D02*
X100203000Y-63754000D01*
X96266000Y-64182000D02*
X99775000Y-64182000D01*
X100203000Y-63754000D02*
X100203000Y-56134000D01*
X100203000Y-76139000D02*
X100203000Y-63754000D01*
D19*
X117348000Y-72517000D02*
X113411000Y-72517000D01*
X107124500Y-66230500D02*
X107346750Y-66452750D01*
X107124500Y-62357000D02*
X107124500Y-66230500D01*
X113411000Y-72517000D02*
X107346750Y-66452750D01*
D17*
X87061000Y-69278500D02*
X87061000Y-61280000D01*
X82272500Y-50571400D02*
X82272500Y-55615200D01*
X87061000Y-60403700D02*
X87061000Y-61280000D01*
X82272500Y-55615200D02*
X87061000Y-60403700D01*
M02*
