M48
; DRILL file {KiCad 5.1.6+dfsg1-1~bpo9+1} date Mon Apr  4 20:28:35 2022
; FORMAT={-:-/ absolute / metric / decimal}
; #@! TF.CreationDate,2022-04-04T20:28:35+02:00
; #@! TF.GenerationSoftware,Kicad,Pcbnew,5.1.6+dfsg1-1~bpo9+1
; #@! TF.FileFunction,Plated,1,2,PTH
FMAT,2
METRIC
T1C0.400
T2C0.500
T3C1.000
T4C1.200
T5C1.750
T6C3.200
%
G90
G05
T1
X104.457Y-58.229
X107.124Y-62.357
X108.331Y-76.962
X117.348Y-72.517
T2
X134.366Y-69.85
X134.366Y-71.1
X140.462Y-77.597
X140.462Y-78.847
X134.366Y-77.597
X134.366Y-78.847
T3
X93.893Y-36.957
X96.393Y-36.957
X115.673Y-36.957
X118.173Y-36.957
X126.596Y-36.957
X129.095Y-36.957
X104.751Y-36.957
X107.251Y-36.957
X137.898Y-37.02
X140.398Y-37.02
X82.272Y-50.571
X84.772Y-50.571
T4
X96.266Y-59.182
X96.266Y-64.182
T5
X81.661Y-69.278
X87.061Y-69.278
X92.837Y-78.105
X98.237Y-78.105
T6
X150.0Y-80.0
X150.0Y-35.0
X80.0Y-80.0
X80.0Y-35.0
T0
M30
