G04 #@! TF.GenerationSoftware,KiCad,Pcbnew,5.1.6+dfsg1-1~bpo9+1*
G04 #@! TF.CreationDate,2022-04-04T20:25:57+02:00*
G04 #@! TF.ProjectId,sdrtrx-pttrelais,73647274-7278-42d7-9074-7472656c6169,rev?*
G04 #@! TF.SameCoordinates,Original*
G04 #@! TF.FileFunction,Paste,Bot*
G04 #@! TF.FilePolarity,Positive*
%FSLAX46Y46*%
G04 Gerber Fmt 4.6, Leading zero omitted, Abs format (unit mm)*
G04 Created by KiCad (PCBNEW 5.1.6+dfsg1-1~bpo9+1) date 2022-04-04 20:25:57*
%MOMM*%
%LPD*%
G01*
G04 APERTURE LIST*
%ADD10R,0.900000X1.200000*%
G04 APERTURE END LIST*
G36*
G01*
X124822800Y-86094250D02*
X124822800Y-87006750D01*
G75*
G02*
X124579050Y-87250500I-243750J0D01*
G01*
X124091550Y-87250500D01*
G75*
G02*
X123847800Y-87006750I0J243750D01*
G01*
X123847800Y-86094250D01*
G75*
G02*
X124091550Y-85850500I243750J0D01*
G01*
X124579050Y-85850500D01*
G75*
G02*
X124822800Y-86094250I0J-243750D01*
G01*
G37*
G36*
G01*
X126697800Y-86094250D02*
X126697800Y-87006750D01*
G75*
G02*
X126454050Y-87250500I-243750J0D01*
G01*
X125966550Y-87250500D01*
G75*
G02*
X125722800Y-87006750I0J243750D01*
G01*
X125722800Y-86094250D01*
G75*
G02*
X125966550Y-85850500I243750J0D01*
G01*
X126454050Y-85850500D01*
G75*
G02*
X126697800Y-86094250I0J-243750D01*
G01*
G37*
G36*
G01*
X124822800Y-88862850D02*
X124822800Y-89775350D01*
G75*
G02*
X124579050Y-90019100I-243750J0D01*
G01*
X124091550Y-90019100D01*
G75*
G02*
X123847800Y-89775350I0J243750D01*
G01*
X123847800Y-88862850D01*
G75*
G02*
X124091550Y-88619100I243750J0D01*
G01*
X124579050Y-88619100D01*
G75*
G02*
X124822800Y-88862850I0J-243750D01*
G01*
G37*
G36*
G01*
X126697800Y-88862850D02*
X126697800Y-89775350D01*
G75*
G02*
X126454050Y-90019100I-243750J0D01*
G01*
X125966550Y-90019100D01*
G75*
G02*
X125722800Y-89775350I0J243750D01*
G01*
X125722800Y-88862850D01*
G75*
G02*
X125966550Y-88619100I243750J0D01*
G01*
X126454050Y-88619100D01*
G75*
G02*
X126697800Y-88862850I0J-243750D01*
G01*
G37*
D10*
X133323600Y-86588600D03*
X130023600Y-86588600D03*
X129998200Y-89344500D03*
X133298200Y-89344500D03*
M02*
