M48
; DRILL file {KiCad 5.1.6+dfsg1-1~bpo9+1} date Mon Apr  4 20:26:03 2022
; FORMAT={-:-/ absolute / metric / decimal}
; #@! TF.CreationDate,2022-04-04T20:26:03+02:00
; #@! TF.GenerationSoftware,Kicad,Pcbnew,5.1.6+dfsg1-1~bpo9+1
; #@! TF.FileFunction,Plated,1,2,PTH
FMAT,2
METRIC
T1C0.400
T2C0.500
T3C0.650
T4C0.900
%
G90
G05
T1
X105.156Y-78.867
X105.156Y-79.883
X108.585Y-90.17
X110.236Y-90.17
X114.173Y-79.756
X115.062Y-86.487
X115.183Y-82.544
X115.443Y-91.313
X116.967Y-84.455
X118.872Y-86.487
X122.682Y-81.58
X122.682Y-89.408
X124.955Y-93.637
X126.263Y-92.278
X126.289Y-91.135
X128.016Y-84.836
X129.273Y-91.123
X136.03Y-88.341
X136.03Y-89.56
T2
X133.858Y-78.867
X135.108Y-78.867
X126.771Y-79.756
X128.021Y-79.756
T3
X116.332Y-78.994
X116.332Y-80.264
X117.602Y-78.994
X117.602Y-80.264
X118.872Y-78.994
X118.872Y-80.264
T4
X103.839Y-81.803G85X102.239Y-81.803
G05
X103.839Y-93.203G85X102.239Y-93.203
G05
T0
M30
