G04 #@! TF.GenerationSoftware,KiCad,Pcbnew,5.1.6+dfsg1-1~bpo9+1*
G04 #@! TF.CreationDate,2022-04-04T20:25:57+02:00*
G04 #@! TF.ProjectId,sdrtrx-pttrelais,73647274-7278-42d7-9074-7472656c6169,rev?*
G04 #@! TF.SameCoordinates,Original*
G04 #@! TF.FileFunction,Legend,Top*
G04 #@! TF.FilePolarity,Positive*
%FSLAX46Y46*%
G04 Gerber Fmt 4.6, Leading zero omitted, Abs format (unit mm)*
G04 Created by KiCad (PCBNEW 5.1.6+dfsg1-1~bpo9+1) date 2022-04-04 20:25:57*
%MOMM*%
%LPD*%
G01*
G04 APERTURE LIST*
%ADD10C,0.150000*%
%ADD11C,0.120000*%
%ADD12O,0.900000X1.400000*%
%ADD13R,1.880000X1.620000*%
%ADD14O,1.100000X1.100000*%
%ADD15R,1.100000X1.100000*%
%ADD16C,1.200000*%
%ADD17O,3.600000X2.000000*%
%ADD18R,2.600000X1.200000*%
%ADD19R,1.300000X1.000000*%
G04 APERTURE END LIST*
D10*
X127468761Y-88986904D02*
X127516380Y-88844047D01*
X127516380Y-88605952D01*
X127468761Y-88510714D01*
X127421142Y-88463095D01*
X127325904Y-88415476D01*
X127230666Y-88415476D01*
X127135428Y-88463095D01*
X127087809Y-88510714D01*
X127040190Y-88605952D01*
X126992571Y-88796428D01*
X126944952Y-88891666D01*
X126897333Y-88939285D01*
X126802095Y-88986904D01*
X126706857Y-88986904D01*
X126611619Y-88939285D01*
X126564000Y-88891666D01*
X126516380Y-88796428D01*
X126516380Y-88558333D01*
X126564000Y-88415476D01*
X127516380Y-87986904D02*
X126516380Y-87986904D01*
X126516380Y-87748809D01*
X126564000Y-87605952D01*
X126659238Y-87510714D01*
X126754476Y-87463095D01*
X126944952Y-87415476D01*
X127087809Y-87415476D01*
X127278285Y-87463095D01*
X127373523Y-87510714D01*
X127468761Y-87605952D01*
X127516380Y-87748809D01*
X127516380Y-87986904D01*
X127516380Y-86415476D02*
X127040190Y-86748809D01*
X127516380Y-86986904D02*
X126516380Y-86986904D01*
X126516380Y-86605952D01*
X126564000Y-86510714D01*
X126611619Y-86463095D01*
X126706857Y-86415476D01*
X126849714Y-86415476D01*
X126944952Y-86463095D01*
X126992571Y-86510714D01*
X127040190Y-86605952D01*
X127040190Y-86986904D01*
X127135428Y-85986904D02*
X127135428Y-85225000D01*
X126516380Y-84891666D02*
X126516380Y-84320238D01*
X127516380Y-84605952D02*
X126516380Y-84605952D01*
X127516380Y-83415476D02*
X127040190Y-83748809D01*
X127516380Y-83986904D02*
X126516380Y-83986904D01*
X126516380Y-83605952D01*
X126564000Y-83510714D01*
X126611619Y-83463095D01*
X126706857Y-83415476D01*
X126849714Y-83415476D01*
X126944952Y-83463095D01*
X126992571Y-83510714D01*
X127040190Y-83605952D01*
X127040190Y-83986904D01*
X126516380Y-83082142D02*
X127516380Y-82415476D01*
X126516380Y-82415476D02*
X127516380Y-83082142D01*
X129166380Y-90272619D02*
X128166380Y-90272619D01*
X128166380Y-89891666D01*
X128214000Y-89796428D01*
X128261619Y-89748809D01*
X128356857Y-89701190D01*
X128499714Y-89701190D01*
X128594952Y-89748809D01*
X128642571Y-89796428D01*
X128690190Y-89891666D01*
X128690190Y-90272619D01*
X128166380Y-89415476D02*
X128166380Y-88844047D01*
X129166380Y-89129761D02*
X128166380Y-89129761D01*
X128166380Y-88653571D02*
X128166380Y-88082142D01*
X129166380Y-88367857D02*
X128166380Y-88367857D01*
X129166380Y-87177380D02*
X128690190Y-87510714D01*
X129166380Y-87748809D02*
X128166380Y-87748809D01*
X128166380Y-87367857D01*
X128214000Y-87272619D01*
X128261619Y-87225000D01*
X128356857Y-87177380D01*
X128499714Y-87177380D01*
X128594952Y-87225000D01*
X128642571Y-87272619D01*
X128690190Y-87367857D01*
X128690190Y-87748809D01*
X129118761Y-86367857D02*
X129166380Y-86463095D01*
X129166380Y-86653571D01*
X129118761Y-86748809D01*
X129023523Y-86796428D01*
X128642571Y-86796428D01*
X128547333Y-86748809D01*
X128499714Y-86653571D01*
X128499714Y-86463095D01*
X128547333Y-86367857D01*
X128642571Y-86320238D01*
X128737809Y-86320238D01*
X128833047Y-86796428D01*
X129166380Y-85748809D02*
X129118761Y-85844047D01*
X129023523Y-85891666D01*
X128166380Y-85891666D01*
X129166380Y-84939285D02*
X128642571Y-84939285D01*
X128547333Y-84986904D01*
X128499714Y-85082142D01*
X128499714Y-85272619D01*
X128547333Y-85367857D01*
X129118761Y-84939285D02*
X129166380Y-85034523D01*
X129166380Y-85272619D01*
X129118761Y-85367857D01*
X129023523Y-85415476D01*
X128928285Y-85415476D01*
X128833047Y-85367857D01*
X128785428Y-85272619D01*
X128785428Y-85034523D01*
X128737809Y-84939285D01*
X129166380Y-84463095D02*
X128499714Y-84463095D01*
X128166380Y-84463095D02*
X128214000Y-84510714D01*
X128261619Y-84463095D01*
X128214000Y-84415476D01*
X128166380Y-84463095D01*
X128261619Y-84463095D01*
X129118761Y-84034523D02*
X129166380Y-83939285D01*
X129166380Y-83748809D01*
X129118761Y-83653571D01*
X129023523Y-83605952D01*
X128975904Y-83605952D01*
X128880666Y-83653571D01*
X128833047Y-83748809D01*
X128833047Y-83891666D01*
X128785428Y-83986904D01*
X128690190Y-84034523D01*
X128642571Y-84034523D01*
X128547333Y-83986904D01*
X128499714Y-83891666D01*
X128499714Y-83748809D01*
X128547333Y-83653571D01*
X128499714Y-82510714D02*
X129166380Y-82272619D01*
X128499714Y-82034523D01*
X128499714Y-81225000D02*
X129166380Y-81225000D01*
X128118761Y-81463095D02*
X128833047Y-81701190D01*
X128833047Y-81082142D01*
D11*
X124871400Y-81306000D02*
X125871400Y-81306000D01*
X124871400Y-81306000D02*
X124871400Y-80306000D01*
X129121400Y-78106000D02*
X127396400Y-78106000D01*
X129121400Y-78956000D02*
X129121400Y-78106000D01*
X129321400Y-78956000D02*
X129121400Y-78956000D01*
X129321400Y-79756000D02*
X129321400Y-78956000D01*
X129121400Y-79756000D02*
X129321400Y-79756000D01*
X129121400Y-80506000D02*
X129121400Y-79756000D01*
X127396400Y-80506000D02*
X129121400Y-80506000D01*
X125671400Y-78106000D02*
X127396400Y-78106000D01*
X125671400Y-78956000D02*
X125671400Y-78106000D01*
X125471400Y-78956000D02*
X125671400Y-78956000D01*
X125471400Y-79756000D02*
X125471400Y-78956000D01*
X125671400Y-79756000D02*
X125471400Y-79756000D01*
X125671400Y-80506000D02*
X125671400Y-79756000D01*
X127396400Y-80506000D02*
X125671400Y-80506000D01*
X129631400Y-77596000D02*
X125161400Y-77596000D01*
X129631400Y-81016000D02*
X129631400Y-77596000D01*
X125161400Y-81016000D02*
X129631400Y-81016000D01*
X125161400Y-77596000D02*
X125161400Y-81016000D01*
X120650000Y-84755500D02*
X117902500Y-84755500D01*
X117902500Y-84755500D02*
X117902500Y-85038000D01*
X120650000Y-84755500D02*
X123397500Y-84755500D01*
X123397500Y-84755500D02*
X123397500Y-85038000D01*
X120650000Y-90250500D02*
X117902500Y-90250500D01*
X117902500Y-90250500D02*
X117902500Y-89968000D01*
X120650000Y-90250500D02*
X123397500Y-90250500D01*
X123397500Y-90250500D02*
X123397500Y-89968000D01*
X123397500Y-89968000D02*
X125050000Y-89968000D01*
X129794000Y-93511000D02*
X129794000Y-84311000D01*
X137017000Y-91711000D02*
X137017000Y-84311000D01*
D10*
X129921000Y-91694000D02*
X131699000Y-91694000D01*
D11*
X115572000Y-81394000D02*
X115572000Y-80264000D01*
X116332000Y-81394000D02*
X115572000Y-81394000D01*
X115637000Y-78686470D02*
X115637000Y-77864000D01*
X115637000Y-79504000D02*
X115637000Y-79301530D01*
X115768529Y-79504000D02*
X115637000Y-79504000D01*
X117038529Y-79504000D02*
X116895471Y-79504000D01*
X117092000Y-79700529D02*
X117092000Y-79557471D01*
X117092000Y-81394000D02*
X117092000Y-80827471D01*
X115637000Y-77864000D02*
X119567000Y-77864000D01*
X117092000Y-81394000D02*
X119567000Y-81394000D01*
X119567000Y-79956470D02*
X119567000Y-79301530D01*
X119567000Y-78686470D02*
X119567000Y-77864000D01*
X119567000Y-81394000D02*
X119567000Y-80571530D01*
X136718000Y-81027000D02*
X136718000Y-77607000D01*
X136718000Y-77607000D02*
X132248000Y-77607000D01*
X132248000Y-77607000D02*
X132248000Y-81027000D01*
X132248000Y-81027000D02*
X136718000Y-81027000D01*
X134483000Y-78117000D02*
X136208000Y-78117000D01*
X136208000Y-78117000D02*
X136208000Y-78867000D01*
X136208000Y-78867000D02*
X136408000Y-78867000D01*
X136408000Y-78867000D02*
X136408000Y-79667000D01*
X136408000Y-79667000D02*
X136208000Y-79667000D01*
X136208000Y-79667000D02*
X136208000Y-80517000D01*
X136208000Y-80517000D02*
X134483000Y-80517000D01*
X134483000Y-78117000D02*
X132758000Y-78117000D01*
X132758000Y-78117000D02*
X132758000Y-78867000D01*
X132758000Y-78867000D02*
X132558000Y-78867000D01*
X132558000Y-78867000D02*
X132558000Y-79667000D01*
X132558000Y-79667000D02*
X132758000Y-79667000D01*
X132758000Y-79667000D02*
X132758000Y-80517000D01*
X132758000Y-80517000D02*
X134483000Y-80517000D01*
X137008000Y-77317000D02*
X137008000Y-78317000D01*
X137008000Y-77317000D02*
X136008000Y-77317000D01*
X122178578Y-80212000D02*
X121661422Y-80212000D01*
X122178578Y-78792000D02*
X121661422Y-78792000D01*
X127179000Y-92333578D02*
X127179000Y-91816422D01*
X128599000Y-92333578D02*
X128599000Y-91816422D01*
X124159778Y-92277000D02*
X123642622Y-92277000D01*
X124159778Y-90857000D02*
X123642622Y-90857000D01*
X113161578Y-89356000D02*
X112644422Y-89356000D01*
X113161578Y-87936000D02*
X112644422Y-87936000D01*
X113161578Y-87197000D02*
X112644422Y-87197000D01*
X113161578Y-85777000D02*
X112644422Y-85777000D01*
X113161578Y-92785000D02*
X112644422Y-92785000D01*
X113161578Y-91365000D02*
X112644422Y-91365000D01*
X104159000Y-91903000D02*
X104159000Y-83103000D01*
X100989000Y-93648000D02*
X99939000Y-93648000D01*
X100989000Y-81358000D02*
X99939000Y-81358000D01*
X104159000Y-91903000D02*
X104914000Y-91903000D01*
X110347000Y-88047000D02*
X108347000Y-88047000D01*
X108347000Y-88047000D02*
X108347000Y-91947000D01*
X110347000Y-88047000D02*
X110347000Y-91947000D01*
X108347000Y-87086000D02*
X110347000Y-87086000D01*
X110347000Y-87086000D02*
X110347000Y-83186000D01*
X108347000Y-87086000D02*
X108347000Y-83186000D01*
X107363000Y-77496000D02*
X107363000Y-78696000D01*
X107363000Y-82016000D02*
X107363000Y-80816000D01*
X110818563Y-82016000D02*
X107363000Y-82016000D01*
X110818563Y-77496000D02*
X107363000Y-77496000D01*
X111883000Y-78560437D02*
X111883000Y-78696000D01*
X111883000Y-80951563D02*
X111883000Y-80816000D01*
X111883000Y-80951563D02*
X110818563Y-82016000D01*
X111883000Y-78560437D02*
X110818563Y-77496000D01*
X112623000Y-81316000D02*
X112123000Y-81316000D01*
X112373000Y-81566000D02*
X112373000Y-81066000D01*
X120010422Y-90857000D02*
X120527578Y-90857000D01*
X120010422Y-92277000D02*
X120527578Y-92277000D01*
D10*
X125142666Y-81646780D02*
X125142666Y-82361066D01*
X125095047Y-82503923D01*
X124999809Y-82599161D01*
X124856952Y-82646780D01*
X124761714Y-82646780D01*
X126047428Y-81980114D02*
X126047428Y-82646780D01*
X125809333Y-81599161D02*
X125571238Y-82313447D01*
X126190285Y-82313447D01*
X121793095Y-83272380D02*
X121793095Y-84081904D01*
X121840714Y-84177142D01*
X121888333Y-84224761D01*
X121983571Y-84272380D01*
X122174047Y-84272380D01*
X122269285Y-84224761D01*
X122316904Y-84177142D01*
X122364523Y-84081904D01*
X122364523Y-83272380D01*
X123364523Y-84272380D02*
X122793095Y-84272380D01*
X123078809Y-84272380D02*
X123078809Y-83272380D01*
X122983571Y-83415238D01*
X122888333Y-83510476D01*
X122793095Y-83558095D01*
X130135380Y-81914904D02*
X130944904Y-81914904D01*
X131040142Y-81867285D01*
X131087761Y-81819666D01*
X131135380Y-81724428D01*
X131135380Y-81533952D01*
X131087761Y-81438714D01*
X131040142Y-81391095D01*
X130944904Y-81343476D01*
X130135380Y-81343476D01*
X130230619Y-80914904D02*
X130183000Y-80867285D01*
X130135380Y-80772047D01*
X130135380Y-80533952D01*
X130183000Y-80438714D01*
X130230619Y-80391095D01*
X130325857Y-80343476D01*
X130421095Y-80343476D01*
X130563952Y-80391095D01*
X131135380Y-80962523D01*
X131135380Y-80343476D01*
X116887666Y-81748380D02*
X116887666Y-82462666D01*
X116840047Y-82605523D01*
X116744809Y-82700761D01*
X116601952Y-82748380D01*
X116506714Y-82748380D01*
X117268619Y-81748380D02*
X117887666Y-81748380D01*
X117554333Y-82129333D01*
X117697190Y-82129333D01*
X117792428Y-82176952D01*
X117840047Y-82224571D01*
X117887666Y-82319809D01*
X117887666Y-82557904D01*
X117840047Y-82653142D01*
X117792428Y-82700761D01*
X117697190Y-82748380D01*
X117411476Y-82748380D01*
X117316238Y-82700761D01*
X117268619Y-82653142D01*
X130897380Y-78692333D02*
X131611666Y-78692333D01*
X131754523Y-78739952D01*
X131849761Y-78835190D01*
X131897380Y-78978047D01*
X131897380Y-79073285D01*
X130992619Y-78263761D02*
X130945000Y-78216142D01*
X130897380Y-78120904D01*
X130897380Y-77882809D01*
X130945000Y-77787571D01*
X130992619Y-77739952D01*
X131087857Y-77692333D01*
X131183095Y-77692333D01*
X131325952Y-77739952D01*
X131897380Y-78311380D01*
X131897380Y-77692333D01*
X121880333Y-78303380D02*
X121547000Y-77827190D01*
X121308904Y-78303380D02*
X121308904Y-77303380D01*
X121689857Y-77303380D01*
X121785095Y-77351000D01*
X121832714Y-77398619D01*
X121880333Y-77493857D01*
X121880333Y-77636714D01*
X121832714Y-77731952D01*
X121785095Y-77779571D01*
X121689857Y-77827190D01*
X121308904Y-77827190D01*
X122737476Y-77303380D02*
X122547000Y-77303380D01*
X122451761Y-77351000D01*
X122404142Y-77398619D01*
X122308904Y-77541476D01*
X122261285Y-77731952D01*
X122261285Y-78112904D01*
X122308904Y-78208142D01*
X122356523Y-78255761D01*
X122451761Y-78303380D01*
X122642238Y-78303380D01*
X122737476Y-78255761D01*
X122785095Y-78208142D01*
X122832714Y-78112904D01*
X122832714Y-77874809D01*
X122785095Y-77779571D01*
X122737476Y-77731952D01*
X122642238Y-77684333D01*
X122451761Y-77684333D01*
X122356523Y-77731952D01*
X122308904Y-77779571D01*
X122261285Y-77874809D01*
X126817380Y-93867266D02*
X126341190Y-94200600D01*
X126817380Y-94438695D02*
X125817380Y-94438695D01*
X125817380Y-94057742D01*
X125865000Y-93962504D01*
X125912619Y-93914885D01*
X126007857Y-93867266D01*
X126150714Y-93867266D01*
X126245952Y-93914885D01*
X126293571Y-93962504D01*
X126341190Y-94057742D01*
X126341190Y-94438695D01*
X125817380Y-92962504D02*
X125817380Y-93438695D01*
X126293571Y-93486314D01*
X126245952Y-93438695D01*
X126198333Y-93343457D01*
X126198333Y-93105361D01*
X126245952Y-93010123D01*
X126293571Y-92962504D01*
X126388809Y-92914885D01*
X126626904Y-92914885D01*
X126722142Y-92962504D01*
X126769761Y-93010123D01*
X126817380Y-93105361D01*
X126817380Y-93343457D01*
X126769761Y-93438695D01*
X126722142Y-93486314D01*
X122743933Y-93873580D02*
X122410600Y-93397390D01*
X122172504Y-93873580D02*
X122172504Y-92873580D01*
X122553457Y-92873580D01*
X122648695Y-92921200D01*
X122696314Y-92968819D01*
X122743933Y-93064057D01*
X122743933Y-93206914D01*
X122696314Y-93302152D01*
X122648695Y-93349771D01*
X122553457Y-93397390D01*
X122172504Y-93397390D01*
X123601076Y-93206914D02*
X123601076Y-93873580D01*
X123362980Y-92825961D02*
X123124885Y-93540247D01*
X123743933Y-93540247D01*
X113625333Y-90876380D02*
X113292000Y-90400190D01*
X113053904Y-90876380D02*
X113053904Y-89876380D01*
X113434857Y-89876380D01*
X113530095Y-89924000D01*
X113577714Y-89971619D01*
X113625333Y-90066857D01*
X113625333Y-90209714D01*
X113577714Y-90304952D01*
X113530095Y-90352571D01*
X113434857Y-90400190D01*
X113053904Y-90400190D01*
X113958666Y-89876380D02*
X114577714Y-89876380D01*
X114244380Y-90257333D01*
X114387238Y-90257333D01*
X114482476Y-90304952D01*
X114530095Y-90352571D01*
X114577714Y-90447809D01*
X114577714Y-90685904D01*
X114530095Y-90781142D01*
X114482476Y-90828761D01*
X114387238Y-90876380D01*
X114101523Y-90876380D01*
X114006285Y-90828761D01*
X113958666Y-90781142D01*
X113625333Y-85288380D02*
X113292000Y-84812190D01*
X113053904Y-85288380D02*
X113053904Y-84288380D01*
X113434857Y-84288380D01*
X113530095Y-84336000D01*
X113577714Y-84383619D01*
X113625333Y-84478857D01*
X113625333Y-84621714D01*
X113577714Y-84716952D01*
X113530095Y-84764571D01*
X113434857Y-84812190D01*
X113053904Y-84812190D01*
X114006285Y-84383619D02*
X114053904Y-84336000D01*
X114149142Y-84288380D01*
X114387238Y-84288380D01*
X114482476Y-84336000D01*
X114530095Y-84383619D01*
X114577714Y-84478857D01*
X114577714Y-84574095D01*
X114530095Y-84716952D01*
X113958666Y-85288380D01*
X114577714Y-85288380D01*
X113752333Y-94305380D02*
X113419000Y-93829190D01*
X113180904Y-94305380D02*
X113180904Y-93305380D01*
X113561857Y-93305380D01*
X113657095Y-93353000D01*
X113704714Y-93400619D01*
X113752333Y-93495857D01*
X113752333Y-93638714D01*
X113704714Y-93733952D01*
X113657095Y-93781571D01*
X113561857Y-93829190D01*
X113180904Y-93829190D01*
X114704714Y-94305380D02*
X114133285Y-94305380D01*
X114419000Y-94305380D02*
X114419000Y-93305380D01*
X114323761Y-93448238D01*
X114228523Y-93543476D01*
X114133285Y-93591095D01*
X102790666Y-78827380D02*
X102790666Y-79541666D01*
X102743047Y-79684523D01*
X102647809Y-79779761D01*
X102504952Y-79827380D01*
X102409714Y-79827380D01*
X103790666Y-79827380D02*
X103219238Y-79827380D01*
X103504952Y-79827380D02*
X103504952Y-78827380D01*
X103409714Y-78970238D01*
X103314476Y-79065476D01*
X103219238Y-79113095D01*
X108227904Y-93924380D02*
X108227904Y-92924380D01*
X108466000Y-92924380D01*
X108608857Y-92972000D01*
X108704095Y-93067238D01*
X108751714Y-93162476D01*
X108799333Y-93352952D01*
X108799333Y-93495809D01*
X108751714Y-93686285D01*
X108704095Y-93781523D01*
X108608857Y-93876761D01*
X108466000Y-93924380D01*
X108227904Y-93924380D01*
X109180285Y-93019619D02*
X109227904Y-92972000D01*
X109323142Y-92924380D01*
X109561238Y-92924380D01*
X109656476Y-92972000D01*
X109704095Y-93019619D01*
X109751714Y-93114857D01*
X109751714Y-93210095D01*
X109704095Y-93352952D01*
X109132666Y-93924380D01*
X109751714Y-93924380D01*
X111831380Y-84050095D02*
X110831380Y-84050095D01*
X110831380Y-83812000D01*
X110879000Y-83669142D01*
X110974238Y-83573904D01*
X111069476Y-83526285D01*
X111259952Y-83478666D01*
X111402809Y-83478666D01*
X111593285Y-83526285D01*
X111688523Y-83573904D01*
X111783761Y-83669142D01*
X111831380Y-83812000D01*
X111831380Y-84050095D01*
X111831380Y-82526285D02*
X111831380Y-83097714D01*
X111831380Y-82812000D02*
X110831380Y-82812000D01*
X110974238Y-82907238D01*
X111069476Y-83002476D01*
X111117095Y-83097714D01*
X112609333Y-78335142D02*
X112561714Y-78382761D01*
X112418857Y-78430380D01*
X112323619Y-78430380D01*
X112180761Y-78382761D01*
X112085523Y-78287523D01*
X112037904Y-78192285D01*
X111990285Y-78001809D01*
X111990285Y-77858952D01*
X112037904Y-77668476D01*
X112085523Y-77573238D01*
X112180761Y-77478000D01*
X112323619Y-77430380D01*
X112418857Y-77430380D01*
X112561714Y-77478000D01*
X112609333Y-77525619D01*
X112990285Y-77525619D02*
X113037904Y-77478000D01*
X113133142Y-77430380D01*
X113371238Y-77430380D01*
X113466476Y-77478000D01*
X113514095Y-77525619D01*
X113561714Y-77620857D01*
X113561714Y-77716095D01*
X113514095Y-77858952D01*
X112942666Y-78430380D01*
X113561714Y-78430380D01*
X117435333Y-91924142D02*
X117387714Y-91971761D01*
X117244857Y-92019380D01*
X117149619Y-92019380D01*
X117006761Y-91971761D01*
X116911523Y-91876523D01*
X116863904Y-91781285D01*
X116816285Y-91590809D01*
X116816285Y-91447952D01*
X116863904Y-91257476D01*
X116911523Y-91162238D01*
X117006761Y-91067000D01*
X117149619Y-91019380D01*
X117244857Y-91019380D01*
X117387714Y-91067000D01*
X117435333Y-91114619D01*
X118387714Y-92019380D02*
X117816285Y-92019380D01*
X118102000Y-92019380D02*
X118102000Y-91019380D01*
X118006761Y-91162238D01*
X117911523Y-91257476D01*
X117816285Y-91305095D01*
%LPC*%
D12*
X128021400Y-79756000D03*
G36*
G01*
X126321400Y-80231000D02*
X126321400Y-79281000D01*
G75*
G02*
X126546400Y-79056000I225000J0D01*
G01*
X126996400Y-79056000D01*
G75*
G02*
X127221400Y-79281000I0J-225000D01*
G01*
X127221400Y-80231000D01*
G75*
G02*
X126996400Y-80456000I-225000J0D01*
G01*
X126546400Y-80456000D01*
G75*
G02*
X126321400Y-80231000I0J225000D01*
G01*
G37*
G36*
G01*
X117900000Y-89233000D02*
X117900000Y-89583000D01*
G75*
G02*
X117725000Y-89758000I-175000J0D01*
G01*
X116375000Y-89758000D01*
G75*
G02*
X116200000Y-89583000I0J175000D01*
G01*
X116200000Y-89233000D01*
G75*
G02*
X116375000Y-89058000I175000J0D01*
G01*
X117725000Y-89058000D01*
G75*
G02*
X117900000Y-89233000I0J-175000D01*
G01*
G37*
G36*
G01*
X117900000Y-87963000D02*
X117900000Y-88313000D01*
G75*
G02*
X117725000Y-88488000I-175000J0D01*
G01*
X116375000Y-88488000D01*
G75*
G02*
X116200000Y-88313000I0J175000D01*
G01*
X116200000Y-87963000D01*
G75*
G02*
X116375000Y-87788000I175000J0D01*
G01*
X117725000Y-87788000D01*
G75*
G02*
X117900000Y-87963000I0J-175000D01*
G01*
G37*
G36*
G01*
X117900000Y-86693000D02*
X117900000Y-87043000D01*
G75*
G02*
X117725000Y-87218000I-175000J0D01*
G01*
X116375000Y-87218000D01*
G75*
G02*
X116200000Y-87043000I0J175000D01*
G01*
X116200000Y-86693000D01*
G75*
G02*
X116375000Y-86518000I175000J0D01*
G01*
X117725000Y-86518000D01*
G75*
G02*
X117900000Y-86693000I0J-175000D01*
G01*
G37*
G36*
G01*
X117900000Y-85423000D02*
X117900000Y-85773000D01*
G75*
G02*
X117725000Y-85948000I-175000J0D01*
G01*
X116375000Y-85948000D01*
G75*
G02*
X116200000Y-85773000I0J175000D01*
G01*
X116200000Y-85423000D01*
G75*
G02*
X116375000Y-85248000I175000J0D01*
G01*
X117725000Y-85248000D01*
G75*
G02*
X117900000Y-85423000I0J-175000D01*
G01*
G37*
G36*
G01*
X125100000Y-85423000D02*
X125100000Y-85773000D01*
G75*
G02*
X124925000Y-85948000I-175000J0D01*
G01*
X123575000Y-85948000D01*
G75*
G02*
X123400000Y-85773000I0J175000D01*
G01*
X123400000Y-85423000D01*
G75*
G02*
X123575000Y-85248000I175000J0D01*
G01*
X124925000Y-85248000D01*
G75*
G02*
X125100000Y-85423000I0J-175000D01*
G01*
G37*
G36*
G01*
X125100000Y-86693000D02*
X125100000Y-87043000D01*
G75*
G02*
X124925000Y-87218000I-175000J0D01*
G01*
X123575000Y-87218000D01*
G75*
G02*
X123400000Y-87043000I0J175000D01*
G01*
X123400000Y-86693000D01*
G75*
G02*
X123575000Y-86518000I175000J0D01*
G01*
X124925000Y-86518000D01*
G75*
G02*
X125100000Y-86693000I0J-175000D01*
G01*
G37*
G36*
G01*
X125100000Y-87963000D02*
X125100000Y-88313000D01*
G75*
G02*
X124925000Y-88488000I-175000J0D01*
G01*
X123575000Y-88488000D01*
G75*
G02*
X123400000Y-88313000I0J175000D01*
G01*
X123400000Y-87963000D01*
G75*
G02*
X123575000Y-87788000I175000J0D01*
G01*
X124925000Y-87788000D01*
G75*
G02*
X125100000Y-87963000I0J-175000D01*
G01*
G37*
G36*
G01*
X125100000Y-89233000D02*
X125100000Y-89583000D01*
G75*
G02*
X124925000Y-89758000I-175000J0D01*
G01*
X123575000Y-89758000D01*
G75*
G02*
X123400000Y-89583000I0J175000D01*
G01*
X123400000Y-89233000D01*
G75*
G02*
X123575000Y-89058000I175000J0D01*
G01*
X124925000Y-89058000D01*
G75*
G02*
X125100000Y-89233000I0J-175000D01*
G01*
G37*
D13*
X130937000Y-83246000D03*
X133477000Y-83246000D03*
X136017000Y-83246000D03*
X136017000Y-92776000D03*
X133477000Y-92776000D03*
X130937000Y-92776000D03*
D14*
X118872000Y-78994000D03*
X118872000Y-80264000D03*
X117602000Y-78994000D03*
X117602000Y-80264000D03*
X116332000Y-78994000D03*
D15*
X116332000Y-80264000D03*
D12*
X133858000Y-78867000D03*
G36*
G01*
X135558000Y-78392000D02*
X135558000Y-79342000D01*
G75*
G02*
X135333000Y-79567000I-225000J0D01*
G01*
X134883000Y-79567000D01*
G75*
G02*
X134658000Y-79342000I0J225000D01*
G01*
X134658000Y-78392000D01*
G75*
G02*
X134883000Y-78167000I225000J0D01*
G01*
X135333000Y-78167000D01*
G75*
G02*
X135558000Y-78392000I0J-225000D01*
G01*
G37*
G36*
G01*
X121520000Y-79020750D02*
X121520000Y-79983250D01*
G75*
G02*
X121251250Y-80252000I-268750J0D01*
G01*
X120713750Y-80252000D01*
G75*
G02*
X120445000Y-79983250I0J268750D01*
G01*
X120445000Y-79020750D01*
G75*
G02*
X120713750Y-78752000I268750J0D01*
G01*
X121251250Y-78752000D01*
G75*
G02*
X121520000Y-79020750I0J-268750D01*
G01*
G37*
G36*
G01*
X123395000Y-79020750D02*
X123395000Y-79983250D01*
G75*
G02*
X123126250Y-80252000I-268750J0D01*
G01*
X122588750Y-80252000D01*
G75*
G02*
X122320000Y-79983250I0J268750D01*
G01*
X122320000Y-79020750D01*
G75*
G02*
X122588750Y-78752000I268750J0D01*
G01*
X123126250Y-78752000D01*
G75*
G02*
X123395000Y-79020750I0J-268750D01*
G01*
G37*
G36*
G01*
X128370250Y-91675000D02*
X127407750Y-91675000D01*
G75*
G02*
X127139000Y-91406250I0J268750D01*
G01*
X127139000Y-90868750D01*
G75*
G02*
X127407750Y-90600000I268750J0D01*
G01*
X128370250Y-90600000D01*
G75*
G02*
X128639000Y-90868750I0J-268750D01*
G01*
X128639000Y-91406250D01*
G75*
G02*
X128370250Y-91675000I-268750J0D01*
G01*
G37*
G36*
G01*
X128370250Y-93550000D02*
X127407750Y-93550000D01*
G75*
G02*
X127139000Y-93281250I0J268750D01*
G01*
X127139000Y-92743750D01*
G75*
G02*
X127407750Y-92475000I268750J0D01*
G01*
X128370250Y-92475000D01*
G75*
G02*
X128639000Y-92743750I0J-268750D01*
G01*
X128639000Y-93281250D01*
G75*
G02*
X128370250Y-93550000I-268750J0D01*
G01*
G37*
G36*
G01*
X123501200Y-91085750D02*
X123501200Y-92048250D01*
G75*
G02*
X123232450Y-92317000I-268750J0D01*
G01*
X122694950Y-92317000D01*
G75*
G02*
X122426200Y-92048250I0J268750D01*
G01*
X122426200Y-91085750D01*
G75*
G02*
X122694950Y-90817000I268750J0D01*
G01*
X123232450Y-90817000D01*
G75*
G02*
X123501200Y-91085750I0J-268750D01*
G01*
G37*
G36*
G01*
X125376200Y-91085750D02*
X125376200Y-92048250D01*
G75*
G02*
X125107450Y-92317000I-268750J0D01*
G01*
X124569950Y-92317000D01*
G75*
G02*
X124301200Y-92048250I0J268750D01*
G01*
X124301200Y-91085750D01*
G75*
G02*
X124569950Y-90817000I268750J0D01*
G01*
X125107450Y-90817000D01*
G75*
G02*
X125376200Y-91085750I0J-268750D01*
G01*
G37*
G36*
G01*
X112503000Y-88164750D02*
X112503000Y-89127250D01*
G75*
G02*
X112234250Y-89396000I-268750J0D01*
G01*
X111696750Y-89396000D01*
G75*
G02*
X111428000Y-89127250I0J268750D01*
G01*
X111428000Y-88164750D01*
G75*
G02*
X111696750Y-87896000I268750J0D01*
G01*
X112234250Y-87896000D01*
G75*
G02*
X112503000Y-88164750I0J-268750D01*
G01*
G37*
G36*
G01*
X114378000Y-88164750D02*
X114378000Y-89127250D01*
G75*
G02*
X114109250Y-89396000I-268750J0D01*
G01*
X113571750Y-89396000D01*
G75*
G02*
X113303000Y-89127250I0J268750D01*
G01*
X113303000Y-88164750D01*
G75*
G02*
X113571750Y-87896000I268750J0D01*
G01*
X114109250Y-87896000D01*
G75*
G02*
X114378000Y-88164750I0J-268750D01*
G01*
G37*
G36*
G01*
X112503000Y-86005750D02*
X112503000Y-86968250D01*
G75*
G02*
X112234250Y-87237000I-268750J0D01*
G01*
X111696750Y-87237000D01*
G75*
G02*
X111428000Y-86968250I0J268750D01*
G01*
X111428000Y-86005750D01*
G75*
G02*
X111696750Y-85737000I268750J0D01*
G01*
X112234250Y-85737000D01*
G75*
G02*
X112503000Y-86005750I0J-268750D01*
G01*
G37*
G36*
G01*
X114378000Y-86005750D02*
X114378000Y-86968250D01*
G75*
G02*
X114109250Y-87237000I-268750J0D01*
G01*
X113571750Y-87237000D01*
G75*
G02*
X113303000Y-86968250I0J268750D01*
G01*
X113303000Y-86005750D01*
G75*
G02*
X113571750Y-85737000I268750J0D01*
G01*
X114109250Y-85737000D01*
G75*
G02*
X114378000Y-86005750I0J-268750D01*
G01*
G37*
G36*
G01*
X112503000Y-91593750D02*
X112503000Y-92556250D01*
G75*
G02*
X112234250Y-92825000I-268750J0D01*
G01*
X111696750Y-92825000D01*
G75*
G02*
X111428000Y-92556250I0J268750D01*
G01*
X111428000Y-91593750D01*
G75*
G02*
X111696750Y-91325000I268750J0D01*
G01*
X112234250Y-91325000D01*
G75*
G02*
X112503000Y-91593750I0J-268750D01*
G01*
G37*
G36*
G01*
X114378000Y-91593750D02*
X114378000Y-92556250D01*
G75*
G02*
X114109250Y-92825000I-268750J0D01*
G01*
X113571750Y-92825000D01*
G75*
G02*
X113303000Y-92556250I0J268750D01*
G01*
X113303000Y-91593750D01*
G75*
G02*
X113571750Y-91325000I268750J0D01*
G01*
X114109250Y-91325000D01*
G75*
G02*
X114378000Y-91593750I0J-268750D01*
G01*
G37*
D16*
X103039000Y-85203000D03*
X103039000Y-89803000D03*
D17*
X103039000Y-81803000D03*
X103039000Y-93203000D03*
D18*
X105789000Y-84003000D03*
X105789000Y-91003000D03*
X105789000Y-86503000D03*
X105789000Y-88503000D03*
D19*
X109347000Y-91947000D03*
X109347000Y-88647000D03*
X109347000Y-83186000D03*
X109347000Y-86486000D03*
G36*
G01*
X109173000Y-79171625D02*
X109173000Y-80340375D01*
G75*
G02*
X108907375Y-80606000I-265625J0D01*
G01*
X106738625Y-80606000D01*
G75*
G02*
X106473000Y-80340375I0J265625D01*
G01*
X106473000Y-79171625D01*
G75*
G02*
X106738625Y-78906000I265625J0D01*
G01*
X108907375Y-78906000D01*
G75*
G02*
X109173000Y-79171625I0J-265625D01*
G01*
G37*
G36*
G01*
X112773000Y-79171625D02*
X112773000Y-80340375D01*
G75*
G02*
X112507375Y-80606000I-265625J0D01*
G01*
X110338625Y-80606000D01*
G75*
G02*
X110073000Y-80340375I0J265625D01*
G01*
X110073000Y-79171625D01*
G75*
G02*
X110338625Y-78906000I265625J0D01*
G01*
X112507375Y-78906000D01*
G75*
G02*
X112773000Y-79171625I0J-265625D01*
G01*
G37*
G36*
G01*
X120669000Y-92048250D02*
X120669000Y-91085750D01*
G75*
G02*
X120937750Y-90817000I268750J0D01*
G01*
X121475250Y-90817000D01*
G75*
G02*
X121744000Y-91085750I0J-268750D01*
G01*
X121744000Y-92048250D01*
G75*
G02*
X121475250Y-92317000I-268750J0D01*
G01*
X120937750Y-92317000D01*
G75*
G02*
X120669000Y-92048250I0J268750D01*
G01*
G37*
G36*
G01*
X118794000Y-92048250D02*
X118794000Y-91085750D01*
G75*
G02*
X119062750Y-90817000I268750J0D01*
G01*
X119600250Y-90817000D01*
G75*
G02*
X119869000Y-91085750I0J-268750D01*
G01*
X119869000Y-92048250D01*
G75*
G02*
X119600250Y-92317000I-268750J0D01*
G01*
X119062750Y-92317000D01*
G75*
G02*
X118794000Y-92048250I0J268750D01*
G01*
G37*
M02*
