G04 #@! TF.GenerationSoftware,KiCad,Pcbnew,5.1.6+dfsg1-1~bpo9+1*
G04 #@! TF.CreationDate,2022-04-04T20:25:57+02:00*
G04 #@! TF.ProjectId,sdrtrx-pttrelais,73647274-7278-42d7-9074-7472656c6169,rev?*
G04 #@! TF.SameCoordinates,Original*
G04 #@! TF.FileFunction,Soldermask,Bot*
G04 #@! TF.FilePolarity,Negative*
%FSLAX46Y46*%
G04 Gerber Fmt 4.6, Leading zero omitted, Abs format (unit mm)*
G04 Created by KiCad (PCBNEW 5.1.6+dfsg1-1~bpo9+1) date 2022-04-04 20:25:57*
%MOMM*%
%LPD*%
G01*
G04 APERTURE LIST*
%ADD10O,0.900000X1.400000*%
%ADD11R,1.000000X1.300000*%
%ADD12O,1.100000X1.100000*%
%ADD13R,1.100000X1.100000*%
%ADD14C,1.600000*%
%ADD15C,1.200000*%
%ADD16O,3.600000X2.000000*%
G04 APERTURE END LIST*
G36*
G01*
X124872800Y-86069250D02*
X124872800Y-87031750D01*
G75*
G02*
X124604050Y-87300500I-268750J0D01*
G01*
X124066550Y-87300500D01*
G75*
G02*
X123797800Y-87031750I0J268750D01*
G01*
X123797800Y-86069250D01*
G75*
G02*
X124066550Y-85800500I268750J0D01*
G01*
X124604050Y-85800500D01*
G75*
G02*
X124872800Y-86069250I0J-268750D01*
G01*
G37*
G36*
G01*
X126747800Y-86069250D02*
X126747800Y-87031750D01*
G75*
G02*
X126479050Y-87300500I-268750J0D01*
G01*
X125941550Y-87300500D01*
G75*
G02*
X125672800Y-87031750I0J268750D01*
G01*
X125672800Y-86069250D01*
G75*
G02*
X125941550Y-85800500I268750J0D01*
G01*
X126479050Y-85800500D01*
G75*
G02*
X126747800Y-86069250I0J-268750D01*
G01*
G37*
G36*
G01*
X124872800Y-88837850D02*
X124872800Y-89800350D01*
G75*
G02*
X124604050Y-90069100I-268750J0D01*
G01*
X124066550Y-90069100D01*
G75*
G02*
X123797800Y-89800350I0J268750D01*
G01*
X123797800Y-88837850D01*
G75*
G02*
X124066550Y-88569100I268750J0D01*
G01*
X124604050Y-88569100D01*
G75*
G02*
X124872800Y-88837850I0J-268750D01*
G01*
G37*
G36*
G01*
X126747800Y-88837850D02*
X126747800Y-89800350D01*
G75*
G02*
X126479050Y-90069100I-268750J0D01*
G01*
X125941550Y-90069100D01*
G75*
G02*
X125672800Y-89800350I0J268750D01*
G01*
X125672800Y-88837850D01*
G75*
G02*
X125941550Y-88569100I268750J0D01*
G01*
X126479050Y-88569100D01*
G75*
G02*
X126747800Y-88837850I0J-268750D01*
G01*
G37*
D10*
X128021400Y-79756000D03*
G36*
G01*
X126321400Y-80231000D02*
X126321400Y-79281000D01*
G75*
G02*
X126546400Y-79056000I225000J0D01*
G01*
X126996400Y-79056000D01*
G75*
G02*
X127221400Y-79281000I0J-225000D01*
G01*
X127221400Y-80231000D01*
G75*
G02*
X126996400Y-80456000I-225000J0D01*
G01*
X126546400Y-80456000D01*
G75*
G02*
X126321400Y-80231000I0J225000D01*
G01*
G37*
D11*
X133323600Y-86588600D03*
X130023600Y-86588600D03*
X129998200Y-89344500D03*
X133298200Y-89344500D03*
D12*
X118872000Y-78994000D03*
X118872000Y-80264000D03*
X117602000Y-78994000D03*
X117602000Y-80264000D03*
X116332000Y-78994000D03*
D13*
X116332000Y-80264000D03*
D14*
X118935500Y-92786200D03*
X134962900Y-92011500D03*
X119634000Y-83693000D03*
D10*
X133858000Y-78867000D03*
G36*
G01*
X135558000Y-78392000D02*
X135558000Y-79342000D01*
G75*
G02*
X135333000Y-79567000I-225000J0D01*
G01*
X134883000Y-79567000D01*
G75*
G02*
X134658000Y-79342000I0J225000D01*
G01*
X134658000Y-78392000D01*
G75*
G02*
X134883000Y-78167000I225000J0D01*
G01*
X135333000Y-78167000D01*
G75*
G02*
X135558000Y-78392000I0J-225000D01*
G01*
G37*
D15*
X103039000Y-85203000D03*
X103039000Y-89803000D03*
D16*
X103039000Y-81803000D03*
X103039000Y-93203000D03*
M02*
