%FSLAX45Y45*%
G04 Gerber Fmt 4.5, Leading zero omitted, Abs format (unit mm)*
G04 Created by KiCad (PCBNEW 5.1.6+dfsg1-1~bpo9+1) date 2022-04-04 20:26:02*
%MOMM*%
%LPD*%
G01*
G04 APERTURE LIST*
%TA.AperFunction,Profile*%
%ADD10C,0.050000*%
%TD*%
%ADD11C,0.200000*%
%ADD12C,0.300000*%
G04 APERTURE END LIST*
D10*
X10000000Y-8000000D02*
X10300000Y-7700000D01*
X13800000Y-9500000D02*
X13800000Y-7700000D01*
X10000000Y-9500000D02*
X13800000Y-9500000D01*
X10000000Y-8000000D02*
X10000000Y-9500000D01*
X10300000Y-7700000D02*
X13800000Y-7700000D01*
D11*
X10248900Y-8465300D02*
X10358900Y-8575300D01*
X10358900Y-8465300D02*
X10248900Y-8575300D01*
X10248900Y-8925300D02*
X10358900Y-9035300D01*
X10358900Y-8925300D02*
X10248900Y-9035300D01*
D12*
X10283928Y-9968214D02*
X10283928Y-9668214D01*
X10355357Y-9668214D01*
X10398214Y-9682500D01*
X10426786Y-9711072D01*
X10441071Y-9739643D01*
X10455357Y-9796786D01*
X10455357Y-9839643D01*
X10441071Y-9896786D01*
X10426786Y-9925357D01*
X10398214Y-9953929D01*
X10355357Y-9968214D01*
X10283928Y-9968214D01*
X10583928Y-9968214D02*
X10583928Y-9768214D01*
X10583928Y-9825357D02*
X10598214Y-9796786D01*
X10612500Y-9782500D01*
X10641071Y-9768214D01*
X10669643Y-9768214D01*
X10769643Y-9968214D02*
X10769643Y-9768214D01*
X10769643Y-9668214D02*
X10755357Y-9682500D01*
X10769643Y-9696786D01*
X10783928Y-9682500D01*
X10769643Y-9668214D01*
X10769643Y-9696786D01*
X10955357Y-9968214D02*
X10926786Y-9953929D01*
X10912500Y-9925357D01*
X10912500Y-9668214D01*
X11112500Y-9968214D02*
X11083928Y-9953929D01*
X11069643Y-9925357D01*
X11069643Y-9668214D01*
X11455357Y-9968214D02*
X11455357Y-9668214D01*
X11555357Y-9882500D01*
X11655357Y-9668214D01*
X11655357Y-9968214D01*
X11926786Y-9968214D02*
X11926786Y-9811072D01*
X11912500Y-9782500D01*
X11883928Y-9768214D01*
X11826786Y-9768214D01*
X11798214Y-9782500D01*
X11926786Y-9953929D02*
X11898214Y-9968214D01*
X11826786Y-9968214D01*
X11798214Y-9953929D01*
X11783928Y-9925357D01*
X11783928Y-9896786D01*
X11798214Y-9868214D01*
X11826786Y-9853929D01*
X11898214Y-9853929D01*
X11926786Y-9839643D01*
X12069643Y-9768214D02*
X12069643Y-10068214D01*
X12069643Y-9782500D02*
X12098214Y-9768214D01*
X12155357Y-9768214D01*
X12183928Y-9782500D01*
X12198214Y-9796786D01*
X12212500Y-9825357D01*
X12212500Y-9911072D01*
X12198214Y-9939643D01*
X12183928Y-9953929D01*
X12155357Y-9968214D01*
X12098214Y-9968214D01*
X12069643Y-9953929D01*
X12341071Y-9939643D02*
X12355357Y-9953929D01*
X12341071Y-9968214D01*
X12326786Y-9953929D01*
X12341071Y-9939643D01*
X12341071Y-9968214D01*
X12341071Y-9782500D02*
X12355357Y-9796786D01*
X12341071Y-9811072D01*
X12326786Y-9796786D01*
X12341071Y-9782500D01*
X12341071Y-9811072D01*
X9887500Y-10407500D02*
X9997500Y-10517500D01*
X9997500Y-10407500D02*
X9887500Y-10517500D01*
X10441071Y-10598214D02*
X10269643Y-10598214D01*
X10355357Y-10598214D02*
X10355357Y-10298214D01*
X10326786Y-10341072D01*
X10298214Y-10369643D01*
X10269643Y-10383929D01*
X10569643Y-10569643D02*
X10583928Y-10583929D01*
X10569643Y-10598214D01*
X10555357Y-10583929D01*
X10569643Y-10569643D01*
X10569643Y-10598214D01*
X10869643Y-10598214D02*
X10698214Y-10598214D01*
X10783928Y-10598214D02*
X10783928Y-10298214D01*
X10755357Y-10341072D01*
X10726786Y-10369643D01*
X10698214Y-10383929D01*
X11055357Y-10298214D02*
X11083928Y-10298214D01*
X11112500Y-10312500D01*
X11126786Y-10326786D01*
X11141071Y-10355357D01*
X11155357Y-10412500D01*
X11155357Y-10483929D01*
X11141071Y-10541072D01*
X11126786Y-10569643D01*
X11112500Y-10583929D01*
X11083928Y-10598214D01*
X11055357Y-10598214D01*
X11026786Y-10583929D01*
X11012500Y-10569643D01*
X10998214Y-10541072D01*
X10983928Y-10483929D01*
X10983928Y-10412500D01*
X10998214Y-10355357D01*
X11012500Y-10326786D01*
X11026786Y-10312500D01*
X11055357Y-10298214D01*
X11283928Y-10598214D02*
X11283928Y-10398214D01*
X11283928Y-10426786D02*
X11298214Y-10412500D01*
X11326786Y-10398214D01*
X11369643Y-10398214D01*
X11398214Y-10412500D01*
X11412500Y-10441072D01*
X11412500Y-10598214D01*
X11412500Y-10441072D02*
X11426786Y-10412500D01*
X11455357Y-10398214D01*
X11498214Y-10398214D01*
X11526786Y-10412500D01*
X11541071Y-10441072D01*
X11541071Y-10598214D01*
X11683928Y-10598214D02*
X11683928Y-10398214D01*
X11683928Y-10426786D02*
X11698214Y-10412500D01*
X11726786Y-10398214D01*
X11769643Y-10398214D01*
X11798214Y-10412500D01*
X11812500Y-10441072D01*
X11812500Y-10598214D01*
X11812500Y-10441072D02*
X11826786Y-10412500D01*
X11855357Y-10398214D01*
X11898214Y-10398214D01*
X11926786Y-10412500D01*
X11941071Y-10441072D01*
X11941071Y-10598214D01*
X12526786Y-10283929D02*
X12269643Y-10669643D01*
X12912500Y-10298214D02*
X12941071Y-10298214D01*
X12969643Y-10312500D01*
X12983928Y-10326786D01*
X12998214Y-10355357D01*
X13012500Y-10412500D01*
X13012500Y-10483929D01*
X12998214Y-10541072D01*
X12983928Y-10569643D01*
X12969643Y-10583929D01*
X12941071Y-10598214D01*
X12912500Y-10598214D01*
X12883928Y-10583929D01*
X12869643Y-10569643D01*
X12855357Y-10541072D01*
X12841071Y-10483929D01*
X12841071Y-10412500D01*
X12855357Y-10355357D01*
X12869643Y-10326786D01*
X12883928Y-10312500D01*
X12912500Y-10298214D01*
X13141071Y-10569643D02*
X13155357Y-10583929D01*
X13141071Y-10598214D01*
X13126786Y-10583929D01*
X13141071Y-10569643D01*
X13141071Y-10598214D01*
X13341071Y-10298214D02*
X13369643Y-10298214D01*
X13398214Y-10312500D01*
X13412500Y-10326786D01*
X13426786Y-10355357D01*
X13441071Y-10412500D01*
X13441071Y-10483929D01*
X13426786Y-10541072D01*
X13412500Y-10569643D01*
X13398214Y-10583929D01*
X13369643Y-10598214D01*
X13341071Y-10598214D01*
X13312500Y-10583929D01*
X13298214Y-10569643D01*
X13283928Y-10541072D01*
X13269643Y-10483929D01*
X13269643Y-10412500D01*
X13283928Y-10355357D01*
X13298214Y-10326786D01*
X13312500Y-10312500D01*
X13341071Y-10298214D01*
X13698214Y-10398214D02*
X13698214Y-10598214D01*
X13626786Y-10283929D02*
X13555357Y-10498214D01*
X13741071Y-10498214D01*
X13826786Y-10298214D02*
X14012500Y-10298214D01*
X13912500Y-10412500D01*
X13955357Y-10412500D01*
X13983928Y-10426786D01*
X13998214Y-10441072D01*
X14012500Y-10469643D01*
X14012500Y-10541072D01*
X13998214Y-10569643D01*
X13983928Y-10583929D01*
X13955357Y-10598214D01*
X13869643Y-10598214D01*
X13841071Y-10583929D01*
X13826786Y-10569643D01*
X14126786Y-10298214D02*
X14126786Y-10355357D01*
X14241071Y-10298214D02*
X14241071Y-10355357D01*
X14683928Y-10712500D02*
X14669643Y-10698214D01*
X14641071Y-10655357D01*
X14626786Y-10626786D01*
X14612500Y-10583929D01*
X14598214Y-10512500D01*
X14598214Y-10455357D01*
X14612500Y-10383929D01*
X14626786Y-10341072D01*
X14641071Y-10312500D01*
X14669643Y-10269643D01*
X14683928Y-10255357D01*
X14783928Y-10326786D02*
X14798214Y-10312500D01*
X14826786Y-10298214D01*
X14898214Y-10298214D01*
X14926786Y-10312500D01*
X14941071Y-10326786D01*
X14955357Y-10355357D01*
X14955357Y-10383929D01*
X14941071Y-10426786D01*
X14769643Y-10598214D01*
X14955357Y-10598214D01*
X15312500Y-10598214D02*
X15312500Y-10298214D01*
X15441071Y-10598214D02*
X15441071Y-10441072D01*
X15426786Y-10412500D01*
X15398214Y-10398214D01*
X15355357Y-10398214D01*
X15326786Y-10412500D01*
X15312500Y-10426786D01*
X15626786Y-10598214D02*
X15598214Y-10583929D01*
X15583928Y-10569643D01*
X15569643Y-10541072D01*
X15569643Y-10455357D01*
X15583928Y-10426786D01*
X15598214Y-10412500D01*
X15626786Y-10398214D01*
X15669643Y-10398214D01*
X15698214Y-10412500D01*
X15712500Y-10426786D01*
X15726786Y-10455357D01*
X15726786Y-10541072D01*
X15712500Y-10569643D01*
X15698214Y-10583929D01*
X15669643Y-10598214D01*
X15626786Y-10598214D01*
X15898214Y-10598214D02*
X15869643Y-10583929D01*
X15855357Y-10555357D01*
X15855357Y-10298214D01*
X16126786Y-10583929D02*
X16098214Y-10598214D01*
X16041071Y-10598214D01*
X16012500Y-10583929D01*
X15998214Y-10555357D01*
X15998214Y-10441072D01*
X16012500Y-10412500D01*
X16041071Y-10398214D01*
X16098214Y-10398214D01*
X16126786Y-10412500D01*
X16141071Y-10441072D01*
X16141071Y-10469643D01*
X15998214Y-10498214D01*
X16255357Y-10583929D02*
X16283928Y-10598214D01*
X16341071Y-10598214D01*
X16369643Y-10583929D01*
X16383928Y-10555357D01*
X16383928Y-10541072D01*
X16369643Y-10512500D01*
X16341071Y-10498214D01*
X16298214Y-10498214D01*
X16269643Y-10483929D01*
X16255357Y-10455357D01*
X16255357Y-10441072D01*
X16269643Y-10412500D01*
X16298214Y-10398214D01*
X16341071Y-10398214D01*
X16369643Y-10412500D01*
X16483928Y-10712500D02*
X16498214Y-10698214D01*
X16526786Y-10655357D01*
X16541071Y-10626786D01*
X16555357Y-10583929D01*
X16569643Y-10512500D01*
X16569643Y-10455357D01*
X16555357Y-10383929D01*
X16541071Y-10341072D01*
X16526786Y-10312500D01*
X16498214Y-10269643D01*
X16483928Y-10255357D01*
X17026786Y-10712500D02*
X17012500Y-10698214D01*
X16983928Y-10655357D01*
X16969643Y-10626786D01*
X16955357Y-10583929D01*
X16941071Y-10512500D01*
X16941071Y-10455357D01*
X16955357Y-10383929D01*
X16969643Y-10341072D01*
X16983928Y-10312500D01*
X17012500Y-10269643D01*
X17026786Y-10255357D01*
X17141071Y-10398214D02*
X17141071Y-10598214D01*
X17141071Y-10426786D02*
X17155357Y-10412500D01*
X17183928Y-10398214D01*
X17226786Y-10398214D01*
X17255357Y-10412500D01*
X17269643Y-10441072D01*
X17269643Y-10598214D01*
X17455357Y-10598214D02*
X17426786Y-10583929D01*
X17412500Y-10569643D01*
X17398214Y-10541072D01*
X17398214Y-10455357D01*
X17412500Y-10426786D01*
X17426786Y-10412500D01*
X17455357Y-10398214D01*
X17498214Y-10398214D01*
X17526786Y-10412500D01*
X17541071Y-10426786D01*
X17555357Y-10455357D01*
X17555357Y-10541072D01*
X17541071Y-10569643D01*
X17526786Y-10583929D01*
X17498214Y-10598214D01*
X17455357Y-10598214D01*
X17641071Y-10398214D02*
X17755357Y-10398214D01*
X17683928Y-10298214D02*
X17683928Y-10555357D01*
X17698214Y-10583929D01*
X17726786Y-10598214D01*
X17755357Y-10598214D01*
X18083928Y-10398214D02*
X18083928Y-10698214D01*
X18083928Y-10412500D02*
X18112500Y-10398214D01*
X18169643Y-10398214D01*
X18198214Y-10412500D01*
X18212500Y-10426786D01*
X18226786Y-10455357D01*
X18226786Y-10541072D01*
X18212500Y-10569643D01*
X18198214Y-10583929D01*
X18169643Y-10598214D01*
X18112500Y-10598214D01*
X18083928Y-10583929D01*
X18398214Y-10598214D02*
X18369643Y-10583929D01*
X18355357Y-10555357D01*
X18355357Y-10298214D01*
X18641071Y-10598214D02*
X18641071Y-10441072D01*
X18626786Y-10412500D01*
X18598214Y-10398214D01*
X18541071Y-10398214D01*
X18512500Y-10412500D01*
X18641071Y-10583929D02*
X18612500Y-10598214D01*
X18541071Y-10598214D01*
X18512500Y-10583929D01*
X18498214Y-10555357D01*
X18498214Y-10526786D01*
X18512500Y-10498214D01*
X18541071Y-10483929D01*
X18612500Y-10483929D01*
X18641071Y-10469643D01*
X18741071Y-10398214D02*
X18855357Y-10398214D01*
X18783928Y-10298214D02*
X18783928Y-10555357D01*
X18798214Y-10583929D01*
X18826786Y-10598214D01*
X18855357Y-10598214D01*
X19069643Y-10583929D02*
X19041071Y-10598214D01*
X18983928Y-10598214D01*
X18955357Y-10583929D01*
X18941071Y-10555357D01*
X18941071Y-10441072D01*
X18955357Y-10412500D01*
X18983928Y-10398214D01*
X19041071Y-10398214D01*
X19069643Y-10412500D01*
X19083928Y-10441072D01*
X19083928Y-10469643D01*
X18941071Y-10498214D01*
X19341071Y-10598214D02*
X19341071Y-10298214D01*
X19341071Y-10583929D02*
X19312500Y-10598214D01*
X19255357Y-10598214D01*
X19226786Y-10583929D01*
X19212500Y-10569643D01*
X19198214Y-10541072D01*
X19198214Y-10455357D01*
X19212500Y-10426786D01*
X19226786Y-10412500D01*
X19255357Y-10398214D01*
X19312500Y-10398214D01*
X19341071Y-10412500D01*
X19455357Y-10712500D02*
X19469643Y-10698214D01*
X19498214Y-10655357D01*
X19512500Y-10626786D01*
X19526786Y-10583929D01*
X19541071Y-10512500D01*
X19541071Y-10455357D01*
X19526786Y-10383929D01*
X19512500Y-10341072D01*
X19498214Y-10312500D01*
X19469643Y-10269643D01*
X19455357Y-10255357D01*
M02*
