G04 #@! TF.GenerationSoftware,KiCad,Pcbnew,5.1.6+dfsg1-1~bpo9+1*
G04 #@! TF.CreationDate,2022-04-04T20:25:57+02:00*
G04 #@! TF.ProjectId,sdrtrx-pttrelais,73647274-7278-42d7-9074-7472656c6169,rev?*
G04 #@! TF.SameCoordinates,Original*
G04 #@! TF.FileFunction,Copper,L1,Top*
G04 #@! TF.FilePolarity,Positive*
%FSLAX46Y46*%
G04 Gerber Fmt 4.6, Leading zero omitted, Abs format (unit mm)*
G04 Created by KiCad (PCBNEW 5.1.6+dfsg1-1~bpo9+1) date 2022-04-04 20:25:57*
%MOMM*%
%LPD*%
G01*
G04 APERTURE LIST*
G04 #@! TA.AperFunction,ComponentPad*
%ADD10O,0.800000X1.300000*%
G04 #@! TD*
G04 #@! TA.AperFunction,SMDPad,CuDef*
%ADD11R,1.780000X1.520000*%
G04 #@! TD*
G04 #@! TA.AperFunction,ComponentPad*
%ADD12O,1.000000X1.000000*%
G04 #@! TD*
G04 #@! TA.AperFunction,ComponentPad*
%ADD13R,1.000000X1.000000*%
G04 #@! TD*
G04 #@! TA.AperFunction,ComponentPad*
%ADD14O,3.500000X1.900000*%
G04 #@! TD*
G04 #@! TA.AperFunction,SMDPad,CuDef*
%ADD15R,2.500000X1.100000*%
G04 #@! TD*
G04 #@! TA.AperFunction,SMDPad,CuDef*
%ADD16R,1.200000X0.900000*%
G04 #@! TD*
G04 #@! TA.AperFunction,ViaPad*
%ADD17C,0.800000*%
G04 #@! TD*
G04 #@! TA.AperFunction,Conductor*
%ADD18C,0.508000*%
G04 #@! TD*
G04 #@! TA.AperFunction,Conductor*
%ADD19C,0.254000*%
G04 #@! TD*
G04 APERTURE END LIST*
D10*
X128021400Y-79756000D03*
G04 #@! TA.AperFunction,ComponentPad*
G36*
G01*
X126371400Y-80206000D02*
X126371400Y-79306000D01*
G75*
G02*
X126571400Y-79106000I200000J0D01*
G01*
X126971400Y-79106000D01*
G75*
G02*
X127171400Y-79306000I0J-200000D01*
G01*
X127171400Y-80206000D01*
G75*
G02*
X126971400Y-80406000I-200000J0D01*
G01*
X126571400Y-80406000D01*
G75*
G02*
X126371400Y-80206000I0J200000D01*
G01*
G37*
G04 #@! TD.AperFunction*
G04 #@! TA.AperFunction,SMDPad,CuDef*
G36*
G01*
X117850000Y-89258000D02*
X117850000Y-89558000D01*
G75*
G02*
X117700000Y-89708000I-150000J0D01*
G01*
X116400000Y-89708000D01*
G75*
G02*
X116250000Y-89558000I0J150000D01*
G01*
X116250000Y-89258000D01*
G75*
G02*
X116400000Y-89108000I150000J0D01*
G01*
X117700000Y-89108000D01*
G75*
G02*
X117850000Y-89258000I0J-150000D01*
G01*
G37*
G04 #@! TD.AperFunction*
G04 #@! TA.AperFunction,SMDPad,CuDef*
G36*
G01*
X117850000Y-87988000D02*
X117850000Y-88288000D01*
G75*
G02*
X117700000Y-88438000I-150000J0D01*
G01*
X116400000Y-88438000D01*
G75*
G02*
X116250000Y-88288000I0J150000D01*
G01*
X116250000Y-87988000D01*
G75*
G02*
X116400000Y-87838000I150000J0D01*
G01*
X117700000Y-87838000D01*
G75*
G02*
X117850000Y-87988000I0J-150000D01*
G01*
G37*
G04 #@! TD.AperFunction*
G04 #@! TA.AperFunction,SMDPad,CuDef*
G36*
G01*
X117850000Y-86718000D02*
X117850000Y-87018000D01*
G75*
G02*
X117700000Y-87168000I-150000J0D01*
G01*
X116400000Y-87168000D01*
G75*
G02*
X116250000Y-87018000I0J150000D01*
G01*
X116250000Y-86718000D01*
G75*
G02*
X116400000Y-86568000I150000J0D01*
G01*
X117700000Y-86568000D01*
G75*
G02*
X117850000Y-86718000I0J-150000D01*
G01*
G37*
G04 #@! TD.AperFunction*
G04 #@! TA.AperFunction,SMDPad,CuDef*
G36*
G01*
X117850000Y-85448000D02*
X117850000Y-85748000D01*
G75*
G02*
X117700000Y-85898000I-150000J0D01*
G01*
X116400000Y-85898000D01*
G75*
G02*
X116250000Y-85748000I0J150000D01*
G01*
X116250000Y-85448000D01*
G75*
G02*
X116400000Y-85298000I150000J0D01*
G01*
X117700000Y-85298000D01*
G75*
G02*
X117850000Y-85448000I0J-150000D01*
G01*
G37*
G04 #@! TD.AperFunction*
G04 #@! TA.AperFunction,SMDPad,CuDef*
G36*
G01*
X125050000Y-85448000D02*
X125050000Y-85748000D01*
G75*
G02*
X124900000Y-85898000I-150000J0D01*
G01*
X123600000Y-85898000D01*
G75*
G02*
X123450000Y-85748000I0J150000D01*
G01*
X123450000Y-85448000D01*
G75*
G02*
X123600000Y-85298000I150000J0D01*
G01*
X124900000Y-85298000D01*
G75*
G02*
X125050000Y-85448000I0J-150000D01*
G01*
G37*
G04 #@! TD.AperFunction*
G04 #@! TA.AperFunction,SMDPad,CuDef*
G36*
G01*
X125050000Y-86718000D02*
X125050000Y-87018000D01*
G75*
G02*
X124900000Y-87168000I-150000J0D01*
G01*
X123600000Y-87168000D01*
G75*
G02*
X123450000Y-87018000I0J150000D01*
G01*
X123450000Y-86718000D01*
G75*
G02*
X123600000Y-86568000I150000J0D01*
G01*
X124900000Y-86568000D01*
G75*
G02*
X125050000Y-86718000I0J-150000D01*
G01*
G37*
G04 #@! TD.AperFunction*
G04 #@! TA.AperFunction,SMDPad,CuDef*
G36*
G01*
X125050000Y-87988000D02*
X125050000Y-88288000D01*
G75*
G02*
X124900000Y-88438000I-150000J0D01*
G01*
X123600000Y-88438000D01*
G75*
G02*
X123450000Y-88288000I0J150000D01*
G01*
X123450000Y-87988000D01*
G75*
G02*
X123600000Y-87838000I150000J0D01*
G01*
X124900000Y-87838000D01*
G75*
G02*
X125050000Y-87988000I0J-150000D01*
G01*
G37*
G04 #@! TD.AperFunction*
G04 #@! TA.AperFunction,SMDPad,CuDef*
G36*
G01*
X125050000Y-89258000D02*
X125050000Y-89558000D01*
G75*
G02*
X124900000Y-89708000I-150000J0D01*
G01*
X123600000Y-89708000D01*
G75*
G02*
X123450000Y-89558000I0J150000D01*
G01*
X123450000Y-89258000D01*
G75*
G02*
X123600000Y-89108000I150000J0D01*
G01*
X124900000Y-89108000D01*
G75*
G02*
X125050000Y-89258000I0J-150000D01*
G01*
G37*
G04 #@! TD.AperFunction*
D11*
X130937000Y-83246000D03*
X133477000Y-83246000D03*
X136017000Y-83246000D03*
X136017000Y-92776000D03*
X133477000Y-92776000D03*
X130937000Y-92776000D03*
D12*
X118872000Y-78994000D03*
X118872000Y-80264000D03*
X117602000Y-78994000D03*
X117602000Y-80264000D03*
X116332000Y-78994000D03*
D13*
X116332000Y-80264000D03*
D10*
X133858000Y-78867000D03*
G04 #@! TA.AperFunction,ComponentPad*
G36*
G01*
X135508000Y-78417000D02*
X135508000Y-79317000D01*
G75*
G02*
X135308000Y-79517000I-200000J0D01*
G01*
X134908000Y-79517000D01*
G75*
G02*
X134708000Y-79317000I0J200000D01*
G01*
X134708000Y-78417000D01*
G75*
G02*
X134908000Y-78217000I200000J0D01*
G01*
X135308000Y-78217000D01*
G75*
G02*
X135508000Y-78417000I0J-200000D01*
G01*
G37*
G04 #@! TD.AperFunction*
G04 #@! TA.AperFunction,SMDPad,CuDef*
G36*
G01*
X121470000Y-79045750D02*
X121470000Y-79958250D01*
G75*
G02*
X121226250Y-80202000I-243750J0D01*
G01*
X120738750Y-80202000D01*
G75*
G02*
X120495000Y-79958250I0J243750D01*
G01*
X120495000Y-79045750D01*
G75*
G02*
X120738750Y-78802000I243750J0D01*
G01*
X121226250Y-78802000D01*
G75*
G02*
X121470000Y-79045750I0J-243750D01*
G01*
G37*
G04 #@! TD.AperFunction*
G04 #@! TA.AperFunction,SMDPad,CuDef*
G36*
G01*
X123345000Y-79045750D02*
X123345000Y-79958250D01*
G75*
G02*
X123101250Y-80202000I-243750J0D01*
G01*
X122613750Y-80202000D01*
G75*
G02*
X122370000Y-79958250I0J243750D01*
G01*
X122370000Y-79045750D01*
G75*
G02*
X122613750Y-78802000I243750J0D01*
G01*
X123101250Y-78802000D01*
G75*
G02*
X123345000Y-79045750I0J-243750D01*
G01*
G37*
G04 #@! TD.AperFunction*
G04 #@! TA.AperFunction,SMDPad,CuDef*
G36*
G01*
X128345250Y-91625000D02*
X127432750Y-91625000D01*
G75*
G02*
X127189000Y-91381250I0J243750D01*
G01*
X127189000Y-90893750D01*
G75*
G02*
X127432750Y-90650000I243750J0D01*
G01*
X128345250Y-90650000D01*
G75*
G02*
X128589000Y-90893750I0J-243750D01*
G01*
X128589000Y-91381250D01*
G75*
G02*
X128345250Y-91625000I-243750J0D01*
G01*
G37*
G04 #@! TD.AperFunction*
G04 #@! TA.AperFunction,SMDPad,CuDef*
G36*
G01*
X128345250Y-93500000D02*
X127432750Y-93500000D01*
G75*
G02*
X127189000Y-93256250I0J243750D01*
G01*
X127189000Y-92768750D01*
G75*
G02*
X127432750Y-92525000I243750J0D01*
G01*
X128345250Y-92525000D01*
G75*
G02*
X128589000Y-92768750I0J-243750D01*
G01*
X128589000Y-93256250D01*
G75*
G02*
X128345250Y-93500000I-243750J0D01*
G01*
G37*
G04 #@! TD.AperFunction*
G04 #@! TA.AperFunction,SMDPad,CuDef*
G36*
G01*
X123451200Y-91110750D02*
X123451200Y-92023250D01*
G75*
G02*
X123207450Y-92267000I-243750J0D01*
G01*
X122719950Y-92267000D01*
G75*
G02*
X122476200Y-92023250I0J243750D01*
G01*
X122476200Y-91110750D01*
G75*
G02*
X122719950Y-90867000I243750J0D01*
G01*
X123207450Y-90867000D01*
G75*
G02*
X123451200Y-91110750I0J-243750D01*
G01*
G37*
G04 #@! TD.AperFunction*
G04 #@! TA.AperFunction,SMDPad,CuDef*
G36*
G01*
X125326200Y-91110750D02*
X125326200Y-92023250D01*
G75*
G02*
X125082450Y-92267000I-243750J0D01*
G01*
X124594950Y-92267000D01*
G75*
G02*
X124351200Y-92023250I0J243750D01*
G01*
X124351200Y-91110750D01*
G75*
G02*
X124594950Y-90867000I243750J0D01*
G01*
X125082450Y-90867000D01*
G75*
G02*
X125326200Y-91110750I0J-243750D01*
G01*
G37*
G04 #@! TD.AperFunction*
G04 #@! TA.AperFunction,SMDPad,CuDef*
G36*
G01*
X112453000Y-88189750D02*
X112453000Y-89102250D01*
G75*
G02*
X112209250Y-89346000I-243750J0D01*
G01*
X111721750Y-89346000D01*
G75*
G02*
X111478000Y-89102250I0J243750D01*
G01*
X111478000Y-88189750D01*
G75*
G02*
X111721750Y-87946000I243750J0D01*
G01*
X112209250Y-87946000D01*
G75*
G02*
X112453000Y-88189750I0J-243750D01*
G01*
G37*
G04 #@! TD.AperFunction*
G04 #@! TA.AperFunction,SMDPad,CuDef*
G36*
G01*
X114328000Y-88189750D02*
X114328000Y-89102250D01*
G75*
G02*
X114084250Y-89346000I-243750J0D01*
G01*
X113596750Y-89346000D01*
G75*
G02*
X113353000Y-89102250I0J243750D01*
G01*
X113353000Y-88189750D01*
G75*
G02*
X113596750Y-87946000I243750J0D01*
G01*
X114084250Y-87946000D01*
G75*
G02*
X114328000Y-88189750I0J-243750D01*
G01*
G37*
G04 #@! TD.AperFunction*
G04 #@! TA.AperFunction,SMDPad,CuDef*
G36*
G01*
X112453000Y-86030750D02*
X112453000Y-86943250D01*
G75*
G02*
X112209250Y-87187000I-243750J0D01*
G01*
X111721750Y-87187000D01*
G75*
G02*
X111478000Y-86943250I0J243750D01*
G01*
X111478000Y-86030750D01*
G75*
G02*
X111721750Y-85787000I243750J0D01*
G01*
X112209250Y-85787000D01*
G75*
G02*
X112453000Y-86030750I0J-243750D01*
G01*
G37*
G04 #@! TD.AperFunction*
G04 #@! TA.AperFunction,SMDPad,CuDef*
G36*
G01*
X114328000Y-86030750D02*
X114328000Y-86943250D01*
G75*
G02*
X114084250Y-87187000I-243750J0D01*
G01*
X113596750Y-87187000D01*
G75*
G02*
X113353000Y-86943250I0J243750D01*
G01*
X113353000Y-86030750D01*
G75*
G02*
X113596750Y-85787000I243750J0D01*
G01*
X114084250Y-85787000D01*
G75*
G02*
X114328000Y-86030750I0J-243750D01*
G01*
G37*
G04 #@! TD.AperFunction*
G04 #@! TA.AperFunction,SMDPad,CuDef*
G36*
G01*
X112453000Y-91618750D02*
X112453000Y-92531250D01*
G75*
G02*
X112209250Y-92775000I-243750J0D01*
G01*
X111721750Y-92775000D01*
G75*
G02*
X111478000Y-92531250I0J243750D01*
G01*
X111478000Y-91618750D01*
G75*
G02*
X111721750Y-91375000I243750J0D01*
G01*
X112209250Y-91375000D01*
G75*
G02*
X112453000Y-91618750I0J-243750D01*
G01*
G37*
G04 #@! TD.AperFunction*
G04 #@! TA.AperFunction,SMDPad,CuDef*
G36*
G01*
X114328000Y-91618750D02*
X114328000Y-92531250D01*
G75*
G02*
X114084250Y-92775000I-243750J0D01*
G01*
X113596750Y-92775000D01*
G75*
G02*
X113353000Y-92531250I0J243750D01*
G01*
X113353000Y-91618750D01*
G75*
G02*
X113596750Y-91375000I243750J0D01*
G01*
X114084250Y-91375000D01*
G75*
G02*
X114328000Y-91618750I0J-243750D01*
G01*
G37*
G04 #@! TD.AperFunction*
D14*
X103039000Y-81803000D03*
X103039000Y-93203000D03*
D15*
X105789000Y-84003000D03*
X105789000Y-91003000D03*
X105789000Y-86503000D03*
X105789000Y-88503000D03*
D16*
X109347000Y-91947000D03*
X109347000Y-88647000D03*
X109347000Y-83186000D03*
X109347000Y-86486000D03*
G04 #@! TA.AperFunction,SMDPad,CuDef*
G36*
G01*
X109123000Y-79206000D02*
X109123000Y-80306000D01*
G75*
G02*
X108873000Y-80556000I-250000J0D01*
G01*
X106773000Y-80556000D01*
G75*
G02*
X106523000Y-80306000I0J250000D01*
G01*
X106523000Y-79206000D01*
G75*
G02*
X106773000Y-78956000I250000J0D01*
G01*
X108873000Y-78956000D01*
G75*
G02*
X109123000Y-79206000I0J-250000D01*
G01*
G37*
G04 #@! TD.AperFunction*
G04 #@! TA.AperFunction,SMDPad,CuDef*
G36*
G01*
X112723000Y-79206000D02*
X112723000Y-80306000D01*
G75*
G02*
X112473000Y-80556000I-250000J0D01*
G01*
X110373000Y-80556000D01*
G75*
G02*
X110123000Y-80306000I0J250000D01*
G01*
X110123000Y-79206000D01*
G75*
G02*
X110373000Y-78956000I250000J0D01*
G01*
X112473000Y-78956000D01*
G75*
G02*
X112723000Y-79206000I0J-250000D01*
G01*
G37*
G04 #@! TD.AperFunction*
G04 #@! TA.AperFunction,SMDPad,CuDef*
G36*
G01*
X120719000Y-92023250D02*
X120719000Y-91110750D01*
G75*
G02*
X120962750Y-90867000I243750J0D01*
G01*
X121450250Y-90867000D01*
G75*
G02*
X121694000Y-91110750I0J-243750D01*
G01*
X121694000Y-92023250D01*
G75*
G02*
X121450250Y-92267000I-243750J0D01*
G01*
X120962750Y-92267000D01*
G75*
G02*
X120719000Y-92023250I0J243750D01*
G01*
G37*
G04 #@! TD.AperFunction*
G04 #@! TA.AperFunction,SMDPad,CuDef*
G36*
G01*
X118844000Y-92023250D02*
X118844000Y-91110750D01*
G75*
G02*
X119087750Y-90867000I243750J0D01*
G01*
X119575250Y-90867000D01*
G75*
G02*
X119819000Y-91110750I0J-243750D01*
G01*
X119819000Y-92023250D01*
G75*
G02*
X119575250Y-92267000I-243750J0D01*
G01*
X119087750Y-92267000D01*
G75*
G02*
X118844000Y-92023250I0J243750D01*
G01*
G37*
G04 #@! TD.AperFunction*
D17*
X108585000Y-90170000D03*
X110236000Y-90170000D03*
X105156000Y-79883000D03*
X105156000Y-78867000D03*
X126288800Y-91135200D03*
X126263400Y-92278200D03*
X136029700Y-89560400D03*
X136029700Y-88341200D03*
X129273300Y-91122500D03*
X114173000Y-79756000D03*
X115443000Y-91313000D03*
X124955300Y-93637100D03*
X128016000Y-84836000D03*
X116967000Y-84455000D03*
X122682000Y-81580038D03*
X115062000Y-86487000D03*
X118872000Y-86487000D03*
X115182933Y-82543933D03*
X122682000Y-89408000D03*
D18*
X116713000Y-93091000D02*
X116713000Y-91313000D01*
X105789000Y-91003000D02*
X105789000Y-92835000D01*
X106934000Y-93980000D02*
X115824000Y-93980000D01*
X115824000Y-93980000D02*
X116713000Y-93091000D01*
X105789000Y-92835000D02*
X106934000Y-93980000D01*
X115951000Y-92075000D02*
X116713000Y-91313000D01*
X114173000Y-79756000D02*
X111423000Y-79756000D01*
X114935000Y-78994000D02*
X116332000Y-78994000D01*
X114173000Y-79756000D02*
X114935000Y-78994000D01*
X116713000Y-89727000D02*
X117032000Y-89408000D01*
X115443000Y-92075000D02*
X115951000Y-92075000D01*
X115443000Y-91313000D02*
X115443000Y-92075000D01*
X113840500Y-92075000D02*
X115443000Y-92075000D01*
X119331500Y-91869500D02*
X119380000Y-91821000D01*
X119331500Y-91567000D02*
X117729000Y-91567000D01*
X117729000Y-91567000D02*
X116713000Y-90551000D01*
X116713000Y-90551000D02*
X116713000Y-89727000D01*
X116713000Y-91313000D02*
X116713000Y-90551000D01*
X119331500Y-91567000D02*
X119331500Y-92712300D01*
X119331500Y-92712300D02*
X119621300Y-93002100D01*
X119621300Y-93002100D02*
X124333000Y-93002100D01*
X124838700Y-92496400D02*
X124838700Y-91567000D01*
X124333000Y-93002100D02*
X124838700Y-92496400D01*
X124333000Y-93014800D02*
X124955300Y-93637100D01*
X124333000Y-93002100D02*
X124333000Y-93014800D01*
D19*
X109330000Y-86503000D02*
X109347000Y-86486000D01*
X105789000Y-86503000D02*
X109330000Y-86503000D01*
X111964500Y-86486000D02*
X111965500Y-86487000D01*
X109347000Y-86486000D02*
X111964500Y-86486000D01*
X109203000Y-88503000D02*
X109347000Y-88647000D01*
X105789000Y-88503000D02*
X109203000Y-88503000D01*
X111964500Y-88647000D02*
X111965500Y-88646000D01*
X109347000Y-88647000D02*
X111964500Y-88647000D01*
X111965500Y-92075000D02*
X111965500Y-88646000D01*
X125984000Y-86868000D02*
X128016000Y-84836000D01*
X124333000Y-86868000D02*
X125984000Y-86868000D01*
X133477000Y-79248000D02*
X133858000Y-78867000D01*
X133477000Y-83246000D02*
X133477000Y-79248000D01*
X136017000Y-79776000D02*
X135108000Y-78867000D01*
X136017000Y-83246000D02*
X136017000Y-79776000D01*
X117032000Y-84520000D02*
X116967000Y-84455000D01*
X117032000Y-85598000D02*
X117032000Y-84520000D01*
X119807038Y-84455000D02*
X122682000Y-81580038D01*
X116967000Y-84455000D02*
X119807038Y-84455000D01*
X113840500Y-86487000D02*
X115062000Y-86487000D01*
X118872000Y-86487000D02*
X118872000Y-87503000D01*
X118237000Y-88138000D02*
X117032000Y-88138000D01*
X118872000Y-87503000D02*
X118237000Y-88138000D01*
X116057000Y-86868000D02*
X117032000Y-86868000D01*
X113840500Y-88646000D02*
X115062000Y-88646000D01*
X115443000Y-88265000D02*
X115443000Y-87482000D01*
X115062000Y-88646000D02*
X115443000Y-88265000D01*
X115443000Y-87482000D02*
X116057000Y-86868000D01*
X116652404Y-86868000D02*
X117032000Y-86868000D01*
X115182933Y-82543933D02*
X115182933Y-85398529D01*
X117032000Y-86868000D02*
X116078000Y-86868000D01*
X115789001Y-86579001D02*
X115789001Y-86138039D01*
X116078000Y-86868000D02*
X115789001Y-86579001D01*
X115182933Y-85531971D02*
X115182933Y-85398529D01*
X115789001Y-86138039D02*
X115182933Y-85531971D01*
X127889000Y-93012500D02*
X129237500Y-94361000D01*
X131892000Y-94361000D02*
X133477000Y-92776000D01*
X129237500Y-94361000D02*
X131892000Y-94361000D01*
X130937000Y-89789000D02*
X130937000Y-92776000D01*
X129286000Y-88138000D02*
X130238500Y-89090500D01*
X130238500Y-89090500D02*
X130937000Y-89789000D01*
X129921000Y-88773000D02*
X130238500Y-89090500D01*
X129286000Y-88138000D02*
X124250000Y-88138000D01*
X124250000Y-89408000D02*
X122682000Y-89408000D01*
X122963700Y-89689700D02*
X122682000Y-89408000D01*
X122963700Y-91567000D02*
X122963700Y-89689700D01*
X126492000Y-79502000D02*
X126746000Y-79756000D01*
X122857500Y-79502000D02*
X126492000Y-79502000D01*
G36*
X129726148Y-89655779D02*
G01*
X129726153Y-89655783D01*
X130175000Y-90104631D01*
X130175001Y-91377928D01*
X130047000Y-91377928D01*
X129922518Y-91390188D01*
X129802820Y-91426498D01*
X129692506Y-91485463D01*
X129595815Y-91564815D01*
X129516463Y-91661506D01*
X129457498Y-91771820D01*
X129421188Y-91891518D01*
X129408928Y-92016000D01*
X129408928Y-93454797D01*
X129225575Y-93271445D01*
X129227072Y-93256250D01*
X129227072Y-92768750D01*
X129210128Y-92596715D01*
X129159947Y-92431291D01*
X129078458Y-92278836D01*
X128968792Y-92145208D01*
X128962436Y-92139992D01*
X129040185Y-92076185D01*
X129119537Y-91979494D01*
X129178502Y-91869180D01*
X129214812Y-91749482D01*
X129227072Y-91625000D01*
X129224000Y-91423250D01*
X129065250Y-91264500D01*
X128016000Y-91264500D01*
X128016000Y-91284500D01*
X127762000Y-91284500D01*
X127762000Y-91264500D01*
X126712750Y-91264500D01*
X126554000Y-91423250D01*
X126550928Y-91625000D01*
X126563188Y-91749482D01*
X126599498Y-91869180D01*
X126658463Y-91979494D01*
X126737815Y-92076185D01*
X126815564Y-92139992D01*
X126809208Y-92145208D01*
X126699542Y-92278836D01*
X126618053Y-92431291D01*
X126567872Y-92596715D01*
X126550928Y-92768750D01*
X126550928Y-93256250D01*
X126567872Y-93428285D01*
X126618053Y-93593709D01*
X126699542Y-93746164D01*
X126809208Y-93879792D01*
X126942836Y-93989458D01*
X127095291Y-94070947D01*
X127260715Y-94121128D01*
X127432750Y-94138072D01*
X127936942Y-94138072D01*
X128138869Y-94340000D01*
X125716111Y-94340000D01*
X125759237Y-94296874D01*
X125872505Y-94127356D01*
X125950526Y-93938998D01*
X125990300Y-93739039D01*
X125990300Y-93535161D01*
X125950526Y-93335202D01*
X125872505Y-93146844D01*
X125759237Y-92977326D01*
X125648732Y-92866821D01*
X125658693Y-92848185D01*
X125664002Y-92838253D01*
X125685086Y-92768750D01*
X125692821Y-92743250D01*
X125714836Y-92670675D01*
X125718715Y-92631289D01*
X125815658Y-92513164D01*
X125897147Y-92360709D01*
X125947328Y-92195285D01*
X125964272Y-92023250D01*
X125964272Y-91110750D01*
X125947328Y-90938715D01*
X125897147Y-90773291D01*
X125831247Y-90650000D01*
X126550928Y-90650000D01*
X126554000Y-90851750D01*
X126712750Y-91010500D01*
X127762000Y-91010500D01*
X127762000Y-90173750D01*
X128016000Y-90173750D01*
X128016000Y-91010500D01*
X129065250Y-91010500D01*
X129224000Y-90851750D01*
X129227072Y-90650000D01*
X129214812Y-90525518D01*
X129178502Y-90405820D01*
X129119537Y-90295506D01*
X129040185Y-90198815D01*
X128943494Y-90119463D01*
X128833180Y-90060498D01*
X128713482Y-90024188D01*
X128589000Y-90011928D01*
X128174750Y-90015000D01*
X128016000Y-90173750D01*
X127762000Y-90173750D01*
X127603250Y-90015000D01*
X127189000Y-90011928D01*
X127064518Y-90024188D01*
X126944820Y-90060498D01*
X126834506Y-90119463D01*
X126737815Y-90198815D01*
X126658463Y-90295506D01*
X126599498Y-90405820D01*
X126563188Y-90525518D01*
X126550928Y-90650000D01*
X125831247Y-90650000D01*
X125815658Y-90620836D01*
X125705992Y-90487208D01*
X125572364Y-90377542D01*
X125419909Y-90296053D01*
X125268729Y-90250193D01*
X125337829Y-90213258D01*
X125457251Y-90115251D01*
X125555258Y-89995829D01*
X125628084Y-89859582D01*
X125672929Y-89711745D01*
X125688072Y-89558000D01*
X125688072Y-89258000D01*
X125672929Y-89104255D01*
X125628084Y-88956418D01*
X125597928Y-88900000D01*
X128970370Y-88900000D01*
X129726148Y-89655779D01*
G37*
X129726148Y-89655779D02*
X129726153Y-89655783D01*
X130175000Y-90104631D01*
X130175001Y-91377928D01*
X130047000Y-91377928D01*
X129922518Y-91390188D01*
X129802820Y-91426498D01*
X129692506Y-91485463D01*
X129595815Y-91564815D01*
X129516463Y-91661506D01*
X129457498Y-91771820D01*
X129421188Y-91891518D01*
X129408928Y-92016000D01*
X129408928Y-93454797D01*
X129225575Y-93271445D01*
X129227072Y-93256250D01*
X129227072Y-92768750D01*
X129210128Y-92596715D01*
X129159947Y-92431291D01*
X129078458Y-92278836D01*
X128968792Y-92145208D01*
X128962436Y-92139992D01*
X129040185Y-92076185D01*
X129119537Y-91979494D01*
X129178502Y-91869180D01*
X129214812Y-91749482D01*
X129227072Y-91625000D01*
X129224000Y-91423250D01*
X129065250Y-91264500D01*
X128016000Y-91264500D01*
X128016000Y-91284500D01*
X127762000Y-91284500D01*
X127762000Y-91264500D01*
X126712750Y-91264500D01*
X126554000Y-91423250D01*
X126550928Y-91625000D01*
X126563188Y-91749482D01*
X126599498Y-91869180D01*
X126658463Y-91979494D01*
X126737815Y-92076185D01*
X126815564Y-92139992D01*
X126809208Y-92145208D01*
X126699542Y-92278836D01*
X126618053Y-92431291D01*
X126567872Y-92596715D01*
X126550928Y-92768750D01*
X126550928Y-93256250D01*
X126567872Y-93428285D01*
X126618053Y-93593709D01*
X126699542Y-93746164D01*
X126809208Y-93879792D01*
X126942836Y-93989458D01*
X127095291Y-94070947D01*
X127260715Y-94121128D01*
X127432750Y-94138072D01*
X127936942Y-94138072D01*
X128138869Y-94340000D01*
X125716111Y-94340000D01*
X125759237Y-94296874D01*
X125872505Y-94127356D01*
X125950526Y-93938998D01*
X125990300Y-93739039D01*
X125990300Y-93535161D01*
X125950526Y-93335202D01*
X125872505Y-93146844D01*
X125759237Y-92977326D01*
X125648732Y-92866821D01*
X125658693Y-92848185D01*
X125664002Y-92838253D01*
X125685086Y-92768750D01*
X125692821Y-92743250D01*
X125714836Y-92670675D01*
X125718715Y-92631289D01*
X125815658Y-92513164D01*
X125897147Y-92360709D01*
X125947328Y-92195285D01*
X125964272Y-92023250D01*
X125964272Y-91110750D01*
X125947328Y-90938715D01*
X125897147Y-90773291D01*
X125831247Y-90650000D01*
X126550928Y-90650000D01*
X126554000Y-90851750D01*
X126712750Y-91010500D01*
X127762000Y-91010500D01*
X127762000Y-90173750D01*
X128016000Y-90173750D01*
X128016000Y-91010500D01*
X129065250Y-91010500D01*
X129224000Y-90851750D01*
X129227072Y-90650000D01*
X129214812Y-90525518D01*
X129178502Y-90405820D01*
X129119537Y-90295506D01*
X129040185Y-90198815D01*
X128943494Y-90119463D01*
X128833180Y-90060498D01*
X128713482Y-90024188D01*
X128589000Y-90011928D01*
X128174750Y-90015000D01*
X128016000Y-90173750D01*
X127762000Y-90173750D01*
X127603250Y-90015000D01*
X127189000Y-90011928D01*
X127064518Y-90024188D01*
X126944820Y-90060498D01*
X126834506Y-90119463D01*
X126737815Y-90198815D01*
X126658463Y-90295506D01*
X126599498Y-90405820D01*
X126563188Y-90525518D01*
X126550928Y-90650000D01*
X125831247Y-90650000D01*
X125815658Y-90620836D01*
X125705992Y-90487208D01*
X125572364Y-90377542D01*
X125419909Y-90296053D01*
X125268729Y-90250193D01*
X125337829Y-90213258D01*
X125457251Y-90115251D01*
X125555258Y-89995829D01*
X125628084Y-89859582D01*
X125672929Y-89711745D01*
X125688072Y-89558000D01*
X125688072Y-89258000D01*
X125672929Y-89104255D01*
X125628084Y-88956418D01*
X125597928Y-88900000D01*
X128970370Y-88900000D01*
X129726148Y-89655779D01*
G36*
X108157498Y-89341180D02*
G01*
X108216463Y-89451494D01*
X108295815Y-89548185D01*
X108392506Y-89627537D01*
X108502820Y-89686502D01*
X108622518Y-89722812D01*
X108747000Y-89735072D01*
X109947000Y-89735072D01*
X110071482Y-89722812D01*
X110191180Y-89686502D01*
X110301494Y-89627537D01*
X110398185Y-89548185D01*
X110477537Y-89451494D01*
X110500251Y-89409000D01*
X110897737Y-89409000D01*
X110907053Y-89439709D01*
X110988542Y-89592164D01*
X111098208Y-89725792D01*
X111203501Y-89812204D01*
X111203500Y-90908797D01*
X111098208Y-90995208D01*
X110988542Y-91128836D01*
X110907053Y-91281291D01*
X110856872Y-91446715D01*
X110839928Y-91618750D01*
X110839928Y-92531250D01*
X110856872Y-92703285D01*
X110907053Y-92868709D01*
X110988542Y-93021164D01*
X111045855Y-93091000D01*
X107302236Y-93091000D01*
X106678000Y-92466765D01*
X106678000Y-92397000D01*
X108108928Y-92397000D01*
X108121188Y-92521482D01*
X108157498Y-92641180D01*
X108216463Y-92751494D01*
X108295815Y-92848185D01*
X108392506Y-92927537D01*
X108502820Y-92986502D01*
X108622518Y-93022812D01*
X108747000Y-93035072D01*
X109061250Y-93032000D01*
X109220000Y-92873250D01*
X109220000Y-92074000D01*
X109474000Y-92074000D01*
X109474000Y-92873250D01*
X109632750Y-93032000D01*
X109947000Y-93035072D01*
X110071482Y-93022812D01*
X110191180Y-92986502D01*
X110301494Y-92927537D01*
X110398185Y-92848185D01*
X110477537Y-92751494D01*
X110536502Y-92641180D01*
X110572812Y-92521482D01*
X110585072Y-92397000D01*
X110582000Y-92232750D01*
X110423250Y-92074000D01*
X109474000Y-92074000D01*
X109220000Y-92074000D01*
X108270750Y-92074000D01*
X108112000Y-92232750D01*
X108108928Y-92397000D01*
X106678000Y-92397000D01*
X106678000Y-92191072D01*
X107039000Y-92191072D01*
X107163482Y-92178812D01*
X107283180Y-92142502D01*
X107393494Y-92083537D01*
X107490185Y-92004185D01*
X107569537Y-91907494D01*
X107628502Y-91797180D01*
X107664812Y-91677482D01*
X107677072Y-91553000D01*
X107677072Y-91497000D01*
X108108928Y-91497000D01*
X108112000Y-91661250D01*
X108270750Y-91820000D01*
X109220000Y-91820000D01*
X109220000Y-91020750D01*
X109474000Y-91020750D01*
X109474000Y-91820000D01*
X110423250Y-91820000D01*
X110582000Y-91661250D01*
X110585072Y-91497000D01*
X110572812Y-91372518D01*
X110536502Y-91252820D01*
X110477537Y-91142506D01*
X110398185Y-91045815D01*
X110301494Y-90966463D01*
X110191180Y-90907498D01*
X110071482Y-90871188D01*
X109947000Y-90858928D01*
X109632750Y-90862000D01*
X109474000Y-91020750D01*
X109220000Y-91020750D01*
X109061250Y-90862000D01*
X108747000Y-90858928D01*
X108622518Y-90871188D01*
X108502820Y-90907498D01*
X108392506Y-90966463D01*
X108295815Y-91045815D01*
X108216463Y-91142506D01*
X108157498Y-91252820D01*
X108121188Y-91372518D01*
X108108928Y-91497000D01*
X107677072Y-91497000D01*
X107677072Y-90453000D01*
X107664812Y-90328518D01*
X107628502Y-90208820D01*
X107569537Y-90098506D01*
X107490185Y-90001815D01*
X107393494Y-89922463D01*
X107283180Y-89863498D01*
X107163482Y-89827188D01*
X107039000Y-89814928D01*
X104539000Y-89814928D01*
X104414518Y-89827188D01*
X104294820Y-89863498D01*
X104224000Y-89901353D01*
X104224000Y-89686288D01*
X104205829Y-89594934D01*
X104294820Y-89642502D01*
X104414518Y-89678812D01*
X104539000Y-89691072D01*
X107039000Y-89691072D01*
X107163482Y-89678812D01*
X107283180Y-89642502D01*
X107393494Y-89583537D01*
X107490185Y-89504185D01*
X107569537Y-89407494D01*
X107628502Y-89297180D01*
X107638264Y-89265000D01*
X108134389Y-89265000D01*
X108157498Y-89341180D01*
G37*
X108157498Y-89341180D02*
X108216463Y-89451494D01*
X108295815Y-89548185D01*
X108392506Y-89627537D01*
X108502820Y-89686502D01*
X108622518Y-89722812D01*
X108747000Y-89735072D01*
X109947000Y-89735072D01*
X110071482Y-89722812D01*
X110191180Y-89686502D01*
X110301494Y-89627537D01*
X110398185Y-89548185D01*
X110477537Y-89451494D01*
X110500251Y-89409000D01*
X110897737Y-89409000D01*
X110907053Y-89439709D01*
X110988542Y-89592164D01*
X111098208Y-89725792D01*
X111203501Y-89812204D01*
X111203500Y-90908797D01*
X111098208Y-90995208D01*
X110988542Y-91128836D01*
X110907053Y-91281291D01*
X110856872Y-91446715D01*
X110839928Y-91618750D01*
X110839928Y-92531250D01*
X110856872Y-92703285D01*
X110907053Y-92868709D01*
X110988542Y-93021164D01*
X111045855Y-93091000D01*
X107302236Y-93091000D01*
X106678000Y-92466765D01*
X106678000Y-92397000D01*
X108108928Y-92397000D01*
X108121188Y-92521482D01*
X108157498Y-92641180D01*
X108216463Y-92751494D01*
X108295815Y-92848185D01*
X108392506Y-92927537D01*
X108502820Y-92986502D01*
X108622518Y-93022812D01*
X108747000Y-93035072D01*
X109061250Y-93032000D01*
X109220000Y-92873250D01*
X109220000Y-92074000D01*
X109474000Y-92074000D01*
X109474000Y-92873250D01*
X109632750Y-93032000D01*
X109947000Y-93035072D01*
X110071482Y-93022812D01*
X110191180Y-92986502D01*
X110301494Y-92927537D01*
X110398185Y-92848185D01*
X110477537Y-92751494D01*
X110536502Y-92641180D01*
X110572812Y-92521482D01*
X110585072Y-92397000D01*
X110582000Y-92232750D01*
X110423250Y-92074000D01*
X109474000Y-92074000D01*
X109220000Y-92074000D01*
X108270750Y-92074000D01*
X108112000Y-92232750D01*
X108108928Y-92397000D01*
X106678000Y-92397000D01*
X106678000Y-92191072D01*
X107039000Y-92191072D01*
X107163482Y-92178812D01*
X107283180Y-92142502D01*
X107393494Y-92083537D01*
X107490185Y-92004185D01*
X107569537Y-91907494D01*
X107628502Y-91797180D01*
X107664812Y-91677482D01*
X107677072Y-91553000D01*
X107677072Y-91497000D01*
X108108928Y-91497000D01*
X108112000Y-91661250D01*
X108270750Y-91820000D01*
X109220000Y-91820000D01*
X109220000Y-91020750D01*
X109474000Y-91020750D01*
X109474000Y-91820000D01*
X110423250Y-91820000D01*
X110582000Y-91661250D01*
X110585072Y-91497000D01*
X110572812Y-91372518D01*
X110536502Y-91252820D01*
X110477537Y-91142506D01*
X110398185Y-91045815D01*
X110301494Y-90966463D01*
X110191180Y-90907498D01*
X110071482Y-90871188D01*
X109947000Y-90858928D01*
X109632750Y-90862000D01*
X109474000Y-91020750D01*
X109220000Y-91020750D01*
X109061250Y-90862000D01*
X108747000Y-90858928D01*
X108622518Y-90871188D01*
X108502820Y-90907498D01*
X108392506Y-90966463D01*
X108295815Y-91045815D01*
X108216463Y-91142506D01*
X108157498Y-91252820D01*
X108121188Y-91372518D01*
X108108928Y-91497000D01*
X107677072Y-91497000D01*
X107677072Y-90453000D01*
X107664812Y-90328518D01*
X107628502Y-90208820D01*
X107569537Y-90098506D01*
X107490185Y-90001815D01*
X107393494Y-89922463D01*
X107283180Y-89863498D01*
X107163482Y-89827188D01*
X107039000Y-89814928D01*
X104539000Y-89814928D01*
X104414518Y-89827188D01*
X104294820Y-89863498D01*
X104224000Y-89901353D01*
X104224000Y-89686288D01*
X104205829Y-89594934D01*
X104294820Y-89642502D01*
X104414518Y-89678812D01*
X104539000Y-89691072D01*
X107039000Y-89691072D01*
X107163482Y-89678812D01*
X107283180Y-89642502D01*
X107393494Y-89583537D01*
X107490185Y-89504185D01*
X107569537Y-89407494D01*
X107628502Y-89297180D01*
X107638264Y-89265000D01*
X108134389Y-89265000D01*
X108157498Y-89341180D01*
G36*
X133280204Y-77752266D02*
G01*
X133122605Y-77881604D01*
X132993267Y-78039203D01*
X132897159Y-78219007D01*
X132837976Y-78414105D01*
X132823000Y-78566162D01*
X132823000Y-78855077D01*
X132769599Y-78954985D01*
X132726027Y-79098622D01*
X132711314Y-79248000D01*
X132715001Y-79285433D01*
X132715000Y-81847928D01*
X132587000Y-81847928D01*
X132462518Y-81860188D01*
X132342820Y-81896498D01*
X132232506Y-81955463D01*
X132207000Y-81976395D01*
X132181494Y-81955463D01*
X132071180Y-81896498D01*
X131951482Y-81860188D01*
X131827000Y-81847928D01*
X130047000Y-81847928D01*
X129922518Y-81860188D01*
X129802820Y-81896498D01*
X129692506Y-81955463D01*
X129595815Y-82034815D01*
X129516463Y-82131506D01*
X129457498Y-82241820D01*
X129421188Y-82361518D01*
X129408928Y-82486000D01*
X129408928Y-84006000D01*
X129421188Y-84130482D01*
X129457498Y-84250180D01*
X129516463Y-84360494D01*
X129595815Y-84457185D01*
X129692506Y-84536537D01*
X129802820Y-84595502D01*
X129922518Y-84631812D01*
X130047000Y-84644072D01*
X131827000Y-84644072D01*
X131951482Y-84631812D01*
X132071180Y-84595502D01*
X132181494Y-84536537D01*
X132207000Y-84515605D01*
X132232506Y-84536537D01*
X132342820Y-84595502D01*
X132462518Y-84631812D01*
X132587000Y-84644072D01*
X134367000Y-84644072D01*
X134491482Y-84631812D01*
X134611180Y-84595502D01*
X134721494Y-84536537D01*
X134747000Y-84515605D01*
X134772506Y-84536537D01*
X134882820Y-84595502D01*
X135002518Y-84631812D01*
X135127000Y-84644072D01*
X136907000Y-84644072D01*
X137031482Y-84631812D01*
X137151180Y-84595502D01*
X137261494Y-84536537D01*
X137340001Y-84472109D01*
X137340000Y-91549891D01*
X137261494Y-91485463D01*
X137151180Y-91426498D01*
X137031482Y-91390188D01*
X136907000Y-91377928D01*
X135127000Y-91377928D01*
X135002518Y-91390188D01*
X134882820Y-91426498D01*
X134772506Y-91485463D01*
X134747000Y-91506395D01*
X134721494Y-91485463D01*
X134611180Y-91426498D01*
X134491482Y-91390188D01*
X134367000Y-91377928D01*
X132587000Y-91377928D01*
X132462518Y-91390188D01*
X132342820Y-91426498D01*
X132232506Y-91485463D01*
X132207000Y-91506395D01*
X132181494Y-91485463D01*
X132071180Y-91426498D01*
X131951482Y-91390188D01*
X131827000Y-91377928D01*
X131699000Y-91377928D01*
X131699000Y-89826422D01*
X131702686Y-89788999D01*
X131698830Y-89749852D01*
X131687974Y-89639622D01*
X131644402Y-89495985D01*
X131573645Y-89363608D01*
X131478422Y-89247578D01*
X131449353Y-89223722D01*
X130803783Y-88578153D01*
X130803779Y-88578148D01*
X129851284Y-87625654D01*
X129827422Y-87596578D01*
X129711392Y-87501355D01*
X129579015Y-87430598D01*
X129435378Y-87387026D01*
X129323426Y-87376000D01*
X129323423Y-87376000D01*
X129286000Y-87372314D01*
X129248577Y-87376000D01*
X126553630Y-87376000D01*
X128058631Y-85871000D01*
X128117939Y-85871000D01*
X128317898Y-85831226D01*
X128506256Y-85753205D01*
X128675774Y-85639937D01*
X128819937Y-85495774D01*
X128933205Y-85326256D01*
X129011226Y-85137898D01*
X129051000Y-84937939D01*
X129051000Y-84734061D01*
X129011226Y-84534102D01*
X128933205Y-84345744D01*
X128819937Y-84176226D01*
X128675774Y-84032063D01*
X128506256Y-83918795D01*
X128317898Y-83840774D01*
X128117939Y-83801000D01*
X127914061Y-83801000D01*
X127714102Y-83840774D01*
X127525744Y-83918795D01*
X127356226Y-84032063D01*
X127212063Y-84176226D01*
X127098795Y-84345744D01*
X127020774Y-84534102D01*
X126981000Y-84734061D01*
X126981000Y-84793369D01*
X125668370Y-86106000D01*
X125650477Y-86106000D01*
X125675812Y-86022482D01*
X125688072Y-85898000D01*
X125685000Y-85883750D01*
X125526250Y-85725000D01*
X124377000Y-85725000D01*
X124377000Y-85745000D01*
X124123000Y-85745000D01*
X124123000Y-85725000D01*
X122973750Y-85725000D01*
X122815000Y-85883750D01*
X122811928Y-85898000D01*
X122824188Y-86022482D01*
X122860498Y-86142180D01*
X122919463Y-86252494D01*
X122943730Y-86282064D01*
X122871916Y-86416418D01*
X122827071Y-86564255D01*
X122811928Y-86718000D01*
X122811928Y-87018000D01*
X122827071Y-87171745D01*
X122871916Y-87319582D01*
X122944742Y-87455829D01*
X122983454Y-87503000D01*
X122944742Y-87550171D01*
X122871916Y-87686418D01*
X122827071Y-87834255D01*
X122811928Y-87988000D01*
X122811928Y-88288000D01*
X122821027Y-88380377D01*
X122783939Y-88373000D01*
X122580061Y-88373000D01*
X122380102Y-88412774D01*
X122191744Y-88490795D01*
X122022226Y-88604063D01*
X121878063Y-88748226D01*
X121764795Y-88917744D01*
X121686774Y-89106102D01*
X121647000Y-89306061D01*
X121647000Y-89509939D01*
X121686774Y-89709898D01*
X121764795Y-89898256D01*
X121878063Y-90067774D01*
X122022226Y-90211937D01*
X122191744Y-90325205D01*
X122201701Y-90329329D01*
X122201701Y-90400796D01*
X122160565Y-90434556D01*
X122145185Y-90415815D01*
X122048494Y-90336463D01*
X121938180Y-90277498D01*
X121818482Y-90241188D01*
X121694000Y-90228928D01*
X121492250Y-90232000D01*
X121333500Y-90390750D01*
X121333500Y-91440000D01*
X121353500Y-91440000D01*
X121353500Y-91694000D01*
X121333500Y-91694000D01*
X121333500Y-91714000D01*
X121079500Y-91714000D01*
X121079500Y-91694000D01*
X121059500Y-91694000D01*
X121059500Y-91440000D01*
X121079500Y-91440000D01*
X121079500Y-90390750D01*
X120920750Y-90232000D01*
X120719000Y-90228928D01*
X120594518Y-90241188D01*
X120474820Y-90277498D01*
X120364506Y-90336463D01*
X120267815Y-90415815D01*
X120204008Y-90493564D01*
X120198792Y-90487208D01*
X120065164Y-90377542D01*
X119912709Y-90296053D01*
X119747285Y-90245872D01*
X119575250Y-90228928D01*
X119087750Y-90228928D01*
X118915715Y-90245872D01*
X118750291Y-90296053D01*
X118597836Y-90377542D01*
X118464208Y-90487208D01*
X118354542Y-90620836D01*
X118323987Y-90678000D01*
X118097236Y-90678000D01*
X117759452Y-90340216D01*
X117853745Y-90330929D01*
X118001582Y-90286084D01*
X118137829Y-90213258D01*
X118257251Y-90115251D01*
X118355258Y-89995829D01*
X118428084Y-89859582D01*
X118472929Y-89711745D01*
X118488072Y-89558000D01*
X118488072Y-89258000D01*
X118472929Y-89104255D01*
X118428084Y-88956418D01*
X118391245Y-88887498D01*
X118530015Y-88845402D01*
X118662392Y-88774645D01*
X118778422Y-88679422D01*
X118802284Y-88650346D01*
X119384346Y-88068284D01*
X119413422Y-88044422D01*
X119499449Y-87939598D01*
X119508645Y-87928393D01*
X119562029Y-87828518D01*
X119579402Y-87796015D01*
X119622974Y-87652378D01*
X119634000Y-87540426D01*
X119634000Y-87540423D01*
X119637686Y-87503000D01*
X119634000Y-87465577D01*
X119634000Y-87188711D01*
X119675937Y-87146774D01*
X119789205Y-86977256D01*
X119867226Y-86788898D01*
X119907000Y-86588939D01*
X119907000Y-86385061D01*
X119867226Y-86185102D01*
X119789205Y-85996744D01*
X119675937Y-85827226D01*
X119531774Y-85683063D01*
X119362256Y-85569795D01*
X119173898Y-85491774D01*
X118973939Y-85452000D01*
X118770061Y-85452000D01*
X118570102Y-85491774D01*
X118488072Y-85525752D01*
X118488072Y-85448000D01*
X118473298Y-85298000D01*
X122811928Y-85298000D01*
X122815000Y-85312250D01*
X122973750Y-85471000D01*
X124123000Y-85471000D01*
X124123000Y-84821750D01*
X124377000Y-84821750D01*
X124377000Y-85471000D01*
X125526250Y-85471000D01*
X125685000Y-85312250D01*
X125688072Y-85298000D01*
X125675812Y-85173518D01*
X125639502Y-85053820D01*
X125580537Y-84943506D01*
X125501185Y-84846815D01*
X125404494Y-84767463D01*
X125294180Y-84708498D01*
X125174482Y-84672188D01*
X125050000Y-84659928D01*
X124535750Y-84663000D01*
X124377000Y-84821750D01*
X124123000Y-84821750D01*
X123964250Y-84663000D01*
X123450000Y-84659928D01*
X123325518Y-84672188D01*
X123205820Y-84708498D01*
X123095506Y-84767463D01*
X122998815Y-84846815D01*
X122919463Y-84943506D01*
X122860498Y-85053820D01*
X122824188Y-85173518D01*
X122811928Y-85298000D01*
X118473298Y-85298000D01*
X118472929Y-85294255D01*
X118449494Y-85217000D01*
X119769615Y-85217000D01*
X119807038Y-85220686D01*
X119844461Y-85217000D01*
X119844464Y-85217000D01*
X119956416Y-85205974D01*
X120100053Y-85162402D01*
X120232430Y-85091645D01*
X120348460Y-84996422D01*
X120372322Y-84967346D01*
X122724631Y-82615038D01*
X122783939Y-82615038D01*
X122983898Y-82575264D01*
X123172256Y-82497243D01*
X123341774Y-82383975D01*
X123485937Y-82239812D01*
X123599205Y-82070294D01*
X123677226Y-81881936D01*
X123717000Y-81681977D01*
X123717000Y-81478099D01*
X123677226Y-81278140D01*
X123599205Y-81089782D01*
X123485937Y-80920264D01*
X123361915Y-80796242D01*
X123438709Y-80772947D01*
X123591164Y-80691458D01*
X123724792Y-80581792D01*
X123834458Y-80448164D01*
X123915947Y-80295709D01*
X123925566Y-80264000D01*
X125739040Y-80264000D01*
X125749431Y-80369500D01*
X125797122Y-80526716D01*
X125874569Y-80671608D01*
X125978794Y-80798606D01*
X126105792Y-80902831D01*
X126250684Y-80980278D01*
X126407900Y-81027969D01*
X126571400Y-81044072D01*
X126971400Y-81044072D01*
X127134900Y-81027969D01*
X127292116Y-80980278D01*
X127437008Y-80902831D01*
X127463294Y-80881259D01*
X127623408Y-80966841D01*
X127818506Y-81026024D01*
X128021400Y-81046007D01*
X128224295Y-81026024D01*
X128419393Y-80966841D01*
X128599197Y-80870734D01*
X128756796Y-80741396D01*
X128886134Y-80583797D01*
X128982241Y-80403992D01*
X129041424Y-80208894D01*
X129056400Y-80056837D01*
X129056400Y-79455162D01*
X129041424Y-79303105D01*
X128982241Y-79108007D01*
X128886134Y-78928203D01*
X128756796Y-78770604D01*
X128599197Y-78641266D01*
X128419392Y-78545159D01*
X128224294Y-78485976D01*
X128021400Y-78465993D01*
X127818505Y-78485976D01*
X127623407Y-78545159D01*
X127463294Y-78630741D01*
X127437008Y-78609169D01*
X127292116Y-78531722D01*
X127134900Y-78484031D01*
X126971400Y-78467928D01*
X126571400Y-78467928D01*
X126407900Y-78484031D01*
X126250684Y-78531722D01*
X126105792Y-78609169D01*
X125978794Y-78713394D01*
X125956959Y-78740000D01*
X123925566Y-78740000D01*
X123915947Y-78708291D01*
X123834458Y-78555836D01*
X123724792Y-78422208D01*
X123591164Y-78312542D01*
X123438709Y-78231053D01*
X123273285Y-78180872D01*
X123101250Y-78163928D01*
X122613750Y-78163928D01*
X122441715Y-78180872D01*
X122276291Y-78231053D01*
X122123836Y-78312542D01*
X121990208Y-78422208D01*
X121984992Y-78428564D01*
X121921185Y-78350815D01*
X121824494Y-78271463D01*
X121714180Y-78212498D01*
X121594482Y-78176188D01*
X121470000Y-78163928D01*
X121268250Y-78167000D01*
X121109500Y-78325750D01*
X121109500Y-79375000D01*
X121129500Y-79375000D01*
X121129500Y-79629000D01*
X121109500Y-79629000D01*
X121109500Y-80678250D01*
X121268250Y-80837000D01*
X121470000Y-80840072D01*
X121594482Y-80827812D01*
X121714180Y-80791502D01*
X121824494Y-80732537D01*
X121921185Y-80653185D01*
X121984992Y-80575436D01*
X121990208Y-80581792D01*
X122123836Y-80691458D01*
X122137763Y-80698902D01*
X122022226Y-80776101D01*
X121878063Y-80920264D01*
X121764795Y-81089782D01*
X121686774Y-81278140D01*
X121647000Y-81478099D01*
X121647000Y-81537407D01*
X119491408Y-83693000D01*
X117668711Y-83693000D01*
X117626774Y-83651063D01*
X117457256Y-83537795D01*
X117268898Y-83459774D01*
X117068939Y-83420000D01*
X116865061Y-83420000D01*
X116665102Y-83459774D01*
X116476744Y-83537795D01*
X116307226Y-83651063D01*
X116163063Y-83795226D01*
X116049795Y-83964744D01*
X115971774Y-84153102D01*
X115944933Y-84288042D01*
X115944933Y-83245644D01*
X115986870Y-83203707D01*
X116100138Y-83034189D01*
X116178159Y-82845831D01*
X116217933Y-82645872D01*
X116217933Y-82441994D01*
X116178159Y-82242035D01*
X116100138Y-82053677D01*
X115986870Y-81884159D01*
X115842707Y-81739996D01*
X115673189Y-81626728D01*
X115484831Y-81548707D01*
X115284872Y-81508933D01*
X115080994Y-81508933D01*
X114881035Y-81548707D01*
X114692677Y-81626728D01*
X114523159Y-81739996D01*
X114378996Y-81884159D01*
X114265728Y-82053677D01*
X114187707Y-82242035D01*
X114147933Y-82441994D01*
X114147933Y-82645872D01*
X114187707Y-82845831D01*
X114265728Y-83034189D01*
X114378996Y-83203707D01*
X114420933Y-83245644D01*
X114420934Y-85215818D01*
X114256285Y-85165872D01*
X114084250Y-85148928D01*
X113596750Y-85148928D01*
X113424715Y-85165872D01*
X113259291Y-85216053D01*
X113106836Y-85297542D01*
X112973208Y-85407208D01*
X112903000Y-85492756D01*
X112832792Y-85407208D01*
X112699164Y-85297542D01*
X112546709Y-85216053D01*
X112381285Y-85165872D01*
X112209250Y-85148928D01*
X111721750Y-85148928D01*
X111549715Y-85165872D01*
X111384291Y-85216053D01*
X111231836Y-85297542D01*
X111098208Y-85407208D01*
X110988542Y-85540836D01*
X110907053Y-85693291D01*
X110897737Y-85724000D01*
X110500251Y-85724000D01*
X110477537Y-85681506D01*
X110398185Y-85584815D01*
X110301494Y-85505463D01*
X110191180Y-85446498D01*
X110071482Y-85410188D01*
X109947000Y-85397928D01*
X108747000Y-85397928D01*
X108622518Y-85410188D01*
X108502820Y-85446498D01*
X108392506Y-85505463D01*
X108295815Y-85584815D01*
X108216463Y-85681506D01*
X108184662Y-85741000D01*
X107638264Y-85741000D01*
X107628502Y-85708820D01*
X107569537Y-85598506D01*
X107490185Y-85501815D01*
X107393494Y-85422463D01*
X107283180Y-85363498D01*
X107163482Y-85327188D01*
X107039000Y-85314928D01*
X104539000Y-85314928D01*
X104414518Y-85327188D01*
X104294820Y-85363498D01*
X104205829Y-85411066D01*
X104224000Y-85319712D01*
X104224000Y-85104647D01*
X104294820Y-85142502D01*
X104414518Y-85178812D01*
X104539000Y-85191072D01*
X105503250Y-85188000D01*
X105662000Y-85029250D01*
X105662000Y-84130000D01*
X105916000Y-84130000D01*
X105916000Y-85029250D01*
X106074750Y-85188000D01*
X107039000Y-85191072D01*
X107163482Y-85178812D01*
X107283180Y-85142502D01*
X107393494Y-85083537D01*
X107490185Y-85004185D01*
X107569537Y-84907494D01*
X107628502Y-84797180D01*
X107664812Y-84677482D01*
X107677072Y-84553000D01*
X107674000Y-84288750D01*
X107515250Y-84130000D01*
X105916000Y-84130000D01*
X105662000Y-84130000D01*
X104062750Y-84130000D01*
X103904000Y-84288750D01*
X103902812Y-84390968D01*
X103794394Y-84282550D01*
X103600308Y-84152866D01*
X103384652Y-84063539D01*
X103155712Y-84018000D01*
X102922288Y-84018000D01*
X102693348Y-84063539D01*
X102477692Y-84152866D01*
X102283606Y-84282550D01*
X102118550Y-84447606D01*
X101988866Y-84641692D01*
X101899539Y-84857348D01*
X101854000Y-85086288D01*
X101854000Y-85319712D01*
X101899539Y-85548652D01*
X101988866Y-85764308D01*
X102118550Y-85958394D01*
X102283606Y-86123450D01*
X102477692Y-86253134D01*
X102693348Y-86342461D01*
X102922288Y-86388000D01*
X103155712Y-86388000D01*
X103384652Y-86342461D01*
X103600308Y-86253134D01*
X103794394Y-86123450D01*
X103900928Y-86016916D01*
X103900928Y-87053000D01*
X103913188Y-87177482D01*
X103949498Y-87297180D01*
X104008463Y-87407494D01*
X104086842Y-87503000D01*
X104008463Y-87598506D01*
X103949498Y-87708820D01*
X103913188Y-87828518D01*
X103900928Y-87953000D01*
X103900928Y-88989084D01*
X103794394Y-88882550D01*
X103600308Y-88752866D01*
X103384652Y-88663539D01*
X103155712Y-88618000D01*
X102922288Y-88618000D01*
X102693348Y-88663539D01*
X102477692Y-88752866D01*
X102283606Y-88882550D01*
X102118550Y-89047606D01*
X101988866Y-89241692D01*
X101899539Y-89457348D01*
X101854000Y-89686288D01*
X101854000Y-89919712D01*
X101899539Y-90148652D01*
X101988866Y-90364308D01*
X102118550Y-90558394D01*
X102283606Y-90723450D01*
X102477692Y-90853134D01*
X102693348Y-90942461D01*
X102922288Y-90988000D01*
X103155712Y-90988000D01*
X103384652Y-90942461D01*
X103600308Y-90853134D01*
X103794394Y-90723450D01*
X103900928Y-90616916D01*
X103900928Y-91553000D01*
X103907330Y-91618000D01*
X102161136Y-91618000D01*
X101928286Y-91640934D01*
X101629512Y-91731566D01*
X101354161Y-91878744D01*
X101112813Y-92076813D01*
X100914744Y-92318161D01*
X100767566Y-92593512D01*
X100676934Y-92892286D01*
X100660000Y-93064218D01*
X100660000Y-81941782D01*
X100676934Y-82113714D01*
X100767566Y-82412488D01*
X100914744Y-82687839D01*
X101112813Y-82929187D01*
X101354161Y-83127256D01*
X101629512Y-83274434D01*
X101928286Y-83365066D01*
X102161136Y-83388000D01*
X103907330Y-83388000D01*
X103900928Y-83453000D01*
X103904000Y-83717250D01*
X104062750Y-83876000D01*
X105662000Y-83876000D01*
X105662000Y-82976750D01*
X105916000Y-82976750D01*
X105916000Y-83876000D01*
X107515250Y-83876000D01*
X107674000Y-83717250D01*
X107674944Y-83636000D01*
X108108928Y-83636000D01*
X108121188Y-83760482D01*
X108157498Y-83880180D01*
X108216463Y-83990494D01*
X108295815Y-84087185D01*
X108392506Y-84166537D01*
X108502820Y-84225502D01*
X108622518Y-84261812D01*
X108747000Y-84274072D01*
X109061250Y-84271000D01*
X109220000Y-84112250D01*
X109220000Y-83313000D01*
X109474000Y-83313000D01*
X109474000Y-84112250D01*
X109632750Y-84271000D01*
X109947000Y-84274072D01*
X110071482Y-84261812D01*
X110191180Y-84225502D01*
X110301494Y-84166537D01*
X110398185Y-84087185D01*
X110477537Y-83990494D01*
X110536502Y-83880180D01*
X110572812Y-83760482D01*
X110585072Y-83636000D01*
X110582000Y-83471750D01*
X110423250Y-83313000D01*
X109474000Y-83313000D01*
X109220000Y-83313000D01*
X108270750Y-83313000D01*
X108112000Y-83471750D01*
X108108928Y-83636000D01*
X107674944Y-83636000D01*
X107677072Y-83453000D01*
X107664812Y-83328518D01*
X107628502Y-83208820D01*
X107569537Y-83098506D01*
X107490185Y-83001815D01*
X107393494Y-82922463D01*
X107283180Y-82863498D01*
X107163482Y-82827188D01*
X107039000Y-82814928D01*
X106074750Y-82818000D01*
X105916000Y-82976750D01*
X105662000Y-82976750D01*
X105503250Y-82818000D01*
X105057601Y-82816580D01*
X105123731Y-82736000D01*
X108108928Y-82736000D01*
X108112000Y-82900250D01*
X108270750Y-83059000D01*
X109220000Y-83059000D01*
X109220000Y-82259750D01*
X109474000Y-82259750D01*
X109474000Y-83059000D01*
X110423250Y-83059000D01*
X110582000Y-82900250D01*
X110585072Y-82736000D01*
X110572812Y-82611518D01*
X110536502Y-82491820D01*
X110477537Y-82381506D01*
X110398185Y-82284815D01*
X110301494Y-82205463D01*
X110191180Y-82146498D01*
X110071482Y-82110188D01*
X109947000Y-82097928D01*
X109632750Y-82101000D01*
X109474000Y-82259750D01*
X109220000Y-82259750D01*
X109061250Y-82101000D01*
X108747000Y-82097928D01*
X108622518Y-82110188D01*
X108502820Y-82146498D01*
X108392506Y-82205463D01*
X108295815Y-82284815D01*
X108216463Y-82381506D01*
X108157498Y-82491820D01*
X108121188Y-82611518D01*
X108108928Y-82736000D01*
X105123731Y-82736000D01*
X105163256Y-82687839D01*
X105310434Y-82412488D01*
X105401066Y-82113714D01*
X105431669Y-81803000D01*
X105401066Y-81492286D01*
X105310434Y-81193512D01*
X105163256Y-80918161D01*
X104965187Y-80676813D01*
X104817976Y-80556000D01*
X105884928Y-80556000D01*
X105897188Y-80680482D01*
X105933498Y-80800180D01*
X105992463Y-80910494D01*
X106071815Y-81007185D01*
X106168506Y-81086537D01*
X106278820Y-81145502D01*
X106398518Y-81181812D01*
X106523000Y-81194072D01*
X107537250Y-81191000D01*
X107696000Y-81032250D01*
X107696000Y-79883000D01*
X106046750Y-79883000D01*
X105888000Y-80041750D01*
X105884928Y-80556000D01*
X104817976Y-80556000D01*
X104723839Y-80478744D01*
X104448488Y-80331566D01*
X104149714Y-80240934D01*
X103916864Y-80218000D01*
X102161136Y-80218000D01*
X101928286Y-80240934D01*
X101629512Y-80331566D01*
X101354161Y-80478744D01*
X101112813Y-80676813D01*
X100914744Y-80918161D01*
X100767566Y-81193512D01*
X100676934Y-81492286D01*
X100660000Y-81664218D01*
X100660000Y-80273380D01*
X101977380Y-78956000D01*
X105884928Y-78956000D01*
X105888000Y-79470250D01*
X106046750Y-79629000D01*
X107696000Y-79629000D01*
X107696000Y-78479750D01*
X107950000Y-78479750D01*
X107950000Y-79629000D01*
X107970000Y-79629000D01*
X107970000Y-79883000D01*
X107950000Y-79883000D01*
X107950000Y-81032250D01*
X108108750Y-81191000D01*
X109123000Y-81194072D01*
X109247482Y-81181812D01*
X109367180Y-81145502D01*
X109477494Y-81086537D01*
X109574185Y-81007185D01*
X109653537Y-80910494D01*
X109682031Y-80857187D01*
X109745038Y-80933962D01*
X109879614Y-81044405D01*
X110033150Y-81126472D01*
X110199746Y-81177008D01*
X110373000Y-81194072D01*
X112473000Y-81194072D01*
X112646254Y-81177008D01*
X112812850Y-81126472D01*
X112966386Y-81044405D01*
X113100962Y-80933962D01*
X113211405Y-80799386D01*
X113293472Y-80645850D01*
X113293730Y-80645000D01*
X113640532Y-80645000D01*
X113682744Y-80673205D01*
X113871102Y-80751226D01*
X114071061Y-80791000D01*
X114274939Y-80791000D01*
X114474898Y-80751226D01*
X114663256Y-80673205D01*
X114832774Y-80559937D01*
X114976937Y-80415774D01*
X115090205Y-80246256D01*
X115168226Y-80057898D01*
X115178130Y-80008105D01*
X115193928Y-79992308D01*
X115193928Y-80764000D01*
X115206188Y-80888482D01*
X115242498Y-81008180D01*
X115301463Y-81118494D01*
X115380815Y-81215185D01*
X115477506Y-81294537D01*
X115587820Y-81353502D01*
X115707518Y-81389812D01*
X115832000Y-81402072D01*
X116832000Y-81402072D01*
X116956482Y-81389812D01*
X117076180Y-81353502D01*
X117159226Y-81309112D01*
X117270933Y-81355383D01*
X117490212Y-81399000D01*
X117713788Y-81399000D01*
X117933067Y-81355383D01*
X118139624Y-81269824D01*
X118237000Y-81204759D01*
X118334376Y-81269824D01*
X118540933Y-81355383D01*
X118760212Y-81399000D01*
X118983788Y-81399000D01*
X119203067Y-81355383D01*
X119409624Y-81269824D01*
X119595520Y-81145612D01*
X119753612Y-80987520D01*
X119877824Y-80801624D01*
X119963383Y-80595067D01*
X119969769Y-80562960D01*
X120043815Y-80653185D01*
X120140506Y-80732537D01*
X120250820Y-80791502D01*
X120370518Y-80827812D01*
X120495000Y-80840072D01*
X120696750Y-80837000D01*
X120855500Y-80678250D01*
X120855500Y-79629000D01*
X120835500Y-79629000D01*
X120835500Y-79375000D01*
X120855500Y-79375000D01*
X120855500Y-78325750D01*
X120696750Y-78167000D01*
X120495000Y-78163928D01*
X120370518Y-78176188D01*
X120250820Y-78212498D01*
X120140506Y-78271463D01*
X120043815Y-78350815D01*
X119964463Y-78447506D01*
X119910696Y-78548095D01*
X119886210Y-78484471D01*
X119767318Y-78296399D01*
X119614020Y-78135135D01*
X119432206Y-78006877D01*
X119228864Y-77916554D01*
X119173874Y-77899881D01*
X118999000Y-78026046D01*
X118999000Y-78867000D01*
X119019000Y-78867000D01*
X119019000Y-79121000D01*
X118999000Y-79121000D01*
X118999000Y-79132026D01*
X118983788Y-79129000D01*
X118760212Y-79129000D01*
X118745000Y-79132026D01*
X118745000Y-79121000D01*
X118733974Y-79121000D01*
X118737000Y-79105788D01*
X118737000Y-78882212D01*
X118733974Y-78867000D01*
X118745000Y-78867000D01*
X118745000Y-78026046D01*
X118570126Y-77899881D01*
X118515136Y-77916554D01*
X118311794Y-78006877D01*
X118241658Y-78056353D01*
X118139624Y-77988176D01*
X117933067Y-77902617D01*
X117713788Y-77859000D01*
X117490212Y-77859000D01*
X117270933Y-77902617D01*
X117064376Y-77988176D01*
X116967000Y-78053241D01*
X116869624Y-77988176D01*
X116663067Y-77902617D01*
X116443788Y-77859000D01*
X116220212Y-77859000D01*
X116000933Y-77902617D01*
X115794376Y-77988176D01*
X115619537Y-78105000D01*
X114978660Y-78105000D01*
X114935000Y-78100700D01*
X114891340Y-78105000D01*
X114891333Y-78105000D01*
X114779377Y-78116027D01*
X114760725Y-78117864D01*
X114709892Y-78133284D01*
X114593149Y-78168697D01*
X114438709Y-78251247D01*
X114303341Y-78362341D01*
X114275505Y-78396259D01*
X113920895Y-78750870D01*
X113871102Y-78760774D01*
X113682744Y-78838795D01*
X113640532Y-78867000D01*
X113293730Y-78867000D01*
X113293472Y-78866150D01*
X113211405Y-78712614D01*
X113100962Y-78578038D01*
X112966386Y-78467595D01*
X112812850Y-78385528D01*
X112646254Y-78334992D01*
X112473000Y-78317928D01*
X110373000Y-78317928D01*
X110199746Y-78334992D01*
X110033150Y-78385528D01*
X109879614Y-78467595D01*
X109745038Y-78578038D01*
X109682031Y-78654813D01*
X109653537Y-78601506D01*
X109574185Y-78504815D01*
X109477494Y-78425463D01*
X109367180Y-78366498D01*
X109247482Y-78330188D01*
X109123000Y-78317928D01*
X108108750Y-78321000D01*
X107950000Y-78479750D01*
X107696000Y-78479750D01*
X107537250Y-78321000D01*
X106523000Y-78317928D01*
X106398518Y-78330188D01*
X106278820Y-78366498D01*
X106168506Y-78425463D01*
X106071815Y-78504815D01*
X105992463Y-78601506D01*
X105933498Y-78711820D01*
X105897188Y-78831518D01*
X105884928Y-78956000D01*
X101977380Y-78956000D01*
X103273381Y-77660000D01*
X133452822Y-77660000D01*
X133280204Y-77752266D01*
G37*
X133280204Y-77752266D02*
X133122605Y-77881604D01*
X132993267Y-78039203D01*
X132897159Y-78219007D01*
X132837976Y-78414105D01*
X132823000Y-78566162D01*
X132823000Y-78855077D01*
X132769599Y-78954985D01*
X132726027Y-79098622D01*
X132711314Y-79248000D01*
X132715001Y-79285433D01*
X132715000Y-81847928D01*
X132587000Y-81847928D01*
X132462518Y-81860188D01*
X132342820Y-81896498D01*
X132232506Y-81955463D01*
X132207000Y-81976395D01*
X132181494Y-81955463D01*
X132071180Y-81896498D01*
X131951482Y-81860188D01*
X131827000Y-81847928D01*
X130047000Y-81847928D01*
X129922518Y-81860188D01*
X129802820Y-81896498D01*
X129692506Y-81955463D01*
X129595815Y-82034815D01*
X129516463Y-82131506D01*
X129457498Y-82241820D01*
X129421188Y-82361518D01*
X129408928Y-82486000D01*
X129408928Y-84006000D01*
X129421188Y-84130482D01*
X129457498Y-84250180D01*
X129516463Y-84360494D01*
X129595815Y-84457185D01*
X129692506Y-84536537D01*
X129802820Y-84595502D01*
X129922518Y-84631812D01*
X130047000Y-84644072D01*
X131827000Y-84644072D01*
X131951482Y-84631812D01*
X132071180Y-84595502D01*
X132181494Y-84536537D01*
X132207000Y-84515605D01*
X132232506Y-84536537D01*
X132342820Y-84595502D01*
X132462518Y-84631812D01*
X132587000Y-84644072D01*
X134367000Y-84644072D01*
X134491482Y-84631812D01*
X134611180Y-84595502D01*
X134721494Y-84536537D01*
X134747000Y-84515605D01*
X134772506Y-84536537D01*
X134882820Y-84595502D01*
X135002518Y-84631812D01*
X135127000Y-84644072D01*
X136907000Y-84644072D01*
X137031482Y-84631812D01*
X137151180Y-84595502D01*
X137261494Y-84536537D01*
X137340001Y-84472109D01*
X137340000Y-91549891D01*
X137261494Y-91485463D01*
X137151180Y-91426498D01*
X137031482Y-91390188D01*
X136907000Y-91377928D01*
X135127000Y-91377928D01*
X135002518Y-91390188D01*
X134882820Y-91426498D01*
X134772506Y-91485463D01*
X134747000Y-91506395D01*
X134721494Y-91485463D01*
X134611180Y-91426498D01*
X134491482Y-91390188D01*
X134367000Y-91377928D01*
X132587000Y-91377928D01*
X132462518Y-91390188D01*
X132342820Y-91426498D01*
X132232506Y-91485463D01*
X132207000Y-91506395D01*
X132181494Y-91485463D01*
X132071180Y-91426498D01*
X131951482Y-91390188D01*
X131827000Y-91377928D01*
X131699000Y-91377928D01*
X131699000Y-89826422D01*
X131702686Y-89788999D01*
X131698830Y-89749852D01*
X131687974Y-89639622D01*
X131644402Y-89495985D01*
X131573645Y-89363608D01*
X131478422Y-89247578D01*
X131449353Y-89223722D01*
X130803783Y-88578153D01*
X130803779Y-88578148D01*
X129851284Y-87625654D01*
X129827422Y-87596578D01*
X129711392Y-87501355D01*
X129579015Y-87430598D01*
X129435378Y-87387026D01*
X129323426Y-87376000D01*
X129323423Y-87376000D01*
X129286000Y-87372314D01*
X129248577Y-87376000D01*
X126553630Y-87376000D01*
X128058631Y-85871000D01*
X128117939Y-85871000D01*
X128317898Y-85831226D01*
X128506256Y-85753205D01*
X128675774Y-85639937D01*
X128819937Y-85495774D01*
X128933205Y-85326256D01*
X129011226Y-85137898D01*
X129051000Y-84937939D01*
X129051000Y-84734061D01*
X129011226Y-84534102D01*
X128933205Y-84345744D01*
X128819937Y-84176226D01*
X128675774Y-84032063D01*
X128506256Y-83918795D01*
X128317898Y-83840774D01*
X128117939Y-83801000D01*
X127914061Y-83801000D01*
X127714102Y-83840774D01*
X127525744Y-83918795D01*
X127356226Y-84032063D01*
X127212063Y-84176226D01*
X127098795Y-84345744D01*
X127020774Y-84534102D01*
X126981000Y-84734061D01*
X126981000Y-84793369D01*
X125668370Y-86106000D01*
X125650477Y-86106000D01*
X125675812Y-86022482D01*
X125688072Y-85898000D01*
X125685000Y-85883750D01*
X125526250Y-85725000D01*
X124377000Y-85725000D01*
X124377000Y-85745000D01*
X124123000Y-85745000D01*
X124123000Y-85725000D01*
X122973750Y-85725000D01*
X122815000Y-85883750D01*
X122811928Y-85898000D01*
X122824188Y-86022482D01*
X122860498Y-86142180D01*
X122919463Y-86252494D01*
X122943730Y-86282064D01*
X122871916Y-86416418D01*
X122827071Y-86564255D01*
X122811928Y-86718000D01*
X122811928Y-87018000D01*
X122827071Y-87171745D01*
X122871916Y-87319582D01*
X122944742Y-87455829D01*
X122983454Y-87503000D01*
X122944742Y-87550171D01*
X122871916Y-87686418D01*
X122827071Y-87834255D01*
X122811928Y-87988000D01*
X122811928Y-88288000D01*
X122821027Y-88380377D01*
X122783939Y-88373000D01*
X122580061Y-88373000D01*
X122380102Y-88412774D01*
X122191744Y-88490795D01*
X122022226Y-88604063D01*
X121878063Y-88748226D01*
X121764795Y-88917744D01*
X121686774Y-89106102D01*
X121647000Y-89306061D01*
X121647000Y-89509939D01*
X121686774Y-89709898D01*
X121764795Y-89898256D01*
X121878063Y-90067774D01*
X122022226Y-90211937D01*
X122191744Y-90325205D01*
X122201701Y-90329329D01*
X122201701Y-90400796D01*
X122160565Y-90434556D01*
X122145185Y-90415815D01*
X122048494Y-90336463D01*
X121938180Y-90277498D01*
X121818482Y-90241188D01*
X121694000Y-90228928D01*
X121492250Y-90232000D01*
X121333500Y-90390750D01*
X121333500Y-91440000D01*
X121353500Y-91440000D01*
X121353500Y-91694000D01*
X121333500Y-91694000D01*
X121333500Y-91714000D01*
X121079500Y-91714000D01*
X121079500Y-91694000D01*
X121059500Y-91694000D01*
X121059500Y-91440000D01*
X121079500Y-91440000D01*
X121079500Y-90390750D01*
X120920750Y-90232000D01*
X120719000Y-90228928D01*
X120594518Y-90241188D01*
X120474820Y-90277498D01*
X120364506Y-90336463D01*
X120267815Y-90415815D01*
X120204008Y-90493564D01*
X120198792Y-90487208D01*
X120065164Y-90377542D01*
X119912709Y-90296053D01*
X119747285Y-90245872D01*
X119575250Y-90228928D01*
X119087750Y-90228928D01*
X118915715Y-90245872D01*
X118750291Y-90296053D01*
X118597836Y-90377542D01*
X118464208Y-90487208D01*
X118354542Y-90620836D01*
X118323987Y-90678000D01*
X118097236Y-90678000D01*
X117759452Y-90340216D01*
X117853745Y-90330929D01*
X118001582Y-90286084D01*
X118137829Y-90213258D01*
X118257251Y-90115251D01*
X118355258Y-89995829D01*
X118428084Y-89859582D01*
X118472929Y-89711745D01*
X118488072Y-89558000D01*
X118488072Y-89258000D01*
X118472929Y-89104255D01*
X118428084Y-88956418D01*
X118391245Y-88887498D01*
X118530015Y-88845402D01*
X118662392Y-88774645D01*
X118778422Y-88679422D01*
X118802284Y-88650346D01*
X119384346Y-88068284D01*
X119413422Y-88044422D01*
X119499449Y-87939598D01*
X119508645Y-87928393D01*
X119562029Y-87828518D01*
X119579402Y-87796015D01*
X119622974Y-87652378D01*
X119634000Y-87540426D01*
X119634000Y-87540423D01*
X119637686Y-87503000D01*
X119634000Y-87465577D01*
X119634000Y-87188711D01*
X119675937Y-87146774D01*
X119789205Y-86977256D01*
X119867226Y-86788898D01*
X119907000Y-86588939D01*
X119907000Y-86385061D01*
X119867226Y-86185102D01*
X119789205Y-85996744D01*
X119675937Y-85827226D01*
X119531774Y-85683063D01*
X119362256Y-85569795D01*
X119173898Y-85491774D01*
X118973939Y-85452000D01*
X118770061Y-85452000D01*
X118570102Y-85491774D01*
X118488072Y-85525752D01*
X118488072Y-85448000D01*
X118473298Y-85298000D01*
X122811928Y-85298000D01*
X122815000Y-85312250D01*
X122973750Y-85471000D01*
X124123000Y-85471000D01*
X124123000Y-84821750D01*
X124377000Y-84821750D01*
X124377000Y-85471000D01*
X125526250Y-85471000D01*
X125685000Y-85312250D01*
X125688072Y-85298000D01*
X125675812Y-85173518D01*
X125639502Y-85053820D01*
X125580537Y-84943506D01*
X125501185Y-84846815D01*
X125404494Y-84767463D01*
X125294180Y-84708498D01*
X125174482Y-84672188D01*
X125050000Y-84659928D01*
X124535750Y-84663000D01*
X124377000Y-84821750D01*
X124123000Y-84821750D01*
X123964250Y-84663000D01*
X123450000Y-84659928D01*
X123325518Y-84672188D01*
X123205820Y-84708498D01*
X123095506Y-84767463D01*
X122998815Y-84846815D01*
X122919463Y-84943506D01*
X122860498Y-85053820D01*
X122824188Y-85173518D01*
X122811928Y-85298000D01*
X118473298Y-85298000D01*
X118472929Y-85294255D01*
X118449494Y-85217000D01*
X119769615Y-85217000D01*
X119807038Y-85220686D01*
X119844461Y-85217000D01*
X119844464Y-85217000D01*
X119956416Y-85205974D01*
X120100053Y-85162402D01*
X120232430Y-85091645D01*
X120348460Y-84996422D01*
X120372322Y-84967346D01*
X122724631Y-82615038D01*
X122783939Y-82615038D01*
X122983898Y-82575264D01*
X123172256Y-82497243D01*
X123341774Y-82383975D01*
X123485937Y-82239812D01*
X123599205Y-82070294D01*
X123677226Y-81881936D01*
X123717000Y-81681977D01*
X123717000Y-81478099D01*
X123677226Y-81278140D01*
X123599205Y-81089782D01*
X123485937Y-80920264D01*
X123361915Y-80796242D01*
X123438709Y-80772947D01*
X123591164Y-80691458D01*
X123724792Y-80581792D01*
X123834458Y-80448164D01*
X123915947Y-80295709D01*
X123925566Y-80264000D01*
X125739040Y-80264000D01*
X125749431Y-80369500D01*
X125797122Y-80526716D01*
X125874569Y-80671608D01*
X125978794Y-80798606D01*
X126105792Y-80902831D01*
X126250684Y-80980278D01*
X126407900Y-81027969D01*
X126571400Y-81044072D01*
X126971400Y-81044072D01*
X127134900Y-81027969D01*
X127292116Y-80980278D01*
X127437008Y-80902831D01*
X127463294Y-80881259D01*
X127623408Y-80966841D01*
X127818506Y-81026024D01*
X128021400Y-81046007D01*
X128224295Y-81026024D01*
X128419393Y-80966841D01*
X128599197Y-80870734D01*
X128756796Y-80741396D01*
X128886134Y-80583797D01*
X128982241Y-80403992D01*
X129041424Y-80208894D01*
X129056400Y-80056837D01*
X129056400Y-79455162D01*
X129041424Y-79303105D01*
X128982241Y-79108007D01*
X128886134Y-78928203D01*
X128756796Y-78770604D01*
X128599197Y-78641266D01*
X128419392Y-78545159D01*
X128224294Y-78485976D01*
X128021400Y-78465993D01*
X127818505Y-78485976D01*
X127623407Y-78545159D01*
X127463294Y-78630741D01*
X127437008Y-78609169D01*
X127292116Y-78531722D01*
X127134900Y-78484031D01*
X126971400Y-78467928D01*
X126571400Y-78467928D01*
X126407900Y-78484031D01*
X126250684Y-78531722D01*
X126105792Y-78609169D01*
X125978794Y-78713394D01*
X125956959Y-78740000D01*
X123925566Y-78740000D01*
X123915947Y-78708291D01*
X123834458Y-78555836D01*
X123724792Y-78422208D01*
X123591164Y-78312542D01*
X123438709Y-78231053D01*
X123273285Y-78180872D01*
X123101250Y-78163928D01*
X122613750Y-78163928D01*
X122441715Y-78180872D01*
X122276291Y-78231053D01*
X122123836Y-78312542D01*
X121990208Y-78422208D01*
X121984992Y-78428564D01*
X121921185Y-78350815D01*
X121824494Y-78271463D01*
X121714180Y-78212498D01*
X121594482Y-78176188D01*
X121470000Y-78163928D01*
X121268250Y-78167000D01*
X121109500Y-78325750D01*
X121109500Y-79375000D01*
X121129500Y-79375000D01*
X121129500Y-79629000D01*
X121109500Y-79629000D01*
X121109500Y-80678250D01*
X121268250Y-80837000D01*
X121470000Y-80840072D01*
X121594482Y-80827812D01*
X121714180Y-80791502D01*
X121824494Y-80732537D01*
X121921185Y-80653185D01*
X121984992Y-80575436D01*
X121990208Y-80581792D01*
X122123836Y-80691458D01*
X122137763Y-80698902D01*
X122022226Y-80776101D01*
X121878063Y-80920264D01*
X121764795Y-81089782D01*
X121686774Y-81278140D01*
X121647000Y-81478099D01*
X121647000Y-81537407D01*
X119491408Y-83693000D01*
X117668711Y-83693000D01*
X117626774Y-83651063D01*
X117457256Y-83537795D01*
X117268898Y-83459774D01*
X117068939Y-83420000D01*
X116865061Y-83420000D01*
X116665102Y-83459774D01*
X116476744Y-83537795D01*
X116307226Y-83651063D01*
X116163063Y-83795226D01*
X116049795Y-83964744D01*
X115971774Y-84153102D01*
X115944933Y-84288042D01*
X115944933Y-83245644D01*
X115986870Y-83203707D01*
X116100138Y-83034189D01*
X116178159Y-82845831D01*
X116217933Y-82645872D01*
X116217933Y-82441994D01*
X116178159Y-82242035D01*
X116100138Y-82053677D01*
X115986870Y-81884159D01*
X115842707Y-81739996D01*
X115673189Y-81626728D01*
X115484831Y-81548707D01*
X115284872Y-81508933D01*
X115080994Y-81508933D01*
X114881035Y-81548707D01*
X114692677Y-81626728D01*
X114523159Y-81739996D01*
X114378996Y-81884159D01*
X114265728Y-82053677D01*
X114187707Y-82242035D01*
X114147933Y-82441994D01*
X114147933Y-82645872D01*
X114187707Y-82845831D01*
X114265728Y-83034189D01*
X114378996Y-83203707D01*
X114420933Y-83245644D01*
X114420934Y-85215818D01*
X114256285Y-85165872D01*
X114084250Y-85148928D01*
X113596750Y-85148928D01*
X113424715Y-85165872D01*
X113259291Y-85216053D01*
X113106836Y-85297542D01*
X112973208Y-85407208D01*
X112903000Y-85492756D01*
X112832792Y-85407208D01*
X112699164Y-85297542D01*
X112546709Y-85216053D01*
X112381285Y-85165872D01*
X112209250Y-85148928D01*
X111721750Y-85148928D01*
X111549715Y-85165872D01*
X111384291Y-85216053D01*
X111231836Y-85297542D01*
X111098208Y-85407208D01*
X110988542Y-85540836D01*
X110907053Y-85693291D01*
X110897737Y-85724000D01*
X110500251Y-85724000D01*
X110477537Y-85681506D01*
X110398185Y-85584815D01*
X110301494Y-85505463D01*
X110191180Y-85446498D01*
X110071482Y-85410188D01*
X109947000Y-85397928D01*
X108747000Y-85397928D01*
X108622518Y-85410188D01*
X108502820Y-85446498D01*
X108392506Y-85505463D01*
X108295815Y-85584815D01*
X108216463Y-85681506D01*
X108184662Y-85741000D01*
X107638264Y-85741000D01*
X107628502Y-85708820D01*
X107569537Y-85598506D01*
X107490185Y-85501815D01*
X107393494Y-85422463D01*
X107283180Y-85363498D01*
X107163482Y-85327188D01*
X107039000Y-85314928D01*
X104539000Y-85314928D01*
X104414518Y-85327188D01*
X104294820Y-85363498D01*
X104205829Y-85411066D01*
X104224000Y-85319712D01*
X104224000Y-85104647D01*
X104294820Y-85142502D01*
X104414518Y-85178812D01*
X104539000Y-85191072D01*
X105503250Y-85188000D01*
X105662000Y-85029250D01*
X105662000Y-84130000D01*
X105916000Y-84130000D01*
X105916000Y-85029250D01*
X106074750Y-85188000D01*
X107039000Y-85191072D01*
X107163482Y-85178812D01*
X107283180Y-85142502D01*
X107393494Y-85083537D01*
X107490185Y-85004185D01*
X107569537Y-84907494D01*
X107628502Y-84797180D01*
X107664812Y-84677482D01*
X107677072Y-84553000D01*
X107674000Y-84288750D01*
X107515250Y-84130000D01*
X105916000Y-84130000D01*
X105662000Y-84130000D01*
X104062750Y-84130000D01*
X103904000Y-84288750D01*
X103902812Y-84390968D01*
X103794394Y-84282550D01*
X103600308Y-84152866D01*
X103384652Y-84063539D01*
X103155712Y-84018000D01*
X102922288Y-84018000D01*
X102693348Y-84063539D01*
X102477692Y-84152866D01*
X102283606Y-84282550D01*
X102118550Y-84447606D01*
X101988866Y-84641692D01*
X101899539Y-84857348D01*
X101854000Y-85086288D01*
X101854000Y-85319712D01*
X101899539Y-85548652D01*
X101988866Y-85764308D01*
X102118550Y-85958394D01*
X102283606Y-86123450D01*
X102477692Y-86253134D01*
X102693348Y-86342461D01*
X102922288Y-86388000D01*
X103155712Y-86388000D01*
X103384652Y-86342461D01*
X103600308Y-86253134D01*
X103794394Y-86123450D01*
X103900928Y-86016916D01*
X103900928Y-87053000D01*
X103913188Y-87177482D01*
X103949498Y-87297180D01*
X104008463Y-87407494D01*
X104086842Y-87503000D01*
X104008463Y-87598506D01*
X103949498Y-87708820D01*
X103913188Y-87828518D01*
X103900928Y-87953000D01*
X103900928Y-88989084D01*
X103794394Y-88882550D01*
X103600308Y-88752866D01*
X103384652Y-88663539D01*
X103155712Y-88618000D01*
X102922288Y-88618000D01*
X102693348Y-88663539D01*
X102477692Y-88752866D01*
X102283606Y-88882550D01*
X102118550Y-89047606D01*
X101988866Y-89241692D01*
X101899539Y-89457348D01*
X101854000Y-89686288D01*
X101854000Y-89919712D01*
X101899539Y-90148652D01*
X101988866Y-90364308D01*
X102118550Y-90558394D01*
X102283606Y-90723450D01*
X102477692Y-90853134D01*
X102693348Y-90942461D01*
X102922288Y-90988000D01*
X103155712Y-90988000D01*
X103384652Y-90942461D01*
X103600308Y-90853134D01*
X103794394Y-90723450D01*
X103900928Y-90616916D01*
X103900928Y-91553000D01*
X103907330Y-91618000D01*
X102161136Y-91618000D01*
X101928286Y-91640934D01*
X101629512Y-91731566D01*
X101354161Y-91878744D01*
X101112813Y-92076813D01*
X100914744Y-92318161D01*
X100767566Y-92593512D01*
X100676934Y-92892286D01*
X100660000Y-93064218D01*
X100660000Y-81941782D01*
X100676934Y-82113714D01*
X100767566Y-82412488D01*
X100914744Y-82687839D01*
X101112813Y-82929187D01*
X101354161Y-83127256D01*
X101629512Y-83274434D01*
X101928286Y-83365066D01*
X102161136Y-83388000D01*
X103907330Y-83388000D01*
X103900928Y-83453000D01*
X103904000Y-83717250D01*
X104062750Y-83876000D01*
X105662000Y-83876000D01*
X105662000Y-82976750D01*
X105916000Y-82976750D01*
X105916000Y-83876000D01*
X107515250Y-83876000D01*
X107674000Y-83717250D01*
X107674944Y-83636000D01*
X108108928Y-83636000D01*
X108121188Y-83760482D01*
X108157498Y-83880180D01*
X108216463Y-83990494D01*
X108295815Y-84087185D01*
X108392506Y-84166537D01*
X108502820Y-84225502D01*
X108622518Y-84261812D01*
X108747000Y-84274072D01*
X109061250Y-84271000D01*
X109220000Y-84112250D01*
X109220000Y-83313000D01*
X109474000Y-83313000D01*
X109474000Y-84112250D01*
X109632750Y-84271000D01*
X109947000Y-84274072D01*
X110071482Y-84261812D01*
X110191180Y-84225502D01*
X110301494Y-84166537D01*
X110398185Y-84087185D01*
X110477537Y-83990494D01*
X110536502Y-83880180D01*
X110572812Y-83760482D01*
X110585072Y-83636000D01*
X110582000Y-83471750D01*
X110423250Y-83313000D01*
X109474000Y-83313000D01*
X109220000Y-83313000D01*
X108270750Y-83313000D01*
X108112000Y-83471750D01*
X108108928Y-83636000D01*
X107674944Y-83636000D01*
X107677072Y-83453000D01*
X107664812Y-83328518D01*
X107628502Y-83208820D01*
X107569537Y-83098506D01*
X107490185Y-83001815D01*
X107393494Y-82922463D01*
X107283180Y-82863498D01*
X107163482Y-82827188D01*
X107039000Y-82814928D01*
X106074750Y-82818000D01*
X105916000Y-82976750D01*
X105662000Y-82976750D01*
X105503250Y-82818000D01*
X105057601Y-82816580D01*
X105123731Y-82736000D01*
X108108928Y-82736000D01*
X108112000Y-82900250D01*
X108270750Y-83059000D01*
X109220000Y-83059000D01*
X109220000Y-82259750D01*
X109474000Y-82259750D01*
X109474000Y-83059000D01*
X110423250Y-83059000D01*
X110582000Y-82900250D01*
X110585072Y-82736000D01*
X110572812Y-82611518D01*
X110536502Y-82491820D01*
X110477537Y-82381506D01*
X110398185Y-82284815D01*
X110301494Y-82205463D01*
X110191180Y-82146498D01*
X110071482Y-82110188D01*
X109947000Y-82097928D01*
X109632750Y-82101000D01*
X109474000Y-82259750D01*
X109220000Y-82259750D01*
X109061250Y-82101000D01*
X108747000Y-82097928D01*
X108622518Y-82110188D01*
X108502820Y-82146498D01*
X108392506Y-82205463D01*
X108295815Y-82284815D01*
X108216463Y-82381506D01*
X108157498Y-82491820D01*
X108121188Y-82611518D01*
X108108928Y-82736000D01*
X105123731Y-82736000D01*
X105163256Y-82687839D01*
X105310434Y-82412488D01*
X105401066Y-82113714D01*
X105431669Y-81803000D01*
X105401066Y-81492286D01*
X105310434Y-81193512D01*
X105163256Y-80918161D01*
X104965187Y-80676813D01*
X104817976Y-80556000D01*
X105884928Y-80556000D01*
X105897188Y-80680482D01*
X105933498Y-80800180D01*
X105992463Y-80910494D01*
X106071815Y-81007185D01*
X106168506Y-81086537D01*
X106278820Y-81145502D01*
X106398518Y-81181812D01*
X106523000Y-81194072D01*
X107537250Y-81191000D01*
X107696000Y-81032250D01*
X107696000Y-79883000D01*
X106046750Y-79883000D01*
X105888000Y-80041750D01*
X105884928Y-80556000D01*
X104817976Y-80556000D01*
X104723839Y-80478744D01*
X104448488Y-80331566D01*
X104149714Y-80240934D01*
X103916864Y-80218000D01*
X102161136Y-80218000D01*
X101928286Y-80240934D01*
X101629512Y-80331566D01*
X101354161Y-80478744D01*
X101112813Y-80676813D01*
X100914744Y-80918161D01*
X100767566Y-81193512D01*
X100676934Y-81492286D01*
X100660000Y-81664218D01*
X100660000Y-80273380D01*
X101977380Y-78956000D01*
X105884928Y-78956000D01*
X105888000Y-79470250D01*
X106046750Y-79629000D01*
X107696000Y-79629000D01*
X107696000Y-78479750D01*
X107950000Y-78479750D01*
X107950000Y-79629000D01*
X107970000Y-79629000D01*
X107970000Y-79883000D01*
X107950000Y-79883000D01*
X107950000Y-81032250D01*
X108108750Y-81191000D01*
X109123000Y-81194072D01*
X109247482Y-81181812D01*
X109367180Y-81145502D01*
X109477494Y-81086537D01*
X109574185Y-81007185D01*
X109653537Y-80910494D01*
X109682031Y-80857187D01*
X109745038Y-80933962D01*
X109879614Y-81044405D01*
X110033150Y-81126472D01*
X110199746Y-81177008D01*
X110373000Y-81194072D01*
X112473000Y-81194072D01*
X112646254Y-81177008D01*
X112812850Y-81126472D01*
X112966386Y-81044405D01*
X113100962Y-80933962D01*
X113211405Y-80799386D01*
X113293472Y-80645850D01*
X113293730Y-80645000D01*
X113640532Y-80645000D01*
X113682744Y-80673205D01*
X113871102Y-80751226D01*
X114071061Y-80791000D01*
X114274939Y-80791000D01*
X114474898Y-80751226D01*
X114663256Y-80673205D01*
X114832774Y-80559937D01*
X114976937Y-80415774D01*
X115090205Y-80246256D01*
X115168226Y-80057898D01*
X115178130Y-80008105D01*
X115193928Y-79992308D01*
X115193928Y-80764000D01*
X115206188Y-80888482D01*
X115242498Y-81008180D01*
X115301463Y-81118494D01*
X115380815Y-81215185D01*
X115477506Y-81294537D01*
X115587820Y-81353502D01*
X115707518Y-81389812D01*
X115832000Y-81402072D01*
X116832000Y-81402072D01*
X116956482Y-81389812D01*
X117076180Y-81353502D01*
X117159226Y-81309112D01*
X117270933Y-81355383D01*
X117490212Y-81399000D01*
X117713788Y-81399000D01*
X117933067Y-81355383D01*
X118139624Y-81269824D01*
X118237000Y-81204759D01*
X118334376Y-81269824D01*
X118540933Y-81355383D01*
X118760212Y-81399000D01*
X118983788Y-81399000D01*
X119203067Y-81355383D01*
X119409624Y-81269824D01*
X119595520Y-81145612D01*
X119753612Y-80987520D01*
X119877824Y-80801624D01*
X119963383Y-80595067D01*
X119969769Y-80562960D01*
X120043815Y-80653185D01*
X120140506Y-80732537D01*
X120250820Y-80791502D01*
X120370518Y-80827812D01*
X120495000Y-80840072D01*
X120696750Y-80837000D01*
X120855500Y-80678250D01*
X120855500Y-79629000D01*
X120835500Y-79629000D01*
X120835500Y-79375000D01*
X120855500Y-79375000D01*
X120855500Y-78325750D01*
X120696750Y-78167000D01*
X120495000Y-78163928D01*
X120370518Y-78176188D01*
X120250820Y-78212498D01*
X120140506Y-78271463D01*
X120043815Y-78350815D01*
X119964463Y-78447506D01*
X119910696Y-78548095D01*
X119886210Y-78484471D01*
X119767318Y-78296399D01*
X119614020Y-78135135D01*
X119432206Y-78006877D01*
X119228864Y-77916554D01*
X119173874Y-77899881D01*
X118999000Y-78026046D01*
X118999000Y-78867000D01*
X119019000Y-78867000D01*
X119019000Y-79121000D01*
X118999000Y-79121000D01*
X118999000Y-79132026D01*
X118983788Y-79129000D01*
X118760212Y-79129000D01*
X118745000Y-79132026D01*
X118745000Y-79121000D01*
X118733974Y-79121000D01*
X118737000Y-79105788D01*
X118737000Y-78882212D01*
X118733974Y-78867000D01*
X118745000Y-78867000D01*
X118745000Y-78026046D01*
X118570126Y-77899881D01*
X118515136Y-77916554D01*
X118311794Y-78006877D01*
X118241658Y-78056353D01*
X118139624Y-77988176D01*
X117933067Y-77902617D01*
X117713788Y-77859000D01*
X117490212Y-77859000D01*
X117270933Y-77902617D01*
X117064376Y-77988176D01*
X116967000Y-78053241D01*
X116869624Y-77988176D01*
X116663067Y-77902617D01*
X116443788Y-77859000D01*
X116220212Y-77859000D01*
X116000933Y-77902617D01*
X115794376Y-77988176D01*
X115619537Y-78105000D01*
X114978660Y-78105000D01*
X114935000Y-78100700D01*
X114891340Y-78105000D01*
X114891333Y-78105000D01*
X114779377Y-78116027D01*
X114760725Y-78117864D01*
X114709892Y-78133284D01*
X114593149Y-78168697D01*
X114438709Y-78251247D01*
X114303341Y-78362341D01*
X114275505Y-78396259D01*
X113920895Y-78750870D01*
X113871102Y-78760774D01*
X113682744Y-78838795D01*
X113640532Y-78867000D01*
X113293730Y-78867000D01*
X113293472Y-78866150D01*
X113211405Y-78712614D01*
X113100962Y-78578038D01*
X112966386Y-78467595D01*
X112812850Y-78385528D01*
X112646254Y-78334992D01*
X112473000Y-78317928D01*
X110373000Y-78317928D01*
X110199746Y-78334992D01*
X110033150Y-78385528D01*
X109879614Y-78467595D01*
X109745038Y-78578038D01*
X109682031Y-78654813D01*
X109653537Y-78601506D01*
X109574185Y-78504815D01*
X109477494Y-78425463D01*
X109367180Y-78366498D01*
X109247482Y-78330188D01*
X109123000Y-78317928D01*
X108108750Y-78321000D01*
X107950000Y-78479750D01*
X107696000Y-78479750D01*
X107537250Y-78321000D01*
X106523000Y-78317928D01*
X106398518Y-78330188D01*
X106278820Y-78366498D01*
X106168506Y-78425463D01*
X106071815Y-78504815D01*
X105992463Y-78601506D01*
X105933498Y-78711820D01*
X105897188Y-78831518D01*
X105884928Y-78956000D01*
X101977380Y-78956000D01*
X103273381Y-77660000D01*
X133452822Y-77660000D01*
X133280204Y-77752266D01*
M02*
