G04 #@! TF.GenerationSoftware,KiCad,Pcbnew,5.1.6+dfsg1-1~bpo9+1*
G04 #@! TF.CreationDate,2022-04-04T20:25:57+02:00*
G04 #@! TF.ProjectId,sdrtrx-pttrelais,73647274-7278-42d7-9074-7472656c6169,rev?*
G04 #@! TF.SameCoordinates,Original*
G04 #@! TF.FileFunction,Legend,Bot*
G04 #@! TF.FilePolarity,Positive*
%FSLAX46Y46*%
G04 Gerber Fmt 4.6, Leading zero omitted, Abs format (unit mm)*
G04 Created by KiCad (PCBNEW 5.1.6+dfsg1-1~bpo9+1) date 2022-04-04 20:25:57*
%MOMM*%
%LPD*%
G01*
G04 APERTURE LIST*
%ADD10C,0.150000*%
%ADD11C,0.120000*%
%ADD12O,0.900000X1.400000*%
%ADD13R,1.000000X1.300000*%
%ADD14O,1.100000X1.100000*%
%ADD15R,1.100000X1.100000*%
%ADD16C,1.600000*%
%ADD17C,1.200000*%
%ADD18O,3.600000X2.000000*%
G04 APERTURE END LIST*
D10*
X132532380Y-77970190D02*
X131532380Y-77970190D01*
X131532380Y-78351142D01*
X131580000Y-78446380D01*
X131627619Y-78494000D01*
X131722857Y-78541619D01*
X131865714Y-78541619D01*
X131960952Y-78494000D01*
X132008571Y-78446380D01*
X132056190Y-78351142D01*
X132056190Y-77970190D01*
X131532380Y-78827333D02*
X131532380Y-79398761D01*
X132532380Y-79113047D02*
X131532380Y-79113047D01*
X131532380Y-79589238D02*
X131532380Y-80160666D01*
X132532380Y-79874952D02*
X131532380Y-79874952D01*
X136279000Y-78486095D02*
X136231380Y-78390857D01*
X136231380Y-78248000D01*
X136279000Y-78105142D01*
X136374238Y-78009904D01*
X136469476Y-77962285D01*
X136659952Y-77914666D01*
X136802809Y-77914666D01*
X136993285Y-77962285D01*
X137088523Y-78009904D01*
X137183761Y-78105142D01*
X137231380Y-78248000D01*
X137231380Y-78343238D01*
X137183761Y-78486095D01*
X137136142Y-78533714D01*
X136802809Y-78533714D01*
X136802809Y-78343238D01*
X137231380Y-78962285D02*
X136231380Y-78962285D01*
X137231380Y-79533714D01*
X136231380Y-79533714D01*
X137231380Y-80009904D02*
X136231380Y-80009904D01*
X136231380Y-80248000D01*
X136279000Y-80390857D01*
X136374238Y-80486095D01*
X136469476Y-80533714D01*
X136659952Y-80581333D01*
X136802809Y-80581333D01*
X136993285Y-80533714D01*
X137088523Y-80486095D01*
X137183761Y-80390857D01*
X137231380Y-80248000D01*
X137231380Y-80009904D01*
X110777280Y-79650152D02*
X110729661Y-79554914D01*
X110682042Y-79507295D01*
X110586804Y-79459676D01*
X110301090Y-79459676D01*
X110205852Y-79507295D01*
X110158233Y-79554914D01*
X110110614Y-79650152D01*
X110110614Y-79793009D01*
X110158233Y-79888247D01*
X110205852Y-79935866D01*
X110301090Y-79983485D01*
X110586804Y-79983485D01*
X110682042Y-79935866D01*
X110729661Y-79888247D01*
X110777280Y-79793009D01*
X110777280Y-79650152D01*
X110729661Y-80793009D02*
X110777280Y-80697771D01*
X110777280Y-80507295D01*
X110729661Y-80412057D01*
X110634423Y-80364438D01*
X110253471Y-80364438D01*
X110158233Y-80412057D01*
X110110614Y-80507295D01*
X110110614Y-80697771D01*
X110158233Y-80793009D01*
X110253471Y-80840628D01*
X110348709Y-80840628D01*
X110443947Y-80364438D01*
X110777280Y-81316819D02*
X110777280Y-81507295D01*
X110729661Y-81602533D01*
X110682042Y-81650152D01*
X110539185Y-81745390D01*
X110348709Y-81793009D01*
X109967757Y-81793009D01*
X109872519Y-81745390D01*
X109824900Y-81697771D01*
X109777280Y-81602533D01*
X109777280Y-81412057D01*
X109824900Y-81316819D01*
X109872519Y-81269200D01*
X109967757Y-81221580D01*
X110205852Y-81221580D01*
X110301090Y-81269200D01*
X110348709Y-81316819D01*
X110396328Y-81412057D01*
X110396328Y-81602533D01*
X110348709Y-81697771D01*
X110301090Y-81745390D01*
X110205852Y-81793009D01*
X110777280Y-82221580D02*
X110110614Y-82221580D01*
X110301090Y-82221580D02*
X110205852Y-82269200D01*
X110158233Y-82316819D01*
X110110614Y-82412057D01*
X110110614Y-82507295D01*
X110777280Y-82840628D02*
X110110614Y-82840628D01*
X109777280Y-82840628D02*
X109824900Y-82793009D01*
X109872519Y-82840628D01*
X109824900Y-82888247D01*
X109777280Y-82840628D01*
X109872519Y-82840628D01*
X110777280Y-83316819D02*
X110110614Y-83316819D01*
X110301090Y-83316819D02*
X110205852Y-83364438D01*
X110158233Y-83412057D01*
X110110614Y-83507295D01*
X110110614Y-83602533D01*
X109872519Y-84650152D02*
X109824900Y-84697771D01*
X109777280Y-84793009D01*
X109777280Y-85031104D01*
X109824900Y-85126342D01*
X109872519Y-85173961D01*
X109967757Y-85221580D01*
X110062995Y-85221580D01*
X110205852Y-85173961D01*
X110777280Y-84602533D01*
X110777280Y-85221580D01*
X109777280Y-85840628D02*
X109777280Y-85935866D01*
X109824900Y-86031104D01*
X109872519Y-86078723D01*
X109967757Y-86126342D01*
X110158233Y-86173961D01*
X110396328Y-86173961D01*
X110586804Y-86126342D01*
X110682042Y-86078723D01*
X110729661Y-86031104D01*
X110777280Y-85935866D01*
X110777280Y-85840628D01*
X110729661Y-85745390D01*
X110682042Y-85697771D01*
X110586804Y-85650152D01*
X110396328Y-85602533D01*
X110158233Y-85602533D01*
X109967757Y-85650152D01*
X109872519Y-85697771D01*
X109824900Y-85745390D01*
X109777280Y-85840628D01*
X109872519Y-86554914D02*
X109824900Y-86602533D01*
X109777280Y-86697771D01*
X109777280Y-86935866D01*
X109824900Y-87031104D01*
X109872519Y-87078723D01*
X109967757Y-87126342D01*
X110062995Y-87126342D01*
X110205852Y-87078723D01*
X110777280Y-86507295D01*
X110777280Y-87126342D01*
X110777280Y-88078723D02*
X110777280Y-87507295D01*
X110777280Y-87793009D02*
X109777280Y-87793009D01*
X109920138Y-87697771D01*
X110015376Y-87602533D01*
X110062995Y-87507295D01*
D11*
X125531378Y-87260500D02*
X125014222Y-87260500D01*
X125531378Y-85840500D02*
X125014222Y-85840500D01*
X125531378Y-90029100D02*
X125014222Y-90029100D01*
X125531378Y-88609100D02*
X125014222Y-88609100D01*
X129423600Y-87588600D02*
X133323600Y-87588600D01*
X129423600Y-85588600D02*
X133323600Y-85588600D01*
X129423600Y-87588600D02*
X129423600Y-85588600D01*
X133898200Y-88344500D02*
X129998200Y-88344500D01*
X133898200Y-90344500D02*
X129998200Y-90344500D01*
X133898200Y-88344500D02*
X133898200Y-90344500D01*
X119885500Y-92786200D02*
G75*
G03*
X119885500Y-92786200I-950000J0D01*
G01*
X135912900Y-92011500D02*
G75*
G03*
X135912900Y-92011500I-950000J0D01*
G01*
X120584000Y-83693000D02*
G75*
G03*
X120584000Y-83693000I-950000J0D01*
G01*
D10*
X125830866Y-85250280D02*
X126164200Y-84774090D01*
X126402295Y-85250280D02*
X126402295Y-84250280D01*
X126021342Y-84250280D01*
X125926104Y-84297900D01*
X125878485Y-84345519D01*
X125830866Y-84440757D01*
X125830866Y-84583614D01*
X125878485Y-84678852D01*
X125926104Y-84726471D01*
X126021342Y-84774090D01*
X126402295Y-84774090D01*
X125259438Y-84678852D02*
X125354676Y-84631233D01*
X125402295Y-84583614D01*
X125449914Y-84488376D01*
X125449914Y-84440757D01*
X125402295Y-84345519D01*
X125354676Y-84297900D01*
X125259438Y-84250280D01*
X125068961Y-84250280D01*
X124973723Y-84297900D01*
X124926104Y-84345519D01*
X124878485Y-84440757D01*
X124878485Y-84488376D01*
X124926104Y-84583614D01*
X124973723Y-84631233D01*
X125068961Y-84678852D01*
X125259438Y-84678852D01*
X125354676Y-84726471D01*
X125402295Y-84774090D01*
X125449914Y-84869328D01*
X125449914Y-85059804D01*
X125402295Y-85155042D01*
X125354676Y-85202661D01*
X125259438Y-85250280D01*
X125068961Y-85250280D01*
X124973723Y-85202661D01*
X124926104Y-85155042D01*
X124878485Y-85059804D01*
X124878485Y-84869328D01*
X124926104Y-84774090D01*
X124973723Y-84726471D01*
X125068961Y-84678852D01*
X124982266Y-91724080D02*
X125315600Y-91247890D01*
X125553695Y-91724080D02*
X125553695Y-90724080D01*
X125172742Y-90724080D01*
X125077504Y-90771700D01*
X125029885Y-90819319D01*
X124982266Y-90914557D01*
X124982266Y-91057414D01*
X125029885Y-91152652D01*
X125077504Y-91200271D01*
X125172742Y-91247890D01*
X125553695Y-91247890D01*
X124648933Y-90724080D02*
X123982266Y-90724080D01*
X124410838Y-91724080D01*
X133223695Y-85169180D02*
X133223695Y-84169180D01*
X132985600Y-84169180D01*
X132842742Y-84216800D01*
X132747504Y-84312038D01*
X132699885Y-84407276D01*
X132652266Y-84597752D01*
X132652266Y-84740609D01*
X132699885Y-84931085D01*
X132747504Y-85026323D01*
X132842742Y-85121561D01*
X132985600Y-85169180D01*
X133223695Y-85169180D01*
X131795123Y-84502514D02*
X131795123Y-85169180D01*
X132033219Y-84121561D02*
X132271314Y-84835847D01*
X131652266Y-84835847D01*
X131967195Y-91930480D02*
X131967195Y-90930480D01*
X131729100Y-90930480D01*
X131586242Y-90978100D01*
X131491004Y-91073338D01*
X131443385Y-91168576D01*
X131395766Y-91359052D01*
X131395766Y-91501909D01*
X131443385Y-91692385D01*
X131491004Y-91787623D01*
X131586242Y-91882861D01*
X131729100Y-91930480D01*
X131967195Y-91930480D01*
X131062433Y-90930480D02*
X130443385Y-90930480D01*
X130776719Y-91311433D01*
X130633861Y-91311433D01*
X130538623Y-91359052D01*
X130491004Y-91406671D01*
X130443385Y-91501909D01*
X130443385Y-91740004D01*
X130491004Y-91835242D01*
X130538623Y-91882861D01*
X130633861Y-91930480D01*
X130919576Y-91930480D01*
X131014814Y-91882861D01*
X131062433Y-91835242D01*
X117505004Y-93000580D02*
X116933576Y-93000580D01*
X117219290Y-94000580D02*
X117219290Y-93000580D01*
X116600242Y-94000580D02*
X116600242Y-93000580D01*
X116219290Y-93000580D01*
X116124052Y-93048200D01*
X116076433Y-93095819D01*
X116028814Y-93191057D01*
X116028814Y-93333914D01*
X116076433Y-93429152D01*
X116124052Y-93476771D01*
X116219290Y-93524390D01*
X116600242Y-93524390D01*
X115695480Y-93000580D02*
X115076433Y-93000580D01*
X115409766Y-93381533D01*
X115266909Y-93381533D01*
X115171671Y-93429152D01*
X115124052Y-93476771D01*
X115076433Y-93572009D01*
X115076433Y-93810104D01*
X115124052Y-93905342D01*
X115171671Y-93952961D01*
X115266909Y-94000580D01*
X115552623Y-94000580D01*
X115647861Y-93952961D01*
X115695480Y-93905342D01*
X133735604Y-92479880D02*
X133164176Y-92479880D01*
X133449890Y-93479880D02*
X133449890Y-92479880D01*
X132830842Y-93479880D02*
X132830842Y-92479880D01*
X132449890Y-92479880D01*
X132354652Y-92527500D01*
X132307033Y-92575119D01*
X132259414Y-92670357D01*
X132259414Y-92813214D01*
X132307033Y-92908452D01*
X132354652Y-92956071D01*
X132449890Y-93003690D01*
X132830842Y-93003690D01*
X131878461Y-92575119D02*
X131830842Y-92527500D01*
X131735604Y-92479880D01*
X131497509Y-92479880D01*
X131402271Y-92527500D01*
X131354652Y-92575119D01*
X131307033Y-92670357D01*
X131307033Y-92765595D01*
X131354652Y-92908452D01*
X131926080Y-93479880D01*
X131307033Y-93479880D01*
X120895904Y-81113380D02*
X120324476Y-81113380D01*
X120610190Y-82113380D02*
X120610190Y-81113380D01*
X119991142Y-82113380D02*
X119991142Y-81113380D01*
X119610190Y-81113380D01*
X119514952Y-81161000D01*
X119467333Y-81208619D01*
X119419714Y-81303857D01*
X119419714Y-81446714D01*
X119467333Y-81541952D01*
X119514952Y-81589571D01*
X119610190Y-81637190D01*
X119991142Y-81637190D01*
X118467333Y-82113380D02*
X119038761Y-82113380D01*
X118753047Y-82113380D02*
X118753047Y-81113380D01*
X118848285Y-81256238D01*
X118943523Y-81351476D01*
X119038761Y-81399095D01*
%LPC*%
G36*
G01*
X124872800Y-86069250D02*
X124872800Y-87031750D01*
G75*
G02*
X124604050Y-87300500I-268750J0D01*
G01*
X124066550Y-87300500D01*
G75*
G02*
X123797800Y-87031750I0J268750D01*
G01*
X123797800Y-86069250D01*
G75*
G02*
X124066550Y-85800500I268750J0D01*
G01*
X124604050Y-85800500D01*
G75*
G02*
X124872800Y-86069250I0J-268750D01*
G01*
G37*
G36*
G01*
X126747800Y-86069250D02*
X126747800Y-87031750D01*
G75*
G02*
X126479050Y-87300500I-268750J0D01*
G01*
X125941550Y-87300500D01*
G75*
G02*
X125672800Y-87031750I0J268750D01*
G01*
X125672800Y-86069250D01*
G75*
G02*
X125941550Y-85800500I268750J0D01*
G01*
X126479050Y-85800500D01*
G75*
G02*
X126747800Y-86069250I0J-268750D01*
G01*
G37*
G36*
G01*
X124872800Y-88837850D02*
X124872800Y-89800350D01*
G75*
G02*
X124604050Y-90069100I-268750J0D01*
G01*
X124066550Y-90069100D01*
G75*
G02*
X123797800Y-89800350I0J268750D01*
G01*
X123797800Y-88837850D01*
G75*
G02*
X124066550Y-88569100I268750J0D01*
G01*
X124604050Y-88569100D01*
G75*
G02*
X124872800Y-88837850I0J-268750D01*
G01*
G37*
G36*
G01*
X126747800Y-88837850D02*
X126747800Y-89800350D01*
G75*
G02*
X126479050Y-90069100I-268750J0D01*
G01*
X125941550Y-90069100D01*
G75*
G02*
X125672800Y-89800350I0J268750D01*
G01*
X125672800Y-88837850D01*
G75*
G02*
X125941550Y-88569100I268750J0D01*
G01*
X126479050Y-88569100D01*
G75*
G02*
X126747800Y-88837850I0J-268750D01*
G01*
G37*
D12*
X128021400Y-79756000D03*
G36*
G01*
X126321400Y-80231000D02*
X126321400Y-79281000D01*
G75*
G02*
X126546400Y-79056000I225000J0D01*
G01*
X126996400Y-79056000D01*
G75*
G02*
X127221400Y-79281000I0J-225000D01*
G01*
X127221400Y-80231000D01*
G75*
G02*
X126996400Y-80456000I-225000J0D01*
G01*
X126546400Y-80456000D01*
G75*
G02*
X126321400Y-80231000I0J225000D01*
G01*
G37*
D13*
X133323600Y-86588600D03*
X130023600Y-86588600D03*
X129998200Y-89344500D03*
X133298200Y-89344500D03*
D14*
X118872000Y-78994000D03*
X118872000Y-80264000D03*
X117602000Y-78994000D03*
X117602000Y-80264000D03*
X116332000Y-78994000D03*
D15*
X116332000Y-80264000D03*
D16*
X118935500Y-92786200D03*
X134962900Y-92011500D03*
X119634000Y-83693000D03*
D12*
X133858000Y-78867000D03*
G36*
G01*
X135558000Y-78392000D02*
X135558000Y-79342000D01*
G75*
G02*
X135333000Y-79567000I-225000J0D01*
G01*
X134883000Y-79567000D01*
G75*
G02*
X134658000Y-79342000I0J225000D01*
G01*
X134658000Y-78392000D01*
G75*
G02*
X134883000Y-78167000I225000J0D01*
G01*
X135333000Y-78167000D01*
G75*
G02*
X135558000Y-78392000I0J-225000D01*
G01*
G37*
D17*
X103039000Y-85203000D03*
X103039000Y-89803000D03*
D18*
X103039000Y-81803000D03*
X103039000Y-93203000D03*
M02*
