G04 #@! TF.GenerationSoftware,KiCad,Pcbnew,5.1.6+dfsg1-1~bpo9+1*
G04 #@! TF.CreationDate,2022-04-20T22:27:00+02:00*
G04 #@! TF.ProjectId,sdrtrx-powerswitch,73647274-7278-42d7-906f-776572737769,rev?*
G04 #@! TF.SameCoordinates,Original*
G04 #@! TF.FileFunction,Paste,Top*
G04 #@! TF.FilePolarity,Positive*
%FSLAX46Y46*%
G04 Gerber Fmt 4.6, Leading zero omitted, Abs format (unit mm)*
G04 Created by KiCad (PCBNEW 5.1.6+dfsg1-1~bpo9+1) date 2022-04-20 22:27:00*
%MOMM*%
%LPD*%
G01*
G04 APERTURE LIST*
%ADD10R,1.300000X1.800000*%
%ADD11R,0.900000X1.200000*%
%ADD12R,0.250000X1.100000*%
%ADD13R,0.510000X0.400000*%
G04 APERTURE END LIST*
G36*
G01*
X92725000Y-113825000D02*
X97675000Y-113825000D01*
G75*
G02*
X97925000Y-114075000I0J-250000D01*
G01*
X97925000Y-115675000D01*
G75*
G02*
X97675000Y-115925000I-250000J0D01*
G01*
X92725000Y-115925000D01*
G75*
G02*
X92475000Y-115675000I0J250000D01*
G01*
X92475000Y-114075000D01*
G75*
G02*
X92725000Y-113825000I250000J0D01*
G01*
G37*
G36*
G01*
X92725000Y-106875000D02*
X97675000Y-106875000D01*
G75*
G02*
X97925000Y-107125000I0J-250000D01*
G01*
X97925000Y-108725000D01*
G75*
G02*
X97675000Y-108975000I-250000J0D01*
G01*
X92725000Y-108975000D01*
G75*
G02*
X92475000Y-108725000I0J250000D01*
G01*
X92475000Y-107125000D01*
G75*
G02*
X92725000Y-106875000I250000J0D01*
G01*
G37*
D10*
X95900000Y-118400000D03*
X92900000Y-118400000D03*
G36*
G01*
X81935500Y-120704499D02*
X81935500Y-122754501D01*
G75*
G02*
X81685501Y-123004500I-249999J0D01*
G01*
X79935499Y-123004500D01*
G75*
G02*
X79685500Y-122754501I0J249999D01*
G01*
X79685500Y-120704499D01*
G75*
G02*
X79935499Y-120454500I249999J0D01*
G01*
X81685501Y-120454500D01*
G75*
G02*
X81935500Y-120704499I0J-249999D01*
G01*
G37*
G36*
G01*
X88335500Y-120704499D02*
X88335500Y-122754501D01*
G75*
G02*
X88085501Y-123004500I-249999J0D01*
G01*
X86335499Y-123004500D01*
G75*
G02*
X86085500Y-122754501I0J249999D01*
G01*
X86085500Y-120704499D01*
G75*
G02*
X86335499Y-120454500I249999J0D01*
G01*
X88085501Y-120454500D01*
G75*
G02*
X88335500Y-120704499I0J-249999D01*
G01*
G37*
G36*
G01*
X108770000Y-104318750D02*
X108770000Y-105231250D01*
G75*
G02*
X108526250Y-105475000I-243750J0D01*
G01*
X108038750Y-105475000D01*
G75*
G02*
X107795000Y-105231250I0J243750D01*
G01*
X107795000Y-104318750D01*
G75*
G02*
X108038750Y-104075000I243750J0D01*
G01*
X108526250Y-104075000D01*
G75*
G02*
X108770000Y-104318750I0J-243750D01*
G01*
G37*
G36*
G01*
X110645000Y-104318750D02*
X110645000Y-105231250D01*
G75*
G02*
X110401250Y-105475000I-243750J0D01*
G01*
X109913750Y-105475000D01*
G75*
G02*
X109670000Y-105231250I0J243750D01*
G01*
X109670000Y-104318750D01*
G75*
G02*
X109913750Y-104075000I243750J0D01*
G01*
X110401250Y-104075000D01*
G75*
G02*
X110645000Y-104318750I0J-243750D01*
G01*
G37*
G36*
G01*
X85181000Y-129399000D02*
X87031000Y-129399000D01*
G75*
G02*
X87281000Y-129649000I0J-250000D01*
G01*
X87281000Y-130649000D01*
G75*
G02*
X87031000Y-130899000I-250000J0D01*
G01*
X85181000Y-130899000D01*
G75*
G02*
X84931000Y-130649000I0J250000D01*
G01*
X84931000Y-129649000D01*
G75*
G02*
X85181000Y-129399000I250000J0D01*
G01*
G37*
G36*
G01*
X85181000Y-126149000D02*
X87031000Y-126149000D01*
G75*
G02*
X87281000Y-126399000I0J-250000D01*
G01*
X87281000Y-127399000D01*
G75*
G02*
X87031000Y-127649000I-250000J0D01*
G01*
X85181000Y-127649000D01*
G75*
G02*
X84931000Y-127399000I0J250000D01*
G01*
X84931000Y-126399000D01*
G75*
G02*
X85181000Y-126149000I250000J0D01*
G01*
G37*
D11*
X84327000Y-75565000D03*
X81027000Y-75565000D03*
G36*
G01*
X114351750Y-113353000D02*
X115264250Y-113353000D01*
G75*
G02*
X115508000Y-113596750I0J-243750D01*
G01*
X115508000Y-114084250D01*
G75*
G02*
X115264250Y-114328000I-243750J0D01*
G01*
X114351750Y-114328000D01*
G75*
G02*
X114108000Y-114084250I0J243750D01*
G01*
X114108000Y-113596750D01*
G75*
G02*
X114351750Y-113353000I243750J0D01*
G01*
G37*
G36*
G01*
X114351750Y-111478000D02*
X115264250Y-111478000D01*
G75*
G02*
X115508000Y-111721750I0J-243750D01*
G01*
X115508000Y-112209250D01*
G75*
G02*
X115264250Y-112453000I-243750J0D01*
G01*
X114351750Y-112453000D01*
G75*
G02*
X114108000Y-112209250I0J243750D01*
G01*
X114108000Y-111721750D01*
G75*
G02*
X114351750Y-111478000I243750J0D01*
G01*
G37*
G36*
G01*
X100508750Y-117925000D02*
X101421250Y-117925000D01*
G75*
G02*
X101665000Y-118168750I0J-243750D01*
G01*
X101665000Y-118656250D01*
G75*
G02*
X101421250Y-118900000I-243750J0D01*
G01*
X100508750Y-118900000D01*
G75*
G02*
X100265000Y-118656250I0J243750D01*
G01*
X100265000Y-118168750D01*
G75*
G02*
X100508750Y-117925000I243750J0D01*
G01*
G37*
G36*
G01*
X100508750Y-116050000D02*
X101421250Y-116050000D01*
G75*
G02*
X101665000Y-116293750I0J-243750D01*
G01*
X101665000Y-116781250D01*
G75*
G02*
X101421250Y-117025000I-243750J0D01*
G01*
X100508750Y-117025000D01*
G75*
G02*
X100265000Y-116781250I0J243750D01*
G01*
X100265000Y-116293750D01*
G75*
G02*
X100508750Y-116050000I243750J0D01*
G01*
G37*
G36*
G01*
X108636750Y-113274500D02*
X109549250Y-113274500D01*
G75*
G02*
X109793000Y-113518250I0J-243750D01*
G01*
X109793000Y-114005750D01*
G75*
G02*
X109549250Y-114249500I-243750J0D01*
G01*
X108636750Y-114249500D01*
G75*
G02*
X108393000Y-114005750I0J243750D01*
G01*
X108393000Y-113518250D01*
G75*
G02*
X108636750Y-113274500I243750J0D01*
G01*
G37*
G36*
G01*
X108636750Y-111399500D02*
X109549250Y-111399500D01*
G75*
G02*
X109793000Y-111643250I0J-243750D01*
G01*
X109793000Y-112130750D01*
G75*
G02*
X109549250Y-112374500I-243750J0D01*
G01*
X108636750Y-112374500D01*
G75*
G02*
X108393000Y-112130750I0J243750D01*
G01*
X108393000Y-111643250D01*
G75*
G02*
X108636750Y-111399500I243750J0D01*
G01*
G37*
G36*
G01*
X109621500Y-100151250D02*
X109621500Y-99238750D01*
G75*
G02*
X109865250Y-98995000I243750J0D01*
G01*
X110352750Y-98995000D01*
G75*
G02*
X110596500Y-99238750I0J-243750D01*
G01*
X110596500Y-100151250D01*
G75*
G02*
X110352750Y-100395000I-243750J0D01*
G01*
X109865250Y-100395000D01*
G75*
G02*
X109621500Y-100151250I0J243750D01*
G01*
G37*
G36*
G01*
X107746500Y-100151250D02*
X107746500Y-99238750D01*
G75*
G02*
X107990250Y-98995000I243750J0D01*
G01*
X108477750Y-98995000D01*
G75*
G02*
X108721500Y-99238750I0J-243750D01*
G01*
X108721500Y-100151250D01*
G75*
G02*
X108477750Y-100395000I-243750J0D01*
G01*
X107990250Y-100395000D01*
G75*
G02*
X107746500Y-100151250I0J243750D01*
G01*
G37*
D12*
X103394000Y-116087000D03*
X103894000Y-116087000D03*
X104394000Y-116087000D03*
X104894000Y-116087000D03*
X105394000Y-116087000D03*
X105394000Y-120387000D03*
X104894000Y-120387000D03*
X104394000Y-120387000D03*
X103894000Y-120387000D03*
X103394000Y-120387000D03*
G36*
G01*
X113387000Y-116482000D02*
X113387000Y-116182000D01*
G75*
G02*
X113537000Y-116032000I150000J0D01*
G01*
X115187000Y-116032000D01*
G75*
G02*
X115337000Y-116182000I0J-150000D01*
G01*
X115337000Y-116482000D01*
G75*
G02*
X115187000Y-116632000I-150000J0D01*
G01*
X113537000Y-116632000D01*
G75*
G02*
X113387000Y-116482000I0J150000D01*
G01*
G37*
G36*
G01*
X113387000Y-117752000D02*
X113387000Y-117452000D01*
G75*
G02*
X113537000Y-117302000I150000J0D01*
G01*
X115187000Y-117302000D01*
G75*
G02*
X115337000Y-117452000I0J-150000D01*
G01*
X115337000Y-117752000D01*
G75*
G02*
X115187000Y-117902000I-150000J0D01*
G01*
X113537000Y-117902000D01*
G75*
G02*
X113387000Y-117752000I0J150000D01*
G01*
G37*
G36*
G01*
X113387000Y-119022000D02*
X113387000Y-118722000D01*
G75*
G02*
X113537000Y-118572000I150000J0D01*
G01*
X115187000Y-118572000D01*
G75*
G02*
X115337000Y-118722000I0J-150000D01*
G01*
X115337000Y-119022000D01*
G75*
G02*
X115187000Y-119172000I-150000J0D01*
G01*
X113537000Y-119172000D01*
G75*
G02*
X113387000Y-119022000I0J150000D01*
G01*
G37*
G36*
G01*
X113387000Y-120292000D02*
X113387000Y-119992000D01*
G75*
G02*
X113537000Y-119842000I150000J0D01*
G01*
X115187000Y-119842000D01*
G75*
G02*
X115337000Y-119992000I0J-150000D01*
G01*
X115337000Y-120292000D01*
G75*
G02*
X115187000Y-120442000I-150000J0D01*
G01*
X113537000Y-120442000D01*
G75*
G02*
X113387000Y-120292000I0J150000D01*
G01*
G37*
G36*
G01*
X108437000Y-120292000D02*
X108437000Y-119992000D01*
G75*
G02*
X108587000Y-119842000I150000J0D01*
G01*
X110237000Y-119842000D01*
G75*
G02*
X110387000Y-119992000I0J-150000D01*
G01*
X110387000Y-120292000D01*
G75*
G02*
X110237000Y-120442000I-150000J0D01*
G01*
X108587000Y-120442000D01*
G75*
G02*
X108437000Y-120292000I0J150000D01*
G01*
G37*
G36*
G01*
X108437000Y-119022000D02*
X108437000Y-118722000D01*
G75*
G02*
X108587000Y-118572000I150000J0D01*
G01*
X110237000Y-118572000D01*
G75*
G02*
X110387000Y-118722000I0J-150000D01*
G01*
X110387000Y-119022000D01*
G75*
G02*
X110237000Y-119172000I-150000J0D01*
G01*
X108587000Y-119172000D01*
G75*
G02*
X108437000Y-119022000I0J150000D01*
G01*
G37*
G36*
G01*
X108437000Y-117752000D02*
X108437000Y-117452000D01*
G75*
G02*
X108587000Y-117302000I150000J0D01*
G01*
X110237000Y-117302000D01*
G75*
G02*
X110387000Y-117452000I0J-150000D01*
G01*
X110387000Y-117752000D01*
G75*
G02*
X110237000Y-117902000I-150000J0D01*
G01*
X108587000Y-117902000D01*
G75*
G02*
X108437000Y-117752000I0J150000D01*
G01*
G37*
G36*
G01*
X108437000Y-116482000D02*
X108437000Y-116182000D01*
G75*
G02*
X108587000Y-116032000I150000J0D01*
G01*
X110237000Y-116032000D01*
G75*
G02*
X110387000Y-116182000I0J-150000D01*
G01*
X110387000Y-116482000D01*
G75*
G02*
X110237000Y-116632000I-150000J0D01*
G01*
X108587000Y-116632000D01*
G75*
G02*
X108437000Y-116482000I0J150000D01*
G01*
G37*
G36*
G01*
X101524750Y-113226000D02*
X102437250Y-113226000D01*
G75*
G02*
X102681000Y-113469750I0J-243750D01*
G01*
X102681000Y-113957250D01*
G75*
G02*
X102437250Y-114201000I-243750J0D01*
G01*
X101524750Y-114201000D01*
G75*
G02*
X101281000Y-113957250I0J243750D01*
G01*
X101281000Y-113469750D01*
G75*
G02*
X101524750Y-113226000I243750J0D01*
G01*
G37*
G36*
G01*
X101524750Y-111351000D02*
X102437250Y-111351000D01*
G75*
G02*
X102681000Y-111594750I0J-243750D01*
G01*
X102681000Y-112082250D01*
G75*
G02*
X102437250Y-112326000I-243750J0D01*
G01*
X101524750Y-112326000D01*
G75*
G02*
X101281000Y-112082250I0J243750D01*
G01*
X101281000Y-111594750D01*
G75*
G02*
X101524750Y-111351000I243750J0D01*
G01*
G37*
G36*
G01*
X104953750Y-113226000D02*
X105866250Y-113226000D01*
G75*
G02*
X106110000Y-113469750I0J-243750D01*
G01*
X106110000Y-113957250D01*
G75*
G02*
X105866250Y-114201000I-243750J0D01*
G01*
X104953750Y-114201000D01*
G75*
G02*
X104710000Y-113957250I0J243750D01*
G01*
X104710000Y-113469750D01*
G75*
G02*
X104953750Y-113226000I243750J0D01*
G01*
G37*
G36*
G01*
X104953750Y-111351000D02*
X105866250Y-111351000D01*
G75*
G02*
X106110000Y-111594750I0J-243750D01*
G01*
X106110000Y-112082250D01*
G75*
G02*
X105866250Y-112326000I-243750J0D01*
G01*
X104953750Y-112326000D01*
G75*
G02*
X104710000Y-112082250I0J243750D01*
G01*
X104710000Y-111594750D01*
G75*
G02*
X104953750Y-111351000I243750J0D01*
G01*
G37*
G36*
G01*
X104445750Y-124529000D02*
X105358250Y-124529000D01*
G75*
G02*
X105602000Y-124772750I0J-243750D01*
G01*
X105602000Y-125260250D01*
G75*
G02*
X105358250Y-125504000I-243750J0D01*
G01*
X104445750Y-125504000D01*
G75*
G02*
X104202000Y-125260250I0J243750D01*
G01*
X104202000Y-124772750D01*
G75*
G02*
X104445750Y-124529000I243750J0D01*
G01*
G37*
G36*
G01*
X104445750Y-122654000D02*
X105358250Y-122654000D01*
G75*
G02*
X105602000Y-122897750I0J-243750D01*
G01*
X105602000Y-123385250D01*
G75*
G02*
X105358250Y-123629000I-243750J0D01*
G01*
X104445750Y-123629000D01*
G75*
G02*
X104202000Y-123385250I0J243750D01*
G01*
X104202000Y-122897750D01*
G75*
G02*
X104445750Y-122654000I243750J0D01*
G01*
G37*
G36*
G01*
X103072250Y-123629000D02*
X102159750Y-123629000D01*
G75*
G02*
X101916000Y-123385250I0J243750D01*
G01*
X101916000Y-122897750D01*
G75*
G02*
X102159750Y-122654000I243750J0D01*
G01*
X103072250Y-122654000D01*
G75*
G02*
X103316000Y-122897750I0J-243750D01*
G01*
X103316000Y-123385250D01*
G75*
G02*
X103072250Y-123629000I-243750J0D01*
G01*
G37*
G36*
G01*
X103072250Y-125504000D02*
X102159750Y-125504000D01*
G75*
G02*
X101916000Y-125260250I0J243750D01*
G01*
X101916000Y-124772750D01*
G75*
G02*
X102159750Y-124529000I243750J0D01*
G01*
X103072250Y-124529000D01*
G75*
G02*
X103316000Y-124772750I0J-243750D01*
G01*
X103316000Y-125260250D01*
G75*
G02*
X103072250Y-125504000I-243750J0D01*
G01*
G37*
G36*
G01*
X109670000Y-102564250D02*
X109670000Y-101651750D01*
G75*
G02*
X109913750Y-101408000I243750J0D01*
G01*
X110401250Y-101408000D01*
G75*
G02*
X110645000Y-101651750I0J-243750D01*
G01*
X110645000Y-102564250D01*
G75*
G02*
X110401250Y-102808000I-243750J0D01*
G01*
X109913750Y-102808000D01*
G75*
G02*
X109670000Y-102564250I0J243750D01*
G01*
G37*
G36*
G01*
X107795000Y-102564250D02*
X107795000Y-101651750D01*
G75*
G02*
X108038750Y-101408000I243750J0D01*
G01*
X108526250Y-101408000D01*
G75*
G02*
X108770000Y-101651750I0J-243750D01*
G01*
X108770000Y-102564250D01*
G75*
G02*
X108526250Y-102808000I-243750J0D01*
G01*
X108038750Y-102808000D01*
G75*
G02*
X107795000Y-102564250I0J243750D01*
G01*
G37*
G36*
G01*
X112785500Y-99238750D02*
X112785500Y-100151250D01*
G75*
G02*
X112541750Y-100395000I-243750J0D01*
G01*
X112054250Y-100395000D01*
G75*
G02*
X111810500Y-100151250I0J243750D01*
G01*
X111810500Y-99238750D01*
G75*
G02*
X112054250Y-98995000I243750J0D01*
G01*
X112541750Y-98995000D01*
G75*
G02*
X112785500Y-99238750I0J-243750D01*
G01*
G37*
G36*
G01*
X114660500Y-99238750D02*
X114660500Y-100151250D01*
G75*
G02*
X114416750Y-100395000I-243750J0D01*
G01*
X113929250Y-100395000D01*
G75*
G02*
X113685500Y-100151250I0J243750D01*
G01*
X113685500Y-99238750D01*
G75*
G02*
X113929250Y-98995000I243750J0D01*
G01*
X114416750Y-98995000D01*
G75*
G02*
X114660500Y-99238750I0J-243750D01*
G01*
G37*
G36*
G01*
X113734000Y-102564250D02*
X113734000Y-101651750D01*
G75*
G02*
X113977750Y-101408000I243750J0D01*
G01*
X114465250Y-101408000D01*
G75*
G02*
X114709000Y-101651750I0J-243750D01*
G01*
X114709000Y-102564250D01*
G75*
G02*
X114465250Y-102808000I-243750J0D01*
G01*
X113977750Y-102808000D01*
G75*
G02*
X113734000Y-102564250I0J243750D01*
G01*
G37*
G36*
G01*
X111859000Y-102564250D02*
X111859000Y-101651750D01*
G75*
G02*
X112102750Y-101408000I243750J0D01*
G01*
X112590250Y-101408000D01*
G75*
G02*
X112834000Y-101651750I0J-243750D01*
G01*
X112834000Y-102564250D01*
G75*
G02*
X112590250Y-102808000I-243750J0D01*
G01*
X112102750Y-102808000D01*
G75*
G02*
X111859000Y-102564250I0J243750D01*
G01*
G37*
G36*
G01*
X118027000Y-121612000D02*
X120527000Y-121612000D01*
G75*
G02*
X120777000Y-121862000I0J-250000D01*
G01*
X120777000Y-123462000D01*
G75*
G02*
X120527000Y-123712000I-250000J0D01*
G01*
X118027000Y-123712000D01*
G75*
G02*
X117777000Y-123462000I0J250000D01*
G01*
X117777000Y-121862000D01*
G75*
G02*
X118027000Y-121612000I250000J0D01*
G01*
G37*
G36*
G01*
X118027000Y-112762000D02*
X120527000Y-112762000D01*
G75*
G02*
X120777000Y-113012000I0J-250000D01*
G01*
X120777000Y-114612000D01*
G75*
G02*
X120527000Y-114862000I-250000J0D01*
G01*
X118027000Y-114862000D01*
G75*
G02*
X117777000Y-114612000I0J250000D01*
G01*
X117777000Y-113012000D01*
G75*
G02*
X118027000Y-112762000I250000J0D01*
G01*
G37*
G36*
G01*
X121577000Y-119712000D02*
X122477000Y-119712000D01*
G75*
G02*
X122677000Y-119912000I0J-200000D01*
G01*
X122677000Y-120312000D01*
G75*
G02*
X122477000Y-120512000I-200000J0D01*
G01*
X121577000Y-120512000D01*
G75*
G02*
X121377000Y-120312000I0J200000D01*
G01*
X121377000Y-119912000D01*
G75*
G02*
X121577000Y-119712000I200000J0D01*
G01*
G37*
G36*
G01*
X121577000Y-118462000D02*
X122477000Y-118462000D01*
G75*
G02*
X122677000Y-118662000I0J-200000D01*
G01*
X122677000Y-119062000D01*
G75*
G02*
X122477000Y-119262000I-200000J0D01*
G01*
X121577000Y-119262000D01*
G75*
G02*
X121377000Y-119062000I0J200000D01*
G01*
X121377000Y-118662000D01*
G75*
G02*
X121577000Y-118462000I200000J0D01*
G01*
G37*
G36*
G01*
X121577000Y-117212000D02*
X122477000Y-117212000D01*
G75*
G02*
X122677000Y-117412000I0J-200000D01*
G01*
X122677000Y-117812000D01*
G75*
G02*
X122477000Y-118012000I-200000J0D01*
G01*
X121577000Y-118012000D01*
G75*
G02*
X121377000Y-117812000I0J200000D01*
G01*
X121377000Y-117412000D01*
G75*
G02*
X121577000Y-117212000I200000J0D01*
G01*
G37*
G36*
G01*
X121577000Y-115962000D02*
X122477000Y-115962000D01*
G75*
G02*
X122677000Y-116162000I0J-200000D01*
G01*
X122677000Y-116562000D01*
G75*
G02*
X122477000Y-116762000I-200000J0D01*
G01*
X121577000Y-116762000D01*
G75*
G02*
X121377000Y-116562000I0J200000D01*
G01*
X121377000Y-116162000D01*
G75*
G02*
X121577000Y-115962000I200000J0D01*
G01*
G37*
D13*
X106055000Y-100211000D03*
X104765000Y-100711000D03*
X106055000Y-101211000D03*
G36*
G01*
X118027000Y-103705000D02*
X120527000Y-103705000D01*
G75*
G02*
X120777000Y-103955000I0J-250000D01*
G01*
X120777000Y-105555000D01*
G75*
G02*
X120527000Y-105805000I-250000J0D01*
G01*
X118027000Y-105805000D01*
G75*
G02*
X117777000Y-105555000I0J250000D01*
G01*
X117777000Y-103955000D01*
G75*
G02*
X118027000Y-103705000I250000J0D01*
G01*
G37*
G36*
G01*
X118027000Y-94855000D02*
X120527000Y-94855000D01*
G75*
G02*
X120777000Y-95105000I0J-250000D01*
G01*
X120777000Y-96705000D01*
G75*
G02*
X120527000Y-96955000I-250000J0D01*
G01*
X118027000Y-96955000D01*
G75*
G02*
X117777000Y-96705000I0J250000D01*
G01*
X117777000Y-95105000D01*
G75*
G02*
X118027000Y-94855000I250000J0D01*
G01*
G37*
G36*
G01*
X121577000Y-101805000D02*
X122477000Y-101805000D01*
G75*
G02*
X122677000Y-102005000I0J-200000D01*
G01*
X122677000Y-102405000D01*
G75*
G02*
X122477000Y-102605000I-200000J0D01*
G01*
X121577000Y-102605000D01*
G75*
G02*
X121377000Y-102405000I0J200000D01*
G01*
X121377000Y-102005000D01*
G75*
G02*
X121577000Y-101805000I200000J0D01*
G01*
G37*
G36*
G01*
X121577000Y-100555000D02*
X122477000Y-100555000D01*
G75*
G02*
X122677000Y-100755000I0J-200000D01*
G01*
X122677000Y-101155000D01*
G75*
G02*
X122477000Y-101355000I-200000J0D01*
G01*
X121577000Y-101355000D01*
G75*
G02*
X121377000Y-101155000I0J200000D01*
G01*
X121377000Y-100755000D01*
G75*
G02*
X121577000Y-100555000I200000J0D01*
G01*
G37*
G36*
G01*
X121577000Y-99305000D02*
X122477000Y-99305000D01*
G75*
G02*
X122677000Y-99505000I0J-200000D01*
G01*
X122677000Y-99905000D01*
G75*
G02*
X122477000Y-100105000I-200000J0D01*
G01*
X121577000Y-100105000D01*
G75*
G02*
X121377000Y-99905000I0J200000D01*
G01*
X121377000Y-99505000D01*
G75*
G02*
X121577000Y-99305000I200000J0D01*
G01*
G37*
G36*
G01*
X121577000Y-98055000D02*
X122477000Y-98055000D01*
G75*
G02*
X122677000Y-98255000I0J-200000D01*
G01*
X122677000Y-98655000D01*
G75*
G02*
X122477000Y-98855000I-200000J0D01*
G01*
X121577000Y-98855000D01*
G75*
G02*
X121377000Y-98655000I0J200000D01*
G01*
X121377000Y-98255000D01*
G75*
G02*
X121577000Y-98055000I200000J0D01*
G01*
G37*
M02*
