G04 #@! TF.GenerationSoftware,KiCad,Pcbnew,5.1.6+dfsg1-1~bpo9+1*
G04 #@! TF.CreationDate,2022-04-20T22:27:00+02:00*
G04 #@! TF.ProjectId,sdrtrx-powerswitch,73647274-7278-42d7-906f-776572737769,rev?*
G04 #@! TF.SameCoordinates,Original*
G04 #@! TF.FileFunction,Legend,Top*
G04 #@! TF.FilePolarity,Positive*
%FSLAX46Y46*%
G04 Gerber Fmt 4.6, Leading zero omitted, Abs format (unit mm)*
G04 Created by KiCad (PCBNEW 5.1.6+dfsg1-1~bpo9+1) date 2022-04-20 22:27:00*
%MOMM*%
%LPD*%
G01*
G04 APERTURE LIST*
%ADD10C,0.150000*%
%ADD11C,0.120000*%
%ADD12C,1.300000*%
%ADD13O,2.100000X1.800000*%
%ADD14R,1.400000X1.900000*%
%ADD15C,3.100000*%
%ADD16R,3.100000X3.100000*%
%ADD17O,2.600000X1.600000*%
%ADD18R,2.600000X1.600000*%
%ADD19R,1.000000X1.300000*%
%ADD20R,0.350000X1.200000*%
%ADD21C,2.800000*%
%ADD22C,6.500000*%
%ADD23R,0.610000X0.500000*%
G04 APERTURE END LIST*
D10*
X71860380Y-115676190D02*
X72860380Y-115342857D01*
X71860380Y-115009523D01*
X72860380Y-114676190D02*
X71860380Y-114676190D01*
X72860380Y-114200000D02*
X71860380Y-114200000D01*
X72860380Y-113628571D01*
X71860380Y-113628571D01*
X72479428Y-113152380D02*
X72479428Y-112390476D01*
X72860380Y-112771428D02*
X72098476Y-112771428D01*
X72574666Y-111200000D02*
X72574666Y-110723809D01*
X72860380Y-111295238D02*
X71860380Y-110961904D01*
X72860380Y-110628571D01*
X71860380Y-110295238D02*
X72669904Y-110295238D01*
X72765142Y-110247619D01*
X72812761Y-110200000D01*
X72860380Y-110104761D01*
X72860380Y-109914285D01*
X72812761Y-109819047D01*
X72765142Y-109771428D01*
X72669904Y-109723809D01*
X71860380Y-109723809D01*
X71860380Y-109342857D02*
X72860380Y-108676190D01*
X71860380Y-108676190D02*
X72860380Y-109342857D01*
X72860380Y-107533333D02*
X71860380Y-107533333D01*
X71860380Y-107152380D01*
X71908000Y-107057142D01*
X71955619Y-107009523D01*
X72050857Y-106961904D01*
X72193714Y-106961904D01*
X72288952Y-107009523D01*
X72336571Y-107057142D01*
X72384190Y-107152380D01*
X72384190Y-107533333D01*
X71860380Y-106628571D02*
X72860380Y-106390476D01*
X72146095Y-106200000D01*
X72860380Y-106009523D01*
X71860380Y-105771428D01*
X72860380Y-104819047D02*
X72384190Y-105152380D01*
X72860380Y-105390476D02*
X71860380Y-105390476D01*
X71860380Y-105009523D01*
X71908000Y-104914285D01*
X71955619Y-104866666D01*
X72050857Y-104819047D01*
X72193714Y-104819047D01*
X72288952Y-104866666D01*
X72336571Y-104914285D01*
X72384190Y-105009523D01*
X72384190Y-105390476D01*
D11*
X90678000Y-120332500D02*
X98679000Y-120332500D01*
X90678000Y-134429500D02*
X90678000Y-120332500D01*
D10*
X114879428Y-133825619D02*
X114879428Y-133063714D01*
X115260380Y-133444666D02*
X114498476Y-133444666D01*
X114260380Y-132111333D02*
X114260380Y-132587523D01*
X114736571Y-132635142D01*
X114688952Y-132587523D01*
X114641333Y-132492285D01*
X114641333Y-132254190D01*
X114688952Y-132158952D01*
X114736571Y-132111333D01*
X114831809Y-132063714D01*
X115069904Y-132063714D01*
X115165142Y-132111333D01*
X115212761Y-132158952D01*
X115260380Y-132254190D01*
X115260380Y-132492285D01*
X115212761Y-132587523D01*
X115165142Y-132635142D01*
X114260380Y-131778000D02*
X115260380Y-131444666D01*
X114260380Y-131111333D01*
X114974666Y-130063714D02*
X114974666Y-129587523D01*
X115260380Y-130158952D02*
X114260380Y-129825619D01*
X115260380Y-129492285D01*
X114260380Y-129158952D02*
X115069904Y-129158952D01*
X115165142Y-129111333D01*
X115212761Y-129063714D01*
X115260380Y-128968476D01*
X115260380Y-128778000D01*
X115212761Y-128682761D01*
X115165142Y-128635142D01*
X115069904Y-128587523D01*
X114260380Y-128587523D01*
X114260380Y-128206571D02*
X115260380Y-127539904D01*
X114260380Y-127539904D02*
X115260380Y-128206571D01*
X115260380Y-126397047D02*
X114260380Y-126397047D01*
X114260380Y-126016095D01*
X114308000Y-125920857D01*
X114355619Y-125873238D01*
X114450857Y-125825619D01*
X114593714Y-125825619D01*
X114688952Y-125873238D01*
X114736571Y-125920857D01*
X114784190Y-126016095D01*
X114784190Y-126397047D01*
X114260380Y-125492285D02*
X115260380Y-125254190D01*
X114546095Y-125063714D01*
X115260380Y-124873238D01*
X114260380Y-124635142D01*
X115260380Y-123682761D02*
X114784190Y-124016095D01*
X115260380Y-124254190D02*
X114260380Y-124254190D01*
X114260380Y-123873238D01*
X114308000Y-123778000D01*
X114355619Y-123730380D01*
X114450857Y-123682761D01*
X114593714Y-123682761D01*
X114688952Y-123730380D01*
X114736571Y-123778000D01*
X114784190Y-123873238D01*
X114784190Y-124254190D01*
X120674261Y-84612619D02*
X120721880Y-84517380D01*
X120721880Y-84326904D01*
X120674261Y-84231666D01*
X120579023Y-84184047D01*
X120531404Y-84184047D01*
X120436166Y-84231666D01*
X120388547Y-84326904D01*
X120388547Y-84469761D01*
X120340928Y-84565000D01*
X120245690Y-84612619D01*
X120198071Y-84612619D01*
X120102833Y-84565000D01*
X120055214Y-84469761D01*
X120055214Y-84326904D01*
X120102833Y-84231666D01*
X120721880Y-83326904D02*
X119721880Y-83326904D01*
X120674261Y-83326904D02*
X120721880Y-83422142D01*
X120721880Y-83612619D01*
X120674261Y-83707857D01*
X120626642Y-83755476D01*
X120531404Y-83803095D01*
X120245690Y-83803095D01*
X120150452Y-83755476D01*
X120102833Y-83707857D01*
X120055214Y-83612619D01*
X120055214Y-83422142D01*
X120102833Y-83326904D01*
X120721880Y-82850714D02*
X120055214Y-82850714D01*
X120245690Y-82850714D02*
X120150452Y-82803095D01*
X120102833Y-82755476D01*
X120055214Y-82660238D01*
X120055214Y-82565000D01*
X120055214Y-82374523D02*
X120055214Y-81993571D01*
X119721880Y-82231666D02*
X120579023Y-82231666D01*
X120674261Y-82184047D01*
X120721880Y-82088809D01*
X120721880Y-81993571D01*
X120721880Y-81660238D02*
X120055214Y-81660238D01*
X120245690Y-81660238D02*
X120150452Y-81612619D01*
X120102833Y-81565000D01*
X120055214Y-81469761D01*
X120055214Y-81374523D01*
X120721880Y-81136428D02*
X120055214Y-80612619D01*
X120055214Y-81136428D02*
X120721880Y-80612619D01*
X120340928Y-80231666D02*
X120340928Y-79469761D01*
X120055214Y-78993571D02*
X121055214Y-78993571D01*
X120102833Y-78993571D02*
X120055214Y-78898333D01*
X120055214Y-78707857D01*
X120102833Y-78612619D01*
X120150452Y-78565000D01*
X120245690Y-78517380D01*
X120531404Y-78517380D01*
X120626642Y-78565000D01*
X120674261Y-78612619D01*
X120721880Y-78707857D01*
X120721880Y-78898333D01*
X120674261Y-78993571D01*
X120721880Y-77945952D02*
X120674261Y-78041190D01*
X120626642Y-78088809D01*
X120531404Y-78136428D01*
X120245690Y-78136428D01*
X120150452Y-78088809D01*
X120102833Y-78041190D01*
X120055214Y-77945952D01*
X120055214Y-77803095D01*
X120102833Y-77707857D01*
X120150452Y-77660238D01*
X120245690Y-77612619D01*
X120531404Y-77612619D01*
X120626642Y-77660238D01*
X120674261Y-77707857D01*
X120721880Y-77803095D01*
X120721880Y-77945952D01*
X120055214Y-77279285D02*
X120721880Y-77088809D01*
X120245690Y-76898333D01*
X120721880Y-76707857D01*
X120055214Y-76517380D01*
X120674261Y-75755476D02*
X120721880Y-75850714D01*
X120721880Y-76041190D01*
X120674261Y-76136428D01*
X120579023Y-76184047D01*
X120198071Y-76184047D01*
X120102833Y-76136428D01*
X120055214Y-76041190D01*
X120055214Y-75850714D01*
X120102833Y-75755476D01*
X120198071Y-75707857D01*
X120293309Y-75707857D01*
X120388547Y-76184047D01*
X120721880Y-75279285D02*
X120055214Y-75279285D01*
X120245690Y-75279285D02*
X120150452Y-75231666D01*
X120102833Y-75184047D01*
X120055214Y-75088809D01*
X120055214Y-74993571D01*
X120674261Y-74707857D02*
X120721880Y-74612619D01*
X120721880Y-74422142D01*
X120674261Y-74326904D01*
X120579023Y-74279285D01*
X120531404Y-74279285D01*
X120436166Y-74326904D01*
X120388547Y-74422142D01*
X120388547Y-74565000D01*
X120340928Y-74660238D01*
X120245690Y-74707857D01*
X120198071Y-74707857D01*
X120102833Y-74660238D01*
X120055214Y-74565000D01*
X120055214Y-74422142D01*
X120102833Y-74326904D01*
X120055214Y-73945952D02*
X120721880Y-73755476D01*
X120245690Y-73565000D01*
X120721880Y-73374523D01*
X120055214Y-73184047D01*
X120721880Y-72803095D02*
X120055214Y-72803095D01*
X119721880Y-72803095D02*
X119769500Y-72850714D01*
X119817119Y-72803095D01*
X119769500Y-72755476D01*
X119721880Y-72803095D01*
X119817119Y-72803095D01*
X120055214Y-72469761D02*
X120055214Y-72088809D01*
X119721880Y-72326904D02*
X120579023Y-72326904D01*
X120674261Y-72279285D01*
X120721880Y-72184047D01*
X120721880Y-72088809D01*
X120674261Y-71326904D02*
X120721880Y-71422142D01*
X120721880Y-71612619D01*
X120674261Y-71707857D01*
X120626642Y-71755476D01*
X120531404Y-71803095D01*
X120245690Y-71803095D01*
X120150452Y-71755476D01*
X120102833Y-71707857D01*
X120055214Y-71612619D01*
X120055214Y-71422142D01*
X120102833Y-71326904D01*
X120721880Y-70898333D02*
X119721880Y-70898333D01*
X120721880Y-70469761D02*
X120198071Y-70469761D01*
X120102833Y-70517380D01*
X120055214Y-70612619D01*
X120055214Y-70755476D01*
X120102833Y-70850714D01*
X120150452Y-70898333D01*
X120055214Y-69326904D02*
X120721880Y-69088809D01*
X120055214Y-68850714D01*
X120721880Y-67945952D02*
X120721880Y-68517380D01*
X120721880Y-68231666D02*
X119721880Y-68231666D01*
X119864738Y-68326904D01*
X119959976Y-68422142D01*
X120007595Y-68517380D01*
X120626642Y-67517380D02*
X120674261Y-67469761D01*
X120721880Y-67517380D01*
X120674261Y-67565000D01*
X120626642Y-67517380D01*
X120721880Y-67517380D01*
X119721880Y-67136428D02*
X119721880Y-66517380D01*
X120102833Y-66850714D01*
X120102833Y-66707857D01*
X120150452Y-66612619D01*
X120198071Y-66565000D01*
X120293309Y-66517380D01*
X120531404Y-66517380D01*
X120626642Y-66565000D01*
X120674261Y-66612619D01*
X120721880Y-66707857D01*
X120721880Y-66993571D01*
X120674261Y-67088809D01*
X120626642Y-67136428D01*
X122371880Y-79684047D02*
X122324261Y-79779285D01*
X122276642Y-79826904D01*
X122181404Y-79874523D01*
X121895690Y-79874523D01*
X121800452Y-79826904D01*
X121752833Y-79779285D01*
X121705214Y-79684047D01*
X121705214Y-79541190D01*
X121752833Y-79445952D01*
X121800452Y-79398333D01*
X121895690Y-79350714D01*
X122181404Y-79350714D01*
X122276642Y-79398333D01*
X122324261Y-79445952D01*
X122371880Y-79541190D01*
X122371880Y-79684047D01*
X122324261Y-78541190D02*
X122371880Y-78636428D01*
X122371880Y-78826904D01*
X122324261Y-78922142D01*
X122229023Y-78969761D01*
X121848071Y-78969761D01*
X121752833Y-78922142D01*
X121705214Y-78826904D01*
X121705214Y-78636428D01*
X121752833Y-78541190D01*
X121848071Y-78493571D01*
X121943309Y-78493571D01*
X122038547Y-78969761D01*
X122371880Y-78017380D02*
X122371880Y-77826904D01*
X122324261Y-77731666D01*
X122276642Y-77684047D01*
X122133785Y-77588809D01*
X121943309Y-77541190D01*
X121562357Y-77541190D01*
X121467119Y-77588809D01*
X121419500Y-77636428D01*
X121371880Y-77731666D01*
X121371880Y-77922142D01*
X121419500Y-78017380D01*
X121467119Y-78065000D01*
X121562357Y-78112619D01*
X121800452Y-78112619D01*
X121895690Y-78065000D01*
X121943309Y-78017380D01*
X121990928Y-77922142D01*
X121990928Y-77731666D01*
X121943309Y-77636428D01*
X121895690Y-77588809D01*
X121800452Y-77541190D01*
X122371880Y-77112619D02*
X121705214Y-77112619D01*
X121895690Y-77112619D02*
X121800452Y-77065000D01*
X121752833Y-77017380D01*
X121705214Y-76922142D01*
X121705214Y-76826904D01*
X122371880Y-76493571D02*
X121705214Y-76493571D01*
X121371880Y-76493571D02*
X121419500Y-76541190D01*
X121467119Y-76493571D01*
X121419500Y-76445952D01*
X121371880Y-76493571D01*
X121467119Y-76493571D01*
X122371880Y-76017380D02*
X121705214Y-76017380D01*
X121895690Y-76017380D02*
X121800452Y-75969761D01*
X121752833Y-75922142D01*
X121705214Y-75826904D01*
X121705214Y-75731666D01*
X121467119Y-74684047D02*
X121419500Y-74636428D01*
X121371880Y-74541190D01*
X121371880Y-74303095D01*
X121419500Y-74207857D01*
X121467119Y-74160238D01*
X121562357Y-74112619D01*
X121657595Y-74112619D01*
X121800452Y-74160238D01*
X122371880Y-74731666D01*
X122371880Y-74112619D01*
X121371880Y-73493571D02*
X121371880Y-73398333D01*
X121419500Y-73303095D01*
X121467119Y-73255476D01*
X121562357Y-73207857D01*
X121752833Y-73160238D01*
X121990928Y-73160238D01*
X122181404Y-73207857D01*
X122276642Y-73255476D01*
X122324261Y-73303095D01*
X122371880Y-73398333D01*
X122371880Y-73493571D01*
X122324261Y-73588809D01*
X122276642Y-73636428D01*
X122181404Y-73684047D01*
X121990928Y-73731666D01*
X121752833Y-73731666D01*
X121562357Y-73684047D01*
X121467119Y-73636428D01*
X121419500Y-73588809D01*
X121371880Y-73493571D01*
X121467119Y-72779285D02*
X121419500Y-72731666D01*
X121371880Y-72636428D01*
X121371880Y-72398333D01*
X121419500Y-72303095D01*
X121467119Y-72255476D01*
X121562357Y-72207857D01*
X121657595Y-72207857D01*
X121800452Y-72255476D01*
X122371880Y-72826904D01*
X122371880Y-72207857D01*
X121467119Y-71826904D02*
X121419500Y-71779285D01*
X121371880Y-71684047D01*
X121371880Y-71445952D01*
X121419500Y-71350714D01*
X121467119Y-71303095D01*
X121562357Y-71255476D01*
X121657595Y-71255476D01*
X121800452Y-71303095D01*
X122371880Y-71874523D01*
X122371880Y-71255476D01*
X101330428Y-56475380D02*
X101663761Y-57475380D01*
X101997095Y-56475380D01*
X102282809Y-57427761D02*
X102425666Y-57475380D01*
X102663761Y-57475380D01*
X102759000Y-57427761D01*
X102806619Y-57380142D01*
X102854238Y-57284904D01*
X102854238Y-57189666D01*
X102806619Y-57094428D01*
X102759000Y-57046809D01*
X102663761Y-56999190D01*
X102473285Y-56951571D01*
X102378047Y-56903952D01*
X102330428Y-56856333D01*
X102282809Y-56761095D01*
X102282809Y-56665857D01*
X102330428Y-56570619D01*
X102378047Y-56523000D01*
X102473285Y-56475380D01*
X102711380Y-56475380D01*
X102854238Y-56523000D01*
X103282809Y-57475380D02*
X103282809Y-56475380D01*
X103520904Y-56475380D01*
X103663761Y-56523000D01*
X103759000Y-56618238D01*
X103806619Y-56713476D01*
X103854238Y-56903952D01*
X103854238Y-57046809D01*
X103806619Y-57237285D01*
X103759000Y-57332523D01*
X103663761Y-57427761D01*
X103520904Y-57475380D01*
X103282809Y-57475380D01*
X104854238Y-57475380D02*
X104520904Y-56999190D01*
X104282809Y-57475380D02*
X104282809Y-56475380D01*
X104663761Y-56475380D01*
X104759000Y-56523000D01*
X104806619Y-56570619D01*
X104854238Y-56665857D01*
X104854238Y-56808714D01*
X104806619Y-56903952D01*
X104759000Y-56951571D01*
X104663761Y-56999190D01*
X104282809Y-56999190D01*
X105282809Y-57094428D02*
X106044714Y-57094428D01*
X105663761Y-57475380D02*
X105663761Y-56713476D01*
X86550714Y-112609380D02*
X86884047Y-113609380D01*
X87217380Y-112609380D01*
X87550714Y-113609380D02*
X87550714Y-112609380D01*
X88026904Y-113609380D02*
X88026904Y-112609380D01*
X88598333Y-113609380D01*
X88598333Y-112609380D01*
X89074523Y-113228428D02*
X89836428Y-113228428D01*
X89455476Y-113609380D02*
X89455476Y-112847476D01*
X76685714Y-112452380D02*
X77019047Y-113452380D01*
X77352380Y-112452380D01*
X77685714Y-113452380D02*
X77685714Y-112452380D01*
X78161904Y-113452380D02*
X78161904Y-112452380D01*
X78733333Y-113452380D01*
X78733333Y-112452380D01*
X79209523Y-113071428D02*
X79971428Y-113071428D01*
X84058476Y-56348380D02*
X84391809Y-57348380D01*
X84725142Y-56348380D01*
X85010857Y-57300761D02*
X85153714Y-57348380D01*
X85391809Y-57348380D01*
X85487047Y-57300761D01*
X85534666Y-57253142D01*
X85582285Y-57157904D01*
X85582285Y-57062666D01*
X85534666Y-56967428D01*
X85487047Y-56919809D01*
X85391809Y-56872190D01*
X85201333Y-56824571D01*
X85106095Y-56776952D01*
X85058476Y-56729333D01*
X85010857Y-56634095D01*
X85010857Y-56538857D01*
X85058476Y-56443619D01*
X85106095Y-56396000D01*
X85201333Y-56348380D01*
X85439428Y-56348380D01*
X85582285Y-56396000D01*
X86010857Y-57348380D02*
X86010857Y-56348380D01*
X86248952Y-56348380D01*
X86391809Y-56396000D01*
X86487047Y-56491238D01*
X86534666Y-56586476D01*
X86582285Y-56776952D01*
X86582285Y-56919809D01*
X86534666Y-57110285D01*
X86487047Y-57205523D01*
X86391809Y-57300761D01*
X86248952Y-57348380D01*
X86010857Y-57348380D01*
X87582285Y-57348380D02*
X87248952Y-56872190D01*
X87010857Y-57348380D02*
X87010857Y-56348380D01*
X87391809Y-56348380D01*
X87487047Y-56396000D01*
X87534666Y-56443619D01*
X87582285Y-56538857D01*
X87582285Y-56681714D01*
X87534666Y-56776952D01*
X87487047Y-56824571D01*
X87391809Y-56872190D01*
X87010857Y-56872190D01*
X88772761Y-56967428D02*
X89534666Y-56967428D01*
D11*
X97870000Y-109196248D02*
X97870000Y-113603752D01*
X92530000Y-109196248D02*
X92530000Y-113603752D01*
X71450000Y-126250000D02*
X72700000Y-126250000D01*
X71450000Y-125000000D02*
X71450000Y-126250000D01*
X76950000Y-119100000D02*
X76950000Y-122150000D01*
X74000000Y-119100000D02*
X76950000Y-119100000D01*
X74000000Y-118350000D02*
X74000000Y-119100000D01*
X76950000Y-122150000D02*
X76950000Y-124140000D01*
X74000000Y-125200000D02*
X75340000Y-125200000D01*
X74000000Y-125950000D02*
X74000000Y-125200000D01*
X71750000Y-118350000D02*
X71750000Y-120150000D01*
X72500000Y-118350000D02*
X71750000Y-118350000D01*
X72500000Y-120150000D02*
X72500000Y-118350000D01*
X71750000Y-120150000D02*
X72500000Y-120150000D01*
X71750000Y-124150000D02*
X71750000Y-125950000D01*
X72500000Y-124150000D02*
X71750000Y-124150000D01*
X72500000Y-125950000D02*
X72500000Y-124150000D01*
X71750000Y-125950000D02*
X72500000Y-125950000D01*
X71750000Y-121650000D02*
X71750000Y-122650000D01*
X72500000Y-121650000D02*
X71750000Y-121650000D01*
X72500000Y-122650000D02*
X72500000Y-121650000D01*
X71750000Y-122650000D02*
X72500000Y-122650000D01*
X71740000Y-118340000D02*
X71740000Y-125960000D01*
X77710000Y-118340000D02*
X71740000Y-118340000D01*
X77710000Y-125960000D02*
X77710000Y-118340000D01*
X71740000Y-125960000D02*
X77710000Y-125960000D01*
X92050000Y-117300000D02*
X92050000Y-119500000D01*
X92050000Y-119500000D02*
X96050000Y-119500000D01*
X92050000Y-117300000D02*
X96050000Y-117300000D01*
X88411000Y-78488000D02*
X90811000Y-78488000D01*
X90811000Y-80888000D02*
X90811000Y-78488000D01*
X75251000Y-78688000D02*
X90611000Y-78688000D01*
X75251000Y-110288000D02*
X75251000Y-78688000D01*
X90611000Y-110288000D02*
X75251000Y-110288000D01*
X90611000Y-78688000D02*
X90611000Y-110288000D01*
X83947000Y-84328000D02*
X82677000Y-86868000D01*
X80137000Y-85598000D02*
X78867000Y-85598000D01*
X78867000Y-85598000D02*
X78867000Y-84328000D01*
X86487000Y-84328000D02*
X86487000Y-85598000D01*
X86487000Y-85598000D02*
X85217000Y-85598000D01*
X85217000Y-85598000D02*
X85217000Y-86868000D01*
X85217000Y-86868000D02*
X80137000Y-86868000D01*
X80137000Y-86868000D02*
X80137000Y-84328000D01*
X80137000Y-84328000D02*
X85217000Y-84328000D01*
X85217000Y-84328000D02*
X85217000Y-85598000D01*
X88595500Y-119469500D02*
X80360500Y-119469500D01*
X88595500Y-123989500D02*
X88595500Y-119469500D01*
X80360500Y-123989500D02*
X88595500Y-123989500D01*
X107331500Y-132608000D02*
X113301500Y-132608000D01*
X113301500Y-132608000D02*
X113301500Y-124988000D01*
X113301500Y-124988000D02*
X107331500Y-124988000D01*
X107331500Y-124988000D02*
X107331500Y-132608000D01*
X107341500Y-129298000D02*
X108091500Y-129298000D01*
X108091500Y-129298000D02*
X108091500Y-128298000D01*
X108091500Y-128298000D02*
X107341500Y-128298000D01*
X107341500Y-128298000D02*
X107341500Y-129298000D01*
X107341500Y-132598000D02*
X108091500Y-132598000D01*
X108091500Y-132598000D02*
X108091500Y-130798000D01*
X108091500Y-130798000D02*
X107341500Y-130798000D01*
X107341500Y-130798000D02*
X107341500Y-132598000D01*
X107341500Y-126798000D02*
X108091500Y-126798000D01*
X108091500Y-126798000D02*
X108091500Y-124998000D01*
X108091500Y-124998000D02*
X107341500Y-124998000D01*
X107341500Y-124998000D02*
X107341500Y-126798000D01*
X109591500Y-132598000D02*
X109591500Y-131848000D01*
X109591500Y-131848000D02*
X110931500Y-131848000D01*
X112541500Y-128798000D02*
X112541500Y-130788000D01*
X109591500Y-124998000D02*
X109591500Y-125748000D01*
X109591500Y-125748000D02*
X112541500Y-125748000D01*
X112541500Y-125748000D02*
X112541500Y-128798000D01*
X107041500Y-131648000D02*
X107041500Y-132898000D01*
X107041500Y-132898000D02*
X108291500Y-132898000D01*
X92685500Y-121421000D02*
X100535500Y-121421000D01*
X100535500Y-121421000D02*
X100535500Y-133361000D01*
X100535500Y-133361000D02*
X92685500Y-133361000D01*
X92685500Y-133361000D02*
X92685500Y-121421000D01*
X94805500Y-121091000D02*
X92355500Y-121091000D01*
X92355500Y-121091000D02*
X92355500Y-123421000D01*
X109478578Y-105485000D02*
X108961422Y-105485000D01*
X109478578Y-104065000D02*
X108961422Y-104065000D01*
X84596000Y-125889000D02*
X84596000Y-130274000D01*
X87616000Y-125889000D02*
X84596000Y-125889000D01*
X87616000Y-130274000D02*
X87616000Y-125889000D01*
X80427000Y-74565000D02*
X80427000Y-76565000D01*
X80427000Y-76565000D02*
X84327000Y-76565000D01*
X80427000Y-74565000D02*
X84327000Y-74565000D01*
X115518000Y-112644422D02*
X115518000Y-113161578D01*
X114098000Y-112644422D02*
X114098000Y-113161578D01*
X101675000Y-117216422D02*
X101675000Y-117733578D01*
X100255000Y-117216422D02*
X100255000Y-117733578D01*
X109803000Y-112565922D02*
X109803000Y-113083078D01*
X108383000Y-112565922D02*
X108383000Y-113083078D01*
X108912922Y-98985000D02*
X109430078Y-98985000D01*
X108912922Y-100405000D02*
X109430078Y-100405000D01*
D10*
X102769000Y-119862000D02*
X102944000Y-119862000D01*
X102769000Y-116612000D02*
X103044000Y-116612000D01*
X106019000Y-116612000D02*
X105744000Y-116612000D01*
X106019000Y-119862000D02*
X105744000Y-119862000D01*
X102769000Y-119862000D02*
X102769000Y-116612000D01*
X106019000Y-119862000D02*
X106019000Y-116612000D01*
X102944000Y-119862000D02*
X102944000Y-120937000D01*
D11*
X111887000Y-120797000D02*
X113837000Y-120797000D01*
X111887000Y-120797000D02*
X109937000Y-120797000D01*
X111887000Y-115677000D02*
X113837000Y-115677000D01*
X111887000Y-115677000D02*
X108437000Y-115677000D01*
X102691000Y-112517422D02*
X102691000Y-113034578D01*
X101271000Y-112517422D02*
X101271000Y-113034578D01*
X106120000Y-112517422D02*
X106120000Y-113034578D01*
X104700000Y-112517422D02*
X104700000Y-113034578D01*
X105612000Y-123820422D02*
X105612000Y-124337578D01*
X104192000Y-123820422D02*
X104192000Y-124337578D01*
X101906000Y-124337578D02*
X101906000Y-123820422D01*
X103326000Y-124337578D02*
X103326000Y-123820422D01*
X108961422Y-101398000D02*
X109478578Y-101398000D01*
X108961422Y-102818000D02*
X109478578Y-102818000D01*
X113494078Y-100405000D02*
X112976922Y-100405000D01*
X113494078Y-98985000D02*
X112976922Y-98985000D01*
X113025422Y-101398000D02*
X113542578Y-101398000D01*
X113025422Y-102818000D02*
X113542578Y-102818000D01*
X121037000Y-114752000D02*
X121987000Y-114752000D01*
X121987000Y-114752000D02*
X121987000Y-115702000D01*
X121987000Y-115702000D02*
X122677000Y-115702000D01*
X121037000Y-121722000D02*
X121987000Y-121722000D01*
X121987000Y-121722000D02*
X121987000Y-120772000D01*
X118067000Y-115122000D02*
X118067000Y-121352000D01*
X92626000Y-88904000D02*
X95786000Y-88904000D01*
X99286000Y-88904000D02*
X102446000Y-88904000D01*
X99286000Y-66184000D02*
X102446000Y-66184000D01*
X102446000Y-66184000D02*
X102446000Y-88904000D01*
X92626000Y-66184000D02*
X92626000Y-88904000D01*
X92626000Y-66184000D02*
X95786000Y-66184000D01*
X104818000Y-88904000D02*
X107978000Y-88904000D01*
X111478000Y-88904000D02*
X114638000Y-88904000D01*
X111478000Y-66184000D02*
X114638000Y-66184000D01*
X114638000Y-66184000D02*
X114638000Y-88904000D01*
X104818000Y-66184000D02*
X104818000Y-88904000D01*
X104818000Y-66184000D02*
X107978000Y-66184000D01*
X106410000Y-101611000D02*
X104760000Y-101611000D01*
X104760000Y-99811000D02*
X106060000Y-99811000D01*
X118067000Y-97215000D02*
X118067000Y-103445000D01*
X121987000Y-103815000D02*
X121987000Y-102865000D01*
X121037000Y-103815000D02*
X121987000Y-103815000D01*
X121987000Y-97795000D02*
X122677000Y-97795000D01*
X121987000Y-96845000D02*
X121987000Y-97795000D01*
X121037000Y-96845000D02*
X121987000Y-96845000D01*
D10*
X98808571Y-111733333D02*
X98808571Y-112066666D01*
X99332380Y-112066666D02*
X98332380Y-112066666D01*
X98332380Y-111590476D01*
X98332380Y-111304761D02*
X98332380Y-110685714D01*
X98713333Y-111019047D01*
X98713333Y-110876190D01*
X98760952Y-110780952D01*
X98808571Y-110733333D01*
X98903809Y-110685714D01*
X99141904Y-110685714D01*
X99237142Y-110733333D01*
X99284761Y-110780952D01*
X99332380Y-110876190D01*
X99332380Y-111161904D01*
X99284761Y-111257142D01*
X99237142Y-111304761D01*
X71790476Y-116652380D02*
X71790476Y-117366666D01*
X71742857Y-117509523D01*
X71647619Y-117604761D01*
X71504761Y-117652380D01*
X71409523Y-117652380D01*
X72790476Y-117652380D02*
X72219047Y-117652380D01*
X72504761Y-117652380D02*
X72504761Y-116652380D01*
X72409523Y-116795238D01*
X72314285Y-116890476D01*
X72219047Y-116938095D01*
X73409523Y-116652380D02*
X73504761Y-116652380D01*
X73600000Y-116700000D01*
X73647619Y-116747619D01*
X73695238Y-116842857D01*
X73742857Y-117033333D01*
X73742857Y-117271428D01*
X73695238Y-117461904D01*
X73647619Y-117557142D01*
X73600000Y-117604761D01*
X73504761Y-117652380D01*
X73409523Y-117652380D01*
X73314285Y-117604761D01*
X73266666Y-117557142D01*
X73219047Y-117461904D01*
X73171428Y-117271428D01*
X73171428Y-117033333D01*
X73219047Y-116842857D01*
X73266666Y-116747619D01*
X73314285Y-116700000D01*
X73409523Y-116652380D01*
X98052380Y-118938095D02*
X97052380Y-118938095D01*
X97052380Y-118700000D01*
X97100000Y-118557142D01*
X97195238Y-118461904D01*
X97290476Y-118414285D01*
X97480952Y-118366666D01*
X97623809Y-118366666D01*
X97814285Y-118414285D01*
X97909523Y-118461904D01*
X98004761Y-118557142D01*
X98052380Y-118700000D01*
X98052380Y-118938095D01*
X98052380Y-117414285D02*
X98052380Y-117985714D01*
X98052380Y-117700000D02*
X97052380Y-117700000D01*
X97195238Y-117795238D01*
X97290476Y-117890476D01*
X97338095Y-117985714D01*
X92063380Y-92526095D02*
X91063380Y-92526095D01*
X92063380Y-91954666D02*
X91491952Y-92383238D01*
X91063380Y-91954666D02*
X91634809Y-92526095D01*
X92063380Y-91002285D02*
X92063380Y-91573714D01*
X92063380Y-91288000D02*
X91063380Y-91288000D01*
X91206238Y-91383238D01*
X91301476Y-91478476D01*
X91349095Y-91573714D01*
X83843833Y-125186642D02*
X83796214Y-125234261D01*
X83653357Y-125281880D01*
X83558119Y-125281880D01*
X83415261Y-125234261D01*
X83320023Y-125139023D01*
X83272404Y-125043785D01*
X83224785Y-124853309D01*
X83224785Y-124710452D01*
X83272404Y-124519976D01*
X83320023Y-124424738D01*
X83415261Y-124329500D01*
X83558119Y-124281880D01*
X83653357Y-124281880D01*
X83796214Y-124329500D01*
X83843833Y-124377119D01*
X84700976Y-124281880D02*
X84510500Y-124281880D01*
X84415261Y-124329500D01*
X84367642Y-124377119D01*
X84272404Y-124519976D01*
X84224785Y-124710452D01*
X84224785Y-125091404D01*
X84272404Y-125186642D01*
X84320023Y-125234261D01*
X84415261Y-125281880D01*
X84605738Y-125281880D01*
X84700976Y-125234261D01*
X84748595Y-125186642D01*
X84796214Y-125091404D01*
X84796214Y-124853309D01*
X84748595Y-124758071D01*
X84700976Y-124710452D01*
X84605738Y-124662833D01*
X84415261Y-124662833D01*
X84320023Y-124710452D01*
X84272404Y-124758071D01*
X84224785Y-124853309D01*
X105693880Y-129131333D02*
X106408166Y-129131333D01*
X106551023Y-129178952D01*
X106646261Y-129274190D01*
X106693880Y-129417047D01*
X106693880Y-129512285D01*
X106122452Y-128512285D02*
X106074833Y-128607523D01*
X106027214Y-128655142D01*
X105931976Y-128702761D01*
X105884357Y-128702761D01*
X105789119Y-128655142D01*
X105741500Y-128607523D01*
X105693880Y-128512285D01*
X105693880Y-128321809D01*
X105741500Y-128226571D01*
X105789119Y-128178952D01*
X105884357Y-128131333D01*
X105931976Y-128131333D01*
X106027214Y-128178952D01*
X106074833Y-128226571D01*
X106122452Y-128321809D01*
X106122452Y-128512285D01*
X106170071Y-128607523D01*
X106217690Y-128655142D01*
X106312928Y-128702761D01*
X106503404Y-128702761D01*
X106598642Y-128655142D01*
X106646261Y-128607523D01*
X106693880Y-128512285D01*
X106693880Y-128321809D01*
X106646261Y-128226571D01*
X106598642Y-128178952D01*
X106503404Y-128131333D01*
X106312928Y-128131333D01*
X106217690Y-128178952D01*
X106170071Y-128226571D01*
X106122452Y-128321809D01*
X91082880Y-132714904D02*
X91892404Y-132714904D01*
X91987642Y-132667285D01*
X92035261Y-132619666D01*
X92082880Y-132524428D01*
X92082880Y-132333952D01*
X92035261Y-132238714D01*
X91987642Y-132191095D01*
X91892404Y-132143476D01*
X91082880Y-132143476D01*
X92082880Y-131143476D02*
X92082880Y-131714904D01*
X92082880Y-131429190D02*
X91082880Y-131429190D01*
X91225738Y-131524428D01*
X91320976Y-131619666D01*
X91368595Y-131714904D01*
X109053333Y-106877380D02*
X108720000Y-106401190D01*
X108481904Y-106877380D02*
X108481904Y-105877380D01*
X108862857Y-105877380D01*
X108958095Y-105925000D01*
X109005714Y-105972619D01*
X109053333Y-106067857D01*
X109053333Y-106210714D01*
X109005714Y-106305952D01*
X108958095Y-106353571D01*
X108862857Y-106401190D01*
X108481904Y-106401190D01*
X109386666Y-105877380D02*
X110005714Y-105877380D01*
X109672380Y-106258333D01*
X109815238Y-106258333D01*
X109910476Y-106305952D01*
X109958095Y-106353571D01*
X110005714Y-106448809D01*
X110005714Y-106686904D01*
X109958095Y-106782142D01*
X109910476Y-106829761D01*
X109815238Y-106877380D01*
X109529523Y-106877380D01*
X109434285Y-106829761D01*
X109386666Y-106782142D01*
X88813142Y-128690666D02*
X88860761Y-128738285D01*
X88908380Y-128881142D01*
X88908380Y-128976380D01*
X88860761Y-129119238D01*
X88765523Y-129214476D01*
X88670285Y-129262095D01*
X88479809Y-129309714D01*
X88336952Y-129309714D01*
X88146476Y-129262095D01*
X88051238Y-129214476D01*
X87956000Y-129119238D01*
X87908380Y-128976380D01*
X87908380Y-128881142D01*
X87956000Y-128738285D01*
X88003619Y-128690666D01*
X88908380Y-127738285D02*
X88908380Y-128309714D01*
X88908380Y-128024000D02*
X87908380Y-128024000D01*
X88051238Y-128119238D01*
X88146476Y-128214476D01*
X88194095Y-128309714D01*
X81938904Y-74017380D02*
X81938904Y-73017380D01*
X82177000Y-73017380D01*
X82319857Y-73065000D01*
X82415095Y-73160238D01*
X82462714Y-73255476D01*
X82510333Y-73445952D01*
X82510333Y-73588809D01*
X82462714Y-73779285D01*
X82415095Y-73874523D01*
X82319857Y-73969761D01*
X82177000Y-74017380D01*
X81938904Y-74017380D01*
X82891285Y-73112619D02*
X82938904Y-73065000D01*
X83034142Y-73017380D01*
X83272238Y-73017380D01*
X83367476Y-73065000D01*
X83415095Y-73112619D01*
X83462714Y-73207857D01*
X83462714Y-73303095D01*
X83415095Y-73445952D01*
X82843666Y-74017380D01*
X83462714Y-74017380D01*
X116815142Y-113069666D02*
X116862761Y-113117285D01*
X116910380Y-113260142D01*
X116910380Y-113355380D01*
X116862761Y-113498238D01*
X116767523Y-113593476D01*
X116672285Y-113641095D01*
X116481809Y-113688714D01*
X116338952Y-113688714D01*
X116148476Y-113641095D01*
X116053238Y-113593476D01*
X115958000Y-113498238D01*
X115910380Y-113355380D01*
X115910380Y-113260142D01*
X115958000Y-113117285D01*
X116005619Y-113069666D01*
X115910380Y-112164904D02*
X115910380Y-112641095D01*
X116386571Y-112688714D01*
X116338952Y-112641095D01*
X116291333Y-112545857D01*
X116291333Y-112307761D01*
X116338952Y-112212523D01*
X116386571Y-112164904D01*
X116481809Y-112117285D01*
X116719904Y-112117285D01*
X116815142Y-112164904D01*
X116862761Y-112212523D01*
X116910380Y-112307761D01*
X116910380Y-112545857D01*
X116862761Y-112641095D01*
X116815142Y-112688714D01*
X99671142Y-117641666D02*
X99718761Y-117689285D01*
X99766380Y-117832142D01*
X99766380Y-117927380D01*
X99718761Y-118070238D01*
X99623523Y-118165476D01*
X99528285Y-118213095D01*
X99337809Y-118260714D01*
X99194952Y-118260714D01*
X99004476Y-118213095D01*
X98909238Y-118165476D01*
X98814000Y-118070238D01*
X98766380Y-117927380D01*
X98766380Y-117832142D01*
X98814000Y-117689285D01*
X98861619Y-117641666D01*
X99099714Y-116784523D02*
X99766380Y-116784523D01*
X98718761Y-117022619D02*
X99433047Y-117260714D01*
X99433047Y-116641666D01*
X111100142Y-112991166D02*
X111147761Y-113038785D01*
X111195380Y-113181642D01*
X111195380Y-113276880D01*
X111147761Y-113419738D01*
X111052523Y-113514976D01*
X110957285Y-113562595D01*
X110766809Y-113610214D01*
X110623952Y-113610214D01*
X110433476Y-113562595D01*
X110338238Y-113514976D01*
X110243000Y-113419738D01*
X110195380Y-113276880D01*
X110195380Y-113181642D01*
X110243000Y-113038785D01*
X110290619Y-112991166D01*
X110195380Y-112657833D02*
X110195380Y-112038785D01*
X110576333Y-112372119D01*
X110576333Y-112229261D01*
X110623952Y-112134023D01*
X110671571Y-112086404D01*
X110766809Y-112038785D01*
X111004904Y-112038785D01*
X111100142Y-112086404D01*
X111147761Y-112134023D01*
X111195380Y-112229261D01*
X111195380Y-112514976D01*
X111147761Y-112610214D01*
X111100142Y-112657833D01*
X109004833Y-98528142D02*
X108957214Y-98575761D01*
X108814357Y-98623380D01*
X108719119Y-98623380D01*
X108576261Y-98575761D01*
X108481023Y-98480523D01*
X108433404Y-98385285D01*
X108385785Y-98194809D01*
X108385785Y-98051952D01*
X108433404Y-97861476D01*
X108481023Y-97766238D01*
X108576261Y-97671000D01*
X108719119Y-97623380D01*
X108814357Y-97623380D01*
X108957214Y-97671000D01*
X109004833Y-97718619D01*
X109385785Y-97718619D02*
X109433404Y-97671000D01*
X109528642Y-97623380D01*
X109766738Y-97623380D01*
X109861976Y-97671000D01*
X109909595Y-97718619D01*
X109957214Y-97813857D01*
X109957214Y-97909095D01*
X109909595Y-98051952D01*
X109338166Y-98623380D01*
X109957214Y-98623380D01*
X101433380Y-121221404D02*
X102242904Y-121221404D01*
X102338142Y-121173785D01*
X102385761Y-121126166D01*
X102433380Y-121030928D01*
X102433380Y-120840452D01*
X102385761Y-120745214D01*
X102338142Y-120697595D01*
X102242904Y-120649976D01*
X101433380Y-120649976D01*
X101433380Y-120269023D02*
X101433380Y-119649976D01*
X101814333Y-119983309D01*
X101814333Y-119840452D01*
X101861952Y-119745214D01*
X101909571Y-119697595D01*
X102004809Y-119649976D01*
X102242904Y-119649976D01*
X102338142Y-119697595D01*
X102385761Y-119745214D01*
X102433380Y-119840452D01*
X102433380Y-120126166D01*
X102385761Y-120221404D01*
X102338142Y-120269023D01*
X111125095Y-114289380D02*
X111125095Y-115098904D01*
X111172714Y-115194142D01*
X111220333Y-115241761D01*
X111315571Y-115289380D01*
X111506047Y-115289380D01*
X111601285Y-115241761D01*
X111648904Y-115194142D01*
X111696523Y-115098904D01*
X111696523Y-114289380D01*
X112125095Y-114384619D02*
X112172714Y-114337000D01*
X112267952Y-114289380D01*
X112506047Y-114289380D01*
X112601285Y-114337000D01*
X112648904Y-114384619D01*
X112696523Y-114479857D01*
X112696523Y-114575095D01*
X112648904Y-114717952D01*
X112077476Y-115289380D01*
X112696523Y-115289380D01*
X104083380Y-112942666D02*
X103607190Y-113276000D01*
X104083380Y-113514095D02*
X103083380Y-113514095D01*
X103083380Y-113133142D01*
X103131000Y-113037904D01*
X103178619Y-112990285D01*
X103273857Y-112942666D01*
X103416714Y-112942666D01*
X103511952Y-112990285D01*
X103559571Y-113037904D01*
X103607190Y-113133142D01*
X103607190Y-113514095D01*
X103511952Y-112371238D02*
X103464333Y-112466476D01*
X103416714Y-112514095D01*
X103321476Y-112561714D01*
X103273857Y-112561714D01*
X103178619Y-112514095D01*
X103131000Y-112466476D01*
X103083380Y-112371238D01*
X103083380Y-112180761D01*
X103131000Y-112085523D01*
X103178619Y-112037904D01*
X103273857Y-111990285D01*
X103321476Y-111990285D01*
X103416714Y-112037904D01*
X103464333Y-112085523D01*
X103511952Y-112180761D01*
X103511952Y-112371238D01*
X103559571Y-112466476D01*
X103607190Y-112514095D01*
X103702428Y-112561714D01*
X103892904Y-112561714D01*
X103988142Y-112514095D01*
X104035761Y-112466476D01*
X104083380Y-112371238D01*
X104083380Y-112180761D01*
X104035761Y-112085523D01*
X103988142Y-112037904D01*
X103892904Y-111990285D01*
X103702428Y-111990285D01*
X103607190Y-112037904D01*
X103559571Y-112085523D01*
X103511952Y-112180761D01*
X107512380Y-112942666D02*
X107036190Y-113276000D01*
X107512380Y-113514095D02*
X106512380Y-113514095D01*
X106512380Y-113133142D01*
X106560000Y-113037904D01*
X106607619Y-112990285D01*
X106702857Y-112942666D01*
X106845714Y-112942666D01*
X106940952Y-112990285D01*
X106988571Y-113037904D01*
X107036190Y-113133142D01*
X107036190Y-113514095D01*
X106512380Y-112609333D02*
X106512380Y-111942666D01*
X107512380Y-112371238D01*
X104608333Y-127134880D02*
X104275000Y-126658690D01*
X104036904Y-127134880D02*
X104036904Y-126134880D01*
X104417857Y-126134880D01*
X104513095Y-126182500D01*
X104560714Y-126230119D01*
X104608333Y-126325357D01*
X104608333Y-126468214D01*
X104560714Y-126563452D01*
X104513095Y-126611071D01*
X104417857Y-126658690D01*
X104036904Y-126658690D01*
X105465476Y-126134880D02*
X105275000Y-126134880D01*
X105179761Y-126182500D01*
X105132142Y-126230119D01*
X105036904Y-126372976D01*
X104989285Y-126563452D01*
X104989285Y-126944404D01*
X105036904Y-127039642D01*
X105084523Y-127087261D01*
X105179761Y-127134880D01*
X105370238Y-127134880D01*
X105465476Y-127087261D01*
X105513095Y-127039642D01*
X105560714Y-126944404D01*
X105560714Y-126706309D01*
X105513095Y-126611071D01*
X105465476Y-126563452D01*
X105370238Y-126515833D01*
X105179761Y-126515833D01*
X105084523Y-126563452D01*
X105036904Y-126611071D01*
X104989285Y-126706309D01*
X102449333Y-127198380D02*
X102116000Y-126722190D01*
X101877904Y-127198380D02*
X101877904Y-126198380D01*
X102258857Y-126198380D01*
X102354095Y-126246000D01*
X102401714Y-126293619D01*
X102449333Y-126388857D01*
X102449333Y-126531714D01*
X102401714Y-126626952D01*
X102354095Y-126674571D01*
X102258857Y-126722190D01*
X101877904Y-126722190D01*
X103354095Y-126198380D02*
X102877904Y-126198380D01*
X102830285Y-126674571D01*
X102877904Y-126626952D01*
X102973142Y-126579333D01*
X103211238Y-126579333D01*
X103306476Y-126626952D01*
X103354095Y-126674571D01*
X103401714Y-126769809D01*
X103401714Y-127007904D01*
X103354095Y-127103142D01*
X103306476Y-127150761D01*
X103211238Y-127198380D01*
X102973142Y-127198380D01*
X102877904Y-127150761D01*
X102830285Y-127103142D01*
X106386333Y-103576380D02*
X106053000Y-103100190D01*
X105814904Y-103576380D02*
X105814904Y-102576380D01*
X106195857Y-102576380D01*
X106291095Y-102624000D01*
X106338714Y-102671619D01*
X106386333Y-102766857D01*
X106386333Y-102909714D01*
X106338714Y-103004952D01*
X106291095Y-103052571D01*
X106195857Y-103100190D01*
X105814904Y-103100190D01*
X107243476Y-102909714D02*
X107243476Y-103576380D01*
X107005380Y-102528761D02*
X106767285Y-103243047D01*
X107386333Y-103243047D01*
X113068833Y-98623380D02*
X112735500Y-98147190D01*
X112497404Y-98623380D02*
X112497404Y-97623380D01*
X112878357Y-97623380D01*
X112973595Y-97671000D01*
X113021214Y-97718619D01*
X113068833Y-97813857D01*
X113068833Y-97956714D01*
X113021214Y-98051952D01*
X112973595Y-98099571D01*
X112878357Y-98147190D01*
X112497404Y-98147190D01*
X113449785Y-97718619D02*
X113497404Y-97671000D01*
X113592642Y-97623380D01*
X113830738Y-97623380D01*
X113925976Y-97671000D01*
X113973595Y-97718619D01*
X114021214Y-97813857D01*
X114021214Y-97909095D01*
X113973595Y-98051952D01*
X113402166Y-98623380D01*
X114021214Y-98623380D01*
X113117333Y-104465380D02*
X112784000Y-103989190D01*
X112545904Y-104465380D02*
X112545904Y-103465380D01*
X112926857Y-103465380D01*
X113022095Y-103513000D01*
X113069714Y-103560619D01*
X113117333Y-103655857D01*
X113117333Y-103798714D01*
X113069714Y-103893952D01*
X113022095Y-103941571D01*
X112926857Y-103989190D01*
X112545904Y-103989190D01*
X114069714Y-104465380D02*
X113498285Y-104465380D01*
X113784000Y-104465380D02*
X113784000Y-103465380D01*
X113688761Y-103608238D01*
X113593523Y-103703476D01*
X113498285Y-103751095D01*
X123329380Y-118570333D02*
X124043666Y-118570333D01*
X124186523Y-118617952D01*
X124281761Y-118713190D01*
X124329380Y-118856047D01*
X124329380Y-118951285D01*
X124329380Y-118046523D02*
X124329380Y-117856047D01*
X124281761Y-117760809D01*
X124234142Y-117713190D01*
X124091285Y-117617952D01*
X123900809Y-117570333D01*
X123519857Y-117570333D01*
X123424619Y-117617952D01*
X123377000Y-117665571D01*
X123329380Y-117760809D01*
X123329380Y-117951285D01*
X123377000Y-118046523D01*
X123424619Y-118094142D01*
X123519857Y-118141761D01*
X123757952Y-118141761D01*
X123853190Y-118094142D01*
X123900809Y-118046523D01*
X123948428Y-117951285D01*
X123948428Y-117760809D01*
X123900809Y-117665571D01*
X123853190Y-117617952D01*
X123757952Y-117570333D01*
X103464571Y-77877333D02*
X103464571Y-78210666D01*
X103988380Y-78210666D02*
X102988380Y-78210666D01*
X102988380Y-77734476D01*
X103083619Y-77401142D02*
X103036000Y-77353523D01*
X102988380Y-77258285D01*
X102988380Y-77020190D01*
X103036000Y-76924952D01*
X103083619Y-76877333D01*
X103178857Y-76829714D01*
X103274095Y-76829714D01*
X103416952Y-76877333D01*
X103988380Y-77448761D01*
X103988380Y-76829714D01*
X115656571Y-77877333D02*
X115656571Y-78210666D01*
X116180380Y-78210666D02*
X115180380Y-78210666D01*
X115180380Y-77734476D01*
X116180380Y-76829714D02*
X116180380Y-77401142D01*
X116180380Y-77115428D02*
X115180380Y-77115428D01*
X115323238Y-77210666D01*
X115418476Y-77305904D01*
X115466095Y-77401142D01*
X103925619Y-100679238D02*
X103878000Y-100774476D01*
X103782761Y-100869714D01*
X103639904Y-101012571D01*
X103592285Y-101107809D01*
X103592285Y-101203047D01*
X103830380Y-101155428D02*
X103782761Y-101250666D01*
X103687523Y-101345904D01*
X103497047Y-101393523D01*
X103163714Y-101393523D01*
X102973238Y-101345904D01*
X102878000Y-101250666D01*
X102830380Y-101155428D01*
X102830380Y-100964952D01*
X102878000Y-100869714D01*
X102973238Y-100774476D01*
X103163714Y-100726857D01*
X103497047Y-100726857D01*
X103687523Y-100774476D01*
X103782761Y-100869714D01*
X103830380Y-100964952D01*
X103830380Y-101155428D01*
X103830380Y-99774476D02*
X103830380Y-100345904D01*
X103830380Y-100060190D02*
X102830380Y-100060190D01*
X102973238Y-100155428D01*
X103068476Y-100250666D01*
X103116095Y-100345904D01*
X123329380Y-100663333D02*
X124043666Y-100663333D01*
X124186523Y-100710952D01*
X124281761Y-100806190D01*
X124329380Y-100949047D01*
X124329380Y-101044285D01*
X123329380Y-100282380D02*
X123329380Y-99615714D01*
X124329380Y-100044285D01*
%LPC*%
G36*
G01*
X92686905Y-113775000D02*
X97713095Y-113775000D01*
G75*
G02*
X97975000Y-114036905I0J-261905D01*
G01*
X97975000Y-115713095D01*
G75*
G02*
X97713095Y-115975000I-261905J0D01*
G01*
X92686905Y-115975000D01*
G75*
G02*
X92425000Y-115713095I0J261905D01*
G01*
X92425000Y-114036905D01*
G75*
G02*
X92686905Y-113775000I261905J0D01*
G01*
G37*
G36*
G01*
X92686905Y-106825000D02*
X97713095Y-106825000D01*
G75*
G02*
X97975000Y-107086905I0J-261905D01*
G01*
X97975000Y-108763095D01*
G75*
G02*
X97713095Y-109025000I-261905J0D01*
G01*
X92686905Y-109025000D01*
G75*
G02*
X92425000Y-108763095I0J261905D01*
G01*
X92425000Y-107086905D01*
G75*
G02*
X92686905Y-106825000I261905J0D01*
G01*
G37*
D12*
X76200000Y-125000000D03*
D13*
X74200000Y-120900000D03*
G36*
G01*
X74985294Y-124300000D02*
X73414706Y-124300000D01*
G75*
G02*
X73150000Y-124035294I0J264706D01*
G01*
X73150000Y-122764706D01*
G75*
G02*
X73414706Y-122500000I264706J0D01*
G01*
X74985294Y-122500000D01*
G75*
G02*
X75250000Y-122764706I0J-264706D01*
G01*
X75250000Y-124035294D01*
G75*
G02*
X74985294Y-124300000I-264706J0D01*
G01*
G37*
G36*
G01*
X81887000Y-61109910D02*
X81887000Y-58778090D01*
G75*
G02*
X82146090Y-58519000I259090J0D01*
G01*
X84477910Y-58519000D01*
G75*
G02*
X84737000Y-58778090I0J-259090D01*
G01*
X84737000Y-61109910D01*
G75*
G02*
X84477910Y-61369000I-259090J0D01*
G01*
X82146090Y-61369000D01*
G75*
G02*
X81887000Y-61109910I0J259090D01*
G01*
G37*
G36*
G01*
X87094000Y-61109910D02*
X87094000Y-58778090D01*
G75*
G02*
X87353090Y-58519000I259090J0D01*
G01*
X89684910Y-58519000D01*
G75*
G02*
X89944000Y-58778090I0J-259090D01*
G01*
X89944000Y-61109910D01*
G75*
G02*
X89684910Y-61369000I-259090J0D01*
G01*
X87353090Y-61369000D01*
G75*
G02*
X87094000Y-61109910I0J259090D01*
G01*
G37*
G36*
G01*
X96111000Y-61109910D02*
X96111000Y-58778090D01*
G75*
G02*
X96370090Y-58519000I259090J0D01*
G01*
X98701910Y-58519000D01*
G75*
G02*
X98961000Y-58778090I0J-259090D01*
G01*
X98961000Y-61109910D01*
G75*
G02*
X98701910Y-61369000I-259090J0D01*
G01*
X96370090Y-61369000D01*
G75*
G02*
X96111000Y-61109910I0J259090D01*
G01*
G37*
G36*
G01*
X108303000Y-61109910D02*
X108303000Y-58778090D01*
G75*
G02*
X108562090Y-58519000I259090J0D01*
G01*
X110893910Y-58519000D01*
G75*
G02*
X111153000Y-58778090I0J-259090D01*
G01*
X111153000Y-61109910D01*
G75*
G02*
X110893910Y-61369000I-259090J0D01*
G01*
X108562090Y-61369000D01*
G75*
G02*
X108303000Y-61109910I0J259090D01*
G01*
G37*
G36*
G01*
X76426000Y-116989910D02*
X76426000Y-114658090D01*
G75*
G02*
X76685090Y-114399000I259090J0D01*
G01*
X79016910Y-114399000D01*
G75*
G02*
X79276000Y-114658090I0J-259090D01*
G01*
X79276000Y-116989910D01*
G75*
G02*
X79016910Y-117249000I-259090J0D01*
G01*
X76685090Y-117249000D01*
G75*
G02*
X76426000Y-116989910I0J259090D01*
G01*
G37*
G36*
G01*
X86586000Y-117116910D02*
X86586000Y-114785090D01*
G75*
G02*
X86845090Y-114526000I259090J0D01*
G01*
X89176910Y-114526000D01*
G75*
G02*
X89436000Y-114785090I0J-259090D01*
G01*
X89436000Y-117116910D01*
G75*
G02*
X89176910Y-117376000I-259090J0D01*
G01*
X86845090Y-117376000D01*
G75*
G02*
X86586000Y-117116910I0J259090D01*
G01*
G37*
D14*
X95900000Y-118400000D03*
X92900000Y-118400000D03*
D15*
X88011000Y-107188000D03*
X77851000Y-102108000D03*
X88011000Y-97028000D03*
X77851000Y-97028000D03*
X77851000Y-107188000D03*
X88011000Y-102108000D03*
D16*
X77851000Y-81788000D03*
D15*
X88011000Y-81788000D03*
G36*
G01*
X81985500Y-120665610D02*
X81985500Y-122793390D01*
G75*
G02*
X81724390Y-123054500I-261110J0D01*
G01*
X79896610Y-123054500D01*
G75*
G02*
X79635500Y-122793390I0J261110D01*
G01*
X79635500Y-120665610D01*
G75*
G02*
X79896610Y-120404500I261110J0D01*
G01*
X81724390Y-120404500D01*
G75*
G02*
X81985500Y-120665610I0J-261110D01*
G01*
G37*
G36*
G01*
X88385500Y-120665610D02*
X88385500Y-122793390D01*
G75*
G02*
X88124390Y-123054500I-261110J0D01*
G01*
X86296610Y-123054500D01*
G75*
G02*
X86035500Y-122793390I0J261110D01*
G01*
X86035500Y-120665610D01*
G75*
G02*
X86296610Y-120404500I261110J0D01*
G01*
X88124390Y-120404500D01*
G75*
G02*
X88385500Y-120665610I0J-261110D01*
G01*
G37*
D12*
X111791500Y-131648000D03*
D13*
X109791500Y-127548000D03*
G36*
G01*
X110576794Y-130948000D02*
X109006206Y-130948000D01*
G75*
G02*
X108741500Y-130683294I0J264706D01*
G01*
X108741500Y-129412706D01*
G75*
G02*
X109006206Y-129148000I264706J0D01*
G01*
X110576794Y-129148000D01*
G75*
G02*
X110841500Y-129412706I0J-264706D01*
G01*
X110841500Y-130683294D01*
G75*
G02*
X110576794Y-130948000I-264706J0D01*
G01*
G37*
D17*
X94805500Y-129921000D03*
X94805500Y-127381000D03*
D18*
X94805500Y-124841000D03*
G36*
G01*
X108820000Y-104293750D02*
X108820000Y-105256250D01*
G75*
G02*
X108551250Y-105525000I-268750J0D01*
G01*
X108013750Y-105525000D01*
G75*
G02*
X107745000Y-105256250I0J268750D01*
G01*
X107745000Y-104293750D01*
G75*
G02*
X108013750Y-104025000I268750J0D01*
G01*
X108551250Y-104025000D01*
G75*
G02*
X108820000Y-104293750I0J-268750D01*
G01*
G37*
G36*
G01*
X110695000Y-104293750D02*
X110695000Y-105256250D01*
G75*
G02*
X110426250Y-105525000I-268750J0D01*
G01*
X109888750Y-105525000D01*
G75*
G02*
X109620000Y-105256250I0J268750D01*
G01*
X109620000Y-104293750D01*
G75*
G02*
X109888750Y-104025000I268750J0D01*
G01*
X110426250Y-104025000D01*
G75*
G02*
X110695000Y-104293750I0J-268750D01*
G01*
G37*
G36*
G01*
X85147667Y-129349000D02*
X87064333Y-129349000D01*
G75*
G02*
X87331000Y-129615667I0J-266667D01*
G01*
X87331000Y-130682333D01*
G75*
G02*
X87064333Y-130949000I-266667J0D01*
G01*
X85147667Y-130949000D01*
G75*
G02*
X84881000Y-130682333I0J266667D01*
G01*
X84881000Y-129615667D01*
G75*
G02*
X85147667Y-129349000I266667J0D01*
G01*
G37*
G36*
G01*
X85147667Y-126099000D02*
X87064333Y-126099000D01*
G75*
G02*
X87331000Y-126365667I0J-266667D01*
G01*
X87331000Y-127432333D01*
G75*
G02*
X87064333Y-127699000I-266667J0D01*
G01*
X85147667Y-127699000D01*
G75*
G02*
X84881000Y-127432333I0J266667D01*
G01*
X84881000Y-126365667D01*
G75*
G02*
X85147667Y-126099000I266667J0D01*
G01*
G37*
D19*
X84327000Y-75565000D03*
X81027000Y-75565000D03*
G36*
G01*
X114326750Y-113303000D02*
X115289250Y-113303000D01*
G75*
G02*
X115558000Y-113571750I0J-268750D01*
G01*
X115558000Y-114109250D01*
G75*
G02*
X115289250Y-114378000I-268750J0D01*
G01*
X114326750Y-114378000D01*
G75*
G02*
X114058000Y-114109250I0J268750D01*
G01*
X114058000Y-113571750D01*
G75*
G02*
X114326750Y-113303000I268750J0D01*
G01*
G37*
G36*
G01*
X114326750Y-111428000D02*
X115289250Y-111428000D01*
G75*
G02*
X115558000Y-111696750I0J-268750D01*
G01*
X115558000Y-112234250D01*
G75*
G02*
X115289250Y-112503000I-268750J0D01*
G01*
X114326750Y-112503000D01*
G75*
G02*
X114058000Y-112234250I0J268750D01*
G01*
X114058000Y-111696750D01*
G75*
G02*
X114326750Y-111428000I268750J0D01*
G01*
G37*
G36*
G01*
X100483750Y-117875000D02*
X101446250Y-117875000D01*
G75*
G02*
X101715000Y-118143750I0J-268750D01*
G01*
X101715000Y-118681250D01*
G75*
G02*
X101446250Y-118950000I-268750J0D01*
G01*
X100483750Y-118950000D01*
G75*
G02*
X100215000Y-118681250I0J268750D01*
G01*
X100215000Y-118143750D01*
G75*
G02*
X100483750Y-117875000I268750J0D01*
G01*
G37*
G36*
G01*
X100483750Y-116000000D02*
X101446250Y-116000000D01*
G75*
G02*
X101715000Y-116268750I0J-268750D01*
G01*
X101715000Y-116806250D01*
G75*
G02*
X101446250Y-117075000I-268750J0D01*
G01*
X100483750Y-117075000D01*
G75*
G02*
X100215000Y-116806250I0J268750D01*
G01*
X100215000Y-116268750D01*
G75*
G02*
X100483750Y-116000000I268750J0D01*
G01*
G37*
G36*
G01*
X108611750Y-113224500D02*
X109574250Y-113224500D01*
G75*
G02*
X109843000Y-113493250I0J-268750D01*
G01*
X109843000Y-114030750D01*
G75*
G02*
X109574250Y-114299500I-268750J0D01*
G01*
X108611750Y-114299500D01*
G75*
G02*
X108343000Y-114030750I0J268750D01*
G01*
X108343000Y-113493250D01*
G75*
G02*
X108611750Y-113224500I268750J0D01*
G01*
G37*
G36*
G01*
X108611750Y-111349500D02*
X109574250Y-111349500D01*
G75*
G02*
X109843000Y-111618250I0J-268750D01*
G01*
X109843000Y-112155750D01*
G75*
G02*
X109574250Y-112424500I-268750J0D01*
G01*
X108611750Y-112424500D01*
G75*
G02*
X108343000Y-112155750I0J268750D01*
G01*
X108343000Y-111618250D01*
G75*
G02*
X108611750Y-111349500I268750J0D01*
G01*
G37*
G36*
G01*
X109571500Y-100176250D02*
X109571500Y-99213750D01*
G75*
G02*
X109840250Y-98945000I268750J0D01*
G01*
X110377750Y-98945000D01*
G75*
G02*
X110646500Y-99213750I0J-268750D01*
G01*
X110646500Y-100176250D01*
G75*
G02*
X110377750Y-100445000I-268750J0D01*
G01*
X109840250Y-100445000D01*
G75*
G02*
X109571500Y-100176250I0J268750D01*
G01*
G37*
G36*
G01*
X107696500Y-100176250D02*
X107696500Y-99213750D01*
G75*
G02*
X107965250Y-98945000I268750J0D01*
G01*
X108502750Y-98945000D01*
G75*
G02*
X108771500Y-99213750I0J-268750D01*
G01*
X108771500Y-100176250D01*
G75*
G02*
X108502750Y-100445000I-268750J0D01*
G01*
X107965250Y-100445000D01*
G75*
G02*
X107696500Y-100176250I0J268750D01*
G01*
G37*
D20*
X103394000Y-116087000D03*
X103894000Y-116087000D03*
X104394000Y-116087000D03*
X104894000Y-116087000D03*
X105394000Y-116087000D03*
X105394000Y-120387000D03*
X104894000Y-120387000D03*
X104394000Y-120387000D03*
X103894000Y-120387000D03*
X103394000Y-120387000D03*
G36*
G01*
X113337000Y-116507000D02*
X113337000Y-116157000D01*
G75*
G02*
X113512000Y-115982000I175000J0D01*
G01*
X115212000Y-115982000D01*
G75*
G02*
X115387000Y-116157000I0J-175000D01*
G01*
X115387000Y-116507000D01*
G75*
G02*
X115212000Y-116682000I-175000J0D01*
G01*
X113512000Y-116682000D01*
G75*
G02*
X113337000Y-116507000I0J175000D01*
G01*
G37*
G36*
G01*
X113337000Y-117777000D02*
X113337000Y-117427000D01*
G75*
G02*
X113512000Y-117252000I175000J0D01*
G01*
X115212000Y-117252000D01*
G75*
G02*
X115387000Y-117427000I0J-175000D01*
G01*
X115387000Y-117777000D01*
G75*
G02*
X115212000Y-117952000I-175000J0D01*
G01*
X113512000Y-117952000D01*
G75*
G02*
X113337000Y-117777000I0J175000D01*
G01*
G37*
G36*
G01*
X113337000Y-119047000D02*
X113337000Y-118697000D01*
G75*
G02*
X113512000Y-118522000I175000J0D01*
G01*
X115212000Y-118522000D01*
G75*
G02*
X115387000Y-118697000I0J-175000D01*
G01*
X115387000Y-119047000D01*
G75*
G02*
X115212000Y-119222000I-175000J0D01*
G01*
X113512000Y-119222000D01*
G75*
G02*
X113337000Y-119047000I0J175000D01*
G01*
G37*
G36*
G01*
X113337000Y-120317000D02*
X113337000Y-119967000D01*
G75*
G02*
X113512000Y-119792000I175000J0D01*
G01*
X115212000Y-119792000D01*
G75*
G02*
X115387000Y-119967000I0J-175000D01*
G01*
X115387000Y-120317000D01*
G75*
G02*
X115212000Y-120492000I-175000J0D01*
G01*
X113512000Y-120492000D01*
G75*
G02*
X113337000Y-120317000I0J175000D01*
G01*
G37*
G36*
G01*
X108387000Y-120317000D02*
X108387000Y-119967000D01*
G75*
G02*
X108562000Y-119792000I175000J0D01*
G01*
X110262000Y-119792000D01*
G75*
G02*
X110437000Y-119967000I0J-175000D01*
G01*
X110437000Y-120317000D01*
G75*
G02*
X110262000Y-120492000I-175000J0D01*
G01*
X108562000Y-120492000D01*
G75*
G02*
X108387000Y-120317000I0J175000D01*
G01*
G37*
G36*
G01*
X108387000Y-119047000D02*
X108387000Y-118697000D01*
G75*
G02*
X108562000Y-118522000I175000J0D01*
G01*
X110262000Y-118522000D01*
G75*
G02*
X110437000Y-118697000I0J-175000D01*
G01*
X110437000Y-119047000D01*
G75*
G02*
X110262000Y-119222000I-175000J0D01*
G01*
X108562000Y-119222000D01*
G75*
G02*
X108387000Y-119047000I0J175000D01*
G01*
G37*
G36*
G01*
X108387000Y-117777000D02*
X108387000Y-117427000D01*
G75*
G02*
X108562000Y-117252000I175000J0D01*
G01*
X110262000Y-117252000D01*
G75*
G02*
X110437000Y-117427000I0J-175000D01*
G01*
X110437000Y-117777000D01*
G75*
G02*
X110262000Y-117952000I-175000J0D01*
G01*
X108562000Y-117952000D01*
G75*
G02*
X108387000Y-117777000I0J175000D01*
G01*
G37*
G36*
G01*
X108387000Y-116507000D02*
X108387000Y-116157000D01*
G75*
G02*
X108562000Y-115982000I175000J0D01*
G01*
X110262000Y-115982000D01*
G75*
G02*
X110437000Y-116157000I0J-175000D01*
G01*
X110437000Y-116507000D01*
G75*
G02*
X110262000Y-116682000I-175000J0D01*
G01*
X108562000Y-116682000D01*
G75*
G02*
X108387000Y-116507000I0J175000D01*
G01*
G37*
G36*
G01*
X101499750Y-113176000D02*
X102462250Y-113176000D01*
G75*
G02*
X102731000Y-113444750I0J-268750D01*
G01*
X102731000Y-113982250D01*
G75*
G02*
X102462250Y-114251000I-268750J0D01*
G01*
X101499750Y-114251000D01*
G75*
G02*
X101231000Y-113982250I0J268750D01*
G01*
X101231000Y-113444750D01*
G75*
G02*
X101499750Y-113176000I268750J0D01*
G01*
G37*
G36*
G01*
X101499750Y-111301000D02*
X102462250Y-111301000D01*
G75*
G02*
X102731000Y-111569750I0J-268750D01*
G01*
X102731000Y-112107250D01*
G75*
G02*
X102462250Y-112376000I-268750J0D01*
G01*
X101499750Y-112376000D01*
G75*
G02*
X101231000Y-112107250I0J268750D01*
G01*
X101231000Y-111569750D01*
G75*
G02*
X101499750Y-111301000I268750J0D01*
G01*
G37*
G36*
G01*
X104928750Y-113176000D02*
X105891250Y-113176000D01*
G75*
G02*
X106160000Y-113444750I0J-268750D01*
G01*
X106160000Y-113982250D01*
G75*
G02*
X105891250Y-114251000I-268750J0D01*
G01*
X104928750Y-114251000D01*
G75*
G02*
X104660000Y-113982250I0J268750D01*
G01*
X104660000Y-113444750D01*
G75*
G02*
X104928750Y-113176000I268750J0D01*
G01*
G37*
G36*
G01*
X104928750Y-111301000D02*
X105891250Y-111301000D01*
G75*
G02*
X106160000Y-111569750I0J-268750D01*
G01*
X106160000Y-112107250D01*
G75*
G02*
X105891250Y-112376000I-268750J0D01*
G01*
X104928750Y-112376000D01*
G75*
G02*
X104660000Y-112107250I0J268750D01*
G01*
X104660000Y-111569750D01*
G75*
G02*
X104928750Y-111301000I268750J0D01*
G01*
G37*
G36*
G01*
X104420750Y-124479000D02*
X105383250Y-124479000D01*
G75*
G02*
X105652000Y-124747750I0J-268750D01*
G01*
X105652000Y-125285250D01*
G75*
G02*
X105383250Y-125554000I-268750J0D01*
G01*
X104420750Y-125554000D01*
G75*
G02*
X104152000Y-125285250I0J268750D01*
G01*
X104152000Y-124747750D01*
G75*
G02*
X104420750Y-124479000I268750J0D01*
G01*
G37*
G36*
G01*
X104420750Y-122604000D02*
X105383250Y-122604000D01*
G75*
G02*
X105652000Y-122872750I0J-268750D01*
G01*
X105652000Y-123410250D01*
G75*
G02*
X105383250Y-123679000I-268750J0D01*
G01*
X104420750Y-123679000D01*
G75*
G02*
X104152000Y-123410250I0J268750D01*
G01*
X104152000Y-122872750D01*
G75*
G02*
X104420750Y-122604000I268750J0D01*
G01*
G37*
G36*
G01*
X103097250Y-123679000D02*
X102134750Y-123679000D01*
G75*
G02*
X101866000Y-123410250I0J268750D01*
G01*
X101866000Y-122872750D01*
G75*
G02*
X102134750Y-122604000I268750J0D01*
G01*
X103097250Y-122604000D01*
G75*
G02*
X103366000Y-122872750I0J-268750D01*
G01*
X103366000Y-123410250D01*
G75*
G02*
X103097250Y-123679000I-268750J0D01*
G01*
G37*
G36*
G01*
X103097250Y-125554000D02*
X102134750Y-125554000D01*
G75*
G02*
X101866000Y-125285250I0J268750D01*
G01*
X101866000Y-124747750D01*
G75*
G02*
X102134750Y-124479000I268750J0D01*
G01*
X103097250Y-124479000D01*
G75*
G02*
X103366000Y-124747750I0J-268750D01*
G01*
X103366000Y-125285250D01*
G75*
G02*
X103097250Y-125554000I-268750J0D01*
G01*
G37*
G36*
G01*
X109620000Y-102589250D02*
X109620000Y-101626750D01*
G75*
G02*
X109888750Y-101358000I268750J0D01*
G01*
X110426250Y-101358000D01*
G75*
G02*
X110695000Y-101626750I0J-268750D01*
G01*
X110695000Y-102589250D01*
G75*
G02*
X110426250Y-102858000I-268750J0D01*
G01*
X109888750Y-102858000D01*
G75*
G02*
X109620000Y-102589250I0J268750D01*
G01*
G37*
G36*
G01*
X107745000Y-102589250D02*
X107745000Y-101626750D01*
G75*
G02*
X108013750Y-101358000I268750J0D01*
G01*
X108551250Y-101358000D01*
G75*
G02*
X108820000Y-101626750I0J-268750D01*
G01*
X108820000Y-102589250D01*
G75*
G02*
X108551250Y-102858000I-268750J0D01*
G01*
X108013750Y-102858000D01*
G75*
G02*
X107745000Y-102589250I0J268750D01*
G01*
G37*
G36*
G01*
X112835500Y-99213750D02*
X112835500Y-100176250D01*
G75*
G02*
X112566750Y-100445000I-268750J0D01*
G01*
X112029250Y-100445000D01*
G75*
G02*
X111760500Y-100176250I0J268750D01*
G01*
X111760500Y-99213750D01*
G75*
G02*
X112029250Y-98945000I268750J0D01*
G01*
X112566750Y-98945000D01*
G75*
G02*
X112835500Y-99213750I0J-268750D01*
G01*
G37*
G36*
G01*
X114710500Y-99213750D02*
X114710500Y-100176250D01*
G75*
G02*
X114441750Y-100445000I-268750J0D01*
G01*
X113904250Y-100445000D01*
G75*
G02*
X113635500Y-100176250I0J268750D01*
G01*
X113635500Y-99213750D01*
G75*
G02*
X113904250Y-98945000I268750J0D01*
G01*
X114441750Y-98945000D01*
G75*
G02*
X114710500Y-99213750I0J-268750D01*
G01*
G37*
G36*
G01*
X113684000Y-102589250D02*
X113684000Y-101626750D01*
G75*
G02*
X113952750Y-101358000I268750J0D01*
G01*
X114490250Y-101358000D01*
G75*
G02*
X114759000Y-101626750I0J-268750D01*
G01*
X114759000Y-102589250D01*
G75*
G02*
X114490250Y-102858000I-268750J0D01*
G01*
X113952750Y-102858000D01*
G75*
G02*
X113684000Y-102589250I0J268750D01*
G01*
G37*
G36*
G01*
X111809000Y-102589250D02*
X111809000Y-101626750D01*
G75*
G02*
X112077750Y-101358000I268750J0D01*
G01*
X112615250Y-101358000D01*
G75*
G02*
X112884000Y-101626750I0J-268750D01*
G01*
X112884000Y-102589250D01*
G75*
G02*
X112615250Y-102858000I-268750J0D01*
G01*
X112077750Y-102858000D01*
G75*
G02*
X111809000Y-102589250I0J268750D01*
G01*
G37*
G36*
G01*
X117988905Y-121562000D02*
X120565095Y-121562000D01*
G75*
G02*
X120827000Y-121823905I0J-261905D01*
G01*
X120827000Y-123500095D01*
G75*
G02*
X120565095Y-123762000I-261905J0D01*
G01*
X117988905Y-123762000D01*
G75*
G02*
X117727000Y-123500095I0J261905D01*
G01*
X117727000Y-121823905D01*
G75*
G02*
X117988905Y-121562000I261905J0D01*
G01*
G37*
G36*
G01*
X117988905Y-112712000D02*
X120565095Y-112712000D01*
G75*
G02*
X120827000Y-112973905I0J-261905D01*
G01*
X120827000Y-114650095D01*
G75*
G02*
X120565095Y-114912000I-261905J0D01*
G01*
X117988905Y-114912000D01*
G75*
G02*
X117727000Y-114650095I0J261905D01*
G01*
X117727000Y-112973905D01*
G75*
G02*
X117988905Y-112712000I261905J0D01*
G01*
G37*
G36*
G01*
X121552000Y-119662000D02*
X122502000Y-119662000D01*
G75*
G02*
X122727000Y-119887000I0J-225000D01*
G01*
X122727000Y-120337000D01*
G75*
G02*
X122502000Y-120562000I-225000J0D01*
G01*
X121552000Y-120562000D01*
G75*
G02*
X121327000Y-120337000I0J225000D01*
G01*
X121327000Y-119887000D01*
G75*
G02*
X121552000Y-119662000I225000J0D01*
G01*
G37*
G36*
G01*
X121552000Y-118412000D02*
X122502000Y-118412000D01*
G75*
G02*
X122727000Y-118637000I0J-225000D01*
G01*
X122727000Y-119087000D01*
G75*
G02*
X122502000Y-119312000I-225000J0D01*
G01*
X121552000Y-119312000D01*
G75*
G02*
X121327000Y-119087000I0J225000D01*
G01*
X121327000Y-118637000D01*
G75*
G02*
X121552000Y-118412000I225000J0D01*
G01*
G37*
G36*
G01*
X121552000Y-117162000D02*
X122502000Y-117162000D01*
G75*
G02*
X122727000Y-117387000I0J-225000D01*
G01*
X122727000Y-117837000D01*
G75*
G02*
X122502000Y-118062000I-225000J0D01*
G01*
X121552000Y-118062000D01*
G75*
G02*
X121327000Y-117837000I0J225000D01*
G01*
X121327000Y-117387000D01*
G75*
G02*
X121552000Y-117162000I225000J0D01*
G01*
G37*
G36*
G01*
X121552000Y-115912000D02*
X122502000Y-115912000D01*
G75*
G02*
X122727000Y-116137000I0J-225000D01*
G01*
X122727000Y-116587000D01*
G75*
G02*
X122502000Y-116812000I-225000J0D01*
G01*
X121552000Y-116812000D01*
G75*
G02*
X121327000Y-116587000I0J225000D01*
G01*
X121327000Y-116137000D01*
G75*
G02*
X121552000Y-115912000I225000J0D01*
G01*
G37*
D21*
X97536000Y-77544000D03*
D15*
X97536000Y-88794000D03*
X97536000Y-66294000D03*
D21*
X109728000Y-77544000D03*
D15*
X109728000Y-88794000D03*
X109728000Y-66294000D03*
D22*
X120000000Y-130000000D03*
X120000000Y-60000000D03*
X75000000Y-60000000D03*
X75000000Y-130000000D03*
D23*
X106055000Y-100211000D03*
X104765000Y-100711000D03*
X106055000Y-101211000D03*
G36*
G01*
X117988905Y-103655000D02*
X120565095Y-103655000D01*
G75*
G02*
X120827000Y-103916905I0J-261905D01*
G01*
X120827000Y-105593095D01*
G75*
G02*
X120565095Y-105855000I-261905J0D01*
G01*
X117988905Y-105855000D01*
G75*
G02*
X117727000Y-105593095I0J261905D01*
G01*
X117727000Y-103916905D01*
G75*
G02*
X117988905Y-103655000I261905J0D01*
G01*
G37*
G36*
G01*
X117988905Y-94805000D02*
X120565095Y-94805000D01*
G75*
G02*
X120827000Y-95066905I0J-261905D01*
G01*
X120827000Y-96743095D01*
G75*
G02*
X120565095Y-97005000I-261905J0D01*
G01*
X117988905Y-97005000D01*
G75*
G02*
X117727000Y-96743095I0J261905D01*
G01*
X117727000Y-95066905D01*
G75*
G02*
X117988905Y-94805000I261905J0D01*
G01*
G37*
G36*
G01*
X121552000Y-101755000D02*
X122502000Y-101755000D01*
G75*
G02*
X122727000Y-101980000I0J-225000D01*
G01*
X122727000Y-102430000D01*
G75*
G02*
X122502000Y-102655000I-225000J0D01*
G01*
X121552000Y-102655000D01*
G75*
G02*
X121327000Y-102430000I0J225000D01*
G01*
X121327000Y-101980000D01*
G75*
G02*
X121552000Y-101755000I225000J0D01*
G01*
G37*
G36*
G01*
X121552000Y-100505000D02*
X122502000Y-100505000D01*
G75*
G02*
X122727000Y-100730000I0J-225000D01*
G01*
X122727000Y-101180000D01*
G75*
G02*
X122502000Y-101405000I-225000J0D01*
G01*
X121552000Y-101405000D01*
G75*
G02*
X121327000Y-101180000I0J225000D01*
G01*
X121327000Y-100730000D01*
G75*
G02*
X121552000Y-100505000I225000J0D01*
G01*
G37*
G36*
G01*
X121552000Y-99255000D02*
X122502000Y-99255000D01*
G75*
G02*
X122727000Y-99480000I0J-225000D01*
G01*
X122727000Y-99930000D01*
G75*
G02*
X122502000Y-100155000I-225000J0D01*
G01*
X121552000Y-100155000D01*
G75*
G02*
X121327000Y-99930000I0J225000D01*
G01*
X121327000Y-99480000D01*
G75*
G02*
X121552000Y-99255000I225000J0D01*
G01*
G37*
G36*
G01*
X121552000Y-98005000D02*
X122502000Y-98005000D01*
G75*
G02*
X122727000Y-98230000I0J-225000D01*
G01*
X122727000Y-98680000D01*
G75*
G02*
X122502000Y-98905000I-225000J0D01*
G01*
X121552000Y-98905000D01*
G75*
G02*
X121327000Y-98680000I0J225000D01*
G01*
X121327000Y-98230000D01*
G75*
G02*
X121552000Y-98005000I225000J0D01*
G01*
G37*
M02*
