M48
; DRILL file {KiCad 5.1.6+dfsg1-1~bpo9+1} date Wed Apr 20 22:27:02 2022
; FORMAT={-:-/ absolute / metric / decimal}
; #@! TF.CreationDate,2022-04-20T22:27:02+02:00
; #@! TF.GenerationSoftware,Kicad,Pcbnew,5.1.6+dfsg1-1~bpo9+1
; #@! TF.FileFunction,Plated,1,2,PTH
FMAT,2
METRIC
T1C0.400
T2C1.000
T3C1.300
T4C1.500
T5C1.750
T6C3.200
%
G90
G05
T1
X104.775Y-98.933
X106.87Y-104.775
T2
X74.2Y-120.9
X74.2Y-123.4
X109.791Y-127.548
X109.791Y-130.048
X94.805Y-124.841
X94.805Y-127.381
X94.805Y-129.921
T3
X109.728Y-66.294
X109.728Y-88.794
X97.536Y-66.294
X97.536Y-88.794
T4
X77.851Y-81.788
X77.851Y-97.028
X77.851Y-102.108
X77.851Y-107.188
X88.011Y-81.788
X88.011Y-97.028
X88.011Y-102.108
X88.011Y-107.188
T5
X77.851Y-115.824
X88.011Y-115.951
X83.312Y-59.944
X97.536Y-59.944
X109.728Y-59.944
X88.519Y-59.944
T6
X120.0Y-60.0
X120.0Y-130.0
X75.0Y-60.0
X75.0Y-130.0
T0
M30
