G04 #@! TF.GenerationSoftware,KiCad,Pcbnew,5.1.6+dfsg1-1~bpo9+1*
G04 #@! TF.CreationDate,2022-04-20T22:27:00+02:00*
G04 #@! TF.ProjectId,sdrtrx-powerswitch,73647274-7278-42d7-906f-776572737769,rev?*
G04 #@! TF.SameCoordinates,Original*
G04 #@! TF.FileFunction,Copper,L1,Top*
G04 #@! TF.FilePolarity,Positive*
%FSLAX46Y46*%
G04 Gerber Fmt 4.6, Leading zero omitted, Abs format (unit mm)*
G04 Created by KiCad (PCBNEW 5.1.6+dfsg1-1~bpo9+1) date 2022-04-20 22:27:00*
%MOMM*%
%LPD*%
G01*
G04 APERTURE LIST*
G04 #@! TA.AperFunction,ComponentPad*
%ADD10O,2.000000X1.700000*%
G04 #@! TD*
G04 #@! TA.AperFunction,SMDPad,CuDef*
%ADD11R,1.300000X1.800000*%
G04 #@! TD*
G04 #@! TA.AperFunction,ComponentPad*
%ADD12C,3.000000*%
G04 #@! TD*
G04 #@! TA.AperFunction,ComponentPad*
%ADD13R,3.000000X3.000000*%
G04 #@! TD*
G04 #@! TA.AperFunction,ComponentPad*
%ADD14O,2.500000X1.500000*%
G04 #@! TD*
G04 #@! TA.AperFunction,ComponentPad*
%ADD15R,2.500000X1.500000*%
G04 #@! TD*
G04 #@! TA.AperFunction,SMDPad,CuDef*
%ADD16R,0.900000X1.200000*%
G04 #@! TD*
G04 #@! TA.AperFunction,SMDPad,CuDef*
%ADD17R,0.250000X1.100000*%
G04 #@! TD*
G04 #@! TA.AperFunction,ComponentPad*
%ADD18C,6.400000*%
G04 #@! TD*
G04 #@! TA.AperFunction,SMDPad,CuDef*
%ADD19R,0.510000X0.400000*%
G04 #@! TD*
G04 #@! TA.AperFunction,ViaPad*
%ADD20C,0.800000*%
G04 #@! TD*
G04 #@! TA.AperFunction,Conductor*
%ADD21C,0.254000*%
G04 #@! TD*
G04 #@! TA.AperFunction,Conductor*
%ADD22C,0.508000*%
G04 #@! TD*
G04 #@! TA.AperFunction,Conductor*
%ADD23C,1.016000*%
G04 #@! TD*
G04 #@! TA.AperFunction,Conductor*
%ADD24C,0.250000*%
G04 #@! TD*
G04 #@! TA.AperFunction,Conductor*
%ADD25C,2.032000*%
G04 #@! TD*
G04 APERTURE END LIST*
G04 #@! TA.AperFunction,SMDPad,CuDef*
G36*
G01*
X92725000Y-113825000D02*
X97675000Y-113825000D01*
G75*
G02*
X97925000Y-114075000I0J-250000D01*
G01*
X97925000Y-115675000D01*
G75*
G02*
X97675000Y-115925000I-250000J0D01*
G01*
X92725000Y-115925000D01*
G75*
G02*
X92475000Y-115675000I0J250000D01*
G01*
X92475000Y-114075000D01*
G75*
G02*
X92725000Y-113825000I250000J0D01*
G01*
G37*
G04 #@! TD.AperFunction*
G04 #@! TA.AperFunction,SMDPad,CuDef*
G36*
G01*
X92725000Y-106875000D02*
X97675000Y-106875000D01*
G75*
G02*
X97925000Y-107125000I0J-250000D01*
G01*
X97925000Y-108725000D01*
G75*
G02*
X97675000Y-108975000I-250000J0D01*
G01*
X92725000Y-108975000D01*
G75*
G02*
X92475000Y-108725000I0J250000D01*
G01*
X92475000Y-107125000D01*
G75*
G02*
X92725000Y-106875000I250000J0D01*
G01*
G37*
G04 #@! TD.AperFunction*
D10*
X74200000Y-120900000D03*
G04 #@! TA.AperFunction,ComponentPad*
G36*
G01*
X74950000Y-124250000D02*
X73450000Y-124250000D01*
G75*
G02*
X73200000Y-124000000I0J250000D01*
G01*
X73200000Y-122800000D01*
G75*
G02*
X73450000Y-122550000I250000J0D01*
G01*
X74950000Y-122550000D01*
G75*
G02*
X75200000Y-122800000I0J-250000D01*
G01*
X75200000Y-124000000D01*
G75*
G02*
X74950000Y-124250000I-250000J0D01*
G01*
G37*
G04 #@! TD.AperFunction*
G04 #@! TA.AperFunction,ComponentPad*
G36*
G01*
X81937000Y-61069001D02*
X81937000Y-58818999D01*
G75*
G02*
X82186999Y-58569000I249999J0D01*
G01*
X84437001Y-58569000D01*
G75*
G02*
X84687000Y-58818999I0J-249999D01*
G01*
X84687000Y-61069001D01*
G75*
G02*
X84437001Y-61319000I-249999J0D01*
G01*
X82186999Y-61319000D01*
G75*
G02*
X81937000Y-61069001I0J249999D01*
G01*
G37*
G04 #@! TD.AperFunction*
G04 #@! TA.AperFunction,ComponentPad*
G36*
G01*
X87144000Y-61069001D02*
X87144000Y-58818999D01*
G75*
G02*
X87393999Y-58569000I249999J0D01*
G01*
X89644001Y-58569000D01*
G75*
G02*
X89894000Y-58818999I0J-249999D01*
G01*
X89894000Y-61069001D01*
G75*
G02*
X89644001Y-61319000I-249999J0D01*
G01*
X87393999Y-61319000D01*
G75*
G02*
X87144000Y-61069001I0J249999D01*
G01*
G37*
G04 #@! TD.AperFunction*
G04 #@! TA.AperFunction,ComponentPad*
G36*
G01*
X96161000Y-61069001D02*
X96161000Y-58818999D01*
G75*
G02*
X96410999Y-58569000I249999J0D01*
G01*
X98661001Y-58569000D01*
G75*
G02*
X98911000Y-58818999I0J-249999D01*
G01*
X98911000Y-61069001D01*
G75*
G02*
X98661001Y-61319000I-249999J0D01*
G01*
X96410999Y-61319000D01*
G75*
G02*
X96161000Y-61069001I0J249999D01*
G01*
G37*
G04 #@! TD.AperFunction*
G04 #@! TA.AperFunction,ComponentPad*
G36*
G01*
X108353000Y-61069001D02*
X108353000Y-58818999D01*
G75*
G02*
X108602999Y-58569000I249999J0D01*
G01*
X110853001Y-58569000D01*
G75*
G02*
X111103000Y-58818999I0J-249999D01*
G01*
X111103000Y-61069001D01*
G75*
G02*
X110853001Y-61319000I-249999J0D01*
G01*
X108602999Y-61319000D01*
G75*
G02*
X108353000Y-61069001I0J249999D01*
G01*
G37*
G04 #@! TD.AperFunction*
G04 #@! TA.AperFunction,ComponentPad*
G36*
G01*
X76476000Y-116949001D02*
X76476000Y-114698999D01*
G75*
G02*
X76725999Y-114449000I249999J0D01*
G01*
X78976001Y-114449000D01*
G75*
G02*
X79226000Y-114698999I0J-249999D01*
G01*
X79226000Y-116949001D01*
G75*
G02*
X78976001Y-117199000I-249999J0D01*
G01*
X76725999Y-117199000D01*
G75*
G02*
X76476000Y-116949001I0J249999D01*
G01*
G37*
G04 #@! TD.AperFunction*
G04 #@! TA.AperFunction,ComponentPad*
G36*
G01*
X86636000Y-117076001D02*
X86636000Y-114825999D01*
G75*
G02*
X86885999Y-114576000I249999J0D01*
G01*
X89136001Y-114576000D01*
G75*
G02*
X89386000Y-114825999I0J-249999D01*
G01*
X89386000Y-117076001D01*
G75*
G02*
X89136001Y-117326000I-249999J0D01*
G01*
X86885999Y-117326000D01*
G75*
G02*
X86636000Y-117076001I0J249999D01*
G01*
G37*
G04 #@! TD.AperFunction*
D11*
X95900000Y-118400000D03*
X92900000Y-118400000D03*
D12*
X88011000Y-107188000D03*
X77851000Y-102108000D03*
X88011000Y-97028000D03*
X77851000Y-97028000D03*
X77851000Y-107188000D03*
X88011000Y-102108000D03*
D13*
X77851000Y-81788000D03*
D12*
X88011000Y-81788000D03*
G04 #@! TA.AperFunction,SMDPad,CuDef*
G36*
G01*
X81935500Y-120704499D02*
X81935500Y-122754501D01*
G75*
G02*
X81685501Y-123004500I-249999J0D01*
G01*
X79935499Y-123004500D01*
G75*
G02*
X79685500Y-122754501I0J249999D01*
G01*
X79685500Y-120704499D01*
G75*
G02*
X79935499Y-120454500I249999J0D01*
G01*
X81685501Y-120454500D01*
G75*
G02*
X81935500Y-120704499I0J-249999D01*
G01*
G37*
G04 #@! TD.AperFunction*
G04 #@! TA.AperFunction,SMDPad,CuDef*
G36*
G01*
X88335500Y-120704499D02*
X88335500Y-122754501D01*
G75*
G02*
X88085501Y-123004500I-249999J0D01*
G01*
X86335499Y-123004500D01*
G75*
G02*
X86085500Y-122754501I0J249999D01*
G01*
X86085500Y-120704499D01*
G75*
G02*
X86335499Y-120454500I249999J0D01*
G01*
X88085501Y-120454500D01*
G75*
G02*
X88335500Y-120704499I0J-249999D01*
G01*
G37*
G04 #@! TD.AperFunction*
D10*
X109791500Y-127548000D03*
G04 #@! TA.AperFunction,ComponentPad*
G36*
G01*
X110541500Y-130898000D02*
X109041500Y-130898000D01*
G75*
G02*
X108791500Y-130648000I0J250000D01*
G01*
X108791500Y-129448000D01*
G75*
G02*
X109041500Y-129198000I250000J0D01*
G01*
X110541500Y-129198000D01*
G75*
G02*
X110791500Y-129448000I0J-250000D01*
G01*
X110791500Y-130648000D01*
G75*
G02*
X110541500Y-130898000I-250000J0D01*
G01*
G37*
G04 #@! TD.AperFunction*
D14*
X94805500Y-129921000D03*
X94805500Y-127381000D03*
D15*
X94805500Y-124841000D03*
G04 #@! TA.AperFunction,SMDPad,CuDef*
G36*
G01*
X108770000Y-104318750D02*
X108770000Y-105231250D01*
G75*
G02*
X108526250Y-105475000I-243750J0D01*
G01*
X108038750Y-105475000D01*
G75*
G02*
X107795000Y-105231250I0J243750D01*
G01*
X107795000Y-104318750D01*
G75*
G02*
X108038750Y-104075000I243750J0D01*
G01*
X108526250Y-104075000D01*
G75*
G02*
X108770000Y-104318750I0J-243750D01*
G01*
G37*
G04 #@! TD.AperFunction*
G04 #@! TA.AperFunction,SMDPad,CuDef*
G36*
G01*
X110645000Y-104318750D02*
X110645000Y-105231250D01*
G75*
G02*
X110401250Y-105475000I-243750J0D01*
G01*
X109913750Y-105475000D01*
G75*
G02*
X109670000Y-105231250I0J243750D01*
G01*
X109670000Y-104318750D01*
G75*
G02*
X109913750Y-104075000I243750J0D01*
G01*
X110401250Y-104075000D01*
G75*
G02*
X110645000Y-104318750I0J-243750D01*
G01*
G37*
G04 #@! TD.AperFunction*
G04 #@! TA.AperFunction,SMDPad,CuDef*
G36*
G01*
X85181000Y-129399000D02*
X87031000Y-129399000D01*
G75*
G02*
X87281000Y-129649000I0J-250000D01*
G01*
X87281000Y-130649000D01*
G75*
G02*
X87031000Y-130899000I-250000J0D01*
G01*
X85181000Y-130899000D01*
G75*
G02*
X84931000Y-130649000I0J250000D01*
G01*
X84931000Y-129649000D01*
G75*
G02*
X85181000Y-129399000I250000J0D01*
G01*
G37*
G04 #@! TD.AperFunction*
G04 #@! TA.AperFunction,SMDPad,CuDef*
G36*
G01*
X85181000Y-126149000D02*
X87031000Y-126149000D01*
G75*
G02*
X87281000Y-126399000I0J-250000D01*
G01*
X87281000Y-127399000D01*
G75*
G02*
X87031000Y-127649000I-250000J0D01*
G01*
X85181000Y-127649000D01*
G75*
G02*
X84931000Y-127399000I0J250000D01*
G01*
X84931000Y-126399000D01*
G75*
G02*
X85181000Y-126149000I250000J0D01*
G01*
G37*
G04 #@! TD.AperFunction*
D16*
X84327000Y-75565000D03*
X81027000Y-75565000D03*
G04 #@! TA.AperFunction,SMDPad,CuDef*
G36*
G01*
X114351750Y-113353000D02*
X115264250Y-113353000D01*
G75*
G02*
X115508000Y-113596750I0J-243750D01*
G01*
X115508000Y-114084250D01*
G75*
G02*
X115264250Y-114328000I-243750J0D01*
G01*
X114351750Y-114328000D01*
G75*
G02*
X114108000Y-114084250I0J243750D01*
G01*
X114108000Y-113596750D01*
G75*
G02*
X114351750Y-113353000I243750J0D01*
G01*
G37*
G04 #@! TD.AperFunction*
G04 #@! TA.AperFunction,SMDPad,CuDef*
G36*
G01*
X114351750Y-111478000D02*
X115264250Y-111478000D01*
G75*
G02*
X115508000Y-111721750I0J-243750D01*
G01*
X115508000Y-112209250D01*
G75*
G02*
X115264250Y-112453000I-243750J0D01*
G01*
X114351750Y-112453000D01*
G75*
G02*
X114108000Y-112209250I0J243750D01*
G01*
X114108000Y-111721750D01*
G75*
G02*
X114351750Y-111478000I243750J0D01*
G01*
G37*
G04 #@! TD.AperFunction*
G04 #@! TA.AperFunction,SMDPad,CuDef*
G36*
G01*
X100508750Y-117925000D02*
X101421250Y-117925000D01*
G75*
G02*
X101665000Y-118168750I0J-243750D01*
G01*
X101665000Y-118656250D01*
G75*
G02*
X101421250Y-118900000I-243750J0D01*
G01*
X100508750Y-118900000D01*
G75*
G02*
X100265000Y-118656250I0J243750D01*
G01*
X100265000Y-118168750D01*
G75*
G02*
X100508750Y-117925000I243750J0D01*
G01*
G37*
G04 #@! TD.AperFunction*
G04 #@! TA.AperFunction,SMDPad,CuDef*
G36*
G01*
X100508750Y-116050000D02*
X101421250Y-116050000D01*
G75*
G02*
X101665000Y-116293750I0J-243750D01*
G01*
X101665000Y-116781250D01*
G75*
G02*
X101421250Y-117025000I-243750J0D01*
G01*
X100508750Y-117025000D01*
G75*
G02*
X100265000Y-116781250I0J243750D01*
G01*
X100265000Y-116293750D01*
G75*
G02*
X100508750Y-116050000I243750J0D01*
G01*
G37*
G04 #@! TD.AperFunction*
G04 #@! TA.AperFunction,SMDPad,CuDef*
G36*
G01*
X108636750Y-113274500D02*
X109549250Y-113274500D01*
G75*
G02*
X109793000Y-113518250I0J-243750D01*
G01*
X109793000Y-114005750D01*
G75*
G02*
X109549250Y-114249500I-243750J0D01*
G01*
X108636750Y-114249500D01*
G75*
G02*
X108393000Y-114005750I0J243750D01*
G01*
X108393000Y-113518250D01*
G75*
G02*
X108636750Y-113274500I243750J0D01*
G01*
G37*
G04 #@! TD.AperFunction*
G04 #@! TA.AperFunction,SMDPad,CuDef*
G36*
G01*
X108636750Y-111399500D02*
X109549250Y-111399500D01*
G75*
G02*
X109793000Y-111643250I0J-243750D01*
G01*
X109793000Y-112130750D01*
G75*
G02*
X109549250Y-112374500I-243750J0D01*
G01*
X108636750Y-112374500D01*
G75*
G02*
X108393000Y-112130750I0J243750D01*
G01*
X108393000Y-111643250D01*
G75*
G02*
X108636750Y-111399500I243750J0D01*
G01*
G37*
G04 #@! TD.AperFunction*
G04 #@! TA.AperFunction,SMDPad,CuDef*
G36*
G01*
X109621500Y-100151250D02*
X109621500Y-99238750D01*
G75*
G02*
X109865250Y-98995000I243750J0D01*
G01*
X110352750Y-98995000D01*
G75*
G02*
X110596500Y-99238750I0J-243750D01*
G01*
X110596500Y-100151250D01*
G75*
G02*
X110352750Y-100395000I-243750J0D01*
G01*
X109865250Y-100395000D01*
G75*
G02*
X109621500Y-100151250I0J243750D01*
G01*
G37*
G04 #@! TD.AperFunction*
G04 #@! TA.AperFunction,SMDPad,CuDef*
G36*
G01*
X107746500Y-100151250D02*
X107746500Y-99238750D01*
G75*
G02*
X107990250Y-98995000I243750J0D01*
G01*
X108477750Y-98995000D01*
G75*
G02*
X108721500Y-99238750I0J-243750D01*
G01*
X108721500Y-100151250D01*
G75*
G02*
X108477750Y-100395000I-243750J0D01*
G01*
X107990250Y-100395000D01*
G75*
G02*
X107746500Y-100151250I0J243750D01*
G01*
G37*
G04 #@! TD.AperFunction*
D17*
X103394000Y-116087000D03*
X103894000Y-116087000D03*
X104394000Y-116087000D03*
X104894000Y-116087000D03*
X105394000Y-116087000D03*
X105394000Y-120387000D03*
X104894000Y-120387000D03*
X104394000Y-120387000D03*
X103894000Y-120387000D03*
X103394000Y-120387000D03*
G04 #@! TA.AperFunction,SMDPad,CuDef*
G36*
G01*
X113387000Y-116482000D02*
X113387000Y-116182000D01*
G75*
G02*
X113537000Y-116032000I150000J0D01*
G01*
X115187000Y-116032000D01*
G75*
G02*
X115337000Y-116182000I0J-150000D01*
G01*
X115337000Y-116482000D01*
G75*
G02*
X115187000Y-116632000I-150000J0D01*
G01*
X113537000Y-116632000D01*
G75*
G02*
X113387000Y-116482000I0J150000D01*
G01*
G37*
G04 #@! TD.AperFunction*
G04 #@! TA.AperFunction,SMDPad,CuDef*
G36*
G01*
X113387000Y-117752000D02*
X113387000Y-117452000D01*
G75*
G02*
X113537000Y-117302000I150000J0D01*
G01*
X115187000Y-117302000D01*
G75*
G02*
X115337000Y-117452000I0J-150000D01*
G01*
X115337000Y-117752000D01*
G75*
G02*
X115187000Y-117902000I-150000J0D01*
G01*
X113537000Y-117902000D01*
G75*
G02*
X113387000Y-117752000I0J150000D01*
G01*
G37*
G04 #@! TD.AperFunction*
G04 #@! TA.AperFunction,SMDPad,CuDef*
G36*
G01*
X113387000Y-119022000D02*
X113387000Y-118722000D01*
G75*
G02*
X113537000Y-118572000I150000J0D01*
G01*
X115187000Y-118572000D01*
G75*
G02*
X115337000Y-118722000I0J-150000D01*
G01*
X115337000Y-119022000D01*
G75*
G02*
X115187000Y-119172000I-150000J0D01*
G01*
X113537000Y-119172000D01*
G75*
G02*
X113387000Y-119022000I0J150000D01*
G01*
G37*
G04 #@! TD.AperFunction*
G04 #@! TA.AperFunction,SMDPad,CuDef*
G36*
G01*
X113387000Y-120292000D02*
X113387000Y-119992000D01*
G75*
G02*
X113537000Y-119842000I150000J0D01*
G01*
X115187000Y-119842000D01*
G75*
G02*
X115337000Y-119992000I0J-150000D01*
G01*
X115337000Y-120292000D01*
G75*
G02*
X115187000Y-120442000I-150000J0D01*
G01*
X113537000Y-120442000D01*
G75*
G02*
X113387000Y-120292000I0J150000D01*
G01*
G37*
G04 #@! TD.AperFunction*
G04 #@! TA.AperFunction,SMDPad,CuDef*
G36*
G01*
X108437000Y-120292000D02*
X108437000Y-119992000D01*
G75*
G02*
X108587000Y-119842000I150000J0D01*
G01*
X110237000Y-119842000D01*
G75*
G02*
X110387000Y-119992000I0J-150000D01*
G01*
X110387000Y-120292000D01*
G75*
G02*
X110237000Y-120442000I-150000J0D01*
G01*
X108587000Y-120442000D01*
G75*
G02*
X108437000Y-120292000I0J150000D01*
G01*
G37*
G04 #@! TD.AperFunction*
G04 #@! TA.AperFunction,SMDPad,CuDef*
G36*
G01*
X108437000Y-119022000D02*
X108437000Y-118722000D01*
G75*
G02*
X108587000Y-118572000I150000J0D01*
G01*
X110237000Y-118572000D01*
G75*
G02*
X110387000Y-118722000I0J-150000D01*
G01*
X110387000Y-119022000D01*
G75*
G02*
X110237000Y-119172000I-150000J0D01*
G01*
X108587000Y-119172000D01*
G75*
G02*
X108437000Y-119022000I0J150000D01*
G01*
G37*
G04 #@! TD.AperFunction*
G04 #@! TA.AperFunction,SMDPad,CuDef*
G36*
G01*
X108437000Y-117752000D02*
X108437000Y-117452000D01*
G75*
G02*
X108587000Y-117302000I150000J0D01*
G01*
X110237000Y-117302000D01*
G75*
G02*
X110387000Y-117452000I0J-150000D01*
G01*
X110387000Y-117752000D01*
G75*
G02*
X110237000Y-117902000I-150000J0D01*
G01*
X108587000Y-117902000D01*
G75*
G02*
X108437000Y-117752000I0J150000D01*
G01*
G37*
G04 #@! TD.AperFunction*
G04 #@! TA.AperFunction,SMDPad,CuDef*
G36*
G01*
X108437000Y-116482000D02*
X108437000Y-116182000D01*
G75*
G02*
X108587000Y-116032000I150000J0D01*
G01*
X110237000Y-116032000D01*
G75*
G02*
X110387000Y-116182000I0J-150000D01*
G01*
X110387000Y-116482000D01*
G75*
G02*
X110237000Y-116632000I-150000J0D01*
G01*
X108587000Y-116632000D01*
G75*
G02*
X108437000Y-116482000I0J150000D01*
G01*
G37*
G04 #@! TD.AperFunction*
G04 #@! TA.AperFunction,SMDPad,CuDef*
G36*
G01*
X101524750Y-113226000D02*
X102437250Y-113226000D01*
G75*
G02*
X102681000Y-113469750I0J-243750D01*
G01*
X102681000Y-113957250D01*
G75*
G02*
X102437250Y-114201000I-243750J0D01*
G01*
X101524750Y-114201000D01*
G75*
G02*
X101281000Y-113957250I0J243750D01*
G01*
X101281000Y-113469750D01*
G75*
G02*
X101524750Y-113226000I243750J0D01*
G01*
G37*
G04 #@! TD.AperFunction*
G04 #@! TA.AperFunction,SMDPad,CuDef*
G36*
G01*
X101524750Y-111351000D02*
X102437250Y-111351000D01*
G75*
G02*
X102681000Y-111594750I0J-243750D01*
G01*
X102681000Y-112082250D01*
G75*
G02*
X102437250Y-112326000I-243750J0D01*
G01*
X101524750Y-112326000D01*
G75*
G02*
X101281000Y-112082250I0J243750D01*
G01*
X101281000Y-111594750D01*
G75*
G02*
X101524750Y-111351000I243750J0D01*
G01*
G37*
G04 #@! TD.AperFunction*
G04 #@! TA.AperFunction,SMDPad,CuDef*
G36*
G01*
X104953750Y-113226000D02*
X105866250Y-113226000D01*
G75*
G02*
X106110000Y-113469750I0J-243750D01*
G01*
X106110000Y-113957250D01*
G75*
G02*
X105866250Y-114201000I-243750J0D01*
G01*
X104953750Y-114201000D01*
G75*
G02*
X104710000Y-113957250I0J243750D01*
G01*
X104710000Y-113469750D01*
G75*
G02*
X104953750Y-113226000I243750J0D01*
G01*
G37*
G04 #@! TD.AperFunction*
G04 #@! TA.AperFunction,SMDPad,CuDef*
G36*
G01*
X104953750Y-111351000D02*
X105866250Y-111351000D01*
G75*
G02*
X106110000Y-111594750I0J-243750D01*
G01*
X106110000Y-112082250D01*
G75*
G02*
X105866250Y-112326000I-243750J0D01*
G01*
X104953750Y-112326000D01*
G75*
G02*
X104710000Y-112082250I0J243750D01*
G01*
X104710000Y-111594750D01*
G75*
G02*
X104953750Y-111351000I243750J0D01*
G01*
G37*
G04 #@! TD.AperFunction*
G04 #@! TA.AperFunction,SMDPad,CuDef*
G36*
G01*
X104445750Y-124529000D02*
X105358250Y-124529000D01*
G75*
G02*
X105602000Y-124772750I0J-243750D01*
G01*
X105602000Y-125260250D01*
G75*
G02*
X105358250Y-125504000I-243750J0D01*
G01*
X104445750Y-125504000D01*
G75*
G02*
X104202000Y-125260250I0J243750D01*
G01*
X104202000Y-124772750D01*
G75*
G02*
X104445750Y-124529000I243750J0D01*
G01*
G37*
G04 #@! TD.AperFunction*
G04 #@! TA.AperFunction,SMDPad,CuDef*
G36*
G01*
X104445750Y-122654000D02*
X105358250Y-122654000D01*
G75*
G02*
X105602000Y-122897750I0J-243750D01*
G01*
X105602000Y-123385250D01*
G75*
G02*
X105358250Y-123629000I-243750J0D01*
G01*
X104445750Y-123629000D01*
G75*
G02*
X104202000Y-123385250I0J243750D01*
G01*
X104202000Y-122897750D01*
G75*
G02*
X104445750Y-122654000I243750J0D01*
G01*
G37*
G04 #@! TD.AperFunction*
G04 #@! TA.AperFunction,SMDPad,CuDef*
G36*
G01*
X103072250Y-123629000D02*
X102159750Y-123629000D01*
G75*
G02*
X101916000Y-123385250I0J243750D01*
G01*
X101916000Y-122897750D01*
G75*
G02*
X102159750Y-122654000I243750J0D01*
G01*
X103072250Y-122654000D01*
G75*
G02*
X103316000Y-122897750I0J-243750D01*
G01*
X103316000Y-123385250D01*
G75*
G02*
X103072250Y-123629000I-243750J0D01*
G01*
G37*
G04 #@! TD.AperFunction*
G04 #@! TA.AperFunction,SMDPad,CuDef*
G36*
G01*
X103072250Y-125504000D02*
X102159750Y-125504000D01*
G75*
G02*
X101916000Y-125260250I0J243750D01*
G01*
X101916000Y-124772750D01*
G75*
G02*
X102159750Y-124529000I243750J0D01*
G01*
X103072250Y-124529000D01*
G75*
G02*
X103316000Y-124772750I0J-243750D01*
G01*
X103316000Y-125260250D01*
G75*
G02*
X103072250Y-125504000I-243750J0D01*
G01*
G37*
G04 #@! TD.AperFunction*
G04 #@! TA.AperFunction,SMDPad,CuDef*
G36*
G01*
X109670000Y-102564250D02*
X109670000Y-101651750D01*
G75*
G02*
X109913750Y-101408000I243750J0D01*
G01*
X110401250Y-101408000D01*
G75*
G02*
X110645000Y-101651750I0J-243750D01*
G01*
X110645000Y-102564250D01*
G75*
G02*
X110401250Y-102808000I-243750J0D01*
G01*
X109913750Y-102808000D01*
G75*
G02*
X109670000Y-102564250I0J243750D01*
G01*
G37*
G04 #@! TD.AperFunction*
G04 #@! TA.AperFunction,SMDPad,CuDef*
G36*
G01*
X107795000Y-102564250D02*
X107795000Y-101651750D01*
G75*
G02*
X108038750Y-101408000I243750J0D01*
G01*
X108526250Y-101408000D01*
G75*
G02*
X108770000Y-101651750I0J-243750D01*
G01*
X108770000Y-102564250D01*
G75*
G02*
X108526250Y-102808000I-243750J0D01*
G01*
X108038750Y-102808000D01*
G75*
G02*
X107795000Y-102564250I0J243750D01*
G01*
G37*
G04 #@! TD.AperFunction*
G04 #@! TA.AperFunction,SMDPad,CuDef*
G36*
G01*
X112785500Y-99238750D02*
X112785500Y-100151250D01*
G75*
G02*
X112541750Y-100395000I-243750J0D01*
G01*
X112054250Y-100395000D01*
G75*
G02*
X111810500Y-100151250I0J243750D01*
G01*
X111810500Y-99238750D01*
G75*
G02*
X112054250Y-98995000I243750J0D01*
G01*
X112541750Y-98995000D01*
G75*
G02*
X112785500Y-99238750I0J-243750D01*
G01*
G37*
G04 #@! TD.AperFunction*
G04 #@! TA.AperFunction,SMDPad,CuDef*
G36*
G01*
X114660500Y-99238750D02*
X114660500Y-100151250D01*
G75*
G02*
X114416750Y-100395000I-243750J0D01*
G01*
X113929250Y-100395000D01*
G75*
G02*
X113685500Y-100151250I0J243750D01*
G01*
X113685500Y-99238750D01*
G75*
G02*
X113929250Y-98995000I243750J0D01*
G01*
X114416750Y-98995000D01*
G75*
G02*
X114660500Y-99238750I0J-243750D01*
G01*
G37*
G04 #@! TD.AperFunction*
G04 #@! TA.AperFunction,SMDPad,CuDef*
G36*
G01*
X113734000Y-102564250D02*
X113734000Y-101651750D01*
G75*
G02*
X113977750Y-101408000I243750J0D01*
G01*
X114465250Y-101408000D01*
G75*
G02*
X114709000Y-101651750I0J-243750D01*
G01*
X114709000Y-102564250D01*
G75*
G02*
X114465250Y-102808000I-243750J0D01*
G01*
X113977750Y-102808000D01*
G75*
G02*
X113734000Y-102564250I0J243750D01*
G01*
G37*
G04 #@! TD.AperFunction*
G04 #@! TA.AperFunction,SMDPad,CuDef*
G36*
G01*
X111859000Y-102564250D02*
X111859000Y-101651750D01*
G75*
G02*
X112102750Y-101408000I243750J0D01*
G01*
X112590250Y-101408000D01*
G75*
G02*
X112834000Y-101651750I0J-243750D01*
G01*
X112834000Y-102564250D01*
G75*
G02*
X112590250Y-102808000I-243750J0D01*
G01*
X112102750Y-102808000D01*
G75*
G02*
X111859000Y-102564250I0J243750D01*
G01*
G37*
G04 #@! TD.AperFunction*
G04 #@! TA.AperFunction,SMDPad,CuDef*
G36*
G01*
X118027000Y-121612000D02*
X120527000Y-121612000D01*
G75*
G02*
X120777000Y-121862000I0J-250000D01*
G01*
X120777000Y-123462000D01*
G75*
G02*
X120527000Y-123712000I-250000J0D01*
G01*
X118027000Y-123712000D01*
G75*
G02*
X117777000Y-123462000I0J250000D01*
G01*
X117777000Y-121862000D01*
G75*
G02*
X118027000Y-121612000I250000J0D01*
G01*
G37*
G04 #@! TD.AperFunction*
G04 #@! TA.AperFunction,SMDPad,CuDef*
G36*
G01*
X118027000Y-112762000D02*
X120527000Y-112762000D01*
G75*
G02*
X120777000Y-113012000I0J-250000D01*
G01*
X120777000Y-114612000D01*
G75*
G02*
X120527000Y-114862000I-250000J0D01*
G01*
X118027000Y-114862000D01*
G75*
G02*
X117777000Y-114612000I0J250000D01*
G01*
X117777000Y-113012000D01*
G75*
G02*
X118027000Y-112762000I250000J0D01*
G01*
G37*
G04 #@! TD.AperFunction*
G04 #@! TA.AperFunction,SMDPad,CuDef*
G36*
G01*
X121577000Y-119712000D02*
X122477000Y-119712000D01*
G75*
G02*
X122677000Y-119912000I0J-200000D01*
G01*
X122677000Y-120312000D01*
G75*
G02*
X122477000Y-120512000I-200000J0D01*
G01*
X121577000Y-120512000D01*
G75*
G02*
X121377000Y-120312000I0J200000D01*
G01*
X121377000Y-119912000D01*
G75*
G02*
X121577000Y-119712000I200000J0D01*
G01*
G37*
G04 #@! TD.AperFunction*
G04 #@! TA.AperFunction,SMDPad,CuDef*
G36*
G01*
X121577000Y-118462000D02*
X122477000Y-118462000D01*
G75*
G02*
X122677000Y-118662000I0J-200000D01*
G01*
X122677000Y-119062000D01*
G75*
G02*
X122477000Y-119262000I-200000J0D01*
G01*
X121577000Y-119262000D01*
G75*
G02*
X121377000Y-119062000I0J200000D01*
G01*
X121377000Y-118662000D01*
G75*
G02*
X121577000Y-118462000I200000J0D01*
G01*
G37*
G04 #@! TD.AperFunction*
G04 #@! TA.AperFunction,SMDPad,CuDef*
G36*
G01*
X121577000Y-117212000D02*
X122477000Y-117212000D01*
G75*
G02*
X122677000Y-117412000I0J-200000D01*
G01*
X122677000Y-117812000D01*
G75*
G02*
X122477000Y-118012000I-200000J0D01*
G01*
X121577000Y-118012000D01*
G75*
G02*
X121377000Y-117812000I0J200000D01*
G01*
X121377000Y-117412000D01*
G75*
G02*
X121577000Y-117212000I200000J0D01*
G01*
G37*
G04 #@! TD.AperFunction*
G04 #@! TA.AperFunction,SMDPad,CuDef*
G36*
G01*
X121577000Y-115962000D02*
X122477000Y-115962000D01*
G75*
G02*
X122677000Y-116162000I0J-200000D01*
G01*
X122677000Y-116562000D01*
G75*
G02*
X122477000Y-116762000I-200000J0D01*
G01*
X121577000Y-116762000D01*
G75*
G02*
X121377000Y-116562000I0J200000D01*
G01*
X121377000Y-116162000D01*
G75*
G02*
X121577000Y-115962000I200000J0D01*
G01*
G37*
G04 #@! TD.AperFunction*
D12*
X97536000Y-88794000D03*
X97536000Y-66294000D03*
X109728000Y-88794000D03*
X109728000Y-66294000D03*
D18*
X120000000Y-130000000D03*
X120000000Y-60000000D03*
X75000000Y-60000000D03*
X75000000Y-130000000D03*
D19*
X106055000Y-100211000D03*
X104765000Y-100711000D03*
X106055000Y-101211000D03*
G04 #@! TA.AperFunction,SMDPad,CuDef*
G36*
G01*
X118027000Y-103705000D02*
X120527000Y-103705000D01*
G75*
G02*
X120777000Y-103955000I0J-250000D01*
G01*
X120777000Y-105555000D01*
G75*
G02*
X120527000Y-105805000I-250000J0D01*
G01*
X118027000Y-105805000D01*
G75*
G02*
X117777000Y-105555000I0J250000D01*
G01*
X117777000Y-103955000D01*
G75*
G02*
X118027000Y-103705000I250000J0D01*
G01*
G37*
G04 #@! TD.AperFunction*
G04 #@! TA.AperFunction,SMDPad,CuDef*
G36*
G01*
X118027000Y-94855000D02*
X120527000Y-94855000D01*
G75*
G02*
X120777000Y-95105000I0J-250000D01*
G01*
X120777000Y-96705000D01*
G75*
G02*
X120527000Y-96955000I-250000J0D01*
G01*
X118027000Y-96955000D01*
G75*
G02*
X117777000Y-96705000I0J250000D01*
G01*
X117777000Y-95105000D01*
G75*
G02*
X118027000Y-94855000I250000J0D01*
G01*
G37*
G04 #@! TD.AperFunction*
G04 #@! TA.AperFunction,SMDPad,CuDef*
G36*
G01*
X121577000Y-101805000D02*
X122477000Y-101805000D01*
G75*
G02*
X122677000Y-102005000I0J-200000D01*
G01*
X122677000Y-102405000D01*
G75*
G02*
X122477000Y-102605000I-200000J0D01*
G01*
X121577000Y-102605000D01*
G75*
G02*
X121377000Y-102405000I0J200000D01*
G01*
X121377000Y-102005000D01*
G75*
G02*
X121577000Y-101805000I200000J0D01*
G01*
G37*
G04 #@! TD.AperFunction*
G04 #@! TA.AperFunction,SMDPad,CuDef*
G36*
G01*
X121577000Y-100555000D02*
X122477000Y-100555000D01*
G75*
G02*
X122677000Y-100755000I0J-200000D01*
G01*
X122677000Y-101155000D01*
G75*
G02*
X122477000Y-101355000I-200000J0D01*
G01*
X121577000Y-101355000D01*
G75*
G02*
X121377000Y-101155000I0J200000D01*
G01*
X121377000Y-100755000D01*
G75*
G02*
X121577000Y-100555000I200000J0D01*
G01*
G37*
G04 #@! TD.AperFunction*
G04 #@! TA.AperFunction,SMDPad,CuDef*
G36*
G01*
X121577000Y-99305000D02*
X122477000Y-99305000D01*
G75*
G02*
X122677000Y-99505000I0J-200000D01*
G01*
X122677000Y-99905000D01*
G75*
G02*
X122477000Y-100105000I-200000J0D01*
G01*
X121577000Y-100105000D01*
G75*
G02*
X121377000Y-99905000I0J200000D01*
G01*
X121377000Y-99505000D01*
G75*
G02*
X121577000Y-99305000I200000J0D01*
G01*
G37*
G04 #@! TD.AperFunction*
G04 #@! TA.AperFunction,SMDPad,CuDef*
G36*
G01*
X121577000Y-98055000D02*
X122477000Y-98055000D01*
G75*
G02*
X122677000Y-98255000I0J-200000D01*
G01*
X122677000Y-98655000D01*
G75*
G02*
X122477000Y-98855000I-200000J0D01*
G01*
X121577000Y-98855000D01*
G75*
G02*
X121377000Y-98655000I0J200000D01*
G01*
X121377000Y-98255000D01*
G75*
G02*
X121577000Y-98055000I200000J0D01*
G01*
G37*
G04 #@! TD.AperFunction*
D20*
X106870500Y-104775000D03*
X104775000Y-98933000D03*
D21*
X109791596Y-120142000D02*
X109412000Y-120142000D01*
D22*
X100965000Y-120142000D02*
X101210000Y-120387000D01*
D21*
X105394000Y-120387000D02*
X105394000Y-119237000D01*
X105394000Y-119237000D02*
X105219500Y-119062500D01*
X105219500Y-119062500D02*
X104521000Y-119062500D01*
X104394000Y-119189500D02*
X104394000Y-120387000D01*
X104521000Y-119062500D02*
X104394000Y-119189500D01*
X104394000Y-119189500D02*
X104203500Y-118999000D01*
X104203500Y-118999000D02*
X103568500Y-118999000D01*
X103394000Y-119173500D02*
X103394000Y-120387000D01*
X103568500Y-118999000D02*
X103394000Y-119173500D01*
X105394000Y-120387000D02*
X106181000Y-120387000D01*
X103394000Y-120387000D02*
X102244000Y-120387000D01*
X103394000Y-120387000D02*
X103394000Y-121650000D01*
X103394000Y-121650000D02*
X103251000Y-121793000D01*
X105394000Y-120387000D02*
X105394000Y-121650000D01*
X105394000Y-121650000D02*
X105600500Y-121856500D01*
D23*
X94805500Y-127381000D02*
X98552000Y-127381000D01*
X94805500Y-127381000D02*
X91948000Y-127381000D01*
X77851000Y-115824000D02*
X77851000Y-121412000D01*
X78168500Y-121729500D02*
X80810500Y-121729500D01*
X77851000Y-121412000D02*
X78168500Y-121729500D01*
X77851000Y-115824000D02*
X73660000Y-115824000D01*
X77851000Y-115824000D02*
X81407000Y-115824000D01*
X77851000Y-115824000D02*
X77851000Y-113157000D01*
D22*
X100965000Y-116537500D02*
X99568000Y-115140500D01*
X99568000Y-115140500D02*
X99568000Y-113030000D01*
X100759500Y-111838500D02*
X101981000Y-111838500D01*
X99568000Y-113030000D02*
X100759500Y-111838500D01*
X101981000Y-111838500D02*
X105410000Y-111838500D01*
X109044500Y-111838500D02*
X109093000Y-111887000D01*
X105410000Y-111838500D02*
X109044500Y-111838500D01*
X107938990Y-113041010D02*
X107938990Y-114858990D01*
X107938990Y-114858990D02*
X109412000Y-116332000D01*
X109093000Y-111887000D02*
X107938990Y-113041010D01*
D21*
X104906576Y-114858990D02*
X107938990Y-114858990D01*
X104394000Y-115371566D02*
X104906576Y-114858990D01*
X104394000Y-116087000D02*
X104394000Y-115371566D01*
D22*
X86106000Y-126899000D02*
X84074000Y-124867000D01*
X84074000Y-124867000D02*
X84074000Y-113792000D01*
X86027500Y-111838500D02*
X101981000Y-111838500D01*
X84074000Y-113792000D02*
X86027500Y-111838500D01*
X122677000Y-98455000D02*
X122027000Y-98455000D01*
X123571000Y-96911000D02*
X122027000Y-98455000D01*
X86106000Y-126899000D02*
X88291000Y-126899000D01*
X91313000Y-129921000D02*
X94805500Y-129921000D01*
X88291000Y-126899000D02*
X91313000Y-129921000D01*
D23*
X94932500Y-130048000D02*
X94805500Y-129921000D01*
X109791500Y-130048000D02*
X94932500Y-130048000D01*
D21*
X81027000Y-75565000D02*
X78740000Y-75565000D01*
X77851000Y-76454000D02*
X77851000Y-77597000D01*
X78740000Y-75565000D02*
X77851000Y-76454000D01*
X77851000Y-77597000D02*
X77851000Y-77470000D01*
X77851000Y-81788000D02*
X77851000Y-77597000D01*
D22*
X77851000Y-81788000D02*
X77851000Y-83185000D01*
X77851000Y-83185000D02*
X79248000Y-84582000D01*
X79248000Y-84582000D02*
X120777000Y-84582000D01*
X120777000Y-84582000D02*
X123571000Y-87376000D01*
X123571000Y-87376000D02*
X123571000Y-87630000D01*
X101981000Y-111838500D02*
X101981000Y-97419000D01*
X106371000Y-93029000D02*
X123571000Y-93029000D01*
X123571000Y-93029000D02*
X123571000Y-96911000D01*
X101981000Y-97419000D02*
X106371000Y-93029000D01*
X123571000Y-87630000D02*
X123571000Y-93029000D01*
D24*
X88011000Y-105918000D02*
X88011000Y-107188000D01*
D22*
X88014000Y-115954000D02*
X88011000Y-115951000D01*
D21*
X108282500Y-104775000D02*
X106870500Y-104775000D01*
D25*
X94463000Y-107188000D02*
X95200000Y-107925000D01*
X88011000Y-107188000D02*
X94463000Y-107188000D01*
D21*
X87376000Y-75565000D02*
X84327000Y-75565000D01*
X88011000Y-76200000D02*
X87376000Y-75565000D01*
X88011000Y-81788000D02*
X88011000Y-76200000D01*
D22*
X104775000Y-100701000D02*
X104765000Y-100711000D01*
X104775000Y-98933000D02*
X104775000Y-100701000D01*
D21*
X122027000Y-100955000D02*
X118056500Y-100955000D01*
X114236500Y-104775000D02*
X110157500Y-104775000D01*
X118056500Y-100955000D02*
X114236500Y-104775000D01*
X108282500Y-102108000D02*
X106299000Y-102108000D01*
X106055000Y-101864000D02*
X106055000Y-101211000D01*
X106299000Y-102108000D02*
X106055000Y-101864000D01*
X94981000Y-125016500D02*
X94805500Y-124841000D01*
X102616000Y-125016500D02*
X94981000Y-125016500D01*
D23*
X87210500Y-121729500D02*
X89027000Y-121729500D01*
X92138500Y-124841000D02*
X94805500Y-124841000D01*
X89027000Y-121729500D02*
X92138500Y-124841000D01*
X89570500Y-121729500D02*
X92900000Y-118400000D01*
X89027000Y-121729500D02*
X89570500Y-121729500D01*
D21*
X114183000Y-99705000D02*
X114173000Y-99695000D01*
X122027000Y-99705000D02*
X114183000Y-99705000D01*
X114221500Y-99743500D02*
X114173000Y-99695000D01*
X114221500Y-102108000D02*
X114221500Y-99743500D01*
X121997000Y-120142000D02*
X122027000Y-120112000D01*
X114362000Y-120142000D02*
X121997000Y-120142000D01*
X113387000Y-120142000D02*
X114362000Y-120142000D01*
X113059990Y-119814990D02*
X113387000Y-120142000D01*
X113059990Y-115588510D02*
X113059990Y-119814990D01*
X114808000Y-113840500D02*
X113059990Y-115588510D01*
X114372000Y-118862000D02*
X114362000Y-118872000D01*
X122027000Y-118862000D02*
X114372000Y-118862000D01*
X122017000Y-117602000D02*
X122027000Y-117612000D01*
X114362000Y-117602000D02*
X122017000Y-117602000D01*
X114392000Y-116362000D02*
X114362000Y-116332000D01*
X122027000Y-116362000D02*
X114392000Y-116362000D01*
X115835010Y-114858990D02*
X114362000Y-116332000D01*
X115835010Y-112992510D02*
X115835010Y-114858990D01*
X114808000Y-111965500D02*
X115835010Y-112992510D01*
X112346500Y-102108000D02*
X110157500Y-102108000D01*
X108234000Y-100184500D02*
X108234000Y-99695000D01*
X110157500Y-102108000D02*
X108234000Y-100184500D01*
X104894000Y-123133500D02*
X104902000Y-123141500D01*
X104894000Y-120387000D02*
X104894000Y-123133500D01*
X102616000Y-123141500D02*
X104902000Y-123141500D01*
X104605000Y-117602000D02*
X109412000Y-117602000D01*
X103894000Y-116891000D02*
X104605000Y-117602000D01*
X103894000Y-116087000D02*
X103894000Y-116891000D01*
X103894000Y-115229500D02*
X103894000Y-116087000D01*
X105410000Y-113713500D02*
X103894000Y-115229500D01*
X103394000Y-115126500D02*
X101981000Y-113713500D01*
X103394000Y-116087000D02*
X103394000Y-115126500D01*
X109412000Y-118872000D02*
X108140500Y-118872000D01*
X108140500Y-118872000D02*
X107378500Y-118110000D01*
X104140000Y-118110000D02*
X103394000Y-117364000D01*
X107378500Y-118110000D02*
X104140000Y-118110000D01*
X103394000Y-117364000D02*
X103394000Y-116087000D01*
D23*
X95900000Y-115575000D02*
X95200000Y-114875000D01*
X95900000Y-118400000D02*
X95900000Y-115575000D01*
D21*
G36*
X117533614Y-94366595D02*
G01*
X117399038Y-94477038D01*
X117288595Y-94611614D01*
X117206528Y-94765150D01*
X117155992Y-94931746D01*
X117138928Y-95105000D01*
X117138928Y-96705000D01*
X117155992Y-96878254D01*
X117206528Y-97044850D01*
X117288595Y-97198386D01*
X117399038Y-97332962D01*
X117533614Y-97443405D01*
X117687150Y-97525472D01*
X117853746Y-97576008D01*
X118027000Y-97593072D01*
X120527000Y-97593072D01*
X120700254Y-97576008D01*
X120866850Y-97525472D01*
X121020386Y-97443405D01*
X121154962Y-97332962D01*
X121265405Y-97198386D01*
X121347472Y-97044850D01*
X121398008Y-96878254D01*
X121415072Y-96705000D01*
X121415072Y-95105000D01*
X121398008Y-94931746D01*
X121347472Y-94765150D01*
X121265405Y-94611614D01*
X121154962Y-94477038D01*
X121020386Y-94366595D01*
X121009919Y-94361000D01*
X122682000Y-94361000D01*
X122682001Y-96542763D01*
X121807837Y-97416928D01*
X121577000Y-97416928D01*
X121413500Y-97433031D01*
X121256284Y-97480722D01*
X121111392Y-97558169D01*
X120984394Y-97662394D01*
X120880169Y-97789392D01*
X120802722Y-97934284D01*
X120755031Y-98091500D01*
X120738928Y-98255000D01*
X120738928Y-98655000D01*
X120755031Y-98818500D01*
X120792798Y-98943000D01*
X115244099Y-98943000D01*
X115231447Y-98901291D01*
X115149958Y-98748836D01*
X115040292Y-98615208D01*
X114906664Y-98505542D01*
X114754209Y-98424053D01*
X114588785Y-98373872D01*
X114416750Y-98356928D01*
X113929250Y-98356928D01*
X113757215Y-98373872D01*
X113591791Y-98424053D01*
X113439336Y-98505542D01*
X113305708Y-98615208D01*
X113300492Y-98621564D01*
X113236685Y-98543815D01*
X113139994Y-98464463D01*
X113029680Y-98405498D01*
X112909982Y-98369188D01*
X112785500Y-98356928D01*
X112583750Y-98360000D01*
X112425000Y-98518750D01*
X112425000Y-99568000D01*
X112445000Y-99568000D01*
X112445000Y-99822000D01*
X112425000Y-99822000D01*
X112425000Y-99842000D01*
X112171000Y-99842000D01*
X112171000Y-99822000D01*
X111334250Y-99822000D01*
X111203500Y-99952750D01*
X111072750Y-99822000D01*
X110236000Y-99822000D01*
X110236000Y-99842000D01*
X109982000Y-99842000D01*
X109982000Y-99822000D01*
X109962000Y-99822000D01*
X109962000Y-99568000D01*
X109982000Y-99568000D01*
X109982000Y-98518750D01*
X110236000Y-98518750D01*
X110236000Y-99568000D01*
X111072750Y-99568000D01*
X111203500Y-99437250D01*
X111334250Y-99568000D01*
X112171000Y-99568000D01*
X112171000Y-98518750D01*
X112012250Y-98360000D01*
X111810500Y-98356928D01*
X111686018Y-98369188D01*
X111566320Y-98405498D01*
X111456006Y-98464463D01*
X111359315Y-98543815D01*
X111279963Y-98640506D01*
X111220998Y-98750820D01*
X111203500Y-98808503D01*
X111186002Y-98750820D01*
X111127037Y-98640506D01*
X111047685Y-98543815D01*
X110950994Y-98464463D01*
X110840680Y-98405498D01*
X110720982Y-98369188D01*
X110596500Y-98356928D01*
X110394750Y-98360000D01*
X110236000Y-98518750D01*
X109982000Y-98518750D01*
X109823250Y-98360000D01*
X109621500Y-98356928D01*
X109497018Y-98369188D01*
X109377320Y-98405498D01*
X109267006Y-98464463D01*
X109170315Y-98543815D01*
X109106508Y-98621564D01*
X109101292Y-98615208D01*
X108967664Y-98505542D01*
X108815209Y-98424053D01*
X108649785Y-98373872D01*
X108477750Y-98356928D01*
X107990250Y-98356928D01*
X107818215Y-98373872D01*
X107652791Y-98424053D01*
X107500336Y-98505542D01*
X107366708Y-98615208D01*
X107257042Y-98748836D01*
X107175553Y-98901291D01*
X107125372Y-99066715D01*
X107108428Y-99238750D01*
X107108428Y-100151250D01*
X107125372Y-100323285D01*
X107175553Y-100488709D01*
X107257042Y-100641164D01*
X107366708Y-100774792D01*
X107500336Y-100884458D01*
X107556469Y-100914462D01*
X107548836Y-100918542D01*
X107415208Y-101028208D01*
X107305542Y-101161836D01*
X107224053Y-101314291D01*
X107214434Y-101346000D01*
X106948072Y-101346000D01*
X106948072Y-101011000D01*
X106935812Y-100886518D01*
X106899502Y-100766820D01*
X106869789Y-100711233D01*
X106892507Y-100671426D01*
X106932121Y-100552780D01*
X106945000Y-100442750D01*
X106786250Y-100284000D01*
X106182000Y-100284000D01*
X106182000Y-100358000D01*
X105928000Y-100358000D01*
X105928000Y-100284000D01*
X105908000Y-100284000D01*
X105908000Y-100138000D01*
X105928000Y-100138000D01*
X105928000Y-99534750D01*
X106182000Y-99534750D01*
X106182000Y-100138000D01*
X106786250Y-100138000D01*
X106945000Y-99979250D01*
X106932121Y-99869220D01*
X106892507Y-99750574D01*
X106830508Y-99641937D01*
X106748505Y-99547482D01*
X106649652Y-99470840D01*
X106537746Y-99414957D01*
X106417087Y-99381978D01*
X106340750Y-99376000D01*
X106182000Y-99534750D01*
X105928000Y-99534750D01*
X105769250Y-99376000D01*
X105709853Y-99380651D01*
X105770226Y-99234898D01*
X105810000Y-99034939D01*
X105810000Y-98831061D01*
X105770226Y-98631102D01*
X105692205Y-98442744D01*
X105578937Y-98273226D01*
X105434774Y-98129063D01*
X105265256Y-98015795D01*
X105076898Y-97937774D01*
X104876939Y-97898000D01*
X104673061Y-97898000D01*
X104473102Y-97937774D01*
X104284744Y-98015795D01*
X104115226Y-98129063D01*
X103971063Y-98273226D01*
X103857795Y-98442744D01*
X103779774Y-98631102D01*
X103740000Y-98831061D01*
X103740000Y-99034939D01*
X103779774Y-99234898D01*
X103857795Y-99423256D01*
X103886000Y-99465468D01*
X103886001Y-100380542D01*
X103884188Y-100386518D01*
X103871928Y-100511000D01*
X103871928Y-100708685D01*
X103871700Y-100711000D01*
X103871928Y-100713315D01*
X103871928Y-100911000D01*
X103884188Y-101035482D01*
X103920498Y-101155180D01*
X103979463Y-101265494D01*
X104058815Y-101362185D01*
X104155506Y-101441537D01*
X104265820Y-101500502D01*
X104385518Y-101536812D01*
X104443729Y-101542545D01*
X104590726Y-101587136D01*
X104765000Y-101604300D01*
X104939274Y-101587136D01*
X105086271Y-101542545D01*
X105144482Y-101536812D01*
X105173453Y-101528024D01*
X105174188Y-101535482D01*
X105210498Y-101655180D01*
X105269463Y-101765494D01*
X105293000Y-101794174D01*
X105293000Y-101826577D01*
X105289314Y-101864000D01*
X105293000Y-101901423D01*
X105293000Y-101901425D01*
X105304026Y-102013377D01*
X105347598Y-102157014D01*
X105347599Y-102157015D01*
X105418355Y-102289392D01*
X105442062Y-102318279D01*
X105513578Y-102405422D01*
X105542654Y-102429284D01*
X105733716Y-102620346D01*
X105757578Y-102649422D01*
X105873608Y-102744645D01*
X106005985Y-102815402D01*
X106149622Y-102858974D01*
X106261574Y-102870000D01*
X106261576Y-102870000D01*
X106298999Y-102873686D01*
X106336422Y-102870000D01*
X107214434Y-102870000D01*
X107224053Y-102901709D01*
X107305542Y-103054164D01*
X107415208Y-103187792D01*
X107548836Y-103297458D01*
X107701291Y-103378947D01*
X107866715Y-103429128D01*
X107992330Y-103441500D01*
X107866715Y-103453872D01*
X107701291Y-103504053D01*
X107548836Y-103585542D01*
X107415208Y-103695208D01*
X107305542Y-103828836D01*
X107302878Y-103833821D01*
X107172398Y-103779774D01*
X106972439Y-103740000D01*
X106768561Y-103740000D01*
X106568602Y-103779774D01*
X106380244Y-103857795D01*
X106210726Y-103971063D01*
X106066563Y-104115226D01*
X105953295Y-104284744D01*
X105875274Y-104473102D01*
X105835500Y-104673061D01*
X105835500Y-104876939D01*
X105875274Y-105076898D01*
X105953295Y-105265256D01*
X106066563Y-105434774D01*
X106210726Y-105578937D01*
X106380244Y-105692205D01*
X106568602Y-105770226D01*
X106768561Y-105810000D01*
X106972439Y-105810000D01*
X107172398Y-105770226D01*
X107302878Y-105716179D01*
X107305542Y-105721164D01*
X107415208Y-105854792D01*
X107548836Y-105964458D01*
X107701291Y-106045947D01*
X107866715Y-106096128D01*
X108038750Y-106113072D01*
X108526250Y-106113072D01*
X108698285Y-106096128D01*
X108863709Y-106045947D01*
X109016164Y-105964458D01*
X109149792Y-105854792D01*
X109220000Y-105769244D01*
X109290208Y-105854792D01*
X109423836Y-105964458D01*
X109576291Y-106045947D01*
X109741715Y-106096128D01*
X109913750Y-106113072D01*
X110401250Y-106113072D01*
X110573285Y-106096128D01*
X110738709Y-106045947D01*
X110891164Y-105964458D01*
X111024792Y-105854792D01*
X111134458Y-105721164D01*
X111215947Y-105568709D01*
X111225566Y-105537000D01*
X114199077Y-105537000D01*
X114236500Y-105540686D01*
X114273923Y-105537000D01*
X114273926Y-105537000D01*
X114385878Y-105525974D01*
X114529515Y-105482402D01*
X114661892Y-105411645D01*
X114777922Y-105316422D01*
X114801784Y-105287346D01*
X116134130Y-103955000D01*
X117138928Y-103955000D01*
X117138928Y-105555000D01*
X117155992Y-105728254D01*
X117206528Y-105894850D01*
X117288595Y-106048386D01*
X117399038Y-106182962D01*
X117533614Y-106293405D01*
X117687150Y-106375472D01*
X117853746Y-106426008D01*
X118027000Y-106443072D01*
X120527000Y-106443072D01*
X120700254Y-106426008D01*
X120866850Y-106375472D01*
X121020386Y-106293405D01*
X121154962Y-106182962D01*
X121265405Y-106048386D01*
X121347472Y-105894850D01*
X121398008Y-105728254D01*
X121415072Y-105555000D01*
X121415072Y-103955000D01*
X121398008Y-103781746D01*
X121347472Y-103615150D01*
X121265405Y-103461614D01*
X121154962Y-103327038D01*
X121020386Y-103216595D01*
X120866850Y-103134528D01*
X120700254Y-103083992D01*
X120527000Y-103066928D01*
X118027000Y-103066928D01*
X117853746Y-103083992D01*
X117687150Y-103134528D01*
X117533614Y-103216595D01*
X117399038Y-103327038D01*
X117288595Y-103461614D01*
X117206528Y-103615150D01*
X117155992Y-103781746D01*
X117138928Y-103955000D01*
X116134130Y-103955000D01*
X117484130Y-102605000D01*
X120738928Y-102605000D01*
X120751188Y-102729482D01*
X120787498Y-102849180D01*
X120846463Y-102959494D01*
X120925815Y-103056185D01*
X121022506Y-103135537D01*
X121132820Y-103194502D01*
X121252518Y-103230812D01*
X121377000Y-103243072D01*
X121741250Y-103240000D01*
X121900000Y-103081250D01*
X121900000Y-102332000D01*
X122154000Y-102332000D01*
X122154000Y-103081250D01*
X122312750Y-103240000D01*
X122677000Y-103243072D01*
X122801482Y-103230812D01*
X122921180Y-103194502D01*
X123031494Y-103135537D01*
X123128185Y-103056185D01*
X123207537Y-102959494D01*
X123266502Y-102849180D01*
X123302812Y-102729482D01*
X123315072Y-102605000D01*
X123312000Y-102490750D01*
X123153250Y-102332000D01*
X122154000Y-102332000D01*
X121900000Y-102332000D01*
X120900750Y-102332000D01*
X120742000Y-102490750D01*
X120738928Y-102605000D01*
X117484130Y-102605000D01*
X118372131Y-101717000D01*
X120747595Y-101717000D01*
X120738928Y-101805000D01*
X120742000Y-101919250D01*
X120900750Y-102078000D01*
X121900000Y-102078000D01*
X121900000Y-102058000D01*
X122154000Y-102058000D01*
X122154000Y-102078000D01*
X123153250Y-102078000D01*
X123312000Y-101919250D01*
X123315072Y-101805000D01*
X123302812Y-101680518D01*
X123266502Y-101560820D01*
X123236145Y-101504027D01*
X123251278Y-101475716D01*
X123298969Y-101318500D01*
X123315072Y-101155000D01*
X123315072Y-100755000D01*
X123298969Y-100591500D01*
X123251278Y-100434284D01*
X123195537Y-100330000D01*
X123251278Y-100225716D01*
X123298969Y-100068500D01*
X123315072Y-99905000D01*
X123315072Y-99505000D01*
X123298969Y-99341500D01*
X123251278Y-99184284D01*
X123232503Y-99149159D01*
X123308659Y-99086659D01*
X123419753Y-98951291D01*
X123502303Y-98796851D01*
X123553136Y-98629274D01*
X123570301Y-98455000D01*
X123553136Y-98280726D01*
X123531113Y-98208123D01*
X123698000Y-98041236D01*
X123698000Y-128933541D01*
X123687623Y-128881372D01*
X123398533Y-128183446D01*
X122978839Y-127555330D01*
X122444670Y-127021161D01*
X121816554Y-126601467D01*
X121118628Y-126312377D01*
X120377715Y-126165000D01*
X119622285Y-126165000D01*
X118881372Y-126312377D01*
X118183446Y-126601467D01*
X117555330Y-127021161D01*
X117021161Y-127555330D01*
X116601467Y-128183446D01*
X116312377Y-128881372D01*
X116165000Y-129622285D01*
X116165000Y-130377715D01*
X116312377Y-131118628D01*
X116601467Y-131816554D01*
X117021161Y-132444670D01*
X117555330Y-132978839D01*
X118110811Y-133350000D01*
X76889189Y-133350000D01*
X77444670Y-132978839D01*
X77978839Y-132444670D01*
X78398533Y-131816554D01*
X78687623Y-131118628D01*
X78731309Y-130899000D01*
X84292928Y-130899000D01*
X84305188Y-131023482D01*
X84341498Y-131143180D01*
X84400463Y-131253494D01*
X84479815Y-131350185D01*
X84576506Y-131429537D01*
X84686820Y-131488502D01*
X84806518Y-131524812D01*
X84931000Y-131537072D01*
X85820250Y-131534000D01*
X85979000Y-131375250D01*
X85979000Y-130276000D01*
X86233000Y-130276000D01*
X86233000Y-131375250D01*
X86391750Y-131534000D01*
X87281000Y-131537072D01*
X87405482Y-131524812D01*
X87525180Y-131488502D01*
X87635494Y-131429537D01*
X87732185Y-131350185D01*
X87811537Y-131253494D01*
X87870502Y-131143180D01*
X87906812Y-131023482D01*
X87919072Y-130899000D01*
X87916000Y-130434750D01*
X87757250Y-130276000D01*
X86233000Y-130276000D01*
X85979000Y-130276000D01*
X84454750Y-130276000D01*
X84296000Y-130434750D01*
X84292928Y-130899000D01*
X78731309Y-130899000D01*
X78835000Y-130377715D01*
X78835000Y-129622285D01*
X78790586Y-129399000D01*
X84292928Y-129399000D01*
X84296000Y-129863250D01*
X84454750Y-130022000D01*
X85979000Y-130022000D01*
X85979000Y-128922750D01*
X86233000Y-128922750D01*
X86233000Y-130022000D01*
X87757250Y-130022000D01*
X87916000Y-129863250D01*
X87919072Y-129399000D01*
X87906812Y-129274518D01*
X87870502Y-129154820D01*
X87811537Y-129044506D01*
X87732185Y-128947815D01*
X87635494Y-128868463D01*
X87525180Y-128809498D01*
X87405482Y-128773188D01*
X87281000Y-128760928D01*
X86391750Y-128764000D01*
X86233000Y-128922750D01*
X85979000Y-128922750D01*
X85820250Y-128764000D01*
X84931000Y-128760928D01*
X84806518Y-128773188D01*
X84686820Y-128809498D01*
X84576506Y-128868463D01*
X84479815Y-128947815D01*
X84400463Y-129044506D01*
X84341498Y-129154820D01*
X84305188Y-129274518D01*
X84292928Y-129399000D01*
X78790586Y-129399000D01*
X78687623Y-128881372D01*
X78398533Y-128183446D01*
X77978839Y-127555330D01*
X77444670Y-127021161D01*
X76816554Y-126601467D01*
X76118628Y-126312377D01*
X75377715Y-126165000D01*
X74622285Y-126165000D01*
X73881372Y-126312377D01*
X73183446Y-126601467D01*
X72555330Y-127021161D01*
X72021161Y-127555330D01*
X71628000Y-128143737D01*
X71628000Y-122800000D01*
X72561928Y-122800000D01*
X72561928Y-124000000D01*
X72578992Y-124173254D01*
X72629528Y-124339850D01*
X72711595Y-124493386D01*
X72822038Y-124627962D01*
X72956614Y-124738405D01*
X73110150Y-124820472D01*
X73276746Y-124871008D01*
X73450000Y-124888072D01*
X74950000Y-124888072D01*
X74965000Y-124886595D01*
X74965000Y-125121637D01*
X75012460Y-125360236D01*
X75105557Y-125584992D01*
X75240713Y-125787267D01*
X75412733Y-125959287D01*
X75615008Y-126094443D01*
X75839764Y-126187540D01*
X76078363Y-126235000D01*
X76321637Y-126235000D01*
X76560236Y-126187540D01*
X76784992Y-126094443D01*
X76987267Y-125959287D01*
X77159287Y-125787267D01*
X77294443Y-125584992D01*
X77387540Y-125360236D01*
X77435000Y-125121637D01*
X77435000Y-124878363D01*
X77387540Y-124639764D01*
X77294443Y-124415008D01*
X77159287Y-124212733D01*
X76987267Y-124040713D01*
X76784992Y-123905557D01*
X76560236Y-123812460D01*
X76321637Y-123765000D01*
X76078363Y-123765000D01*
X75839764Y-123812460D01*
X75838072Y-123813161D01*
X75838072Y-123004500D01*
X79047428Y-123004500D01*
X79059688Y-123128982D01*
X79095998Y-123248680D01*
X79154963Y-123358994D01*
X79234315Y-123455685D01*
X79331006Y-123535037D01*
X79441320Y-123594002D01*
X79561018Y-123630312D01*
X79685500Y-123642572D01*
X80524750Y-123639500D01*
X80683500Y-123480750D01*
X80683500Y-121856500D01*
X80937500Y-121856500D01*
X80937500Y-123480750D01*
X81096250Y-123639500D01*
X81935500Y-123642572D01*
X82059982Y-123630312D01*
X82179680Y-123594002D01*
X82289994Y-123535037D01*
X82386685Y-123455685D01*
X82466037Y-123358994D01*
X82525002Y-123248680D01*
X82561312Y-123128982D01*
X82573572Y-123004500D01*
X82570500Y-122015250D01*
X82411750Y-121856500D01*
X80937500Y-121856500D01*
X80683500Y-121856500D01*
X79209250Y-121856500D01*
X79050500Y-122015250D01*
X79047428Y-123004500D01*
X75838072Y-123004500D01*
X75838072Y-122800000D01*
X75821008Y-122626746D01*
X75770472Y-122460150D01*
X75688405Y-122306614D01*
X75577962Y-122172038D01*
X75443386Y-122061595D01*
X75341407Y-122007086D01*
X75341795Y-122006802D01*
X75538664Y-121792046D01*
X75689854Y-121543009D01*
X75789554Y-121269261D01*
X75791476Y-121256890D01*
X75670155Y-121027000D01*
X74327000Y-121027000D01*
X74327000Y-121047000D01*
X74073000Y-121047000D01*
X74073000Y-121027000D01*
X72729845Y-121027000D01*
X72608524Y-121256890D01*
X72610446Y-121269261D01*
X72710146Y-121543009D01*
X72861336Y-121792046D01*
X73058205Y-122006802D01*
X73058593Y-122007086D01*
X72956614Y-122061595D01*
X72822038Y-122172038D01*
X72711595Y-122306614D01*
X72629528Y-122460150D01*
X72578992Y-122626746D01*
X72561928Y-122800000D01*
X71628000Y-122800000D01*
X71628000Y-120543110D01*
X72608524Y-120543110D01*
X72729845Y-120773000D01*
X74073000Y-120773000D01*
X74073000Y-119572768D01*
X74327000Y-119572768D01*
X74327000Y-120773000D01*
X75670155Y-120773000D01*
X75791476Y-120543110D01*
X75789554Y-120530739D01*
X75761788Y-120454500D01*
X79047428Y-120454500D01*
X79050500Y-121443750D01*
X79209250Y-121602500D01*
X80683500Y-121602500D01*
X80683500Y-119978250D01*
X80937500Y-119978250D01*
X80937500Y-121602500D01*
X82411750Y-121602500D01*
X82570500Y-121443750D01*
X82573572Y-120454500D01*
X82561312Y-120330018D01*
X82525002Y-120210320D01*
X82466037Y-120100006D01*
X82386685Y-120003315D01*
X82289994Y-119923963D01*
X82179680Y-119864998D01*
X82059982Y-119828688D01*
X81935500Y-119816428D01*
X81096250Y-119819500D01*
X80937500Y-119978250D01*
X80683500Y-119978250D01*
X80524750Y-119819500D01*
X79685500Y-119816428D01*
X79561018Y-119828688D01*
X79441320Y-119864998D01*
X79331006Y-119923963D01*
X79234315Y-120003315D01*
X79154963Y-120100006D01*
X79095998Y-120210320D01*
X79059688Y-120330018D01*
X79047428Y-120454500D01*
X75761788Y-120454500D01*
X75689854Y-120256991D01*
X75538664Y-120007954D01*
X75341795Y-119793198D01*
X75106812Y-119620975D01*
X74842745Y-119497904D01*
X74559742Y-119428715D01*
X74327000Y-119572768D01*
X74073000Y-119572768D01*
X73840258Y-119428715D01*
X73557255Y-119497904D01*
X73293188Y-119620975D01*
X73058205Y-119793198D01*
X72861336Y-120007954D01*
X72710146Y-120256991D01*
X72610446Y-120530739D01*
X72608524Y-120543110D01*
X71628000Y-120543110D01*
X71628000Y-117199000D01*
X75837928Y-117199000D01*
X75850188Y-117323482D01*
X75886498Y-117443180D01*
X75945463Y-117553494D01*
X76024815Y-117650185D01*
X76121506Y-117729537D01*
X76231820Y-117788502D01*
X76351518Y-117824812D01*
X76476000Y-117837072D01*
X77565250Y-117834000D01*
X77724000Y-117675250D01*
X77724000Y-115951000D01*
X77978000Y-115951000D01*
X77978000Y-117675250D01*
X78136750Y-117834000D01*
X79226000Y-117837072D01*
X79350482Y-117824812D01*
X79470180Y-117788502D01*
X79580494Y-117729537D01*
X79677185Y-117650185D01*
X79756537Y-117553494D01*
X79815502Y-117443180D01*
X79851812Y-117323482D01*
X79864072Y-117199000D01*
X79861000Y-116109750D01*
X79702250Y-115951000D01*
X77978000Y-115951000D01*
X77724000Y-115951000D01*
X75999750Y-115951000D01*
X75841000Y-116109750D01*
X75837928Y-117199000D01*
X71628000Y-117199000D01*
X71628000Y-114449000D01*
X75837928Y-114449000D01*
X75841000Y-115538250D01*
X75999750Y-115697000D01*
X77724000Y-115697000D01*
X77724000Y-113972750D01*
X77978000Y-113972750D01*
X77978000Y-115697000D01*
X79702250Y-115697000D01*
X79861000Y-115538250D01*
X79864072Y-114449000D01*
X79851812Y-114324518D01*
X79815502Y-114204820D01*
X79756537Y-114094506D01*
X79677185Y-113997815D01*
X79580494Y-113918463D01*
X79470180Y-113859498D01*
X79350482Y-113823188D01*
X79226000Y-113810928D01*
X78136750Y-113814000D01*
X77978000Y-113972750D01*
X77724000Y-113972750D01*
X77565250Y-113814000D01*
X76476000Y-113810928D01*
X76351518Y-113823188D01*
X76231820Y-113859498D01*
X76121506Y-113918463D01*
X76024815Y-113997815D01*
X75945463Y-114094506D01*
X75886498Y-114204820D01*
X75850188Y-114324518D01*
X75837928Y-114449000D01*
X71628000Y-114449000D01*
X71628000Y-109726440D01*
X91873000Y-109643468D01*
X91873000Y-110949500D01*
X86071159Y-110949500D01*
X86027499Y-110945200D01*
X85983839Y-110949500D01*
X85983833Y-110949500D01*
X85886424Y-110959094D01*
X85853224Y-110962364D01*
X85766927Y-110988542D01*
X85685649Y-111013197D01*
X85531209Y-111095747D01*
X85395841Y-111206841D01*
X85368006Y-111240758D01*
X83476259Y-113132506D01*
X83442342Y-113160341D01*
X83414507Y-113194258D01*
X83414505Y-113194260D01*
X83331248Y-113295709D01*
X83248698Y-113450148D01*
X83197864Y-113617726D01*
X83180700Y-113792000D01*
X83185001Y-113835670D01*
X83185000Y-124823340D01*
X83180700Y-124867000D01*
X83185000Y-124910660D01*
X83185000Y-124910666D01*
X83192851Y-124990378D01*
X83197864Y-125041274D01*
X83219998Y-125114241D01*
X83248697Y-125208850D01*
X83331247Y-125363290D01*
X83442341Y-125498659D01*
X83476264Y-125526499D01*
X84297934Y-126348170D01*
X84292928Y-126399000D01*
X84292928Y-127399000D01*
X84309992Y-127572254D01*
X84360528Y-127738850D01*
X84442595Y-127892386D01*
X84553038Y-128026962D01*
X84687614Y-128137405D01*
X84841150Y-128219472D01*
X85007746Y-128270008D01*
X85181000Y-128287072D01*
X87031000Y-128287072D01*
X87204254Y-128270008D01*
X87370850Y-128219472D01*
X87524386Y-128137405D01*
X87658962Y-128026962D01*
X87769405Y-127892386D01*
X87825201Y-127788000D01*
X87922765Y-127788000D01*
X90653501Y-130518736D01*
X90681341Y-130552659D01*
X90816709Y-130663753D01*
X90971149Y-130746303D01*
X91037058Y-130766296D01*
X91138724Y-130797136D01*
X91171924Y-130800406D01*
X91269333Y-130810000D01*
X91269339Y-130810000D01*
X91312999Y-130814300D01*
X91356659Y-130810000D01*
X93243388Y-130810000D01*
X93321419Y-130905081D01*
X93532312Y-131078157D01*
X93772919Y-131206764D01*
X94033993Y-131285960D01*
X94237463Y-131306000D01*
X95373537Y-131306000D01*
X95577007Y-131285960D01*
X95838081Y-131206764D01*
X95867573Y-131191000D01*
X108343812Y-131191000D01*
X108413538Y-131275962D01*
X108548114Y-131386405D01*
X108701650Y-131468472D01*
X108868246Y-131519008D01*
X109041500Y-131536072D01*
X110541500Y-131536072D01*
X110556500Y-131534595D01*
X110556500Y-131769637D01*
X110603960Y-132008236D01*
X110697057Y-132232992D01*
X110832213Y-132435267D01*
X111004233Y-132607287D01*
X111206508Y-132742443D01*
X111431264Y-132835540D01*
X111669863Y-132883000D01*
X111913137Y-132883000D01*
X112151736Y-132835540D01*
X112376492Y-132742443D01*
X112578767Y-132607287D01*
X112750787Y-132435267D01*
X112885943Y-132232992D01*
X112979040Y-132008236D01*
X113026500Y-131769637D01*
X113026500Y-131526363D01*
X112979040Y-131287764D01*
X112885943Y-131063008D01*
X112750787Y-130860733D01*
X112578767Y-130688713D01*
X112376492Y-130553557D01*
X112151736Y-130460460D01*
X111913137Y-130413000D01*
X111669863Y-130413000D01*
X111431264Y-130460460D01*
X111429572Y-130461161D01*
X111429572Y-129448000D01*
X111412508Y-129274746D01*
X111361972Y-129108150D01*
X111279905Y-128954614D01*
X111169462Y-128820038D01*
X111034886Y-128709595D01*
X110932907Y-128655086D01*
X110933295Y-128654802D01*
X111130164Y-128440046D01*
X111281354Y-128191009D01*
X111381054Y-127917261D01*
X111382976Y-127904890D01*
X111261655Y-127675000D01*
X109918500Y-127675000D01*
X109918500Y-127695000D01*
X109664500Y-127695000D01*
X109664500Y-127675000D01*
X108321345Y-127675000D01*
X108200024Y-127904890D01*
X108201946Y-127917261D01*
X108301646Y-128191009D01*
X108452836Y-128440046D01*
X108649705Y-128654802D01*
X108650093Y-128655086D01*
X108548114Y-128709595D01*
X108413538Y-128820038D01*
X108343812Y-128905000D01*
X96250688Y-128905000D01*
X96078688Y-128763843D01*
X95862922Y-128648514D01*
X95952849Y-128611972D01*
X96180561Y-128462028D01*
X96374645Y-128270540D01*
X96527642Y-128044868D01*
X96633673Y-127793684D01*
X96647818Y-127722185D01*
X96525156Y-127508000D01*
X94932500Y-127508000D01*
X94932500Y-127528000D01*
X94678500Y-127528000D01*
X94678500Y-127508000D01*
X93085844Y-127508000D01*
X92963182Y-127722185D01*
X92977327Y-127793684D01*
X93083358Y-128044868D01*
X93236355Y-128270540D01*
X93430439Y-128462028D01*
X93658151Y-128611972D01*
X93748078Y-128648514D01*
X93532312Y-128763843D01*
X93321419Y-128936919D01*
X93243388Y-129032000D01*
X91681235Y-129032000D01*
X88950499Y-126301264D01*
X88922659Y-126267341D01*
X88787291Y-126156247D01*
X88632851Y-126073697D01*
X88465274Y-126022864D01*
X88334667Y-126010000D01*
X88334660Y-126010000D01*
X88291000Y-126005700D01*
X88247340Y-126010000D01*
X87825201Y-126010000D01*
X87769405Y-125905614D01*
X87658962Y-125771038D01*
X87524386Y-125660595D01*
X87370850Y-125578528D01*
X87204254Y-125527992D01*
X87031000Y-125510928D01*
X85975164Y-125510928D01*
X84963000Y-124498765D01*
X84963000Y-120704499D01*
X85447428Y-120704499D01*
X85447428Y-122754501D01*
X85464492Y-122927755D01*
X85515028Y-123094351D01*
X85597095Y-123247887D01*
X85707538Y-123382462D01*
X85842113Y-123492905D01*
X85995649Y-123574972D01*
X86162245Y-123625508D01*
X86335499Y-123642572D01*
X88085501Y-123642572D01*
X88258755Y-123625508D01*
X88425351Y-123574972D01*
X88578887Y-123492905D01*
X88713462Y-123382462D01*
X88823905Y-123247887D01*
X88860492Y-123179437D01*
X91290577Y-125609523D01*
X91326367Y-125653133D01*
X91500411Y-125795968D01*
X91698977Y-125902103D01*
X91842018Y-125945494D01*
X91914432Y-125967461D01*
X91937100Y-125969694D01*
X92082354Y-125984000D01*
X92082360Y-125984000D01*
X92138499Y-125989529D01*
X92194638Y-125984000D01*
X93056564Y-125984000D01*
X93104315Y-126042185D01*
X93201006Y-126121537D01*
X93311320Y-126180502D01*
X93431018Y-126216812D01*
X93540374Y-126227582D01*
X93430439Y-126299972D01*
X93236355Y-126491460D01*
X93083358Y-126717132D01*
X92977327Y-126968316D01*
X92963182Y-127039815D01*
X93085844Y-127254000D01*
X94678500Y-127254000D01*
X94678500Y-127234000D01*
X94932500Y-127234000D01*
X94932500Y-127254000D01*
X96525156Y-127254000D01*
X96561172Y-127191110D01*
X108200024Y-127191110D01*
X108321345Y-127421000D01*
X109664500Y-127421000D01*
X109664500Y-126220768D01*
X109918500Y-126220768D01*
X109918500Y-127421000D01*
X111261655Y-127421000D01*
X111382976Y-127191110D01*
X111381054Y-127178739D01*
X111281354Y-126904991D01*
X111130164Y-126655954D01*
X110933295Y-126441198D01*
X110698312Y-126268975D01*
X110434245Y-126145904D01*
X110151242Y-126076715D01*
X109918500Y-126220768D01*
X109664500Y-126220768D01*
X109431758Y-126076715D01*
X109148755Y-126145904D01*
X108884688Y-126268975D01*
X108649705Y-126441198D01*
X108452836Y-126655954D01*
X108301646Y-126904991D01*
X108201946Y-127178739D01*
X108200024Y-127191110D01*
X96561172Y-127191110D01*
X96647818Y-127039815D01*
X96633673Y-126968316D01*
X96527642Y-126717132D01*
X96374645Y-126491460D01*
X96180561Y-126299972D01*
X96070626Y-126227582D01*
X96179982Y-126216812D01*
X96299680Y-126180502D01*
X96409994Y-126121537D01*
X96506685Y-126042185D01*
X96586037Y-125945494D01*
X96645002Y-125835180D01*
X96662196Y-125778500D01*
X101449797Y-125778500D01*
X101536208Y-125883792D01*
X101669836Y-125993458D01*
X101822291Y-126074947D01*
X101987715Y-126125128D01*
X102159750Y-126142072D01*
X103072250Y-126142072D01*
X103244285Y-126125128D01*
X103409709Y-126074947D01*
X103562164Y-125993458D01*
X103693660Y-125885541D01*
X103750815Y-125955185D01*
X103847506Y-126034537D01*
X103957820Y-126093502D01*
X104077518Y-126129812D01*
X104202000Y-126142072D01*
X104616250Y-126139000D01*
X104775000Y-125980250D01*
X104775000Y-125143500D01*
X105029000Y-125143500D01*
X105029000Y-125980250D01*
X105187750Y-126139000D01*
X105602000Y-126142072D01*
X105726482Y-126129812D01*
X105846180Y-126093502D01*
X105956494Y-126034537D01*
X106053185Y-125955185D01*
X106132537Y-125858494D01*
X106191502Y-125748180D01*
X106227812Y-125628482D01*
X106240072Y-125504000D01*
X106237000Y-125302250D01*
X106078250Y-125143500D01*
X105029000Y-125143500D01*
X104775000Y-125143500D01*
X104755000Y-125143500D01*
X104755000Y-124889500D01*
X104775000Y-124889500D01*
X104775000Y-124869500D01*
X105029000Y-124869500D01*
X105029000Y-124889500D01*
X106078250Y-124889500D01*
X106237000Y-124730750D01*
X106240072Y-124529000D01*
X106227812Y-124404518D01*
X106191502Y-124284820D01*
X106132537Y-124174506D01*
X106053185Y-124077815D01*
X105975436Y-124014008D01*
X105981792Y-124008792D01*
X106091458Y-123875164D01*
X106172947Y-123722709D01*
X106223128Y-123557285D01*
X106240072Y-123385250D01*
X106240072Y-122897750D01*
X106223128Y-122725715D01*
X106172947Y-122560291D01*
X106091458Y-122407836D01*
X105981792Y-122274208D01*
X105848164Y-122164542D01*
X105695709Y-122083053D01*
X105656000Y-122071007D01*
X105656000Y-121862000D01*
X117138928Y-121862000D01*
X117138928Y-123462000D01*
X117155992Y-123635254D01*
X117206528Y-123801850D01*
X117288595Y-123955386D01*
X117399038Y-124089962D01*
X117533614Y-124200405D01*
X117687150Y-124282472D01*
X117853746Y-124333008D01*
X118027000Y-124350072D01*
X120527000Y-124350072D01*
X120700254Y-124333008D01*
X120866850Y-124282472D01*
X121020386Y-124200405D01*
X121154962Y-124089962D01*
X121265405Y-123955386D01*
X121347472Y-123801850D01*
X121398008Y-123635254D01*
X121415072Y-123462000D01*
X121415072Y-121862000D01*
X121398008Y-121688746D01*
X121347472Y-121522150D01*
X121265405Y-121368614D01*
X121154962Y-121234038D01*
X121020386Y-121123595D01*
X120866850Y-121041528D01*
X120700254Y-120990992D01*
X120527000Y-120973928D01*
X118027000Y-120973928D01*
X117853746Y-120990992D01*
X117687150Y-121041528D01*
X117533614Y-121123595D01*
X117399038Y-121234038D01*
X117288595Y-121368614D01*
X117206528Y-121522150D01*
X117155992Y-121688746D01*
X117138928Y-121862000D01*
X105656000Y-121862000D01*
X105656000Y-121560152D01*
X105774598Y-121521641D01*
X105883745Y-121460543D01*
X105978875Y-121379325D01*
X106056332Y-121281108D01*
X106113139Y-121169668D01*
X106147114Y-121049287D01*
X106156951Y-120924590D01*
X106154000Y-120672750D01*
X105995250Y-120514000D01*
X105657072Y-120514000D01*
X105657072Y-120442000D01*
X107798928Y-120442000D01*
X107811188Y-120566482D01*
X107847498Y-120686180D01*
X107906463Y-120796494D01*
X107985815Y-120893185D01*
X108082506Y-120972537D01*
X108192820Y-121031502D01*
X108312518Y-121067812D01*
X108437000Y-121080072D01*
X109126250Y-121077000D01*
X109285000Y-120918250D01*
X109285000Y-120269000D01*
X109539000Y-120269000D01*
X109539000Y-120918250D01*
X109697750Y-121077000D01*
X110387000Y-121080072D01*
X110511482Y-121067812D01*
X110631180Y-121031502D01*
X110741494Y-120972537D01*
X110838185Y-120893185D01*
X110917537Y-120796494D01*
X110976502Y-120686180D01*
X111012812Y-120566482D01*
X111025072Y-120442000D01*
X111022000Y-120427750D01*
X110863250Y-120269000D01*
X109539000Y-120269000D01*
X109285000Y-120269000D01*
X107960750Y-120269000D01*
X107802000Y-120427750D01*
X107798928Y-120442000D01*
X105657072Y-120442000D01*
X105657072Y-120260000D01*
X105995250Y-120260000D01*
X106154000Y-120101250D01*
X106156951Y-119849410D01*
X106147114Y-119724713D01*
X106113139Y-119604332D01*
X106056332Y-119492892D01*
X105978875Y-119394675D01*
X105883745Y-119313457D01*
X105774598Y-119252359D01*
X105655629Y-119213728D01*
X105552750Y-119202000D01*
X105414574Y-119340176D01*
X105373494Y-119306463D01*
X105300922Y-119267672D01*
X105235250Y-119202000D01*
X105146533Y-119212114D01*
X105143482Y-119211188D01*
X105019000Y-119198928D01*
X104769000Y-119198928D01*
X104644518Y-119211188D01*
X104641467Y-119212114D01*
X104552750Y-119202000D01*
X104487078Y-119267672D01*
X104414506Y-119306463D01*
X104394000Y-119323292D01*
X104373494Y-119306463D01*
X104300922Y-119267672D01*
X104235250Y-119202000D01*
X104146533Y-119212114D01*
X104143482Y-119211188D01*
X104019000Y-119198928D01*
X103769000Y-119198928D01*
X103644518Y-119211188D01*
X103641467Y-119212114D01*
X103552750Y-119202000D01*
X103487078Y-119267672D01*
X103414506Y-119306463D01*
X103373426Y-119340176D01*
X103235250Y-119202000D01*
X103132371Y-119213728D01*
X103013402Y-119252359D01*
X102904255Y-119313457D01*
X102809125Y-119394675D01*
X102731668Y-119492892D01*
X102674861Y-119604332D01*
X102640886Y-119724713D01*
X102631049Y-119849410D01*
X102634000Y-120101250D01*
X102792750Y-120260000D01*
X103130928Y-120260000D01*
X103130928Y-120514000D01*
X102792750Y-120514000D01*
X102634000Y-120672750D01*
X102631049Y-120924590D01*
X102640886Y-121049287D01*
X102674861Y-121169668D01*
X102731668Y-121281108D01*
X102809125Y-121379325D01*
X102904255Y-121460543D01*
X103013402Y-121521641D01*
X103132371Y-121560272D01*
X103235250Y-121572000D01*
X103373426Y-121433824D01*
X103414506Y-121467537D01*
X103487078Y-121506328D01*
X103552750Y-121572000D01*
X103641467Y-121561886D01*
X103644518Y-121562812D01*
X103769000Y-121575072D01*
X104019000Y-121575072D01*
X104132000Y-121563943D01*
X104132001Y-122075861D01*
X104108291Y-122083053D01*
X103955836Y-122164542D01*
X103822208Y-122274208D01*
X103759000Y-122351227D01*
X103695792Y-122274208D01*
X103562164Y-122164542D01*
X103409709Y-122083053D01*
X103244285Y-122032872D01*
X103072250Y-122015928D01*
X102159750Y-122015928D01*
X101987715Y-122032872D01*
X101822291Y-122083053D01*
X101669836Y-122164542D01*
X101536208Y-122274208D01*
X101426542Y-122407836D01*
X101345053Y-122560291D01*
X101294872Y-122725715D01*
X101277928Y-122897750D01*
X101277928Y-123385250D01*
X101294872Y-123557285D01*
X101345053Y-123722709D01*
X101426542Y-123875164D01*
X101536208Y-124008792D01*
X101621756Y-124079000D01*
X101536208Y-124149208D01*
X101449797Y-124254500D01*
X96693572Y-124254500D01*
X96693572Y-124091000D01*
X96681312Y-123966518D01*
X96645002Y-123846820D01*
X96586037Y-123736506D01*
X96506685Y-123639815D01*
X96409994Y-123560463D01*
X96299680Y-123501498D01*
X96179982Y-123465188D01*
X96055500Y-123452928D01*
X93555500Y-123452928D01*
X93431018Y-123465188D01*
X93311320Y-123501498D01*
X93201006Y-123560463D01*
X93104315Y-123639815D01*
X93056564Y-123698000D01*
X92611946Y-123698000D01*
X90915195Y-122001250D01*
X92978374Y-119938072D01*
X93550000Y-119938072D01*
X93674482Y-119925812D01*
X93794180Y-119889502D01*
X93904494Y-119830537D01*
X94001185Y-119751185D01*
X94080537Y-119654494D01*
X94139502Y-119544180D01*
X94175812Y-119424482D01*
X94188072Y-119300000D01*
X94188072Y-117500000D01*
X94175812Y-117375518D01*
X94139502Y-117255820D01*
X94080537Y-117145506D01*
X94001185Y-117048815D01*
X93904494Y-116969463D01*
X93794180Y-116910498D01*
X93674482Y-116874188D01*
X93550000Y-116861928D01*
X92250000Y-116861928D01*
X92125518Y-116874188D01*
X92005820Y-116910498D01*
X91895506Y-116969463D01*
X91798815Y-117048815D01*
X91719463Y-117145506D01*
X91660498Y-117255820D01*
X91624188Y-117375518D01*
X91611928Y-117500000D01*
X91611928Y-118071626D01*
X89097055Y-120586500D01*
X89083139Y-120586500D01*
X89027000Y-120580971D01*
X88970861Y-120586500D01*
X88961950Y-120586500D01*
X88956508Y-120531245D01*
X88905972Y-120364649D01*
X88823905Y-120211113D01*
X88713462Y-120076538D01*
X88578887Y-119966095D01*
X88425351Y-119884028D01*
X88258755Y-119833492D01*
X88085501Y-119816428D01*
X86335499Y-119816428D01*
X86162245Y-119833492D01*
X85995649Y-119884028D01*
X85842113Y-119966095D01*
X85707538Y-120076538D01*
X85597095Y-120211113D01*
X85515028Y-120364649D01*
X85464492Y-120531245D01*
X85447428Y-120704499D01*
X84963000Y-120704499D01*
X84963000Y-114825999D01*
X85997928Y-114825999D01*
X85997928Y-117076001D01*
X86014992Y-117249255D01*
X86065528Y-117415851D01*
X86147595Y-117569387D01*
X86258038Y-117703962D01*
X86392613Y-117814405D01*
X86546149Y-117896472D01*
X86712745Y-117947008D01*
X86885999Y-117964072D01*
X89136001Y-117964072D01*
X89309255Y-117947008D01*
X89475851Y-117896472D01*
X89629387Y-117814405D01*
X89763962Y-117703962D01*
X89874405Y-117569387D01*
X89956472Y-117415851D01*
X90007008Y-117249255D01*
X90024072Y-117076001D01*
X90024072Y-114825999D01*
X90007008Y-114652745D01*
X89956472Y-114486149D01*
X89874405Y-114332613D01*
X89763962Y-114198038D01*
X89629387Y-114087595D01*
X89475851Y-114005528D01*
X89309255Y-113954992D01*
X89136001Y-113937928D01*
X86885999Y-113937928D01*
X86712745Y-113954992D01*
X86546149Y-114005528D01*
X86392613Y-114087595D01*
X86258038Y-114198038D01*
X86147595Y-114332613D01*
X86065528Y-114486149D01*
X86014992Y-114652745D01*
X85997928Y-114825999D01*
X84963000Y-114825999D01*
X84963000Y-114160235D01*
X86395736Y-112727500D01*
X91873000Y-112727500D01*
X91873000Y-113600000D01*
X91875440Y-113624776D01*
X91882667Y-113648601D01*
X91894403Y-113670557D01*
X91910197Y-113689803D01*
X91923105Y-113700396D01*
X91904528Y-113735150D01*
X91853992Y-113901746D01*
X91836928Y-114075000D01*
X91836928Y-115675000D01*
X91853992Y-115848254D01*
X91904528Y-116014850D01*
X91986595Y-116168386D01*
X92097038Y-116302962D01*
X92231614Y-116413405D01*
X92385150Y-116495472D01*
X92551746Y-116546008D01*
X92725000Y-116563072D01*
X94757001Y-116563072D01*
X94757000Y-117099766D01*
X94719463Y-117145506D01*
X94660498Y-117255820D01*
X94624188Y-117375518D01*
X94611928Y-117500000D01*
X94611928Y-119300000D01*
X94624188Y-119424482D01*
X94660498Y-119544180D01*
X94719463Y-119654494D01*
X94798815Y-119751185D01*
X94895506Y-119830537D01*
X95005820Y-119889502D01*
X95125518Y-119925812D01*
X95250000Y-119938072D01*
X96550000Y-119938072D01*
X96674482Y-119925812D01*
X96794180Y-119889502D01*
X96904494Y-119830537D01*
X97001185Y-119751185D01*
X97080537Y-119654494D01*
X97139502Y-119544180D01*
X97175812Y-119424482D01*
X97188072Y-119300000D01*
X97188072Y-118900000D01*
X99626928Y-118900000D01*
X99639188Y-119024482D01*
X99675498Y-119144180D01*
X99734463Y-119254494D01*
X99813815Y-119351185D01*
X99910506Y-119430537D01*
X100020820Y-119489502D01*
X100140518Y-119525812D01*
X100265000Y-119538072D01*
X100679250Y-119535000D01*
X100838000Y-119376250D01*
X100838000Y-118539500D01*
X101092000Y-118539500D01*
X101092000Y-119376250D01*
X101250750Y-119535000D01*
X101665000Y-119538072D01*
X101789482Y-119525812D01*
X101909180Y-119489502D01*
X102019494Y-119430537D01*
X102116185Y-119351185D01*
X102195537Y-119254494D01*
X102254502Y-119144180D01*
X102290812Y-119024482D01*
X102303072Y-118900000D01*
X102300000Y-118698250D01*
X102141250Y-118539500D01*
X101092000Y-118539500D01*
X100838000Y-118539500D01*
X99788750Y-118539500D01*
X99630000Y-118698250D01*
X99626928Y-118900000D01*
X97188072Y-118900000D01*
X97188072Y-117500000D01*
X97175812Y-117375518D01*
X97139502Y-117255820D01*
X97080537Y-117145506D01*
X97043000Y-117099767D01*
X97043000Y-116563072D01*
X97675000Y-116563072D01*
X97848254Y-116546008D01*
X98014850Y-116495472D01*
X98168386Y-116413405D01*
X98302962Y-116302962D01*
X98413405Y-116168386D01*
X98495472Y-116014850D01*
X98546008Y-115848254D01*
X98563072Y-115675000D01*
X98563072Y-114075000D01*
X98546008Y-113901746D01*
X98495472Y-113735150D01*
X98476895Y-113700396D01*
X98489803Y-113689803D01*
X98505597Y-113670557D01*
X98517333Y-113648601D01*
X98524560Y-113624776D01*
X98527000Y-113600000D01*
X98527000Y-112727500D01*
X98730761Y-112727500D01*
X98691864Y-112855726D01*
X98674700Y-113030000D01*
X98679001Y-113073670D01*
X98679000Y-115096840D01*
X98674700Y-115140500D01*
X98679000Y-115184160D01*
X98679000Y-115184166D01*
X98681372Y-115208248D01*
X98691864Y-115314774D01*
X98702833Y-115350933D01*
X98742697Y-115482350D01*
X98825247Y-115636790D01*
X98936341Y-115772159D01*
X98970264Y-115799999D01*
X99626928Y-116456663D01*
X99626928Y-116781250D01*
X99643872Y-116953285D01*
X99694053Y-117118709D01*
X99775542Y-117271164D01*
X99885208Y-117404792D01*
X99891564Y-117410008D01*
X99813815Y-117473815D01*
X99734463Y-117570506D01*
X99675498Y-117680820D01*
X99639188Y-117800518D01*
X99626928Y-117925000D01*
X99630000Y-118126750D01*
X99788750Y-118285500D01*
X100838000Y-118285500D01*
X100838000Y-118265500D01*
X101092000Y-118265500D01*
X101092000Y-118285500D01*
X102141250Y-118285500D01*
X102300000Y-118126750D01*
X102303072Y-117925000D01*
X102290812Y-117800518D01*
X102254502Y-117680820D01*
X102195537Y-117570506D01*
X102116185Y-117473815D01*
X102038436Y-117410008D01*
X102044792Y-117404792D01*
X102154458Y-117271164D01*
X102235947Y-117118709D01*
X102286128Y-116953285D01*
X102303072Y-116781250D01*
X102303072Y-116293750D01*
X102286128Y-116121715D01*
X102235947Y-115956291D01*
X102154458Y-115803836D01*
X102044792Y-115670208D01*
X101911164Y-115560542D01*
X101758709Y-115479053D01*
X101593285Y-115428872D01*
X101421250Y-115411928D01*
X101096663Y-115411928D01*
X100457000Y-114772265D01*
X100457000Y-113398235D01*
X100704440Y-113150796D01*
X100659872Y-113297715D01*
X100642928Y-113469750D01*
X100642928Y-113957250D01*
X100659872Y-114129285D01*
X100710053Y-114294709D01*
X100791542Y-114447164D01*
X100901208Y-114580792D01*
X101034836Y-114690458D01*
X101187291Y-114771947D01*
X101352715Y-114822128D01*
X101524750Y-114839072D01*
X102028942Y-114839072D01*
X102632001Y-115442131D01*
X102632001Y-115526110D01*
X102630928Y-115537000D01*
X102630928Y-116637000D01*
X102632001Y-116647890D01*
X102632000Y-117326576D01*
X102628314Y-117364000D01*
X102632000Y-117401423D01*
X102632000Y-117401425D01*
X102643026Y-117513377D01*
X102686598Y-117657014D01*
X102711692Y-117703962D01*
X102757355Y-117789392D01*
X102785698Y-117823928D01*
X102852578Y-117905422D01*
X102881653Y-117929284D01*
X103574720Y-118622351D01*
X103598578Y-118651422D01*
X103714608Y-118746645D01*
X103846985Y-118817402D01*
X103990622Y-118860974D01*
X104102574Y-118872000D01*
X104102576Y-118872000D01*
X104139999Y-118875686D01*
X104177422Y-118872000D01*
X107062870Y-118872000D01*
X107575220Y-119384351D01*
X107599078Y-119413422D01*
X107628148Y-119437279D01*
X107715107Y-119508645D01*
X107770162Y-119538072D01*
X107847485Y-119579402D01*
X107855967Y-119581975D01*
X107847498Y-119597820D01*
X107811188Y-119717518D01*
X107798928Y-119842000D01*
X107802000Y-119856250D01*
X107960750Y-120015000D01*
X109285000Y-120015000D01*
X109285000Y-119995000D01*
X109539000Y-119995000D01*
X109539000Y-120015000D01*
X110863250Y-120015000D01*
X111022000Y-119856250D01*
X111025072Y-119842000D01*
X111012812Y-119717518D01*
X110976502Y-119597820D01*
X110917537Y-119487506D01*
X110893270Y-119457936D01*
X110965084Y-119323582D01*
X111009929Y-119175745D01*
X111025072Y-119022000D01*
X111025072Y-118722000D01*
X111009929Y-118568255D01*
X110965084Y-118420418D01*
X110892258Y-118284171D01*
X110853546Y-118237000D01*
X110892258Y-118189829D01*
X110965084Y-118053582D01*
X111009929Y-117905745D01*
X111025072Y-117752000D01*
X111025072Y-117452000D01*
X111009929Y-117298255D01*
X110965084Y-117150418D01*
X110892258Y-117014171D01*
X110853546Y-116967000D01*
X110892258Y-116919829D01*
X110965084Y-116783582D01*
X111009929Y-116635745D01*
X111025072Y-116482000D01*
X111025072Y-116182000D01*
X111009929Y-116028255D01*
X110965084Y-115880418D01*
X110892258Y-115744171D01*
X110794251Y-115624749D01*
X110750094Y-115588510D01*
X112294304Y-115588510D01*
X112297990Y-115625933D01*
X112297991Y-119777557D01*
X112294304Y-119814990D01*
X112309017Y-119964368D01*
X112352589Y-120108005D01*
X112423345Y-120240382D01*
X112482121Y-120312000D01*
X112518569Y-120356412D01*
X112547639Y-120380269D01*
X112821716Y-120654346D01*
X112845578Y-120683422D01*
X112865813Y-120700029D01*
X112881742Y-120729829D01*
X112979749Y-120849251D01*
X113099171Y-120947258D01*
X113235418Y-121020084D01*
X113383255Y-121064929D01*
X113537000Y-121080072D01*
X115187000Y-121080072D01*
X115340745Y-121064929D01*
X115488582Y-121020084D01*
X115624829Y-120947258D01*
X115677539Y-120904000D01*
X120983897Y-120904000D01*
X120984394Y-120904606D01*
X121111392Y-121008831D01*
X121256284Y-121086278D01*
X121413500Y-121133969D01*
X121577000Y-121150072D01*
X122477000Y-121150072D01*
X122640500Y-121133969D01*
X122797716Y-121086278D01*
X122942608Y-121008831D01*
X123069606Y-120904606D01*
X123173831Y-120777608D01*
X123251278Y-120632716D01*
X123298969Y-120475500D01*
X123315072Y-120312000D01*
X123315072Y-119912000D01*
X123298969Y-119748500D01*
X123251278Y-119591284D01*
X123195537Y-119487000D01*
X123251278Y-119382716D01*
X123298969Y-119225500D01*
X123315072Y-119062000D01*
X123315072Y-118662000D01*
X123298969Y-118498500D01*
X123251278Y-118341284D01*
X123195537Y-118237000D01*
X123251278Y-118132716D01*
X123298969Y-117975500D01*
X123315072Y-117812000D01*
X123315072Y-117412000D01*
X123298969Y-117248500D01*
X123251278Y-117091284D01*
X123195537Y-116987000D01*
X123251278Y-116882716D01*
X123298969Y-116725500D01*
X123315072Y-116562000D01*
X123315072Y-116162000D01*
X123298969Y-115998500D01*
X123251278Y-115841284D01*
X123173831Y-115696392D01*
X123069606Y-115569394D01*
X122942608Y-115465169D01*
X122797716Y-115387722D01*
X122640500Y-115340031D01*
X122477000Y-115323928D01*
X121577000Y-115323928D01*
X121413500Y-115340031D01*
X121256284Y-115387722D01*
X121111392Y-115465169D01*
X120984394Y-115569394D01*
X120959276Y-115600000D01*
X116171630Y-115600000D01*
X116347356Y-115424274D01*
X116376432Y-115400412D01*
X116446919Y-115314523D01*
X116471655Y-115284383D01*
X116525221Y-115184167D01*
X116542412Y-115152005D01*
X116585984Y-115008368D01*
X116597010Y-114896416D01*
X116597010Y-114896413D01*
X116600696Y-114858990D01*
X116597010Y-114821567D01*
X116597010Y-113029932D01*
X116598776Y-113012000D01*
X117138928Y-113012000D01*
X117138928Y-114612000D01*
X117155992Y-114785254D01*
X117206528Y-114951850D01*
X117288595Y-115105386D01*
X117399038Y-115239962D01*
X117533614Y-115350405D01*
X117687150Y-115432472D01*
X117853746Y-115483008D01*
X118027000Y-115500072D01*
X120527000Y-115500072D01*
X120700254Y-115483008D01*
X120866850Y-115432472D01*
X121020386Y-115350405D01*
X121154962Y-115239962D01*
X121265405Y-115105386D01*
X121347472Y-114951850D01*
X121398008Y-114785254D01*
X121415072Y-114612000D01*
X121415072Y-113012000D01*
X121398008Y-112838746D01*
X121347472Y-112672150D01*
X121265405Y-112518614D01*
X121154962Y-112384038D01*
X121020386Y-112273595D01*
X120866850Y-112191528D01*
X120700254Y-112140992D01*
X120527000Y-112123928D01*
X118027000Y-112123928D01*
X117853746Y-112140992D01*
X117687150Y-112191528D01*
X117533614Y-112273595D01*
X117399038Y-112384038D01*
X117288595Y-112518614D01*
X117206528Y-112672150D01*
X117155992Y-112838746D01*
X117138928Y-113012000D01*
X116598776Y-113012000D01*
X116600696Y-112992509D01*
X116593147Y-112915864D01*
X116585984Y-112843132D01*
X116542412Y-112699495D01*
X116471655Y-112567118D01*
X116376432Y-112451088D01*
X116347363Y-112427232D01*
X116144575Y-112224445D01*
X116146072Y-112209250D01*
X116146072Y-111721750D01*
X116129128Y-111549715D01*
X116078947Y-111384291D01*
X115997458Y-111231836D01*
X115887792Y-111098208D01*
X115754164Y-110988542D01*
X115601709Y-110907053D01*
X115436285Y-110856872D01*
X115264250Y-110839928D01*
X114351750Y-110839928D01*
X114179715Y-110856872D01*
X114014291Y-110907053D01*
X113861836Y-110988542D01*
X113728208Y-111098208D01*
X113618542Y-111231836D01*
X113537053Y-111384291D01*
X113486872Y-111549715D01*
X113469928Y-111721750D01*
X113469928Y-112209250D01*
X113486872Y-112381285D01*
X113537053Y-112546709D01*
X113618542Y-112699164D01*
X113728208Y-112832792D01*
X113813756Y-112903000D01*
X113728208Y-112973208D01*
X113618542Y-113106836D01*
X113537053Y-113259291D01*
X113486872Y-113424715D01*
X113469928Y-113596750D01*
X113469928Y-114084250D01*
X113471425Y-114099445D01*
X112547644Y-115023226D01*
X112518568Y-115047088D01*
X112470725Y-115105386D01*
X112423345Y-115163118D01*
X112399223Y-115208248D01*
X112352588Y-115295496D01*
X112309016Y-115439133D01*
X112297990Y-115551084D01*
X112294304Y-115588510D01*
X110750094Y-115588510D01*
X110674829Y-115526742D01*
X110538582Y-115453916D01*
X110390745Y-115409071D01*
X110237000Y-115393928D01*
X109731164Y-115393928D01*
X109220002Y-114882767D01*
X109220002Y-114725752D01*
X109378750Y-114884500D01*
X109793000Y-114887572D01*
X109917482Y-114875312D01*
X110037180Y-114839002D01*
X110147494Y-114780037D01*
X110244185Y-114700685D01*
X110323537Y-114603994D01*
X110382502Y-114493680D01*
X110418812Y-114373982D01*
X110431072Y-114249500D01*
X110428000Y-114047750D01*
X110269250Y-113889000D01*
X109220000Y-113889000D01*
X109220000Y-113909000D01*
X108966000Y-113909000D01*
X108966000Y-113889000D01*
X108946000Y-113889000D01*
X108946000Y-113635000D01*
X108966000Y-113635000D01*
X108966000Y-113615000D01*
X109220000Y-113615000D01*
X109220000Y-113635000D01*
X110269250Y-113635000D01*
X110428000Y-113476250D01*
X110431072Y-113274500D01*
X110418812Y-113150018D01*
X110382502Y-113030320D01*
X110323537Y-112920006D01*
X110244185Y-112823315D01*
X110166436Y-112759508D01*
X110172792Y-112754292D01*
X110282458Y-112620664D01*
X110363947Y-112468209D01*
X110414128Y-112302785D01*
X110431072Y-112130750D01*
X110431072Y-111643250D01*
X110414128Y-111471215D01*
X110363947Y-111305791D01*
X110282458Y-111153336D01*
X110172792Y-111019708D01*
X110039164Y-110910042D01*
X109886709Y-110828553D01*
X109721285Y-110778372D01*
X109549250Y-110761428D01*
X108636750Y-110761428D01*
X108464715Y-110778372D01*
X108299291Y-110828553D01*
X108146836Y-110910042D01*
X108098756Y-110949500D01*
X106463341Y-110949500D01*
X106356164Y-110861542D01*
X106203709Y-110780053D01*
X106038285Y-110729872D01*
X105866250Y-110712928D01*
X104953750Y-110712928D01*
X104781715Y-110729872D01*
X104616291Y-110780053D01*
X104463836Y-110861542D01*
X104356659Y-110949500D01*
X103034341Y-110949500D01*
X102927164Y-110861542D01*
X102870000Y-110830987D01*
X102870000Y-97787235D01*
X106296236Y-94361000D01*
X117544081Y-94361000D01*
X117533614Y-94366595D01*
G37*
X117533614Y-94366595D02*
X117399038Y-94477038D01*
X117288595Y-94611614D01*
X117206528Y-94765150D01*
X117155992Y-94931746D01*
X117138928Y-95105000D01*
X117138928Y-96705000D01*
X117155992Y-96878254D01*
X117206528Y-97044850D01*
X117288595Y-97198386D01*
X117399038Y-97332962D01*
X117533614Y-97443405D01*
X117687150Y-97525472D01*
X117853746Y-97576008D01*
X118027000Y-97593072D01*
X120527000Y-97593072D01*
X120700254Y-97576008D01*
X120866850Y-97525472D01*
X121020386Y-97443405D01*
X121154962Y-97332962D01*
X121265405Y-97198386D01*
X121347472Y-97044850D01*
X121398008Y-96878254D01*
X121415072Y-96705000D01*
X121415072Y-95105000D01*
X121398008Y-94931746D01*
X121347472Y-94765150D01*
X121265405Y-94611614D01*
X121154962Y-94477038D01*
X121020386Y-94366595D01*
X121009919Y-94361000D01*
X122682000Y-94361000D01*
X122682001Y-96542763D01*
X121807837Y-97416928D01*
X121577000Y-97416928D01*
X121413500Y-97433031D01*
X121256284Y-97480722D01*
X121111392Y-97558169D01*
X120984394Y-97662394D01*
X120880169Y-97789392D01*
X120802722Y-97934284D01*
X120755031Y-98091500D01*
X120738928Y-98255000D01*
X120738928Y-98655000D01*
X120755031Y-98818500D01*
X120792798Y-98943000D01*
X115244099Y-98943000D01*
X115231447Y-98901291D01*
X115149958Y-98748836D01*
X115040292Y-98615208D01*
X114906664Y-98505542D01*
X114754209Y-98424053D01*
X114588785Y-98373872D01*
X114416750Y-98356928D01*
X113929250Y-98356928D01*
X113757215Y-98373872D01*
X113591791Y-98424053D01*
X113439336Y-98505542D01*
X113305708Y-98615208D01*
X113300492Y-98621564D01*
X113236685Y-98543815D01*
X113139994Y-98464463D01*
X113029680Y-98405498D01*
X112909982Y-98369188D01*
X112785500Y-98356928D01*
X112583750Y-98360000D01*
X112425000Y-98518750D01*
X112425000Y-99568000D01*
X112445000Y-99568000D01*
X112445000Y-99822000D01*
X112425000Y-99822000D01*
X112425000Y-99842000D01*
X112171000Y-99842000D01*
X112171000Y-99822000D01*
X111334250Y-99822000D01*
X111203500Y-99952750D01*
X111072750Y-99822000D01*
X110236000Y-99822000D01*
X110236000Y-99842000D01*
X109982000Y-99842000D01*
X109982000Y-99822000D01*
X109962000Y-99822000D01*
X109962000Y-99568000D01*
X109982000Y-99568000D01*
X109982000Y-98518750D01*
X110236000Y-98518750D01*
X110236000Y-99568000D01*
X111072750Y-99568000D01*
X111203500Y-99437250D01*
X111334250Y-99568000D01*
X112171000Y-99568000D01*
X112171000Y-98518750D01*
X112012250Y-98360000D01*
X111810500Y-98356928D01*
X111686018Y-98369188D01*
X111566320Y-98405498D01*
X111456006Y-98464463D01*
X111359315Y-98543815D01*
X111279963Y-98640506D01*
X111220998Y-98750820D01*
X111203500Y-98808503D01*
X111186002Y-98750820D01*
X111127037Y-98640506D01*
X111047685Y-98543815D01*
X110950994Y-98464463D01*
X110840680Y-98405498D01*
X110720982Y-98369188D01*
X110596500Y-98356928D01*
X110394750Y-98360000D01*
X110236000Y-98518750D01*
X109982000Y-98518750D01*
X109823250Y-98360000D01*
X109621500Y-98356928D01*
X109497018Y-98369188D01*
X109377320Y-98405498D01*
X109267006Y-98464463D01*
X109170315Y-98543815D01*
X109106508Y-98621564D01*
X109101292Y-98615208D01*
X108967664Y-98505542D01*
X108815209Y-98424053D01*
X108649785Y-98373872D01*
X108477750Y-98356928D01*
X107990250Y-98356928D01*
X107818215Y-98373872D01*
X107652791Y-98424053D01*
X107500336Y-98505542D01*
X107366708Y-98615208D01*
X107257042Y-98748836D01*
X107175553Y-98901291D01*
X107125372Y-99066715D01*
X107108428Y-99238750D01*
X107108428Y-100151250D01*
X107125372Y-100323285D01*
X107175553Y-100488709D01*
X107257042Y-100641164D01*
X107366708Y-100774792D01*
X107500336Y-100884458D01*
X107556469Y-100914462D01*
X107548836Y-100918542D01*
X107415208Y-101028208D01*
X107305542Y-101161836D01*
X107224053Y-101314291D01*
X107214434Y-101346000D01*
X106948072Y-101346000D01*
X106948072Y-101011000D01*
X106935812Y-100886518D01*
X106899502Y-100766820D01*
X106869789Y-100711233D01*
X106892507Y-100671426D01*
X106932121Y-100552780D01*
X106945000Y-100442750D01*
X106786250Y-100284000D01*
X106182000Y-100284000D01*
X106182000Y-100358000D01*
X105928000Y-100358000D01*
X105928000Y-100284000D01*
X105908000Y-100284000D01*
X105908000Y-100138000D01*
X105928000Y-100138000D01*
X105928000Y-99534750D01*
X106182000Y-99534750D01*
X106182000Y-100138000D01*
X106786250Y-100138000D01*
X106945000Y-99979250D01*
X106932121Y-99869220D01*
X106892507Y-99750574D01*
X106830508Y-99641937D01*
X106748505Y-99547482D01*
X106649652Y-99470840D01*
X106537746Y-99414957D01*
X106417087Y-99381978D01*
X106340750Y-99376000D01*
X106182000Y-99534750D01*
X105928000Y-99534750D01*
X105769250Y-99376000D01*
X105709853Y-99380651D01*
X105770226Y-99234898D01*
X105810000Y-99034939D01*
X105810000Y-98831061D01*
X105770226Y-98631102D01*
X105692205Y-98442744D01*
X105578937Y-98273226D01*
X105434774Y-98129063D01*
X105265256Y-98015795D01*
X105076898Y-97937774D01*
X104876939Y-97898000D01*
X104673061Y-97898000D01*
X104473102Y-97937774D01*
X104284744Y-98015795D01*
X104115226Y-98129063D01*
X103971063Y-98273226D01*
X103857795Y-98442744D01*
X103779774Y-98631102D01*
X103740000Y-98831061D01*
X103740000Y-99034939D01*
X103779774Y-99234898D01*
X103857795Y-99423256D01*
X103886000Y-99465468D01*
X103886001Y-100380542D01*
X103884188Y-100386518D01*
X103871928Y-100511000D01*
X103871928Y-100708685D01*
X103871700Y-100711000D01*
X103871928Y-100713315D01*
X103871928Y-100911000D01*
X103884188Y-101035482D01*
X103920498Y-101155180D01*
X103979463Y-101265494D01*
X104058815Y-101362185D01*
X104155506Y-101441537D01*
X104265820Y-101500502D01*
X104385518Y-101536812D01*
X104443729Y-101542545D01*
X104590726Y-101587136D01*
X104765000Y-101604300D01*
X104939274Y-101587136D01*
X105086271Y-101542545D01*
X105144482Y-101536812D01*
X105173453Y-101528024D01*
X105174188Y-101535482D01*
X105210498Y-101655180D01*
X105269463Y-101765494D01*
X105293000Y-101794174D01*
X105293000Y-101826577D01*
X105289314Y-101864000D01*
X105293000Y-101901423D01*
X105293000Y-101901425D01*
X105304026Y-102013377D01*
X105347598Y-102157014D01*
X105347599Y-102157015D01*
X105418355Y-102289392D01*
X105442062Y-102318279D01*
X105513578Y-102405422D01*
X105542654Y-102429284D01*
X105733716Y-102620346D01*
X105757578Y-102649422D01*
X105873608Y-102744645D01*
X106005985Y-102815402D01*
X106149622Y-102858974D01*
X106261574Y-102870000D01*
X106261576Y-102870000D01*
X106298999Y-102873686D01*
X106336422Y-102870000D01*
X107214434Y-102870000D01*
X107224053Y-102901709D01*
X107305542Y-103054164D01*
X107415208Y-103187792D01*
X107548836Y-103297458D01*
X107701291Y-103378947D01*
X107866715Y-103429128D01*
X107992330Y-103441500D01*
X107866715Y-103453872D01*
X107701291Y-103504053D01*
X107548836Y-103585542D01*
X107415208Y-103695208D01*
X107305542Y-103828836D01*
X107302878Y-103833821D01*
X107172398Y-103779774D01*
X106972439Y-103740000D01*
X106768561Y-103740000D01*
X106568602Y-103779774D01*
X106380244Y-103857795D01*
X106210726Y-103971063D01*
X106066563Y-104115226D01*
X105953295Y-104284744D01*
X105875274Y-104473102D01*
X105835500Y-104673061D01*
X105835500Y-104876939D01*
X105875274Y-105076898D01*
X105953295Y-105265256D01*
X106066563Y-105434774D01*
X106210726Y-105578937D01*
X106380244Y-105692205D01*
X106568602Y-105770226D01*
X106768561Y-105810000D01*
X106972439Y-105810000D01*
X107172398Y-105770226D01*
X107302878Y-105716179D01*
X107305542Y-105721164D01*
X107415208Y-105854792D01*
X107548836Y-105964458D01*
X107701291Y-106045947D01*
X107866715Y-106096128D01*
X108038750Y-106113072D01*
X108526250Y-106113072D01*
X108698285Y-106096128D01*
X108863709Y-106045947D01*
X109016164Y-105964458D01*
X109149792Y-105854792D01*
X109220000Y-105769244D01*
X109290208Y-105854792D01*
X109423836Y-105964458D01*
X109576291Y-106045947D01*
X109741715Y-106096128D01*
X109913750Y-106113072D01*
X110401250Y-106113072D01*
X110573285Y-106096128D01*
X110738709Y-106045947D01*
X110891164Y-105964458D01*
X111024792Y-105854792D01*
X111134458Y-105721164D01*
X111215947Y-105568709D01*
X111225566Y-105537000D01*
X114199077Y-105537000D01*
X114236500Y-105540686D01*
X114273923Y-105537000D01*
X114273926Y-105537000D01*
X114385878Y-105525974D01*
X114529515Y-105482402D01*
X114661892Y-105411645D01*
X114777922Y-105316422D01*
X114801784Y-105287346D01*
X116134130Y-103955000D01*
X117138928Y-103955000D01*
X117138928Y-105555000D01*
X117155992Y-105728254D01*
X117206528Y-105894850D01*
X117288595Y-106048386D01*
X117399038Y-106182962D01*
X117533614Y-106293405D01*
X117687150Y-106375472D01*
X117853746Y-106426008D01*
X118027000Y-106443072D01*
X120527000Y-106443072D01*
X120700254Y-106426008D01*
X120866850Y-106375472D01*
X121020386Y-106293405D01*
X121154962Y-106182962D01*
X121265405Y-106048386D01*
X121347472Y-105894850D01*
X121398008Y-105728254D01*
X121415072Y-105555000D01*
X121415072Y-103955000D01*
X121398008Y-103781746D01*
X121347472Y-103615150D01*
X121265405Y-103461614D01*
X121154962Y-103327038D01*
X121020386Y-103216595D01*
X120866850Y-103134528D01*
X120700254Y-103083992D01*
X120527000Y-103066928D01*
X118027000Y-103066928D01*
X117853746Y-103083992D01*
X117687150Y-103134528D01*
X117533614Y-103216595D01*
X117399038Y-103327038D01*
X117288595Y-103461614D01*
X117206528Y-103615150D01*
X117155992Y-103781746D01*
X117138928Y-103955000D01*
X116134130Y-103955000D01*
X117484130Y-102605000D01*
X120738928Y-102605000D01*
X120751188Y-102729482D01*
X120787498Y-102849180D01*
X120846463Y-102959494D01*
X120925815Y-103056185D01*
X121022506Y-103135537D01*
X121132820Y-103194502D01*
X121252518Y-103230812D01*
X121377000Y-103243072D01*
X121741250Y-103240000D01*
X121900000Y-103081250D01*
X121900000Y-102332000D01*
X122154000Y-102332000D01*
X122154000Y-103081250D01*
X122312750Y-103240000D01*
X122677000Y-103243072D01*
X122801482Y-103230812D01*
X122921180Y-103194502D01*
X123031494Y-103135537D01*
X123128185Y-103056185D01*
X123207537Y-102959494D01*
X123266502Y-102849180D01*
X123302812Y-102729482D01*
X123315072Y-102605000D01*
X123312000Y-102490750D01*
X123153250Y-102332000D01*
X122154000Y-102332000D01*
X121900000Y-102332000D01*
X120900750Y-102332000D01*
X120742000Y-102490750D01*
X120738928Y-102605000D01*
X117484130Y-102605000D01*
X118372131Y-101717000D01*
X120747595Y-101717000D01*
X120738928Y-101805000D01*
X120742000Y-101919250D01*
X120900750Y-102078000D01*
X121900000Y-102078000D01*
X121900000Y-102058000D01*
X122154000Y-102058000D01*
X122154000Y-102078000D01*
X123153250Y-102078000D01*
X123312000Y-101919250D01*
X123315072Y-101805000D01*
X123302812Y-101680518D01*
X123266502Y-101560820D01*
X123236145Y-101504027D01*
X123251278Y-101475716D01*
X123298969Y-101318500D01*
X123315072Y-101155000D01*
X123315072Y-100755000D01*
X123298969Y-100591500D01*
X123251278Y-100434284D01*
X123195537Y-100330000D01*
X123251278Y-100225716D01*
X123298969Y-100068500D01*
X123315072Y-99905000D01*
X123315072Y-99505000D01*
X123298969Y-99341500D01*
X123251278Y-99184284D01*
X123232503Y-99149159D01*
X123308659Y-99086659D01*
X123419753Y-98951291D01*
X123502303Y-98796851D01*
X123553136Y-98629274D01*
X123570301Y-98455000D01*
X123553136Y-98280726D01*
X123531113Y-98208123D01*
X123698000Y-98041236D01*
X123698000Y-128933541D01*
X123687623Y-128881372D01*
X123398533Y-128183446D01*
X122978839Y-127555330D01*
X122444670Y-127021161D01*
X121816554Y-126601467D01*
X121118628Y-126312377D01*
X120377715Y-126165000D01*
X119622285Y-126165000D01*
X118881372Y-126312377D01*
X118183446Y-126601467D01*
X117555330Y-127021161D01*
X117021161Y-127555330D01*
X116601467Y-128183446D01*
X116312377Y-128881372D01*
X116165000Y-129622285D01*
X116165000Y-130377715D01*
X116312377Y-131118628D01*
X116601467Y-131816554D01*
X117021161Y-132444670D01*
X117555330Y-132978839D01*
X118110811Y-133350000D01*
X76889189Y-133350000D01*
X77444670Y-132978839D01*
X77978839Y-132444670D01*
X78398533Y-131816554D01*
X78687623Y-131118628D01*
X78731309Y-130899000D01*
X84292928Y-130899000D01*
X84305188Y-131023482D01*
X84341498Y-131143180D01*
X84400463Y-131253494D01*
X84479815Y-131350185D01*
X84576506Y-131429537D01*
X84686820Y-131488502D01*
X84806518Y-131524812D01*
X84931000Y-131537072D01*
X85820250Y-131534000D01*
X85979000Y-131375250D01*
X85979000Y-130276000D01*
X86233000Y-130276000D01*
X86233000Y-131375250D01*
X86391750Y-131534000D01*
X87281000Y-131537072D01*
X87405482Y-131524812D01*
X87525180Y-131488502D01*
X87635494Y-131429537D01*
X87732185Y-131350185D01*
X87811537Y-131253494D01*
X87870502Y-131143180D01*
X87906812Y-131023482D01*
X87919072Y-130899000D01*
X87916000Y-130434750D01*
X87757250Y-130276000D01*
X86233000Y-130276000D01*
X85979000Y-130276000D01*
X84454750Y-130276000D01*
X84296000Y-130434750D01*
X84292928Y-130899000D01*
X78731309Y-130899000D01*
X78835000Y-130377715D01*
X78835000Y-129622285D01*
X78790586Y-129399000D01*
X84292928Y-129399000D01*
X84296000Y-129863250D01*
X84454750Y-130022000D01*
X85979000Y-130022000D01*
X85979000Y-128922750D01*
X86233000Y-128922750D01*
X86233000Y-130022000D01*
X87757250Y-130022000D01*
X87916000Y-129863250D01*
X87919072Y-129399000D01*
X87906812Y-129274518D01*
X87870502Y-129154820D01*
X87811537Y-129044506D01*
X87732185Y-128947815D01*
X87635494Y-128868463D01*
X87525180Y-128809498D01*
X87405482Y-128773188D01*
X87281000Y-128760928D01*
X86391750Y-128764000D01*
X86233000Y-128922750D01*
X85979000Y-128922750D01*
X85820250Y-128764000D01*
X84931000Y-128760928D01*
X84806518Y-128773188D01*
X84686820Y-128809498D01*
X84576506Y-128868463D01*
X84479815Y-128947815D01*
X84400463Y-129044506D01*
X84341498Y-129154820D01*
X84305188Y-129274518D01*
X84292928Y-129399000D01*
X78790586Y-129399000D01*
X78687623Y-128881372D01*
X78398533Y-128183446D01*
X77978839Y-127555330D01*
X77444670Y-127021161D01*
X76816554Y-126601467D01*
X76118628Y-126312377D01*
X75377715Y-126165000D01*
X74622285Y-126165000D01*
X73881372Y-126312377D01*
X73183446Y-126601467D01*
X72555330Y-127021161D01*
X72021161Y-127555330D01*
X71628000Y-128143737D01*
X71628000Y-122800000D01*
X72561928Y-122800000D01*
X72561928Y-124000000D01*
X72578992Y-124173254D01*
X72629528Y-124339850D01*
X72711595Y-124493386D01*
X72822038Y-124627962D01*
X72956614Y-124738405D01*
X73110150Y-124820472D01*
X73276746Y-124871008D01*
X73450000Y-124888072D01*
X74950000Y-124888072D01*
X74965000Y-124886595D01*
X74965000Y-125121637D01*
X75012460Y-125360236D01*
X75105557Y-125584992D01*
X75240713Y-125787267D01*
X75412733Y-125959287D01*
X75615008Y-126094443D01*
X75839764Y-126187540D01*
X76078363Y-126235000D01*
X76321637Y-126235000D01*
X76560236Y-126187540D01*
X76784992Y-126094443D01*
X76987267Y-125959287D01*
X77159287Y-125787267D01*
X77294443Y-125584992D01*
X77387540Y-125360236D01*
X77435000Y-125121637D01*
X77435000Y-124878363D01*
X77387540Y-124639764D01*
X77294443Y-124415008D01*
X77159287Y-124212733D01*
X76987267Y-124040713D01*
X76784992Y-123905557D01*
X76560236Y-123812460D01*
X76321637Y-123765000D01*
X76078363Y-123765000D01*
X75839764Y-123812460D01*
X75838072Y-123813161D01*
X75838072Y-123004500D01*
X79047428Y-123004500D01*
X79059688Y-123128982D01*
X79095998Y-123248680D01*
X79154963Y-123358994D01*
X79234315Y-123455685D01*
X79331006Y-123535037D01*
X79441320Y-123594002D01*
X79561018Y-123630312D01*
X79685500Y-123642572D01*
X80524750Y-123639500D01*
X80683500Y-123480750D01*
X80683500Y-121856500D01*
X80937500Y-121856500D01*
X80937500Y-123480750D01*
X81096250Y-123639500D01*
X81935500Y-123642572D01*
X82059982Y-123630312D01*
X82179680Y-123594002D01*
X82289994Y-123535037D01*
X82386685Y-123455685D01*
X82466037Y-123358994D01*
X82525002Y-123248680D01*
X82561312Y-123128982D01*
X82573572Y-123004500D01*
X82570500Y-122015250D01*
X82411750Y-121856500D01*
X80937500Y-121856500D01*
X80683500Y-121856500D01*
X79209250Y-121856500D01*
X79050500Y-122015250D01*
X79047428Y-123004500D01*
X75838072Y-123004500D01*
X75838072Y-122800000D01*
X75821008Y-122626746D01*
X75770472Y-122460150D01*
X75688405Y-122306614D01*
X75577962Y-122172038D01*
X75443386Y-122061595D01*
X75341407Y-122007086D01*
X75341795Y-122006802D01*
X75538664Y-121792046D01*
X75689854Y-121543009D01*
X75789554Y-121269261D01*
X75791476Y-121256890D01*
X75670155Y-121027000D01*
X74327000Y-121027000D01*
X74327000Y-121047000D01*
X74073000Y-121047000D01*
X74073000Y-121027000D01*
X72729845Y-121027000D01*
X72608524Y-121256890D01*
X72610446Y-121269261D01*
X72710146Y-121543009D01*
X72861336Y-121792046D01*
X73058205Y-122006802D01*
X73058593Y-122007086D01*
X72956614Y-122061595D01*
X72822038Y-122172038D01*
X72711595Y-122306614D01*
X72629528Y-122460150D01*
X72578992Y-122626746D01*
X72561928Y-122800000D01*
X71628000Y-122800000D01*
X71628000Y-120543110D01*
X72608524Y-120543110D01*
X72729845Y-120773000D01*
X74073000Y-120773000D01*
X74073000Y-119572768D01*
X74327000Y-119572768D01*
X74327000Y-120773000D01*
X75670155Y-120773000D01*
X75791476Y-120543110D01*
X75789554Y-120530739D01*
X75761788Y-120454500D01*
X79047428Y-120454500D01*
X79050500Y-121443750D01*
X79209250Y-121602500D01*
X80683500Y-121602500D01*
X80683500Y-119978250D01*
X80937500Y-119978250D01*
X80937500Y-121602500D01*
X82411750Y-121602500D01*
X82570500Y-121443750D01*
X82573572Y-120454500D01*
X82561312Y-120330018D01*
X82525002Y-120210320D01*
X82466037Y-120100006D01*
X82386685Y-120003315D01*
X82289994Y-119923963D01*
X82179680Y-119864998D01*
X82059982Y-119828688D01*
X81935500Y-119816428D01*
X81096250Y-119819500D01*
X80937500Y-119978250D01*
X80683500Y-119978250D01*
X80524750Y-119819500D01*
X79685500Y-119816428D01*
X79561018Y-119828688D01*
X79441320Y-119864998D01*
X79331006Y-119923963D01*
X79234315Y-120003315D01*
X79154963Y-120100006D01*
X79095998Y-120210320D01*
X79059688Y-120330018D01*
X79047428Y-120454500D01*
X75761788Y-120454500D01*
X75689854Y-120256991D01*
X75538664Y-120007954D01*
X75341795Y-119793198D01*
X75106812Y-119620975D01*
X74842745Y-119497904D01*
X74559742Y-119428715D01*
X74327000Y-119572768D01*
X74073000Y-119572768D01*
X73840258Y-119428715D01*
X73557255Y-119497904D01*
X73293188Y-119620975D01*
X73058205Y-119793198D01*
X72861336Y-120007954D01*
X72710146Y-120256991D01*
X72610446Y-120530739D01*
X72608524Y-120543110D01*
X71628000Y-120543110D01*
X71628000Y-117199000D01*
X75837928Y-117199000D01*
X75850188Y-117323482D01*
X75886498Y-117443180D01*
X75945463Y-117553494D01*
X76024815Y-117650185D01*
X76121506Y-117729537D01*
X76231820Y-117788502D01*
X76351518Y-117824812D01*
X76476000Y-117837072D01*
X77565250Y-117834000D01*
X77724000Y-117675250D01*
X77724000Y-115951000D01*
X77978000Y-115951000D01*
X77978000Y-117675250D01*
X78136750Y-117834000D01*
X79226000Y-117837072D01*
X79350482Y-117824812D01*
X79470180Y-117788502D01*
X79580494Y-117729537D01*
X79677185Y-117650185D01*
X79756537Y-117553494D01*
X79815502Y-117443180D01*
X79851812Y-117323482D01*
X79864072Y-117199000D01*
X79861000Y-116109750D01*
X79702250Y-115951000D01*
X77978000Y-115951000D01*
X77724000Y-115951000D01*
X75999750Y-115951000D01*
X75841000Y-116109750D01*
X75837928Y-117199000D01*
X71628000Y-117199000D01*
X71628000Y-114449000D01*
X75837928Y-114449000D01*
X75841000Y-115538250D01*
X75999750Y-115697000D01*
X77724000Y-115697000D01*
X77724000Y-113972750D01*
X77978000Y-113972750D01*
X77978000Y-115697000D01*
X79702250Y-115697000D01*
X79861000Y-115538250D01*
X79864072Y-114449000D01*
X79851812Y-114324518D01*
X79815502Y-114204820D01*
X79756537Y-114094506D01*
X79677185Y-113997815D01*
X79580494Y-113918463D01*
X79470180Y-113859498D01*
X79350482Y-113823188D01*
X79226000Y-113810928D01*
X78136750Y-113814000D01*
X77978000Y-113972750D01*
X77724000Y-113972750D01*
X77565250Y-113814000D01*
X76476000Y-113810928D01*
X76351518Y-113823188D01*
X76231820Y-113859498D01*
X76121506Y-113918463D01*
X76024815Y-113997815D01*
X75945463Y-114094506D01*
X75886498Y-114204820D01*
X75850188Y-114324518D01*
X75837928Y-114449000D01*
X71628000Y-114449000D01*
X71628000Y-109726440D01*
X91873000Y-109643468D01*
X91873000Y-110949500D01*
X86071159Y-110949500D01*
X86027499Y-110945200D01*
X85983839Y-110949500D01*
X85983833Y-110949500D01*
X85886424Y-110959094D01*
X85853224Y-110962364D01*
X85766927Y-110988542D01*
X85685649Y-111013197D01*
X85531209Y-111095747D01*
X85395841Y-111206841D01*
X85368006Y-111240758D01*
X83476259Y-113132506D01*
X83442342Y-113160341D01*
X83414507Y-113194258D01*
X83414505Y-113194260D01*
X83331248Y-113295709D01*
X83248698Y-113450148D01*
X83197864Y-113617726D01*
X83180700Y-113792000D01*
X83185001Y-113835670D01*
X83185000Y-124823340D01*
X83180700Y-124867000D01*
X83185000Y-124910660D01*
X83185000Y-124910666D01*
X83192851Y-124990378D01*
X83197864Y-125041274D01*
X83219998Y-125114241D01*
X83248697Y-125208850D01*
X83331247Y-125363290D01*
X83442341Y-125498659D01*
X83476264Y-125526499D01*
X84297934Y-126348170D01*
X84292928Y-126399000D01*
X84292928Y-127399000D01*
X84309992Y-127572254D01*
X84360528Y-127738850D01*
X84442595Y-127892386D01*
X84553038Y-128026962D01*
X84687614Y-128137405D01*
X84841150Y-128219472D01*
X85007746Y-128270008D01*
X85181000Y-128287072D01*
X87031000Y-128287072D01*
X87204254Y-128270008D01*
X87370850Y-128219472D01*
X87524386Y-128137405D01*
X87658962Y-128026962D01*
X87769405Y-127892386D01*
X87825201Y-127788000D01*
X87922765Y-127788000D01*
X90653501Y-130518736D01*
X90681341Y-130552659D01*
X90816709Y-130663753D01*
X90971149Y-130746303D01*
X91037058Y-130766296D01*
X91138724Y-130797136D01*
X91171924Y-130800406D01*
X91269333Y-130810000D01*
X91269339Y-130810000D01*
X91312999Y-130814300D01*
X91356659Y-130810000D01*
X93243388Y-130810000D01*
X93321419Y-130905081D01*
X93532312Y-131078157D01*
X93772919Y-131206764D01*
X94033993Y-131285960D01*
X94237463Y-131306000D01*
X95373537Y-131306000D01*
X95577007Y-131285960D01*
X95838081Y-131206764D01*
X95867573Y-131191000D01*
X108343812Y-131191000D01*
X108413538Y-131275962D01*
X108548114Y-131386405D01*
X108701650Y-131468472D01*
X108868246Y-131519008D01*
X109041500Y-131536072D01*
X110541500Y-131536072D01*
X110556500Y-131534595D01*
X110556500Y-131769637D01*
X110603960Y-132008236D01*
X110697057Y-132232992D01*
X110832213Y-132435267D01*
X111004233Y-132607287D01*
X111206508Y-132742443D01*
X111431264Y-132835540D01*
X111669863Y-132883000D01*
X111913137Y-132883000D01*
X112151736Y-132835540D01*
X112376492Y-132742443D01*
X112578767Y-132607287D01*
X112750787Y-132435267D01*
X112885943Y-132232992D01*
X112979040Y-132008236D01*
X113026500Y-131769637D01*
X113026500Y-131526363D01*
X112979040Y-131287764D01*
X112885943Y-131063008D01*
X112750787Y-130860733D01*
X112578767Y-130688713D01*
X112376492Y-130553557D01*
X112151736Y-130460460D01*
X111913137Y-130413000D01*
X111669863Y-130413000D01*
X111431264Y-130460460D01*
X111429572Y-130461161D01*
X111429572Y-129448000D01*
X111412508Y-129274746D01*
X111361972Y-129108150D01*
X111279905Y-128954614D01*
X111169462Y-128820038D01*
X111034886Y-128709595D01*
X110932907Y-128655086D01*
X110933295Y-128654802D01*
X111130164Y-128440046D01*
X111281354Y-128191009D01*
X111381054Y-127917261D01*
X111382976Y-127904890D01*
X111261655Y-127675000D01*
X109918500Y-127675000D01*
X109918500Y-127695000D01*
X109664500Y-127695000D01*
X109664500Y-127675000D01*
X108321345Y-127675000D01*
X108200024Y-127904890D01*
X108201946Y-127917261D01*
X108301646Y-128191009D01*
X108452836Y-128440046D01*
X108649705Y-128654802D01*
X108650093Y-128655086D01*
X108548114Y-128709595D01*
X108413538Y-128820038D01*
X108343812Y-128905000D01*
X96250688Y-128905000D01*
X96078688Y-128763843D01*
X95862922Y-128648514D01*
X95952849Y-128611972D01*
X96180561Y-128462028D01*
X96374645Y-128270540D01*
X96527642Y-128044868D01*
X96633673Y-127793684D01*
X96647818Y-127722185D01*
X96525156Y-127508000D01*
X94932500Y-127508000D01*
X94932500Y-127528000D01*
X94678500Y-127528000D01*
X94678500Y-127508000D01*
X93085844Y-127508000D01*
X92963182Y-127722185D01*
X92977327Y-127793684D01*
X93083358Y-128044868D01*
X93236355Y-128270540D01*
X93430439Y-128462028D01*
X93658151Y-128611972D01*
X93748078Y-128648514D01*
X93532312Y-128763843D01*
X93321419Y-128936919D01*
X93243388Y-129032000D01*
X91681235Y-129032000D01*
X88950499Y-126301264D01*
X88922659Y-126267341D01*
X88787291Y-126156247D01*
X88632851Y-126073697D01*
X88465274Y-126022864D01*
X88334667Y-126010000D01*
X88334660Y-126010000D01*
X88291000Y-126005700D01*
X88247340Y-126010000D01*
X87825201Y-126010000D01*
X87769405Y-125905614D01*
X87658962Y-125771038D01*
X87524386Y-125660595D01*
X87370850Y-125578528D01*
X87204254Y-125527992D01*
X87031000Y-125510928D01*
X85975164Y-125510928D01*
X84963000Y-124498765D01*
X84963000Y-120704499D01*
X85447428Y-120704499D01*
X85447428Y-122754501D01*
X85464492Y-122927755D01*
X85515028Y-123094351D01*
X85597095Y-123247887D01*
X85707538Y-123382462D01*
X85842113Y-123492905D01*
X85995649Y-123574972D01*
X86162245Y-123625508D01*
X86335499Y-123642572D01*
X88085501Y-123642572D01*
X88258755Y-123625508D01*
X88425351Y-123574972D01*
X88578887Y-123492905D01*
X88713462Y-123382462D01*
X88823905Y-123247887D01*
X88860492Y-123179437D01*
X91290577Y-125609523D01*
X91326367Y-125653133D01*
X91500411Y-125795968D01*
X91698977Y-125902103D01*
X91842018Y-125945494D01*
X91914432Y-125967461D01*
X91937100Y-125969694D01*
X92082354Y-125984000D01*
X92082360Y-125984000D01*
X92138499Y-125989529D01*
X92194638Y-125984000D01*
X93056564Y-125984000D01*
X93104315Y-126042185D01*
X93201006Y-126121537D01*
X93311320Y-126180502D01*
X93431018Y-126216812D01*
X93540374Y-126227582D01*
X93430439Y-126299972D01*
X93236355Y-126491460D01*
X93083358Y-126717132D01*
X92977327Y-126968316D01*
X92963182Y-127039815D01*
X93085844Y-127254000D01*
X94678500Y-127254000D01*
X94678500Y-127234000D01*
X94932500Y-127234000D01*
X94932500Y-127254000D01*
X96525156Y-127254000D01*
X96561172Y-127191110D01*
X108200024Y-127191110D01*
X108321345Y-127421000D01*
X109664500Y-127421000D01*
X109664500Y-126220768D01*
X109918500Y-126220768D01*
X109918500Y-127421000D01*
X111261655Y-127421000D01*
X111382976Y-127191110D01*
X111381054Y-127178739D01*
X111281354Y-126904991D01*
X111130164Y-126655954D01*
X110933295Y-126441198D01*
X110698312Y-126268975D01*
X110434245Y-126145904D01*
X110151242Y-126076715D01*
X109918500Y-126220768D01*
X109664500Y-126220768D01*
X109431758Y-126076715D01*
X109148755Y-126145904D01*
X108884688Y-126268975D01*
X108649705Y-126441198D01*
X108452836Y-126655954D01*
X108301646Y-126904991D01*
X108201946Y-127178739D01*
X108200024Y-127191110D01*
X96561172Y-127191110D01*
X96647818Y-127039815D01*
X96633673Y-126968316D01*
X96527642Y-126717132D01*
X96374645Y-126491460D01*
X96180561Y-126299972D01*
X96070626Y-126227582D01*
X96179982Y-126216812D01*
X96299680Y-126180502D01*
X96409994Y-126121537D01*
X96506685Y-126042185D01*
X96586037Y-125945494D01*
X96645002Y-125835180D01*
X96662196Y-125778500D01*
X101449797Y-125778500D01*
X101536208Y-125883792D01*
X101669836Y-125993458D01*
X101822291Y-126074947D01*
X101987715Y-126125128D01*
X102159750Y-126142072D01*
X103072250Y-126142072D01*
X103244285Y-126125128D01*
X103409709Y-126074947D01*
X103562164Y-125993458D01*
X103693660Y-125885541D01*
X103750815Y-125955185D01*
X103847506Y-126034537D01*
X103957820Y-126093502D01*
X104077518Y-126129812D01*
X104202000Y-126142072D01*
X104616250Y-126139000D01*
X104775000Y-125980250D01*
X104775000Y-125143500D01*
X105029000Y-125143500D01*
X105029000Y-125980250D01*
X105187750Y-126139000D01*
X105602000Y-126142072D01*
X105726482Y-126129812D01*
X105846180Y-126093502D01*
X105956494Y-126034537D01*
X106053185Y-125955185D01*
X106132537Y-125858494D01*
X106191502Y-125748180D01*
X106227812Y-125628482D01*
X106240072Y-125504000D01*
X106237000Y-125302250D01*
X106078250Y-125143500D01*
X105029000Y-125143500D01*
X104775000Y-125143500D01*
X104755000Y-125143500D01*
X104755000Y-124889500D01*
X104775000Y-124889500D01*
X104775000Y-124869500D01*
X105029000Y-124869500D01*
X105029000Y-124889500D01*
X106078250Y-124889500D01*
X106237000Y-124730750D01*
X106240072Y-124529000D01*
X106227812Y-124404518D01*
X106191502Y-124284820D01*
X106132537Y-124174506D01*
X106053185Y-124077815D01*
X105975436Y-124014008D01*
X105981792Y-124008792D01*
X106091458Y-123875164D01*
X106172947Y-123722709D01*
X106223128Y-123557285D01*
X106240072Y-123385250D01*
X106240072Y-122897750D01*
X106223128Y-122725715D01*
X106172947Y-122560291D01*
X106091458Y-122407836D01*
X105981792Y-122274208D01*
X105848164Y-122164542D01*
X105695709Y-122083053D01*
X105656000Y-122071007D01*
X105656000Y-121862000D01*
X117138928Y-121862000D01*
X117138928Y-123462000D01*
X117155992Y-123635254D01*
X117206528Y-123801850D01*
X117288595Y-123955386D01*
X117399038Y-124089962D01*
X117533614Y-124200405D01*
X117687150Y-124282472D01*
X117853746Y-124333008D01*
X118027000Y-124350072D01*
X120527000Y-124350072D01*
X120700254Y-124333008D01*
X120866850Y-124282472D01*
X121020386Y-124200405D01*
X121154962Y-124089962D01*
X121265405Y-123955386D01*
X121347472Y-123801850D01*
X121398008Y-123635254D01*
X121415072Y-123462000D01*
X121415072Y-121862000D01*
X121398008Y-121688746D01*
X121347472Y-121522150D01*
X121265405Y-121368614D01*
X121154962Y-121234038D01*
X121020386Y-121123595D01*
X120866850Y-121041528D01*
X120700254Y-120990992D01*
X120527000Y-120973928D01*
X118027000Y-120973928D01*
X117853746Y-120990992D01*
X117687150Y-121041528D01*
X117533614Y-121123595D01*
X117399038Y-121234038D01*
X117288595Y-121368614D01*
X117206528Y-121522150D01*
X117155992Y-121688746D01*
X117138928Y-121862000D01*
X105656000Y-121862000D01*
X105656000Y-121560152D01*
X105774598Y-121521641D01*
X105883745Y-121460543D01*
X105978875Y-121379325D01*
X106056332Y-121281108D01*
X106113139Y-121169668D01*
X106147114Y-121049287D01*
X106156951Y-120924590D01*
X106154000Y-120672750D01*
X105995250Y-120514000D01*
X105657072Y-120514000D01*
X105657072Y-120442000D01*
X107798928Y-120442000D01*
X107811188Y-120566482D01*
X107847498Y-120686180D01*
X107906463Y-120796494D01*
X107985815Y-120893185D01*
X108082506Y-120972537D01*
X108192820Y-121031502D01*
X108312518Y-121067812D01*
X108437000Y-121080072D01*
X109126250Y-121077000D01*
X109285000Y-120918250D01*
X109285000Y-120269000D01*
X109539000Y-120269000D01*
X109539000Y-120918250D01*
X109697750Y-121077000D01*
X110387000Y-121080072D01*
X110511482Y-121067812D01*
X110631180Y-121031502D01*
X110741494Y-120972537D01*
X110838185Y-120893185D01*
X110917537Y-120796494D01*
X110976502Y-120686180D01*
X111012812Y-120566482D01*
X111025072Y-120442000D01*
X111022000Y-120427750D01*
X110863250Y-120269000D01*
X109539000Y-120269000D01*
X109285000Y-120269000D01*
X107960750Y-120269000D01*
X107802000Y-120427750D01*
X107798928Y-120442000D01*
X105657072Y-120442000D01*
X105657072Y-120260000D01*
X105995250Y-120260000D01*
X106154000Y-120101250D01*
X106156951Y-119849410D01*
X106147114Y-119724713D01*
X106113139Y-119604332D01*
X106056332Y-119492892D01*
X105978875Y-119394675D01*
X105883745Y-119313457D01*
X105774598Y-119252359D01*
X105655629Y-119213728D01*
X105552750Y-119202000D01*
X105414574Y-119340176D01*
X105373494Y-119306463D01*
X105300922Y-119267672D01*
X105235250Y-119202000D01*
X105146533Y-119212114D01*
X105143482Y-119211188D01*
X105019000Y-119198928D01*
X104769000Y-119198928D01*
X104644518Y-119211188D01*
X104641467Y-119212114D01*
X104552750Y-119202000D01*
X104487078Y-119267672D01*
X104414506Y-119306463D01*
X104394000Y-119323292D01*
X104373494Y-119306463D01*
X104300922Y-119267672D01*
X104235250Y-119202000D01*
X104146533Y-119212114D01*
X104143482Y-119211188D01*
X104019000Y-119198928D01*
X103769000Y-119198928D01*
X103644518Y-119211188D01*
X103641467Y-119212114D01*
X103552750Y-119202000D01*
X103487078Y-119267672D01*
X103414506Y-119306463D01*
X103373426Y-119340176D01*
X103235250Y-119202000D01*
X103132371Y-119213728D01*
X103013402Y-119252359D01*
X102904255Y-119313457D01*
X102809125Y-119394675D01*
X102731668Y-119492892D01*
X102674861Y-119604332D01*
X102640886Y-119724713D01*
X102631049Y-119849410D01*
X102634000Y-120101250D01*
X102792750Y-120260000D01*
X103130928Y-120260000D01*
X103130928Y-120514000D01*
X102792750Y-120514000D01*
X102634000Y-120672750D01*
X102631049Y-120924590D01*
X102640886Y-121049287D01*
X102674861Y-121169668D01*
X102731668Y-121281108D01*
X102809125Y-121379325D01*
X102904255Y-121460543D01*
X103013402Y-121521641D01*
X103132371Y-121560272D01*
X103235250Y-121572000D01*
X103373426Y-121433824D01*
X103414506Y-121467537D01*
X103487078Y-121506328D01*
X103552750Y-121572000D01*
X103641467Y-121561886D01*
X103644518Y-121562812D01*
X103769000Y-121575072D01*
X104019000Y-121575072D01*
X104132000Y-121563943D01*
X104132001Y-122075861D01*
X104108291Y-122083053D01*
X103955836Y-122164542D01*
X103822208Y-122274208D01*
X103759000Y-122351227D01*
X103695792Y-122274208D01*
X103562164Y-122164542D01*
X103409709Y-122083053D01*
X103244285Y-122032872D01*
X103072250Y-122015928D01*
X102159750Y-122015928D01*
X101987715Y-122032872D01*
X101822291Y-122083053D01*
X101669836Y-122164542D01*
X101536208Y-122274208D01*
X101426542Y-122407836D01*
X101345053Y-122560291D01*
X101294872Y-122725715D01*
X101277928Y-122897750D01*
X101277928Y-123385250D01*
X101294872Y-123557285D01*
X101345053Y-123722709D01*
X101426542Y-123875164D01*
X101536208Y-124008792D01*
X101621756Y-124079000D01*
X101536208Y-124149208D01*
X101449797Y-124254500D01*
X96693572Y-124254500D01*
X96693572Y-124091000D01*
X96681312Y-123966518D01*
X96645002Y-123846820D01*
X96586037Y-123736506D01*
X96506685Y-123639815D01*
X96409994Y-123560463D01*
X96299680Y-123501498D01*
X96179982Y-123465188D01*
X96055500Y-123452928D01*
X93555500Y-123452928D01*
X93431018Y-123465188D01*
X93311320Y-123501498D01*
X93201006Y-123560463D01*
X93104315Y-123639815D01*
X93056564Y-123698000D01*
X92611946Y-123698000D01*
X90915195Y-122001250D01*
X92978374Y-119938072D01*
X93550000Y-119938072D01*
X93674482Y-119925812D01*
X93794180Y-119889502D01*
X93904494Y-119830537D01*
X94001185Y-119751185D01*
X94080537Y-119654494D01*
X94139502Y-119544180D01*
X94175812Y-119424482D01*
X94188072Y-119300000D01*
X94188072Y-117500000D01*
X94175812Y-117375518D01*
X94139502Y-117255820D01*
X94080537Y-117145506D01*
X94001185Y-117048815D01*
X93904494Y-116969463D01*
X93794180Y-116910498D01*
X93674482Y-116874188D01*
X93550000Y-116861928D01*
X92250000Y-116861928D01*
X92125518Y-116874188D01*
X92005820Y-116910498D01*
X91895506Y-116969463D01*
X91798815Y-117048815D01*
X91719463Y-117145506D01*
X91660498Y-117255820D01*
X91624188Y-117375518D01*
X91611928Y-117500000D01*
X91611928Y-118071626D01*
X89097055Y-120586500D01*
X89083139Y-120586500D01*
X89027000Y-120580971D01*
X88970861Y-120586500D01*
X88961950Y-120586500D01*
X88956508Y-120531245D01*
X88905972Y-120364649D01*
X88823905Y-120211113D01*
X88713462Y-120076538D01*
X88578887Y-119966095D01*
X88425351Y-119884028D01*
X88258755Y-119833492D01*
X88085501Y-119816428D01*
X86335499Y-119816428D01*
X86162245Y-119833492D01*
X85995649Y-119884028D01*
X85842113Y-119966095D01*
X85707538Y-120076538D01*
X85597095Y-120211113D01*
X85515028Y-120364649D01*
X85464492Y-120531245D01*
X85447428Y-120704499D01*
X84963000Y-120704499D01*
X84963000Y-114825999D01*
X85997928Y-114825999D01*
X85997928Y-117076001D01*
X86014992Y-117249255D01*
X86065528Y-117415851D01*
X86147595Y-117569387D01*
X86258038Y-117703962D01*
X86392613Y-117814405D01*
X86546149Y-117896472D01*
X86712745Y-117947008D01*
X86885999Y-117964072D01*
X89136001Y-117964072D01*
X89309255Y-117947008D01*
X89475851Y-117896472D01*
X89629387Y-117814405D01*
X89763962Y-117703962D01*
X89874405Y-117569387D01*
X89956472Y-117415851D01*
X90007008Y-117249255D01*
X90024072Y-117076001D01*
X90024072Y-114825999D01*
X90007008Y-114652745D01*
X89956472Y-114486149D01*
X89874405Y-114332613D01*
X89763962Y-114198038D01*
X89629387Y-114087595D01*
X89475851Y-114005528D01*
X89309255Y-113954992D01*
X89136001Y-113937928D01*
X86885999Y-113937928D01*
X86712745Y-113954992D01*
X86546149Y-114005528D01*
X86392613Y-114087595D01*
X86258038Y-114198038D01*
X86147595Y-114332613D01*
X86065528Y-114486149D01*
X86014992Y-114652745D01*
X85997928Y-114825999D01*
X84963000Y-114825999D01*
X84963000Y-114160235D01*
X86395736Y-112727500D01*
X91873000Y-112727500D01*
X91873000Y-113600000D01*
X91875440Y-113624776D01*
X91882667Y-113648601D01*
X91894403Y-113670557D01*
X91910197Y-113689803D01*
X91923105Y-113700396D01*
X91904528Y-113735150D01*
X91853992Y-113901746D01*
X91836928Y-114075000D01*
X91836928Y-115675000D01*
X91853992Y-115848254D01*
X91904528Y-116014850D01*
X91986595Y-116168386D01*
X92097038Y-116302962D01*
X92231614Y-116413405D01*
X92385150Y-116495472D01*
X92551746Y-116546008D01*
X92725000Y-116563072D01*
X94757001Y-116563072D01*
X94757000Y-117099766D01*
X94719463Y-117145506D01*
X94660498Y-117255820D01*
X94624188Y-117375518D01*
X94611928Y-117500000D01*
X94611928Y-119300000D01*
X94624188Y-119424482D01*
X94660498Y-119544180D01*
X94719463Y-119654494D01*
X94798815Y-119751185D01*
X94895506Y-119830537D01*
X95005820Y-119889502D01*
X95125518Y-119925812D01*
X95250000Y-119938072D01*
X96550000Y-119938072D01*
X96674482Y-119925812D01*
X96794180Y-119889502D01*
X96904494Y-119830537D01*
X97001185Y-119751185D01*
X97080537Y-119654494D01*
X97139502Y-119544180D01*
X97175812Y-119424482D01*
X97188072Y-119300000D01*
X97188072Y-118900000D01*
X99626928Y-118900000D01*
X99639188Y-119024482D01*
X99675498Y-119144180D01*
X99734463Y-119254494D01*
X99813815Y-119351185D01*
X99910506Y-119430537D01*
X100020820Y-119489502D01*
X100140518Y-119525812D01*
X100265000Y-119538072D01*
X100679250Y-119535000D01*
X100838000Y-119376250D01*
X100838000Y-118539500D01*
X101092000Y-118539500D01*
X101092000Y-119376250D01*
X101250750Y-119535000D01*
X101665000Y-119538072D01*
X101789482Y-119525812D01*
X101909180Y-119489502D01*
X102019494Y-119430537D01*
X102116185Y-119351185D01*
X102195537Y-119254494D01*
X102254502Y-119144180D01*
X102290812Y-119024482D01*
X102303072Y-118900000D01*
X102300000Y-118698250D01*
X102141250Y-118539500D01*
X101092000Y-118539500D01*
X100838000Y-118539500D01*
X99788750Y-118539500D01*
X99630000Y-118698250D01*
X99626928Y-118900000D01*
X97188072Y-118900000D01*
X97188072Y-117500000D01*
X97175812Y-117375518D01*
X97139502Y-117255820D01*
X97080537Y-117145506D01*
X97043000Y-117099767D01*
X97043000Y-116563072D01*
X97675000Y-116563072D01*
X97848254Y-116546008D01*
X98014850Y-116495472D01*
X98168386Y-116413405D01*
X98302962Y-116302962D01*
X98413405Y-116168386D01*
X98495472Y-116014850D01*
X98546008Y-115848254D01*
X98563072Y-115675000D01*
X98563072Y-114075000D01*
X98546008Y-113901746D01*
X98495472Y-113735150D01*
X98476895Y-113700396D01*
X98489803Y-113689803D01*
X98505597Y-113670557D01*
X98517333Y-113648601D01*
X98524560Y-113624776D01*
X98527000Y-113600000D01*
X98527000Y-112727500D01*
X98730761Y-112727500D01*
X98691864Y-112855726D01*
X98674700Y-113030000D01*
X98679001Y-113073670D01*
X98679000Y-115096840D01*
X98674700Y-115140500D01*
X98679000Y-115184160D01*
X98679000Y-115184166D01*
X98681372Y-115208248D01*
X98691864Y-115314774D01*
X98702833Y-115350933D01*
X98742697Y-115482350D01*
X98825247Y-115636790D01*
X98936341Y-115772159D01*
X98970264Y-115799999D01*
X99626928Y-116456663D01*
X99626928Y-116781250D01*
X99643872Y-116953285D01*
X99694053Y-117118709D01*
X99775542Y-117271164D01*
X99885208Y-117404792D01*
X99891564Y-117410008D01*
X99813815Y-117473815D01*
X99734463Y-117570506D01*
X99675498Y-117680820D01*
X99639188Y-117800518D01*
X99626928Y-117925000D01*
X99630000Y-118126750D01*
X99788750Y-118285500D01*
X100838000Y-118285500D01*
X100838000Y-118265500D01*
X101092000Y-118265500D01*
X101092000Y-118285500D01*
X102141250Y-118285500D01*
X102300000Y-118126750D01*
X102303072Y-117925000D01*
X102290812Y-117800518D01*
X102254502Y-117680820D01*
X102195537Y-117570506D01*
X102116185Y-117473815D01*
X102038436Y-117410008D01*
X102044792Y-117404792D01*
X102154458Y-117271164D01*
X102235947Y-117118709D01*
X102286128Y-116953285D01*
X102303072Y-116781250D01*
X102303072Y-116293750D01*
X102286128Y-116121715D01*
X102235947Y-115956291D01*
X102154458Y-115803836D01*
X102044792Y-115670208D01*
X101911164Y-115560542D01*
X101758709Y-115479053D01*
X101593285Y-115428872D01*
X101421250Y-115411928D01*
X101096663Y-115411928D01*
X100457000Y-114772265D01*
X100457000Y-113398235D01*
X100704440Y-113150796D01*
X100659872Y-113297715D01*
X100642928Y-113469750D01*
X100642928Y-113957250D01*
X100659872Y-114129285D01*
X100710053Y-114294709D01*
X100791542Y-114447164D01*
X100901208Y-114580792D01*
X101034836Y-114690458D01*
X101187291Y-114771947D01*
X101352715Y-114822128D01*
X101524750Y-114839072D01*
X102028942Y-114839072D01*
X102632001Y-115442131D01*
X102632001Y-115526110D01*
X102630928Y-115537000D01*
X102630928Y-116637000D01*
X102632001Y-116647890D01*
X102632000Y-117326576D01*
X102628314Y-117364000D01*
X102632000Y-117401423D01*
X102632000Y-117401425D01*
X102643026Y-117513377D01*
X102686598Y-117657014D01*
X102711692Y-117703962D01*
X102757355Y-117789392D01*
X102785698Y-117823928D01*
X102852578Y-117905422D01*
X102881653Y-117929284D01*
X103574720Y-118622351D01*
X103598578Y-118651422D01*
X103714608Y-118746645D01*
X103846985Y-118817402D01*
X103990622Y-118860974D01*
X104102574Y-118872000D01*
X104102576Y-118872000D01*
X104139999Y-118875686D01*
X104177422Y-118872000D01*
X107062870Y-118872000D01*
X107575220Y-119384351D01*
X107599078Y-119413422D01*
X107628148Y-119437279D01*
X107715107Y-119508645D01*
X107770162Y-119538072D01*
X107847485Y-119579402D01*
X107855967Y-119581975D01*
X107847498Y-119597820D01*
X107811188Y-119717518D01*
X107798928Y-119842000D01*
X107802000Y-119856250D01*
X107960750Y-120015000D01*
X109285000Y-120015000D01*
X109285000Y-119995000D01*
X109539000Y-119995000D01*
X109539000Y-120015000D01*
X110863250Y-120015000D01*
X111022000Y-119856250D01*
X111025072Y-119842000D01*
X111012812Y-119717518D01*
X110976502Y-119597820D01*
X110917537Y-119487506D01*
X110893270Y-119457936D01*
X110965084Y-119323582D01*
X111009929Y-119175745D01*
X111025072Y-119022000D01*
X111025072Y-118722000D01*
X111009929Y-118568255D01*
X110965084Y-118420418D01*
X110892258Y-118284171D01*
X110853546Y-118237000D01*
X110892258Y-118189829D01*
X110965084Y-118053582D01*
X111009929Y-117905745D01*
X111025072Y-117752000D01*
X111025072Y-117452000D01*
X111009929Y-117298255D01*
X110965084Y-117150418D01*
X110892258Y-117014171D01*
X110853546Y-116967000D01*
X110892258Y-116919829D01*
X110965084Y-116783582D01*
X111009929Y-116635745D01*
X111025072Y-116482000D01*
X111025072Y-116182000D01*
X111009929Y-116028255D01*
X110965084Y-115880418D01*
X110892258Y-115744171D01*
X110794251Y-115624749D01*
X110750094Y-115588510D01*
X112294304Y-115588510D01*
X112297990Y-115625933D01*
X112297991Y-119777557D01*
X112294304Y-119814990D01*
X112309017Y-119964368D01*
X112352589Y-120108005D01*
X112423345Y-120240382D01*
X112482121Y-120312000D01*
X112518569Y-120356412D01*
X112547639Y-120380269D01*
X112821716Y-120654346D01*
X112845578Y-120683422D01*
X112865813Y-120700029D01*
X112881742Y-120729829D01*
X112979749Y-120849251D01*
X113099171Y-120947258D01*
X113235418Y-121020084D01*
X113383255Y-121064929D01*
X113537000Y-121080072D01*
X115187000Y-121080072D01*
X115340745Y-121064929D01*
X115488582Y-121020084D01*
X115624829Y-120947258D01*
X115677539Y-120904000D01*
X120983897Y-120904000D01*
X120984394Y-120904606D01*
X121111392Y-121008831D01*
X121256284Y-121086278D01*
X121413500Y-121133969D01*
X121577000Y-121150072D01*
X122477000Y-121150072D01*
X122640500Y-121133969D01*
X122797716Y-121086278D01*
X122942608Y-121008831D01*
X123069606Y-120904606D01*
X123173831Y-120777608D01*
X123251278Y-120632716D01*
X123298969Y-120475500D01*
X123315072Y-120312000D01*
X123315072Y-119912000D01*
X123298969Y-119748500D01*
X123251278Y-119591284D01*
X123195537Y-119487000D01*
X123251278Y-119382716D01*
X123298969Y-119225500D01*
X123315072Y-119062000D01*
X123315072Y-118662000D01*
X123298969Y-118498500D01*
X123251278Y-118341284D01*
X123195537Y-118237000D01*
X123251278Y-118132716D01*
X123298969Y-117975500D01*
X123315072Y-117812000D01*
X123315072Y-117412000D01*
X123298969Y-117248500D01*
X123251278Y-117091284D01*
X123195537Y-116987000D01*
X123251278Y-116882716D01*
X123298969Y-116725500D01*
X123315072Y-116562000D01*
X123315072Y-116162000D01*
X123298969Y-115998500D01*
X123251278Y-115841284D01*
X123173831Y-115696392D01*
X123069606Y-115569394D01*
X122942608Y-115465169D01*
X122797716Y-115387722D01*
X122640500Y-115340031D01*
X122477000Y-115323928D01*
X121577000Y-115323928D01*
X121413500Y-115340031D01*
X121256284Y-115387722D01*
X121111392Y-115465169D01*
X120984394Y-115569394D01*
X120959276Y-115600000D01*
X116171630Y-115600000D01*
X116347356Y-115424274D01*
X116376432Y-115400412D01*
X116446919Y-115314523D01*
X116471655Y-115284383D01*
X116525221Y-115184167D01*
X116542412Y-115152005D01*
X116585984Y-115008368D01*
X116597010Y-114896416D01*
X116597010Y-114896413D01*
X116600696Y-114858990D01*
X116597010Y-114821567D01*
X116597010Y-113029932D01*
X116598776Y-113012000D01*
X117138928Y-113012000D01*
X117138928Y-114612000D01*
X117155992Y-114785254D01*
X117206528Y-114951850D01*
X117288595Y-115105386D01*
X117399038Y-115239962D01*
X117533614Y-115350405D01*
X117687150Y-115432472D01*
X117853746Y-115483008D01*
X118027000Y-115500072D01*
X120527000Y-115500072D01*
X120700254Y-115483008D01*
X120866850Y-115432472D01*
X121020386Y-115350405D01*
X121154962Y-115239962D01*
X121265405Y-115105386D01*
X121347472Y-114951850D01*
X121398008Y-114785254D01*
X121415072Y-114612000D01*
X121415072Y-113012000D01*
X121398008Y-112838746D01*
X121347472Y-112672150D01*
X121265405Y-112518614D01*
X121154962Y-112384038D01*
X121020386Y-112273595D01*
X120866850Y-112191528D01*
X120700254Y-112140992D01*
X120527000Y-112123928D01*
X118027000Y-112123928D01*
X117853746Y-112140992D01*
X117687150Y-112191528D01*
X117533614Y-112273595D01*
X117399038Y-112384038D01*
X117288595Y-112518614D01*
X117206528Y-112672150D01*
X117155992Y-112838746D01*
X117138928Y-113012000D01*
X116598776Y-113012000D01*
X116600696Y-112992509D01*
X116593147Y-112915864D01*
X116585984Y-112843132D01*
X116542412Y-112699495D01*
X116471655Y-112567118D01*
X116376432Y-112451088D01*
X116347363Y-112427232D01*
X116144575Y-112224445D01*
X116146072Y-112209250D01*
X116146072Y-111721750D01*
X116129128Y-111549715D01*
X116078947Y-111384291D01*
X115997458Y-111231836D01*
X115887792Y-111098208D01*
X115754164Y-110988542D01*
X115601709Y-110907053D01*
X115436285Y-110856872D01*
X115264250Y-110839928D01*
X114351750Y-110839928D01*
X114179715Y-110856872D01*
X114014291Y-110907053D01*
X113861836Y-110988542D01*
X113728208Y-111098208D01*
X113618542Y-111231836D01*
X113537053Y-111384291D01*
X113486872Y-111549715D01*
X113469928Y-111721750D01*
X113469928Y-112209250D01*
X113486872Y-112381285D01*
X113537053Y-112546709D01*
X113618542Y-112699164D01*
X113728208Y-112832792D01*
X113813756Y-112903000D01*
X113728208Y-112973208D01*
X113618542Y-113106836D01*
X113537053Y-113259291D01*
X113486872Y-113424715D01*
X113469928Y-113596750D01*
X113469928Y-114084250D01*
X113471425Y-114099445D01*
X112547644Y-115023226D01*
X112518568Y-115047088D01*
X112470725Y-115105386D01*
X112423345Y-115163118D01*
X112399223Y-115208248D01*
X112352588Y-115295496D01*
X112309016Y-115439133D01*
X112297990Y-115551084D01*
X112294304Y-115588510D01*
X110750094Y-115588510D01*
X110674829Y-115526742D01*
X110538582Y-115453916D01*
X110390745Y-115409071D01*
X110237000Y-115393928D01*
X109731164Y-115393928D01*
X109220002Y-114882767D01*
X109220002Y-114725752D01*
X109378750Y-114884500D01*
X109793000Y-114887572D01*
X109917482Y-114875312D01*
X110037180Y-114839002D01*
X110147494Y-114780037D01*
X110244185Y-114700685D01*
X110323537Y-114603994D01*
X110382502Y-114493680D01*
X110418812Y-114373982D01*
X110431072Y-114249500D01*
X110428000Y-114047750D01*
X110269250Y-113889000D01*
X109220000Y-113889000D01*
X109220000Y-113909000D01*
X108966000Y-113909000D01*
X108966000Y-113889000D01*
X108946000Y-113889000D01*
X108946000Y-113635000D01*
X108966000Y-113635000D01*
X108966000Y-113615000D01*
X109220000Y-113615000D01*
X109220000Y-113635000D01*
X110269250Y-113635000D01*
X110428000Y-113476250D01*
X110431072Y-113274500D01*
X110418812Y-113150018D01*
X110382502Y-113030320D01*
X110323537Y-112920006D01*
X110244185Y-112823315D01*
X110166436Y-112759508D01*
X110172792Y-112754292D01*
X110282458Y-112620664D01*
X110363947Y-112468209D01*
X110414128Y-112302785D01*
X110431072Y-112130750D01*
X110431072Y-111643250D01*
X110414128Y-111471215D01*
X110363947Y-111305791D01*
X110282458Y-111153336D01*
X110172792Y-111019708D01*
X110039164Y-110910042D01*
X109886709Y-110828553D01*
X109721285Y-110778372D01*
X109549250Y-110761428D01*
X108636750Y-110761428D01*
X108464715Y-110778372D01*
X108299291Y-110828553D01*
X108146836Y-110910042D01*
X108098756Y-110949500D01*
X106463341Y-110949500D01*
X106356164Y-110861542D01*
X106203709Y-110780053D01*
X106038285Y-110729872D01*
X105866250Y-110712928D01*
X104953750Y-110712928D01*
X104781715Y-110729872D01*
X104616291Y-110780053D01*
X104463836Y-110861542D01*
X104356659Y-110949500D01*
X103034341Y-110949500D01*
X102927164Y-110861542D01*
X102870000Y-110830987D01*
X102870000Y-97787235D01*
X106296236Y-94361000D01*
X117544081Y-94361000D01*
X117533614Y-94366595D01*
M02*
