G04 #@! TF.GenerationSoftware,KiCad,Pcbnew,5.1.6+dfsg1-1~bpo9+1*
G04 #@! TF.CreationDate,2022-04-20T22:27:00+02:00*
G04 #@! TF.ProjectId,sdrtrx-powerswitch,73647274-7278-42d7-906f-776572737769,rev?*
G04 #@! TF.SameCoordinates,Original*
G04 #@! TF.FileFunction,Copper,L2,Bot*
G04 #@! TF.FilePolarity,Positive*
%FSLAX46Y46*%
G04 Gerber Fmt 4.6, Leading zero omitted, Abs format (unit mm)*
G04 Created by KiCad (PCBNEW 5.1.6+dfsg1-1~bpo9+1) date 2022-04-20 22:27:00*
%MOMM*%
%LPD*%
G01*
G04 APERTURE LIST*
G04 #@! TA.AperFunction,ComponentPad*
%ADD10O,2.000000X1.700000*%
G04 #@! TD*
G04 #@! TA.AperFunction,ComponentPad*
%ADD11C,3.000000*%
G04 #@! TD*
G04 #@! TA.AperFunction,ComponentPad*
%ADD12R,3.000000X3.000000*%
G04 #@! TD*
G04 #@! TA.AperFunction,ComponentPad*
%ADD13O,2.500000X1.500000*%
G04 #@! TD*
G04 #@! TA.AperFunction,ComponentPad*
%ADD14R,2.500000X1.500000*%
G04 #@! TD*
G04 #@! TA.AperFunction,ComponentPad*
%ADD15C,6.400000*%
G04 #@! TD*
G04 #@! TA.AperFunction,ViaPad*
%ADD16C,0.800000*%
G04 #@! TD*
G04 #@! TA.AperFunction,Conductor*
%ADD17C,4.064000*%
G04 #@! TD*
G04 #@! TA.AperFunction,Conductor*
%ADD18C,0.254000*%
G04 #@! TD*
G04 #@! TA.AperFunction,Conductor*
%ADD19C,1.016000*%
G04 #@! TD*
G04 #@! TA.AperFunction,Conductor*
%ADD20C,0.508000*%
G04 #@! TD*
G04 #@! TA.AperFunction,Conductor*
%ADD21C,5.588000*%
G04 #@! TD*
G04 #@! TA.AperFunction,Conductor*
%ADD22C,0.250000*%
G04 #@! TD*
G04 APERTURE END LIST*
D10*
X74200000Y-120900000D03*
G04 #@! TA.AperFunction,ComponentPad*
G36*
G01*
X74950000Y-124250000D02*
X73450000Y-124250000D01*
G75*
G02*
X73200000Y-124000000I0J250000D01*
G01*
X73200000Y-122800000D01*
G75*
G02*
X73450000Y-122550000I250000J0D01*
G01*
X74950000Y-122550000D01*
G75*
G02*
X75200000Y-122800000I0J-250000D01*
G01*
X75200000Y-124000000D01*
G75*
G02*
X74950000Y-124250000I-250000J0D01*
G01*
G37*
G04 #@! TD.AperFunction*
G04 #@! TA.AperFunction,ComponentPad*
G36*
G01*
X81937000Y-61069001D02*
X81937000Y-58818999D01*
G75*
G02*
X82186999Y-58569000I249999J0D01*
G01*
X84437001Y-58569000D01*
G75*
G02*
X84687000Y-58818999I0J-249999D01*
G01*
X84687000Y-61069001D01*
G75*
G02*
X84437001Y-61319000I-249999J0D01*
G01*
X82186999Y-61319000D01*
G75*
G02*
X81937000Y-61069001I0J249999D01*
G01*
G37*
G04 #@! TD.AperFunction*
G04 #@! TA.AperFunction,ComponentPad*
G36*
G01*
X87144000Y-61069001D02*
X87144000Y-58818999D01*
G75*
G02*
X87393999Y-58569000I249999J0D01*
G01*
X89644001Y-58569000D01*
G75*
G02*
X89894000Y-58818999I0J-249999D01*
G01*
X89894000Y-61069001D01*
G75*
G02*
X89644001Y-61319000I-249999J0D01*
G01*
X87393999Y-61319000D01*
G75*
G02*
X87144000Y-61069001I0J249999D01*
G01*
G37*
G04 #@! TD.AperFunction*
G04 #@! TA.AperFunction,ComponentPad*
G36*
G01*
X96161000Y-61069001D02*
X96161000Y-58818999D01*
G75*
G02*
X96410999Y-58569000I249999J0D01*
G01*
X98661001Y-58569000D01*
G75*
G02*
X98911000Y-58818999I0J-249999D01*
G01*
X98911000Y-61069001D01*
G75*
G02*
X98661001Y-61319000I-249999J0D01*
G01*
X96410999Y-61319000D01*
G75*
G02*
X96161000Y-61069001I0J249999D01*
G01*
G37*
G04 #@! TD.AperFunction*
G04 #@! TA.AperFunction,ComponentPad*
G36*
G01*
X108353000Y-61069001D02*
X108353000Y-58818999D01*
G75*
G02*
X108602999Y-58569000I249999J0D01*
G01*
X110853001Y-58569000D01*
G75*
G02*
X111103000Y-58818999I0J-249999D01*
G01*
X111103000Y-61069001D01*
G75*
G02*
X110853001Y-61319000I-249999J0D01*
G01*
X108602999Y-61319000D01*
G75*
G02*
X108353000Y-61069001I0J249999D01*
G01*
G37*
G04 #@! TD.AperFunction*
G04 #@! TA.AperFunction,ComponentPad*
G36*
G01*
X76476000Y-116949001D02*
X76476000Y-114698999D01*
G75*
G02*
X76725999Y-114449000I249999J0D01*
G01*
X78976001Y-114449000D01*
G75*
G02*
X79226000Y-114698999I0J-249999D01*
G01*
X79226000Y-116949001D01*
G75*
G02*
X78976001Y-117199000I-249999J0D01*
G01*
X76725999Y-117199000D01*
G75*
G02*
X76476000Y-116949001I0J249999D01*
G01*
G37*
G04 #@! TD.AperFunction*
G04 #@! TA.AperFunction,ComponentPad*
G36*
G01*
X86636000Y-117076001D02*
X86636000Y-114825999D01*
G75*
G02*
X86885999Y-114576000I249999J0D01*
G01*
X89136001Y-114576000D01*
G75*
G02*
X89386000Y-114825999I0J-249999D01*
G01*
X89386000Y-117076001D01*
G75*
G02*
X89136001Y-117326000I-249999J0D01*
G01*
X86885999Y-117326000D01*
G75*
G02*
X86636000Y-117076001I0J249999D01*
G01*
G37*
G04 #@! TD.AperFunction*
D11*
X88011000Y-107188000D03*
X77851000Y-102108000D03*
X88011000Y-97028000D03*
X77851000Y-97028000D03*
X77851000Y-107188000D03*
X88011000Y-102108000D03*
D12*
X77851000Y-81788000D03*
D11*
X88011000Y-81788000D03*
D10*
X109791500Y-127548000D03*
G04 #@! TA.AperFunction,ComponentPad*
G36*
G01*
X110541500Y-130898000D02*
X109041500Y-130898000D01*
G75*
G02*
X108791500Y-130648000I0J250000D01*
G01*
X108791500Y-129448000D01*
G75*
G02*
X109041500Y-129198000I250000J0D01*
G01*
X110541500Y-129198000D01*
G75*
G02*
X110791500Y-129448000I0J-250000D01*
G01*
X110791500Y-130648000D01*
G75*
G02*
X110541500Y-130898000I-250000J0D01*
G01*
G37*
G04 #@! TD.AperFunction*
D13*
X94805500Y-129921000D03*
X94805500Y-127381000D03*
D14*
X94805500Y-124841000D03*
D11*
X97536000Y-88794000D03*
X97536000Y-66294000D03*
X109728000Y-88794000D03*
X109728000Y-66294000D03*
D15*
X120000000Y-130000000D03*
X120000000Y-60000000D03*
X75000000Y-60000000D03*
X75000000Y-130000000D03*
D16*
X106870500Y-104775000D03*
X104775000Y-98933000D03*
D17*
X77851000Y-115824000D02*
X77851000Y-107188000D01*
X88011000Y-115951000D02*
X88011000Y-107188000D01*
X88011000Y-115951000D02*
X88011000Y-107388010D01*
D18*
X106870500Y-104775000D02*
X99123500Y-104775000D01*
X96710500Y-107188000D02*
X88011000Y-107188000D01*
X99123500Y-104775000D02*
X96710500Y-107188000D01*
D19*
X86000000Y-123400000D02*
X79100000Y-123400000D01*
X88011000Y-121389000D02*
X86000000Y-123400000D01*
X79100000Y-123400000D02*
X74200000Y-123400000D01*
X88011000Y-115951000D02*
X88011000Y-121389000D01*
D20*
X115570000Y-92329000D02*
X113030000Y-94869000D01*
X113030000Y-94869000D02*
X112395000Y-95504000D01*
X112395000Y-95504000D02*
X106299000Y-95504000D01*
X106299000Y-95504000D02*
X105791000Y-95504000D01*
X105791000Y-95504000D02*
X104775000Y-96520000D01*
X104775000Y-96520000D02*
X104775000Y-98933000D01*
X115570000Y-83947000D02*
X115570000Y-87630000D01*
X115570000Y-86487000D02*
X115570000Y-87630000D01*
X88011000Y-81788000D02*
X113411000Y-81788000D01*
X115570000Y-87630000D02*
X115570000Y-92329000D01*
X113411000Y-81788000D02*
X115570000Y-83947000D01*
D17*
X88011000Y-102108000D02*
X93408500Y-102108000D01*
X97536000Y-97980500D02*
X93408500Y-102108000D01*
X97536000Y-97980500D02*
X97536000Y-88794000D01*
D21*
X97536000Y-88794000D02*
X109728000Y-88794000D01*
X88519000Y-59944000D02*
X83312000Y-59944000D01*
D17*
X75729680Y-102108000D02*
X77851000Y-102108000D01*
X73356999Y-99735319D02*
X75729680Y-102108000D01*
X73356999Y-72502501D02*
X73356999Y-99735319D01*
X73420499Y-72502501D02*
X77470000Y-68453000D01*
X77470000Y-68453000D02*
X81026000Y-68453000D01*
X83312000Y-66167000D02*
X83312000Y-59944000D01*
X81026000Y-68453000D02*
X83312000Y-66167000D01*
D21*
X109728000Y-66294000D02*
X109728000Y-59944000D01*
D22*
X97536000Y-60071000D02*
X97663000Y-59944000D01*
D21*
X97536000Y-66294000D02*
X97536000Y-59944000D01*
M02*
