%FSLAX45Y45*%
G04 Gerber Fmt 4.5, Leading zero omitted, Abs format (unit mm)*
G04 Created by KiCad (PCBNEW 5.1.6+dfsg1-1~bpo9+1) date 2022-04-20 22:27:03*
%MOMM*%
%LPD*%
G01*
G04 APERTURE LIST*
%TA.AperFunction,Profile*%
%ADD10C,0.050000*%
%TD*%
%ADD11C,0.200000*%
%ADD12C,0.300000*%
G04 APERTURE END LIST*
D10*
X7000000Y-5500000D02*
X12500000Y-5500000D01*
X12500000Y-13500000D02*
X12500000Y-5500000D01*
X7000000Y-13500000D02*
X7000000Y-5500000D01*
X7000000Y-13500000D02*
X12500000Y-13500000D01*
D11*
X7560000Y-12440000D02*
X7680000Y-12560000D01*
X7680000Y-12440000D02*
X7560000Y-12560000D01*
X11119150Y-13104800D02*
X11239150Y-13224800D01*
X11239150Y-13104800D02*
X11119150Y-13224800D01*
X11107800Y-7754400D02*
G75*
G03*
X11107800Y-7754400I-135000J0D01*
G01*
X9888600Y-7754400D02*
G75*
G03*
X9888600Y-7754400I-135000J0D01*
G01*
D12*
X7283928Y-13968214D02*
X7283928Y-13668214D01*
X7355357Y-13668214D01*
X7398214Y-13682500D01*
X7426786Y-13711071D01*
X7441071Y-13739643D01*
X7455357Y-13796786D01*
X7455357Y-13839643D01*
X7441071Y-13896786D01*
X7426786Y-13925357D01*
X7398214Y-13953929D01*
X7355357Y-13968214D01*
X7283928Y-13968214D01*
X7583928Y-13968214D02*
X7583928Y-13768214D01*
X7583928Y-13825357D02*
X7598214Y-13796786D01*
X7612500Y-13782500D01*
X7641071Y-13768214D01*
X7669643Y-13768214D01*
X7769643Y-13968214D02*
X7769643Y-13768214D01*
X7769643Y-13668214D02*
X7755357Y-13682500D01*
X7769643Y-13696786D01*
X7783928Y-13682500D01*
X7769643Y-13668214D01*
X7769643Y-13696786D01*
X7955357Y-13968214D02*
X7926786Y-13953929D01*
X7912500Y-13925357D01*
X7912500Y-13668214D01*
X8112500Y-13968214D02*
X8083928Y-13953929D01*
X8069643Y-13925357D01*
X8069643Y-13668214D01*
X8455357Y-13968214D02*
X8455357Y-13668214D01*
X8555357Y-13882500D01*
X8655357Y-13668214D01*
X8655357Y-13968214D01*
X8926786Y-13968214D02*
X8926786Y-13811071D01*
X8912500Y-13782500D01*
X8883928Y-13768214D01*
X8826786Y-13768214D01*
X8798214Y-13782500D01*
X8926786Y-13953929D02*
X8898214Y-13968214D01*
X8826786Y-13968214D01*
X8798214Y-13953929D01*
X8783928Y-13925357D01*
X8783928Y-13896786D01*
X8798214Y-13868214D01*
X8826786Y-13853929D01*
X8898214Y-13853929D01*
X8926786Y-13839643D01*
X9069643Y-13768214D02*
X9069643Y-14068214D01*
X9069643Y-13782500D02*
X9098214Y-13768214D01*
X9155357Y-13768214D01*
X9183928Y-13782500D01*
X9198214Y-13796786D01*
X9212500Y-13825357D01*
X9212500Y-13911071D01*
X9198214Y-13939643D01*
X9183928Y-13953929D01*
X9155357Y-13968214D01*
X9098214Y-13968214D01*
X9069643Y-13953929D01*
X9341071Y-13939643D02*
X9355357Y-13953929D01*
X9341071Y-13968214D01*
X9326786Y-13953929D01*
X9341071Y-13939643D01*
X9341071Y-13968214D01*
X9341071Y-13782500D02*
X9355357Y-13796786D01*
X9341071Y-13811071D01*
X9326786Y-13796786D01*
X9341071Y-13782500D01*
X9341071Y-13811071D01*
X6877500Y-14402500D02*
X6997500Y-14522500D01*
X6997500Y-14402500D02*
X6877500Y-14522500D01*
X7441071Y-14598214D02*
X7269643Y-14598214D01*
X7355357Y-14598214D02*
X7355357Y-14298214D01*
X7326786Y-14341071D01*
X7298214Y-14369643D01*
X7269643Y-14383929D01*
X7569643Y-14569643D02*
X7583928Y-14583929D01*
X7569643Y-14598214D01*
X7555357Y-14583929D01*
X7569643Y-14569643D01*
X7569643Y-14598214D01*
X7698214Y-14326786D02*
X7712500Y-14312500D01*
X7741071Y-14298214D01*
X7812500Y-14298214D01*
X7841071Y-14312500D01*
X7855357Y-14326786D01*
X7869643Y-14355357D01*
X7869643Y-14383929D01*
X7855357Y-14426786D01*
X7683928Y-14598214D01*
X7869643Y-14598214D01*
X8055357Y-14298214D02*
X8083928Y-14298214D01*
X8112500Y-14312500D01*
X8126786Y-14326786D01*
X8141071Y-14355357D01*
X8155357Y-14412500D01*
X8155357Y-14483929D01*
X8141071Y-14541071D01*
X8126786Y-14569643D01*
X8112500Y-14583929D01*
X8083928Y-14598214D01*
X8055357Y-14598214D01*
X8026786Y-14583929D01*
X8012500Y-14569643D01*
X7998214Y-14541071D01*
X7983928Y-14483929D01*
X7983928Y-14412500D01*
X7998214Y-14355357D01*
X8012500Y-14326786D01*
X8026786Y-14312500D01*
X8055357Y-14298214D01*
X8283928Y-14598214D02*
X8283928Y-14398214D01*
X8283928Y-14426786D02*
X8298214Y-14412500D01*
X8326786Y-14398214D01*
X8369643Y-14398214D01*
X8398214Y-14412500D01*
X8412500Y-14441071D01*
X8412500Y-14598214D01*
X8412500Y-14441071D02*
X8426786Y-14412500D01*
X8455357Y-14398214D01*
X8498214Y-14398214D01*
X8526786Y-14412500D01*
X8541071Y-14441071D01*
X8541071Y-14598214D01*
X8683928Y-14598214D02*
X8683928Y-14398214D01*
X8683928Y-14426786D02*
X8698214Y-14412500D01*
X8726786Y-14398214D01*
X8769643Y-14398214D01*
X8798214Y-14412500D01*
X8812500Y-14441071D01*
X8812500Y-14598214D01*
X8812500Y-14441071D02*
X8826786Y-14412500D01*
X8855357Y-14398214D01*
X8898214Y-14398214D01*
X8926786Y-14412500D01*
X8941071Y-14441071D01*
X8941071Y-14598214D01*
X9526786Y-14283929D02*
X9269643Y-14669643D01*
X9912500Y-14298214D02*
X9941071Y-14298214D01*
X9969643Y-14312500D01*
X9983928Y-14326786D01*
X9998214Y-14355357D01*
X10012500Y-14412500D01*
X10012500Y-14483929D01*
X9998214Y-14541071D01*
X9983928Y-14569643D01*
X9969643Y-14583929D01*
X9941071Y-14598214D01*
X9912500Y-14598214D01*
X9883928Y-14583929D01*
X9869643Y-14569643D01*
X9855357Y-14541071D01*
X9841071Y-14483929D01*
X9841071Y-14412500D01*
X9855357Y-14355357D01*
X9869643Y-14326786D01*
X9883928Y-14312500D01*
X9912500Y-14298214D01*
X10141071Y-14569643D02*
X10155357Y-14583929D01*
X10141071Y-14598214D01*
X10126786Y-14583929D01*
X10141071Y-14569643D01*
X10141071Y-14598214D01*
X10341071Y-14298214D02*
X10369643Y-14298214D01*
X10398214Y-14312500D01*
X10412500Y-14326786D01*
X10426786Y-14355357D01*
X10441071Y-14412500D01*
X10441071Y-14483929D01*
X10426786Y-14541071D01*
X10412500Y-14569643D01*
X10398214Y-14583929D01*
X10369643Y-14598214D01*
X10341071Y-14598214D01*
X10312500Y-14583929D01*
X10298214Y-14569643D01*
X10283928Y-14541071D01*
X10269643Y-14483929D01*
X10269643Y-14412500D01*
X10283928Y-14355357D01*
X10298214Y-14326786D01*
X10312500Y-14312500D01*
X10341071Y-14298214D01*
X10698214Y-14398214D02*
X10698214Y-14598214D01*
X10626786Y-14283929D02*
X10555357Y-14498214D01*
X10741071Y-14498214D01*
X10826786Y-14298214D02*
X11026786Y-14298214D01*
X10898214Y-14598214D01*
X11126786Y-14298214D02*
X11126786Y-14355357D01*
X11241071Y-14298214D02*
X11241071Y-14355357D01*
X11683928Y-14712500D02*
X11669643Y-14698214D01*
X11641071Y-14655357D01*
X11626786Y-14626786D01*
X11612500Y-14583929D01*
X11598214Y-14512500D01*
X11598214Y-14455357D01*
X11612500Y-14383929D01*
X11626786Y-14341071D01*
X11641071Y-14312500D01*
X11669643Y-14269643D01*
X11683928Y-14255357D01*
X11783928Y-14326786D02*
X11798214Y-14312500D01*
X11826786Y-14298214D01*
X11898214Y-14298214D01*
X11926786Y-14312500D01*
X11941071Y-14326786D01*
X11955357Y-14355357D01*
X11955357Y-14383929D01*
X11941071Y-14426786D01*
X11769643Y-14598214D01*
X11955357Y-14598214D01*
X12312500Y-14598214D02*
X12312500Y-14298214D01*
X12441071Y-14598214D02*
X12441071Y-14441071D01*
X12426786Y-14412500D01*
X12398214Y-14398214D01*
X12355357Y-14398214D01*
X12326786Y-14412500D01*
X12312500Y-14426786D01*
X12626786Y-14598214D02*
X12598214Y-14583929D01*
X12583928Y-14569643D01*
X12569643Y-14541071D01*
X12569643Y-14455357D01*
X12583928Y-14426786D01*
X12598214Y-14412500D01*
X12626786Y-14398214D01*
X12669643Y-14398214D01*
X12698214Y-14412500D01*
X12712500Y-14426786D01*
X12726786Y-14455357D01*
X12726786Y-14541071D01*
X12712500Y-14569643D01*
X12698214Y-14583929D01*
X12669643Y-14598214D01*
X12626786Y-14598214D01*
X12898214Y-14598214D02*
X12869643Y-14583929D01*
X12855357Y-14555357D01*
X12855357Y-14298214D01*
X13126786Y-14583929D02*
X13098214Y-14598214D01*
X13041071Y-14598214D01*
X13012500Y-14583929D01*
X12998214Y-14555357D01*
X12998214Y-14441071D01*
X13012500Y-14412500D01*
X13041071Y-14398214D01*
X13098214Y-14398214D01*
X13126786Y-14412500D01*
X13141071Y-14441071D01*
X13141071Y-14469643D01*
X12998214Y-14498214D01*
X13255357Y-14583929D02*
X13283928Y-14598214D01*
X13341071Y-14598214D01*
X13369643Y-14583929D01*
X13383928Y-14555357D01*
X13383928Y-14541071D01*
X13369643Y-14512500D01*
X13341071Y-14498214D01*
X13298214Y-14498214D01*
X13269643Y-14483929D01*
X13255357Y-14455357D01*
X13255357Y-14441071D01*
X13269643Y-14412500D01*
X13298214Y-14398214D01*
X13341071Y-14398214D01*
X13369643Y-14412500D01*
X13483928Y-14712500D02*
X13498214Y-14698214D01*
X13526786Y-14655357D01*
X13541071Y-14626786D01*
X13555357Y-14583929D01*
X13569643Y-14512500D01*
X13569643Y-14455357D01*
X13555357Y-14383929D01*
X13541071Y-14341071D01*
X13526786Y-14312500D01*
X13498214Y-14269643D01*
X13483928Y-14255357D01*
X14026786Y-14712500D02*
X14012500Y-14698214D01*
X13983928Y-14655357D01*
X13969643Y-14626786D01*
X13955357Y-14583929D01*
X13941071Y-14512500D01*
X13941071Y-14455357D01*
X13955357Y-14383929D01*
X13969643Y-14341071D01*
X13983928Y-14312500D01*
X14012500Y-14269643D01*
X14026786Y-14255357D01*
X14141071Y-14398214D02*
X14141071Y-14598214D01*
X14141071Y-14426786D02*
X14155357Y-14412500D01*
X14183928Y-14398214D01*
X14226786Y-14398214D01*
X14255357Y-14412500D01*
X14269643Y-14441071D01*
X14269643Y-14598214D01*
X14455357Y-14598214D02*
X14426786Y-14583929D01*
X14412500Y-14569643D01*
X14398214Y-14541071D01*
X14398214Y-14455357D01*
X14412500Y-14426786D01*
X14426786Y-14412500D01*
X14455357Y-14398214D01*
X14498214Y-14398214D01*
X14526786Y-14412500D01*
X14541071Y-14426786D01*
X14555357Y-14455357D01*
X14555357Y-14541071D01*
X14541071Y-14569643D01*
X14526786Y-14583929D01*
X14498214Y-14598214D01*
X14455357Y-14598214D01*
X14641071Y-14398214D02*
X14755357Y-14398214D01*
X14683928Y-14298214D02*
X14683928Y-14555357D01*
X14698214Y-14583929D01*
X14726786Y-14598214D01*
X14755357Y-14598214D01*
X15083928Y-14398214D02*
X15083928Y-14698214D01*
X15083928Y-14412500D02*
X15112500Y-14398214D01*
X15169643Y-14398214D01*
X15198214Y-14412500D01*
X15212500Y-14426786D01*
X15226786Y-14455357D01*
X15226786Y-14541071D01*
X15212500Y-14569643D01*
X15198214Y-14583929D01*
X15169643Y-14598214D01*
X15112500Y-14598214D01*
X15083928Y-14583929D01*
X15398214Y-14598214D02*
X15369643Y-14583929D01*
X15355357Y-14555357D01*
X15355357Y-14298214D01*
X15641071Y-14598214D02*
X15641071Y-14441071D01*
X15626786Y-14412500D01*
X15598214Y-14398214D01*
X15541071Y-14398214D01*
X15512500Y-14412500D01*
X15641071Y-14583929D02*
X15612500Y-14598214D01*
X15541071Y-14598214D01*
X15512500Y-14583929D01*
X15498214Y-14555357D01*
X15498214Y-14526786D01*
X15512500Y-14498214D01*
X15541071Y-14483929D01*
X15612500Y-14483929D01*
X15641071Y-14469643D01*
X15741071Y-14398214D02*
X15855357Y-14398214D01*
X15783928Y-14298214D02*
X15783928Y-14555357D01*
X15798214Y-14583929D01*
X15826786Y-14598214D01*
X15855357Y-14598214D01*
X16069643Y-14583929D02*
X16041071Y-14598214D01*
X15983928Y-14598214D01*
X15955357Y-14583929D01*
X15941071Y-14555357D01*
X15941071Y-14441071D01*
X15955357Y-14412500D01*
X15983928Y-14398214D01*
X16041071Y-14398214D01*
X16069643Y-14412500D01*
X16083928Y-14441071D01*
X16083928Y-14469643D01*
X15941071Y-14498214D01*
X16341071Y-14598214D02*
X16341071Y-14298214D01*
X16341071Y-14583929D02*
X16312500Y-14598214D01*
X16255357Y-14598214D01*
X16226786Y-14583929D01*
X16212500Y-14569643D01*
X16198214Y-14541071D01*
X16198214Y-14455357D01*
X16212500Y-14426786D01*
X16226786Y-14412500D01*
X16255357Y-14398214D01*
X16312500Y-14398214D01*
X16341071Y-14412500D01*
X16455357Y-14712500D02*
X16469643Y-14698214D01*
X16498214Y-14655357D01*
X16512500Y-14626786D01*
X16526786Y-14583929D01*
X16541071Y-14512500D01*
X16541071Y-14455357D01*
X16526786Y-14383929D01*
X16512500Y-14341071D01*
X16498214Y-14312500D01*
X16469643Y-14269643D01*
X16455357Y-14255357D01*
X6997500Y-14858500D02*
G75*
G03*
X6997500Y-14858500I-135000J0D01*
G01*
X7269643Y-14722786D02*
X7283928Y-14708500D01*
X7312500Y-14694214D01*
X7383928Y-14694214D01*
X7412500Y-14708500D01*
X7426786Y-14722786D01*
X7441071Y-14751357D01*
X7441071Y-14779929D01*
X7426786Y-14822786D01*
X7255357Y-14994214D01*
X7441071Y-14994214D01*
X7569643Y-14965643D02*
X7583928Y-14979929D01*
X7569643Y-14994214D01*
X7555357Y-14979929D01*
X7569643Y-14965643D01*
X7569643Y-14994214D01*
X7683928Y-14694214D02*
X7883928Y-14694214D01*
X7755357Y-14994214D01*
X8055357Y-14694214D02*
X8083928Y-14694214D01*
X8112500Y-14708500D01*
X8126786Y-14722786D01*
X8141071Y-14751357D01*
X8155357Y-14808500D01*
X8155357Y-14879929D01*
X8141071Y-14937071D01*
X8126786Y-14965643D01*
X8112500Y-14979929D01*
X8083928Y-14994214D01*
X8055357Y-14994214D01*
X8026786Y-14979929D01*
X8012500Y-14965643D01*
X7998214Y-14937071D01*
X7983928Y-14879929D01*
X7983928Y-14808500D01*
X7998214Y-14751357D01*
X8012500Y-14722786D01*
X8026786Y-14708500D01*
X8055357Y-14694214D01*
X8283928Y-14994214D02*
X8283928Y-14794214D01*
X8283928Y-14822786D02*
X8298214Y-14808500D01*
X8326786Y-14794214D01*
X8369643Y-14794214D01*
X8398214Y-14808500D01*
X8412500Y-14837071D01*
X8412500Y-14994214D01*
X8412500Y-14837071D02*
X8426786Y-14808500D01*
X8455357Y-14794214D01*
X8498214Y-14794214D01*
X8526786Y-14808500D01*
X8541071Y-14837071D01*
X8541071Y-14994214D01*
X8683928Y-14994214D02*
X8683928Y-14794214D01*
X8683928Y-14822786D02*
X8698214Y-14808500D01*
X8726786Y-14794214D01*
X8769643Y-14794214D01*
X8798214Y-14808500D01*
X8812500Y-14837071D01*
X8812500Y-14994214D01*
X8812500Y-14837071D02*
X8826786Y-14808500D01*
X8855357Y-14794214D01*
X8898214Y-14794214D01*
X8926786Y-14808500D01*
X8941071Y-14837071D01*
X8941071Y-14994214D01*
X9526786Y-14679929D02*
X9269643Y-15065643D01*
X9912500Y-14694214D02*
X9941071Y-14694214D01*
X9969643Y-14708500D01*
X9983928Y-14722786D01*
X9998214Y-14751357D01*
X10012500Y-14808500D01*
X10012500Y-14879929D01*
X9998214Y-14937071D01*
X9983928Y-14965643D01*
X9969643Y-14979929D01*
X9941071Y-14994214D01*
X9912500Y-14994214D01*
X9883928Y-14979929D01*
X9869643Y-14965643D01*
X9855357Y-14937071D01*
X9841071Y-14879929D01*
X9841071Y-14808500D01*
X9855357Y-14751357D01*
X9869643Y-14722786D01*
X9883928Y-14708500D01*
X9912500Y-14694214D01*
X10141071Y-14965643D02*
X10155357Y-14979929D01*
X10141071Y-14994214D01*
X10126786Y-14979929D01*
X10141071Y-14965643D01*
X10141071Y-14994214D01*
X10441071Y-14994214D02*
X10269643Y-14994214D01*
X10355357Y-14994214D02*
X10355357Y-14694214D01*
X10326786Y-14737071D01*
X10298214Y-14765643D01*
X10269643Y-14779929D01*
X10626786Y-14694214D02*
X10655357Y-14694214D01*
X10683928Y-14708500D01*
X10698214Y-14722786D01*
X10712500Y-14751357D01*
X10726786Y-14808500D01*
X10726786Y-14879929D01*
X10712500Y-14937071D01*
X10698214Y-14965643D01*
X10683928Y-14979929D01*
X10655357Y-14994214D01*
X10626786Y-14994214D01*
X10598214Y-14979929D01*
X10583928Y-14965643D01*
X10569643Y-14937071D01*
X10555357Y-14879929D01*
X10555357Y-14808500D01*
X10569643Y-14751357D01*
X10583928Y-14722786D01*
X10598214Y-14708500D01*
X10626786Y-14694214D01*
X10983928Y-14694214D02*
X10926786Y-14694214D01*
X10898214Y-14708500D01*
X10883928Y-14722786D01*
X10855357Y-14765643D01*
X10841071Y-14822786D01*
X10841071Y-14937071D01*
X10855357Y-14965643D01*
X10869643Y-14979929D01*
X10898214Y-14994214D01*
X10955357Y-14994214D01*
X10983928Y-14979929D01*
X10998214Y-14965643D01*
X11012500Y-14937071D01*
X11012500Y-14865643D01*
X10998214Y-14837071D01*
X10983928Y-14822786D01*
X10955357Y-14808500D01*
X10898214Y-14808500D01*
X10869643Y-14822786D01*
X10855357Y-14837071D01*
X10841071Y-14865643D01*
X11126786Y-14694214D02*
X11126786Y-14751357D01*
X11241071Y-14694214D02*
X11241071Y-14751357D01*
X11683928Y-15108500D02*
X11669643Y-15094214D01*
X11641071Y-15051357D01*
X11626786Y-15022786D01*
X11612500Y-14979929D01*
X11598214Y-14908500D01*
X11598214Y-14851357D01*
X11612500Y-14779929D01*
X11626786Y-14737071D01*
X11641071Y-14708500D01*
X11669643Y-14665643D01*
X11683928Y-14651357D01*
X11783928Y-14722786D02*
X11798214Y-14708500D01*
X11826786Y-14694214D01*
X11898214Y-14694214D01*
X11926786Y-14708500D01*
X11941071Y-14722786D01*
X11955357Y-14751357D01*
X11955357Y-14779929D01*
X11941071Y-14822786D01*
X11769643Y-14994214D01*
X11955357Y-14994214D01*
X12312500Y-14994214D02*
X12312500Y-14694214D01*
X12441071Y-14994214D02*
X12441071Y-14837071D01*
X12426786Y-14808500D01*
X12398214Y-14794214D01*
X12355357Y-14794214D01*
X12326786Y-14808500D01*
X12312500Y-14822786D01*
X12626786Y-14994214D02*
X12598214Y-14979929D01*
X12583928Y-14965643D01*
X12569643Y-14937071D01*
X12569643Y-14851357D01*
X12583928Y-14822786D01*
X12598214Y-14808500D01*
X12626786Y-14794214D01*
X12669643Y-14794214D01*
X12698214Y-14808500D01*
X12712500Y-14822786D01*
X12726786Y-14851357D01*
X12726786Y-14937071D01*
X12712500Y-14965643D01*
X12698214Y-14979929D01*
X12669643Y-14994214D01*
X12626786Y-14994214D01*
X12898214Y-14994214D02*
X12869643Y-14979929D01*
X12855357Y-14951357D01*
X12855357Y-14694214D01*
X13126786Y-14979929D02*
X13098214Y-14994214D01*
X13041071Y-14994214D01*
X13012500Y-14979929D01*
X12998214Y-14951357D01*
X12998214Y-14837071D01*
X13012500Y-14808500D01*
X13041071Y-14794214D01*
X13098214Y-14794214D01*
X13126786Y-14808500D01*
X13141071Y-14837071D01*
X13141071Y-14865643D01*
X12998214Y-14894214D01*
X13255357Y-14979929D02*
X13283928Y-14994214D01*
X13341071Y-14994214D01*
X13369643Y-14979929D01*
X13383928Y-14951357D01*
X13383928Y-14937071D01*
X13369643Y-14908500D01*
X13341071Y-14894214D01*
X13298214Y-14894214D01*
X13269643Y-14879929D01*
X13255357Y-14851357D01*
X13255357Y-14837071D01*
X13269643Y-14808500D01*
X13298214Y-14794214D01*
X13341071Y-14794214D01*
X13369643Y-14808500D01*
X13483928Y-15108500D02*
X13498214Y-15094214D01*
X13526786Y-15051357D01*
X13541071Y-15022786D01*
X13555357Y-14979929D01*
X13569643Y-14908500D01*
X13569643Y-14851357D01*
X13555357Y-14779929D01*
X13541071Y-14737071D01*
X13526786Y-14708500D01*
X13498214Y-14665643D01*
X13483928Y-14651357D01*
X14026786Y-15108500D02*
X14012500Y-15094214D01*
X13983928Y-15051357D01*
X13969643Y-15022786D01*
X13955357Y-14979929D01*
X13941071Y-14908500D01*
X13941071Y-14851357D01*
X13955357Y-14779929D01*
X13969643Y-14737071D01*
X13983928Y-14708500D01*
X14012500Y-14665643D01*
X14026786Y-14651357D01*
X14141071Y-14794214D02*
X14141071Y-14994214D01*
X14141071Y-14822786D02*
X14155357Y-14808500D01*
X14183928Y-14794214D01*
X14226786Y-14794214D01*
X14255357Y-14808500D01*
X14269643Y-14837071D01*
X14269643Y-14994214D01*
X14455357Y-14994214D02*
X14426786Y-14979929D01*
X14412500Y-14965643D01*
X14398214Y-14937071D01*
X14398214Y-14851357D01*
X14412500Y-14822786D01*
X14426786Y-14808500D01*
X14455357Y-14794214D01*
X14498214Y-14794214D01*
X14526786Y-14808500D01*
X14541071Y-14822786D01*
X14555357Y-14851357D01*
X14555357Y-14937071D01*
X14541071Y-14965643D01*
X14526786Y-14979929D01*
X14498214Y-14994214D01*
X14455357Y-14994214D01*
X14641071Y-14794214D02*
X14755357Y-14794214D01*
X14683928Y-14694214D02*
X14683928Y-14951357D01*
X14698214Y-14979929D01*
X14726786Y-14994214D01*
X14755357Y-14994214D01*
X15083928Y-14794214D02*
X15083928Y-15094214D01*
X15083928Y-14808500D02*
X15112500Y-14794214D01*
X15169643Y-14794214D01*
X15198214Y-14808500D01*
X15212500Y-14822786D01*
X15226786Y-14851357D01*
X15226786Y-14937071D01*
X15212500Y-14965643D01*
X15198214Y-14979929D01*
X15169643Y-14994214D01*
X15112500Y-14994214D01*
X15083928Y-14979929D01*
X15398214Y-14994214D02*
X15369643Y-14979929D01*
X15355357Y-14951357D01*
X15355357Y-14694214D01*
X15641071Y-14994214D02*
X15641071Y-14837071D01*
X15626786Y-14808500D01*
X15598214Y-14794214D01*
X15541071Y-14794214D01*
X15512500Y-14808500D01*
X15641071Y-14979929D02*
X15612500Y-14994214D01*
X15541071Y-14994214D01*
X15512500Y-14979929D01*
X15498214Y-14951357D01*
X15498214Y-14922786D01*
X15512500Y-14894214D01*
X15541071Y-14879929D01*
X15612500Y-14879929D01*
X15641071Y-14865643D01*
X15741071Y-14794214D02*
X15855357Y-14794214D01*
X15783928Y-14694214D02*
X15783928Y-14951357D01*
X15798214Y-14979929D01*
X15826786Y-14994214D01*
X15855357Y-14994214D01*
X16069643Y-14979929D02*
X16041071Y-14994214D01*
X15983928Y-14994214D01*
X15955357Y-14979929D01*
X15941071Y-14951357D01*
X15941071Y-14837071D01*
X15955357Y-14808500D01*
X15983928Y-14794214D01*
X16041071Y-14794214D01*
X16069643Y-14808500D01*
X16083928Y-14837071D01*
X16083928Y-14865643D01*
X15941071Y-14894214D01*
X16341071Y-14994214D02*
X16341071Y-14694214D01*
X16341071Y-14979929D02*
X16312500Y-14994214D01*
X16255357Y-14994214D01*
X16226786Y-14979929D01*
X16212500Y-14965643D01*
X16198214Y-14937071D01*
X16198214Y-14851357D01*
X16212500Y-14822786D01*
X16226786Y-14808500D01*
X16255357Y-14794214D01*
X16312500Y-14794214D01*
X16341071Y-14808500D01*
X16455357Y-15108500D02*
X16469643Y-15094214D01*
X16498214Y-15051357D01*
X16512500Y-15022786D01*
X16526786Y-14979929D01*
X16541071Y-14908500D01*
X16541071Y-14851357D01*
X16526786Y-14779929D01*
X16512500Y-14737071D01*
X16498214Y-14708500D01*
X16469643Y-14665643D01*
X16455357Y-14651357D01*
M02*
