G04 #@! TF.GenerationSoftware,KiCad,Pcbnew,5.1.6+dfsg1-1~bpo9+1*
G04 #@! TF.CreationDate,2022-04-20T22:27:00+02:00*
G04 #@! TF.ProjectId,sdrtrx-powerswitch,73647274-7278-42d7-906f-776572737769,rev?*
G04 #@! TF.SameCoordinates,Original*
G04 #@! TF.FileFunction,Legend,Bot*
G04 #@! TF.FilePolarity,Positive*
%FSLAX46Y46*%
G04 Gerber Fmt 4.6, Leading zero omitted, Abs format (unit mm)*
G04 Created by KiCad (PCBNEW 5.1.6+dfsg1-1~bpo9+1) date 2022-04-20 22:27:00*
%MOMM*%
%LPD*%
G01*
G04 APERTURE LIST*
%ADD10C,1.300000*%
%ADD11O,2.100000X1.800000*%
%ADD12C,3.100000*%
%ADD13R,3.100000X3.100000*%
%ADD14O,2.600000X1.600000*%
%ADD15R,2.600000X1.600000*%
%ADD16C,2.800000*%
%ADD17C,6.500000*%
G04 APERTURE END LIST*
%LPC*%
D10*
X76200000Y-125000000D03*
D11*
X74200000Y-120900000D03*
G36*
G01*
X74985294Y-124300000D02*
X73414706Y-124300000D01*
G75*
G02*
X73150000Y-124035294I0J264706D01*
G01*
X73150000Y-122764706D01*
G75*
G02*
X73414706Y-122500000I264706J0D01*
G01*
X74985294Y-122500000D01*
G75*
G02*
X75250000Y-122764706I0J-264706D01*
G01*
X75250000Y-124035294D01*
G75*
G02*
X74985294Y-124300000I-264706J0D01*
G01*
G37*
G36*
G01*
X81887000Y-61109910D02*
X81887000Y-58778090D01*
G75*
G02*
X82146090Y-58519000I259090J0D01*
G01*
X84477910Y-58519000D01*
G75*
G02*
X84737000Y-58778090I0J-259090D01*
G01*
X84737000Y-61109910D01*
G75*
G02*
X84477910Y-61369000I-259090J0D01*
G01*
X82146090Y-61369000D01*
G75*
G02*
X81887000Y-61109910I0J259090D01*
G01*
G37*
G36*
G01*
X87094000Y-61109910D02*
X87094000Y-58778090D01*
G75*
G02*
X87353090Y-58519000I259090J0D01*
G01*
X89684910Y-58519000D01*
G75*
G02*
X89944000Y-58778090I0J-259090D01*
G01*
X89944000Y-61109910D01*
G75*
G02*
X89684910Y-61369000I-259090J0D01*
G01*
X87353090Y-61369000D01*
G75*
G02*
X87094000Y-61109910I0J259090D01*
G01*
G37*
G36*
G01*
X96111000Y-61109910D02*
X96111000Y-58778090D01*
G75*
G02*
X96370090Y-58519000I259090J0D01*
G01*
X98701910Y-58519000D01*
G75*
G02*
X98961000Y-58778090I0J-259090D01*
G01*
X98961000Y-61109910D01*
G75*
G02*
X98701910Y-61369000I-259090J0D01*
G01*
X96370090Y-61369000D01*
G75*
G02*
X96111000Y-61109910I0J259090D01*
G01*
G37*
G36*
G01*
X108303000Y-61109910D02*
X108303000Y-58778090D01*
G75*
G02*
X108562090Y-58519000I259090J0D01*
G01*
X110893910Y-58519000D01*
G75*
G02*
X111153000Y-58778090I0J-259090D01*
G01*
X111153000Y-61109910D01*
G75*
G02*
X110893910Y-61369000I-259090J0D01*
G01*
X108562090Y-61369000D01*
G75*
G02*
X108303000Y-61109910I0J259090D01*
G01*
G37*
G36*
G01*
X76426000Y-116989910D02*
X76426000Y-114658090D01*
G75*
G02*
X76685090Y-114399000I259090J0D01*
G01*
X79016910Y-114399000D01*
G75*
G02*
X79276000Y-114658090I0J-259090D01*
G01*
X79276000Y-116989910D01*
G75*
G02*
X79016910Y-117249000I-259090J0D01*
G01*
X76685090Y-117249000D01*
G75*
G02*
X76426000Y-116989910I0J259090D01*
G01*
G37*
G36*
G01*
X86586000Y-117116910D02*
X86586000Y-114785090D01*
G75*
G02*
X86845090Y-114526000I259090J0D01*
G01*
X89176910Y-114526000D01*
G75*
G02*
X89436000Y-114785090I0J-259090D01*
G01*
X89436000Y-117116910D01*
G75*
G02*
X89176910Y-117376000I-259090J0D01*
G01*
X86845090Y-117376000D01*
G75*
G02*
X86586000Y-117116910I0J259090D01*
G01*
G37*
D12*
X88011000Y-107188000D03*
X77851000Y-102108000D03*
X88011000Y-97028000D03*
X77851000Y-97028000D03*
X77851000Y-107188000D03*
X88011000Y-102108000D03*
D13*
X77851000Y-81788000D03*
D12*
X88011000Y-81788000D03*
D10*
X111791500Y-131648000D03*
D11*
X109791500Y-127548000D03*
G36*
G01*
X110576794Y-130948000D02*
X109006206Y-130948000D01*
G75*
G02*
X108741500Y-130683294I0J264706D01*
G01*
X108741500Y-129412706D01*
G75*
G02*
X109006206Y-129148000I264706J0D01*
G01*
X110576794Y-129148000D01*
G75*
G02*
X110841500Y-129412706I0J-264706D01*
G01*
X110841500Y-130683294D01*
G75*
G02*
X110576794Y-130948000I-264706J0D01*
G01*
G37*
D14*
X94805500Y-129921000D03*
X94805500Y-127381000D03*
D15*
X94805500Y-124841000D03*
D16*
X97536000Y-77544000D03*
D12*
X97536000Y-88794000D03*
X97536000Y-66294000D03*
D16*
X109728000Y-77544000D03*
D12*
X109728000Y-88794000D03*
X109728000Y-66294000D03*
D17*
X120000000Y-130000000D03*
X120000000Y-60000000D03*
X75000000Y-60000000D03*
X75000000Y-130000000D03*
M02*
