%FSLAX45Y45*%
G04 Gerber Fmt 4.5, Leading zero omitted, Abs format (unit mm)*
G04 Created by KiCad (PCBNEW 5.1.6+dfsg1-1~bpo9+1) date 2022-04-20 22:27:03*
%MOMM*%
%LPD*%
G01*
G04 APERTURE LIST*
%TA.AperFunction,Profile*%
%ADD10C,0.050000*%
%TD*%
%ADD11C,0.200000*%
%ADD12C,0.300000*%
G04 APERTURE END LIST*
D10*
X7000000Y-5500000D02*
X12500000Y-5500000D01*
X12500000Y-13500000D02*
X12500000Y-5500000D01*
X7000000Y-13500000D02*
X7000000Y-5500000D01*
X7000000Y-13500000D02*
X12500000Y-13500000D01*
D11*
X10457500Y-9873300D02*
X10497500Y-9913300D01*
X10497500Y-9873300D02*
X10457500Y-9913300D01*
X10667050Y-10457500D02*
X10707050Y-10497500D01*
X10707050Y-10457500D02*
X10667050Y-10497500D01*
X7470000Y-12090000D02*
G75*
G03*
X7470000Y-12090000I-50000J0D01*
G01*
X7470000Y-12340000D02*
G75*
G03*
X7470000Y-12340000I-50000J0D01*
G01*
X11029150Y-12754800D02*
G75*
G03*
X11029150Y-12754800I-50000J0D01*
G01*
X11029150Y-13004800D02*
G75*
G03*
X11029150Y-13004800I-50000J0D01*
G01*
X9530550Y-12484100D02*
G75*
G03*
X9530550Y-12484100I-50000J0D01*
G01*
X9530550Y-12738100D02*
G75*
G03*
X9530550Y-12738100I-50000J0D01*
G01*
X9530550Y-12992100D02*
G75*
G03*
X9530550Y-12992100I-50000J0D01*
G01*
X10972800Y-6564400D02*
X10972800Y-6694400D01*
X10907800Y-6629400D02*
X11037800Y-6629400D01*
X10972800Y-8814400D02*
X10972800Y-8944400D01*
X10907800Y-8879400D02*
X11037800Y-8879400D01*
X9753600Y-6564400D02*
X9753600Y-6694400D01*
X9688600Y-6629400D02*
X9818600Y-6629400D01*
X9753600Y-8814400D02*
X9753600Y-8944400D01*
X9688600Y-8879400D02*
X9818600Y-8879400D01*
X7838133Y-8231833D02*
X7838133Y-8125766D01*
X7732066Y-8125766D01*
X7732066Y-8231833D01*
X7838133Y-8231833D01*
X7838133Y-9755834D02*
X7838133Y-9649767D01*
X7732066Y-9649767D01*
X7732066Y-9755834D01*
X7838133Y-9755834D01*
X7838133Y-10263834D02*
X7838133Y-10157767D01*
X7732066Y-10157767D01*
X7732066Y-10263834D01*
X7838133Y-10263834D01*
X7838133Y-10771834D02*
X7838133Y-10665767D01*
X7732066Y-10665767D01*
X7732066Y-10771834D01*
X7838133Y-10771834D01*
X8854134Y-8231833D02*
X8854134Y-8125766D01*
X8748067Y-8125766D01*
X8748067Y-8231833D01*
X8854134Y-8231833D01*
X8854134Y-9755834D02*
X8854134Y-9649767D01*
X8748067Y-9649767D01*
X8748067Y-9755834D01*
X8854134Y-9755834D01*
X8854134Y-10263834D02*
X8854134Y-10157767D01*
X8748067Y-10157767D01*
X8748067Y-10263834D01*
X8854134Y-10263834D01*
X8854134Y-10771834D02*
X8854134Y-10665767D01*
X8748067Y-10665767D01*
X8748067Y-10771834D01*
X8854134Y-10771834D01*
X7785100Y-11669900D02*
X7872600Y-11582400D01*
X7785100Y-11494900D01*
X7697600Y-11582400D01*
X7785100Y-11669900D01*
X8801100Y-11682600D02*
X8888600Y-11595100D01*
X8801100Y-11507600D01*
X8713600Y-11595100D01*
X8801100Y-11682600D01*
X8331200Y-6081900D02*
X8418700Y-5994400D01*
X8331200Y-5906900D01*
X8243700Y-5994400D01*
X8331200Y-6081900D01*
X9753600Y-6081900D02*
X9841100Y-5994400D01*
X9753600Y-5906900D01*
X9666100Y-5994400D01*
X9753600Y-6081900D01*
X10972800Y-6081900D02*
X11060300Y-5994400D01*
X10972800Y-5906900D01*
X10885300Y-5994400D01*
X10972800Y-6081900D01*
X8851900Y-6081900D02*
X8939400Y-5994400D01*
X8851900Y-5906900D01*
X8764400Y-5994400D01*
X8851900Y-6081900D01*
X11840000Y-5840000D02*
X12160000Y-6160000D01*
X12160000Y-5840000D02*
X11840000Y-6160000D01*
X12160000Y-6000000D02*
G75*
G03*
X12160000Y-6000000I-160000J0D01*
G01*
X11840000Y-12840000D02*
X12160000Y-13160000D01*
X12160000Y-12840000D02*
X11840000Y-13160000D01*
X12160000Y-13000000D02*
G75*
G03*
X12160000Y-13000000I-160000J0D01*
G01*
X7340000Y-5840000D02*
X7660000Y-6160000D01*
X7660000Y-5840000D02*
X7340000Y-6160000D01*
X7660000Y-6000000D02*
G75*
G03*
X7660000Y-6000000I-160000J0D01*
G01*
X7340000Y-12840000D02*
X7660000Y-13160000D01*
X7660000Y-12840000D02*
X7340000Y-13160000D01*
X7660000Y-13000000D02*
G75*
G03*
X7660000Y-13000000I-160000J0D01*
G01*
D12*
X7283928Y-13968214D02*
X7283928Y-13668214D01*
X7355357Y-13668214D01*
X7398214Y-13682500D01*
X7426786Y-13711071D01*
X7441071Y-13739643D01*
X7455357Y-13796786D01*
X7455357Y-13839643D01*
X7441071Y-13896786D01*
X7426786Y-13925357D01*
X7398214Y-13953929D01*
X7355357Y-13968214D01*
X7283928Y-13968214D01*
X7583928Y-13968214D02*
X7583928Y-13768214D01*
X7583928Y-13825357D02*
X7598214Y-13796786D01*
X7612500Y-13782500D01*
X7641071Y-13768214D01*
X7669643Y-13768214D01*
X7769643Y-13968214D02*
X7769643Y-13768214D01*
X7769643Y-13668214D02*
X7755357Y-13682500D01*
X7769643Y-13696786D01*
X7783928Y-13682500D01*
X7769643Y-13668214D01*
X7769643Y-13696786D01*
X7955357Y-13968214D02*
X7926786Y-13953929D01*
X7912500Y-13925357D01*
X7912500Y-13668214D01*
X8112500Y-13968214D02*
X8083928Y-13953929D01*
X8069643Y-13925357D01*
X8069643Y-13668214D01*
X8455357Y-13968214D02*
X8455357Y-13668214D01*
X8555357Y-13882500D01*
X8655357Y-13668214D01*
X8655357Y-13968214D01*
X8926786Y-13968214D02*
X8926786Y-13811071D01*
X8912500Y-13782500D01*
X8883928Y-13768214D01*
X8826786Y-13768214D01*
X8798214Y-13782500D01*
X8926786Y-13953929D02*
X8898214Y-13968214D01*
X8826786Y-13968214D01*
X8798214Y-13953929D01*
X8783928Y-13925357D01*
X8783928Y-13896786D01*
X8798214Y-13868214D01*
X8826786Y-13853929D01*
X8898214Y-13853929D01*
X8926786Y-13839643D01*
X9069643Y-13768214D02*
X9069643Y-14068214D01*
X9069643Y-13782500D02*
X9098214Y-13768214D01*
X9155357Y-13768214D01*
X9183928Y-13782500D01*
X9198214Y-13796786D01*
X9212500Y-13825357D01*
X9212500Y-13911071D01*
X9198214Y-13939643D01*
X9183928Y-13953929D01*
X9155357Y-13968214D01*
X9098214Y-13968214D01*
X9069643Y-13953929D01*
X9341071Y-13939643D02*
X9355357Y-13953929D01*
X9341071Y-13968214D01*
X9326786Y-13953929D01*
X9341071Y-13939643D01*
X9341071Y-13968214D01*
X9341071Y-13782500D02*
X9355357Y-13796786D01*
X9341071Y-13811071D01*
X9326786Y-13796786D01*
X9341071Y-13782500D01*
X9341071Y-13811071D01*
X6957500Y-14442500D02*
X6997500Y-14482500D01*
X6997500Y-14442500D02*
X6957500Y-14482500D01*
X7341071Y-14298214D02*
X7369643Y-14298214D01*
X7398214Y-14312500D01*
X7412500Y-14326786D01*
X7426786Y-14355357D01*
X7441071Y-14412500D01*
X7441071Y-14483929D01*
X7426786Y-14541071D01*
X7412500Y-14569643D01*
X7398214Y-14583929D01*
X7369643Y-14598214D01*
X7341071Y-14598214D01*
X7312500Y-14583929D01*
X7298214Y-14569643D01*
X7283928Y-14541071D01*
X7269643Y-14483929D01*
X7269643Y-14412500D01*
X7283928Y-14355357D01*
X7298214Y-14326786D01*
X7312500Y-14312500D01*
X7341071Y-14298214D01*
X7569643Y-14569643D02*
X7583928Y-14583929D01*
X7569643Y-14598214D01*
X7555357Y-14583929D01*
X7569643Y-14569643D01*
X7569643Y-14598214D01*
X7841071Y-14398214D02*
X7841071Y-14598214D01*
X7769643Y-14283929D02*
X7698214Y-14498214D01*
X7883928Y-14498214D01*
X8055357Y-14298214D02*
X8083928Y-14298214D01*
X8112500Y-14312500D01*
X8126786Y-14326786D01*
X8141071Y-14355357D01*
X8155357Y-14412500D01*
X8155357Y-14483929D01*
X8141071Y-14541071D01*
X8126786Y-14569643D01*
X8112500Y-14583929D01*
X8083928Y-14598214D01*
X8055357Y-14598214D01*
X8026786Y-14583929D01*
X8012500Y-14569643D01*
X7998214Y-14541071D01*
X7983928Y-14483929D01*
X7983928Y-14412500D01*
X7998214Y-14355357D01*
X8012500Y-14326786D01*
X8026786Y-14312500D01*
X8055357Y-14298214D01*
X8283928Y-14598214D02*
X8283928Y-14398214D01*
X8283928Y-14426786D02*
X8298214Y-14412500D01*
X8326786Y-14398214D01*
X8369643Y-14398214D01*
X8398214Y-14412500D01*
X8412500Y-14441071D01*
X8412500Y-14598214D01*
X8412500Y-14441071D02*
X8426786Y-14412500D01*
X8455357Y-14398214D01*
X8498214Y-14398214D01*
X8526786Y-14412500D01*
X8541071Y-14441071D01*
X8541071Y-14598214D01*
X8683928Y-14598214D02*
X8683928Y-14398214D01*
X8683928Y-14426786D02*
X8698214Y-14412500D01*
X8726786Y-14398214D01*
X8769643Y-14398214D01*
X8798214Y-14412500D01*
X8812500Y-14441071D01*
X8812500Y-14598214D01*
X8812500Y-14441071D02*
X8826786Y-14412500D01*
X8855357Y-14398214D01*
X8898214Y-14398214D01*
X8926786Y-14412500D01*
X8941071Y-14441071D01*
X8941071Y-14598214D01*
X9526786Y-14283929D02*
X9269643Y-14669643D01*
X9912500Y-14298214D02*
X9941071Y-14298214D01*
X9969643Y-14312500D01*
X9983928Y-14326786D01*
X9998214Y-14355357D01*
X10012500Y-14412500D01*
X10012500Y-14483929D01*
X9998214Y-14541071D01*
X9983928Y-14569643D01*
X9969643Y-14583929D01*
X9941071Y-14598214D01*
X9912500Y-14598214D01*
X9883928Y-14583929D01*
X9869643Y-14569643D01*
X9855357Y-14541071D01*
X9841071Y-14483929D01*
X9841071Y-14412500D01*
X9855357Y-14355357D01*
X9869643Y-14326786D01*
X9883928Y-14312500D01*
X9912500Y-14298214D01*
X10141071Y-14569643D02*
X10155357Y-14583929D01*
X10141071Y-14598214D01*
X10126786Y-14583929D01*
X10141071Y-14569643D01*
X10141071Y-14598214D01*
X10341071Y-14298214D02*
X10369643Y-14298214D01*
X10398214Y-14312500D01*
X10412500Y-14326786D01*
X10426786Y-14355357D01*
X10441071Y-14412500D01*
X10441071Y-14483929D01*
X10426786Y-14541071D01*
X10412500Y-14569643D01*
X10398214Y-14583929D01*
X10369643Y-14598214D01*
X10341071Y-14598214D01*
X10312500Y-14583929D01*
X10298214Y-14569643D01*
X10283928Y-14541071D01*
X10269643Y-14483929D01*
X10269643Y-14412500D01*
X10283928Y-14355357D01*
X10298214Y-14326786D01*
X10312500Y-14312500D01*
X10341071Y-14298214D01*
X10726786Y-14598214D02*
X10555357Y-14598214D01*
X10641071Y-14598214D02*
X10641071Y-14298214D01*
X10612500Y-14341071D01*
X10583928Y-14369643D01*
X10555357Y-14383929D01*
X10983928Y-14298214D02*
X10926786Y-14298214D01*
X10898214Y-14312500D01*
X10883928Y-14326786D01*
X10855357Y-14369643D01*
X10841071Y-14426786D01*
X10841071Y-14541071D01*
X10855357Y-14569643D01*
X10869643Y-14583929D01*
X10898214Y-14598214D01*
X10955357Y-14598214D01*
X10983928Y-14583929D01*
X10998214Y-14569643D01*
X11012500Y-14541071D01*
X11012500Y-14469643D01*
X10998214Y-14441071D01*
X10983928Y-14426786D01*
X10955357Y-14412500D01*
X10898214Y-14412500D01*
X10869643Y-14426786D01*
X10855357Y-14441071D01*
X10841071Y-14469643D01*
X11126786Y-14298214D02*
X11126786Y-14355357D01*
X11241071Y-14298214D02*
X11241071Y-14355357D01*
X11683928Y-14712500D02*
X11669643Y-14698214D01*
X11641071Y-14655357D01*
X11626786Y-14626786D01*
X11612500Y-14583929D01*
X11598214Y-14512500D01*
X11598214Y-14455357D01*
X11612500Y-14383929D01*
X11626786Y-14341071D01*
X11641071Y-14312500D01*
X11669643Y-14269643D01*
X11683928Y-14255357D01*
X11783928Y-14326786D02*
X11798214Y-14312500D01*
X11826786Y-14298214D01*
X11898214Y-14298214D01*
X11926786Y-14312500D01*
X11941071Y-14326786D01*
X11955357Y-14355357D01*
X11955357Y-14383929D01*
X11941071Y-14426786D01*
X11769643Y-14598214D01*
X11955357Y-14598214D01*
X12312500Y-14598214D02*
X12312500Y-14298214D01*
X12441071Y-14598214D02*
X12441071Y-14441071D01*
X12426786Y-14412500D01*
X12398214Y-14398214D01*
X12355357Y-14398214D01*
X12326786Y-14412500D01*
X12312500Y-14426786D01*
X12626786Y-14598214D02*
X12598214Y-14583929D01*
X12583928Y-14569643D01*
X12569643Y-14541071D01*
X12569643Y-14455357D01*
X12583928Y-14426786D01*
X12598214Y-14412500D01*
X12626786Y-14398214D01*
X12669643Y-14398214D01*
X12698214Y-14412500D01*
X12712500Y-14426786D01*
X12726786Y-14455357D01*
X12726786Y-14541071D01*
X12712500Y-14569643D01*
X12698214Y-14583929D01*
X12669643Y-14598214D01*
X12626786Y-14598214D01*
X12898214Y-14598214D02*
X12869643Y-14583929D01*
X12855357Y-14555357D01*
X12855357Y-14298214D01*
X13126786Y-14583929D02*
X13098214Y-14598214D01*
X13041071Y-14598214D01*
X13012500Y-14583929D01*
X12998214Y-14555357D01*
X12998214Y-14441071D01*
X13012500Y-14412500D01*
X13041071Y-14398214D01*
X13098214Y-14398214D01*
X13126786Y-14412500D01*
X13141071Y-14441071D01*
X13141071Y-14469643D01*
X12998214Y-14498214D01*
X13255357Y-14583929D02*
X13283928Y-14598214D01*
X13341071Y-14598214D01*
X13369643Y-14583929D01*
X13383928Y-14555357D01*
X13383928Y-14541071D01*
X13369643Y-14512500D01*
X13341071Y-14498214D01*
X13298214Y-14498214D01*
X13269643Y-14483929D01*
X13255357Y-14455357D01*
X13255357Y-14441071D01*
X13269643Y-14412500D01*
X13298214Y-14398214D01*
X13341071Y-14398214D01*
X13369643Y-14412500D01*
X13483928Y-14712500D02*
X13498214Y-14698214D01*
X13526786Y-14655357D01*
X13541071Y-14626786D01*
X13555357Y-14583929D01*
X13569643Y-14512500D01*
X13569643Y-14455357D01*
X13555357Y-14383929D01*
X13541071Y-14341071D01*
X13526786Y-14312500D01*
X13498214Y-14269643D01*
X13483928Y-14255357D01*
X6997500Y-14858500D02*
G75*
G03*
X6997500Y-14858500I-50000J0D01*
G01*
X7441071Y-14994214D02*
X7269643Y-14994214D01*
X7355357Y-14994214D02*
X7355357Y-14694214D01*
X7326786Y-14737071D01*
X7298214Y-14765643D01*
X7269643Y-14779929D01*
X7569643Y-14965643D02*
X7583928Y-14979929D01*
X7569643Y-14994214D01*
X7555357Y-14979929D01*
X7569643Y-14965643D01*
X7569643Y-14994214D01*
X7769643Y-14694214D02*
X7798214Y-14694214D01*
X7826786Y-14708500D01*
X7841071Y-14722786D01*
X7855357Y-14751357D01*
X7869643Y-14808500D01*
X7869643Y-14879929D01*
X7855357Y-14937071D01*
X7841071Y-14965643D01*
X7826786Y-14979929D01*
X7798214Y-14994214D01*
X7769643Y-14994214D01*
X7741071Y-14979929D01*
X7726786Y-14965643D01*
X7712500Y-14937071D01*
X7698214Y-14879929D01*
X7698214Y-14808500D01*
X7712500Y-14751357D01*
X7726786Y-14722786D01*
X7741071Y-14708500D01*
X7769643Y-14694214D01*
X8055357Y-14694214D02*
X8083928Y-14694214D01*
X8112500Y-14708500D01*
X8126786Y-14722786D01*
X8141071Y-14751357D01*
X8155357Y-14808500D01*
X8155357Y-14879929D01*
X8141071Y-14937071D01*
X8126786Y-14965643D01*
X8112500Y-14979929D01*
X8083928Y-14994214D01*
X8055357Y-14994214D01*
X8026786Y-14979929D01*
X8012500Y-14965643D01*
X7998214Y-14937071D01*
X7983928Y-14879929D01*
X7983928Y-14808500D01*
X7998214Y-14751357D01*
X8012500Y-14722786D01*
X8026786Y-14708500D01*
X8055357Y-14694214D01*
X8283928Y-14994214D02*
X8283928Y-14794214D01*
X8283928Y-14822786D02*
X8298214Y-14808500D01*
X8326786Y-14794214D01*
X8369643Y-14794214D01*
X8398214Y-14808500D01*
X8412500Y-14837071D01*
X8412500Y-14994214D01*
X8412500Y-14837071D02*
X8426786Y-14808500D01*
X8455357Y-14794214D01*
X8498214Y-14794214D01*
X8526786Y-14808500D01*
X8541071Y-14837071D01*
X8541071Y-14994214D01*
X8683928Y-14994214D02*
X8683928Y-14794214D01*
X8683928Y-14822786D02*
X8698214Y-14808500D01*
X8726786Y-14794214D01*
X8769643Y-14794214D01*
X8798214Y-14808500D01*
X8812500Y-14837071D01*
X8812500Y-14994214D01*
X8812500Y-14837071D02*
X8826786Y-14808500D01*
X8855357Y-14794214D01*
X8898214Y-14794214D01*
X8926786Y-14808500D01*
X8941071Y-14837071D01*
X8941071Y-14994214D01*
X9526786Y-14679929D02*
X9269643Y-15065643D01*
X9912500Y-14694214D02*
X9941071Y-14694214D01*
X9969643Y-14708500D01*
X9983928Y-14722786D01*
X9998214Y-14751357D01*
X10012500Y-14808500D01*
X10012500Y-14879929D01*
X9998214Y-14937071D01*
X9983928Y-14965643D01*
X9969643Y-14979929D01*
X9941071Y-14994214D01*
X9912500Y-14994214D01*
X9883928Y-14979929D01*
X9869643Y-14965643D01*
X9855357Y-14937071D01*
X9841071Y-14879929D01*
X9841071Y-14808500D01*
X9855357Y-14751357D01*
X9869643Y-14722786D01*
X9883928Y-14708500D01*
X9912500Y-14694214D01*
X10141071Y-14965643D02*
X10155357Y-14979929D01*
X10141071Y-14994214D01*
X10126786Y-14979929D01*
X10141071Y-14965643D01*
X10141071Y-14994214D01*
X10341071Y-14694214D02*
X10369643Y-14694214D01*
X10398214Y-14708500D01*
X10412500Y-14722786D01*
X10426786Y-14751357D01*
X10441071Y-14808500D01*
X10441071Y-14879929D01*
X10426786Y-14937071D01*
X10412500Y-14965643D01*
X10398214Y-14979929D01*
X10369643Y-14994214D01*
X10341071Y-14994214D01*
X10312500Y-14979929D01*
X10298214Y-14965643D01*
X10283928Y-14937071D01*
X10269643Y-14879929D01*
X10269643Y-14808500D01*
X10283928Y-14751357D01*
X10298214Y-14722786D01*
X10312500Y-14708500D01*
X10341071Y-14694214D01*
X10541071Y-14694214D02*
X10726786Y-14694214D01*
X10626786Y-14808500D01*
X10669643Y-14808500D01*
X10698214Y-14822786D01*
X10712500Y-14837071D01*
X10726786Y-14865643D01*
X10726786Y-14937071D01*
X10712500Y-14965643D01*
X10698214Y-14979929D01*
X10669643Y-14994214D01*
X10583928Y-14994214D01*
X10555357Y-14979929D01*
X10541071Y-14965643D01*
X10869643Y-14994214D02*
X10926786Y-14994214D01*
X10955357Y-14979929D01*
X10969643Y-14965643D01*
X10998214Y-14922786D01*
X11012500Y-14865643D01*
X11012500Y-14751357D01*
X10998214Y-14722786D01*
X10983928Y-14708500D01*
X10955357Y-14694214D01*
X10898214Y-14694214D01*
X10869643Y-14708500D01*
X10855357Y-14722786D01*
X10841071Y-14751357D01*
X10841071Y-14822786D01*
X10855357Y-14851357D01*
X10869643Y-14865643D01*
X10898214Y-14879929D01*
X10955357Y-14879929D01*
X10983928Y-14865643D01*
X10998214Y-14851357D01*
X11012500Y-14822786D01*
X11126786Y-14694214D02*
X11126786Y-14751357D01*
X11241071Y-14694214D02*
X11241071Y-14751357D01*
X11683928Y-15108500D02*
X11669643Y-15094214D01*
X11641071Y-15051357D01*
X11626786Y-15022786D01*
X11612500Y-14979929D01*
X11598214Y-14908500D01*
X11598214Y-14851357D01*
X11612500Y-14779929D01*
X11626786Y-14737071D01*
X11641071Y-14708500D01*
X11669643Y-14665643D01*
X11683928Y-14651357D01*
X11769643Y-14694214D02*
X11969643Y-14694214D01*
X11841071Y-14994214D01*
X12312500Y-14994214D02*
X12312500Y-14694214D01*
X12441071Y-14994214D02*
X12441071Y-14837071D01*
X12426786Y-14808500D01*
X12398214Y-14794214D01*
X12355357Y-14794214D01*
X12326786Y-14808500D01*
X12312500Y-14822786D01*
X12626786Y-14994214D02*
X12598214Y-14979929D01*
X12583928Y-14965643D01*
X12569643Y-14937071D01*
X12569643Y-14851357D01*
X12583928Y-14822786D01*
X12598214Y-14808500D01*
X12626786Y-14794214D01*
X12669643Y-14794214D01*
X12698214Y-14808500D01*
X12712500Y-14822786D01*
X12726786Y-14851357D01*
X12726786Y-14937071D01*
X12712500Y-14965643D01*
X12698214Y-14979929D01*
X12669643Y-14994214D01*
X12626786Y-14994214D01*
X12898214Y-14994214D02*
X12869643Y-14979929D01*
X12855357Y-14951357D01*
X12855357Y-14694214D01*
X13126786Y-14979929D02*
X13098214Y-14994214D01*
X13041071Y-14994214D01*
X13012500Y-14979929D01*
X12998214Y-14951357D01*
X12998214Y-14837071D01*
X13012500Y-14808500D01*
X13041071Y-14794214D01*
X13098214Y-14794214D01*
X13126786Y-14808500D01*
X13141071Y-14837071D01*
X13141071Y-14865643D01*
X12998214Y-14894214D01*
X13255357Y-14979929D02*
X13283928Y-14994214D01*
X13341071Y-14994214D01*
X13369643Y-14979929D01*
X13383928Y-14951357D01*
X13383928Y-14937071D01*
X13369643Y-14908500D01*
X13341071Y-14894214D01*
X13298214Y-14894214D01*
X13269643Y-14879929D01*
X13255357Y-14851357D01*
X13255357Y-14837071D01*
X13269643Y-14808500D01*
X13298214Y-14794214D01*
X13341071Y-14794214D01*
X13369643Y-14808500D01*
X13483928Y-15108500D02*
X13498214Y-15094214D01*
X13526786Y-15051357D01*
X13541071Y-15022786D01*
X13555357Y-14979929D01*
X13569643Y-14908500D01*
X13569643Y-14851357D01*
X13555357Y-14779929D01*
X13541071Y-14737071D01*
X13526786Y-14708500D01*
X13498214Y-14665643D01*
X13483928Y-14651357D01*
X6932500Y-15189500D02*
X6932500Y-15319500D01*
X6867500Y-15254500D02*
X6997500Y-15254500D01*
X7441071Y-15390214D02*
X7269643Y-15390214D01*
X7355357Y-15390214D02*
X7355357Y-15090214D01*
X7326786Y-15133071D01*
X7298214Y-15161643D01*
X7269643Y-15175929D01*
X7569643Y-15361643D02*
X7583928Y-15375929D01*
X7569643Y-15390214D01*
X7555357Y-15375929D01*
X7569643Y-15361643D01*
X7569643Y-15390214D01*
X7683928Y-15090214D02*
X7869643Y-15090214D01*
X7769643Y-15204500D01*
X7812500Y-15204500D01*
X7841071Y-15218786D01*
X7855357Y-15233071D01*
X7869643Y-15261643D01*
X7869643Y-15333071D01*
X7855357Y-15361643D01*
X7841071Y-15375929D01*
X7812500Y-15390214D01*
X7726786Y-15390214D01*
X7698214Y-15375929D01*
X7683928Y-15361643D01*
X8055357Y-15090214D02*
X8083928Y-15090214D01*
X8112500Y-15104500D01*
X8126786Y-15118786D01*
X8141071Y-15147357D01*
X8155357Y-15204500D01*
X8155357Y-15275929D01*
X8141071Y-15333071D01*
X8126786Y-15361643D01*
X8112500Y-15375929D01*
X8083928Y-15390214D01*
X8055357Y-15390214D01*
X8026786Y-15375929D01*
X8012500Y-15361643D01*
X7998214Y-15333071D01*
X7983928Y-15275929D01*
X7983928Y-15204500D01*
X7998214Y-15147357D01*
X8012500Y-15118786D01*
X8026786Y-15104500D01*
X8055357Y-15090214D01*
X8283928Y-15390214D02*
X8283928Y-15190214D01*
X8283928Y-15218786D02*
X8298214Y-15204500D01*
X8326786Y-15190214D01*
X8369643Y-15190214D01*
X8398214Y-15204500D01*
X8412500Y-15233071D01*
X8412500Y-15390214D01*
X8412500Y-15233071D02*
X8426786Y-15204500D01*
X8455357Y-15190214D01*
X8498214Y-15190214D01*
X8526786Y-15204500D01*
X8541071Y-15233071D01*
X8541071Y-15390214D01*
X8683928Y-15390214D02*
X8683928Y-15190214D01*
X8683928Y-15218786D02*
X8698214Y-15204500D01*
X8726786Y-15190214D01*
X8769643Y-15190214D01*
X8798214Y-15204500D01*
X8812500Y-15233071D01*
X8812500Y-15390214D01*
X8812500Y-15233071D02*
X8826786Y-15204500D01*
X8855357Y-15190214D01*
X8898214Y-15190214D01*
X8926786Y-15204500D01*
X8941071Y-15233071D01*
X8941071Y-15390214D01*
X9526786Y-15075929D02*
X9269643Y-15461643D01*
X9912500Y-15090214D02*
X9941071Y-15090214D01*
X9969643Y-15104500D01*
X9983928Y-15118786D01*
X9998214Y-15147357D01*
X10012500Y-15204500D01*
X10012500Y-15275929D01*
X9998214Y-15333071D01*
X9983928Y-15361643D01*
X9969643Y-15375929D01*
X9941071Y-15390214D01*
X9912500Y-15390214D01*
X9883928Y-15375929D01*
X9869643Y-15361643D01*
X9855357Y-15333071D01*
X9841071Y-15275929D01*
X9841071Y-15204500D01*
X9855357Y-15147357D01*
X9869643Y-15118786D01*
X9883928Y-15104500D01*
X9912500Y-15090214D01*
X10141071Y-15361643D02*
X10155357Y-15375929D01*
X10141071Y-15390214D01*
X10126786Y-15375929D01*
X10141071Y-15361643D01*
X10141071Y-15390214D01*
X10341071Y-15090214D02*
X10369643Y-15090214D01*
X10398214Y-15104500D01*
X10412500Y-15118786D01*
X10426786Y-15147357D01*
X10441071Y-15204500D01*
X10441071Y-15275929D01*
X10426786Y-15333071D01*
X10412500Y-15361643D01*
X10398214Y-15375929D01*
X10369643Y-15390214D01*
X10341071Y-15390214D01*
X10312500Y-15375929D01*
X10298214Y-15361643D01*
X10283928Y-15333071D01*
X10269643Y-15275929D01*
X10269643Y-15204500D01*
X10283928Y-15147357D01*
X10298214Y-15118786D01*
X10312500Y-15104500D01*
X10341071Y-15090214D01*
X10712500Y-15090214D02*
X10569643Y-15090214D01*
X10555357Y-15233071D01*
X10569643Y-15218786D01*
X10598214Y-15204500D01*
X10669643Y-15204500D01*
X10698214Y-15218786D01*
X10712500Y-15233071D01*
X10726786Y-15261643D01*
X10726786Y-15333071D01*
X10712500Y-15361643D01*
X10698214Y-15375929D01*
X10669643Y-15390214D01*
X10598214Y-15390214D01*
X10569643Y-15375929D01*
X10555357Y-15361643D01*
X11012500Y-15390214D02*
X10841071Y-15390214D01*
X10926786Y-15390214D02*
X10926786Y-15090214D01*
X10898214Y-15133071D01*
X10869643Y-15161643D01*
X10841071Y-15175929D01*
X11126786Y-15090214D02*
X11126786Y-15147357D01*
X11241071Y-15090214D02*
X11241071Y-15147357D01*
X11683928Y-15504500D02*
X11669643Y-15490214D01*
X11641071Y-15447357D01*
X11626786Y-15418786D01*
X11612500Y-15375929D01*
X11598214Y-15304500D01*
X11598214Y-15247357D01*
X11612500Y-15175929D01*
X11626786Y-15133071D01*
X11641071Y-15104500D01*
X11669643Y-15061643D01*
X11683928Y-15047357D01*
X11926786Y-15190214D02*
X11926786Y-15390214D01*
X11855357Y-15075929D02*
X11783928Y-15290214D01*
X11969643Y-15290214D01*
X12312500Y-15390214D02*
X12312500Y-15090214D01*
X12441071Y-15390214D02*
X12441071Y-15233071D01*
X12426786Y-15204500D01*
X12398214Y-15190214D01*
X12355357Y-15190214D01*
X12326786Y-15204500D01*
X12312500Y-15218786D01*
X12626786Y-15390214D02*
X12598214Y-15375929D01*
X12583928Y-15361643D01*
X12569643Y-15333071D01*
X12569643Y-15247357D01*
X12583928Y-15218786D01*
X12598214Y-15204500D01*
X12626786Y-15190214D01*
X12669643Y-15190214D01*
X12698214Y-15204500D01*
X12712500Y-15218786D01*
X12726786Y-15247357D01*
X12726786Y-15333071D01*
X12712500Y-15361643D01*
X12698214Y-15375929D01*
X12669643Y-15390214D01*
X12626786Y-15390214D01*
X12898214Y-15390214D02*
X12869643Y-15375929D01*
X12855357Y-15347357D01*
X12855357Y-15090214D01*
X13126786Y-15375929D02*
X13098214Y-15390214D01*
X13041071Y-15390214D01*
X13012500Y-15375929D01*
X12998214Y-15347357D01*
X12998214Y-15233071D01*
X13012500Y-15204500D01*
X13041071Y-15190214D01*
X13098214Y-15190214D01*
X13126786Y-15204500D01*
X13141071Y-15233071D01*
X13141071Y-15261643D01*
X12998214Y-15290214D01*
X13255357Y-15375929D02*
X13283928Y-15390214D01*
X13341071Y-15390214D01*
X13369643Y-15375929D01*
X13383928Y-15347357D01*
X13383928Y-15333071D01*
X13369643Y-15304500D01*
X13341071Y-15290214D01*
X13298214Y-15290214D01*
X13269643Y-15275929D01*
X13255357Y-15247357D01*
X13255357Y-15233071D01*
X13269643Y-15204500D01*
X13298214Y-15190214D01*
X13341071Y-15190214D01*
X13369643Y-15204500D01*
X13483928Y-15504500D02*
X13498214Y-15490214D01*
X13526786Y-15447357D01*
X13541071Y-15418786D01*
X13555357Y-15375929D01*
X13569643Y-15304500D01*
X13569643Y-15247357D01*
X13555357Y-15175929D01*
X13541071Y-15133071D01*
X13526786Y-15104500D01*
X13498214Y-15061643D01*
X13483928Y-15047357D01*
X6975533Y-15703534D02*
X6975533Y-15597467D01*
X6869466Y-15597467D01*
X6869466Y-15703534D01*
X6975533Y-15703534D01*
X7441071Y-15786214D02*
X7269643Y-15786214D01*
X7355357Y-15786214D02*
X7355357Y-15486214D01*
X7326786Y-15529071D01*
X7298214Y-15557643D01*
X7269643Y-15571929D01*
X7569643Y-15757643D02*
X7583928Y-15771929D01*
X7569643Y-15786214D01*
X7555357Y-15771929D01*
X7569643Y-15757643D01*
X7569643Y-15786214D01*
X7855357Y-15486214D02*
X7712500Y-15486214D01*
X7698214Y-15629071D01*
X7712500Y-15614786D01*
X7741071Y-15600500D01*
X7812500Y-15600500D01*
X7841071Y-15614786D01*
X7855357Y-15629071D01*
X7869643Y-15657643D01*
X7869643Y-15729071D01*
X7855357Y-15757643D01*
X7841071Y-15771929D01*
X7812500Y-15786214D01*
X7741071Y-15786214D01*
X7712500Y-15771929D01*
X7698214Y-15757643D01*
X8055357Y-15486214D02*
X8083928Y-15486214D01*
X8112500Y-15500500D01*
X8126786Y-15514786D01*
X8141071Y-15543357D01*
X8155357Y-15600500D01*
X8155357Y-15671929D01*
X8141071Y-15729071D01*
X8126786Y-15757643D01*
X8112500Y-15771929D01*
X8083928Y-15786214D01*
X8055357Y-15786214D01*
X8026786Y-15771929D01*
X8012500Y-15757643D01*
X7998214Y-15729071D01*
X7983928Y-15671929D01*
X7983928Y-15600500D01*
X7998214Y-15543357D01*
X8012500Y-15514786D01*
X8026786Y-15500500D01*
X8055357Y-15486214D01*
X8283928Y-15786214D02*
X8283928Y-15586214D01*
X8283928Y-15614786D02*
X8298214Y-15600500D01*
X8326786Y-15586214D01*
X8369643Y-15586214D01*
X8398214Y-15600500D01*
X8412500Y-15629071D01*
X8412500Y-15786214D01*
X8412500Y-15629071D02*
X8426786Y-15600500D01*
X8455357Y-15586214D01*
X8498214Y-15586214D01*
X8526786Y-15600500D01*
X8541071Y-15629071D01*
X8541071Y-15786214D01*
X8683928Y-15786214D02*
X8683928Y-15586214D01*
X8683928Y-15614786D02*
X8698214Y-15600500D01*
X8726786Y-15586214D01*
X8769643Y-15586214D01*
X8798214Y-15600500D01*
X8812500Y-15629071D01*
X8812500Y-15786214D01*
X8812500Y-15629071D02*
X8826786Y-15600500D01*
X8855357Y-15586214D01*
X8898214Y-15586214D01*
X8926786Y-15600500D01*
X8941071Y-15629071D01*
X8941071Y-15786214D01*
X9526786Y-15471929D02*
X9269643Y-15857643D01*
X9912500Y-15486214D02*
X9941071Y-15486214D01*
X9969643Y-15500500D01*
X9983928Y-15514786D01*
X9998214Y-15543357D01*
X10012500Y-15600500D01*
X10012500Y-15671929D01*
X9998214Y-15729071D01*
X9983928Y-15757643D01*
X9969643Y-15771929D01*
X9941071Y-15786214D01*
X9912500Y-15786214D01*
X9883928Y-15771929D01*
X9869643Y-15757643D01*
X9855357Y-15729071D01*
X9841071Y-15671929D01*
X9841071Y-15600500D01*
X9855357Y-15543357D01*
X9869643Y-15514786D01*
X9883928Y-15500500D01*
X9912500Y-15486214D01*
X10141071Y-15757643D02*
X10155357Y-15771929D01*
X10141071Y-15786214D01*
X10126786Y-15771929D01*
X10141071Y-15757643D01*
X10141071Y-15786214D01*
X10341071Y-15486214D02*
X10369643Y-15486214D01*
X10398214Y-15500500D01*
X10412500Y-15514786D01*
X10426786Y-15543357D01*
X10441071Y-15600500D01*
X10441071Y-15671929D01*
X10426786Y-15729071D01*
X10412500Y-15757643D01*
X10398214Y-15771929D01*
X10369643Y-15786214D01*
X10341071Y-15786214D01*
X10312500Y-15771929D01*
X10298214Y-15757643D01*
X10283928Y-15729071D01*
X10269643Y-15671929D01*
X10269643Y-15600500D01*
X10283928Y-15543357D01*
X10298214Y-15514786D01*
X10312500Y-15500500D01*
X10341071Y-15486214D01*
X10712500Y-15486214D02*
X10569643Y-15486214D01*
X10555357Y-15629071D01*
X10569643Y-15614786D01*
X10598214Y-15600500D01*
X10669643Y-15600500D01*
X10698214Y-15614786D01*
X10712500Y-15629071D01*
X10726786Y-15657643D01*
X10726786Y-15729071D01*
X10712500Y-15757643D01*
X10698214Y-15771929D01*
X10669643Y-15786214D01*
X10598214Y-15786214D01*
X10569643Y-15771929D01*
X10555357Y-15757643D01*
X10869643Y-15786214D02*
X10926786Y-15786214D01*
X10955357Y-15771929D01*
X10969643Y-15757643D01*
X10998214Y-15714786D01*
X11012500Y-15657643D01*
X11012500Y-15543357D01*
X10998214Y-15514786D01*
X10983928Y-15500500D01*
X10955357Y-15486214D01*
X10898214Y-15486214D01*
X10869643Y-15500500D01*
X10855357Y-15514786D01*
X10841071Y-15543357D01*
X10841071Y-15614786D01*
X10855357Y-15643357D01*
X10869643Y-15657643D01*
X10898214Y-15671929D01*
X10955357Y-15671929D01*
X10983928Y-15657643D01*
X10998214Y-15643357D01*
X11012500Y-15614786D01*
X11126786Y-15486214D02*
X11126786Y-15543357D01*
X11241071Y-15486214D02*
X11241071Y-15543357D01*
X11683928Y-15900500D02*
X11669643Y-15886214D01*
X11641071Y-15843357D01*
X11626786Y-15814786D01*
X11612500Y-15771929D01*
X11598214Y-15700500D01*
X11598214Y-15643357D01*
X11612500Y-15571929D01*
X11626786Y-15529071D01*
X11641071Y-15500500D01*
X11669643Y-15457643D01*
X11683928Y-15443357D01*
X11841071Y-15614786D02*
X11812500Y-15600500D01*
X11798214Y-15586214D01*
X11783928Y-15557643D01*
X11783928Y-15543357D01*
X11798214Y-15514786D01*
X11812500Y-15500500D01*
X11841071Y-15486214D01*
X11898214Y-15486214D01*
X11926786Y-15500500D01*
X11941071Y-15514786D01*
X11955357Y-15543357D01*
X11955357Y-15557643D01*
X11941071Y-15586214D01*
X11926786Y-15600500D01*
X11898214Y-15614786D01*
X11841071Y-15614786D01*
X11812500Y-15629071D01*
X11798214Y-15643357D01*
X11783928Y-15671929D01*
X11783928Y-15729071D01*
X11798214Y-15757643D01*
X11812500Y-15771929D01*
X11841071Y-15786214D01*
X11898214Y-15786214D01*
X11926786Y-15771929D01*
X11941071Y-15757643D01*
X11955357Y-15729071D01*
X11955357Y-15671929D01*
X11941071Y-15643357D01*
X11926786Y-15629071D01*
X11898214Y-15614786D01*
X12312500Y-15786214D02*
X12312500Y-15486214D01*
X12441071Y-15786214D02*
X12441071Y-15629071D01*
X12426786Y-15600500D01*
X12398214Y-15586214D01*
X12355357Y-15586214D01*
X12326786Y-15600500D01*
X12312500Y-15614786D01*
X12626786Y-15786214D02*
X12598214Y-15771929D01*
X12583928Y-15757643D01*
X12569643Y-15729071D01*
X12569643Y-15643357D01*
X12583928Y-15614786D01*
X12598214Y-15600500D01*
X12626786Y-15586214D01*
X12669643Y-15586214D01*
X12698214Y-15600500D01*
X12712500Y-15614786D01*
X12726786Y-15643357D01*
X12726786Y-15729071D01*
X12712500Y-15757643D01*
X12698214Y-15771929D01*
X12669643Y-15786214D01*
X12626786Y-15786214D01*
X12898214Y-15786214D02*
X12869643Y-15771929D01*
X12855357Y-15743357D01*
X12855357Y-15486214D01*
X13126786Y-15771929D02*
X13098214Y-15786214D01*
X13041071Y-15786214D01*
X13012500Y-15771929D01*
X12998214Y-15743357D01*
X12998214Y-15629071D01*
X13012500Y-15600500D01*
X13041071Y-15586214D01*
X13098214Y-15586214D01*
X13126786Y-15600500D01*
X13141071Y-15629071D01*
X13141071Y-15657643D01*
X12998214Y-15686214D01*
X13255357Y-15771929D02*
X13283928Y-15786214D01*
X13341071Y-15786214D01*
X13369643Y-15771929D01*
X13383928Y-15743357D01*
X13383928Y-15729071D01*
X13369643Y-15700500D01*
X13341071Y-15686214D01*
X13298214Y-15686214D01*
X13269643Y-15671929D01*
X13255357Y-15643357D01*
X13255357Y-15629071D01*
X13269643Y-15600500D01*
X13298214Y-15586214D01*
X13341071Y-15586214D01*
X13369643Y-15600500D01*
X13483928Y-15900500D02*
X13498214Y-15886214D01*
X13526786Y-15843357D01*
X13541071Y-15814786D01*
X13555357Y-15771929D01*
X13569643Y-15700500D01*
X13569643Y-15643357D01*
X13555357Y-15571929D01*
X13541071Y-15529071D01*
X13526786Y-15500500D01*
X13498214Y-15457643D01*
X13483928Y-15443357D01*
X6910000Y-16134000D02*
X6997500Y-16046500D01*
X6910000Y-15959000D01*
X6822500Y-16046500D01*
X6910000Y-16134000D01*
X7441071Y-16182214D02*
X7269643Y-16182214D01*
X7355357Y-16182214D02*
X7355357Y-15882214D01*
X7326786Y-15925071D01*
X7298214Y-15953643D01*
X7269643Y-15967929D01*
X7569643Y-16153643D02*
X7583928Y-16167929D01*
X7569643Y-16182214D01*
X7555357Y-16167929D01*
X7569643Y-16153643D01*
X7569643Y-16182214D01*
X7683928Y-15882214D02*
X7883928Y-15882214D01*
X7755357Y-16182214D01*
X8141071Y-15882214D02*
X7998214Y-15882214D01*
X7983928Y-16025071D01*
X7998214Y-16010786D01*
X8026786Y-15996500D01*
X8098214Y-15996500D01*
X8126786Y-16010786D01*
X8141071Y-16025071D01*
X8155357Y-16053643D01*
X8155357Y-16125071D01*
X8141071Y-16153643D01*
X8126786Y-16167929D01*
X8098214Y-16182214D01*
X8026786Y-16182214D01*
X7998214Y-16167929D01*
X7983928Y-16153643D01*
X8283928Y-16182214D02*
X8283928Y-15982214D01*
X8283928Y-16010786D02*
X8298214Y-15996500D01*
X8326786Y-15982214D01*
X8369643Y-15982214D01*
X8398214Y-15996500D01*
X8412500Y-16025071D01*
X8412500Y-16182214D01*
X8412500Y-16025071D02*
X8426786Y-15996500D01*
X8455357Y-15982214D01*
X8498214Y-15982214D01*
X8526786Y-15996500D01*
X8541071Y-16025071D01*
X8541071Y-16182214D01*
X8683928Y-16182214D02*
X8683928Y-15982214D01*
X8683928Y-16010786D02*
X8698214Y-15996500D01*
X8726786Y-15982214D01*
X8769643Y-15982214D01*
X8798214Y-15996500D01*
X8812500Y-16025071D01*
X8812500Y-16182214D01*
X8812500Y-16025071D02*
X8826786Y-15996500D01*
X8855357Y-15982214D01*
X8898214Y-15982214D01*
X8926786Y-15996500D01*
X8941071Y-16025071D01*
X8941071Y-16182214D01*
X9526786Y-15867929D02*
X9269643Y-16253643D01*
X9912500Y-15882214D02*
X9941071Y-15882214D01*
X9969643Y-15896500D01*
X9983928Y-15910786D01*
X9998214Y-15939357D01*
X10012500Y-15996500D01*
X10012500Y-16067929D01*
X9998214Y-16125071D01*
X9983928Y-16153643D01*
X9969643Y-16167929D01*
X9941071Y-16182214D01*
X9912500Y-16182214D01*
X9883928Y-16167929D01*
X9869643Y-16153643D01*
X9855357Y-16125071D01*
X9841071Y-16067929D01*
X9841071Y-15996500D01*
X9855357Y-15939357D01*
X9869643Y-15910786D01*
X9883928Y-15896500D01*
X9912500Y-15882214D01*
X10141071Y-16153643D02*
X10155357Y-16167929D01*
X10141071Y-16182214D01*
X10126786Y-16167929D01*
X10141071Y-16153643D01*
X10141071Y-16182214D01*
X10341071Y-15882214D02*
X10369643Y-15882214D01*
X10398214Y-15896500D01*
X10412500Y-15910786D01*
X10426786Y-15939357D01*
X10441071Y-15996500D01*
X10441071Y-16067929D01*
X10426786Y-16125071D01*
X10412500Y-16153643D01*
X10398214Y-16167929D01*
X10369643Y-16182214D01*
X10341071Y-16182214D01*
X10312500Y-16167929D01*
X10298214Y-16153643D01*
X10283928Y-16125071D01*
X10269643Y-16067929D01*
X10269643Y-15996500D01*
X10283928Y-15939357D01*
X10298214Y-15910786D01*
X10312500Y-15896500D01*
X10341071Y-15882214D01*
X10698214Y-15882214D02*
X10641071Y-15882214D01*
X10612500Y-15896500D01*
X10598214Y-15910786D01*
X10569643Y-15953643D01*
X10555357Y-16010786D01*
X10555357Y-16125071D01*
X10569643Y-16153643D01*
X10583928Y-16167929D01*
X10612500Y-16182214D01*
X10669643Y-16182214D01*
X10698214Y-16167929D01*
X10712500Y-16153643D01*
X10726786Y-16125071D01*
X10726786Y-16053643D01*
X10712500Y-16025071D01*
X10698214Y-16010786D01*
X10669643Y-15996500D01*
X10612500Y-15996500D01*
X10583928Y-16010786D01*
X10569643Y-16025071D01*
X10555357Y-16053643D01*
X10869643Y-16182214D02*
X10926786Y-16182214D01*
X10955357Y-16167929D01*
X10969643Y-16153643D01*
X10998214Y-16110786D01*
X11012500Y-16053643D01*
X11012500Y-15939357D01*
X10998214Y-15910786D01*
X10983928Y-15896500D01*
X10955357Y-15882214D01*
X10898214Y-15882214D01*
X10869643Y-15896500D01*
X10855357Y-15910786D01*
X10841071Y-15939357D01*
X10841071Y-16010786D01*
X10855357Y-16039357D01*
X10869643Y-16053643D01*
X10898214Y-16067929D01*
X10955357Y-16067929D01*
X10983928Y-16053643D01*
X10998214Y-16039357D01*
X11012500Y-16010786D01*
X11126786Y-15882214D02*
X11126786Y-15939357D01*
X11241071Y-15882214D02*
X11241071Y-15939357D01*
X11683928Y-16296500D02*
X11669643Y-16282214D01*
X11641071Y-16239357D01*
X11626786Y-16210786D01*
X11612500Y-16167929D01*
X11598214Y-16096500D01*
X11598214Y-16039357D01*
X11612500Y-15967929D01*
X11626786Y-15925071D01*
X11641071Y-15896500D01*
X11669643Y-15853643D01*
X11683928Y-15839357D01*
X11926786Y-15882214D02*
X11869643Y-15882214D01*
X11841071Y-15896500D01*
X11826786Y-15910786D01*
X11798214Y-15953643D01*
X11783928Y-16010786D01*
X11783928Y-16125071D01*
X11798214Y-16153643D01*
X11812500Y-16167929D01*
X11841071Y-16182214D01*
X11898214Y-16182214D01*
X11926786Y-16167929D01*
X11941071Y-16153643D01*
X11955357Y-16125071D01*
X11955357Y-16053643D01*
X11941071Y-16025071D01*
X11926786Y-16010786D01*
X11898214Y-15996500D01*
X11841071Y-15996500D01*
X11812500Y-16010786D01*
X11798214Y-16025071D01*
X11783928Y-16053643D01*
X12312500Y-16182214D02*
X12312500Y-15882214D01*
X12441071Y-16182214D02*
X12441071Y-16025071D01*
X12426786Y-15996500D01*
X12398214Y-15982214D01*
X12355357Y-15982214D01*
X12326786Y-15996500D01*
X12312500Y-16010786D01*
X12626786Y-16182214D02*
X12598214Y-16167929D01*
X12583928Y-16153643D01*
X12569643Y-16125071D01*
X12569643Y-16039357D01*
X12583928Y-16010786D01*
X12598214Y-15996500D01*
X12626786Y-15982214D01*
X12669643Y-15982214D01*
X12698214Y-15996500D01*
X12712500Y-16010786D01*
X12726786Y-16039357D01*
X12726786Y-16125071D01*
X12712500Y-16153643D01*
X12698214Y-16167929D01*
X12669643Y-16182214D01*
X12626786Y-16182214D01*
X12898214Y-16182214D02*
X12869643Y-16167929D01*
X12855357Y-16139357D01*
X12855357Y-15882214D01*
X13126786Y-16167929D02*
X13098214Y-16182214D01*
X13041071Y-16182214D01*
X13012500Y-16167929D01*
X12998214Y-16139357D01*
X12998214Y-16025071D01*
X13012500Y-15996500D01*
X13041071Y-15982214D01*
X13098214Y-15982214D01*
X13126786Y-15996500D01*
X13141071Y-16025071D01*
X13141071Y-16053643D01*
X12998214Y-16082214D01*
X13255357Y-16167929D02*
X13283928Y-16182214D01*
X13341071Y-16182214D01*
X13369643Y-16167929D01*
X13383928Y-16139357D01*
X13383928Y-16125071D01*
X13369643Y-16096500D01*
X13341071Y-16082214D01*
X13298214Y-16082214D01*
X13269643Y-16067929D01*
X13255357Y-16039357D01*
X13255357Y-16025071D01*
X13269643Y-15996500D01*
X13298214Y-15982214D01*
X13341071Y-15982214D01*
X13369643Y-15996500D01*
X13483928Y-16296500D02*
X13498214Y-16282214D01*
X13526786Y-16239357D01*
X13541071Y-16210786D01*
X13555357Y-16167929D01*
X13569643Y-16096500D01*
X13569643Y-16039357D01*
X13555357Y-15967929D01*
X13541071Y-15925071D01*
X13526786Y-15896500D01*
X13498214Y-15853643D01*
X13483928Y-15839357D01*
X6677500Y-16282500D02*
X6997500Y-16602500D01*
X6997500Y-16282500D02*
X6677500Y-16602500D01*
X6997500Y-16442500D02*
G75*
G03*
X6997500Y-16442500I-160000J0D01*
G01*
X7255357Y-16278214D02*
X7441071Y-16278214D01*
X7341071Y-16392500D01*
X7383928Y-16392500D01*
X7412500Y-16406786D01*
X7426786Y-16421071D01*
X7441071Y-16449643D01*
X7441071Y-16521071D01*
X7426786Y-16549643D01*
X7412500Y-16563929D01*
X7383928Y-16578214D01*
X7298214Y-16578214D01*
X7269643Y-16563929D01*
X7255357Y-16549643D01*
X7569643Y-16549643D02*
X7583928Y-16563929D01*
X7569643Y-16578214D01*
X7555357Y-16563929D01*
X7569643Y-16549643D01*
X7569643Y-16578214D01*
X7698214Y-16306786D02*
X7712500Y-16292500D01*
X7741071Y-16278214D01*
X7812500Y-16278214D01*
X7841071Y-16292500D01*
X7855357Y-16306786D01*
X7869643Y-16335357D01*
X7869643Y-16363929D01*
X7855357Y-16406786D01*
X7683928Y-16578214D01*
X7869643Y-16578214D01*
X8055357Y-16278214D02*
X8083928Y-16278214D01*
X8112500Y-16292500D01*
X8126786Y-16306786D01*
X8141071Y-16335357D01*
X8155357Y-16392500D01*
X8155357Y-16463929D01*
X8141071Y-16521071D01*
X8126786Y-16549643D01*
X8112500Y-16563929D01*
X8083928Y-16578214D01*
X8055357Y-16578214D01*
X8026786Y-16563929D01*
X8012500Y-16549643D01*
X7998214Y-16521071D01*
X7983928Y-16463929D01*
X7983928Y-16392500D01*
X7998214Y-16335357D01*
X8012500Y-16306786D01*
X8026786Y-16292500D01*
X8055357Y-16278214D01*
X8283928Y-16578214D02*
X8283928Y-16378214D01*
X8283928Y-16406786D02*
X8298214Y-16392500D01*
X8326786Y-16378214D01*
X8369643Y-16378214D01*
X8398214Y-16392500D01*
X8412500Y-16421071D01*
X8412500Y-16578214D01*
X8412500Y-16421071D02*
X8426786Y-16392500D01*
X8455357Y-16378214D01*
X8498214Y-16378214D01*
X8526786Y-16392500D01*
X8541071Y-16421071D01*
X8541071Y-16578214D01*
X8683928Y-16578214D02*
X8683928Y-16378214D01*
X8683928Y-16406786D02*
X8698214Y-16392500D01*
X8726786Y-16378214D01*
X8769643Y-16378214D01*
X8798214Y-16392500D01*
X8812500Y-16421071D01*
X8812500Y-16578214D01*
X8812500Y-16421071D02*
X8826786Y-16392500D01*
X8855357Y-16378214D01*
X8898214Y-16378214D01*
X8926786Y-16392500D01*
X8941071Y-16421071D01*
X8941071Y-16578214D01*
X9526786Y-16263929D02*
X9269643Y-16649643D01*
X9912500Y-16278214D02*
X9941071Y-16278214D01*
X9969643Y-16292500D01*
X9983928Y-16306786D01*
X9998214Y-16335357D01*
X10012500Y-16392500D01*
X10012500Y-16463929D01*
X9998214Y-16521071D01*
X9983928Y-16549643D01*
X9969643Y-16563929D01*
X9941071Y-16578214D01*
X9912500Y-16578214D01*
X9883928Y-16563929D01*
X9869643Y-16549643D01*
X9855357Y-16521071D01*
X9841071Y-16463929D01*
X9841071Y-16392500D01*
X9855357Y-16335357D01*
X9869643Y-16306786D01*
X9883928Y-16292500D01*
X9912500Y-16278214D01*
X10141071Y-16549643D02*
X10155357Y-16563929D01*
X10141071Y-16578214D01*
X10126786Y-16563929D01*
X10141071Y-16549643D01*
X10141071Y-16578214D01*
X10441071Y-16578214D02*
X10269643Y-16578214D01*
X10355357Y-16578214D02*
X10355357Y-16278214D01*
X10326786Y-16321071D01*
X10298214Y-16349643D01*
X10269643Y-16363929D01*
X10555357Y-16306786D02*
X10569643Y-16292500D01*
X10598214Y-16278214D01*
X10669643Y-16278214D01*
X10698214Y-16292500D01*
X10712500Y-16306786D01*
X10726786Y-16335357D01*
X10726786Y-16363929D01*
X10712500Y-16406786D01*
X10541071Y-16578214D01*
X10726786Y-16578214D01*
X10983928Y-16278214D02*
X10926786Y-16278214D01*
X10898214Y-16292500D01*
X10883928Y-16306786D01*
X10855357Y-16349643D01*
X10841071Y-16406786D01*
X10841071Y-16521071D01*
X10855357Y-16549643D01*
X10869643Y-16563929D01*
X10898214Y-16578214D01*
X10955357Y-16578214D01*
X10983928Y-16563929D01*
X10998214Y-16549643D01*
X11012500Y-16521071D01*
X11012500Y-16449643D01*
X10998214Y-16421071D01*
X10983928Y-16406786D01*
X10955357Y-16392500D01*
X10898214Y-16392500D01*
X10869643Y-16406786D01*
X10855357Y-16421071D01*
X10841071Y-16449643D01*
X11126786Y-16278214D02*
X11126786Y-16335357D01*
X11241071Y-16278214D02*
X11241071Y-16335357D01*
X11683928Y-16692500D02*
X11669643Y-16678214D01*
X11641071Y-16635357D01*
X11626786Y-16606786D01*
X11612500Y-16563929D01*
X11598214Y-16492500D01*
X11598214Y-16435357D01*
X11612500Y-16363929D01*
X11626786Y-16321071D01*
X11641071Y-16292500D01*
X11669643Y-16249643D01*
X11683928Y-16235357D01*
X11926786Y-16378214D02*
X11926786Y-16578214D01*
X11855357Y-16263929D02*
X11783928Y-16478214D01*
X11969643Y-16478214D01*
X12312500Y-16578214D02*
X12312500Y-16278214D01*
X12441071Y-16578214D02*
X12441071Y-16421071D01*
X12426786Y-16392500D01*
X12398214Y-16378214D01*
X12355357Y-16378214D01*
X12326786Y-16392500D01*
X12312500Y-16406786D01*
X12626786Y-16578214D02*
X12598214Y-16563929D01*
X12583928Y-16549643D01*
X12569643Y-16521071D01*
X12569643Y-16435357D01*
X12583928Y-16406786D01*
X12598214Y-16392500D01*
X12626786Y-16378214D01*
X12669643Y-16378214D01*
X12698214Y-16392500D01*
X12712500Y-16406786D01*
X12726786Y-16435357D01*
X12726786Y-16521071D01*
X12712500Y-16549643D01*
X12698214Y-16563929D01*
X12669643Y-16578214D01*
X12626786Y-16578214D01*
X12898214Y-16578214D02*
X12869643Y-16563929D01*
X12855357Y-16535357D01*
X12855357Y-16278214D01*
X13126786Y-16563929D02*
X13098214Y-16578214D01*
X13041071Y-16578214D01*
X13012500Y-16563929D01*
X12998214Y-16535357D01*
X12998214Y-16421071D01*
X13012500Y-16392500D01*
X13041071Y-16378214D01*
X13098214Y-16378214D01*
X13126786Y-16392500D01*
X13141071Y-16421071D01*
X13141071Y-16449643D01*
X12998214Y-16478214D01*
X13255357Y-16563929D02*
X13283928Y-16578214D01*
X13341071Y-16578214D01*
X13369643Y-16563929D01*
X13383928Y-16535357D01*
X13383928Y-16521071D01*
X13369643Y-16492500D01*
X13341071Y-16478214D01*
X13298214Y-16478214D01*
X13269643Y-16463929D01*
X13255357Y-16435357D01*
X13255357Y-16421071D01*
X13269643Y-16392500D01*
X13298214Y-16378214D01*
X13341071Y-16378214D01*
X13369643Y-16392500D01*
X13483928Y-16692500D02*
X13498214Y-16678214D01*
X13526786Y-16635357D01*
X13541071Y-16606786D01*
X13555357Y-16563929D01*
X13569643Y-16492500D01*
X13569643Y-16435357D01*
X13555357Y-16363929D01*
X13541071Y-16321071D01*
X13526786Y-16292500D01*
X13498214Y-16249643D01*
X13483928Y-16235357D01*
M02*
