G04 #@! TF.GenerationSoftware,KiCad,Pcbnew,5.1.6+dfsg1-1~bpo9+1*
G04 #@! TF.CreationDate,2022-04-20T22:27:00+02:00*
G04 #@! TF.ProjectId,sdrtrx-powerswitch,73647274-7278-42d7-906f-776572737769,rev?*
G04 #@! TF.SameCoordinates,Original*
G04 #@! TF.FileFunction,Soldermask,Top*
G04 #@! TF.FilePolarity,Negative*
%FSLAX46Y46*%
G04 Gerber Fmt 4.6, Leading zero omitted, Abs format (unit mm)*
G04 Created by KiCad (PCBNEW 5.1.6+dfsg1-1~bpo9+1) date 2022-04-20 22:27:00*
%MOMM*%
%LPD*%
G01*
G04 APERTURE LIST*
%ADD10C,1.300000*%
%ADD11O,2.100000X1.800000*%
%ADD12R,1.400000X1.900000*%
%ADD13C,3.100000*%
%ADD14R,3.100000X3.100000*%
%ADD15O,2.600000X1.600000*%
%ADD16R,2.600000X1.600000*%
%ADD17R,1.000000X1.300000*%
%ADD18R,0.350000X1.200000*%
%ADD19C,2.800000*%
%ADD20C,6.500000*%
%ADD21R,0.610000X0.500000*%
G04 APERTURE END LIST*
G36*
G01*
X92686905Y-113775000D02*
X97713095Y-113775000D01*
G75*
G02*
X97975000Y-114036905I0J-261905D01*
G01*
X97975000Y-115713095D01*
G75*
G02*
X97713095Y-115975000I-261905J0D01*
G01*
X92686905Y-115975000D01*
G75*
G02*
X92425000Y-115713095I0J261905D01*
G01*
X92425000Y-114036905D01*
G75*
G02*
X92686905Y-113775000I261905J0D01*
G01*
G37*
G36*
G01*
X92686905Y-106825000D02*
X97713095Y-106825000D01*
G75*
G02*
X97975000Y-107086905I0J-261905D01*
G01*
X97975000Y-108763095D01*
G75*
G02*
X97713095Y-109025000I-261905J0D01*
G01*
X92686905Y-109025000D01*
G75*
G02*
X92425000Y-108763095I0J261905D01*
G01*
X92425000Y-107086905D01*
G75*
G02*
X92686905Y-106825000I261905J0D01*
G01*
G37*
D10*
X76200000Y-125000000D03*
D11*
X74200000Y-120900000D03*
G36*
G01*
X74985294Y-124300000D02*
X73414706Y-124300000D01*
G75*
G02*
X73150000Y-124035294I0J264706D01*
G01*
X73150000Y-122764706D01*
G75*
G02*
X73414706Y-122500000I264706J0D01*
G01*
X74985294Y-122500000D01*
G75*
G02*
X75250000Y-122764706I0J-264706D01*
G01*
X75250000Y-124035294D01*
G75*
G02*
X74985294Y-124300000I-264706J0D01*
G01*
G37*
G36*
G01*
X81887000Y-61109910D02*
X81887000Y-58778090D01*
G75*
G02*
X82146090Y-58519000I259090J0D01*
G01*
X84477910Y-58519000D01*
G75*
G02*
X84737000Y-58778090I0J-259090D01*
G01*
X84737000Y-61109910D01*
G75*
G02*
X84477910Y-61369000I-259090J0D01*
G01*
X82146090Y-61369000D01*
G75*
G02*
X81887000Y-61109910I0J259090D01*
G01*
G37*
G36*
G01*
X87094000Y-61109910D02*
X87094000Y-58778090D01*
G75*
G02*
X87353090Y-58519000I259090J0D01*
G01*
X89684910Y-58519000D01*
G75*
G02*
X89944000Y-58778090I0J-259090D01*
G01*
X89944000Y-61109910D01*
G75*
G02*
X89684910Y-61369000I-259090J0D01*
G01*
X87353090Y-61369000D01*
G75*
G02*
X87094000Y-61109910I0J259090D01*
G01*
G37*
G36*
G01*
X96111000Y-61109910D02*
X96111000Y-58778090D01*
G75*
G02*
X96370090Y-58519000I259090J0D01*
G01*
X98701910Y-58519000D01*
G75*
G02*
X98961000Y-58778090I0J-259090D01*
G01*
X98961000Y-61109910D01*
G75*
G02*
X98701910Y-61369000I-259090J0D01*
G01*
X96370090Y-61369000D01*
G75*
G02*
X96111000Y-61109910I0J259090D01*
G01*
G37*
G36*
G01*
X108303000Y-61109910D02*
X108303000Y-58778090D01*
G75*
G02*
X108562090Y-58519000I259090J0D01*
G01*
X110893910Y-58519000D01*
G75*
G02*
X111153000Y-58778090I0J-259090D01*
G01*
X111153000Y-61109910D01*
G75*
G02*
X110893910Y-61369000I-259090J0D01*
G01*
X108562090Y-61369000D01*
G75*
G02*
X108303000Y-61109910I0J259090D01*
G01*
G37*
G36*
G01*
X76426000Y-116989910D02*
X76426000Y-114658090D01*
G75*
G02*
X76685090Y-114399000I259090J0D01*
G01*
X79016910Y-114399000D01*
G75*
G02*
X79276000Y-114658090I0J-259090D01*
G01*
X79276000Y-116989910D01*
G75*
G02*
X79016910Y-117249000I-259090J0D01*
G01*
X76685090Y-117249000D01*
G75*
G02*
X76426000Y-116989910I0J259090D01*
G01*
G37*
G36*
G01*
X86586000Y-117116910D02*
X86586000Y-114785090D01*
G75*
G02*
X86845090Y-114526000I259090J0D01*
G01*
X89176910Y-114526000D01*
G75*
G02*
X89436000Y-114785090I0J-259090D01*
G01*
X89436000Y-117116910D01*
G75*
G02*
X89176910Y-117376000I-259090J0D01*
G01*
X86845090Y-117376000D01*
G75*
G02*
X86586000Y-117116910I0J259090D01*
G01*
G37*
D12*
X95900000Y-118400000D03*
X92900000Y-118400000D03*
D13*
X88011000Y-107188000D03*
X77851000Y-102108000D03*
X88011000Y-97028000D03*
X77851000Y-97028000D03*
X77851000Y-107188000D03*
X88011000Y-102108000D03*
D14*
X77851000Y-81788000D03*
D13*
X88011000Y-81788000D03*
G36*
G01*
X81985500Y-120665610D02*
X81985500Y-122793390D01*
G75*
G02*
X81724390Y-123054500I-261110J0D01*
G01*
X79896610Y-123054500D01*
G75*
G02*
X79635500Y-122793390I0J261110D01*
G01*
X79635500Y-120665610D01*
G75*
G02*
X79896610Y-120404500I261110J0D01*
G01*
X81724390Y-120404500D01*
G75*
G02*
X81985500Y-120665610I0J-261110D01*
G01*
G37*
G36*
G01*
X88385500Y-120665610D02*
X88385500Y-122793390D01*
G75*
G02*
X88124390Y-123054500I-261110J0D01*
G01*
X86296610Y-123054500D01*
G75*
G02*
X86035500Y-122793390I0J261110D01*
G01*
X86035500Y-120665610D01*
G75*
G02*
X86296610Y-120404500I261110J0D01*
G01*
X88124390Y-120404500D01*
G75*
G02*
X88385500Y-120665610I0J-261110D01*
G01*
G37*
D10*
X111791500Y-131648000D03*
D11*
X109791500Y-127548000D03*
G36*
G01*
X110576794Y-130948000D02*
X109006206Y-130948000D01*
G75*
G02*
X108741500Y-130683294I0J264706D01*
G01*
X108741500Y-129412706D01*
G75*
G02*
X109006206Y-129148000I264706J0D01*
G01*
X110576794Y-129148000D01*
G75*
G02*
X110841500Y-129412706I0J-264706D01*
G01*
X110841500Y-130683294D01*
G75*
G02*
X110576794Y-130948000I-264706J0D01*
G01*
G37*
D15*
X94805500Y-129921000D03*
X94805500Y-127381000D03*
D16*
X94805500Y-124841000D03*
G36*
G01*
X108820000Y-104293750D02*
X108820000Y-105256250D01*
G75*
G02*
X108551250Y-105525000I-268750J0D01*
G01*
X108013750Y-105525000D01*
G75*
G02*
X107745000Y-105256250I0J268750D01*
G01*
X107745000Y-104293750D01*
G75*
G02*
X108013750Y-104025000I268750J0D01*
G01*
X108551250Y-104025000D01*
G75*
G02*
X108820000Y-104293750I0J-268750D01*
G01*
G37*
G36*
G01*
X110695000Y-104293750D02*
X110695000Y-105256250D01*
G75*
G02*
X110426250Y-105525000I-268750J0D01*
G01*
X109888750Y-105525000D01*
G75*
G02*
X109620000Y-105256250I0J268750D01*
G01*
X109620000Y-104293750D01*
G75*
G02*
X109888750Y-104025000I268750J0D01*
G01*
X110426250Y-104025000D01*
G75*
G02*
X110695000Y-104293750I0J-268750D01*
G01*
G37*
G36*
G01*
X85147667Y-129349000D02*
X87064333Y-129349000D01*
G75*
G02*
X87331000Y-129615667I0J-266667D01*
G01*
X87331000Y-130682333D01*
G75*
G02*
X87064333Y-130949000I-266667J0D01*
G01*
X85147667Y-130949000D01*
G75*
G02*
X84881000Y-130682333I0J266667D01*
G01*
X84881000Y-129615667D01*
G75*
G02*
X85147667Y-129349000I266667J0D01*
G01*
G37*
G36*
G01*
X85147667Y-126099000D02*
X87064333Y-126099000D01*
G75*
G02*
X87331000Y-126365667I0J-266667D01*
G01*
X87331000Y-127432333D01*
G75*
G02*
X87064333Y-127699000I-266667J0D01*
G01*
X85147667Y-127699000D01*
G75*
G02*
X84881000Y-127432333I0J266667D01*
G01*
X84881000Y-126365667D01*
G75*
G02*
X85147667Y-126099000I266667J0D01*
G01*
G37*
D17*
X84327000Y-75565000D03*
X81027000Y-75565000D03*
G36*
G01*
X114326750Y-113303000D02*
X115289250Y-113303000D01*
G75*
G02*
X115558000Y-113571750I0J-268750D01*
G01*
X115558000Y-114109250D01*
G75*
G02*
X115289250Y-114378000I-268750J0D01*
G01*
X114326750Y-114378000D01*
G75*
G02*
X114058000Y-114109250I0J268750D01*
G01*
X114058000Y-113571750D01*
G75*
G02*
X114326750Y-113303000I268750J0D01*
G01*
G37*
G36*
G01*
X114326750Y-111428000D02*
X115289250Y-111428000D01*
G75*
G02*
X115558000Y-111696750I0J-268750D01*
G01*
X115558000Y-112234250D01*
G75*
G02*
X115289250Y-112503000I-268750J0D01*
G01*
X114326750Y-112503000D01*
G75*
G02*
X114058000Y-112234250I0J268750D01*
G01*
X114058000Y-111696750D01*
G75*
G02*
X114326750Y-111428000I268750J0D01*
G01*
G37*
G36*
G01*
X100483750Y-117875000D02*
X101446250Y-117875000D01*
G75*
G02*
X101715000Y-118143750I0J-268750D01*
G01*
X101715000Y-118681250D01*
G75*
G02*
X101446250Y-118950000I-268750J0D01*
G01*
X100483750Y-118950000D01*
G75*
G02*
X100215000Y-118681250I0J268750D01*
G01*
X100215000Y-118143750D01*
G75*
G02*
X100483750Y-117875000I268750J0D01*
G01*
G37*
G36*
G01*
X100483750Y-116000000D02*
X101446250Y-116000000D01*
G75*
G02*
X101715000Y-116268750I0J-268750D01*
G01*
X101715000Y-116806250D01*
G75*
G02*
X101446250Y-117075000I-268750J0D01*
G01*
X100483750Y-117075000D01*
G75*
G02*
X100215000Y-116806250I0J268750D01*
G01*
X100215000Y-116268750D01*
G75*
G02*
X100483750Y-116000000I268750J0D01*
G01*
G37*
G36*
G01*
X108611750Y-113224500D02*
X109574250Y-113224500D01*
G75*
G02*
X109843000Y-113493250I0J-268750D01*
G01*
X109843000Y-114030750D01*
G75*
G02*
X109574250Y-114299500I-268750J0D01*
G01*
X108611750Y-114299500D01*
G75*
G02*
X108343000Y-114030750I0J268750D01*
G01*
X108343000Y-113493250D01*
G75*
G02*
X108611750Y-113224500I268750J0D01*
G01*
G37*
G36*
G01*
X108611750Y-111349500D02*
X109574250Y-111349500D01*
G75*
G02*
X109843000Y-111618250I0J-268750D01*
G01*
X109843000Y-112155750D01*
G75*
G02*
X109574250Y-112424500I-268750J0D01*
G01*
X108611750Y-112424500D01*
G75*
G02*
X108343000Y-112155750I0J268750D01*
G01*
X108343000Y-111618250D01*
G75*
G02*
X108611750Y-111349500I268750J0D01*
G01*
G37*
G36*
G01*
X109571500Y-100176250D02*
X109571500Y-99213750D01*
G75*
G02*
X109840250Y-98945000I268750J0D01*
G01*
X110377750Y-98945000D01*
G75*
G02*
X110646500Y-99213750I0J-268750D01*
G01*
X110646500Y-100176250D01*
G75*
G02*
X110377750Y-100445000I-268750J0D01*
G01*
X109840250Y-100445000D01*
G75*
G02*
X109571500Y-100176250I0J268750D01*
G01*
G37*
G36*
G01*
X107696500Y-100176250D02*
X107696500Y-99213750D01*
G75*
G02*
X107965250Y-98945000I268750J0D01*
G01*
X108502750Y-98945000D01*
G75*
G02*
X108771500Y-99213750I0J-268750D01*
G01*
X108771500Y-100176250D01*
G75*
G02*
X108502750Y-100445000I-268750J0D01*
G01*
X107965250Y-100445000D01*
G75*
G02*
X107696500Y-100176250I0J268750D01*
G01*
G37*
D18*
X103394000Y-116087000D03*
X103894000Y-116087000D03*
X104394000Y-116087000D03*
X104894000Y-116087000D03*
X105394000Y-116087000D03*
X105394000Y-120387000D03*
X104894000Y-120387000D03*
X104394000Y-120387000D03*
X103894000Y-120387000D03*
X103394000Y-120387000D03*
G36*
G01*
X113337000Y-116507000D02*
X113337000Y-116157000D01*
G75*
G02*
X113512000Y-115982000I175000J0D01*
G01*
X115212000Y-115982000D01*
G75*
G02*
X115387000Y-116157000I0J-175000D01*
G01*
X115387000Y-116507000D01*
G75*
G02*
X115212000Y-116682000I-175000J0D01*
G01*
X113512000Y-116682000D01*
G75*
G02*
X113337000Y-116507000I0J175000D01*
G01*
G37*
G36*
G01*
X113337000Y-117777000D02*
X113337000Y-117427000D01*
G75*
G02*
X113512000Y-117252000I175000J0D01*
G01*
X115212000Y-117252000D01*
G75*
G02*
X115387000Y-117427000I0J-175000D01*
G01*
X115387000Y-117777000D01*
G75*
G02*
X115212000Y-117952000I-175000J0D01*
G01*
X113512000Y-117952000D01*
G75*
G02*
X113337000Y-117777000I0J175000D01*
G01*
G37*
G36*
G01*
X113337000Y-119047000D02*
X113337000Y-118697000D01*
G75*
G02*
X113512000Y-118522000I175000J0D01*
G01*
X115212000Y-118522000D01*
G75*
G02*
X115387000Y-118697000I0J-175000D01*
G01*
X115387000Y-119047000D01*
G75*
G02*
X115212000Y-119222000I-175000J0D01*
G01*
X113512000Y-119222000D01*
G75*
G02*
X113337000Y-119047000I0J175000D01*
G01*
G37*
G36*
G01*
X113337000Y-120317000D02*
X113337000Y-119967000D01*
G75*
G02*
X113512000Y-119792000I175000J0D01*
G01*
X115212000Y-119792000D01*
G75*
G02*
X115387000Y-119967000I0J-175000D01*
G01*
X115387000Y-120317000D01*
G75*
G02*
X115212000Y-120492000I-175000J0D01*
G01*
X113512000Y-120492000D01*
G75*
G02*
X113337000Y-120317000I0J175000D01*
G01*
G37*
G36*
G01*
X108387000Y-120317000D02*
X108387000Y-119967000D01*
G75*
G02*
X108562000Y-119792000I175000J0D01*
G01*
X110262000Y-119792000D01*
G75*
G02*
X110437000Y-119967000I0J-175000D01*
G01*
X110437000Y-120317000D01*
G75*
G02*
X110262000Y-120492000I-175000J0D01*
G01*
X108562000Y-120492000D01*
G75*
G02*
X108387000Y-120317000I0J175000D01*
G01*
G37*
G36*
G01*
X108387000Y-119047000D02*
X108387000Y-118697000D01*
G75*
G02*
X108562000Y-118522000I175000J0D01*
G01*
X110262000Y-118522000D01*
G75*
G02*
X110437000Y-118697000I0J-175000D01*
G01*
X110437000Y-119047000D01*
G75*
G02*
X110262000Y-119222000I-175000J0D01*
G01*
X108562000Y-119222000D01*
G75*
G02*
X108387000Y-119047000I0J175000D01*
G01*
G37*
G36*
G01*
X108387000Y-117777000D02*
X108387000Y-117427000D01*
G75*
G02*
X108562000Y-117252000I175000J0D01*
G01*
X110262000Y-117252000D01*
G75*
G02*
X110437000Y-117427000I0J-175000D01*
G01*
X110437000Y-117777000D01*
G75*
G02*
X110262000Y-117952000I-175000J0D01*
G01*
X108562000Y-117952000D01*
G75*
G02*
X108387000Y-117777000I0J175000D01*
G01*
G37*
G36*
G01*
X108387000Y-116507000D02*
X108387000Y-116157000D01*
G75*
G02*
X108562000Y-115982000I175000J0D01*
G01*
X110262000Y-115982000D01*
G75*
G02*
X110437000Y-116157000I0J-175000D01*
G01*
X110437000Y-116507000D01*
G75*
G02*
X110262000Y-116682000I-175000J0D01*
G01*
X108562000Y-116682000D01*
G75*
G02*
X108387000Y-116507000I0J175000D01*
G01*
G37*
G36*
G01*
X101499750Y-113176000D02*
X102462250Y-113176000D01*
G75*
G02*
X102731000Y-113444750I0J-268750D01*
G01*
X102731000Y-113982250D01*
G75*
G02*
X102462250Y-114251000I-268750J0D01*
G01*
X101499750Y-114251000D01*
G75*
G02*
X101231000Y-113982250I0J268750D01*
G01*
X101231000Y-113444750D01*
G75*
G02*
X101499750Y-113176000I268750J0D01*
G01*
G37*
G36*
G01*
X101499750Y-111301000D02*
X102462250Y-111301000D01*
G75*
G02*
X102731000Y-111569750I0J-268750D01*
G01*
X102731000Y-112107250D01*
G75*
G02*
X102462250Y-112376000I-268750J0D01*
G01*
X101499750Y-112376000D01*
G75*
G02*
X101231000Y-112107250I0J268750D01*
G01*
X101231000Y-111569750D01*
G75*
G02*
X101499750Y-111301000I268750J0D01*
G01*
G37*
G36*
G01*
X104928750Y-113176000D02*
X105891250Y-113176000D01*
G75*
G02*
X106160000Y-113444750I0J-268750D01*
G01*
X106160000Y-113982250D01*
G75*
G02*
X105891250Y-114251000I-268750J0D01*
G01*
X104928750Y-114251000D01*
G75*
G02*
X104660000Y-113982250I0J268750D01*
G01*
X104660000Y-113444750D01*
G75*
G02*
X104928750Y-113176000I268750J0D01*
G01*
G37*
G36*
G01*
X104928750Y-111301000D02*
X105891250Y-111301000D01*
G75*
G02*
X106160000Y-111569750I0J-268750D01*
G01*
X106160000Y-112107250D01*
G75*
G02*
X105891250Y-112376000I-268750J0D01*
G01*
X104928750Y-112376000D01*
G75*
G02*
X104660000Y-112107250I0J268750D01*
G01*
X104660000Y-111569750D01*
G75*
G02*
X104928750Y-111301000I268750J0D01*
G01*
G37*
G36*
G01*
X104420750Y-124479000D02*
X105383250Y-124479000D01*
G75*
G02*
X105652000Y-124747750I0J-268750D01*
G01*
X105652000Y-125285250D01*
G75*
G02*
X105383250Y-125554000I-268750J0D01*
G01*
X104420750Y-125554000D01*
G75*
G02*
X104152000Y-125285250I0J268750D01*
G01*
X104152000Y-124747750D01*
G75*
G02*
X104420750Y-124479000I268750J0D01*
G01*
G37*
G36*
G01*
X104420750Y-122604000D02*
X105383250Y-122604000D01*
G75*
G02*
X105652000Y-122872750I0J-268750D01*
G01*
X105652000Y-123410250D01*
G75*
G02*
X105383250Y-123679000I-268750J0D01*
G01*
X104420750Y-123679000D01*
G75*
G02*
X104152000Y-123410250I0J268750D01*
G01*
X104152000Y-122872750D01*
G75*
G02*
X104420750Y-122604000I268750J0D01*
G01*
G37*
G36*
G01*
X103097250Y-123679000D02*
X102134750Y-123679000D01*
G75*
G02*
X101866000Y-123410250I0J268750D01*
G01*
X101866000Y-122872750D01*
G75*
G02*
X102134750Y-122604000I268750J0D01*
G01*
X103097250Y-122604000D01*
G75*
G02*
X103366000Y-122872750I0J-268750D01*
G01*
X103366000Y-123410250D01*
G75*
G02*
X103097250Y-123679000I-268750J0D01*
G01*
G37*
G36*
G01*
X103097250Y-125554000D02*
X102134750Y-125554000D01*
G75*
G02*
X101866000Y-125285250I0J268750D01*
G01*
X101866000Y-124747750D01*
G75*
G02*
X102134750Y-124479000I268750J0D01*
G01*
X103097250Y-124479000D01*
G75*
G02*
X103366000Y-124747750I0J-268750D01*
G01*
X103366000Y-125285250D01*
G75*
G02*
X103097250Y-125554000I-268750J0D01*
G01*
G37*
G36*
G01*
X109620000Y-102589250D02*
X109620000Y-101626750D01*
G75*
G02*
X109888750Y-101358000I268750J0D01*
G01*
X110426250Y-101358000D01*
G75*
G02*
X110695000Y-101626750I0J-268750D01*
G01*
X110695000Y-102589250D01*
G75*
G02*
X110426250Y-102858000I-268750J0D01*
G01*
X109888750Y-102858000D01*
G75*
G02*
X109620000Y-102589250I0J268750D01*
G01*
G37*
G36*
G01*
X107745000Y-102589250D02*
X107745000Y-101626750D01*
G75*
G02*
X108013750Y-101358000I268750J0D01*
G01*
X108551250Y-101358000D01*
G75*
G02*
X108820000Y-101626750I0J-268750D01*
G01*
X108820000Y-102589250D01*
G75*
G02*
X108551250Y-102858000I-268750J0D01*
G01*
X108013750Y-102858000D01*
G75*
G02*
X107745000Y-102589250I0J268750D01*
G01*
G37*
G36*
G01*
X112835500Y-99213750D02*
X112835500Y-100176250D01*
G75*
G02*
X112566750Y-100445000I-268750J0D01*
G01*
X112029250Y-100445000D01*
G75*
G02*
X111760500Y-100176250I0J268750D01*
G01*
X111760500Y-99213750D01*
G75*
G02*
X112029250Y-98945000I268750J0D01*
G01*
X112566750Y-98945000D01*
G75*
G02*
X112835500Y-99213750I0J-268750D01*
G01*
G37*
G36*
G01*
X114710500Y-99213750D02*
X114710500Y-100176250D01*
G75*
G02*
X114441750Y-100445000I-268750J0D01*
G01*
X113904250Y-100445000D01*
G75*
G02*
X113635500Y-100176250I0J268750D01*
G01*
X113635500Y-99213750D01*
G75*
G02*
X113904250Y-98945000I268750J0D01*
G01*
X114441750Y-98945000D01*
G75*
G02*
X114710500Y-99213750I0J-268750D01*
G01*
G37*
G36*
G01*
X113684000Y-102589250D02*
X113684000Y-101626750D01*
G75*
G02*
X113952750Y-101358000I268750J0D01*
G01*
X114490250Y-101358000D01*
G75*
G02*
X114759000Y-101626750I0J-268750D01*
G01*
X114759000Y-102589250D01*
G75*
G02*
X114490250Y-102858000I-268750J0D01*
G01*
X113952750Y-102858000D01*
G75*
G02*
X113684000Y-102589250I0J268750D01*
G01*
G37*
G36*
G01*
X111809000Y-102589250D02*
X111809000Y-101626750D01*
G75*
G02*
X112077750Y-101358000I268750J0D01*
G01*
X112615250Y-101358000D01*
G75*
G02*
X112884000Y-101626750I0J-268750D01*
G01*
X112884000Y-102589250D01*
G75*
G02*
X112615250Y-102858000I-268750J0D01*
G01*
X112077750Y-102858000D01*
G75*
G02*
X111809000Y-102589250I0J268750D01*
G01*
G37*
G36*
G01*
X117988905Y-121562000D02*
X120565095Y-121562000D01*
G75*
G02*
X120827000Y-121823905I0J-261905D01*
G01*
X120827000Y-123500095D01*
G75*
G02*
X120565095Y-123762000I-261905J0D01*
G01*
X117988905Y-123762000D01*
G75*
G02*
X117727000Y-123500095I0J261905D01*
G01*
X117727000Y-121823905D01*
G75*
G02*
X117988905Y-121562000I261905J0D01*
G01*
G37*
G36*
G01*
X117988905Y-112712000D02*
X120565095Y-112712000D01*
G75*
G02*
X120827000Y-112973905I0J-261905D01*
G01*
X120827000Y-114650095D01*
G75*
G02*
X120565095Y-114912000I-261905J0D01*
G01*
X117988905Y-114912000D01*
G75*
G02*
X117727000Y-114650095I0J261905D01*
G01*
X117727000Y-112973905D01*
G75*
G02*
X117988905Y-112712000I261905J0D01*
G01*
G37*
G36*
G01*
X121552000Y-119662000D02*
X122502000Y-119662000D01*
G75*
G02*
X122727000Y-119887000I0J-225000D01*
G01*
X122727000Y-120337000D01*
G75*
G02*
X122502000Y-120562000I-225000J0D01*
G01*
X121552000Y-120562000D01*
G75*
G02*
X121327000Y-120337000I0J225000D01*
G01*
X121327000Y-119887000D01*
G75*
G02*
X121552000Y-119662000I225000J0D01*
G01*
G37*
G36*
G01*
X121552000Y-118412000D02*
X122502000Y-118412000D01*
G75*
G02*
X122727000Y-118637000I0J-225000D01*
G01*
X122727000Y-119087000D01*
G75*
G02*
X122502000Y-119312000I-225000J0D01*
G01*
X121552000Y-119312000D01*
G75*
G02*
X121327000Y-119087000I0J225000D01*
G01*
X121327000Y-118637000D01*
G75*
G02*
X121552000Y-118412000I225000J0D01*
G01*
G37*
G36*
G01*
X121552000Y-117162000D02*
X122502000Y-117162000D01*
G75*
G02*
X122727000Y-117387000I0J-225000D01*
G01*
X122727000Y-117837000D01*
G75*
G02*
X122502000Y-118062000I-225000J0D01*
G01*
X121552000Y-118062000D01*
G75*
G02*
X121327000Y-117837000I0J225000D01*
G01*
X121327000Y-117387000D01*
G75*
G02*
X121552000Y-117162000I225000J0D01*
G01*
G37*
G36*
G01*
X121552000Y-115912000D02*
X122502000Y-115912000D01*
G75*
G02*
X122727000Y-116137000I0J-225000D01*
G01*
X122727000Y-116587000D01*
G75*
G02*
X122502000Y-116812000I-225000J0D01*
G01*
X121552000Y-116812000D01*
G75*
G02*
X121327000Y-116587000I0J225000D01*
G01*
X121327000Y-116137000D01*
G75*
G02*
X121552000Y-115912000I225000J0D01*
G01*
G37*
D19*
X97536000Y-77544000D03*
D13*
X97536000Y-88794000D03*
X97536000Y-66294000D03*
D19*
X109728000Y-77544000D03*
D13*
X109728000Y-88794000D03*
X109728000Y-66294000D03*
D20*
X120000000Y-130000000D03*
X120000000Y-60000000D03*
X75000000Y-60000000D03*
X75000000Y-130000000D03*
D21*
X106055000Y-100211000D03*
X104765000Y-100711000D03*
X106055000Y-101211000D03*
G36*
G01*
X117988905Y-103655000D02*
X120565095Y-103655000D01*
G75*
G02*
X120827000Y-103916905I0J-261905D01*
G01*
X120827000Y-105593095D01*
G75*
G02*
X120565095Y-105855000I-261905J0D01*
G01*
X117988905Y-105855000D01*
G75*
G02*
X117727000Y-105593095I0J261905D01*
G01*
X117727000Y-103916905D01*
G75*
G02*
X117988905Y-103655000I261905J0D01*
G01*
G37*
G36*
G01*
X117988905Y-94805000D02*
X120565095Y-94805000D01*
G75*
G02*
X120827000Y-95066905I0J-261905D01*
G01*
X120827000Y-96743095D01*
G75*
G02*
X120565095Y-97005000I-261905J0D01*
G01*
X117988905Y-97005000D01*
G75*
G02*
X117727000Y-96743095I0J261905D01*
G01*
X117727000Y-95066905D01*
G75*
G02*
X117988905Y-94805000I261905J0D01*
G01*
G37*
G36*
G01*
X121552000Y-101755000D02*
X122502000Y-101755000D01*
G75*
G02*
X122727000Y-101980000I0J-225000D01*
G01*
X122727000Y-102430000D01*
G75*
G02*
X122502000Y-102655000I-225000J0D01*
G01*
X121552000Y-102655000D01*
G75*
G02*
X121327000Y-102430000I0J225000D01*
G01*
X121327000Y-101980000D01*
G75*
G02*
X121552000Y-101755000I225000J0D01*
G01*
G37*
G36*
G01*
X121552000Y-100505000D02*
X122502000Y-100505000D01*
G75*
G02*
X122727000Y-100730000I0J-225000D01*
G01*
X122727000Y-101180000D01*
G75*
G02*
X122502000Y-101405000I-225000J0D01*
G01*
X121552000Y-101405000D01*
G75*
G02*
X121327000Y-101180000I0J225000D01*
G01*
X121327000Y-100730000D01*
G75*
G02*
X121552000Y-100505000I225000J0D01*
G01*
G37*
G36*
G01*
X121552000Y-99255000D02*
X122502000Y-99255000D01*
G75*
G02*
X122727000Y-99480000I0J-225000D01*
G01*
X122727000Y-99930000D01*
G75*
G02*
X122502000Y-100155000I-225000J0D01*
G01*
X121552000Y-100155000D01*
G75*
G02*
X121327000Y-99930000I0J225000D01*
G01*
X121327000Y-99480000D01*
G75*
G02*
X121552000Y-99255000I225000J0D01*
G01*
G37*
G36*
G01*
X121552000Y-98005000D02*
X122502000Y-98005000D01*
G75*
G02*
X122727000Y-98230000I0J-225000D01*
G01*
X122727000Y-98680000D01*
G75*
G02*
X122502000Y-98905000I-225000J0D01*
G01*
X121552000Y-98905000D01*
G75*
G02*
X121327000Y-98680000I0J225000D01*
G01*
X121327000Y-98230000D01*
G75*
G02*
X121552000Y-98005000I225000J0D01*
G01*
G37*
M02*
