M48
; DRILL file {KiCad 5.1.6+dfsg1-1~bpo9+1} date Mon Apr  4 20:49:43 2022
; FORMAT={-:-/ absolute / metric / decimal}
; #@! TF.CreationDate,2022-04-04T20:49:43+02:00
; #@! TF.GenerationSoftware,Kicad,Pcbnew,5.1.6+dfsg1-1~bpo9+1
; #@! TF.FileFunction,Plated,1,2,PTH
FMAT,2
METRIC
T1C0.400
T2C0.900
T3C1.000
T4C1.500
T5C1.750
T6C2.032
T7C3.200
%
G90
G05
T1
X9.995Y35.065
X15.05Y49.936
X15.43Y32.829
X38.049Y25.298
X46.05Y25.387
X57.061Y50.025
X57.15Y32.385
X77.749Y20.764
T2
X52.705Y73.948
X52.705Y66.548
X62.705Y73.948
X62.705Y66.548
X10.287Y73.694
X10.287Y66.294
X20.287Y73.694
X20.287Y66.294
T3
X77.394Y68.627
X77.394Y63.627
X35.255Y68.678
X35.255Y63.678
T4
X11.43Y11.811
X13.97Y57.531
X21.59Y11.811
X24.13Y57.531
X29.21Y57.531
X31.75Y11.811
X53.594Y11.811
X56.134Y57.531
X63.754Y11.811
X66.294Y57.531
X71.374Y57.531
X73.914Y11.811
T5
X30.353Y4.445
X21.59Y4.445
X72.39Y4.318
X63.754Y4.318
X3.937Y76.454
X3.937Y63.754
X46.355Y76.581
X46.355Y63.881
T6
X5.08Y54.991
X38.1Y14.351
X47.244Y54.991
X80.264Y14.351
T7
X80.0Y75.01
X5.0Y5.01
X80.0Y5.01
X30.0Y75.01
T0
M30
