G04 #@! TF.GenerationSoftware,KiCad,Pcbnew,5.1.6+dfsg1-1~bpo9+1*
G04 #@! TF.CreationDate,2022-04-04T20:49:37+02:00*
G04 #@! TF.ProjectId,sdrtrx-traco,73647274-7278-42d7-9472-61636f2e6b69,1*
G04 #@! TF.SameCoordinates,Original*
G04 #@! TF.FileFunction,Legend,Top*
G04 #@! TF.FilePolarity,Positive*
%FSLAX46Y46*%
G04 Gerber Fmt 4.6, Leading zero omitted, Abs format (unit mm)*
G04 Created by KiCad (PCBNEW 5.1.6+dfsg1-1~bpo9+1) date 2022-04-04 20:49:37*
%MOMM*%
%LPD*%
G01*
G04 APERTURE LIST*
%ADD10C,0.150000*%
%ADD11C,0.300000*%
%ADD12C,0.120000*%
%ADD13C,2.100000*%
%ADD14R,2.100000X2.100000*%
%ADD15R,2.890000X1.290000*%
%ADD16C,5.180000*%
%ADD17O,2.600000X6.100001*%
%ADD18R,2.600000X6.100000*%
%ADD19O,2.600000X6.100000*%
%ADD20C,6.500000*%
G04 APERTURE END LIST*
D10*
X42144142Y62857357D02*
X42144142Y64000214D01*
X42715571Y63428785D02*
X41572714Y63428785D01*
X41215571Y64500214D02*
X42715571Y65000214D01*
X41215571Y65500214D01*
X42715571Y66000214D02*
X41215571Y66000214D01*
X42715571Y66714500D02*
X41215571Y66714500D01*
X42715571Y67571642D01*
X41215571Y67571642D01*
X41287000Y73660142D02*
X41215571Y73517285D01*
X41215571Y73303000D01*
X41287000Y73088714D01*
X41429857Y72945857D01*
X41572714Y72874428D01*
X41858428Y72803000D01*
X42072714Y72803000D01*
X42358428Y72874428D01*
X42501285Y72945857D01*
X42644142Y73088714D01*
X42715571Y73303000D01*
X42715571Y73445857D01*
X42644142Y73660142D01*
X42572714Y73731571D01*
X42072714Y73731571D01*
X42072714Y73445857D01*
X42715571Y74374428D02*
X41215571Y74374428D01*
X42715571Y75231571D01*
X41215571Y75231571D01*
X42715571Y75945857D02*
X41215571Y75945857D01*
X41215571Y76303000D01*
X41287000Y76517285D01*
X41429857Y76660142D01*
X41572714Y76731571D01*
X41858428Y76803000D01*
X42072714Y76803000D01*
X42358428Y76731571D01*
X42501285Y76660142D01*
X42644142Y76517285D01*
X42715571Y76303000D01*
X42715571Y75945857D01*
X770000Y75438095D02*
X722380Y75342857D01*
X722380Y75200000D01*
X770000Y75057142D01*
X865238Y74961904D01*
X960476Y74914285D01*
X1150952Y74866666D01*
X1293809Y74866666D01*
X1484285Y74914285D01*
X1579523Y74961904D01*
X1674761Y75057142D01*
X1722380Y75200000D01*
X1722380Y75295238D01*
X1674761Y75438095D01*
X1627142Y75485714D01*
X1293809Y75485714D01*
X1293809Y75295238D01*
X1722380Y75914285D02*
X722380Y75914285D01*
X1722380Y76485714D01*
X722380Y76485714D01*
X1722380Y76961904D02*
X722380Y76961904D01*
X722380Y77200000D01*
X770000Y77342857D01*
X865238Y77438095D01*
X960476Y77485714D01*
X1150952Y77533333D01*
X1293809Y77533333D01*
X1484285Y77485714D01*
X1579523Y77438095D01*
X1674761Y77342857D01*
X1722380Y77200000D01*
X1722380Y76961904D01*
X1214428Y61992071D02*
X1214428Y62753976D01*
X1595380Y62373023D02*
X833476Y62373023D01*
X595380Y63087309D02*
X1595380Y63420642D01*
X595380Y63753976D01*
X1595380Y64087309D02*
X595380Y64087309D01*
X1595380Y64563500D02*
X595380Y64563500D01*
X1595380Y65134928D01*
X595380Y65134928D01*
X68871757Y78186671D02*
X68943185Y78258100D01*
X69086042Y78329528D01*
X69443185Y78329528D01*
X69586042Y78258100D01*
X69657471Y78186671D01*
X69728900Y78043814D01*
X69728900Y77900957D01*
X69657471Y77686671D01*
X68800328Y76829528D01*
X69728900Y76829528D01*
X70586042Y76829528D02*
X70443185Y76900957D01*
X70371757Y76972385D01*
X70300328Y77115242D01*
X70300328Y77543814D01*
X70371757Y77686671D01*
X70443185Y77758100D01*
X70586042Y77829528D01*
X70800328Y77829528D01*
X70943185Y77758100D01*
X71014614Y77686671D01*
X71086042Y77543814D01*
X71086042Y77115242D01*
X71014614Y76972385D01*
X70943185Y76900957D01*
X70800328Y76829528D01*
X70586042Y76829528D01*
X71586042Y77829528D02*
X72371757Y77829528D01*
X71586042Y76829528D01*
X72371757Y76829528D01*
X72586042Y76686671D02*
X73728900Y76686671D01*
X74728900Y76900957D02*
X74586042Y76829528D01*
X74300328Y76829528D01*
X74157471Y76900957D01*
X74086042Y76972385D01*
X74014614Y77115242D01*
X74014614Y77543814D01*
X74086042Y77686671D01*
X74157471Y77758100D01*
X74300328Y77829528D01*
X74586042Y77829528D01*
X74728900Y77758100D01*
X76014614Y77829528D02*
X76014614Y76829528D01*
X75371757Y77829528D02*
X75371757Y77043814D01*
X75443185Y76900957D01*
X75586042Y76829528D01*
X75800328Y76829528D01*
X75943185Y76900957D01*
X76014614Y76972385D01*
X55443857Y36996619D02*
X56015285Y36996619D01*
X55729571Y35996619D02*
X55729571Y36996619D01*
X56920047Y35996619D02*
X56586714Y36472809D01*
X56348619Y35996619D02*
X56348619Y36996619D01*
X56729571Y36996619D01*
X56824809Y36949000D01*
X56872428Y36901380D01*
X56920047Y36806142D01*
X56920047Y36663285D01*
X56872428Y36568047D01*
X56824809Y36520428D01*
X56729571Y36472809D01*
X56348619Y36472809D01*
X57348619Y35996619D02*
X57348619Y36996619D01*
X57824809Y35996619D02*
X57824809Y36996619D01*
X58158142Y36282333D01*
X58491476Y36996619D01*
X58491476Y35996619D01*
X58729571Y35901380D02*
X59491476Y35901380D01*
X59681952Y36901380D02*
X59729571Y36949000D01*
X59824809Y36996619D01*
X60062904Y36996619D01*
X60158142Y36949000D01*
X60205761Y36901380D01*
X60253380Y36806142D01*
X60253380Y36710904D01*
X60205761Y36568047D01*
X59634333Y35996619D01*
X60253380Y35996619D01*
X61110523Y36663285D02*
X61110523Y35996619D01*
X60872428Y37044238D02*
X60634333Y36329952D01*
X61253380Y36329952D01*
X61491476Y36996619D02*
X61824809Y35996619D01*
X62158142Y36996619D01*
X13565547Y37314119D02*
X14136976Y37314119D01*
X13851261Y36314119D02*
X13851261Y37314119D01*
X15041738Y36314119D02*
X14708404Y36790309D01*
X14470309Y36314119D02*
X14470309Y37314119D01*
X14851261Y37314119D01*
X14946500Y37266500D01*
X14994119Y37218880D01*
X15041738Y37123642D01*
X15041738Y36980785D01*
X14994119Y36885547D01*
X14946500Y36837928D01*
X14851261Y36790309D01*
X14470309Y36790309D01*
X15470309Y36314119D02*
X15470309Y37314119D01*
X15946500Y36314119D02*
X15946500Y37314119D01*
X16279833Y36599833D01*
X16613166Y37314119D01*
X16613166Y36314119D01*
X16851261Y36218880D02*
X17613166Y36218880D01*
X18327452Y37314119D02*
X17851261Y37314119D01*
X17803642Y36837928D01*
X17851261Y36885547D01*
X17946500Y36933166D01*
X18184595Y36933166D01*
X18279833Y36885547D01*
X18327452Y36837928D01*
X18375071Y36742690D01*
X18375071Y36504595D01*
X18327452Y36409357D01*
X18279833Y36361738D01*
X18184595Y36314119D01*
X17946500Y36314119D01*
X17851261Y36361738D01*
X17803642Y36409357D01*
X18660785Y37314119D02*
X18994119Y36314119D01*
X19327452Y37314119D01*
X69493142Y1289857D02*
X70636000Y1289857D01*
X70064571Y718428D02*
X70064571Y1861285D01*
X71278857Y2075571D02*
X71350285Y2147000D01*
X71493142Y2218428D01*
X71850285Y2218428D01*
X71993142Y2147000D01*
X72064571Y2075571D01*
X72136000Y1932714D01*
X72136000Y1789857D01*
X72064571Y1575571D01*
X71207428Y718428D01*
X72136000Y718428D01*
X73421714Y1718428D02*
X73421714Y718428D01*
X73064571Y2289857D02*
X72707428Y1218428D01*
X73636000Y1218428D01*
X73993142Y2218428D02*
X74493142Y718428D01*
X74993142Y2218428D01*
X62484142Y2147000D02*
X62341285Y2218428D01*
X62127000Y2218428D01*
X61912714Y2147000D01*
X61769857Y2004142D01*
X61698428Y1861285D01*
X61627000Y1575571D01*
X61627000Y1361285D01*
X61698428Y1075571D01*
X61769857Y932714D01*
X61912714Y789857D01*
X62127000Y718428D01*
X62269857Y718428D01*
X62484142Y789857D01*
X62555571Y861285D01*
X62555571Y1361285D01*
X62269857Y1361285D01*
X63198428Y718428D02*
X63198428Y2218428D01*
X64055571Y718428D01*
X64055571Y2218428D01*
X64769857Y718428D02*
X64769857Y2218428D01*
X65127000Y2218428D01*
X65341285Y2147000D01*
X65484142Y2004142D01*
X65555571Y1861285D01*
X65627000Y1575571D01*
X65627000Y1361285D01*
X65555571Y1075571D01*
X65484142Y932714D01*
X65341285Y789857D01*
X65127000Y718428D01*
X64769857Y718428D01*
X20320142Y2401000D02*
X20177285Y2472428D01*
X19963000Y2472428D01*
X19748714Y2401000D01*
X19605857Y2258142D01*
X19534428Y2115285D01*
X19463000Y1829571D01*
X19463000Y1615285D01*
X19534428Y1329571D01*
X19605857Y1186714D01*
X19748714Y1043857D01*
X19963000Y972428D01*
X20105857Y972428D01*
X20320142Y1043857D01*
X20391571Y1115285D01*
X20391571Y1615285D01*
X20105857Y1615285D01*
X21034428Y972428D02*
X21034428Y2472428D01*
X21891571Y972428D01*
X21891571Y2472428D01*
X22605857Y972428D02*
X22605857Y2472428D01*
X22963000Y2472428D01*
X23177285Y2401000D01*
X23320142Y2258142D01*
X23391571Y2115285D01*
X23463000Y1829571D01*
X23463000Y1615285D01*
X23391571Y1329571D01*
X23320142Y1186714D01*
X23177285Y1043857D01*
X22963000Y972428D01*
X22605857Y972428D01*
X28297428Y1543857D02*
X29440285Y1543857D01*
X28868857Y972428D02*
X28868857Y2115285D01*
X30868857Y2472428D02*
X30154571Y2472428D01*
X30083142Y1758142D01*
X30154571Y1829571D01*
X30297428Y1901000D01*
X30654571Y1901000D01*
X30797428Y1829571D01*
X30868857Y1758142D01*
X30940285Y1615285D01*
X30940285Y1258142D01*
X30868857Y1115285D01*
X30797428Y1043857D01*
X30654571Y972428D01*
X30297428Y972428D01*
X30154571Y1043857D01*
X30083142Y1115285D01*
X31368857Y2472428D02*
X31868857Y972428D01*
X32368857Y2472428D01*
D11*
X4213942Y13496199D02*
X4285371Y13710485D01*
X4285371Y14067628D01*
X4213942Y14210485D01*
X4142514Y14281914D01*
X3999657Y14353342D01*
X3856799Y14353342D01*
X3713942Y14281914D01*
X3642514Y14210485D01*
X3571085Y14067628D01*
X3499657Y13781914D01*
X3428228Y13639057D01*
X3356799Y13567628D01*
X3213942Y13496199D01*
X3071085Y13496199D01*
X2928228Y13567628D01*
X2856799Y13639057D01*
X2785371Y13781914D01*
X2785371Y14139057D01*
X2856799Y14353342D01*
X4285371Y14996199D02*
X2785371Y14996199D01*
X2785371Y15353342D01*
X2856799Y15567628D01*
X2999657Y15710485D01*
X3142514Y15781914D01*
X3428228Y15853342D01*
X3642514Y15853342D01*
X3928228Y15781914D01*
X4071085Y15710485D01*
X4213942Y15567628D01*
X4285371Y15353342D01*
X4285371Y14996199D01*
X4285371Y17353342D02*
X3571085Y16853342D01*
X4285371Y16496199D02*
X2785371Y16496199D01*
X2785371Y17067628D01*
X2856799Y17210485D01*
X2928228Y17281914D01*
X3071085Y17353342D01*
X3285371Y17353342D01*
X3428228Y17281914D01*
X3499657Y17210485D01*
X3571085Y17067628D01*
X3571085Y16496199D01*
X2785371Y18924771D02*
X2785371Y19781914D01*
X4285371Y19353342D02*
X2785371Y19353342D01*
X4285371Y21139057D02*
X3571085Y20639057D01*
X4285371Y20281914D02*
X2785371Y20281914D01*
X2785371Y20853342D01*
X2856799Y20996199D01*
X2928228Y21067628D01*
X3071085Y21139057D01*
X3285371Y21139057D01*
X3428228Y21067628D01*
X3499657Y20996199D01*
X3571085Y20853342D01*
X3571085Y20281914D01*
X2785371Y21639057D02*
X4285371Y22639057D01*
X2785371Y22639057D02*
X4285371Y21639057D01*
X2785371Y24139057D02*
X2785371Y24996199D01*
X4285371Y24567628D02*
X2785371Y24567628D01*
X4285371Y25496199D02*
X3285371Y25496199D01*
X3571085Y25496199D02*
X3428228Y25567628D01*
X3356800Y25639057D01*
X3285371Y25781914D01*
X3285371Y25924771D01*
X4285371Y27067628D02*
X3499657Y27067628D01*
X3356800Y26996199D01*
X3285371Y26853342D01*
X3285371Y26567628D01*
X3356800Y26424771D01*
X4213942Y27067628D02*
X4285371Y26924771D01*
X4285371Y26567628D01*
X4213942Y26424771D01*
X4071085Y26353342D01*
X3928228Y26353342D01*
X3785371Y26424771D01*
X3713942Y26567628D01*
X3713942Y26924771D01*
X3642514Y27067628D01*
X4213942Y28424771D02*
X4285371Y28281914D01*
X4285371Y27996199D01*
X4213942Y27853342D01*
X4142514Y27781914D01*
X3999657Y27710485D01*
X3571085Y27710485D01*
X3428228Y27781914D01*
X3356800Y27853342D01*
X3285371Y27996199D01*
X3285371Y28281914D01*
X3356800Y28424771D01*
X4285371Y29281914D02*
X4213942Y29139057D01*
X4142514Y29067628D01*
X3999657Y28996199D01*
X3571085Y28996199D01*
X3428228Y29067628D01*
X3356800Y29139057D01*
X3285371Y29281914D01*
X3285371Y29496199D01*
X3356800Y29639057D01*
X3428228Y29710485D01*
X3571085Y29781914D01*
X3999657Y29781914D01*
X4142514Y29710485D01*
X4213942Y29639057D01*
X4285371Y29496199D01*
X4285371Y29281914D01*
X3499657Y30924771D02*
X3571085Y31139057D01*
X3642514Y31210485D01*
X3785371Y31281914D01*
X3999657Y31281914D01*
X4142514Y31210485D01*
X4213942Y31139057D01*
X4285371Y30996199D01*
X4285371Y30424771D01*
X2785371Y30424771D01*
X2785371Y30924771D01*
X2856800Y31067628D01*
X2928228Y31139057D01*
X3071085Y31210485D01*
X3213942Y31210485D01*
X3356800Y31139057D01*
X3428228Y31067628D01*
X3499657Y30924771D01*
X3499657Y30424771D01*
X4285371Y32139057D02*
X4213942Y31996199D01*
X4142514Y31924771D01*
X3999657Y31853342D01*
X3571085Y31853342D01*
X3428228Y31924771D01*
X3356800Y31996199D01*
X3285371Y32139057D01*
X3285371Y32353342D01*
X3356800Y32496199D01*
X3428228Y32567628D01*
X3571085Y32639057D01*
X3999657Y32639057D01*
X4142514Y32567628D01*
X4213942Y32496199D01*
X4285371Y32353342D01*
X4285371Y32139057D01*
X4285371Y33924771D02*
X3499657Y33924771D01*
X3356800Y33853342D01*
X3285371Y33710485D01*
X3285371Y33424771D01*
X3356800Y33281914D01*
X4213942Y33924771D02*
X4285371Y33781914D01*
X4285371Y33424771D01*
X4213942Y33281914D01*
X4071085Y33210485D01*
X3928228Y33210485D01*
X3785371Y33281914D01*
X3713942Y33424771D01*
X3713942Y33781914D01*
X3642514Y33924771D01*
X4285371Y34639057D02*
X3285371Y34639057D01*
X3571085Y34639057D02*
X3428228Y34710485D01*
X3356800Y34781914D01*
X3285371Y34924771D01*
X3285371Y35067628D01*
X4285371Y36210485D02*
X2785371Y36210485D01*
X4213942Y36210485D02*
X4285371Y36067628D01*
X4285371Y35781914D01*
X4213942Y35639057D01*
X4142514Y35567628D01*
X3999657Y35496200D01*
X3571085Y35496200D01*
X3428228Y35567628D01*
X3356800Y35639057D01*
X3285371Y35781914D01*
X3285371Y36067628D01*
X3356800Y36210485D01*
X3285371Y37924771D02*
X4285371Y38281914D01*
X3285371Y38639057D01*
X2785371Y39067628D02*
X2785371Y39996199D01*
X3356800Y39496199D01*
X3356800Y39710485D01*
X3428228Y39853342D01*
X3499657Y39924771D01*
X3642514Y39996199D01*
X3999657Y39996199D01*
X4142514Y39924771D01*
X4213942Y39853342D01*
X4285371Y39710485D01*
X4285371Y39281914D01*
X4213942Y39139057D01*
X4142514Y39067628D01*
X6698371Y13654342D02*
X6626942Y13511485D01*
X6555514Y13440057D01*
X6412657Y13368628D01*
X5984085Y13368628D01*
X5841228Y13440057D01*
X5769799Y13511485D01*
X5698371Y13654342D01*
X5698371Y13868628D01*
X5769799Y14011485D01*
X5841228Y14082914D01*
X5984085Y14154342D01*
X6412657Y14154342D01*
X6555514Y14082914D01*
X6626942Y14011485D01*
X6698371Y13868628D01*
X6698371Y13654342D01*
X6626942Y15368628D02*
X6698371Y15225771D01*
X6698371Y14940057D01*
X6626942Y14797200D01*
X6484085Y14725771D01*
X5912657Y14725771D01*
X5769800Y14797200D01*
X5698371Y14940057D01*
X5698371Y15225771D01*
X5769800Y15368628D01*
X5912657Y15440057D01*
X6055514Y15440057D01*
X6198371Y14725771D01*
X6698371Y16154342D02*
X6698371Y16440057D01*
X6626942Y16582914D01*
X6555514Y16654342D01*
X6341228Y16797200D01*
X6055514Y16868628D01*
X5484085Y16868628D01*
X5341228Y16797200D01*
X5269800Y16725771D01*
X5198371Y16582914D01*
X5198371Y16297200D01*
X5269800Y16154342D01*
X5341228Y16082914D01*
X5484085Y16011485D01*
X5841228Y16011485D01*
X5984085Y16082914D01*
X6055514Y16154342D01*
X6126942Y16297200D01*
X6126942Y16582914D01*
X6055514Y16725771D01*
X5984085Y16797200D01*
X5841228Y16868628D01*
X6698371Y17511485D02*
X5698371Y17511485D01*
X5984085Y17511485D02*
X5841228Y17582914D01*
X5769800Y17654342D01*
X5698371Y17797200D01*
X5698371Y17940057D01*
X6698371Y18440057D02*
X5698371Y18440057D01*
X5198371Y18440057D02*
X5269800Y18368628D01*
X5341228Y18440057D01*
X5269800Y18511485D01*
X5198371Y18440057D01*
X5341228Y18440057D01*
X6698371Y19154342D02*
X5698371Y19154342D01*
X5984085Y19154342D02*
X5841228Y19225771D01*
X5769800Y19297200D01*
X5698371Y19440057D01*
X5698371Y19582914D01*
X7269800Y21654342D02*
X7198371Y21582914D01*
X6984085Y21440057D01*
X6841228Y21368628D01*
X6626942Y21297200D01*
X6269800Y21225771D01*
X5984085Y21225771D01*
X5626942Y21297200D01*
X5412657Y21368628D01*
X5269800Y21440057D01*
X5055514Y21582914D01*
X4984085Y21654342D01*
X6626942Y22868628D02*
X6698371Y22725771D01*
X6698371Y22440057D01*
X6626942Y22297200D01*
X6555514Y22225771D01*
X6412657Y22154342D01*
X5984085Y22154342D01*
X5841228Y22225771D01*
X5769800Y22297200D01*
X5698371Y22440057D01*
X5698371Y22725771D01*
X5769800Y22868628D01*
X7269800Y23368628D02*
X7198371Y23440057D01*
X6984085Y23582914D01*
X6841228Y23654342D01*
X6626942Y23725771D01*
X6269800Y23797200D01*
X5984085Y23797200D01*
X5626942Y23725771D01*
X5412657Y23654342D01*
X5269800Y23582914D01*
X5055514Y23440057D01*
X4984085Y23368628D01*
X5341228Y25582914D02*
X5269800Y25654342D01*
X5198371Y25797200D01*
X5198371Y26154342D01*
X5269800Y26297200D01*
X5341228Y26368628D01*
X5484085Y26440057D01*
X5626942Y26440057D01*
X5841228Y26368628D01*
X6698371Y25511485D01*
X6698371Y26440057D01*
X5198371Y27368628D02*
X5198371Y27511485D01*
X5269800Y27654342D01*
X5341228Y27725771D01*
X5484085Y27797200D01*
X5769800Y27868628D01*
X6126942Y27868628D01*
X6412657Y27797200D01*
X6555514Y27725771D01*
X6626942Y27654342D01*
X6698371Y27511485D01*
X6698371Y27368628D01*
X6626942Y27225771D01*
X6555514Y27154342D01*
X6412657Y27082914D01*
X6126942Y27011485D01*
X5769800Y27011485D01*
X5484085Y27082914D01*
X5341228Y27154342D01*
X5269800Y27225771D01*
X5198371Y27368628D01*
X5341228Y28440057D02*
X5269800Y28511485D01*
X5198371Y28654342D01*
X5198371Y29011485D01*
X5269800Y29154342D01*
X5341228Y29225771D01*
X5484085Y29297200D01*
X5626942Y29297200D01*
X5841228Y29225771D01*
X6698371Y28368628D01*
X6698371Y29297200D01*
X5341228Y29868628D02*
X5269800Y29940057D01*
X5198371Y30082914D01*
X5198371Y30440057D01*
X5269800Y30582914D01*
X5341228Y30654342D01*
X5484085Y30725771D01*
X5626942Y30725771D01*
X5841228Y30654342D01*
X6698371Y29797200D01*
X6698371Y30725771D01*
D12*
X8051600Y40462200D02*
X8051600Y48717200D01*
X12471600Y40589200D02*
X12471600Y48717200D01*
X35839200Y30213300D02*
X35839200Y38468300D01*
X40259200Y30340300D02*
X40259200Y38468300D01*
X49872700Y40551100D02*
X49872700Y48806100D01*
X54292700Y40678100D02*
X54292700Y48806100D01*
X77914300Y29908500D02*
X77914300Y38163500D01*
X82334300Y30035500D02*
X82334300Y38163500D01*
X70180000Y29972000D02*
X70180000Y38227000D01*
X74600000Y30099000D02*
X74600000Y38227000D01*
X31928000Y38481000D02*
X31928000Y30226000D01*
X27508000Y38354000D02*
X27508000Y30226000D01*
X74018800Y61147354D02*
X75018800Y61147354D01*
X74518800Y60647354D02*
X74518800Y61647354D01*
X76794800Y71208000D02*
X77992800Y71208000D01*
X76531800Y71168000D02*
X78255800Y71168000D01*
X76331800Y71128000D02*
X78455800Y71128000D01*
X76163800Y71088000D02*
X78623800Y71088000D01*
X76015800Y71048000D02*
X78771800Y71048000D01*
X75883800Y71008000D02*
X78903800Y71008000D01*
X75763800Y70968000D02*
X79023800Y70968000D01*
X75651800Y70928000D02*
X79135800Y70928000D01*
X75547800Y70888000D02*
X79239800Y70888000D01*
X75449800Y70848000D02*
X79337800Y70848000D01*
X75356800Y70808000D02*
X79430800Y70808000D01*
X75268800Y70768000D02*
X79518800Y70768000D01*
X75184800Y70728000D02*
X79602800Y70728000D01*
X75104800Y70688000D02*
X79682800Y70688000D01*
X75028800Y70648000D02*
X79758800Y70648000D01*
X74954800Y70608000D02*
X79832800Y70608000D01*
X74883800Y70568000D02*
X79903800Y70568000D01*
X74814800Y70528000D02*
X79972800Y70528000D01*
X74748800Y70488000D02*
X80038800Y70488000D01*
X74684800Y70448000D02*
X80102800Y70448000D01*
X74623800Y70408000D02*
X80163800Y70408000D01*
X74563800Y70368000D02*
X80223800Y70368000D01*
X74504800Y70328000D02*
X80282800Y70328000D01*
X74448800Y70288000D02*
X80338800Y70288000D01*
X74393800Y70248000D02*
X80393800Y70248000D01*
X74339800Y70208000D02*
X80447800Y70208000D01*
X74287800Y70168000D02*
X80499800Y70168000D01*
X74237800Y70128000D02*
X80549800Y70128000D01*
X74187800Y70088000D02*
X80599800Y70088000D01*
X74139800Y70048000D02*
X80647800Y70048000D01*
X74092800Y70008000D02*
X80694800Y70008000D01*
X74046800Y69968000D02*
X80740800Y69968000D01*
X74001800Y69928000D02*
X80785800Y69928000D01*
X73957800Y69888000D02*
X80829800Y69888000D01*
X78634800Y69848000D02*
X80871800Y69848000D01*
X73915800Y69848000D02*
X76152800Y69848000D01*
X78634800Y69808000D02*
X80913800Y69808000D01*
X73873800Y69808000D02*
X76152800Y69808000D01*
X78634800Y69768000D02*
X80954800Y69768000D01*
X73832800Y69768000D02*
X76152800Y69768000D01*
X78634800Y69728000D02*
X80994800Y69728000D01*
X73792800Y69728000D02*
X76152800Y69728000D01*
X78634800Y69688000D02*
X81033800Y69688000D01*
X73753800Y69688000D02*
X76152800Y69688000D01*
X78634800Y69648000D02*
X81072800Y69648000D01*
X73714800Y69648000D02*
X76152800Y69648000D01*
X78634800Y69608000D02*
X81109800Y69608000D01*
X73677800Y69608000D02*
X76152800Y69608000D01*
X78634800Y69568000D02*
X81146800Y69568000D01*
X73640800Y69568000D02*
X76152800Y69568000D01*
X78634800Y69528000D02*
X81182800Y69528000D01*
X73604800Y69528000D02*
X76152800Y69528000D01*
X78634800Y69488000D02*
X81217800Y69488000D01*
X73569800Y69488000D02*
X76152800Y69488000D01*
X78634800Y69448000D02*
X81251800Y69448000D01*
X73535800Y69448000D02*
X76152800Y69448000D01*
X78634800Y69408000D02*
X81285800Y69408000D01*
X73501800Y69408000D02*
X76152800Y69408000D01*
X78634800Y69368000D02*
X81318800Y69368000D01*
X73468800Y69368000D02*
X76152800Y69368000D01*
X78634800Y69328000D02*
X81350800Y69328000D01*
X73436800Y69328000D02*
X76152800Y69328000D01*
X78634800Y69288000D02*
X81382800Y69288000D01*
X73404800Y69288000D02*
X76152800Y69288000D01*
X78634800Y69248000D02*
X81413800Y69248000D01*
X73373800Y69248000D02*
X76152800Y69248000D01*
X78634800Y69208000D02*
X81443800Y69208000D01*
X73343800Y69208000D02*
X76152800Y69208000D01*
X78634800Y69168000D02*
X81473800Y69168000D01*
X73313800Y69168000D02*
X76152800Y69168000D01*
X78634800Y69128000D02*
X81503800Y69128000D01*
X73283800Y69128000D02*
X76152800Y69128000D01*
X78634800Y69088000D02*
X81531800Y69088000D01*
X73255800Y69088000D02*
X76152800Y69088000D01*
X78634800Y69048000D02*
X81559800Y69048000D01*
X73227800Y69048000D02*
X76152800Y69048000D01*
X78634800Y69008000D02*
X81587800Y69008000D01*
X73199800Y69008000D02*
X76152800Y69008000D01*
X78634800Y68968000D02*
X81614800Y68968000D01*
X73172800Y68968000D02*
X76152800Y68968000D01*
X78634800Y68928000D02*
X81640800Y68928000D01*
X73146800Y68928000D02*
X76152800Y68928000D01*
X78634800Y68888000D02*
X81666800Y68888000D01*
X73120800Y68888000D02*
X76152800Y68888000D01*
X78634800Y68848000D02*
X81691800Y68848000D01*
X73095800Y68848000D02*
X76152800Y68848000D01*
X78634800Y68808000D02*
X81716800Y68808000D01*
X73070800Y68808000D02*
X76152800Y68808000D01*
X78634800Y68768000D02*
X81740800Y68768000D01*
X73046800Y68768000D02*
X76152800Y68768000D01*
X78634800Y68728000D02*
X81764800Y68728000D01*
X73022800Y68728000D02*
X76152800Y68728000D01*
X78634800Y68688000D02*
X81788800Y68688000D01*
X72998800Y68688000D02*
X76152800Y68688000D01*
X78634800Y68648000D02*
X81810800Y68648000D01*
X72976800Y68648000D02*
X76152800Y68648000D01*
X78634800Y68608000D02*
X81833800Y68608000D01*
X72953800Y68608000D02*
X76152800Y68608000D01*
X78634800Y68568000D02*
X81855800Y68568000D01*
X72931800Y68568000D02*
X76152800Y68568000D01*
X78634800Y68528000D02*
X81876800Y68528000D01*
X72910800Y68528000D02*
X76152800Y68528000D01*
X78634800Y68488000D02*
X81897800Y68488000D01*
X72889800Y68488000D02*
X76152800Y68488000D01*
X78634800Y68448000D02*
X81918800Y68448000D01*
X72868800Y68448000D02*
X76152800Y68448000D01*
X78634800Y68408000D02*
X81938800Y68408000D01*
X72848800Y68408000D02*
X76152800Y68408000D01*
X78634800Y68368000D02*
X81957800Y68368000D01*
X72829800Y68368000D02*
X76152800Y68368000D01*
X78634800Y68328000D02*
X81977800Y68328000D01*
X72809800Y68328000D02*
X76152800Y68328000D01*
X78634800Y68288000D02*
X81996800Y68288000D01*
X72790800Y68288000D02*
X76152800Y68288000D01*
X78634800Y68248000D02*
X82014800Y68248000D01*
X72772800Y68248000D02*
X76152800Y68248000D01*
X78634800Y68208000D02*
X82032800Y68208000D01*
X72754800Y68208000D02*
X76152800Y68208000D01*
X78634800Y68168000D02*
X82050800Y68168000D01*
X72736800Y68168000D02*
X76152800Y68168000D01*
X78634800Y68128000D02*
X82067800Y68128000D01*
X72719800Y68128000D02*
X76152800Y68128000D01*
X78634800Y68088000D02*
X82083800Y68088000D01*
X72703800Y68088000D02*
X76152800Y68088000D01*
X78634800Y68048000D02*
X82100800Y68048000D01*
X72686800Y68048000D02*
X76152800Y68048000D01*
X78634800Y68008000D02*
X82116800Y68008000D01*
X72670800Y68008000D02*
X76152800Y68008000D01*
X78634800Y67968000D02*
X82131800Y67968000D01*
X72655800Y67968000D02*
X76152800Y67968000D01*
X78634800Y67928000D02*
X82147800Y67928000D01*
X72639800Y67928000D02*
X76152800Y67928000D01*
X78634800Y67888000D02*
X82161800Y67888000D01*
X72625800Y67888000D02*
X76152800Y67888000D01*
X78634800Y67848000D02*
X82176800Y67848000D01*
X72610800Y67848000D02*
X76152800Y67848000D01*
X78634800Y67808000D02*
X82190800Y67808000D01*
X72596800Y67808000D02*
X76152800Y67808000D01*
X78634800Y67768000D02*
X82204800Y67768000D01*
X72582800Y67768000D02*
X76152800Y67768000D01*
X78634800Y67728000D02*
X82217800Y67728000D01*
X72569800Y67728000D02*
X76152800Y67728000D01*
X78634800Y67688000D02*
X82230800Y67688000D01*
X72556800Y67688000D02*
X76152800Y67688000D01*
X78634800Y67648000D02*
X82243800Y67648000D01*
X72543800Y67648000D02*
X76152800Y67648000D01*
X78634800Y67608000D02*
X82255800Y67608000D01*
X72531800Y67608000D02*
X76152800Y67608000D01*
X78634800Y67568000D02*
X82267800Y67568000D01*
X72519800Y67568000D02*
X76152800Y67568000D01*
X78634800Y67528000D02*
X82278800Y67528000D01*
X72508800Y67528000D02*
X76152800Y67528000D01*
X78634800Y67488000D02*
X82290800Y67488000D01*
X72496800Y67488000D02*
X76152800Y67488000D01*
X78634800Y67448000D02*
X82300800Y67448000D01*
X72486800Y67448000D02*
X76152800Y67448000D01*
X78634800Y67408000D02*
X82311800Y67408000D01*
X72475800Y67408000D02*
X76152800Y67408000D01*
X72465800Y67368000D02*
X82321800Y67368000D01*
X72455800Y67328000D02*
X82331800Y67328000D01*
X72446800Y67288000D02*
X82340800Y67288000D01*
X72437800Y67248000D02*
X82349800Y67248000D01*
X72428800Y67208000D02*
X82358800Y67208000D01*
X72419800Y67168000D02*
X82367800Y67168000D01*
X72411800Y67128000D02*
X82375800Y67128000D01*
X72403800Y67088000D02*
X82383800Y67088000D01*
X72396800Y67048000D02*
X82390800Y67048000D01*
X72389800Y67008000D02*
X82397800Y67008000D01*
X72382800Y66968000D02*
X82404800Y66968000D01*
X72375800Y66928000D02*
X82411800Y66928000D01*
X72369800Y66888000D02*
X82417800Y66888000D01*
X72363800Y66848000D02*
X82423800Y66848000D01*
X72358800Y66807000D02*
X82428800Y66807000D01*
X72353800Y66767000D02*
X82433800Y66767000D01*
X72348800Y66727000D02*
X82438800Y66727000D01*
X72343800Y66687000D02*
X82443800Y66687000D01*
X72339800Y66647000D02*
X82447800Y66647000D01*
X72335800Y66607000D02*
X82451800Y66607000D01*
X72331800Y66567000D02*
X82455800Y66567000D01*
X72328800Y66527000D02*
X82458800Y66527000D01*
X72325800Y66487000D02*
X82461800Y66487000D01*
X72323800Y66447000D02*
X82463800Y66447000D01*
X72320800Y66407000D02*
X82466800Y66407000D01*
X72318800Y66367000D02*
X82468800Y66367000D01*
X72316800Y66327000D02*
X82470800Y66327000D01*
X72315800Y66287000D02*
X82471800Y66287000D01*
X72314800Y66247000D02*
X82472800Y66247000D01*
X72313800Y66207000D02*
X82473800Y66207000D01*
X72313800Y66167000D02*
X82473800Y66167000D01*
X72313800Y66127000D02*
X82473800Y66127000D01*
X82513800Y66127000D02*
G75*
G03*
X82513800Y66127000I-5120000J0D01*
G01*
X31880200Y61198154D02*
X32880200Y61198154D01*
X32380200Y60698154D02*
X32380200Y61698154D01*
X34656200Y71258800D02*
X35854200Y71258800D01*
X34393200Y71218800D02*
X36117200Y71218800D01*
X34193200Y71178800D02*
X36317200Y71178800D01*
X34025200Y71138800D02*
X36485200Y71138800D01*
X33877200Y71098800D02*
X36633200Y71098800D01*
X33745200Y71058800D02*
X36765200Y71058800D01*
X33625200Y71018800D02*
X36885200Y71018800D01*
X33513200Y70978800D02*
X36997200Y70978800D01*
X33409200Y70938800D02*
X37101200Y70938800D01*
X33311200Y70898800D02*
X37199200Y70898800D01*
X33218200Y70858800D02*
X37292200Y70858800D01*
X33130200Y70818800D02*
X37380200Y70818800D01*
X33046200Y70778800D02*
X37464200Y70778800D01*
X32966200Y70738800D02*
X37544200Y70738800D01*
X32890200Y70698800D02*
X37620200Y70698800D01*
X32816200Y70658800D02*
X37694200Y70658800D01*
X32745200Y70618800D02*
X37765200Y70618800D01*
X32676200Y70578800D02*
X37834200Y70578800D01*
X32610200Y70538800D02*
X37900200Y70538800D01*
X32546200Y70498800D02*
X37964200Y70498800D01*
X32485200Y70458800D02*
X38025200Y70458800D01*
X32425200Y70418800D02*
X38085200Y70418800D01*
X32366200Y70378800D02*
X38144200Y70378800D01*
X32310200Y70338800D02*
X38200200Y70338800D01*
X32255200Y70298800D02*
X38255200Y70298800D01*
X32201200Y70258800D02*
X38309200Y70258800D01*
X32149200Y70218800D02*
X38361200Y70218800D01*
X32099200Y70178800D02*
X38411200Y70178800D01*
X32049200Y70138800D02*
X38461200Y70138800D01*
X32001200Y70098800D02*
X38509200Y70098800D01*
X31954200Y70058800D02*
X38556200Y70058800D01*
X31908200Y70018800D02*
X38602200Y70018800D01*
X31863200Y69978800D02*
X38647200Y69978800D01*
X31819200Y69938800D02*
X38691200Y69938800D01*
X36496200Y69898800D02*
X38733200Y69898800D01*
X31777200Y69898800D02*
X34014200Y69898800D01*
X36496200Y69858800D02*
X38775200Y69858800D01*
X31735200Y69858800D02*
X34014200Y69858800D01*
X36496200Y69818800D02*
X38816200Y69818800D01*
X31694200Y69818800D02*
X34014200Y69818800D01*
X36496200Y69778800D02*
X38856200Y69778800D01*
X31654200Y69778800D02*
X34014200Y69778800D01*
X36496200Y69738800D02*
X38895200Y69738800D01*
X31615200Y69738800D02*
X34014200Y69738800D01*
X36496200Y69698800D02*
X38934200Y69698800D01*
X31576200Y69698800D02*
X34014200Y69698800D01*
X36496200Y69658800D02*
X38971200Y69658800D01*
X31539200Y69658800D02*
X34014200Y69658800D01*
X36496200Y69618800D02*
X39008200Y69618800D01*
X31502200Y69618800D02*
X34014200Y69618800D01*
X36496200Y69578800D02*
X39044200Y69578800D01*
X31466200Y69578800D02*
X34014200Y69578800D01*
X36496200Y69538800D02*
X39079200Y69538800D01*
X31431200Y69538800D02*
X34014200Y69538800D01*
X36496200Y69498800D02*
X39113200Y69498800D01*
X31397200Y69498800D02*
X34014200Y69498800D01*
X36496200Y69458800D02*
X39147200Y69458800D01*
X31363200Y69458800D02*
X34014200Y69458800D01*
X36496200Y69418800D02*
X39180200Y69418800D01*
X31330200Y69418800D02*
X34014200Y69418800D01*
X36496200Y69378800D02*
X39212200Y69378800D01*
X31298200Y69378800D02*
X34014200Y69378800D01*
X36496200Y69338800D02*
X39244200Y69338800D01*
X31266200Y69338800D02*
X34014200Y69338800D01*
X36496200Y69298800D02*
X39275200Y69298800D01*
X31235200Y69298800D02*
X34014200Y69298800D01*
X36496200Y69258800D02*
X39305200Y69258800D01*
X31205200Y69258800D02*
X34014200Y69258800D01*
X36496200Y69218800D02*
X39335200Y69218800D01*
X31175200Y69218800D02*
X34014200Y69218800D01*
X36496200Y69178800D02*
X39365200Y69178800D01*
X31145200Y69178800D02*
X34014200Y69178800D01*
X36496200Y69138800D02*
X39393200Y69138800D01*
X31117200Y69138800D02*
X34014200Y69138800D01*
X36496200Y69098800D02*
X39421200Y69098800D01*
X31089200Y69098800D02*
X34014200Y69098800D01*
X36496200Y69058800D02*
X39449200Y69058800D01*
X31061200Y69058800D02*
X34014200Y69058800D01*
X36496200Y69018800D02*
X39476200Y69018800D01*
X31034200Y69018800D02*
X34014200Y69018800D01*
X36496200Y68978800D02*
X39502200Y68978800D01*
X31008200Y68978800D02*
X34014200Y68978800D01*
X36496200Y68938800D02*
X39528200Y68938800D01*
X30982200Y68938800D02*
X34014200Y68938800D01*
X36496200Y68898800D02*
X39553200Y68898800D01*
X30957200Y68898800D02*
X34014200Y68898800D01*
X36496200Y68858800D02*
X39578200Y68858800D01*
X30932200Y68858800D02*
X34014200Y68858800D01*
X36496200Y68818800D02*
X39602200Y68818800D01*
X30908200Y68818800D02*
X34014200Y68818800D01*
X36496200Y68778800D02*
X39626200Y68778800D01*
X30884200Y68778800D02*
X34014200Y68778800D01*
X36496200Y68738800D02*
X39650200Y68738800D01*
X30860200Y68738800D02*
X34014200Y68738800D01*
X36496200Y68698800D02*
X39672200Y68698800D01*
X30838200Y68698800D02*
X34014200Y68698800D01*
X36496200Y68658800D02*
X39695200Y68658800D01*
X30815200Y68658800D02*
X34014200Y68658800D01*
X36496200Y68618800D02*
X39717200Y68618800D01*
X30793200Y68618800D02*
X34014200Y68618800D01*
X36496200Y68578800D02*
X39738200Y68578800D01*
X30772200Y68578800D02*
X34014200Y68578800D01*
X36496200Y68538800D02*
X39759200Y68538800D01*
X30751200Y68538800D02*
X34014200Y68538800D01*
X36496200Y68498800D02*
X39780200Y68498800D01*
X30730200Y68498800D02*
X34014200Y68498800D01*
X36496200Y68458800D02*
X39800200Y68458800D01*
X30710200Y68458800D02*
X34014200Y68458800D01*
X36496200Y68418800D02*
X39819200Y68418800D01*
X30691200Y68418800D02*
X34014200Y68418800D01*
X36496200Y68378800D02*
X39839200Y68378800D01*
X30671200Y68378800D02*
X34014200Y68378800D01*
X36496200Y68338800D02*
X39858200Y68338800D01*
X30652200Y68338800D02*
X34014200Y68338800D01*
X36496200Y68298800D02*
X39876200Y68298800D01*
X30634200Y68298800D02*
X34014200Y68298800D01*
X36496200Y68258800D02*
X39894200Y68258800D01*
X30616200Y68258800D02*
X34014200Y68258800D01*
X36496200Y68218800D02*
X39912200Y68218800D01*
X30598200Y68218800D02*
X34014200Y68218800D01*
X36496200Y68178800D02*
X39929200Y68178800D01*
X30581200Y68178800D02*
X34014200Y68178800D01*
X36496200Y68138800D02*
X39945200Y68138800D01*
X30565200Y68138800D02*
X34014200Y68138800D01*
X36496200Y68098800D02*
X39962200Y68098800D01*
X30548200Y68098800D02*
X34014200Y68098800D01*
X36496200Y68058800D02*
X39978200Y68058800D01*
X30532200Y68058800D02*
X34014200Y68058800D01*
X36496200Y68018800D02*
X39993200Y68018800D01*
X30517200Y68018800D02*
X34014200Y68018800D01*
X36496200Y67978800D02*
X40009200Y67978800D01*
X30501200Y67978800D02*
X34014200Y67978800D01*
X36496200Y67938800D02*
X40023200Y67938800D01*
X30487200Y67938800D02*
X34014200Y67938800D01*
X36496200Y67898800D02*
X40038200Y67898800D01*
X30472200Y67898800D02*
X34014200Y67898800D01*
X36496200Y67858800D02*
X40052200Y67858800D01*
X30458200Y67858800D02*
X34014200Y67858800D01*
X36496200Y67818800D02*
X40066200Y67818800D01*
X30444200Y67818800D02*
X34014200Y67818800D01*
X36496200Y67778800D02*
X40079200Y67778800D01*
X30431200Y67778800D02*
X34014200Y67778800D01*
X36496200Y67738800D02*
X40092200Y67738800D01*
X30418200Y67738800D02*
X34014200Y67738800D01*
X36496200Y67698800D02*
X40105200Y67698800D01*
X30405200Y67698800D02*
X34014200Y67698800D01*
X36496200Y67658800D02*
X40117200Y67658800D01*
X30393200Y67658800D02*
X34014200Y67658800D01*
X36496200Y67618800D02*
X40129200Y67618800D01*
X30381200Y67618800D02*
X34014200Y67618800D01*
X36496200Y67578800D02*
X40140200Y67578800D01*
X30370200Y67578800D02*
X34014200Y67578800D01*
X36496200Y67538800D02*
X40152200Y67538800D01*
X30358200Y67538800D02*
X34014200Y67538800D01*
X36496200Y67498800D02*
X40162200Y67498800D01*
X30348200Y67498800D02*
X34014200Y67498800D01*
X36496200Y67458800D02*
X40173200Y67458800D01*
X30337200Y67458800D02*
X34014200Y67458800D01*
X30327200Y67418800D02*
X40183200Y67418800D01*
X30317200Y67378800D02*
X40193200Y67378800D01*
X30308200Y67338800D02*
X40202200Y67338800D01*
X30299200Y67298800D02*
X40211200Y67298800D01*
X30290200Y67258800D02*
X40220200Y67258800D01*
X30281200Y67218800D02*
X40229200Y67218800D01*
X30273200Y67178800D02*
X40237200Y67178800D01*
X30265200Y67138800D02*
X40245200Y67138800D01*
X30258200Y67098800D02*
X40252200Y67098800D01*
X30251200Y67058800D02*
X40259200Y67058800D01*
X30244200Y67018800D02*
X40266200Y67018800D01*
X30237200Y66978800D02*
X40273200Y66978800D01*
X30231200Y66938800D02*
X40279200Y66938800D01*
X30225200Y66898800D02*
X40285200Y66898800D01*
X30220200Y66857800D02*
X40290200Y66857800D01*
X30215200Y66817800D02*
X40295200Y66817800D01*
X30210200Y66777800D02*
X40300200Y66777800D01*
X30205200Y66737800D02*
X40305200Y66737800D01*
X30201200Y66697800D02*
X40309200Y66697800D01*
X30197200Y66657800D02*
X40313200Y66657800D01*
X30193200Y66617800D02*
X40317200Y66617800D01*
X30190200Y66577800D02*
X40320200Y66577800D01*
X30187200Y66537800D02*
X40323200Y66537800D01*
X30185200Y66497800D02*
X40325200Y66497800D01*
X30182200Y66457800D02*
X40328200Y66457800D01*
X30180200Y66417800D02*
X40330200Y66417800D01*
X30178200Y66377800D02*
X40332200Y66377800D01*
X30177200Y66337800D02*
X40333200Y66337800D01*
X30176200Y66297800D02*
X40334200Y66297800D01*
X30175200Y66257800D02*
X40335200Y66257800D01*
X30175200Y66217800D02*
X40335200Y66217800D01*
X30175200Y66177800D02*
X40335200Y66177800D01*
X40375200Y66177800D02*
G75*
G03*
X40375200Y66177800I-5120000J0D01*
G01*
X47715000Y69501936D02*
X47715000Y70706064D01*
X44995000Y69501936D02*
X44995000Y70706064D01*
X5297000Y69755936D02*
X5297000Y70960064D01*
X2577000Y69755936D02*
X2577000Y70960064D01*
X61280000Y31490000D02*
X61280000Y30540000D01*
X61280000Y30540000D02*
X60330000Y30540000D01*
X60330000Y30540000D02*
X60330000Y29850000D01*
X55560000Y31490000D02*
X55560000Y30540000D01*
X55560000Y30540000D02*
X56510000Y30540000D01*
X60910000Y34460000D02*
X55930000Y34460000D01*
X23922500Y27806000D02*
X26976500Y27806000D01*
X23922500Y21216000D02*
X26976500Y21216000D01*
X26976500Y25346000D02*
X26976500Y27806000D01*
X26976500Y21216000D02*
X26976500Y23676000D01*
X22416500Y22806000D02*
X22416500Y26216000D01*
X55482000Y27107500D02*
X58536000Y27107500D01*
X55482000Y20517500D02*
X58536000Y20517500D01*
X58536000Y24647500D02*
X58536000Y27107500D01*
X58536000Y20517500D02*
X58536000Y22977500D01*
X53976000Y22107500D02*
X53976000Y25517500D01*
X13635500Y27806000D02*
X16689500Y27806000D01*
X13635500Y21216000D02*
X16689500Y21216000D01*
X16689500Y25346000D02*
X16689500Y27806000D01*
X16689500Y21216000D02*
X16689500Y23676000D01*
X12129500Y22806000D02*
X12129500Y26216000D01*
X29214578Y16054000D02*
X28697422Y16054000D01*
X29214578Y17474000D02*
X28697422Y17474000D01*
X71505578Y15673000D02*
X70988422Y15673000D01*
X71505578Y17093000D02*
X70988422Y17093000D01*
X26019000Y17724000D02*
X23334000Y17724000D01*
X23334000Y17724000D02*
X23334000Y15804000D01*
X23334000Y15804000D02*
X26019000Y15804000D01*
X68564000Y17343000D02*
X65879000Y17343000D01*
X65879000Y17343000D02*
X65879000Y15423000D01*
X65879000Y15423000D02*
X68564000Y15423000D01*
X49261000Y61881000D02*
X52261000Y61881000D01*
X49261000Y61881000D02*
X49261000Y62881000D01*
X65705000Y62248000D02*
X49705000Y62248000D01*
X65705000Y78248000D02*
X65705000Y62248000D01*
X49705000Y78248000D02*
X65705000Y78248000D01*
X49705000Y62248000D02*
X49705000Y78248000D01*
X65533000Y21980500D02*
X65533000Y25390500D01*
X70093000Y20390500D02*
X70093000Y22850500D01*
X70093000Y24520500D02*
X70093000Y26980500D01*
X67039000Y20390500D02*
X70093000Y20390500D01*
X67039000Y26980500D02*
X70093000Y26980500D01*
X19370000Y31807500D02*
X19370000Y30857500D01*
X19370000Y30857500D02*
X18420000Y30857500D01*
X18420000Y30857500D02*
X18420000Y30167500D01*
X13650000Y31807500D02*
X13650000Y30857500D01*
X13650000Y30857500D02*
X14600000Y30857500D01*
X19000000Y34777500D02*
X14020000Y34777500D01*
X6843000Y61627000D02*
X9843000Y61627000D01*
X6843000Y61627000D02*
X6843000Y62627000D01*
X23287000Y61994000D02*
X7287000Y61994000D01*
X23287000Y77994000D02*
X23287000Y61994000D01*
X7287000Y77994000D02*
X23287000Y77994000D01*
X7287000Y61994000D02*
X7287000Y77994000D01*
D10*
X7438742Y44010342D02*
X7486361Y43962723D01*
X7533980Y43819866D01*
X7533980Y43724628D01*
X7486361Y43581771D01*
X7391123Y43486533D01*
X7295885Y43438914D01*
X7105409Y43391295D01*
X6962552Y43391295D01*
X6772076Y43438914D01*
X6676838Y43486533D01*
X6581600Y43581771D01*
X6533980Y43724628D01*
X6533980Y43819866D01*
X6581600Y43962723D01*
X6629219Y44010342D01*
X7533980Y44962723D02*
X7533980Y44391295D01*
X7533980Y44677009D02*
X6533980Y44677009D01*
X6676838Y44581771D01*
X6772076Y44486533D01*
X6819695Y44391295D01*
X6533980Y45581771D02*
X6533980Y45677009D01*
X6581600Y45772247D01*
X6629219Y45819866D01*
X6724457Y45867485D01*
X6914933Y45915104D01*
X7153028Y45915104D01*
X7343504Y45867485D01*
X7438742Y45819866D01*
X7486361Y45772247D01*
X7533980Y45677009D01*
X7533980Y45581771D01*
X7486361Y45486533D01*
X7438742Y45438914D01*
X7343504Y45391295D01*
X7153028Y45343676D01*
X6914933Y45343676D01*
X6724457Y45391295D01*
X6629219Y45438914D01*
X6581600Y45486533D01*
X6533980Y45581771D01*
X35226342Y34237633D02*
X35273961Y34190014D01*
X35321580Y34047157D01*
X35321580Y33951919D01*
X35273961Y33809061D01*
X35178723Y33713823D01*
X35083485Y33666204D01*
X34893009Y33618585D01*
X34750152Y33618585D01*
X34559676Y33666204D01*
X34464438Y33713823D01*
X34369200Y33809061D01*
X34321580Y33951919D01*
X34321580Y34047157D01*
X34369200Y34190014D01*
X34416819Y34237633D01*
X35321580Y34713823D02*
X35321580Y34904300D01*
X35273961Y34999538D01*
X35226342Y35047157D01*
X35083485Y35142395D01*
X34893009Y35190014D01*
X34512057Y35190014D01*
X34416819Y35142395D01*
X34369200Y35094776D01*
X34321580Y34999538D01*
X34321580Y34809061D01*
X34369200Y34713823D01*
X34416819Y34666204D01*
X34512057Y34618585D01*
X34750152Y34618585D01*
X34845390Y34666204D01*
X34893009Y34713823D01*
X34940628Y34809061D01*
X34940628Y34999538D01*
X34893009Y35094776D01*
X34845390Y35142395D01*
X34750152Y35190014D01*
X49259842Y44575433D02*
X49307461Y44527814D01*
X49355080Y44384957D01*
X49355080Y44289719D01*
X49307461Y44146861D01*
X49212223Y44051623D01*
X49116985Y44004004D01*
X48926509Y43956385D01*
X48783652Y43956385D01*
X48593176Y44004004D01*
X48497938Y44051623D01*
X48402700Y44146861D01*
X48355080Y44289719D01*
X48355080Y44384957D01*
X48402700Y44527814D01*
X48450319Y44575433D01*
X48783652Y45146861D02*
X48736033Y45051623D01*
X48688414Y45004004D01*
X48593176Y44956385D01*
X48545557Y44956385D01*
X48450319Y45004004D01*
X48402700Y45051623D01*
X48355080Y45146861D01*
X48355080Y45337338D01*
X48402700Y45432576D01*
X48450319Y45480195D01*
X48545557Y45527814D01*
X48593176Y45527814D01*
X48688414Y45480195D01*
X48736033Y45432576D01*
X48783652Y45337338D01*
X48783652Y45146861D01*
X48831271Y45051623D01*
X48878890Y45004004D01*
X48974128Y44956385D01*
X49164604Y44956385D01*
X49259842Y45004004D01*
X49307461Y45051623D01*
X49355080Y45146861D01*
X49355080Y45337338D01*
X49307461Y45432576D01*
X49259842Y45480195D01*
X49164604Y45527814D01*
X48974128Y45527814D01*
X48878890Y45480195D01*
X48831271Y45432576D01*
X48783652Y45337338D01*
X77301442Y33932833D02*
X77349061Y33885214D01*
X77396680Y33742357D01*
X77396680Y33647119D01*
X77349061Y33504261D01*
X77253823Y33409023D01*
X77158585Y33361404D01*
X76968109Y33313785D01*
X76825252Y33313785D01*
X76634776Y33361404D01*
X76539538Y33409023D01*
X76444300Y33504261D01*
X76396680Y33647119D01*
X76396680Y33742357D01*
X76444300Y33885214D01*
X76491919Y33932833D01*
X76396680Y34266166D02*
X76396680Y34932833D01*
X77396680Y34504261D01*
X69567142Y33996333D02*
X69614761Y33948714D01*
X69662380Y33805857D01*
X69662380Y33710619D01*
X69614761Y33567761D01*
X69519523Y33472523D01*
X69424285Y33424904D01*
X69233809Y33377285D01*
X69090952Y33377285D01*
X68900476Y33424904D01*
X68805238Y33472523D01*
X68710000Y33567761D01*
X68662380Y33710619D01*
X68662380Y33805857D01*
X68710000Y33948714D01*
X68757619Y33996333D01*
X68662380Y34329666D02*
X68662380Y34948714D01*
X69043333Y34615380D01*
X69043333Y34758238D01*
X69090952Y34853476D01*
X69138571Y34901095D01*
X69233809Y34948714D01*
X69471904Y34948714D01*
X69567142Y34901095D01*
X69614761Y34853476D01*
X69662380Y34758238D01*
X69662380Y34472523D01*
X69614761Y34377285D01*
X69567142Y34329666D01*
X33255142Y34123333D02*
X33302761Y34075714D01*
X33350380Y33932857D01*
X33350380Y33837619D01*
X33302761Y33694761D01*
X33207523Y33599523D01*
X33112285Y33551904D01*
X32921809Y33504285D01*
X32778952Y33504285D01*
X32588476Y33551904D01*
X32493238Y33599523D01*
X32398000Y33694761D01*
X32350380Y33837619D01*
X32350380Y33932857D01*
X32398000Y34075714D01*
X32445619Y34123333D01*
X32445619Y34504285D02*
X32398000Y34551904D01*
X32350380Y34647142D01*
X32350380Y34885238D01*
X32398000Y34980476D01*
X32445619Y35028095D01*
X32540857Y35075714D01*
X32636095Y35075714D01*
X32778952Y35028095D01*
X33350380Y34456666D01*
X33350380Y35075714D01*
X71500942Y65960333D02*
X71548561Y65912714D01*
X71596180Y65769857D01*
X71596180Y65674619D01*
X71548561Y65531761D01*
X71453323Y65436523D01*
X71358085Y65388904D01*
X71167609Y65341285D01*
X71024752Y65341285D01*
X70834276Y65388904D01*
X70739038Y65436523D01*
X70643800Y65531761D01*
X70596180Y65674619D01*
X70596180Y65769857D01*
X70643800Y65912714D01*
X70691419Y65960333D01*
X70596180Y66817476D02*
X70596180Y66627000D01*
X70643800Y66531761D01*
X70691419Y66484142D01*
X70834276Y66388904D01*
X71024752Y66341285D01*
X71405704Y66341285D01*
X71500942Y66388904D01*
X71548561Y66436523D01*
X71596180Y66531761D01*
X71596180Y66722238D01*
X71548561Y66817476D01*
X71500942Y66865095D01*
X71405704Y66912714D01*
X71167609Y66912714D01*
X71072371Y66865095D01*
X71024752Y66817476D01*
X70977133Y66722238D01*
X70977133Y66531761D01*
X71024752Y66436523D01*
X71072371Y66388904D01*
X71167609Y66341285D01*
X29362342Y66011133D02*
X29409961Y65963514D01*
X29457580Y65820657D01*
X29457580Y65725419D01*
X29409961Y65582561D01*
X29314723Y65487323D01*
X29219485Y65439704D01*
X29029009Y65392085D01*
X28886152Y65392085D01*
X28695676Y65439704D01*
X28600438Y65487323D01*
X28505200Y65582561D01*
X28457580Y65725419D01*
X28457580Y65820657D01*
X28505200Y65963514D01*
X28552819Y66011133D01*
X28790914Y66868276D02*
X29457580Y66868276D01*
X28409961Y66630180D02*
X29124247Y66392085D01*
X29124247Y67011133D01*
X44432142Y69937333D02*
X44479761Y69889714D01*
X44527380Y69746857D01*
X44527380Y69651619D01*
X44479761Y69508761D01*
X44384523Y69413523D01*
X44289285Y69365904D01*
X44098809Y69318285D01*
X43955952Y69318285D01*
X43765476Y69365904D01*
X43670238Y69413523D01*
X43575000Y69508761D01*
X43527380Y69651619D01*
X43527380Y69746857D01*
X43575000Y69889714D01*
X43622619Y69937333D01*
X43527380Y70842095D02*
X43527380Y70365904D01*
X44003571Y70318285D01*
X43955952Y70365904D01*
X43908333Y70461142D01*
X43908333Y70699238D01*
X43955952Y70794476D01*
X44003571Y70842095D01*
X44098809Y70889714D01*
X44336904Y70889714D01*
X44432142Y70842095D01*
X44479761Y70794476D01*
X44527380Y70699238D01*
X44527380Y70461142D01*
X44479761Y70365904D01*
X44432142Y70318285D01*
X2014142Y70191333D02*
X2061761Y70143714D01*
X2109380Y70000857D01*
X2109380Y69905619D01*
X2061761Y69762761D01*
X1966523Y69667523D01*
X1871285Y69619904D01*
X1680809Y69572285D01*
X1537952Y69572285D01*
X1347476Y69619904D01*
X1252238Y69667523D01*
X1157000Y69762761D01*
X1109380Y69905619D01*
X1109380Y70000857D01*
X1157000Y70143714D01*
X1204619Y70191333D01*
X2109380Y71143714D02*
X2109380Y70572285D01*
X2109380Y70858000D02*
X1109380Y70858000D01*
X1252238Y70762761D01*
X1347476Y70667523D01*
X1395095Y70572285D01*
X63968380Y31924666D02*
X64682666Y31924666D01*
X64825523Y31877047D01*
X64920761Y31781809D01*
X64968380Y31638952D01*
X64968380Y31543714D01*
X63968380Y32305619D02*
X63968380Y32972285D01*
X64968380Y32543714D01*
X20093880Y23915761D02*
X19617690Y23582428D01*
X20093880Y23344333D02*
X19093880Y23344333D01*
X19093880Y23725285D01*
X19141500Y23820523D01*
X19189119Y23868142D01*
X19284357Y23915761D01*
X19427214Y23915761D01*
X19522452Y23868142D01*
X19570071Y23820523D01*
X19617690Y23725285D01*
X19617690Y23344333D01*
X19093880Y24201476D02*
X20093880Y24534809D01*
X19093880Y24868142D01*
X19427214Y25630047D02*
X20093880Y25630047D01*
X19046261Y25391952D02*
X19760547Y25153857D01*
X19760547Y25772904D01*
X51653380Y23217261D02*
X51177190Y22883928D01*
X51653380Y22645833D02*
X50653380Y22645833D01*
X50653380Y23026785D01*
X50701000Y23122023D01*
X50748619Y23169642D01*
X50843857Y23217261D01*
X50986714Y23217261D01*
X51081952Y23169642D01*
X51129571Y23122023D01*
X51177190Y23026785D01*
X51177190Y22645833D01*
X50653380Y23502976D02*
X51653380Y23836309D01*
X50653380Y24169642D01*
X50653380Y24407738D02*
X50653380Y25026785D01*
X51034333Y24693452D01*
X51034333Y24836309D01*
X51081952Y24931547D01*
X51129571Y24979166D01*
X51224809Y25026785D01*
X51462904Y25026785D01*
X51558142Y24979166D01*
X51605761Y24931547D01*
X51653380Y24836309D01*
X51653380Y24550595D01*
X51605761Y24455357D01*
X51558142Y24407738D01*
X9806880Y23915761D02*
X9330690Y23582428D01*
X9806880Y23344333D02*
X8806880Y23344333D01*
X8806880Y23725285D01*
X8854500Y23820523D01*
X8902119Y23868142D01*
X8997357Y23915761D01*
X9140214Y23915761D01*
X9235452Y23868142D01*
X9283071Y23820523D01*
X9330690Y23725285D01*
X9330690Y23344333D01*
X8806880Y24201476D02*
X9806880Y24534809D01*
X8806880Y24868142D01*
X8902119Y25153857D02*
X8854500Y25201476D01*
X8806880Y25296714D01*
X8806880Y25534809D01*
X8854500Y25630047D01*
X8902119Y25677666D01*
X8997357Y25725285D01*
X9092595Y25725285D01*
X9235452Y25677666D01*
X9806880Y25106238D01*
X9806880Y25725285D01*
X28789333Y17962619D02*
X28456000Y18438809D01*
X28217904Y17962619D02*
X28217904Y18962619D01*
X28598857Y18962619D01*
X28694095Y18915000D01*
X28741714Y18867380D01*
X28789333Y18772142D01*
X28789333Y18629285D01*
X28741714Y18534047D01*
X28694095Y18486428D01*
X28598857Y18438809D01*
X28217904Y18438809D01*
X29646476Y18962619D02*
X29456000Y18962619D01*
X29360761Y18915000D01*
X29313142Y18867380D01*
X29217904Y18724523D01*
X29170285Y18534047D01*
X29170285Y18153095D01*
X29217904Y18057857D01*
X29265523Y18010238D01*
X29360761Y17962619D01*
X29551238Y17962619D01*
X29646476Y18010238D01*
X29694095Y18057857D01*
X29741714Y18153095D01*
X29741714Y18391190D01*
X29694095Y18486428D01*
X29646476Y18534047D01*
X29551238Y18581666D01*
X29360761Y18581666D01*
X29265523Y18534047D01*
X29217904Y18486428D01*
X29170285Y18391190D01*
X71080333Y14280619D02*
X70747000Y14756809D01*
X70508904Y14280619D02*
X70508904Y15280619D01*
X70889857Y15280619D01*
X70985095Y15233000D01*
X71032714Y15185380D01*
X71080333Y15090142D01*
X71080333Y14947285D01*
X71032714Y14852047D01*
X70985095Y14804428D01*
X70889857Y14756809D01*
X70508904Y14756809D01*
X71985095Y15280619D02*
X71508904Y15280619D01*
X71461285Y14804428D01*
X71508904Y14852047D01*
X71604142Y14899666D01*
X71842238Y14899666D01*
X71937476Y14852047D01*
X71985095Y14804428D01*
X72032714Y14709190D01*
X72032714Y14471095D01*
X71985095Y14375857D01*
X71937476Y14328238D01*
X71842238Y14280619D01*
X71604142Y14280619D01*
X71508904Y14328238D01*
X71461285Y14375857D01*
X24280904Y17961619D02*
X24280904Y18961619D01*
X24519000Y18961619D01*
X24661857Y18914000D01*
X24757095Y18818761D01*
X24804714Y18723523D01*
X24852333Y18533047D01*
X24852333Y18390190D01*
X24804714Y18199714D01*
X24757095Y18104476D01*
X24661857Y18009238D01*
X24519000Y17961619D01*
X24280904Y17961619D01*
X25233285Y18866380D02*
X25280904Y18914000D01*
X25376142Y18961619D01*
X25614238Y18961619D01*
X25709476Y18914000D01*
X25757095Y18866380D01*
X25804714Y18771142D01*
X25804714Y18675904D01*
X25757095Y18533047D01*
X25185666Y17961619D01*
X25804714Y17961619D01*
X66825904Y14152619D02*
X66825904Y15152619D01*
X67064000Y15152619D01*
X67206857Y15105000D01*
X67302095Y15009761D01*
X67349714Y14914523D01*
X67397333Y14724047D01*
X67397333Y14581190D01*
X67349714Y14390714D01*
X67302095Y14295476D01*
X67206857Y14200238D01*
X67064000Y14152619D01*
X66825904Y14152619D01*
X68349714Y14152619D02*
X67778285Y14152619D01*
X68064000Y14152619D02*
X68064000Y15152619D01*
X67968761Y15009761D01*
X67873523Y14914523D01*
X67778285Y14866904D01*
X67381380Y76922333D02*
X67381380Y76446142D01*
X66381380Y76446142D01*
X66476619Y77208047D02*
X66429000Y77255666D01*
X66381380Y77350904D01*
X66381380Y77589000D01*
X66429000Y77684238D01*
X66476619Y77731857D01*
X66571857Y77779476D01*
X66667095Y77779476D01*
X66809952Y77731857D01*
X67381380Y77160428D01*
X67381380Y77779476D01*
X45354976Y79541619D02*
X45354976Y78827333D01*
X45307357Y78684476D01*
X45212119Y78589238D01*
X45069261Y78541619D01*
X44974023Y78541619D01*
X46354976Y78541619D02*
X45783547Y78541619D01*
X46069261Y78541619D02*
X46069261Y79541619D01*
X45974023Y79398761D01*
X45878785Y79303523D01*
X45783547Y79255904D01*
X47307357Y78541619D02*
X46735928Y78541619D01*
X47021642Y78541619D02*
X47021642Y79541619D01*
X46926404Y79398761D01*
X46831166Y79303523D01*
X46735928Y79255904D01*
X45545476Y66714619D02*
X45545476Y66000333D01*
X45497857Y65857476D01*
X45402619Y65762238D01*
X45259761Y65714619D01*
X45164523Y65714619D01*
X46545476Y65714619D02*
X45974047Y65714619D01*
X46259761Y65714619D02*
X46259761Y66714619D01*
X46164523Y66571761D01*
X46069285Y66476523D01*
X45974047Y66428904D01*
X47164523Y66714619D02*
X47259761Y66714619D01*
X47355000Y66667000D01*
X47402619Y66619380D01*
X47450238Y66524142D01*
X47497857Y66333666D01*
X47497857Y66095571D01*
X47450238Y65905095D01*
X47402619Y65809857D01*
X47355000Y65762238D01*
X47259761Y65714619D01*
X47164523Y65714619D01*
X47069285Y65762238D01*
X47021666Y65809857D01*
X46974047Y65905095D01*
X46926428Y66095571D01*
X46926428Y66333666D01*
X46974047Y66524142D01*
X47021666Y66619380D01*
X47069285Y66667000D01*
X47164523Y66714619D01*
X63210380Y23090261D02*
X62734190Y22756928D01*
X63210380Y22518833D02*
X62210380Y22518833D01*
X62210380Y22899785D01*
X62258000Y22995023D01*
X62305619Y23042642D01*
X62400857Y23090261D01*
X62543714Y23090261D01*
X62638952Y23042642D01*
X62686571Y22995023D01*
X62734190Y22899785D01*
X62734190Y22518833D01*
X62210380Y23375976D02*
X63210380Y23709309D01*
X62210380Y24042642D01*
X63210380Y24899785D02*
X63210380Y24328357D01*
X63210380Y24614071D02*
X62210380Y24614071D01*
X62353238Y24518833D01*
X62448476Y24423595D01*
X62496095Y24328357D01*
X22185380Y31988166D02*
X22899666Y31988166D01*
X23042523Y31940547D01*
X23137761Y31845309D01*
X23185380Y31702452D01*
X23185380Y31607214D01*
X22613952Y32607214D02*
X22566333Y32511976D01*
X22518714Y32464357D01*
X22423476Y32416738D01*
X22375857Y32416738D01*
X22280619Y32464357D01*
X22233000Y32511976D01*
X22185380Y32607214D01*
X22185380Y32797690D01*
X22233000Y32892928D01*
X22280619Y32940547D01*
X22375857Y32988166D01*
X22423476Y32988166D01*
X22518714Y32940547D01*
X22566333Y32892928D01*
X22613952Y32797690D01*
X22613952Y32607214D01*
X22661571Y32511976D01*
X22709190Y32464357D01*
X22804428Y32416738D01*
X22994904Y32416738D01*
X23090142Y32464357D01*
X23137761Y32511976D01*
X23185380Y32607214D01*
X23185380Y32797690D01*
X23137761Y32892928D01*
X23090142Y32940547D01*
X22994904Y32988166D01*
X22804428Y32988166D01*
X22709190Y32940547D01*
X22661571Y32892928D01*
X22613952Y32797690D01*
X23622380Y4111666D02*
X24336666Y4111666D01*
X24479523Y4064047D01*
X24574761Y3968809D01*
X24622380Y3825952D01*
X24622380Y3730714D01*
X23622380Y5016428D02*
X23622380Y4825952D01*
X23670000Y4730714D01*
X23717619Y4683095D01*
X23860476Y4587857D01*
X24050952Y4540238D01*
X24431904Y4540238D01*
X24527142Y4587857D01*
X24574761Y4635476D01*
X24622380Y4730714D01*
X24622380Y4921190D01*
X24574761Y5016428D01*
X24527142Y5064047D01*
X24431904Y5111666D01*
X24193809Y5111666D01*
X24098571Y5064047D01*
X24050952Y5016428D01*
X24003333Y4921190D01*
X24003333Y4730714D01*
X24050952Y4635476D01*
X24098571Y4587857D01*
X24193809Y4540238D01*
X32385380Y4111666D02*
X33099666Y4111666D01*
X33242523Y4064047D01*
X33337761Y3968809D01*
X33385380Y3825952D01*
X33385380Y3730714D01*
X32385380Y5064047D02*
X32385380Y4587857D01*
X32861571Y4540238D01*
X32813952Y4587857D01*
X32766333Y4683095D01*
X32766333Y4921190D01*
X32813952Y5016428D01*
X32861571Y5064047D01*
X32956809Y5111666D01*
X33194904Y5111666D01*
X33290142Y5064047D01*
X33337761Y5016428D01*
X33385380Y4921190D01*
X33385380Y4683095D01*
X33337761Y4587857D01*
X33290142Y4540238D01*
X65786380Y3984666D02*
X66500666Y3984666D01*
X66643523Y3937047D01*
X66738761Y3841809D01*
X66786380Y3698952D01*
X66786380Y3603714D01*
X66119714Y4889428D02*
X66786380Y4889428D01*
X65738761Y4651333D02*
X66453047Y4413238D01*
X66453047Y5032285D01*
X74422380Y3984666D02*
X75136666Y3984666D01*
X75279523Y3937047D01*
X75374761Y3841809D01*
X75422380Y3698952D01*
X75422380Y3603714D01*
X74422380Y4365619D02*
X74422380Y4984666D01*
X74803333Y4651333D01*
X74803333Y4794190D01*
X74850952Y4889428D01*
X74898571Y4937047D01*
X74993809Y4984666D01*
X75231904Y4984666D01*
X75327142Y4937047D01*
X75374761Y4889428D01*
X75422380Y4794190D01*
X75422380Y4508476D01*
X75374761Y4413238D01*
X75327142Y4365619D01*
X3095666Y79478119D02*
X3095666Y78763833D01*
X3048047Y78620976D01*
X2952809Y78525738D01*
X2809952Y78478119D01*
X2714714Y78478119D01*
X3524238Y79382880D02*
X3571857Y79430500D01*
X3667095Y79478119D01*
X3905190Y79478119D01*
X4000428Y79430500D01*
X4048047Y79382880D01*
X4095666Y79287642D01*
X4095666Y79192404D01*
X4048047Y79049547D01*
X3476619Y78478119D01*
X4095666Y78478119D01*
X3667166Y66651119D02*
X3667166Y65936833D01*
X3619547Y65793976D01*
X3524309Y65698738D01*
X3381452Y65651119D01*
X3286214Y65651119D01*
X4667166Y65651119D02*
X4095738Y65651119D01*
X4381452Y65651119D02*
X4381452Y66651119D01*
X4286214Y66508261D01*
X4190976Y66413023D01*
X4095738Y66365404D01*
X24836380Y76287333D02*
X24836380Y75811142D01*
X23836380Y75811142D01*
X24836380Y77144476D02*
X24836380Y76573047D01*
X24836380Y76858761D02*
X23836380Y76858761D01*
X23979238Y76763523D01*
X24074476Y76668285D01*
X24122095Y76573047D01*
%LPC*%
G36*
G01*
X11920700Y48710200D02*
X8602500Y48710200D01*
G75*
G02*
X8411600Y48901100I0J190900D01*
G01*
X8411600Y50819300D01*
G75*
G02*
X8602500Y51010200I190900J0D01*
G01*
X11920700Y51010200D01*
G75*
G02*
X12111600Y50819300I0J-190900D01*
G01*
X12111600Y48901100D01*
G75*
G02*
X11920700Y48710200I-190900J0D01*
G01*
G37*
G36*
G01*
X11920700Y38296200D02*
X8602500Y38296200D01*
G75*
G02*
X8411600Y38487100I0J190900D01*
G01*
X8411600Y40405300D01*
G75*
G02*
X8602500Y40596200I190900J0D01*
G01*
X11920700Y40596200D01*
G75*
G02*
X12111600Y40405300I0J-190900D01*
G01*
X12111600Y38487100D01*
G75*
G02*
X11920700Y38296200I-190900J0D01*
G01*
G37*
G36*
G01*
X39708300Y38461300D02*
X36390100Y38461300D01*
G75*
G02*
X36199200Y38652200I0J190900D01*
G01*
X36199200Y40570400D01*
G75*
G02*
X36390100Y40761300I190900J0D01*
G01*
X39708300Y40761300D01*
G75*
G02*
X39899200Y40570400I0J-190900D01*
G01*
X39899200Y38652200D01*
G75*
G02*
X39708300Y38461300I-190900J0D01*
G01*
G37*
G36*
G01*
X39708300Y28047300D02*
X36390100Y28047300D01*
G75*
G02*
X36199200Y28238200I0J190900D01*
G01*
X36199200Y30156400D01*
G75*
G02*
X36390100Y30347300I190900J0D01*
G01*
X39708300Y30347300D01*
G75*
G02*
X39899200Y30156400I0J-190900D01*
G01*
X39899200Y28238200D01*
G75*
G02*
X39708300Y28047300I-190900J0D01*
G01*
G37*
G36*
G01*
X53741800Y48799100D02*
X50423600Y48799100D01*
G75*
G02*
X50232700Y48990000I0J190900D01*
G01*
X50232700Y50908200D01*
G75*
G02*
X50423600Y51099100I190900J0D01*
G01*
X53741800Y51099100D01*
G75*
G02*
X53932700Y50908200I0J-190900D01*
G01*
X53932700Y48990000D01*
G75*
G02*
X53741800Y48799100I-190900J0D01*
G01*
G37*
G36*
G01*
X53741800Y38385100D02*
X50423600Y38385100D01*
G75*
G02*
X50232700Y38576000I0J190900D01*
G01*
X50232700Y40494200D01*
G75*
G02*
X50423600Y40685100I190900J0D01*
G01*
X53741800Y40685100D01*
G75*
G02*
X53932700Y40494200I0J-190900D01*
G01*
X53932700Y38576000D01*
G75*
G02*
X53741800Y38385100I-190900J0D01*
G01*
G37*
G36*
G01*
X81783400Y38156500D02*
X78465200Y38156500D01*
G75*
G02*
X78274300Y38347400I0J190900D01*
G01*
X78274300Y40265600D01*
G75*
G02*
X78465200Y40456500I190900J0D01*
G01*
X81783400Y40456500D01*
G75*
G02*
X81974300Y40265600I0J-190900D01*
G01*
X81974300Y38347400D01*
G75*
G02*
X81783400Y38156500I-190900J0D01*
G01*
G37*
G36*
G01*
X81783400Y27742500D02*
X78465200Y27742500D01*
G75*
G02*
X78274300Y27933400I0J190900D01*
G01*
X78274300Y29851600D01*
G75*
G02*
X78465200Y30042500I190900J0D01*
G01*
X81783400Y30042500D01*
G75*
G02*
X81974300Y29851600I0J-190900D01*
G01*
X81974300Y27933400D01*
G75*
G02*
X81783400Y27742500I-190900J0D01*
G01*
G37*
G36*
G01*
X74049100Y38220000D02*
X70730900Y38220000D01*
G75*
G02*
X70540000Y38410900I0J190900D01*
G01*
X70540000Y40329100D01*
G75*
G02*
X70730900Y40520000I190900J0D01*
G01*
X74049100Y40520000D01*
G75*
G02*
X74240000Y40329100I0J-190900D01*
G01*
X74240000Y38410900D01*
G75*
G02*
X74049100Y38220000I-190900J0D01*
G01*
G37*
G36*
G01*
X74049100Y27806000D02*
X70730900Y27806000D01*
G75*
G02*
X70540000Y27996900I0J190900D01*
G01*
X70540000Y29915100D01*
G75*
G02*
X70730900Y30106000I190900J0D01*
G01*
X74049100Y30106000D01*
G75*
G02*
X74240000Y29915100I0J-190900D01*
G01*
X74240000Y27996900D01*
G75*
G02*
X74049100Y27806000I-190900J0D01*
G01*
G37*
G36*
G01*
X28058900Y30233000D02*
X31377100Y30233000D01*
G75*
G02*
X31568000Y30042100I0J-190900D01*
G01*
X31568000Y28123900D01*
G75*
G02*
X31377100Y27933000I-190900J0D01*
G01*
X28058900Y27933000D01*
G75*
G02*
X27868000Y28123900I0J190900D01*
G01*
X27868000Y30042100D01*
G75*
G02*
X28058900Y30233000I190900J0D01*
G01*
G37*
G36*
G01*
X28058900Y40647000D02*
X31377100Y40647000D01*
G75*
G02*
X31568000Y40456100I0J-190900D01*
G01*
X31568000Y38537900D01*
G75*
G02*
X31377100Y38347000I-190900J0D01*
G01*
X28058900Y38347000D01*
G75*
G02*
X27868000Y38537900I0J190900D01*
G01*
X27868000Y40456100D01*
G75*
G02*
X28058900Y40647000I190900J0D01*
G01*
G37*
D13*
X77393800Y68627000D03*
D14*
X77393800Y63627000D03*
D13*
X35255200Y68677800D03*
D14*
X35255200Y63677800D03*
G36*
G01*
X47462456Y70829000D02*
X45247544Y70829000D01*
G75*
G02*
X44980000Y71096544I0J267544D01*
G01*
X44980000Y72086456D01*
G75*
G02*
X45247544Y72354000I267544J0D01*
G01*
X47462456Y72354000D01*
G75*
G02*
X47730000Y72086456I0J-267544D01*
G01*
X47730000Y71096544D01*
G75*
G02*
X47462456Y70829000I-267544J0D01*
G01*
G37*
G36*
G01*
X47462456Y67854000D02*
X45247544Y67854000D01*
G75*
G02*
X44980000Y68121544I0J267544D01*
G01*
X44980000Y69111456D01*
G75*
G02*
X45247544Y69379000I267544J0D01*
G01*
X47462456Y69379000D01*
G75*
G02*
X47730000Y69111456I0J-267544D01*
G01*
X47730000Y68121544D01*
G75*
G02*
X47462456Y67854000I-267544J0D01*
G01*
G37*
G36*
G01*
X5044456Y71083000D02*
X2829544Y71083000D01*
G75*
G02*
X2562000Y71350544I0J267544D01*
G01*
X2562000Y72340456D01*
G75*
G02*
X2829544Y72608000I267544J0D01*
G01*
X5044456Y72608000D01*
G75*
G02*
X5312000Y72340456I0J-267544D01*
G01*
X5312000Y71350544D01*
G75*
G02*
X5044456Y71083000I-267544J0D01*
G01*
G37*
G36*
G01*
X5044456Y68108000D02*
X2829544Y68108000D01*
G75*
G02*
X2562000Y68375544I0J267544D01*
G01*
X2562000Y69365456D01*
G75*
G02*
X2829544Y69633000I267544J0D01*
G01*
X5044456Y69633000D01*
G75*
G02*
X5312000Y69365456I0J-267544D01*
G01*
X5312000Y68375544D01*
G75*
G02*
X5044456Y68108000I-267544J0D01*
G01*
G37*
G36*
G01*
X55720000Y34538095D02*
X55720000Y31961905D01*
G75*
G02*
X55458095Y31700000I-261905J0D01*
G01*
X53781905Y31700000D01*
G75*
G02*
X53520000Y31961905I0J261905D01*
G01*
X53520000Y34538095D01*
G75*
G02*
X53781905Y34800000I261905J0D01*
G01*
X55458095Y34800000D01*
G75*
G02*
X55720000Y34538095I0J-261905D01*
G01*
G37*
G36*
G01*
X63320000Y34538095D02*
X63320000Y31961905D01*
G75*
G02*
X63058095Y31700000I-261905J0D01*
G01*
X61381905Y31700000D01*
G75*
G02*
X61120000Y31961905I0J261905D01*
G01*
X61120000Y34538095D01*
G75*
G02*
X61381905Y34800000I261905J0D01*
G01*
X63058095Y34800000D01*
G75*
G02*
X63320000Y34538095I0J-261905D01*
G01*
G37*
G36*
G01*
X57620000Y30975000D02*
X57620000Y30025000D01*
G75*
G02*
X57395000Y29800000I-225000J0D01*
G01*
X56945000Y29800000D01*
G75*
G02*
X56720000Y30025000I0J225000D01*
G01*
X56720000Y30975000D01*
G75*
G02*
X56945000Y31200000I225000J0D01*
G01*
X57395000Y31200000D01*
G75*
G02*
X57620000Y30975000I0J-225000D01*
G01*
G37*
G36*
G01*
X58870000Y30975000D02*
X58870000Y30025000D01*
G75*
G02*
X58645000Y29800000I-225000J0D01*
G01*
X58195000Y29800000D01*
G75*
G02*
X57970000Y30025000I0J225000D01*
G01*
X57970000Y30975000D01*
G75*
G02*
X58195000Y31200000I225000J0D01*
G01*
X58645000Y31200000D01*
G75*
G02*
X58870000Y30975000I0J-225000D01*
G01*
G37*
G36*
G01*
X60120000Y30975000D02*
X60120000Y30025000D01*
G75*
G02*
X59895000Y29800000I-225000J0D01*
G01*
X59445000Y29800000D01*
G75*
G02*
X59220000Y30025000I0J225000D01*
G01*
X59220000Y30975000D01*
G75*
G02*
X59445000Y31200000I225000J0D01*
G01*
X59895000Y31200000D01*
G75*
G02*
X60120000Y30975000I0J-225000D01*
G01*
G37*
D15*
X22286500Y21971000D03*
X27116500Y24511000D03*
X22286500Y27051000D03*
X53846000Y21272500D03*
X58676000Y23812500D03*
X53846000Y26352500D03*
X11999500Y21971000D03*
X16829500Y24511000D03*
X11999500Y27051000D03*
G36*
G01*
X28556000Y17245250D02*
X28556000Y16282750D01*
G75*
G02*
X28287250Y16014000I-268750J0D01*
G01*
X27749750Y16014000D01*
G75*
G02*
X27481000Y16282750I0J268750D01*
G01*
X27481000Y17245250D01*
G75*
G02*
X27749750Y17514000I268750J0D01*
G01*
X28287250Y17514000D01*
G75*
G02*
X28556000Y17245250I0J-268750D01*
G01*
G37*
G36*
G01*
X30431000Y17245250D02*
X30431000Y16282750D01*
G75*
G02*
X30162250Y16014000I-268750J0D01*
G01*
X29624750Y16014000D01*
G75*
G02*
X29356000Y16282750I0J268750D01*
G01*
X29356000Y17245250D01*
G75*
G02*
X29624750Y17514000I268750J0D01*
G01*
X30162250Y17514000D01*
G75*
G02*
X30431000Y17245250I0J-268750D01*
G01*
G37*
G36*
G01*
X70847000Y16864250D02*
X70847000Y15901750D01*
G75*
G02*
X70578250Y15633000I-268750J0D01*
G01*
X70040750Y15633000D01*
G75*
G02*
X69772000Y15901750I0J268750D01*
G01*
X69772000Y16864250D01*
G75*
G02*
X70040750Y17133000I268750J0D01*
G01*
X70578250Y17133000D01*
G75*
G02*
X70847000Y16864250I0J-268750D01*
G01*
G37*
G36*
G01*
X72722000Y16864250D02*
X72722000Y15901750D01*
G75*
G02*
X72453250Y15633000I-268750J0D01*
G01*
X71915750Y15633000D01*
G75*
G02*
X71647000Y15901750I0J268750D01*
G01*
X71647000Y16864250D01*
G75*
G02*
X71915750Y17133000I268750J0D01*
G01*
X72453250Y17133000D01*
G75*
G02*
X72722000Y16864250I0J-268750D01*
G01*
G37*
G36*
G01*
X25419000Y16282750D02*
X25419000Y17245250D01*
G75*
G02*
X25687750Y17514000I268750J0D01*
G01*
X26225250Y17514000D01*
G75*
G02*
X26494000Y17245250I0J-268750D01*
G01*
X26494000Y16282750D01*
G75*
G02*
X26225250Y16014000I-268750J0D01*
G01*
X25687750Y16014000D01*
G75*
G02*
X25419000Y16282750I0J268750D01*
G01*
G37*
G36*
G01*
X23544000Y16282750D02*
X23544000Y17245250D01*
G75*
G02*
X23812750Y17514000I268750J0D01*
G01*
X24350250Y17514000D01*
G75*
G02*
X24619000Y17245250I0J-268750D01*
G01*
X24619000Y16282750D01*
G75*
G02*
X24350250Y16014000I-268750J0D01*
G01*
X23812750Y16014000D01*
G75*
G02*
X23544000Y16282750I0J268750D01*
G01*
G37*
G36*
G01*
X67964000Y15901750D02*
X67964000Y16864250D01*
G75*
G02*
X68232750Y17133000I268750J0D01*
G01*
X68770250Y17133000D01*
G75*
G02*
X69039000Y16864250I0J-268750D01*
G01*
X69039000Y15901750D01*
G75*
G02*
X68770250Y15633000I-268750J0D01*
G01*
X68232750Y15633000D01*
G75*
G02*
X67964000Y15901750I0J268750D01*
G01*
G37*
G36*
G01*
X66089000Y15901750D02*
X66089000Y16864250D01*
G75*
G02*
X66357750Y17133000I268750J0D01*
G01*
X66895250Y17133000D01*
G75*
G02*
X67164000Y16864250I0J-268750D01*
G01*
X67164000Y15901750D01*
G75*
G02*
X66895250Y15633000I-268750J0D01*
G01*
X66357750Y15633000D01*
G75*
G02*
X66089000Y15901750I0J268750D01*
G01*
G37*
D13*
X62705000Y73948000D03*
X62705000Y66548000D03*
X52705000Y73948000D03*
D14*
X52705000Y66548000D03*
G36*
G01*
X44930000Y75415090D02*
X44930000Y77746910D01*
G75*
G02*
X45189090Y78006000I259090J0D01*
G01*
X47520910Y78006000D01*
G75*
G02*
X47780000Y77746910I0J-259090D01*
G01*
X47780000Y75415090D01*
G75*
G02*
X47520910Y75156000I-259090J0D01*
G01*
X45189090Y75156000D01*
G75*
G02*
X44930000Y75415090I0J259090D01*
G01*
G37*
G36*
G01*
X44930000Y62715090D02*
X44930000Y65046910D01*
G75*
G02*
X45189090Y65306000I259090J0D01*
G01*
X47520910Y65306000D01*
G75*
G02*
X47780000Y65046910I0J-259090D01*
G01*
X47780000Y62715090D01*
G75*
G02*
X47520910Y62456000I-259090J0D01*
G01*
X45189090Y62456000D01*
G75*
G02*
X44930000Y62715090I0J259090D01*
G01*
G37*
D15*
X65403000Y21145500D03*
X70233000Y23685500D03*
X65403000Y26225500D03*
D16*
X80264000Y14351000D03*
X47244000Y54991000D03*
D17*
X53594000Y11811000D03*
X73914000Y11811000D03*
D18*
X71374000Y57531000D03*
D19*
X66294000Y57531000D03*
D17*
X56134000Y57531000D03*
X63754000Y11811000D03*
D16*
X38100000Y14351000D03*
X5080000Y54991000D03*
D17*
X11430000Y11811000D03*
X31750000Y11811000D03*
D18*
X29210000Y57531000D03*
D19*
X24130000Y57531000D03*
D17*
X13970000Y57531000D03*
X21590000Y11811000D03*
G36*
G01*
X13810000Y34855595D02*
X13810000Y32279405D01*
G75*
G02*
X13548095Y32017500I-261905J0D01*
G01*
X11871905Y32017500D01*
G75*
G02*
X11610000Y32279405I0J261905D01*
G01*
X11610000Y34855595D01*
G75*
G02*
X11871905Y35117500I261905J0D01*
G01*
X13548095Y35117500D01*
G75*
G02*
X13810000Y34855595I0J-261905D01*
G01*
G37*
G36*
G01*
X21410000Y34855595D02*
X21410000Y32279405D01*
G75*
G02*
X21148095Y32017500I-261905J0D01*
G01*
X19471905Y32017500D01*
G75*
G02*
X19210000Y32279405I0J261905D01*
G01*
X19210000Y34855595D01*
G75*
G02*
X19471905Y35117500I261905J0D01*
G01*
X21148095Y35117500D01*
G75*
G02*
X21410000Y34855595I0J-261905D01*
G01*
G37*
G36*
G01*
X15710000Y31292500D02*
X15710000Y30342500D01*
G75*
G02*
X15485000Y30117500I-225000J0D01*
G01*
X15035000Y30117500D01*
G75*
G02*
X14810000Y30342500I0J225000D01*
G01*
X14810000Y31292500D01*
G75*
G02*
X15035000Y31517500I225000J0D01*
G01*
X15485000Y31517500D01*
G75*
G02*
X15710000Y31292500I0J-225000D01*
G01*
G37*
G36*
G01*
X16960000Y31292500D02*
X16960000Y30342500D01*
G75*
G02*
X16735000Y30117500I-225000J0D01*
G01*
X16285000Y30117500D01*
G75*
G02*
X16060000Y30342500I0J225000D01*
G01*
X16060000Y31292500D01*
G75*
G02*
X16285000Y31517500I225000J0D01*
G01*
X16735000Y31517500D01*
G75*
G02*
X16960000Y31292500I0J-225000D01*
G01*
G37*
G36*
G01*
X18210000Y31292500D02*
X18210000Y30342500D01*
G75*
G02*
X17985000Y30117500I-225000J0D01*
G01*
X17535000Y30117500D01*
G75*
G02*
X17310000Y30342500I0J225000D01*
G01*
X17310000Y31292500D01*
G75*
G02*
X17535000Y31517500I225000J0D01*
G01*
X17985000Y31517500D01*
G75*
G02*
X18210000Y31292500I0J-225000D01*
G01*
G37*
G36*
G01*
X20424090Y5870000D02*
X22755910Y5870000D01*
G75*
G02*
X23015000Y5610910I0J-259090D01*
G01*
X23015000Y3279090D01*
G75*
G02*
X22755910Y3020000I-259090J0D01*
G01*
X20424090Y3020000D01*
G75*
G02*
X20165000Y3279090I0J259090D01*
G01*
X20165000Y5610910D01*
G75*
G02*
X20424090Y5870000I259090J0D01*
G01*
G37*
G36*
G01*
X29187090Y5870000D02*
X31518910Y5870000D01*
G75*
G02*
X31778000Y5610910I0J-259090D01*
G01*
X31778000Y3279090D01*
G75*
G02*
X31518910Y3020000I-259090J0D01*
G01*
X29187090Y3020000D01*
G75*
G02*
X28928000Y3279090I0J259090D01*
G01*
X28928000Y5610910D01*
G75*
G02*
X29187090Y5870000I259090J0D01*
G01*
G37*
G36*
G01*
X62588090Y5743000D02*
X64919910Y5743000D01*
G75*
G02*
X65179000Y5483910I0J-259090D01*
G01*
X65179000Y3152090D01*
G75*
G02*
X64919910Y2893000I-259090J0D01*
G01*
X62588090Y2893000D01*
G75*
G02*
X62329000Y3152090I0J259090D01*
G01*
X62329000Y5483910D01*
G75*
G02*
X62588090Y5743000I259090J0D01*
G01*
G37*
G36*
G01*
X71224090Y5743000D02*
X73555910Y5743000D01*
G75*
G02*
X73815000Y5483910I0J-259090D01*
G01*
X73815000Y3152090D01*
G75*
G02*
X73555910Y2893000I-259090J0D01*
G01*
X71224090Y2893000D01*
G75*
G02*
X70965000Y3152090I0J259090D01*
G01*
X70965000Y5483910D01*
G75*
G02*
X71224090Y5743000I259090J0D01*
G01*
G37*
G36*
G01*
X5362000Y77619910D02*
X5362000Y75288090D01*
G75*
G02*
X5102910Y75029000I-259090J0D01*
G01*
X2771090Y75029000D01*
G75*
G02*
X2512000Y75288090I0J259090D01*
G01*
X2512000Y77619910D01*
G75*
G02*
X2771090Y77879000I259090J0D01*
G01*
X5102910Y77879000D01*
G75*
G02*
X5362000Y77619910I0J-259090D01*
G01*
G37*
G36*
G01*
X5362000Y64919910D02*
X5362000Y62588090D01*
G75*
G02*
X5102910Y62329000I-259090J0D01*
G01*
X2771090Y62329000D01*
G75*
G02*
X2512000Y62588090I0J259090D01*
G01*
X2512000Y64919910D01*
G75*
G02*
X2771090Y65179000I259090J0D01*
G01*
X5102910Y65179000D01*
G75*
G02*
X5362000Y64919910I0J-259090D01*
G01*
G37*
D13*
X20287000Y73694000D03*
X20287000Y66294000D03*
X10287000Y73694000D03*
D14*
X10287000Y66294000D03*
D20*
X80000000Y75010000D03*
X80000000Y5010000D03*
X30000000Y75010000D03*
X5000000Y5010000D03*
M02*
