G04 #@! TF.GenerationSoftware,KiCad,Pcbnew,5.1.6+dfsg1-1~bpo9+1*
G04 #@! TF.CreationDate,2022-04-04T20:49:37+02:00*
G04 #@! TF.ProjectId,sdrtrx-traco,73647274-7278-42d7-9472-61636f2e6b69,1*
G04 #@! TF.SameCoordinates,Original*
G04 #@! TF.FileFunction,Soldermask,Top*
G04 #@! TF.FilePolarity,Negative*
%FSLAX46Y46*%
G04 Gerber Fmt 4.6, Leading zero omitted, Abs format (unit mm)*
G04 Created by KiCad (PCBNEW 5.1.6+dfsg1-1~bpo9+1) date 2022-04-04 20:49:37*
%MOMM*%
%LPD*%
G01*
G04 APERTURE LIST*
%ADD10C,2.100000*%
%ADD11R,2.100000X2.100000*%
%ADD12R,2.890000X1.290000*%
%ADD13C,5.180000*%
%ADD14O,2.600000X6.100001*%
%ADD15R,2.600000X6.100000*%
%ADD16O,2.600000X6.100000*%
%ADD17C,6.500000*%
G04 APERTURE END LIST*
G36*
G01*
X11920700Y48710200D02*
X8602500Y48710200D01*
G75*
G02*
X8411600Y48901100I0J190900D01*
G01*
X8411600Y50819300D01*
G75*
G02*
X8602500Y51010200I190900J0D01*
G01*
X11920700Y51010200D01*
G75*
G02*
X12111600Y50819300I0J-190900D01*
G01*
X12111600Y48901100D01*
G75*
G02*
X11920700Y48710200I-190900J0D01*
G01*
G37*
G36*
G01*
X11920700Y38296200D02*
X8602500Y38296200D01*
G75*
G02*
X8411600Y38487100I0J190900D01*
G01*
X8411600Y40405300D01*
G75*
G02*
X8602500Y40596200I190900J0D01*
G01*
X11920700Y40596200D01*
G75*
G02*
X12111600Y40405300I0J-190900D01*
G01*
X12111600Y38487100D01*
G75*
G02*
X11920700Y38296200I-190900J0D01*
G01*
G37*
G36*
G01*
X39708300Y38461300D02*
X36390100Y38461300D01*
G75*
G02*
X36199200Y38652200I0J190900D01*
G01*
X36199200Y40570400D01*
G75*
G02*
X36390100Y40761300I190900J0D01*
G01*
X39708300Y40761300D01*
G75*
G02*
X39899200Y40570400I0J-190900D01*
G01*
X39899200Y38652200D01*
G75*
G02*
X39708300Y38461300I-190900J0D01*
G01*
G37*
G36*
G01*
X39708300Y28047300D02*
X36390100Y28047300D01*
G75*
G02*
X36199200Y28238200I0J190900D01*
G01*
X36199200Y30156400D01*
G75*
G02*
X36390100Y30347300I190900J0D01*
G01*
X39708300Y30347300D01*
G75*
G02*
X39899200Y30156400I0J-190900D01*
G01*
X39899200Y28238200D01*
G75*
G02*
X39708300Y28047300I-190900J0D01*
G01*
G37*
G36*
G01*
X53741800Y48799100D02*
X50423600Y48799100D01*
G75*
G02*
X50232700Y48990000I0J190900D01*
G01*
X50232700Y50908200D01*
G75*
G02*
X50423600Y51099100I190900J0D01*
G01*
X53741800Y51099100D01*
G75*
G02*
X53932700Y50908200I0J-190900D01*
G01*
X53932700Y48990000D01*
G75*
G02*
X53741800Y48799100I-190900J0D01*
G01*
G37*
G36*
G01*
X53741800Y38385100D02*
X50423600Y38385100D01*
G75*
G02*
X50232700Y38576000I0J190900D01*
G01*
X50232700Y40494200D01*
G75*
G02*
X50423600Y40685100I190900J0D01*
G01*
X53741800Y40685100D01*
G75*
G02*
X53932700Y40494200I0J-190900D01*
G01*
X53932700Y38576000D01*
G75*
G02*
X53741800Y38385100I-190900J0D01*
G01*
G37*
G36*
G01*
X81783400Y38156500D02*
X78465200Y38156500D01*
G75*
G02*
X78274300Y38347400I0J190900D01*
G01*
X78274300Y40265600D01*
G75*
G02*
X78465200Y40456500I190900J0D01*
G01*
X81783400Y40456500D01*
G75*
G02*
X81974300Y40265600I0J-190900D01*
G01*
X81974300Y38347400D01*
G75*
G02*
X81783400Y38156500I-190900J0D01*
G01*
G37*
G36*
G01*
X81783400Y27742500D02*
X78465200Y27742500D01*
G75*
G02*
X78274300Y27933400I0J190900D01*
G01*
X78274300Y29851600D01*
G75*
G02*
X78465200Y30042500I190900J0D01*
G01*
X81783400Y30042500D01*
G75*
G02*
X81974300Y29851600I0J-190900D01*
G01*
X81974300Y27933400D01*
G75*
G02*
X81783400Y27742500I-190900J0D01*
G01*
G37*
G36*
G01*
X74049100Y38220000D02*
X70730900Y38220000D01*
G75*
G02*
X70540000Y38410900I0J190900D01*
G01*
X70540000Y40329100D01*
G75*
G02*
X70730900Y40520000I190900J0D01*
G01*
X74049100Y40520000D01*
G75*
G02*
X74240000Y40329100I0J-190900D01*
G01*
X74240000Y38410900D01*
G75*
G02*
X74049100Y38220000I-190900J0D01*
G01*
G37*
G36*
G01*
X74049100Y27806000D02*
X70730900Y27806000D01*
G75*
G02*
X70540000Y27996900I0J190900D01*
G01*
X70540000Y29915100D01*
G75*
G02*
X70730900Y30106000I190900J0D01*
G01*
X74049100Y30106000D01*
G75*
G02*
X74240000Y29915100I0J-190900D01*
G01*
X74240000Y27996900D01*
G75*
G02*
X74049100Y27806000I-190900J0D01*
G01*
G37*
G36*
G01*
X28058900Y30233000D02*
X31377100Y30233000D01*
G75*
G02*
X31568000Y30042100I0J-190900D01*
G01*
X31568000Y28123900D01*
G75*
G02*
X31377100Y27933000I-190900J0D01*
G01*
X28058900Y27933000D01*
G75*
G02*
X27868000Y28123900I0J190900D01*
G01*
X27868000Y30042100D01*
G75*
G02*
X28058900Y30233000I190900J0D01*
G01*
G37*
G36*
G01*
X28058900Y40647000D02*
X31377100Y40647000D01*
G75*
G02*
X31568000Y40456100I0J-190900D01*
G01*
X31568000Y38537900D01*
G75*
G02*
X31377100Y38347000I-190900J0D01*
G01*
X28058900Y38347000D01*
G75*
G02*
X27868000Y38537900I0J190900D01*
G01*
X27868000Y40456100D01*
G75*
G02*
X28058900Y40647000I190900J0D01*
G01*
G37*
D10*
X77393800Y68627000D03*
D11*
X77393800Y63627000D03*
D10*
X35255200Y68677800D03*
D11*
X35255200Y63677800D03*
G36*
G01*
X47462456Y70829000D02*
X45247544Y70829000D01*
G75*
G02*
X44980000Y71096544I0J267544D01*
G01*
X44980000Y72086456D01*
G75*
G02*
X45247544Y72354000I267544J0D01*
G01*
X47462456Y72354000D01*
G75*
G02*
X47730000Y72086456I0J-267544D01*
G01*
X47730000Y71096544D01*
G75*
G02*
X47462456Y70829000I-267544J0D01*
G01*
G37*
G36*
G01*
X47462456Y67854000D02*
X45247544Y67854000D01*
G75*
G02*
X44980000Y68121544I0J267544D01*
G01*
X44980000Y69111456D01*
G75*
G02*
X45247544Y69379000I267544J0D01*
G01*
X47462456Y69379000D01*
G75*
G02*
X47730000Y69111456I0J-267544D01*
G01*
X47730000Y68121544D01*
G75*
G02*
X47462456Y67854000I-267544J0D01*
G01*
G37*
G36*
G01*
X5044456Y71083000D02*
X2829544Y71083000D01*
G75*
G02*
X2562000Y71350544I0J267544D01*
G01*
X2562000Y72340456D01*
G75*
G02*
X2829544Y72608000I267544J0D01*
G01*
X5044456Y72608000D01*
G75*
G02*
X5312000Y72340456I0J-267544D01*
G01*
X5312000Y71350544D01*
G75*
G02*
X5044456Y71083000I-267544J0D01*
G01*
G37*
G36*
G01*
X5044456Y68108000D02*
X2829544Y68108000D01*
G75*
G02*
X2562000Y68375544I0J267544D01*
G01*
X2562000Y69365456D01*
G75*
G02*
X2829544Y69633000I267544J0D01*
G01*
X5044456Y69633000D01*
G75*
G02*
X5312000Y69365456I0J-267544D01*
G01*
X5312000Y68375544D01*
G75*
G02*
X5044456Y68108000I-267544J0D01*
G01*
G37*
G36*
G01*
X55720000Y34538095D02*
X55720000Y31961905D01*
G75*
G02*
X55458095Y31700000I-261905J0D01*
G01*
X53781905Y31700000D01*
G75*
G02*
X53520000Y31961905I0J261905D01*
G01*
X53520000Y34538095D01*
G75*
G02*
X53781905Y34800000I261905J0D01*
G01*
X55458095Y34800000D01*
G75*
G02*
X55720000Y34538095I0J-261905D01*
G01*
G37*
G36*
G01*
X63320000Y34538095D02*
X63320000Y31961905D01*
G75*
G02*
X63058095Y31700000I-261905J0D01*
G01*
X61381905Y31700000D01*
G75*
G02*
X61120000Y31961905I0J261905D01*
G01*
X61120000Y34538095D01*
G75*
G02*
X61381905Y34800000I261905J0D01*
G01*
X63058095Y34800000D01*
G75*
G02*
X63320000Y34538095I0J-261905D01*
G01*
G37*
G36*
G01*
X57620000Y30975000D02*
X57620000Y30025000D01*
G75*
G02*
X57395000Y29800000I-225000J0D01*
G01*
X56945000Y29800000D01*
G75*
G02*
X56720000Y30025000I0J225000D01*
G01*
X56720000Y30975000D01*
G75*
G02*
X56945000Y31200000I225000J0D01*
G01*
X57395000Y31200000D01*
G75*
G02*
X57620000Y30975000I0J-225000D01*
G01*
G37*
G36*
G01*
X58870000Y30975000D02*
X58870000Y30025000D01*
G75*
G02*
X58645000Y29800000I-225000J0D01*
G01*
X58195000Y29800000D01*
G75*
G02*
X57970000Y30025000I0J225000D01*
G01*
X57970000Y30975000D01*
G75*
G02*
X58195000Y31200000I225000J0D01*
G01*
X58645000Y31200000D01*
G75*
G02*
X58870000Y30975000I0J-225000D01*
G01*
G37*
G36*
G01*
X60120000Y30975000D02*
X60120000Y30025000D01*
G75*
G02*
X59895000Y29800000I-225000J0D01*
G01*
X59445000Y29800000D01*
G75*
G02*
X59220000Y30025000I0J225000D01*
G01*
X59220000Y30975000D01*
G75*
G02*
X59445000Y31200000I225000J0D01*
G01*
X59895000Y31200000D01*
G75*
G02*
X60120000Y30975000I0J-225000D01*
G01*
G37*
D12*
X22286500Y21971000D03*
X27116500Y24511000D03*
X22286500Y27051000D03*
X53846000Y21272500D03*
X58676000Y23812500D03*
X53846000Y26352500D03*
X11999500Y21971000D03*
X16829500Y24511000D03*
X11999500Y27051000D03*
G36*
G01*
X28556000Y17245250D02*
X28556000Y16282750D01*
G75*
G02*
X28287250Y16014000I-268750J0D01*
G01*
X27749750Y16014000D01*
G75*
G02*
X27481000Y16282750I0J268750D01*
G01*
X27481000Y17245250D01*
G75*
G02*
X27749750Y17514000I268750J0D01*
G01*
X28287250Y17514000D01*
G75*
G02*
X28556000Y17245250I0J-268750D01*
G01*
G37*
G36*
G01*
X30431000Y17245250D02*
X30431000Y16282750D01*
G75*
G02*
X30162250Y16014000I-268750J0D01*
G01*
X29624750Y16014000D01*
G75*
G02*
X29356000Y16282750I0J268750D01*
G01*
X29356000Y17245250D01*
G75*
G02*
X29624750Y17514000I268750J0D01*
G01*
X30162250Y17514000D01*
G75*
G02*
X30431000Y17245250I0J-268750D01*
G01*
G37*
G36*
G01*
X70847000Y16864250D02*
X70847000Y15901750D01*
G75*
G02*
X70578250Y15633000I-268750J0D01*
G01*
X70040750Y15633000D01*
G75*
G02*
X69772000Y15901750I0J268750D01*
G01*
X69772000Y16864250D01*
G75*
G02*
X70040750Y17133000I268750J0D01*
G01*
X70578250Y17133000D01*
G75*
G02*
X70847000Y16864250I0J-268750D01*
G01*
G37*
G36*
G01*
X72722000Y16864250D02*
X72722000Y15901750D01*
G75*
G02*
X72453250Y15633000I-268750J0D01*
G01*
X71915750Y15633000D01*
G75*
G02*
X71647000Y15901750I0J268750D01*
G01*
X71647000Y16864250D01*
G75*
G02*
X71915750Y17133000I268750J0D01*
G01*
X72453250Y17133000D01*
G75*
G02*
X72722000Y16864250I0J-268750D01*
G01*
G37*
G36*
G01*
X25419000Y16282750D02*
X25419000Y17245250D01*
G75*
G02*
X25687750Y17514000I268750J0D01*
G01*
X26225250Y17514000D01*
G75*
G02*
X26494000Y17245250I0J-268750D01*
G01*
X26494000Y16282750D01*
G75*
G02*
X26225250Y16014000I-268750J0D01*
G01*
X25687750Y16014000D01*
G75*
G02*
X25419000Y16282750I0J268750D01*
G01*
G37*
G36*
G01*
X23544000Y16282750D02*
X23544000Y17245250D01*
G75*
G02*
X23812750Y17514000I268750J0D01*
G01*
X24350250Y17514000D01*
G75*
G02*
X24619000Y17245250I0J-268750D01*
G01*
X24619000Y16282750D01*
G75*
G02*
X24350250Y16014000I-268750J0D01*
G01*
X23812750Y16014000D01*
G75*
G02*
X23544000Y16282750I0J268750D01*
G01*
G37*
G36*
G01*
X67964000Y15901750D02*
X67964000Y16864250D01*
G75*
G02*
X68232750Y17133000I268750J0D01*
G01*
X68770250Y17133000D01*
G75*
G02*
X69039000Y16864250I0J-268750D01*
G01*
X69039000Y15901750D01*
G75*
G02*
X68770250Y15633000I-268750J0D01*
G01*
X68232750Y15633000D01*
G75*
G02*
X67964000Y15901750I0J268750D01*
G01*
G37*
G36*
G01*
X66089000Y15901750D02*
X66089000Y16864250D01*
G75*
G02*
X66357750Y17133000I268750J0D01*
G01*
X66895250Y17133000D01*
G75*
G02*
X67164000Y16864250I0J-268750D01*
G01*
X67164000Y15901750D01*
G75*
G02*
X66895250Y15633000I-268750J0D01*
G01*
X66357750Y15633000D01*
G75*
G02*
X66089000Y15901750I0J268750D01*
G01*
G37*
D10*
X62705000Y73948000D03*
X62705000Y66548000D03*
X52705000Y73948000D03*
D11*
X52705000Y66548000D03*
G36*
G01*
X44930000Y75415090D02*
X44930000Y77746910D01*
G75*
G02*
X45189090Y78006000I259090J0D01*
G01*
X47520910Y78006000D01*
G75*
G02*
X47780000Y77746910I0J-259090D01*
G01*
X47780000Y75415090D01*
G75*
G02*
X47520910Y75156000I-259090J0D01*
G01*
X45189090Y75156000D01*
G75*
G02*
X44930000Y75415090I0J259090D01*
G01*
G37*
G36*
G01*
X44930000Y62715090D02*
X44930000Y65046910D01*
G75*
G02*
X45189090Y65306000I259090J0D01*
G01*
X47520910Y65306000D01*
G75*
G02*
X47780000Y65046910I0J-259090D01*
G01*
X47780000Y62715090D01*
G75*
G02*
X47520910Y62456000I-259090J0D01*
G01*
X45189090Y62456000D01*
G75*
G02*
X44930000Y62715090I0J259090D01*
G01*
G37*
D12*
X65403000Y21145500D03*
X70233000Y23685500D03*
X65403000Y26225500D03*
D13*
X80264000Y14351000D03*
X47244000Y54991000D03*
D14*
X53594000Y11811000D03*
X73914000Y11811000D03*
D15*
X71374000Y57531000D03*
D16*
X66294000Y57531000D03*
D14*
X56134000Y57531000D03*
X63754000Y11811000D03*
D13*
X38100000Y14351000D03*
X5080000Y54991000D03*
D14*
X11430000Y11811000D03*
X31750000Y11811000D03*
D15*
X29210000Y57531000D03*
D16*
X24130000Y57531000D03*
D14*
X13970000Y57531000D03*
X21590000Y11811000D03*
G36*
G01*
X13810000Y34855595D02*
X13810000Y32279405D01*
G75*
G02*
X13548095Y32017500I-261905J0D01*
G01*
X11871905Y32017500D01*
G75*
G02*
X11610000Y32279405I0J261905D01*
G01*
X11610000Y34855595D01*
G75*
G02*
X11871905Y35117500I261905J0D01*
G01*
X13548095Y35117500D01*
G75*
G02*
X13810000Y34855595I0J-261905D01*
G01*
G37*
G36*
G01*
X21410000Y34855595D02*
X21410000Y32279405D01*
G75*
G02*
X21148095Y32017500I-261905J0D01*
G01*
X19471905Y32017500D01*
G75*
G02*
X19210000Y32279405I0J261905D01*
G01*
X19210000Y34855595D01*
G75*
G02*
X19471905Y35117500I261905J0D01*
G01*
X21148095Y35117500D01*
G75*
G02*
X21410000Y34855595I0J-261905D01*
G01*
G37*
G36*
G01*
X15710000Y31292500D02*
X15710000Y30342500D01*
G75*
G02*
X15485000Y30117500I-225000J0D01*
G01*
X15035000Y30117500D01*
G75*
G02*
X14810000Y30342500I0J225000D01*
G01*
X14810000Y31292500D01*
G75*
G02*
X15035000Y31517500I225000J0D01*
G01*
X15485000Y31517500D01*
G75*
G02*
X15710000Y31292500I0J-225000D01*
G01*
G37*
G36*
G01*
X16960000Y31292500D02*
X16960000Y30342500D01*
G75*
G02*
X16735000Y30117500I-225000J0D01*
G01*
X16285000Y30117500D01*
G75*
G02*
X16060000Y30342500I0J225000D01*
G01*
X16060000Y31292500D01*
G75*
G02*
X16285000Y31517500I225000J0D01*
G01*
X16735000Y31517500D01*
G75*
G02*
X16960000Y31292500I0J-225000D01*
G01*
G37*
G36*
G01*
X18210000Y31292500D02*
X18210000Y30342500D01*
G75*
G02*
X17985000Y30117500I-225000J0D01*
G01*
X17535000Y30117500D01*
G75*
G02*
X17310000Y30342500I0J225000D01*
G01*
X17310000Y31292500D01*
G75*
G02*
X17535000Y31517500I225000J0D01*
G01*
X17985000Y31517500D01*
G75*
G02*
X18210000Y31292500I0J-225000D01*
G01*
G37*
G36*
G01*
X20424090Y5870000D02*
X22755910Y5870000D01*
G75*
G02*
X23015000Y5610910I0J-259090D01*
G01*
X23015000Y3279090D01*
G75*
G02*
X22755910Y3020000I-259090J0D01*
G01*
X20424090Y3020000D01*
G75*
G02*
X20165000Y3279090I0J259090D01*
G01*
X20165000Y5610910D01*
G75*
G02*
X20424090Y5870000I259090J0D01*
G01*
G37*
G36*
G01*
X29187090Y5870000D02*
X31518910Y5870000D01*
G75*
G02*
X31778000Y5610910I0J-259090D01*
G01*
X31778000Y3279090D01*
G75*
G02*
X31518910Y3020000I-259090J0D01*
G01*
X29187090Y3020000D01*
G75*
G02*
X28928000Y3279090I0J259090D01*
G01*
X28928000Y5610910D01*
G75*
G02*
X29187090Y5870000I259090J0D01*
G01*
G37*
G36*
G01*
X62588090Y5743000D02*
X64919910Y5743000D01*
G75*
G02*
X65179000Y5483910I0J-259090D01*
G01*
X65179000Y3152090D01*
G75*
G02*
X64919910Y2893000I-259090J0D01*
G01*
X62588090Y2893000D01*
G75*
G02*
X62329000Y3152090I0J259090D01*
G01*
X62329000Y5483910D01*
G75*
G02*
X62588090Y5743000I259090J0D01*
G01*
G37*
G36*
G01*
X71224090Y5743000D02*
X73555910Y5743000D01*
G75*
G02*
X73815000Y5483910I0J-259090D01*
G01*
X73815000Y3152090D01*
G75*
G02*
X73555910Y2893000I-259090J0D01*
G01*
X71224090Y2893000D01*
G75*
G02*
X70965000Y3152090I0J259090D01*
G01*
X70965000Y5483910D01*
G75*
G02*
X71224090Y5743000I259090J0D01*
G01*
G37*
G36*
G01*
X5362000Y77619910D02*
X5362000Y75288090D01*
G75*
G02*
X5102910Y75029000I-259090J0D01*
G01*
X2771090Y75029000D01*
G75*
G02*
X2512000Y75288090I0J259090D01*
G01*
X2512000Y77619910D01*
G75*
G02*
X2771090Y77879000I259090J0D01*
G01*
X5102910Y77879000D01*
G75*
G02*
X5362000Y77619910I0J-259090D01*
G01*
G37*
G36*
G01*
X5362000Y64919910D02*
X5362000Y62588090D01*
G75*
G02*
X5102910Y62329000I-259090J0D01*
G01*
X2771090Y62329000D01*
G75*
G02*
X2512000Y62588090I0J259090D01*
G01*
X2512000Y64919910D01*
G75*
G02*
X2771090Y65179000I259090J0D01*
G01*
X5102910Y65179000D01*
G75*
G02*
X5362000Y64919910I0J-259090D01*
G01*
G37*
D10*
X20287000Y73694000D03*
X20287000Y66294000D03*
X10287000Y73694000D03*
D11*
X10287000Y66294000D03*
D17*
X80000000Y75010000D03*
X80000000Y5010000D03*
X30000000Y75010000D03*
X5000000Y5010000D03*
M02*
