G04 #@! TF.GenerationSoftware,KiCad,Pcbnew,5.1.6+dfsg1-1~bpo9+1*
G04 #@! TF.CreationDate,2022-04-04T20:49:37+02:00*
G04 #@! TF.ProjectId,sdrtrx-traco,73647274-7278-42d7-9472-61636f2e6b69,1*
G04 #@! TF.SameCoordinates,Original*
G04 #@! TF.FileFunction,Copper,L2,Bot*
G04 #@! TF.FilePolarity,Positive*
%FSLAX46Y46*%
G04 Gerber Fmt 4.6, Leading zero omitted, Abs format (unit mm)*
G04 Created by KiCad (PCBNEW 5.1.6+dfsg1-1~bpo9+1) date 2022-04-04 20:49:37*
%MOMM*%
%LPD*%
G01*
G04 APERTURE LIST*
G04 #@! TA.AperFunction,ComponentPad*
%ADD10C,2.000000*%
G04 #@! TD*
G04 #@! TA.AperFunction,ComponentPad*
%ADD11R,2.000000X2.000000*%
G04 #@! TD*
G04 #@! TA.AperFunction,ComponentPad*
%ADD12C,5.080000*%
G04 #@! TD*
G04 #@! TA.AperFunction,ComponentPad*
%ADD13O,2.500000X6.000001*%
G04 #@! TD*
G04 #@! TA.AperFunction,ComponentPad*
%ADD14R,2.500000X6.000000*%
G04 #@! TD*
G04 #@! TA.AperFunction,ComponentPad*
%ADD15O,2.500000X6.000000*%
G04 #@! TD*
G04 #@! TA.AperFunction,ComponentPad*
%ADD16C,6.400000*%
G04 #@! TD*
G04 #@! TA.AperFunction,ViaPad*
%ADD17C,0.800000*%
G04 #@! TD*
G04 #@! TA.AperFunction,Conductor*
%ADD18C,2.540000*%
G04 #@! TD*
G04 #@! TA.AperFunction,Conductor*
%ADD19C,0.254000*%
G04 #@! TD*
G04 #@! TA.AperFunction,Conductor*
%ADD20C,1.016000*%
G04 #@! TD*
G04 APERTURE END LIST*
D10*
X77393800Y68627000D03*
D11*
X77393800Y63627000D03*
D10*
X35255200Y68677800D03*
D11*
X35255200Y63677800D03*
D10*
X62705000Y73948000D03*
X62705000Y66548000D03*
X52705000Y73948000D03*
D11*
X52705000Y66548000D03*
G04 #@! TA.AperFunction,ComponentPad*
G36*
G01*
X44980000Y75455999D02*
X44980000Y77706001D01*
G75*
G02*
X45229999Y77956000I249999J0D01*
G01*
X47480001Y77956000D01*
G75*
G02*
X47730000Y77706001I0J-249999D01*
G01*
X47730000Y75455999D01*
G75*
G02*
X47480001Y75206000I-249999J0D01*
G01*
X45229999Y75206000D01*
G75*
G02*
X44980000Y75455999I0J249999D01*
G01*
G37*
G04 #@! TD.AperFunction*
G04 #@! TA.AperFunction,ComponentPad*
G36*
G01*
X44980000Y62755999D02*
X44980000Y65006001D01*
G75*
G02*
X45229999Y65256000I249999J0D01*
G01*
X47480001Y65256000D01*
G75*
G02*
X47730000Y65006001I0J-249999D01*
G01*
X47730000Y62755999D01*
G75*
G02*
X47480001Y62506000I-249999J0D01*
G01*
X45229999Y62506000D01*
G75*
G02*
X44980000Y62755999I0J249999D01*
G01*
G37*
G04 #@! TD.AperFunction*
D12*
X80264000Y14351000D03*
X47244000Y54991000D03*
D13*
X53594000Y11811000D03*
X73914000Y11811000D03*
D14*
X71374000Y57531000D03*
D15*
X66294000Y57531000D03*
D13*
X56134000Y57531000D03*
X63754000Y11811000D03*
D12*
X38100000Y14351000D03*
X5080000Y54991000D03*
D13*
X11430000Y11811000D03*
X31750000Y11811000D03*
D14*
X29210000Y57531000D03*
D15*
X24130000Y57531000D03*
D13*
X13970000Y57531000D03*
X21590000Y11811000D03*
G04 #@! TA.AperFunction,ComponentPad*
G36*
G01*
X20464999Y5820000D02*
X22715001Y5820000D01*
G75*
G02*
X22965000Y5570001I0J-249999D01*
G01*
X22965000Y3319999D01*
G75*
G02*
X22715001Y3070000I-249999J0D01*
G01*
X20464999Y3070000D01*
G75*
G02*
X20215000Y3319999I0J249999D01*
G01*
X20215000Y5570001D01*
G75*
G02*
X20464999Y5820000I249999J0D01*
G01*
G37*
G04 #@! TD.AperFunction*
G04 #@! TA.AperFunction,ComponentPad*
G36*
G01*
X29227999Y5820000D02*
X31478001Y5820000D01*
G75*
G02*
X31728000Y5570001I0J-249999D01*
G01*
X31728000Y3319999D01*
G75*
G02*
X31478001Y3070000I-249999J0D01*
G01*
X29227999Y3070000D01*
G75*
G02*
X28978000Y3319999I0J249999D01*
G01*
X28978000Y5570001D01*
G75*
G02*
X29227999Y5820000I249999J0D01*
G01*
G37*
G04 #@! TD.AperFunction*
G04 #@! TA.AperFunction,ComponentPad*
G36*
G01*
X62628999Y5693000D02*
X64879001Y5693000D01*
G75*
G02*
X65129000Y5443001I0J-249999D01*
G01*
X65129000Y3192999D01*
G75*
G02*
X64879001Y2943000I-249999J0D01*
G01*
X62628999Y2943000D01*
G75*
G02*
X62379000Y3192999I0J249999D01*
G01*
X62379000Y5443001D01*
G75*
G02*
X62628999Y5693000I249999J0D01*
G01*
G37*
G04 #@! TD.AperFunction*
G04 #@! TA.AperFunction,ComponentPad*
G36*
G01*
X71264999Y5693000D02*
X73515001Y5693000D01*
G75*
G02*
X73765000Y5443001I0J-249999D01*
G01*
X73765000Y3192999D01*
G75*
G02*
X73515001Y2943000I-249999J0D01*
G01*
X71264999Y2943000D01*
G75*
G02*
X71015000Y3192999I0J249999D01*
G01*
X71015000Y5443001D01*
G75*
G02*
X71264999Y5693000I249999J0D01*
G01*
G37*
G04 #@! TD.AperFunction*
G04 #@! TA.AperFunction,ComponentPad*
G36*
G01*
X5312000Y77579001D02*
X5312000Y75328999D01*
G75*
G02*
X5062001Y75079000I-249999J0D01*
G01*
X2811999Y75079000D01*
G75*
G02*
X2562000Y75328999I0J249999D01*
G01*
X2562000Y77579001D01*
G75*
G02*
X2811999Y77829000I249999J0D01*
G01*
X5062001Y77829000D01*
G75*
G02*
X5312000Y77579001I0J-249999D01*
G01*
G37*
G04 #@! TD.AperFunction*
G04 #@! TA.AperFunction,ComponentPad*
G36*
G01*
X5312000Y64879001D02*
X5312000Y62628999D01*
G75*
G02*
X5062001Y62379000I-249999J0D01*
G01*
X2811999Y62379000D01*
G75*
G02*
X2562000Y62628999I0J249999D01*
G01*
X2562000Y64879001D01*
G75*
G02*
X2811999Y65129000I249999J0D01*
G01*
X5062001Y65129000D01*
G75*
G02*
X5312000Y64879001I0J-249999D01*
G01*
G37*
G04 #@! TD.AperFunction*
D10*
X20287000Y73694000D03*
X20287000Y66294000D03*
X10287000Y73694000D03*
D11*
X10287000Y66294000D03*
D16*
X80000000Y75010000D03*
X80000000Y5010000D03*
X30000000Y75010000D03*
X5000000Y5010000D03*
D17*
X57150000Y32385000D03*
X15430500Y32829500D03*
X77749400Y20764500D03*
X9994900Y35064700D03*
X46050200Y25387300D03*
X38049200Y25298400D03*
X15049500Y49936400D03*
X57061100Y50025300D03*
D18*
X63881000Y17399000D02*
X63881000Y11684000D01*
X21590000Y11557000D02*
X21590000Y16764000D01*
X21590000Y16764000D02*
X23622000Y18796000D01*
X63881000Y11684000D02*
X63754000Y11557000D01*
X62484000Y18796000D02*
X63881000Y17399000D01*
X21590000Y11557000D02*
X21590000Y4445000D01*
X63754000Y11557000D02*
X63754000Y4318000D01*
D19*
X62484000Y18796000D02*
X62484000Y25336500D01*
X57150000Y30670500D02*
X57150000Y32385000D01*
X62484000Y25336500D02*
X57150000Y30670500D01*
X21590000Y16764000D02*
X20828000Y16764000D01*
X20828000Y16764000D02*
X15430500Y22161500D01*
X15430500Y22161500D02*
X15430500Y32829500D01*
D20*
X77749400Y20764500D02*
X74904600Y17919700D01*
X64401700Y17919700D02*
X63881000Y17399000D01*
X74904600Y17919700D02*
X64401700Y17919700D01*
X21590000Y16764000D02*
X14706600Y16764000D01*
X9994900Y21475700D02*
X9994900Y35064700D01*
X14706600Y16764000D02*
X9994900Y21475700D01*
X46050200Y19431000D02*
X45415200Y18796000D01*
X46050200Y25387300D02*
X46050200Y19431000D01*
D18*
X45415200Y18796000D02*
X62484000Y18796000D01*
D20*
X38049200Y25298400D02*
X38049200Y19164300D01*
D18*
X38417500Y18796000D02*
X45415200Y18796000D01*
D20*
X38049200Y19164300D02*
X38417500Y18796000D01*
D18*
X23622000Y18796000D02*
X38417500Y18796000D01*
D20*
X15049500Y49936400D02*
X17360900Y52247800D01*
X17360900Y52247800D02*
X17360900Y69037200D01*
X12704100Y73694000D02*
X10287000Y73694000D01*
X17360900Y69037200D02*
X12704100Y73694000D01*
X52705000Y73948000D02*
X56061900Y73948000D01*
X56061900Y73948000D02*
X59194700Y70815200D01*
X59194700Y52158900D02*
X57061100Y50025300D01*
X59194700Y70815200D02*
X59194700Y52158900D01*
D18*
X20287000Y66294000D02*
X27686000Y66294000D01*
X29210000Y64770000D02*
X29210000Y57277000D01*
X27686000Y66294000D02*
X29210000Y64770000D01*
X69342000Y66548000D02*
X62705000Y66548000D01*
X71374000Y64516000D02*
X69342000Y66548000D01*
X71374000Y57277000D02*
X71374000Y64516000D01*
M02*
