G04 #@! TF.GenerationSoftware,KiCad,Pcbnew,5.1.6+dfsg1-1~bpo9+1*
G04 #@! TF.CreationDate,2021-07-11T21:12:09+02:00*
G04 #@! TF.ProjectId,sdrtrx-traco,73647274-7278-42d7-9472-61636f2e6b69,1*
G04 #@! TF.SameCoordinates,Original*
G04 #@! TF.FileFunction,OtherDrawing,Comment*
%FSLAX46Y46*%
G04 Gerber Fmt 4.6, Leading zero omitted, Abs format (unit mm)*
G04 Created by KiCad (PCBNEW 5.1.6+dfsg1-1~bpo9+1) date 2021-07-11 21:12:09*
%MOMM*%
%LPD*%
G01*
G04 APERTURE LIST*
%ADD10C,0.150000*%
%ADD11C,0.120000*%
G04 APERTURE END LIST*
D10*
X-7308619Y33057619D02*
X-7308619Y32581428D01*
X-6832428Y32533809D01*
X-6880047Y32581428D01*
X-6927666Y32676666D01*
X-6927666Y32914761D01*
X-6880047Y33010000D01*
X-6832428Y33057619D01*
X-6737190Y33105238D01*
X-6499095Y33105238D01*
X-6403857Y33057619D01*
X-6356238Y33010000D01*
X-6308619Y32914761D01*
X-6308619Y32676666D01*
X-6356238Y32581428D01*
X-6403857Y32533809D01*
X-7213380Y33486190D02*
X-7261000Y33533809D01*
X-7308619Y33629047D01*
X-7308619Y33867142D01*
X-7261000Y33962380D01*
X-7213380Y34010000D01*
X-7118142Y34057619D01*
X-7022904Y34057619D01*
X-6880047Y34010000D01*
X-6308619Y33438571D01*
X-6308619Y34057619D01*
X-6308619Y35248095D02*
X-6975285Y35248095D01*
X-6880047Y35248095D02*
X-6927666Y35295714D01*
X-6975285Y35390952D01*
X-6975285Y35533809D01*
X-6927666Y35629047D01*
X-6832428Y35676666D01*
X-6308619Y35676666D01*
X-6832428Y35676666D02*
X-6927666Y35724285D01*
X-6975285Y35819523D01*
X-6975285Y35962380D01*
X-6927666Y36057619D01*
X-6832428Y36105238D01*
X-6308619Y36105238D01*
X-6308619Y36581428D02*
X-6975285Y36581428D01*
X-6880047Y36581428D02*
X-6927666Y36629047D01*
X-6975285Y36724285D01*
X-6975285Y36867142D01*
X-6927666Y36962380D01*
X-6832428Y37010000D01*
X-6308619Y37010000D01*
X-6832428Y37010000D02*
X-6927666Y37057619D01*
X-6975285Y37152857D01*
X-6975285Y37295714D01*
X-6927666Y37390952D01*
X-6832428Y37438571D01*
X-6308619Y37438571D01*
X-5461000Y9010000D02*
X-5461000Y61010000D01*
X0Y9010000D02*
X-6047421Y9010000D01*
X0Y61010000D02*
X-6047421Y61010000D01*
X-5461000Y61010000D02*
X-4874579Y59883496D01*
X-5461000Y61010000D02*
X-6047421Y59883496D01*
X-5461000Y9010000D02*
X-4874579Y10136504D01*
X-5461000Y9010000D02*
X-6047421Y10136504D01*
X-6435619Y2605238D02*
X-6435619Y2795714D01*
X-6483238Y2890952D01*
X-6530857Y2938571D01*
X-6673714Y3033809D01*
X-6864190Y3081428D01*
X-7245142Y3081428D01*
X-7340380Y3033809D01*
X-7388000Y2986190D01*
X-7435619Y2890952D01*
X-7435619Y2700476D01*
X-7388000Y2605238D01*
X-7340380Y2557619D01*
X-7245142Y2510000D01*
X-7007047Y2510000D01*
X-6911809Y2557619D01*
X-6864190Y2605238D01*
X-6816571Y2700476D01*
X-6816571Y2890952D01*
X-6864190Y2986190D01*
X-6911809Y3033809D01*
X-7007047Y3081428D01*
X-6435619Y4271904D02*
X-7102285Y4271904D01*
X-7007047Y4271904D02*
X-7054666Y4319523D01*
X-7102285Y4414761D01*
X-7102285Y4557619D01*
X-7054666Y4652857D01*
X-6959428Y4700476D01*
X-6435619Y4700476D01*
X-6959428Y4700476D02*
X-7054666Y4748095D01*
X-7102285Y4843333D01*
X-7102285Y4986190D01*
X-7054666Y5081428D01*
X-6959428Y5129047D01*
X-6435619Y5129047D01*
X-6435619Y5605238D02*
X-7102285Y5605238D01*
X-7007047Y5605238D02*
X-7054666Y5652857D01*
X-7102285Y5748095D01*
X-7102285Y5890952D01*
X-7054666Y5986190D01*
X-6959428Y6033809D01*
X-6435619Y6033809D01*
X-6959428Y6033809D02*
X-7054666Y6081428D01*
X-7102285Y6176666D01*
X-7102285Y6319523D01*
X-7054666Y6414761D01*
X-6959428Y6462380D01*
X-6435619Y6462380D01*
X-5588000Y10000D02*
X-5588000Y9010000D01*
X0Y10000D02*
X-6174421Y10000D01*
X0Y9010000D02*
X-6174421Y9010000D01*
X-5588000Y9010000D02*
X-5001579Y7883496D01*
X-5588000Y9010000D02*
X-6174421Y7883496D01*
X-5588000Y10000D02*
X-5001579Y1136504D01*
X-5588000Y10000D02*
X-6174421Y1136504D01*
X100828380Y37509690D02*
X100828380Y38176357D01*
X101828380Y37747785D01*
X100828380Y38747785D02*
X100828380Y38843023D01*
X100876000Y38938261D01*
X100923619Y38985880D01*
X101018857Y39033500D01*
X101209333Y39081119D01*
X101447428Y39081119D01*
X101637904Y39033500D01*
X101733142Y38985880D01*
X101780761Y38938261D01*
X101828380Y38843023D01*
X101828380Y38747785D01*
X101780761Y38652547D01*
X101733142Y38604928D01*
X101637904Y38557309D01*
X101447428Y38509690D01*
X101209333Y38509690D01*
X101018857Y38557309D01*
X100923619Y38604928D01*
X100876000Y38652547D01*
X100828380Y38747785D01*
X101828380Y40271595D02*
X101161714Y40271595D01*
X101256952Y40271595D02*
X101209333Y40319214D01*
X101161714Y40414452D01*
X101161714Y40557309D01*
X101209333Y40652547D01*
X101304571Y40700166D01*
X101828380Y40700166D01*
X101304571Y40700166D02*
X101209333Y40747785D01*
X101161714Y40843023D01*
X101161714Y40985880D01*
X101209333Y41081119D01*
X101304571Y41128738D01*
X101828380Y41128738D01*
X101828380Y41604928D02*
X101161714Y41604928D01*
X101256952Y41604928D02*
X101209333Y41652547D01*
X101161714Y41747785D01*
X101161714Y41890642D01*
X101209333Y41985880D01*
X101304571Y42033500D01*
X101828380Y42033500D01*
X101304571Y42033500D02*
X101209333Y42081119D01*
X101161714Y42176357D01*
X101161714Y42319214D01*
X101209333Y42414452D01*
X101304571Y42462071D01*
X101828380Y42462071D01*
X100076000Y5010000D02*
X100076000Y75057000D01*
X80000000Y5010000D02*
X100662421Y5010000D01*
X80000000Y75057000D02*
X100662421Y75057000D01*
X100076000Y75057000D02*
X100662421Y73930496D01*
X100076000Y75057000D02*
X99489579Y73930496D01*
X100076000Y5010000D02*
X100662421Y6136504D01*
X100076000Y5010000D02*
X99489579Y6136504D01*
X101923619Y3981190D02*
X101923619Y4457380D01*
X101447428Y4505000D01*
X101495047Y4457380D01*
X101542666Y4362142D01*
X101542666Y4124047D01*
X101495047Y4028809D01*
X101447428Y3981190D01*
X101352190Y3933571D01*
X101114095Y3933571D01*
X101018857Y3981190D01*
X100971238Y4028809D01*
X100923619Y4124047D01*
X100923619Y4362142D01*
X100971238Y4457380D01*
X101018857Y4505000D01*
X100923619Y2743095D02*
X101590285Y2743095D01*
X101495047Y2743095D02*
X101542666Y2695476D01*
X101590285Y2600238D01*
X101590285Y2457380D01*
X101542666Y2362142D01*
X101447428Y2314523D01*
X100923619Y2314523D01*
X101447428Y2314523D02*
X101542666Y2266904D01*
X101590285Y2171666D01*
X101590285Y2028809D01*
X101542666Y1933571D01*
X101447428Y1885952D01*
X100923619Y1885952D01*
X100923619Y1409761D02*
X101590285Y1409761D01*
X101495047Y1409761D02*
X101542666Y1362142D01*
X101590285Y1266904D01*
X101590285Y1124047D01*
X101542666Y1028809D01*
X101447428Y981190D01*
X100923619Y981190D01*
X101447428Y981190D02*
X101542666Y933571D01*
X101590285Y838333D01*
X101590285Y695476D01*
X101542666Y600238D01*
X101447428Y552619D01*
X100923619Y552619D01*
X100076000Y5010000D02*
X100076000Y0D01*
X80000000Y5010000D02*
X100662421Y5010000D01*
X80000000Y0D02*
X100662421Y0D01*
X100076000Y0D02*
X99489579Y1126504D01*
X100076000Y0D02*
X100662421Y1126504D01*
X100076000Y5010000D02*
X99489579Y3883496D01*
X100076000Y5010000D02*
X100662421Y3883496D01*
X53052619Y92779619D02*
X52576428Y92779619D01*
X52528809Y92303428D01*
X52576428Y92351047D01*
X52671666Y92398666D01*
X52909761Y92398666D01*
X53005000Y92351047D01*
X53052619Y92303428D01*
X53100238Y92208190D01*
X53100238Y91970095D01*
X53052619Y91874857D01*
X53005000Y91827238D01*
X52909761Y91779619D01*
X52671666Y91779619D01*
X52576428Y91827238D01*
X52528809Y91874857D01*
X53719285Y92779619D02*
X53814523Y92779619D01*
X53909761Y92732000D01*
X53957380Y92684380D01*
X54005000Y92589142D01*
X54052619Y92398666D01*
X54052619Y92160571D01*
X54005000Y91970095D01*
X53957380Y91874857D01*
X53909761Y91827238D01*
X53814523Y91779619D01*
X53719285Y91779619D01*
X53624047Y91827238D01*
X53576428Y91874857D01*
X53528809Y91970095D01*
X53481190Y92160571D01*
X53481190Y92398666D01*
X53528809Y92589142D01*
X53576428Y92684380D01*
X53624047Y92732000D01*
X53719285Y92779619D01*
X55243095Y91779619D02*
X55243095Y92446285D01*
X55243095Y92351047D02*
X55290714Y92398666D01*
X55385952Y92446285D01*
X55528809Y92446285D01*
X55624047Y92398666D01*
X55671666Y92303428D01*
X55671666Y91779619D01*
X55671666Y92303428D02*
X55719285Y92398666D01*
X55814523Y92446285D01*
X55957380Y92446285D01*
X56052619Y92398666D01*
X56100238Y92303428D01*
X56100238Y91779619D01*
X56576428Y91779619D02*
X56576428Y92446285D01*
X56576428Y92351047D02*
X56624047Y92398666D01*
X56719285Y92446285D01*
X56862142Y92446285D01*
X56957380Y92398666D01*
X57005000Y92303428D01*
X57005000Y91779619D01*
X57005000Y92303428D02*
X57052619Y92398666D01*
X57147857Y92446285D01*
X57290714Y92446285D01*
X57385952Y92398666D01*
X57433571Y92303428D01*
X57433571Y91779619D01*
X30000000Y90932000D02*
X80010000Y90932000D01*
X30000000Y75010000D02*
X30000000Y91518421D01*
X80010000Y75010000D02*
X80010000Y91518421D01*
X80010000Y90932000D02*
X78883496Y90345579D01*
X80010000Y90932000D02*
X78883496Y91518421D01*
X30000000Y90932000D02*
X31126504Y90345579D01*
X30000000Y90932000D02*
X31126504Y91518421D01*
X12476190Y92779619D02*
X13095238Y92779619D01*
X12761904Y92398666D01*
X12904761Y92398666D01*
X13000000Y92351047D01*
X13047619Y92303428D01*
X13095238Y92208190D01*
X13095238Y91970095D01*
X13047619Y91874857D01*
X13000000Y91827238D01*
X12904761Y91779619D01*
X12619047Y91779619D01*
X12523809Y91827238D01*
X12476190Y91874857D01*
X13714285Y92779619D02*
X13809523Y92779619D01*
X13904761Y92732000D01*
X13952380Y92684380D01*
X14000000Y92589142D01*
X14047619Y92398666D01*
X14047619Y92160571D01*
X14000000Y91970095D01*
X13952380Y91874857D01*
X13904761Y91827238D01*
X13809523Y91779619D01*
X13714285Y91779619D01*
X13619047Y91827238D01*
X13571428Y91874857D01*
X13523809Y91970095D01*
X13476190Y92160571D01*
X13476190Y92398666D01*
X13523809Y92589142D01*
X13571428Y92684380D01*
X13619047Y92732000D01*
X13714285Y92779619D01*
X15238095Y91779619D02*
X15238095Y92446285D01*
X15238095Y92351047D02*
X15285714Y92398666D01*
X15380952Y92446285D01*
X15523809Y92446285D01*
X15619047Y92398666D01*
X15666666Y92303428D01*
X15666666Y91779619D01*
X15666666Y92303428D02*
X15714285Y92398666D01*
X15809523Y92446285D01*
X15952380Y92446285D01*
X16047619Y92398666D01*
X16095238Y92303428D01*
X16095238Y91779619D01*
X16571428Y91779619D02*
X16571428Y92446285D01*
X16571428Y92351047D02*
X16619047Y92398666D01*
X16714285Y92446285D01*
X16857142Y92446285D01*
X16952380Y92398666D01*
X17000000Y92303428D01*
X17000000Y91779619D01*
X17000000Y92303428D02*
X17047619Y92398666D01*
X17142857Y92446285D01*
X17285714Y92446285D01*
X17380952Y92398666D01*
X17428571Y92303428D01*
X17428571Y91779619D01*
X30000000Y90932000D02*
X0Y90932000D01*
X30000000Y75010000D02*
X30000000Y91518421D01*
X0Y75010000D02*
X0Y91518421D01*
X0Y90932000D02*
X1126504Y91518421D01*
X0Y90932000D02*
X1126504Y90345579D01*
X30000000Y90932000D02*
X28873496Y91518421D01*
X30000000Y90932000D02*
X28873496Y90345579D01*
X-13865047Y36057619D02*
X-13912666Y35962380D01*
X-13960285Y35914761D01*
X-14055523Y35867142D01*
X-14103142Y35867142D01*
X-14198380Y35914761D01*
X-14246000Y35962380D01*
X-14293619Y36057619D01*
X-14293619Y36248095D01*
X-14246000Y36343333D01*
X-14198380Y36390952D01*
X-14103142Y36438571D01*
X-14055523Y36438571D01*
X-13960285Y36390952D01*
X-13912666Y36343333D01*
X-13865047Y36248095D01*
X-13865047Y36057619D01*
X-13817428Y35962380D01*
X-13769809Y35914761D01*
X-13674571Y35867142D01*
X-13484095Y35867142D01*
X-13388857Y35914761D01*
X-13341238Y35962380D01*
X-13293619Y36057619D01*
X-13293619Y36248095D01*
X-13341238Y36343333D01*
X-13388857Y36390952D01*
X-13484095Y36438571D01*
X-13674571Y36438571D01*
X-13769809Y36390952D01*
X-13817428Y36343333D01*
X-13865047Y36248095D01*
X-14293619Y37057619D02*
X-14293619Y37152857D01*
X-14246000Y37248095D01*
X-14198380Y37295714D01*
X-14103142Y37343333D01*
X-13912666Y37390952D01*
X-13674571Y37390952D01*
X-13484095Y37343333D01*
X-13388857Y37295714D01*
X-13341238Y37248095D01*
X-13293619Y37152857D01*
X-13293619Y37057619D01*
X-13341238Y36962380D01*
X-13388857Y36914761D01*
X-13484095Y36867142D01*
X-13674571Y36819523D01*
X-13912666Y36819523D01*
X-14103142Y36867142D01*
X-14198380Y36914761D01*
X-14246000Y36962380D01*
X-14293619Y37057619D01*
X-13388857Y37819523D02*
X-13341238Y37867142D01*
X-13293619Y37819523D01*
X-13341238Y37771904D01*
X-13388857Y37819523D01*
X-13293619Y37819523D01*
X-14293619Y38486190D02*
X-14293619Y38581428D01*
X-14246000Y38676666D01*
X-14198380Y38724285D01*
X-14103142Y38771904D01*
X-13912666Y38819523D01*
X-13674571Y38819523D01*
X-13484095Y38771904D01*
X-13388857Y38724285D01*
X-13341238Y38676666D01*
X-13293619Y38581428D01*
X-13293619Y38486190D01*
X-13341238Y38390952D01*
X-13388857Y38343333D01*
X-13484095Y38295714D01*
X-13674571Y38248095D01*
X-13912666Y38248095D01*
X-14103142Y38295714D01*
X-14198380Y38343333D01*
X-14246000Y38390952D01*
X-14293619Y38486190D01*
X-14293619Y39438571D02*
X-14293619Y39533809D01*
X-14246000Y39629047D01*
X-14198380Y39676666D01*
X-14103142Y39724285D01*
X-13912666Y39771904D01*
X-13674571Y39771904D01*
X-13484095Y39724285D01*
X-13388857Y39676666D01*
X-13341238Y39629047D01*
X-13293619Y39533809D01*
X-13293619Y39438571D01*
X-13341238Y39343333D01*
X-13388857Y39295714D01*
X-13484095Y39248095D01*
X-13674571Y39200476D01*
X-13912666Y39200476D01*
X-14103142Y39248095D01*
X-14198380Y39295714D01*
X-14246000Y39343333D01*
X-14293619Y39438571D01*
X-14293619Y40390952D02*
X-14293619Y40486190D01*
X-14246000Y40581428D01*
X-14198380Y40629047D01*
X-14103142Y40676666D01*
X-13912666Y40724285D01*
X-13674571Y40724285D01*
X-13484095Y40676666D01*
X-13388857Y40629047D01*
X-13341238Y40581428D01*
X-13293619Y40486190D01*
X-13293619Y40390952D01*
X-13341238Y40295714D01*
X-13388857Y40248095D01*
X-13484095Y40200476D01*
X-13674571Y40152857D01*
X-13912666Y40152857D01*
X-14103142Y40200476D01*
X-14198380Y40248095D01*
X-14246000Y40295714D01*
X-14293619Y40390952D01*
X-13293619Y41914761D02*
X-13960285Y41914761D01*
X-13865047Y41914761D02*
X-13912666Y41962380D01*
X-13960285Y42057619D01*
X-13960285Y42200476D01*
X-13912666Y42295714D01*
X-13817428Y42343333D01*
X-13293619Y42343333D01*
X-13817428Y42343333D02*
X-13912666Y42390952D01*
X-13960285Y42486190D01*
X-13960285Y42629047D01*
X-13912666Y42724285D01*
X-13817428Y42771904D01*
X-13293619Y42771904D01*
X-13293619Y43248095D02*
X-13960285Y43248095D01*
X-13865047Y43248095D02*
X-13912666Y43295714D01*
X-13960285Y43390952D01*
X-13960285Y43533809D01*
X-13912666Y43629047D01*
X-13817428Y43676666D01*
X-13293619Y43676666D01*
X-13817428Y43676666D02*
X-13912666Y43724285D01*
X-13960285Y43819523D01*
X-13960285Y43962380D01*
X-13912666Y44057619D01*
X-13817428Y44105238D01*
X-13293619Y44105238D01*
X-12446000Y10000D02*
X-12446000Y80010000D01*
X0Y10000D02*
X-13032421Y10000D01*
X0Y80010000D02*
X-13032421Y80010000D01*
X-12446000Y80010000D02*
X-11859579Y78883496D01*
X-12446000Y80010000D02*
X-13032421Y78883496D01*
X-12446000Y10000D02*
X-11859579Y1136504D01*
X-12446000Y10000D02*
X-13032421Y1136504D01*
X39976190Y-8469380D02*
X40642857Y-8469380D01*
X40214285Y-9469380D01*
X41500000Y-8469380D02*
X41023809Y-8469380D01*
X40976190Y-8945571D01*
X41023809Y-8897952D01*
X41119047Y-8850333D01*
X41357142Y-8850333D01*
X41452380Y-8897952D01*
X41500000Y-8945571D01*
X41547619Y-9040809D01*
X41547619Y-9278904D01*
X41500000Y-9374142D01*
X41452380Y-9421761D01*
X41357142Y-9469380D01*
X41119047Y-9469380D01*
X41023809Y-9421761D01*
X40976190Y-9374142D01*
X42738095Y-9469380D02*
X42738095Y-8802714D01*
X42738095Y-8897952D02*
X42785714Y-8850333D01*
X42880952Y-8802714D01*
X43023809Y-8802714D01*
X43119047Y-8850333D01*
X43166666Y-8945571D01*
X43166666Y-9469380D01*
X43166666Y-8945571D02*
X43214285Y-8850333D01*
X43309523Y-8802714D01*
X43452380Y-8802714D01*
X43547619Y-8850333D01*
X43595238Y-8945571D01*
X43595238Y-9469380D01*
X44071428Y-9469380D02*
X44071428Y-8802714D01*
X44071428Y-8897952D02*
X44119047Y-8850333D01*
X44214285Y-8802714D01*
X44357142Y-8802714D01*
X44452380Y-8850333D01*
X44500000Y-8945571D01*
X44500000Y-9469380D01*
X44500000Y-8945571D02*
X44547619Y-8850333D01*
X44642857Y-8802714D01*
X44785714Y-8802714D01*
X44880952Y-8850333D01*
X44928571Y-8945571D01*
X44928571Y-9469380D01*
D11*
X5000000Y-7747000D02*
X80000000Y-7747000D01*
X5000000Y5010000D02*
X5000000Y-8333421D01*
X80000000Y5010000D02*
X80000000Y-8333421D01*
X80000000Y-7747000D02*
X78873496Y-8333421D01*
X80000000Y-7747000D02*
X78873496Y-7160579D01*
X5000000Y-7747000D02*
X6126504Y-8333421D01*
X5000000Y-7747000D02*
X6126504Y-7160579D01*
D10*
X40214285Y-21851952D02*
X40119047Y-21804333D01*
X40071428Y-21756714D01*
X40023809Y-21661476D01*
X40023809Y-21613857D01*
X40071428Y-21518619D01*
X40119047Y-21471000D01*
X40214285Y-21423380D01*
X40404761Y-21423380D01*
X40500000Y-21471000D01*
X40547619Y-21518619D01*
X40595238Y-21613857D01*
X40595238Y-21661476D01*
X40547619Y-21756714D01*
X40500000Y-21804333D01*
X40404761Y-21851952D01*
X40214285Y-21851952D01*
X40119047Y-21899571D01*
X40071428Y-21947190D01*
X40023809Y-22042428D01*
X40023809Y-22232904D01*
X40071428Y-22328142D01*
X40119047Y-22375761D01*
X40214285Y-22423380D01*
X40404761Y-22423380D01*
X40500000Y-22375761D01*
X40547619Y-22328142D01*
X40595238Y-22232904D01*
X40595238Y-22042428D01*
X40547619Y-21947190D01*
X40500000Y-21899571D01*
X40404761Y-21851952D01*
X41500000Y-21423380D02*
X41023809Y-21423380D01*
X40976190Y-21899571D01*
X41023809Y-21851952D01*
X41119047Y-21804333D01*
X41357142Y-21804333D01*
X41452380Y-21851952D01*
X41500000Y-21899571D01*
X41547619Y-21994809D01*
X41547619Y-22232904D01*
X41500000Y-22328142D01*
X41452380Y-22375761D01*
X41357142Y-22423380D01*
X41119047Y-22423380D01*
X41023809Y-22375761D01*
X40976190Y-22328142D01*
X42738095Y-22423380D02*
X42738095Y-21756714D01*
X42738095Y-21851952D02*
X42785714Y-21804333D01*
X42880952Y-21756714D01*
X43023809Y-21756714D01*
X43119047Y-21804333D01*
X43166666Y-21899571D01*
X43166666Y-22423380D01*
X43166666Y-21899571D02*
X43214285Y-21804333D01*
X43309523Y-21756714D01*
X43452380Y-21756714D01*
X43547619Y-21804333D01*
X43595238Y-21899571D01*
X43595238Y-22423380D01*
X44071428Y-22423380D02*
X44071428Y-21756714D01*
X44071428Y-21851952D02*
X44119047Y-21804333D01*
X44214285Y-21756714D01*
X44357142Y-21756714D01*
X44452380Y-21804333D01*
X44500000Y-21899571D01*
X44500000Y-22423380D01*
X44500000Y-21899571D02*
X44547619Y-21804333D01*
X44642857Y-21756714D01*
X44785714Y-21756714D01*
X44880952Y-21804333D01*
X44928571Y-21899571D01*
X44928571Y-22423380D01*
D11*
X85000000Y-20701000D02*
X0Y-20701000D01*
X85000000Y10000D02*
X85000000Y-21287421D01*
X0Y10000D02*
X0Y-21287421D01*
X0Y-20701000D02*
X1126504Y-20114579D01*
X0Y-20701000D02*
X1126504Y-21287421D01*
X85000000Y-20701000D02*
X83873496Y-20114579D01*
X85000000Y-20701000D02*
X83873496Y-21287421D01*
D10*
X1023809Y-8596380D02*
X547619Y-8596380D01*
X500000Y-9072571D01*
X547619Y-9024952D01*
X642857Y-8977333D01*
X880952Y-8977333D01*
X976190Y-9024952D01*
X1023809Y-9072571D01*
X1071428Y-9167809D01*
X1071428Y-9405904D01*
X1023809Y-9501142D01*
X976190Y-9548761D01*
X880952Y-9596380D01*
X642857Y-9596380D01*
X547619Y-9548761D01*
X500000Y-9501142D01*
X2261904Y-9596380D02*
X2261904Y-8929714D01*
X2261904Y-9024952D02*
X2309523Y-8977333D01*
X2404761Y-8929714D01*
X2547619Y-8929714D01*
X2642857Y-8977333D01*
X2690476Y-9072571D01*
X2690476Y-9596380D01*
X2690476Y-9072571D02*
X2738095Y-8977333D01*
X2833333Y-8929714D01*
X2976190Y-8929714D01*
X3071428Y-8977333D01*
X3119047Y-9072571D01*
X3119047Y-9596380D01*
X3595238Y-9596380D02*
X3595238Y-8929714D01*
X3595238Y-9024952D02*
X3642857Y-8977333D01*
X3738095Y-8929714D01*
X3880952Y-8929714D01*
X3976190Y-8977333D01*
X4023809Y-9072571D01*
X4023809Y-9596380D01*
X4023809Y-9072571D02*
X4071428Y-8977333D01*
X4166666Y-8929714D01*
X4309523Y-8929714D01*
X4404761Y-8977333D01*
X4452380Y-9072571D01*
X4452380Y-9596380D01*
D11*
X5000000Y-7874000D02*
X0Y-7874000D01*
X5000000Y5010000D02*
X5000000Y-8460421D01*
X0Y5010000D02*
X0Y-8460421D01*
X0Y-7874000D02*
X1126504Y-7287579D01*
X0Y-7874000D02*
X1126504Y-8460421D01*
X5000000Y-7874000D02*
X3873496Y-7287579D01*
X5000000Y-7874000D02*
X3873496Y-8460421D01*
M02*
