G04 #@! TF.GenerationSoftware,KiCad,Pcbnew,5.1.6+dfsg1-1~bpo9+1*
G04 #@! TF.CreationDate,2022-04-04T20:49:37+02:00*
G04 #@! TF.ProjectId,sdrtrx-traco,73647274-7278-42d7-9472-61636f2e6b69,1*
G04 #@! TF.SameCoordinates,Original*
G04 #@! TF.FileFunction,Copper,L1,Top*
G04 #@! TF.FilePolarity,Positive*
%FSLAX46Y46*%
G04 Gerber Fmt 4.6, Leading zero omitted, Abs format (unit mm)*
G04 Created by KiCad (PCBNEW 5.1.6+dfsg1-1~bpo9+1) date 2022-04-04 20:49:37*
%MOMM*%
%LPD*%
G01*
G04 APERTURE LIST*
G04 #@! TA.AperFunction,ComponentPad*
%ADD10C,2.000000*%
G04 #@! TD*
G04 #@! TA.AperFunction,ComponentPad*
%ADD11R,2.000000X2.000000*%
G04 #@! TD*
G04 #@! TA.AperFunction,SMDPad,CuDef*
%ADD12R,2.790000X1.190000*%
G04 #@! TD*
G04 #@! TA.AperFunction,ComponentPad*
%ADD13C,5.080000*%
G04 #@! TD*
G04 #@! TA.AperFunction,ComponentPad*
%ADD14O,2.500000X6.000001*%
G04 #@! TD*
G04 #@! TA.AperFunction,ComponentPad*
%ADD15R,2.500000X6.000000*%
G04 #@! TD*
G04 #@! TA.AperFunction,ComponentPad*
%ADD16O,2.500000X6.000000*%
G04 #@! TD*
G04 #@! TA.AperFunction,ComponentPad*
%ADD17C,6.400000*%
G04 #@! TD*
G04 #@! TA.AperFunction,ViaPad*
%ADD18C,0.800000*%
G04 #@! TD*
G04 #@! TA.AperFunction,Conductor*
%ADD19C,0.254000*%
G04 #@! TD*
G04 #@! TA.AperFunction,Conductor*
%ADD20C,1.016000*%
G04 #@! TD*
G04 #@! TA.AperFunction,Conductor*
%ADD21C,2.540000*%
G04 #@! TD*
G04 #@! TA.AperFunction,Conductor*
%ADD22C,1.524000*%
G04 #@! TD*
G04 APERTURE END LIST*
G04 #@! TA.AperFunction,SMDPad,CuDef*
G36*
G01*
X11879000Y48760200D02*
X8644200Y48760200D01*
G75*
G02*
X8461600Y48942800I0J182600D01*
G01*
X8461600Y50777600D01*
G75*
G02*
X8644200Y50960200I182600J0D01*
G01*
X11879000Y50960200D01*
G75*
G02*
X12061600Y50777600I0J-182600D01*
G01*
X12061600Y48942800D01*
G75*
G02*
X11879000Y48760200I-182600J0D01*
G01*
G37*
G04 #@! TD.AperFunction*
G04 #@! TA.AperFunction,SMDPad,CuDef*
G36*
G01*
X11879000Y38346200D02*
X8644200Y38346200D01*
G75*
G02*
X8461600Y38528800I0J182600D01*
G01*
X8461600Y40363600D01*
G75*
G02*
X8644200Y40546200I182600J0D01*
G01*
X11879000Y40546200D01*
G75*
G02*
X12061600Y40363600I0J-182600D01*
G01*
X12061600Y38528800D01*
G75*
G02*
X11879000Y38346200I-182600J0D01*
G01*
G37*
G04 #@! TD.AperFunction*
G04 #@! TA.AperFunction,SMDPad,CuDef*
G36*
G01*
X39666600Y38511300D02*
X36431800Y38511300D01*
G75*
G02*
X36249200Y38693900I0J182600D01*
G01*
X36249200Y40528700D01*
G75*
G02*
X36431800Y40711300I182600J0D01*
G01*
X39666600Y40711300D01*
G75*
G02*
X39849200Y40528700I0J-182600D01*
G01*
X39849200Y38693900D01*
G75*
G02*
X39666600Y38511300I-182600J0D01*
G01*
G37*
G04 #@! TD.AperFunction*
G04 #@! TA.AperFunction,SMDPad,CuDef*
G36*
G01*
X39666600Y28097300D02*
X36431800Y28097300D01*
G75*
G02*
X36249200Y28279900I0J182600D01*
G01*
X36249200Y30114700D01*
G75*
G02*
X36431800Y30297300I182600J0D01*
G01*
X39666600Y30297300D01*
G75*
G02*
X39849200Y30114700I0J-182600D01*
G01*
X39849200Y28279900D01*
G75*
G02*
X39666600Y28097300I-182600J0D01*
G01*
G37*
G04 #@! TD.AperFunction*
G04 #@! TA.AperFunction,SMDPad,CuDef*
G36*
G01*
X53700100Y48849100D02*
X50465300Y48849100D01*
G75*
G02*
X50282700Y49031700I0J182600D01*
G01*
X50282700Y50866500D01*
G75*
G02*
X50465300Y51049100I182600J0D01*
G01*
X53700100Y51049100D01*
G75*
G02*
X53882700Y50866500I0J-182600D01*
G01*
X53882700Y49031700D01*
G75*
G02*
X53700100Y48849100I-182600J0D01*
G01*
G37*
G04 #@! TD.AperFunction*
G04 #@! TA.AperFunction,SMDPad,CuDef*
G36*
G01*
X53700100Y38435100D02*
X50465300Y38435100D01*
G75*
G02*
X50282700Y38617700I0J182600D01*
G01*
X50282700Y40452500D01*
G75*
G02*
X50465300Y40635100I182600J0D01*
G01*
X53700100Y40635100D01*
G75*
G02*
X53882700Y40452500I0J-182600D01*
G01*
X53882700Y38617700D01*
G75*
G02*
X53700100Y38435100I-182600J0D01*
G01*
G37*
G04 #@! TD.AperFunction*
G04 #@! TA.AperFunction,SMDPad,CuDef*
G36*
G01*
X81741700Y38206500D02*
X78506900Y38206500D01*
G75*
G02*
X78324300Y38389100I0J182600D01*
G01*
X78324300Y40223900D01*
G75*
G02*
X78506900Y40406500I182600J0D01*
G01*
X81741700Y40406500D01*
G75*
G02*
X81924300Y40223900I0J-182600D01*
G01*
X81924300Y38389100D01*
G75*
G02*
X81741700Y38206500I-182600J0D01*
G01*
G37*
G04 #@! TD.AperFunction*
G04 #@! TA.AperFunction,SMDPad,CuDef*
G36*
G01*
X81741700Y27792500D02*
X78506900Y27792500D01*
G75*
G02*
X78324300Y27975100I0J182600D01*
G01*
X78324300Y29809900D01*
G75*
G02*
X78506900Y29992500I182600J0D01*
G01*
X81741700Y29992500D01*
G75*
G02*
X81924300Y29809900I0J-182600D01*
G01*
X81924300Y27975100D01*
G75*
G02*
X81741700Y27792500I-182600J0D01*
G01*
G37*
G04 #@! TD.AperFunction*
G04 #@! TA.AperFunction,SMDPad,CuDef*
G36*
G01*
X74007400Y38270000D02*
X70772600Y38270000D01*
G75*
G02*
X70590000Y38452600I0J182600D01*
G01*
X70590000Y40287400D01*
G75*
G02*
X70772600Y40470000I182600J0D01*
G01*
X74007400Y40470000D01*
G75*
G02*
X74190000Y40287400I0J-182600D01*
G01*
X74190000Y38452600D01*
G75*
G02*
X74007400Y38270000I-182600J0D01*
G01*
G37*
G04 #@! TD.AperFunction*
G04 #@! TA.AperFunction,SMDPad,CuDef*
G36*
G01*
X74007400Y27856000D02*
X70772600Y27856000D01*
G75*
G02*
X70590000Y28038600I0J182600D01*
G01*
X70590000Y29873400D01*
G75*
G02*
X70772600Y30056000I182600J0D01*
G01*
X74007400Y30056000D01*
G75*
G02*
X74190000Y29873400I0J-182600D01*
G01*
X74190000Y28038600D01*
G75*
G02*
X74007400Y27856000I-182600J0D01*
G01*
G37*
G04 #@! TD.AperFunction*
G04 #@! TA.AperFunction,SMDPad,CuDef*
G36*
G01*
X28100600Y30183000D02*
X31335400Y30183000D01*
G75*
G02*
X31518000Y30000400I0J-182600D01*
G01*
X31518000Y28165600D01*
G75*
G02*
X31335400Y27983000I-182600J0D01*
G01*
X28100600Y27983000D01*
G75*
G02*
X27918000Y28165600I0J182600D01*
G01*
X27918000Y30000400D01*
G75*
G02*
X28100600Y30183000I182600J0D01*
G01*
G37*
G04 #@! TD.AperFunction*
G04 #@! TA.AperFunction,SMDPad,CuDef*
G36*
G01*
X28100600Y40597000D02*
X31335400Y40597000D01*
G75*
G02*
X31518000Y40414400I0J-182600D01*
G01*
X31518000Y38579600D01*
G75*
G02*
X31335400Y38397000I-182600J0D01*
G01*
X28100600Y38397000D01*
G75*
G02*
X27918000Y38579600I0J182600D01*
G01*
X27918000Y40414400D01*
G75*
G02*
X28100600Y40597000I182600J0D01*
G01*
G37*
G04 #@! TD.AperFunction*
D10*
X77393800Y68627000D03*
D11*
X77393800Y63627000D03*
D10*
X35255200Y68677800D03*
D11*
X35255200Y63677800D03*
G04 #@! TA.AperFunction,SMDPad,CuDef*
G36*
G01*
X47430000Y70879000D02*
X45280000Y70879000D01*
G75*
G02*
X45030000Y71129000I0J250000D01*
G01*
X45030000Y72054000D01*
G75*
G02*
X45280000Y72304000I250000J0D01*
G01*
X47430000Y72304000D01*
G75*
G02*
X47680000Y72054000I0J-250000D01*
G01*
X47680000Y71129000D01*
G75*
G02*
X47430000Y70879000I-250000J0D01*
G01*
G37*
G04 #@! TD.AperFunction*
G04 #@! TA.AperFunction,SMDPad,CuDef*
G36*
G01*
X47430000Y67904000D02*
X45280000Y67904000D01*
G75*
G02*
X45030000Y68154000I0J250000D01*
G01*
X45030000Y69079000D01*
G75*
G02*
X45280000Y69329000I250000J0D01*
G01*
X47430000Y69329000D01*
G75*
G02*
X47680000Y69079000I0J-250000D01*
G01*
X47680000Y68154000D01*
G75*
G02*
X47430000Y67904000I-250000J0D01*
G01*
G37*
G04 #@! TD.AperFunction*
G04 #@! TA.AperFunction,SMDPad,CuDef*
G36*
G01*
X5012000Y71133000D02*
X2862000Y71133000D01*
G75*
G02*
X2612000Y71383000I0J250000D01*
G01*
X2612000Y72308000D01*
G75*
G02*
X2862000Y72558000I250000J0D01*
G01*
X5012000Y72558000D01*
G75*
G02*
X5262000Y72308000I0J-250000D01*
G01*
X5262000Y71383000D01*
G75*
G02*
X5012000Y71133000I-250000J0D01*
G01*
G37*
G04 #@! TD.AperFunction*
G04 #@! TA.AperFunction,SMDPad,CuDef*
G36*
G01*
X5012000Y68158000D02*
X2862000Y68158000D01*
G75*
G02*
X2612000Y68408000I0J250000D01*
G01*
X2612000Y69333000D01*
G75*
G02*
X2862000Y69583000I250000J0D01*
G01*
X5012000Y69583000D01*
G75*
G02*
X5262000Y69333000I0J-250000D01*
G01*
X5262000Y68408000D01*
G75*
G02*
X5012000Y68158000I-250000J0D01*
G01*
G37*
G04 #@! TD.AperFunction*
G04 #@! TA.AperFunction,SMDPad,CuDef*
G36*
G01*
X55670000Y34500000D02*
X55670000Y32000000D01*
G75*
G02*
X55420000Y31750000I-250000J0D01*
G01*
X53820000Y31750000D01*
G75*
G02*
X53570000Y32000000I0J250000D01*
G01*
X53570000Y34500000D01*
G75*
G02*
X53820000Y34750000I250000J0D01*
G01*
X55420000Y34750000D01*
G75*
G02*
X55670000Y34500000I0J-250000D01*
G01*
G37*
G04 #@! TD.AperFunction*
G04 #@! TA.AperFunction,SMDPad,CuDef*
G36*
G01*
X63270000Y34500000D02*
X63270000Y32000000D01*
G75*
G02*
X63020000Y31750000I-250000J0D01*
G01*
X61420000Y31750000D01*
G75*
G02*
X61170000Y32000000I0J250000D01*
G01*
X61170000Y34500000D01*
G75*
G02*
X61420000Y34750000I250000J0D01*
G01*
X63020000Y34750000D01*
G75*
G02*
X63270000Y34500000I0J-250000D01*
G01*
G37*
G04 #@! TD.AperFunction*
G04 #@! TA.AperFunction,SMDPad,CuDef*
G36*
G01*
X57570000Y30950000D02*
X57570000Y30050000D01*
G75*
G02*
X57370000Y29850000I-200000J0D01*
G01*
X56970000Y29850000D01*
G75*
G02*
X56770000Y30050000I0J200000D01*
G01*
X56770000Y30950000D01*
G75*
G02*
X56970000Y31150000I200000J0D01*
G01*
X57370000Y31150000D01*
G75*
G02*
X57570000Y30950000I0J-200000D01*
G01*
G37*
G04 #@! TD.AperFunction*
G04 #@! TA.AperFunction,SMDPad,CuDef*
G36*
G01*
X58820000Y30950000D02*
X58820000Y30050000D01*
G75*
G02*
X58620000Y29850000I-200000J0D01*
G01*
X58220000Y29850000D01*
G75*
G02*
X58020000Y30050000I0J200000D01*
G01*
X58020000Y30950000D01*
G75*
G02*
X58220000Y31150000I200000J0D01*
G01*
X58620000Y31150000D01*
G75*
G02*
X58820000Y30950000I0J-200000D01*
G01*
G37*
G04 #@! TD.AperFunction*
G04 #@! TA.AperFunction,SMDPad,CuDef*
G36*
G01*
X60070000Y30950000D02*
X60070000Y30050000D01*
G75*
G02*
X59870000Y29850000I-200000J0D01*
G01*
X59470000Y29850000D01*
G75*
G02*
X59270000Y30050000I0J200000D01*
G01*
X59270000Y30950000D01*
G75*
G02*
X59470000Y31150000I200000J0D01*
G01*
X59870000Y31150000D01*
G75*
G02*
X60070000Y30950000I0J-200000D01*
G01*
G37*
G04 #@! TD.AperFunction*
D12*
X22286500Y21971000D03*
X27116500Y24511000D03*
X22286500Y27051000D03*
X53846000Y21272500D03*
X58676000Y23812500D03*
X53846000Y26352500D03*
X11999500Y21971000D03*
X16829500Y24511000D03*
X11999500Y27051000D03*
G04 #@! TA.AperFunction,SMDPad,CuDef*
G36*
G01*
X28506000Y17220250D02*
X28506000Y16307750D01*
G75*
G02*
X28262250Y16064000I-243750J0D01*
G01*
X27774750Y16064000D01*
G75*
G02*
X27531000Y16307750I0J243750D01*
G01*
X27531000Y17220250D01*
G75*
G02*
X27774750Y17464000I243750J0D01*
G01*
X28262250Y17464000D01*
G75*
G02*
X28506000Y17220250I0J-243750D01*
G01*
G37*
G04 #@! TD.AperFunction*
G04 #@! TA.AperFunction,SMDPad,CuDef*
G36*
G01*
X30381000Y17220250D02*
X30381000Y16307750D01*
G75*
G02*
X30137250Y16064000I-243750J0D01*
G01*
X29649750Y16064000D01*
G75*
G02*
X29406000Y16307750I0J243750D01*
G01*
X29406000Y17220250D01*
G75*
G02*
X29649750Y17464000I243750J0D01*
G01*
X30137250Y17464000D01*
G75*
G02*
X30381000Y17220250I0J-243750D01*
G01*
G37*
G04 #@! TD.AperFunction*
G04 #@! TA.AperFunction,SMDPad,CuDef*
G36*
G01*
X70797000Y16839250D02*
X70797000Y15926750D01*
G75*
G02*
X70553250Y15683000I-243750J0D01*
G01*
X70065750Y15683000D01*
G75*
G02*
X69822000Y15926750I0J243750D01*
G01*
X69822000Y16839250D01*
G75*
G02*
X70065750Y17083000I243750J0D01*
G01*
X70553250Y17083000D01*
G75*
G02*
X70797000Y16839250I0J-243750D01*
G01*
G37*
G04 #@! TD.AperFunction*
G04 #@! TA.AperFunction,SMDPad,CuDef*
G36*
G01*
X72672000Y16839250D02*
X72672000Y15926750D01*
G75*
G02*
X72428250Y15683000I-243750J0D01*
G01*
X71940750Y15683000D01*
G75*
G02*
X71697000Y15926750I0J243750D01*
G01*
X71697000Y16839250D01*
G75*
G02*
X71940750Y17083000I243750J0D01*
G01*
X72428250Y17083000D01*
G75*
G02*
X72672000Y16839250I0J-243750D01*
G01*
G37*
G04 #@! TD.AperFunction*
G04 #@! TA.AperFunction,SMDPad,CuDef*
G36*
G01*
X25469000Y16307750D02*
X25469000Y17220250D01*
G75*
G02*
X25712750Y17464000I243750J0D01*
G01*
X26200250Y17464000D01*
G75*
G02*
X26444000Y17220250I0J-243750D01*
G01*
X26444000Y16307750D01*
G75*
G02*
X26200250Y16064000I-243750J0D01*
G01*
X25712750Y16064000D01*
G75*
G02*
X25469000Y16307750I0J243750D01*
G01*
G37*
G04 #@! TD.AperFunction*
G04 #@! TA.AperFunction,SMDPad,CuDef*
G36*
G01*
X23594000Y16307750D02*
X23594000Y17220250D01*
G75*
G02*
X23837750Y17464000I243750J0D01*
G01*
X24325250Y17464000D01*
G75*
G02*
X24569000Y17220250I0J-243750D01*
G01*
X24569000Y16307750D01*
G75*
G02*
X24325250Y16064000I-243750J0D01*
G01*
X23837750Y16064000D01*
G75*
G02*
X23594000Y16307750I0J243750D01*
G01*
G37*
G04 #@! TD.AperFunction*
G04 #@! TA.AperFunction,SMDPad,CuDef*
G36*
G01*
X68014000Y15926750D02*
X68014000Y16839250D01*
G75*
G02*
X68257750Y17083000I243750J0D01*
G01*
X68745250Y17083000D01*
G75*
G02*
X68989000Y16839250I0J-243750D01*
G01*
X68989000Y15926750D01*
G75*
G02*
X68745250Y15683000I-243750J0D01*
G01*
X68257750Y15683000D01*
G75*
G02*
X68014000Y15926750I0J243750D01*
G01*
G37*
G04 #@! TD.AperFunction*
G04 #@! TA.AperFunction,SMDPad,CuDef*
G36*
G01*
X66139000Y15926750D02*
X66139000Y16839250D01*
G75*
G02*
X66382750Y17083000I243750J0D01*
G01*
X66870250Y17083000D01*
G75*
G02*
X67114000Y16839250I0J-243750D01*
G01*
X67114000Y15926750D01*
G75*
G02*
X66870250Y15683000I-243750J0D01*
G01*
X66382750Y15683000D01*
G75*
G02*
X66139000Y15926750I0J243750D01*
G01*
G37*
G04 #@! TD.AperFunction*
D10*
X62705000Y73948000D03*
X62705000Y66548000D03*
X52705000Y73948000D03*
D11*
X52705000Y66548000D03*
G04 #@! TA.AperFunction,ComponentPad*
G36*
G01*
X44980000Y75455999D02*
X44980000Y77706001D01*
G75*
G02*
X45229999Y77956000I249999J0D01*
G01*
X47480001Y77956000D01*
G75*
G02*
X47730000Y77706001I0J-249999D01*
G01*
X47730000Y75455999D01*
G75*
G02*
X47480001Y75206000I-249999J0D01*
G01*
X45229999Y75206000D01*
G75*
G02*
X44980000Y75455999I0J249999D01*
G01*
G37*
G04 #@! TD.AperFunction*
G04 #@! TA.AperFunction,ComponentPad*
G36*
G01*
X44980000Y62755999D02*
X44980000Y65006001D01*
G75*
G02*
X45229999Y65256000I249999J0D01*
G01*
X47480001Y65256000D01*
G75*
G02*
X47730000Y65006001I0J-249999D01*
G01*
X47730000Y62755999D01*
G75*
G02*
X47480001Y62506000I-249999J0D01*
G01*
X45229999Y62506000D01*
G75*
G02*
X44980000Y62755999I0J249999D01*
G01*
G37*
G04 #@! TD.AperFunction*
D12*
X65403000Y21145500D03*
X70233000Y23685500D03*
X65403000Y26225500D03*
D13*
X80264000Y14351000D03*
X47244000Y54991000D03*
D14*
X53594000Y11811000D03*
X73914000Y11811000D03*
D15*
X71374000Y57531000D03*
D16*
X66294000Y57531000D03*
D14*
X56134000Y57531000D03*
X63754000Y11811000D03*
D13*
X38100000Y14351000D03*
X5080000Y54991000D03*
D14*
X11430000Y11811000D03*
X31750000Y11811000D03*
D15*
X29210000Y57531000D03*
D16*
X24130000Y57531000D03*
D14*
X13970000Y57531000D03*
X21590000Y11811000D03*
G04 #@! TA.AperFunction,SMDPad,CuDef*
G36*
G01*
X13760000Y34817500D02*
X13760000Y32317500D01*
G75*
G02*
X13510000Y32067500I-250000J0D01*
G01*
X11910000Y32067500D01*
G75*
G02*
X11660000Y32317500I0J250000D01*
G01*
X11660000Y34817500D01*
G75*
G02*
X11910000Y35067500I250000J0D01*
G01*
X13510000Y35067500D01*
G75*
G02*
X13760000Y34817500I0J-250000D01*
G01*
G37*
G04 #@! TD.AperFunction*
G04 #@! TA.AperFunction,SMDPad,CuDef*
G36*
G01*
X21360000Y34817500D02*
X21360000Y32317500D01*
G75*
G02*
X21110000Y32067500I-250000J0D01*
G01*
X19510000Y32067500D01*
G75*
G02*
X19260000Y32317500I0J250000D01*
G01*
X19260000Y34817500D01*
G75*
G02*
X19510000Y35067500I250000J0D01*
G01*
X21110000Y35067500D01*
G75*
G02*
X21360000Y34817500I0J-250000D01*
G01*
G37*
G04 #@! TD.AperFunction*
G04 #@! TA.AperFunction,SMDPad,CuDef*
G36*
G01*
X15660000Y31267500D02*
X15660000Y30367500D01*
G75*
G02*
X15460000Y30167500I-200000J0D01*
G01*
X15060000Y30167500D01*
G75*
G02*
X14860000Y30367500I0J200000D01*
G01*
X14860000Y31267500D01*
G75*
G02*
X15060000Y31467500I200000J0D01*
G01*
X15460000Y31467500D01*
G75*
G02*
X15660000Y31267500I0J-200000D01*
G01*
G37*
G04 #@! TD.AperFunction*
G04 #@! TA.AperFunction,SMDPad,CuDef*
G36*
G01*
X16910000Y31267500D02*
X16910000Y30367500D01*
G75*
G02*
X16710000Y30167500I-200000J0D01*
G01*
X16310000Y30167500D01*
G75*
G02*
X16110000Y30367500I0J200000D01*
G01*
X16110000Y31267500D01*
G75*
G02*
X16310000Y31467500I200000J0D01*
G01*
X16710000Y31467500D01*
G75*
G02*
X16910000Y31267500I0J-200000D01*
G01*
G37*
G04 #@! TD.AperFunction*
G04 #@! TA.AperFunction,SMDPad,CuDef*
G36*
G01*
X18160000Y31267500D02*
X18160000Y30367500D01*
G75*
G02*
X17960000Y30167500I-200000J0D01*
G01*
X17560000Y30167500D01*
G75*
G02*
X17360000Y30367500I0J200000D01*
G01*
X17360000Y31267500D01*
G75*
G02*
X17560000Y31467500I200000J0D01*
G01*
X17960000Y31467500D01*
G75*
G02*
X18160000Y31267500I0J-200000D01*
G01*
G37*
G04 #@! TD.AperFunction*
G04 #@! TA.AperFunction,ComponentPad*
G36*
G01*
X20464999Y5820000D02*
X22715001Y5820000D01*
G75*
G02*
X22965000Y5570001I0J-249999D01*
G01*
X22965000Y3319999D01*
G75*
G02*
X22715001Y3070000I-249999J0D01*
G01*
X20464999Y3070000D01*
G75*
G02*
X20215000Y3319999I0J249999D01*
G01*
X20215000Y5570001D01*
G75*
G02*
X20464999Y5820000I249999J0D01*
G01*
G37*
G04 #@! TD.AperFunction*
G04 #@! TA.AperFunction,ComponentPad*
G36*
G01*
X29227999Y5820000D02*
X31478001Y5820000D01*
G75*
G02*
X31728000Y5570001I0J-249999D01*
G01*
X31728000Y3319999D01*
G75*
G02*
X31478001Y3070000I-249999J0D01*
G01*
X29227999Y3070000D01*
G75*
G02*
X28978000Y3319999I0J249999D01*
G01*
X28978000Y5570001D01*
G75*
G02*
X29227999Y5820000I249999J0D01*
G01*
G37*
G04 #@! TD.AperFunction*
G04 #@! TA.AperFunction,ComponentPad*
G36*
G01*
X62628999Y5693000D02*
X64879001Y5693000D01*
G75*
G02*
X65129000Y5443001I0J-249999D01*
G01*
X65129000Y3192999D01*
G75*
G02*
X64879001Y2943000I-249999J0D01*
G01*
X62628999Y2943000D01*
G75*
G02*
X62379000Y3192999I0J249999D01*
G01*
X62379000Y5443001D01*
G75*
G02*
X62628999Y5693000I249999J0D01*
G01*
G37*
G04 #@! TD.AperFunction*
G04 #@! TA.AperFunction,ComponentPad*
G36*
G01*
X71264999Y5693000D02*
X73515001Y5693000D01*
G75*
G02*
X73765000Y5443001I0J-249999D01*
G01*
X73765000Y3192999D01*
G75*
G02*
X73515001Y2943000I-249999J0D01*
G01*
X71264999Y2943000D01*
G75*
G02*
X71015000Y3192999I0J249999D01*
G01*
X71015000Y5443001D01*
G75*
G02*
X71264999Y5693000I249999J0D01*
G01*
G37*
G04 #@! TD.AperFunction*
G04 #@! TA.AperFunction,ComponentPad*
G36*
G01*
X5312000Y77579001D02*
X5312000Y75328999D01*
G75*
G02*
X5062001Y75079000I-249999J0D01*
G01*
X2811999Y75079000D01*
G75*
G02*
X2562000Y75328999I0J249999D01*
G01*
X2562000Y77579001D01*
G75*
G02*
X2811999Y77829000I249999J0D01*
G01*
X5062001Y77829000D01*
G75*
G02*
X5312000Y77579001I0J-249999D01*
G01*
G37*
G04 #@! TD.AperFunction*
G04 #@! TA.AperFunction,ComponentPad*
G36*
G01*
X5312000Y64879001D02*
X5312000Y62628999D01*
G75*
G02*
X5062001Y62379000I-249999J0D01*
G01*
X2811999Y62379000D01*
G75*
G02*
X2562000Y62628999I0J249999D01*
G01*
X2562000Y64879001D01*
G75*
G02*
X2811999Y65129000I249999J0D01*
G01*
X5062001Y65129000D01*
G75*
G02*
X5312000Y64879001I0J-249999D01*
G01*
G37*
G04 #@! TD.AperFunction*
D10*
X20287000Y73694000D03*
X20287000Y66294000D03*
X10287000Y73694000D03*
D11*
X10287000Y66294000D03*
D17*
X80000000Y75010000D03*
X80000000Y5010000D03*
X30000000Y75010000D03*
X5000000Y5010000D03*
D18*
X57150000Y32385000D03*
X15430500Y32829500D03*
X77749400Y20764500D03*
X9994900Y35064700D03*
X46050200Y25387300D03*
X38049200Y25298400D03*
X15049500Y49936400D03*
X57061100Y50025300D03*
D19*
X20808000Y12339000D02*
X21590000Y11557000D01*
X21062000Y12085000D02*
X21590000Y11557000D01*
X24081500Y14302500D02*
X21590000Y11811000D01*
X24081500Y16764000D02*
X24081500Y14302500D01*
X63754000Y11811000D02*
X63754000Y14986000D01*
X65151000Y16383000D02*
X66626500Y16383000D01*
X63754000Y14986000D02*
X65151000Y16383000D01*
X63754000Y11557000D02*
X63353000Y11958000D01*
X58676000Y23812500D02*
X58676000Y14031500D01*
X60896500Y11811000D02*
X63754000Y11811000D01*
X58676000Y14031500D02*
X60896500Y11811000D01*
X57150000Y30520000D02*
X57170000Y30500000D01*
X57150000Y32385000D02*
X57150000Y30520000D01*
X16829500Y24511000D02*
X16829500Y14920500D01*
X19939000Y11811000D02*
X21590000Y11811000D01*
X16829500Y14920500D02*
X19939000Y11811000D01*
X15430500Y30988000D02*
X15260000Y30817500D01*
X15430500Y32829500D02*
X15430500Y30988000D01*
D20*
X80124300Y23139400D02*
X77749400Y20764500D01*
X80124300Y28892500D02*
X80124300Y23139400D01*
X9994900Y39179500D02*
X10261600Y39446200D01*
X9994900Y35064700D02*
X9994900Y39179500D01*
X52082700Y39535100D02*
X52082700Y37896800D01*
X46050200Y31864300D02*
X46050200Y25387300D01*
X52082700Y37896800D02*
X46050200Y31864300D01*
X38049200Y29197300D02*
X38049200Y25298400D01*
X31750000Y19685000D02*
X29718000Y21717000D01*
D19*
X29718000Y29083000D02*
X29718000Y25400000D01*
D21*
X31750000Y5842000D02*
X30353000Y4445000D01*
X31750000Y11557000D02*
X31750000Y5842000D01*
D19*
X29893500Y16764000D02*
X31496000Y16764000D01*
D20*
X31750000Y16510000D02*
X31750000Y19685000D01*
D19*
X31496000Y16764000D02*
X31750000Y16510000D01*
D20*
X31750000Y11557000D02*
X31750000Y16510000D01*
D19*
X17760000Y30817500D02*
X17760000Y29484000D01*
X18161000Y29083000D02*
X26098500Y29083000D01*
X17760000Y29484000D02*
X18161000Y29083000D01*
X26098500Y29083000D02*
X25908000Y29083000D01*
X29718000Y29083000D02*
X26098500Y29083000D01*
X29464000Y24511000D02*
X29718000Y24257000D01*
X27116500Y24511000D02*
X29464000Y24511000D01*
D20*
X29718000Y24257000D02*
X29718000Y29083000D01*
X29718000Y21717000D02*
X29718000Y24257000D01*
D19*
X68501500Y16383000D02*
X70309500Y16383000D01*
D20*
X73914000Y18669000D02*
X72390000Y20193000D01*
D19*
X67564000Y28956000D02*
X72390000Y28956000D01*
D21*
X73914000Y5842000D02*
X72390000Y4318000D01*
X73914000Y11557000D02*
X73914000Y5842000D01*
D19*
X72644000Y21590000D02*
X72390000Y21336000D01*
D20*
X72390000Y20193000D02*
X72390000Y21336000D01*
D19*
X73533000Y16383000D02*
X73914000Y16764000D01*
X72184500Y16383000D02*
X73533000Y16383000D01*
D20*
X73914000Y16764000D02*
X73914000Y18669000D01*
X73914000Y11557000D02*
X73914000Y16764000D01*
D19*
X72263000Y23685500D02*
X72390000Y23812500D01*
X70233000Y23685500D02*
X72263000Y23685500D01*
D20*
X72390000Y23812500D02*
X72390000Y28956000D01*
X72390000Y21336000D02*
X72390000Y23812500D01*
D19*
X59670000Y30500000D02*
X59670000Y29293500D01*
X60007500Y28956000D02*
X67564000Y28956000D01*
X59670000Y29293500D02*
X60007500Y28956000D01*
D20*
X14973300Y49860200D02*
X15049500Y49936400D01*
X10261600Y49860200D02*
X14973300Y49860200D01*
D19*
X22286500Y27051000D02*
X11999500Y27051000D01*
X11999500Y27051000D02*
X11999500Y28573000D01*
X11999500Y28573000D02*
X12573000Y29146500D01*
X12573000Y29146500D02*
X16129000Y29146500D01*
X16510000Y29527500D02*
X16510000Y30817500D01*
X16129000Y29146500D02*
X16510000Y29527500D01*
X11430000Y11811000D02*
X9398000Y11811000D01*
X9398000Y11811000D02*
X8572500Y12636500D01*
X8572500Y12636500D02*
X8572500Y25019000D01*
X10604500Y27051000D02*
X11999500Y27051000D01*
X8572500Y25019000D02*
X10604500Y27051000D01*
X53594000Y11811000D02*
X53594000Y16129000D01*
X53594000Y16129000D02*
X50482500Y19240500D01*
X50482500Y19240500D02*
X50482500Y24955500D01*
X51879500Y26352500D02*
X53846000Y26352500D01*
X50482500Y24955500D02*
X51879500Y26352500D01*
X65276000Y26352500D02*
X65403000Y26225500D01*
X53846000Y26352500D02*
X65276000Y26352500D01*
X53846000Y26352500D02*
X53846000Y27493500D01*
X53846000Y27493500D02*
X54610000Y28257500D01*
X54610000Y28257500D02*
X57848500Y28257500D01*
X58420000Y28829000D02*
X58420000Y30500000D01*
X57848500Y28257500D02*
X58420000Y28829000D01*
D20*
X10287000Y66294000D02*
X12954000Y66294000D01*
X12954000Y66294000D02*
X18669000Y60579000D01*
X18669000Y60579000D02*
X18669000Y47879000D01*
X27051000Y39497000D02*
X29718000Y39497000D01*
X18669000Y47879000D02*
X27051000Y39497000D01*
X72263000Y39497000D02*
X72390000Y39370000D01*
X72390000Y39370000D02*
X69850000Y39370000D01*
X69850000Y39370000D02*
X60198000Y49022000D01*
X60198000Y49022000D02*
X60198000Y60579000D01*
X54229000Y66548000D02*
X52705000Y66548000D01*
X60198000Y60579000D02*
X54229000Y66548000D01*
X52158900Y50025300D02*
X52082700Y49949100D01*
X57061100Y50025300D02*
X52158900Y50025300D01*
D19*
X28018500Y16764000D02*
X25956500Y16764000D01*
D22*
X24003000Y57404000D02*
X24130000Y57277000D01*
D21*
X20287000Y73694000D02*
X22572000Y73694000D01*
X22572000Y73694000D02*
X24130000Y72136000D01*
X24130000Y72136000D02*
X24130000Y66548000D01*
X24130000Y66548000D02*
X24130000Y57277000D01*
X35255200Y68677800D02*
X28063200Y68677800D01*
X24605000Y72136000D02*
X24130000Y72136000D01*
X28063200Y68677800D02*
X24605000Y72136000D01*
D20*
X38049200Y39611300D02*
X38049200Y41871900D01*
X29210000Y50711100D02*
X29210000Y57531000D01*
X38049200Y41871900D02*
X29210000Y50711100D01*
D21*
X35255200Y63677800D02*
X35255200Y59080400D01*
X33705800Y57531000D02*
X29210000Y57531000D01*
X35255200Y59080400D02*
X33705800Y57531000D01*
X63720000Y73948000D02*
X62705000Y73948000D01*
X66294000Y71374000D02*
X63720000Y73948000D01*
X66294000Y57277000D02*
X66294000Y71374000D01*
X66294000Y71374000D02*
X70840600Y71374000D01*
X73587600Y68627000D02*
X77393800Y68627000D01*
X70840600Y71374000D02*
X73587600Y68627000D01*
D20*
X80124300Y39306500D02*
X80124300Y42862500D01*
X71374000Y51612800D02*
X71374000Y57531000D01*
X80124300Y42862500D02*
X71374000Y51612800D01*
D21*
X77393800Y63627000D02*
X77393800Y59740800D01*
X75184000Y57531000D02*
X71374000Y57531000D01*
X77393800Y59740800D02*
X75184000Y57531000D01*
D19*
G36*
X12319000Y71247000D02*
G01*
X5898134Y71247000D01*
X5897000Y71313750D01*
X5738250Y71472500D01*
X4310000Y71472500D01*
X4310000Y71452500D01*
X3564000Y71452500D01*
X3564000Y71472500D01*
X2135750Y71472500D01*
X1977000Y71313750D01*
X1975866Y71247000D01*
X1651000Y71247000D01*
X1651000Y72558000D01*
X1973928Y72558000D01*
X1977000Y72377250D01*
X2135750Y72218500D01*
X3564000Y72218500D01*
X3564000Y73034250D01*
X4310000Y73034250D01*
X4310000Y72218500D01*
X5738250Y72218500D01*
X5897000Y72377250D01*
X5897632Y72414473D01*
X9534974Y72414473D01*
X9648302Y72180322D01*
X9955877Y72084803D01*
X10276178Y72051125D01*
X10596895Y72080582D01*
X10905703Y72172040D01*
X10925698Y72180322D01*
X11039026Y72414473D01*
X10287000Y73166498D01*
X9534974Y72414473D01*
X5897632Y72414473D01*
X5900072Y72558000D01*
X5887812Y72682482D01*
X5851502Y72802180D01*
X5792537Y72912494D01*
X5713185Y73009185D01*
X5616494Y73088537D01*
X5506180Y73147502D01*
X5386482Y73183812D01*
X5262000Y73196072D01*
X4468750Y73193000D01*
X4310000Y73034250D01*
X3564000Y73034250D01*
X3405250Y73193000D01*
X2612000Y73196072D01*
X2487518Y73183812D01*
X2367820Y73147502D01*
X2257506Y73088537D01*
X2160815Y73009185D01*
X2081463Y72912494D01*
X2022498Y72802180D01*
X1986188Y72682482D01*
X1973928Y72558000D01*
X1651000Y72558000D01*
X1651000Y73704822D01*
X8644125Y73704822D01*
X8673582Y73384105D01*
X8765040Y73075297D01*
X8773322Y73055302D01*
X9007473Y72941974D01*
X9759498Y73694000D01*
X10814502Y73694000D01*
X11566527Y72941974D01*
X11800678Y73055302D01*
X11896197Y73362877D01*
X11929875Y73683178D01*
X11900418Y74003895D01*
X11808960Y74312703D01*
X11800678Y74332698D01*
X11566527Y74446026D01*
X10814502Y73694000D01*
X9759498Y73694000D01*
X9007473Y74446026D01*
X8773322Y74332698D01*
X8677803Y74025123D01*
X8644125Y73704822D01*
X1651000Y73704822D01*
X1651000Y75079000D01*
X1923928Y75079000D01*
X1936188Y74954518D01*
X1972498Y74834820D01*
X2031463Y74724506D01*
X2110815Y74627815D01*
X2207506Y74548463D01*
X2317820Y74489498D01*
X2437518Y74453188D01*
X2562000Y74440928D01*
X3405250Y74444000D01*
X3564000Y74602750D01*
X3564000Y76081000D01*
X4310000Y76081000D01*
X4310000Y74602750D01*
X4468750Y74444000D01*
X5312000Y74440928D01*
X5436482Y74453188D01*
X5556180Y74489498D01*
X5666494Y74548463D01*
X5763185Y74627815D01*
X5842537Y74724506D01*
X5901502Y74834820D01*
X5937812Y74954518D01*
X5939684Y74973527D01*
X9534974Y74973527D01*
X10287000Y74221502D01*
X11039026Y74973527D01*
X10925698Y75207678D01*
X10618123Y75303197D01*
X10297822Y75336875D01*
X9977105Y75307418D01*
X9668297Y75215960D01*
X9648302Y75207678D01*
X9534974Y74973527D01*
X5939684Y74973527D01*
X5950072Y75079000D01*
X5947000Y75922250D01*
X5788250Y76081000D01*
X4310000Y76081000D01*
X3564000Y76081000D01*
X2085750Y76081000D01*
X1927000Y75922250D01*
X1923928Y75079000D01*
X1651000Y75079000D01*
X1651000Y77829000D01*
X1923928Y77829000D01*
X1927000Y76985750D01*
X2085750Y76827000D01*
X3564000Y76827000D01*
X3564000Y78305250D01*
X4310000Y78305250D01*
X4310000Y76827000D01*
X5788250Y76827000D01*
X5947000Y76985750D01*
X5950072Y77829000D01*
X5937812Y77953482D01*
X5901502Y78073180D01*
X5842537Y78183494D01*
X5763185Y78280185D01*
X5666494Y78359537D01*
X5556180Y78418502D01*
X5436482Y78454812D01*
X5312000Y78467072D01*
X4468750Y78464000D01*
X4310000Y78305250D01*
X3564000Y78305250D01*
X3405250Y78464000D01*
X2562000Y78467072D01*
X2437518Y78454812D01*
X2317820Y78418502D01*
X2207506Y78359537D01*
X2110815Y78280185D01*
X2031463Y78183494D01*
X1972498Y78073180D01*
X1936188Y77953482D01*
X1923928Y77829000D01*
X1651000Y77829000D01*
X1651000Y78867000D01*
X12319000Y78867000D01*
X12319000Y71247000D01*
G37*
X12319000Y71247000D02*
X5898134Y71247000D01*
X5897000Y71313750D01*
X5738250Y71472500D01*
X4310000Y71472500D01*
X4310000Y71452500D01*
X3564000Y71452500D01*
X3564000Y71472500D01*
X2135750Y71472500D01*
X1977000Y71313750D01*
X1975866Y71247000D01*
X1651000Y71247000D01*
X1651000Y72558000D01*
X1973928Y72558000D01*
X1977000Y72377250D01*
X2135750Y72218500D01*
X3564000Y72218500D01*
X3564000Y73034250D01*
X4310000Y73034250D01*
X4310000Y72218500D01*
X5738250Y72218500D01*
X5897000Y72377250D01*
X5897632Y72414473D01*
X9534974Y72414473D01*
X9648302Y72180322D01*
X9955877Y72084803D01*
X10276178Y72051125D01*
X10596895Y72080582D01*
X10905703Y72172040D01*
X10925698Y72180322D01*
X11039026Y72414473D01*
X10287000Y73166498D01*
X9534974Y72414473D01*
X5897632Y72414473D01*
X5900072Y72558000D01*
X5887812Y72682482D01*
X5851502Y72802180D01*
X5792537Y72912494D01*
X5713185Y73009185D01*
X5616494Y73088537D01*
X5506180Y73147502D01*
X5386482Y73183812D01*
X5262000Y73196072D01*
X4468750Y73193000D01*
X4310000Y73034250D01*
X3564000Y73034250D01*
X3405250Y73193000D01*
X2612000Y73196072D01*
X2487518Y73183812D01*
X2367820Y73147502D01*
X2257506Y73088537D01*
X2160815Y73009185D01*
X2081463Y72912494D01*
X2022498Y72802180D01*
X1986188Y72682482D01*
X1973928Y72558000D01*
X1651000Y72558000D01*
X1651000Y73704822D01*
X8644125Y73704822D01*
X8673582Y73384105D01*
X8765040Y73075297D01*
X8773322Y73055302D01*
X9007473Y72941974D01*
X9759498Y73694000D01*
X10814502Y73694000D01*
X11566527Y72941974D01*
X11800678Y73055302D01*
X11896197Y73362877D01*
X11929875Y73683178D01*
X11900418Y74003895D01*
X11808960Y74312703D01*
X11800678Y74332698D01*
X11566527Y74446026D01*
X10814502Y73694000D01*
X9759498Y73694000D01*
X9007473Y74446026D01*
X8773322Y74332698D01*
X8677803Y74025123D01*
X8644125Y73704822D01*
X1651000Y73704822D01*
X1651000Y75079000D01*
X1923928Y75079000D01*
X1936188Y74954518D01*
X1972498Y74834820D01*
X2031463Y74724506D01*
X2110815Y74627815D01*
X2207506Y74548463D01*
X2317820Y74489498D01*
X2437518Y74453188D01*
X2562000Y74440928D01*
X3405250Y74444000D01*
X3564000Y74602750D01*
X3564000Y76081000D01*
X4310000Y76081000D01*
X4310000Y74602750D01*
X4468750Y74444000D01*
X5312000Y74440928D01*
X5436482Y74453188D01*
X5556180Y74489498D01*
X5666494Y74548463D01*
X5763185Y74627815D01*
X5842537Y74724506D01*
X5901502Y74834820D01*
X5937812Y74954518D01*
X5939684Y74973527D01*
X9534974Y74973527D01*
X10287000Y74221502D01*
X11039026Y74973527D01*
X10925698Y75207678D01*
X10618123Y75303197D01*
X10297822Y75336875D01*
X9977105Y75307418D01*
X9668297Y75215960D01*
X9648302Y75207678D01*
X9534974Y74973527D01*
X5939684Y74973527D01*
X5950072Y75079000D01*
X5947000Y75922250D01*
X5788250Y76081000D01*
X4310000Y76081000D01*
X3564000Y76081000D01*
X2085750Y76081000D01*
X1927000Y75922250D01*
X1923928Y75079000D01*
X1651000Y75079000D01*
X1651000Y77829000D01*
X1923928Y77829000D01*
X1927000Y76985750D01*
X2085750Y76827000D01*
X3564000Y76827000D01*
X3564000Y78305250D01*
X4310000Y78305250D01*
X4310000Y76827000D01*
X5788250Y76827000D01*
X5947000Y76985750D01*
X5950072Y77829000D01*
X5937812Y77953482D01*
X5901502Y78073180D01*
X5842537Y78183494D01*
X5763185Y78280185D01*
X5666494Y78359537D01*
X5556180Y78418502D01*
X5436482Y78454812D01*
X5312000Y78467072D01*
X4468750Y78464000D01*
X4310000Y78305250D01*
X3564000Y78305250D01*
X3405250Y78464000D01*
X2562000Y78467072D01*
X2437518Y78454812D01*
X2317820Y78418502D01*
X2207506Y78359537D01*
X2110815Y78280185D01*
X2031463Y78183494D01*
X1972498Y78073180D01*
X1936188Y77953482D01*
X1923928Y77829000D01*
X1651000Y77829000D01*
X1651000Y78867000D01*
X12319000Y78867000D01*
X12319000Y71247000D01*
G36*
X1977000Y69402250D02*
G01*
X2135750Y69243500D01*
X3564000Y69243500D01*
X3564000Y69263500D01*
X4310000Y69263500D01*
X4310000Y69243500D01*
X5738250Y69243500D01*
X5897000Y69402250D01*
X5898134Y69469000D01*
X12319000Y69469000D01*
X12319000Y61595000D01*
X1651000Y61595000D01*
X1651000Y62379000D01*
X1923928Y62379000D01*
X1936188Y62254518D01*
X1972498Y62134820D01*
X2031463Y62024506D01*
X2110815Y61927815D01*
X2207506Y61848463D01*
X2317820Y61789498D01*
X2437518Y61753188D01*
X2562000Y61740928D01*
X3405250Y61744000D01*
X3564000Y61902750D01*
X3564000Y63381000D01*
X4310000Y63381000D01*
X4310000Y61902750D01*
X4468750Y61744000D01*
X5312000Y61740928D01*
X5436482Y61753188D01*
X5556180Y61789498D01*
X5666494Y61848463D01*
X5763185Y61927815D01*
X5842537Y62024506D01*
X5901502Y62134820D01*
X5937812Y62254518D01*
X5950072Y62379000D01*
X5947000Y63222250D01*
X5788250Y63381000D01*
X4310000Y63381000D01*
X3564000Y63381000D01*
X2085750Y63381000D01*
X1927000Y63222250D01*
X1923928Y62379000D01*
X1651000Y62379000D01*
X1651000Y65129000D01*
X1923928Y65129000D01*
X1927000Y64285750D01*
X2085750Y64127000D01*
X3564000Y64127000D01*
X3564000Y65605250D01*
X4310000Y65605250D01*
X4310000Y64127000D01*
X5788250Y64127000D01*
X5947000Y64285750D01*
X5950072Y65129000D01*
X5937812Y65253482D01*
X5925521Y65294000D01*
X8648928Y65294000D01*
X8661188Y65169518D01*
X8697498Y65049820D01*
X8756463Y64939506D01*
X8835815Y64842815D01*
X8932506Y64763463D01*
X9042820Y64704498D01*
X9162518Y64668188D01*
X9287000Y64655928D01*
X9755250Y64659000D01*
X9914000Y64817750D01*
X9914000Y65921000D01*
X10660000Y65921000D01*
X10660000Y64817750D01*
X10818750Y64659000D01*
X11287000Y64655928D01*
X11411482Y64668188D01*
X11531180Y64704498D01*
X11641494Y64763463D01*
X11738185Y64842815D01*
X11817537Y64939506D01*
X11876502Y65049820D01*
X11912812Y65169518D01*
X11925072Y65294000D01*
X11922000Y65762250D01*
X11763250Y65921000D01*
X10660000Y65921000D01*
X9914000Y65921000D01*
X8810750Y65921000D01*
X8652000Y65762250D01*
X8648928Y65294000D01*
X5925521Y65294000D01*
X5901502Y65373180D01*
X5842537Y65483494D01*
X5763185Y65580185D01*
X5666494Y65659537D01*
X5556180Y65718502D01*
X5436482Y65754812D01*
X5312000Y65767072D01*
X4468750Y65764000D01*
X4310000Y65605250D01*
X3564000Y65605250D01*
X3405250Y65764000D01*
X2562000Y65767072D01*
X2437518Y65754812D01*
X2317820Y65718502D01*
X2207506Y65659537D01*
X2110815Y65580185D01*
X2031463Y65483494D01*
X1972498Y65373180D01*
X1936188Y65253482D01*
X1923928Y65129000D01*
X1651000Y65129000D01*
X1651000Y67294000D01*
X8648928Y67294000D01*
X8652000Y66825750D01*
X8810750Y66667000D01*
X9914000Y66667000D01*
X9914000Y67770250D01*
X10660000Y67770250D01*
X10660000Y66667000D01*
X11763250Y66667000D01*
X11922000Y66825750D01*
X11925072Y67294000D01*
X11912812Y67418482D01*
X11876502Y67538180D01*
X11817537Y67648494D01*
X11738185Y67745185D01*
X11641494Y67824537D01*
X11531180Y67883502D01*
X11411482Y67919812D01*
X11287000Y67932072D01*
X10818750Y67929000D01*
X10660000Y67770250D01*
X9914000Y67770250D01*
X9755250Y67929000D01*
X9287000Y67932072D01*
X9162518Y67919812D01*
X9042820Y67883502D01*
X8932506Y67824537D01*
X8835815Y67745185D01*
X8756463Y67648494D01*
X8697498Y67538180D01*
X8661188Y67418482D01*
X8648928Y67294000D01*
X1651000Y67294000D01*
X1651000Y68158000D01*
X1973928Y68158000D01*
X1986188Y68033518D01*
X2022498Y67913820D01*
X2081463Y67803506D01*
X2160815Y67706815D01*
X2257506Y67627463D01*
X2367820Y67568498D01*
X2487518Y67532188D01*
X2612000Y67519928D01*
X3405250Y67523000D01*
X3564000Y67681750D01*
X3564000Y68497500D01*
X4310000Y68497500D01*
X4310000Y67681750D01*
X4468750Y67523000D01*
X5262000Y67519928D01*
X5386482Y67532188D01*
X5506180Y67568498D01*
X5616494Y67627463D01*
X5713185Y67706815D01*
X5792537Y67803506D01*
X5851502Y67913820D01*
X5887812Y68033518D01*
X5900072Y68158000D01*
X5897000Y68338750D01*
X5738250Y68497500D01*
X4310000Y68497500D01*
X3564000Y68497500D01*
X2135750Y68497500D01*
X1977000Y68338750D01*
X1973928Y68158000D01*
X1651000Y68158000D01*
X1651000Y69469000D01*
X1975866Y69469000D01*
X1977000Y69402250D01*
G37*
X1977000Y69402250D02*
X2135750Y69243500D01*
X3564000Y69243500D01*
X3564000Y69263500D01*
X4310000Y69263500D01*
X4310000Y69243500D01*
X5738250Y69243500D01*
X5897000Y69402250D01*
X5898134Y69469000D01*
X12319000Y69469000D01*
X12319000Y61595000D01*
X1651000Y61595000D01*
X1651000Y62379000D01*
X1923928Y62379000D01*
X1936188Y62254518D01*
X1972498Y62134820D01*
X2031463Y62024506D01*
X2110815Y61927815D01*
X2207506Y61848463D01*
X2317820Y61789498D01*
X2437518Y61753188D01*
X2562000Y61740928D01*
X3405250Y61744000D01*
X3564000Y61902750D01*
X3564000Y63381000D01*
X4310000Y63381000D01*
X4310000Y61902750D01*
X4468750Y61744000D01*
X5312000Y61740928D01*
X5436482Y61753188D01*
X5556180Y61789498D01*
X5666494Y61848463D01*
X5763185Y61927815D01*
X5842537Y62024506D01*
X5901502Y62134820D01*
X5937812Y62254518D01*
X5950072Y62379000D01*
X5947000Y63222250D01*
X5788250Y63381000D01*
X4310000Y63381000D01*
X3564000Y63381000D01*
X2085750Y63381000D01*
X1927000Y63222250D01*
X1923928Y62379000D01*
X1651000Y62379000D01*
X1651000Y65129000D01*
X1923928Y65129000D01*
X1927000Y64285750D01*
X2085750Y64127000D01*
X3564000Y64127000D01*
X3564000Y65605250D01*
X4310000Y65605250D01*
X4310000Y64127000D01*
X5788250Y64127000D01*
X5947000Y64285750D01*
X5950072Y65129000D01*
X5937812Y65253482D01*
X5925521Y65294000D01*
X8648928Y65294000D01*
X8661188Y65169518D01*
X8697498Y65049820D01*
X8756463Y64939506D01*
X8835815Y64842815D01*
X8932506Y64763463D01*
X9042820Y64704498D01*
X9162518Y64668188D01*
X9287000Y64655928D01*
X9755250Y64659000D01*
X9914000Y64817750D01*
X9914000Y65921000D01*
X10660000Y65921000D01*
X10660000Y64817750D01*
X10818750Y64659000D01*
X11287000Y64655928D01*
X11411482Y64668188D01*
X11531180Y64704498D01*
X11641494Y64763463D01*
X11738185Y64842815D01*
X11817537Y64939506D01*
X11876502Y65049820D01*
X11912812Y65169518D01*
X11925072Y65294000D01*
X11922000Y65762250D01*
X11763250Y65921000D01*
X10660000Y65921000D01*
X9914000Y65921000D01*
X8810750Y65921000D01*
X8652000Y65762250D01*
X8648928Y65294000D01*
X5925521Y65294000D01*
X5901502Y65373180D01*
X5842537Y65483494D01*
X5763185Y65580185D01*
X5666494Y65659537D01*
X5556180Y65718502D01*
X5436482Y65754812D01*
X5312000Y65767072D01*
X4468750Y65764000D01*
X4310000Y65605250D01*
X3564000Y65605250D01*
X3405250Y65764000D01*
X2562000Y65767072D01*
X2437518Y65754812D01*
X2317820Y65718502D01*
X2207506Y65659537D01*
X2110815Y65580185D01*
X2031463Y65483494D01*
X1972498Y65373180D01*
X1936188Y65253482D01*
X1923928Y65129000D01*
X1651000Y65129000D01*
X1651000Y67294000D01*
X8648928Y67294000D01*
X8652000Y66825750D01*
X8810750Y66667000D01*
X9914000Y66667000D01*
X9914000Y67770250D01*
X10660000Y67770250D01*
X10660000Y66667000D01*
X11763250Y66667000D01*
X11922000Y66825750D01*
X11925072Y67294000D01*
X11912812Y67418482D01*
X11876502Y67538180D01*
X11817537Y67648494D01*
X11738185Y67745185D01*
X11641494Y67824537D01*
X11531180Y67883502D01*
X11411482Y67919812D01*
X11287000Y67932072D01*
X10818750Y67929000D01*
X10660000Y67770250D01*
X9914000Y67770250D01*
X9755250Y67929000D01*
X9287000Y67932072D01*
X9162518Y67919812D01*
X9042820Y67883502D01*
X8932506Y67824537D01*
X8835815Y67745185D01*
X8756463Y67648494D01*
X8697498Y67538180D01*
X8661188Y67418482D01*
X8648928Y67294000D01*
X1651000Y67294000D01*
X1651000Y68158000D01*
X1973928Y68158000D01*
X1986188Y68033518D01*
X2022498Y67913820D01*
X2081463Y67803506D01*
X2160815Y67706815D01*
X2257506Y67627463D01*
X2367820Y67568498D01*
X2487518Y67532188D01*
X2612000Y67519928D01*
X3405250Y67523000D01*
X3564000Y67681750D01*
X3564000Y68497500D01*
X4310000Y68497500D01*
X4310000Y67681750D01*
X4468750Y67523000D01*
X5262000Y67519928D01*
X5386482Y67532188D01*
X5506180Y67568498D01*
X5616494Y67627463D01*
X5713185Y67706815D01*
X5792537Y67803506D01*
X5851502Y67913820D01*
X5887812Y68033518D01*
X5900072Y68158000D01*
X5897000Y68338750D01*
X5738250Y68497500D01*
X4310000Y68497500D01*
X3564000Y68497500D01*
X2135750Y68497500D01*
X1977000Y68338750D01*
X1973928Y68158000D01*
X1651000Y68158000D01*
X1651000Y69469000D01*
X1975866Y69469000D01*
X1977000Y69402250D01*
G36*
X55118000Y70993000D02*
G01*
X48316134Y70993000D01*
X48315000Y71059750D01*
X48156250Y71218500D01*
X46728000Y71218500D01*
X46728000Y71198500D01*
X45982000Y71198500D01*
X45982000Y71218500D01*
X44553750Y71218500D01*
X44395000Y71059750D01*
X44393866Y70993000D01*
X43434000Y70993000D01*
X43434000Y72304000D01*
X44391928Y72304000D01*
X44395000Y72123250D01*
X44553750Y71964500D01*
X45982000Y71964500D01*
X45982000Y72780250D01*
X46728000Y72780250D01*
X46728000Y71964500D01*
X48156250Y71964500D01*
X48315000Y72123250D01*
X48318072Y72304000D01*
X48305812Y72428482D01*
X48269502Y72548180D01*
X48210537Y72658494D01*
X48202348Y72668473D01*
X51952974Y72668473D01*
X52066302Y72434322D01*
X52373877Y72338803D01*
X52694178Y72305125D01*
X53014895Y72334582D01*
X53323703Y72426040D01*
X53343698Y72434322D01*
X53457026Y72668473D01*
X52705000Y73420498D01*
X51952974Y72668473D01*
X48202348Y72668473D01*
X48131185Y72755185D01*
X48034494Y72834537D01*
X47924180Y72893502D01*
X47804482Y72929812D01*
X47680000Y72942072D01*
X46886750Y72939000D01*
X46728000Y72780250D01*
X45982000Y72780250D01*
X45823250Y72939000D01*
X45030000Y72942072D01*
X44905518Y72929812D01*
X44785820Y72893502D01*
X44675506Y72834537D01*
X44578815Y72755185D01*
X44499463Y72658494D01*
X44440498Y72548180D01*
X44404188Y72428482D01*
X44391928Y72304000D01*
X43434000Y72304000D01*
X43434000Y73958822D01*
X51062125Y73958822D01*
X51091582Y73638105D01*
X51183040Y73329297D01*
X51191322Y73309302D01*
X51425473Y73195974D01*
X52177498Y73948000D01*
X53232502Y73948000D01*
X53984527Y73195974D01*
X54218678Y73309302D01*
X54314197Y73616877D01*
X54347875Y73937178D01*
X54318418Y74257895D01*
X54226960Y74566703D01*
X54218678Y74586698D01*
X53984527Y74700026D01*
X53232502Y73948000D01*
X52177498Y73948000D01*
X51425473Y74700026D01*
X51191322Y74586698D01*
X51095803Y74279123D01*
X51062125Y73958822D01*
X43434000Y73958822D01*
X43434000Y75206000D01*
X44341928Y75206000D01*
X44354188Y75081518D01*
X44390498Y74961820D01*
X44449463Y74851506D01*
X44528815Y74754815D01*
X44625506Y74675463D01*
X44735820Y74616498D01*
X44855518Y74580188D01*
X44980000Y74567928D01*
X45823250Y74571000D01*
X45982000Y74729750D01*
X45982000Y76208000D01*
X46728000Y76208000D01*
X46728000Y74729750D01*
X46886750Y74571000D01*
X47730000Y74567928D01*
X47854482Y74580188D01*
X47974180Y74616498D01*
X48084494Y74675463D01*
X48181185Y74754815D01*
X48260537Y74851506D01*
X48319502Y74961820D01*
X48355812Y75081518D01*
X48368072Y75206000D01*
X48367994Y75227527D01*
X51952974Y75227527D01*
X52705000Y74475502D01*
X53457026Y75227527D01*
X53343698Y75461678D01*
X53036123Y75557197D01*
X52715822Y75590875D01*
X52395105Y75561418D01*
X52086297Y75469960D01*
X52066302Y75461678D01*
X51952974Y75227527D01*
X48367994Y75227527D01*
X48365000Y76049250D01*
X48206250Y76208000D01*
X46728000Y76208000D01*
X45982000Y76208000D01*
X44503750Y76208000D01*
X44345000Y76049250D01*
X44341928Y75206000D01*
X43434000Y75206000D01*
X43434000Y77956000D01*
X44341928Y77956000D01*
X44345000Y77112750D01*
X44503750Y76954000D01*
X45982000Y76954000D01*
X45982000Y78432250D01*
X46728000Y78432250D01*
X46728000Y76954000D01*
X48206250Y76954000D01*
X48365000Y77112750D01*
X48368072Y77956000D01*
X48355812Y78080482D01*
X48319502Y78200180D01*
X48260537Y78310494D01*
X48181185Y78407185D01*
X48084494Y78486537D01*
X47974180Y78545502D01*
X47854482Y78581812D01*
X47730000Y78594072D01*
X46886750Y78591000D01*
X46728000Y78432250D01*
X45982000Y78432250D01*
X45823250Y78591000D01*
X44980000Y78594072D01*
X44855518Y78581812D01*
X44735820Y78545502D01*
X44625506Y78486537D01*
X44528815Y78407185D01*
X44449463Y78310494D01*
X44390498Y78200180D01*
X44354188Y78080482D01*
X44341928Y77956000D01*
X43434000Y77956000D01*
X43434000Y78994000D01*
X55118000Y78994000D01*
X55118000Y70993000D01*
G37*
X55118000Y70993000D02*
X48316134Y70993000D01*
X48315000Y71059750D01*
X48156250Y71218500D01*
X46728000Y71218500D01*
X46728000Y71198500D01*
X45982000Y71198500D01*
X45982000Y71218500D01*
X44553750Y71218500D01*
X44395000Y71059750D01*
X44393866Y70993000D01*
X43434000Y70993000D01*
X43434000Y72304000D01*
X44391928Y72304000D01*
X44395000Y72123250D01*
X44553750Y71964500D01*
X45982000Y71964500D01*
X45982000Y72780250D01*
X46728000Y72780250D01*
X46728000Y71964500D01*
X48156250Y71964500D01*
X48315000Y72123250D01*
X48318072Y72304000D01*
X48305812Y72428482D01*
X48269502Y72548180D01*
X48210537Y72658494D01*
X48202348Y72668473D01*
X51952974Y72668473D01*
X52066302Y72434322D01*
X52373877Y72338803D01*
X52694178Y72305125D01*
X53014895Y72334582D01*
X53323703Y72426040D01*
X53343698Y72434322D01*
X53457026Y72668473D01*
X52705000Y73420498D01*
X51952974Y72668473D01*
X48202348Y72668473D01*
X48131185Y72755185D01*
X48034494Y72834537D01*
X47924180Y72893502D01*
X47804482Y72929812D01*
X47680000Y72942072D01*
X46886750Y72939000D01*
X46728000Y72780250D01*
X45982000Y72780250D01*
X45823250Y72939000D01*
X45030000Y72942072D01*
X44905518Y72929812D01*
X44785820Y72893502D01*
X44675506Y72834537D01*
X44578815Y72755185D01*
X44499463Y72658494D01*
X44440498Y72548180D01*
X44404188Y72428482D01*
X44391928Y72304000D01*
X43434000Y72304000D01*
X43434000Y73958822D01*
X51062125Y73958822D01*
X51091582Y73638105D01*
X51183040Y73329297D01*
X51191322Y73309302D01*
X51425473Y73195974D01*
X52177498Y73948000D01*
X53232502Y73948000D01*
X53984527Y73195974D01*
X54218678Y73309302D01*
X54314197Y73616877D01*
X54347875Y73937178D01*
X54318418Y74257895D01*
X54226960Y74566703D01*
X54218678Y74586698D01*
X53984527Y74700026D01*
X53232502Y73948000D01*
X52177498Y73948000D01*
X51425473Y74700026D01*
X51191322Y74586698D01*
X51095803Y74279123D01*
X51062125Y73958822D01*
X43434000Y73958822D01*
X43434000Y75206000D01*
X44341928Y75206000D01*
X44354188Y75081518D01*
X44390498Y74961820D01*
X44449463Y74851506D01*
X44528815Y74754815D01*
X44625506Y74675463D01*
X44735820Y74616498D01*
X44855518Y74580188D01*
X44980000Y74567928D01*
X45823250Y74571000D01*
X45982000Y74729750D01*
X45982000Y76208000D01*
X46728000Y76208000D01*
X46728000Y74729750D01*
X46886750Y74571000D01*
X47730000Y74567928D01*
X47854482Y74580188D01*
X47974180Y74616498D01*
X48084494Y74675463D01*
X48181185Y74754815D01*
X48260537Y74851506D01*
X48319502Y74961820D01*
X48355812Y75081518D01*
X48368072Y75206000D01*
X48367994Y75227527D01*
X51952974Y75227527D01*
X52705000Y74475502D01*
X53457026Y75227527D01*
X53343698Y75461678D01*
X53036123Y75557197D01*
X52715822Y75590875D01*
X52395105Y75561418D01*
X52086297Y75469960D01*
X52066302Y75461678D01*
X51952974Y75227527D01*
X48367994Y75227527D01*
X48365000Y76049250D01*
X48206250Y76208000D01*
X46728000Y76208000D01*
X45982000Y76208000D01*
X44503750Y76208000D01*
X44345000Y76049250D01*
X44341928Y75206000D01*
X43434000Y75206000D01*
X43434000Y77956000D01*
X44341928Y77956000D01*
X44345000Y77112750D01*
X44503750Y76954000D01*
X45982000Y76954000D01*
X45982000Y78432250D01*
X46728000Y78432250D01*
X46728000Y76954000D01*
X48206250Y76954000D01*
X48365000Y77112750D01*
X48368072Y77956000D01*
X48355812Y78080482D01*
X48319502Y78200180D01*
X48260537Y78310494D01*
X48181185Y78407185D01*
X48084494Y78486537D01*
X47974180Y78545502D01*
X47854482Y78581812D01*
X47730000Y78594072D01*
X46886750Y78591000D01*
X46728000Y78432250D01*
X45982000Y78432250D01*
X45823250Y78591000D01*
X44980000Y78594072D01*
X44855518Y78581812D01*
X44735820Y78545502D01*
X44625506Y78486537D01*
X44528815Y78407185D01*
X44449463Y78310494D01*
X44390498Y78200180D01*
X44354188Y78080482D01*
X44341928Y77956000D01*
X43434000Y77956000D01*
X43434000Y78994000D01*
X55118000Y78994000D01*
X55118000Y70993000D01*
G36*
X44395000Y69148250D02*
G01*
X44553750Y68989500D01*
X45982000Y68989500D01*
X45982000Y69009500D01*
X46728000Y69009500D01*
X46728000Y68989500D01*
X48156250Y68989500D01*
X48315000Y69148250D01*
X48316134Y69215000D01*
X54991000Y69215000D01*
X54991000Y61722000D01*
X43434000Y61722000D01*
X43434000Y62506000D01*
X44341928Y62506000D01*
X44354188Y62381518D01*
X44390498Y62261820D01*
X44449463Y62151506D01*
X44528815Y62054815D01*
X44625506Y61975463D01*
X44735820Y61916498D01*
X44855518Y61880188D01*
X44980000Y61867928D01*
X45823250Y61871000D01*
X45982000Y62029750D01*
X45982000Y63508000D01*
X46728000Y63508000D01*
X46728000Y62029750D01*
X46886750Y61871000D01*
X47730000Y61867928D01*
X47854482Y61880188D01*
X47974180Y61916498D01*
X48084494Y61975463D01*
X48181185Y62054815D01*
X48260537Y62151506D01*
X48319502Y62261820D01*
X48355812Y62381518D01*
X48368072Y62506000D01*
X48365000Y63349250D01*
X48206250Y63508000D01*
X46728000Y63508000D01*
X45982000Y63508000D01*
X44503750Y63508000D01*
X44345000Y63349250D01*
X44341928Y62506000D01*
X43434000Y62506000D01*
X43434000Y65256000D01*
X44341928Y65256000D01*
X44345000Y64412750D01*
X44503750Y64254000D01*
X45982000Y64254000D01*
X45982000Y65732250D01*
X46728000Y65732250D01*
X46728000Y64254000D01*
X48206250Y64254000D01*
X48365000Y64412750D01*
X48368072Y65256000D01*
X48355812Y65380482D01*
X48319502Y65500180D01*
X48293942Y65548000D01*
X51066928Y65548000D01*
X51079188Y65423518D01*
X51115498Y65303820D01*
X51174463Y65193506D01*
X51253815Y65096815D01*
X51350506Y65017463D01*
X51460820Y64958498D01*
X51580518Y64922188D01*
X51705000Y64909928D01*
X52173250Y64913000D01*
X52332000Y65071750D01*
X52332000Y66175000D01*
X53078000Y66175000D01*
X53078000Y65071750D01*
X53236750Y64913000D01*
X53705000Y64909928D01*
X53829482Y64922188D01*
X53949180Y64958498D01*
X54059494Y65017463D01*
X54156185Y65096815D01*
X54235537Y65193506D01*
X54294502Y65303820D01*
X54330812Y65423518D01*
X54343072Y65548000D01*
X54340000Y66016250D01*
X54181250Y66175000D01*
X53078000Y66175000D01*
X52332000Y66175000D01*
X51228750Y66175000D01*
X51070000Y66016250D01*
X51066928Y65548000D01*
X48293942Y65548000D01*
X48260537Y65610494D01*
X48181185Y65707185D01*
X48084494Y65786537D01*
X47974180Y65845502D01*
X47854482Y65881812D01*
X47730000Y65894072D01*
X46886750Y65891000D01*
X46728000Y65732250D01*
X45982000Y65732250D01*
X45823250Y65891000D01*
X44980000Y65894072D01*
X44855518Y65881812D01*
X44735820Y65845502D01*
X44625506Y65786537D01*
X44528815Y65707185D01*
X44449463Y65610494D01*
X44390498Y65500180D01*
X44354188Y65380482D01*
X44341928Y65256000D01*
X43434000Y65256000D01*
X43434000Y67904000D01*
X44391928Y67904000D01*
X44404188Y67779518D01*
X44440498Y67659820D01*
X44499463Y67549506D01*
X44578815Y67452815D01*
X44675506Y67373463D01*
X44785820Y67314498D01*
X44905518Y67278188D01*
X45030000Y67265928D01*
X45823250Y67269000D01*
X45982000Y67427750D01*
X45982000Y68243500D01*
X46728000Y68243500D01*
X46728000Y67427750D01*
X46886750Y67269000D01*
X47680000Y67265928D01*
X47804482Y67278188D01*
X47924180Y67314498D01*
X48034494Y67373463D01*
X48131185Y67452815D01*
X48209301Y67548000D01*
X51066928Y67548000D01*
X51070000Y67079750D01*
X51228750Y66921000D01*
X52332000Y66921000D01*
X52332000Y68024250D01*
X53078000Y68024250D01*
X53078000Y66921000D01*
X54181250Y66921000D01*
X54340000Y67079750D01*
X54343072Y67548000D01*
X54330812Y67672482D01*
X54294502Y67792180D01*
X54235537Y67902494D01*
X54156185Y67999185D01*
X54059494Y68078537D01*
X53949180Y68137502D01*
X53829482Y68173812D01*
X53705000Y68186072D01*
X53236750Y68183000D01*
X53078000Y68024250D01*
X52332000Y68024250D01*
X52173250Y68183000D01*
X51705000Y68186072D01*
X51580518Y68173812D01*
X51460820Y68137502D01*
X51350506Y68078537D01*
X51253815Y67999185D01*
X51174463Y67902494D01*
X51115498Y67792180D01*
X51079188Y67672482D01*
X51066928Y67548000D01*
X48209301Y67548000D01*
X48210537Y67549506D01*
X48269502Y67659820D01*
X48305812Y67779518D01*
X48318072Y67904000D01*
X48315000Y68084750D01*
X48156250Y68243500D01*
X46728000Y68243500D01*
X45982000Y68243500D01*
X44553750Y68243500D01*
X44395000Y68084750D01*
X44391928Y67904000D01*
X43434000Y67904000D01*
X43434000Y69215000D01*
X44393866Y69215000D01*
X44395000Y69148250D01*
G37*
X44395000Y69148250D02*
X44553750Y68989500D01*
X45982000Y68989500D01*
X45982000Y69009500D01*
X46728000Y69009500D01*
X46728000Y68989500D01*
X48156250Y68989500D01*
X48315000Y69148250D01*
X48316134Y69215000D01*
X54991000Y69215000D01*
X54991000Y61722000D01*
X43434000Y61722000D01*
X43434000Y62506000D01*
X44341928Y62506000D01*
X44354188Y62381518D01*
X44390498Y62261820D01*
X44449463Y62151506D01*
X44528815Y62054815D01*
X44625506Y61975463D01*
X44735820Y61916498D01*
X44855518Y61880188D01*
X44980000Y61867928D01*
X45823250Y61871000D01*
X45982000Y62029750D01*
X45982000Y63508000D01*
X46728000Y63508000D01*
X46728000Y62029750D01*
X46886750Y61871000D01*
X47730000Y61867928D01*
X47854482Y61880188D01*
X47974180Y61916498D01*
X48084494Y61975463D01*
X48181185Y62054815D01*
X48260537Y62151506D01*
X48319502Y62261820D01*
X48355812Y62381518D01*
X48368072Y62506000D01*
X48365000Y63349250D01*
X48206250Y63508000D01*
X46728000Y63508000D01*
X45982000Y63508000D01*
X44503750Y63508000D01*
X44345000Y63349250D01*
X44341928Y62506000D01*
X43434000Y62506000D01*
X43434000Y65256000D01*
X44341928Y65256000D01*
X44345000Y64412750D01*
X44503750Y64254000D01*
X45982000Y64254000D01*
X45982000Y65732250D01*
X46728000Y65732250D01*
X46728000Y64254000D01*
X48206250Y64254000D01*
X48365000Y64412750D01*
X48368072Y65256000D01*
X48355812Y65380482D01*
X48319502Y65500180D01*
X48293942Y65548000D01*
X51066928Y65548000D01*
X51079188Y65423518D01*
X51115498Y65303820D01*
X51174463Y65193506D01*
X51253815Y65096815D01*
X51350506Y65017463D01*
X51460820Y64958498D01*
X51580518Y64922188D01*
X51705000Y64909928D01*
X52173250Y64913000D01*
X52332000Y65071750D01*
X52332000Y66175000D01*
X53078000Y66175000D01*
X53078000Y65071750D01*
X53236750Y64913000D01*
X53705000Y64909928D01*
X53829482Y64922188D01*
X53949180Y64958498D01*
X54059494Y65017463D01*
X54156185Y65096815D01*
X54235537Y65193506D01*
X54294502Y65303820D01*
X54330812Y65423518D01*
X54343072Y65548000D01*
X54340000Y66016250D01*
X54181250Y66175000D01*
X53078000Y66175000D01*
X52332000Y66175000D01*
X51228750Y66175000D01*
X51070000Y66016250D01*
X51066928Y65548000D01*
X48293942Y65548000D01*
X48260537Y65610494D01*
X48181185Y65707185D01*
X48084494Y65786537D01*
X47974180Y65845502D01*
X47854482Y65881812D01*
X47730000Y65894072D01*
X46886750Y65891000D01*
X46728000Y65732250D01*
X45982000Y65732250D01*
X45823250Y65891000D01*
X44980000Y65894072D01*
X44855518Y65881812D01*
X44735820Y65845502D01*
X44625506Y65786537D01*
X44528815Y65707185D01*
X44449463Y65610494D01*
X44390498Y65500180D01*
X44354188Y65380482D01*
X44341928Y65256000D01*
X43434000Y65256000D01*
X43434000Y67904000D01*
X44391928Y67904000D01*
X44404188Y67779518D01*
X44440498Y67659820D01*
X44499463Y67549506D01*
X44578815Y67452815D01*
X44675506Y67373463D01*
X44785820Y67314498D01*
X44905518Y67278188D01*
X45030000Y67265928D01*
X45823250Y67269000D01*
X45982000Y67427750D01*
X45982000Y68243500D01*
X46728000Y68243500D01*
X46728000Y67427750D01*
X46886750Y67269000D01*
X47680000Y67265928D01*
X47804482Y67278188D01*
X47924180Y67314498D01*
X48034494Y67373463D01*
X48131185Y67452815D01*
X48209301Y67548000D01*
X51066928Y67548000D01*
X51070000Y67079750D01*
X51228750Y66921000D01*
X52332000Y66921000D01*
X52332000Y68024250D01*
X53078000Y68024250D01*
X53078000Y66921000D01*
X54181250Y66921000D01*
X54340000Y67079750D01*
X54343072Y67548000D01*
X54330812Y67672482D01*
X54294502Y67792180D01*
X54235537Y67902494D01*
X54156185Y67999185D01*
X54059494Y68078537D01*
X53949180Y68137502D01*
X53829482Y68173812D01*
X53705000Y68186072D01*
X53236750Y68183000D01*
X53078000Y68024250D01*
X52332000Y68024250D01*
X52173250Y68183000D01*
X51705000Y68186072D01*
X51580518Y68173812D01*
X51460820Y68137502D01*
X51350506Y68078537D01*
X51253815Y67999185D01*
X51174463Y67902494D01*
X51115498Y67792180D01*
X51079188Y67672482D01*
X51066928Y67548000D01*
X48209301Y67548000D01*
X48210537Y67549506D01*
X48269502Y67659820D01*
X48305812Y67779518D01*
X48318072Y67904000D01*
X48315000Y68084750D01*
X48156250Y68243500D01*
X46728000Y68243500D01*
X45982000Y68243500D01*
X44553750Y68243500D01*
X44395000Y68084750D01*
X44391928Y67904000D01*
X43434000Y67904000D01*
X43434000Y69215000D01*
X44393866Y69215000D01*
X44395000Y69148250D01*
M02*
