G04 #@! TF.GenerationSoftware,KiCad,Pcbnew,5.1.6+dfsg1-1~bpo9+1*
G04 #@! TF.CreationDate,2021-11-05T21:37:23+01:00*
G04 #@! TF.ProjectId,sdrtrx-plutoclk,73647274-7278-42d7-906c-75746f636c6b,rev?*
G04 #@! TF.SameCoordinates,Original*
G04 #@! TF.FileFunction,Legend,Top*
G04 #@! TF.FilePolarity,Positive*
%FSLAX46Y46*%
G04 Gerber Fmt 4.6, Leading zero omitted, Abs format (unit mm)*
G04 Created by KiCad (PCBNEW 5.1.6+dfsg1-1~bpo9+1) date 2021-11-05 21:37:23*
%MOMM*%
%LPD*%
G01*
G04 APERTURE LIST*
%ADD10C,0.150000*%
%ADD11C,0.120000*%
%ADD12R,1.100000X1.100000*%
%ADD13R,2.300000X1.150000*%
%ADD14R,1.150000X1.100000*%
%ADD15R,1.300000X0.750000*%
%ADD16R,3.100000X3.100000*%
G04 APERTURE END LIST*
D10*
X142049595Y-84018500D02*
X141954357Y-83970880D01*
X141811500Y-83970880D01*
X141668642Y-84018500D01*
X141573404Y-84113738D01*
X141525785Y-84208976D01*
X141478166Y-84399452D01*
X141478166Y-84542309D01*
X141525785Y-84732785D01*
X141573404Y-84828023D01*
X141668642Y-84923261D01*
X141811500Y-84970880D01*
X141906738Y-84970880D01*
X142049595Y-84923261D01*
X142097214Y-84875642D01*
X142097214Y-84542309D01*
X141906738Y-84542309D01*
X142525785Y-84970880D02*
X142525785Y-83970880D01*
X143097214Y-84970880D01*
X143097214Y-83970880D01*
X143573404Y-84970880D02*
X143573404Y-83970880D01*
X143811500Y-83970880D01*
X143954357Y-84018500D01*
X144049595Y-84113738D01*
X144097214Y-84208976D01*
X144144833Y-84399452D01*
X144144833Y-84542309D01*
X144097214Y-84732785D01*
X144049595Y-84828023D01*
X143954357Y-84923261D01*
X143811500Y-84970880D01*
X143573404Y-84970880D01*
X126865190Y-83970880D02*
X127198523Y-84970880D01*
X127531857Y-83970880D01*
X127865190Y-84970880D02*
X127865190Y-84304214D01*
X127865190Y-83970880D02*
X127817571Y-84018500D01*
X127865190Y-84066119D01*
X127912809Y-84018500D01*
X127865190Y-83970880D01*
X127865190Y-84066119D01*
X128341380Y-84304214D02*
X128341380Y-84970880D01*
X128341380Y-84399452D02*
X128389000Y-84351833D01*
X128484238Y-84304214D01*
X128627095Y-84304214D01*
X128722333Y-84351833D01*
X128769952Y-84447071D01*
X128769952Y-84970880D01*
X126515761Y-79732000D02*
X126563380Y-79827238D01*
X126563380Y-80017714D01*
X126515761Y-80112952D01*
X126468142Y-80160571D01*
X126372904Y-80208190D01*
X126087190Y-80208190D01*
X125991952Y-80160571D01*
X125944333Y-80112952D01*
X125896714Y-80017714D01*
X125896714Y-79827238D01*
X125944333Y-79732000D01*
X126563380Y-79160571D02*
X126515761Y-79255809D01*
X126420523Y-79303428D01*
X125563380Y-79303428D01*
X126563380Y-78779619D02*
X125563380Y-78779619D01*
X126182428Y-78684380D02*
X126563380Y-78398666D01*
X125896714Y-78398666D02*
X126277666Y-78779619D01*
X126658619Y-78208190D02*
X126658619Y-77446285D01*
X126563380Y-77208190D02*
X125896714Y-77208190D01*
X125563380Y-77208190D02*
X125611000Y-77255809D01*
X125658619Y-77208190D01*
X125611000Y-77160571D01*
X125563380Y-77208190D01*
X125658619Y-77208190D01*
X125896714Y-76732000D02*
X126563380Y-76732000D01*
X125991952Y-76732000D02*
X125944333Y-76684380D01*
X125896714Y-76589142D01*
X125896714Y-76446285D01*
X125944333Y-76351047D01*
X126039571Y-76303428D01*
X126563380Y-76303428D01*
X154201761Y-84343761D02*
X154249380Y-84439000D01*
X154249380Y-84629476D01*
X154201761Y-84724714D01*
X154154142Y-84772333D01*
X154058904Y-84819952D01*
X153773190Y-84819952D01*
X153677952Y-84772333D01*
X153630333Y-84724714D01*
X153582714Y-84629476D01*
X153582714Y-84439000D01*
X153630333Y-84343761D01*
X154249380Y-83772333D02*
X154201761Y-83867571D01*
X154106523Y-83915190D01*
X153249380Y-83915190D01*
X154249380Y-83391380D02*
X153249380Y-83391380D01*
X153868428Y-83296142D02*
X154249380Y-83010428D01*
X153582714Y-83010428D02*
X153963666Y-83391380D01*
X153344619Y-82629476D02*
X153297000Y-82581857D01*
X153249380Y-82486619D01*
X153249380Y-82248523D01*
X153297000Y-82153285D01*
X153344619Y-82105666D01*
X153439857Y-82058047D01*
X153535095Y-82058047D01*
X153677952Y-82105666D01*
X154249380Y-82677095D01*
X154249380Y-82058047D01*
X148486761Y-77612761D02*
X148534380Y-77708000D01*
X148534380Y-77898476D01*
X148486761Y-77993714D01*
X148439142Y-78041333D01*
X148343904Y-78088952D01*
X148058190Y-78088952D01*
X147962952Y-78041333D01*
X147915333Y-77993714D01*
X147867714Y-77898476D01*
X147867714Y-77708000D01*
X147915333Y-77612761D01*
X148534380Y-77041333D02*
X148486761Y-77136571D01*
X148391523Y-77184190D01*
X147534380Y-77184190D01*
X148534380Y-76660380D02*
X147534380Y-76660380D01*
X148153428Y-76565142D02*
X148534380Y-76279428D01*
X147867714Y-76279428D02*
X148248666Y-76660380D01*
X148534380Y-75327047D02*
X148534380Y-75898476D01*
X148534380Y-75612761D02*
X147534380Y-75612761D01*
X147677238Y-75708000D01*
X147772476Y-75803238D01*
X147820095Y-75898476D01*
X150439666Y-78684880D02*
X150344428Y-78637261D01*
X150296809Y-78589642D01*
X150249190Y-78494404D01*
X150249190Y-78208690D01*
X150296809Y-78113452D01*
X150344428Y-78065833D01*
X150439666Y-78018214D01*
X150582523Y-78018214D01*
X150677761Y-78065833D01*
X150725380Y-78113452D01*
X150773000Y-78208690D01*
X150773000Y-78494404D01*
X150725380Y-78589642D01*
X150677761Y-78637261D01*
X150582523Y-78684880D01*
X150439666Y-78684880D01*
X151582523Y-78637261D02*
X151487285Y-78684880D01*
X151296809Y-78684880D01*
X151201571Y-78637261D01*
X151153952Y-78542023D01*
X151153952Y-78161071D01*
X151201571Y-78065833D01*
X151296809Y-78018214D01*
X151487285Y-78018214D01*
X151582523Y-78065833D01*
X151630142Y-78161071D01*
X151630142Y-78256309D01*
X151153952Y-78351547D01*
X152106333Y-78684880D02*
X152296809Y-78684880D01*
X152392047Y-78637261D01*
X152439666Y-78589642D01*
X152534904Y-78446785D01*
X152582523Y-78256309D01*
X152582523Y-77875357D01*
X152534904Y-77780119D01*
X152487285Y-77732500D01*
X152392047Y-77684880D01*
X152201571Y-77684880D01*
X152106333Y-77732500D01*
X152058714Y-77780119D01*
X152011095Y-77875357D01*
X152011095Y-78113452D01*
X152058714Y-78208690D01*
X152106333Y-78256309D01*
X152201571Y-78303928D01*
X152392047Y-78303928D01*
X152487285Y-78256309D01*
X152534904Y-78208690D01*
X152582523Y-78113452D01*
X153011095Y-78684880D02*
X153011095Y-78018214D01*
X153011095Y-78208690D02*
X153058714Y-78113452D01*
X153106333Y-78065833D01*
X153201571Y-78018214D01*
X153296809Y-78018214D01*
X153630142Y-78684880D02*
X153630142Y-78018214D01*
X153630142Y-77684880D02*
X153582523Y-77732500D01*
X153630142Y-77780119D01*
X153677761Y-77732500D01*
X153630142Y-77684880D01*
X153630142Y-77780119D01*
X154106333Y-78684880D02*
X154106333Y-78018214D01*
X154106333Y-78208690D02*
X154153952Y-78113452D01*
X154201571Y-78065833D01*
X154296809Y-78018214D01*
X154392047Y-78018214D01*
X150606333Y-80287261D02*
X150511095Y-80334880D01*
X150320619Y-80334880D01*
X150225380Y-80287261D01*
X150177761Y-80239642D01*
X150130142Y-80144404D01*
X150130142Y-79858690D01*
X150177761Y-79763452D01*
X150225380Y-79715833D01*
X150320619Y-79668214D01*
X150511095Y-79668214D01*
X150606333Y-79715833D01*
X151177761Y-80334880D02*
X151082523Y-80287261D01*
X151034904Y-80192023D01*
X151034904Y-79334880D01*
X151558714Y-80334880D02*
X151558714Y-79334880D01*
X151653952Y-79953928D02*
X151939666Y-80334880D01*
X151939666Y-79668214D02*
X151558714Y-80049166D01*
X153034904Y-79668214D02*
X153273000Y-80334880D01*
X153511095Y-79668214D01*
X154415857Y-80334880D02*
X153844428Y-80334880D01*
X154130142Y-80334880D02*
X154130142Y-79334880D01*
X154034904Y-79477738D01*
X153939666Y-79572976D01*
X153844428Y-79620595D01*
D11*
X136142500Y-88457000D02*
X136142500Y-87057000D01*
X137542500Y-88457000D02*
X136142500Y-88457000D01*
X137542500Y-87057000D02*
X137542500Y-88457000D01*
X136142500Y-87057000D02*
X137542500Y-87057000D01*
X150025000Y-82039000D02*
X150025000Y-82679000D01*
X150025000Y-84839000D02*
X150025000Y-84199000D01*
X150025000Y-82679000D02*
X149395000Y-82679000D01*
X152745000Y-82089000D02*
X152745000Y-84789000D01*
X129884000Y-79710000D02*
X129884000Y-79070000D01*
X129884000Y-76910000D02*
X129884000Y-77550000D01*
X129884000Y-79070000D02*
X130514000Y-79070000D01*
X127164000Y-79660000D02*
X127164000Y-76960000D01*
X151382500Y-87438000D02*
X152782500Y-87438000D01*
X152782500Y-87438000D02*
X152782500Y-88838000D01*
X152782500Y-88838000D02*
X151382500Y-88838000D01*
X151382500Y-88838000D02*
X151382500Y-87438000D01*
X127379500Y-81659500D02*
X128779500Y-81659500D01*
X128779500Y-81659500D02*
X128779500Y-83059500D01*
X128779500Y-83059500D02*
X127379500Y-83059500D01*
X127379500Y-83059500D02*
X127379500Y-81659500D01*
X132958000Y-88478000D02*
X134758000Y-88478000D01*
X134758000Y-85258000D02*
X132308000Y-85258000D01*
X137251221Y-85342000D02*
X137576779Y-85342000D01*
X137251221Y-86362000D02*
X137576779Y-86362000D01*
X131193000Y-86578221D02*
X131193000Y-86903779D01*
X130173000Y-86578221D02*
X130173000Y-86903779D01*
X140718000Y-82641221D02*
X140718000Y-82966779D01*
X139698000Y-82641221D02*
X139698000Y-82966779D01*
X137987000Y-80771000D02*
X139487000Y-80771000D01*
X137987000Y-80771000D02*
X136487000Y-80771000D01*
X137987000Y-76551000D02*
X139487000Y-76551000D01*
X137987000Y-76551000D02*
X135112000Y-76551000D01*
X144587279Y-77853000D02*
X144261721Y-77853000D01*
X144587279Y-76833000D02*
X144261721Y-76833000D01*
X144561779Y-79758000D02*
X144236221Y-79758000D01*
X144561779Y-78738000D02*
X144236221Y-78738000D01*
X147228779Y-85600000D02*
X146903221Y-85600000D01*
X147228779Y-84580000D02*
X146903221Y-84580000D01*
X147228779Y-83949000D02*
X146903221Y-83949000D01*
X147228779Y-82929000D02*
X146903221Y-82929000D01*
X137793000Y-82966779D02*
X137793000Y-82641221D01*
X138813000Y-82966779D02*
X138813000Y-82641221D01*
X132425221Y-79500000D02*
X132750779Y-79500000D01*
X132425221Y-80520000D02*
X132750779Y-80520000D01*
X151446000Y-75373000D02*
X152846000Y-75373000D01*
X152846000Y-75373000D02*
X152846000Y-76773000D01*
X152846000Y-76773000D02*
X151446000Y-76773000D01*
X151446000Y-76773000D02*
X151446000Y-75373000D01*
X141048000Y-85168000D02*
X144448000Y-85168000D01*
X144448000Y-85168000D02*
X144448000Y-88568000D01*
X144448000Y-88568000D02*
X141048000Y-88568000D01*
X141048000Y-88568000D02*
X141048000Y-85168000D01*
X126125500Y-85231500D02*
X129525500Y-85231500D01*
X129525500Y-85231500D02*
X129525500Y-88631500D01*
X129525500Y-88631500D02*
X126125500Y-88631500D01*
X126125500Y-88631500D02*
X126125500Y-85231500D01*
X148842500Y-76262000D02*
X150242500Y-76262000D01*
X150242500Y-76262000D02*
X150242500Y-77662000D01*
X150242500Y-77662000D02*
X148842500Y-77662000D01*
X148842500Y-77662000D02*
X148842500Y-76262000D01*
X147863779Y-79758000D02*
X147538221Y-79758000D01*
X147863779Y-78738000D02*
X147538221Y-78738000D01*
X146903221Y-86485000D02*
X147228779Y-86485000D01*
X146903221Y-87505000D02*
X147228779Y-87505000D01*
X131734779Y-82425000D02*
X131409221Y-82425000D01*
X131734779Y-81405000D02*
X131409221Y-81405000D01*
X133131779Y-78869000D02*
X132806221Y-78869000D01*
X133131779Y-77849000D02*
X132806221Y-77849000D01*
D10*
X133248476Y-84080404D02*
X133248476Y-84728023D01*
X133286571Y-84804214D01*
X133324666Y-84842309D01*
X133400857Y-84880404D01*
X133553238Y-84880404D01*
X133629428Y-84842309D01*
X133667523Y-84804214D01*
X133705619Y-84728023D01*
X133705619Y-84080404D01*
X134048476Y-84156595D02*
X134086571Y-84118500D01*
X134162761Y-84080404D01*
X134353238Y-84080404D01*
X134429428Y-84118500D01*
X134467523Y-84156595D01*
X134505619Y-84232785D01*
X134505619Y-84308976D01*
X134467523Y-84423261D01*
X134010380Y-84880404D01*
X134505619Y-84880404D01*
X139795214Y-85985333D02*
X139833309Y-86023428D01*
X139871404Y-86137714D01*
X139871404Y-86213904D01*
X139833309Y-86328190D01*
X139757119Y-86404380D01*
X139680928Y-86442476D01*
X139528547Y-86480571D01*
X139414261Y-86480571D01*
X139261880Y-86442476D01*
X139185690Y-86404380D01*
X139109500Y-86328190D01*
X139071404Y-86213904D01*
X139071404Y-86137714D01*
X139109500Y-86023428D01*
X139147595Y-85985333D01*
X139071404Y-85718666D02*
X139071404Y-85185333D01*
X139871404Y-85528190D01*
X130549666Y-85058214D02*
X130511571Y-85096309D01*
X130397285Y-85134404D01*
X130321095Y-85134404D01*
X130206809Y-85096309D01*
X130130619Y-85020119D01*
X130092523Y-84943928D01*
X130054428Y-84791547D01*
X130054428Y-84677261D01*
X130092523Y-84524880D01*
X130130619Y-84448690D01*
X130206809Y-84372500D01*
X130321095Y-84334404D01*
X130397285Y-84334404D01*
X130511571Y-84372500D01*
X130549666Y-84410595D01*
X131273476Y-84334404D02*
X130892523Y-84334404D01*
X130854428Y-84715357D01*
X130892523Y-84677261D01*
X130968714Y-84639166D01*
X131159190Y-84639166D01*
X131235380Y-84677261D01*
X131273476Y-84715357D01*
X131311571Y-84791547D01*
X131311571Y-84982023D01*
X131273476Y-85058214D01*
X131235380Y-85096309D01*
X131159190Y-85134404D01*
X130968714Y-85134404D01*
X130892523Y-85096309D01*
X130854428Y-85058214D01*
X141839904Y-82937333D02*
X141458952Y-83204000D01*
X141839904Y-83394476D02*
X141039904Y-83394476D01*
X141039904Y-83089714D01*
X141078000Y-83013523D01*
X141116095Y-82975428D01*
X141192285Y-82937333D01*
X141306571Y-82937333D01*
X141382761Y-82975428D01*
X141420857Y-83013523D01*
X141458952Y-83089714D01*
X141458952Y-83394476D01*
X141039904Y-82670666D02*
X141039904Y-82137333D01*
X141839904Y-82480190D01*
X137375976Y-75507904D02*
X137375976Y-76155523D01*
X137414071Y-76231714D01*
X137452166Y-76269809D01*
X137528357Y-76307904D01*
X137680738Y-76307904D01*
X137756928Y-76269809D01*
X137795023Y-76231714D01*
X137833119Y-76155523D01*
X137833119Y-75507904D01*
X138633119Y-76307904D02*
X138175976Y-76307904D01*
X138404547Y-76307904D02*
X138404547Y-75507904D01*
X138328357Y-75622190D01*
X138252166Y-75698380D01*
X138175976Y-75736476D01*
X142792404Y-77476333D02*
X142411452Y-77743000D01*
X142792404Y-77933476D02*
X141992404Y-77933476D01*
X141992404Y-77628714D01*
X142030500Y-77552523D01*
X142068595Y-77514428D01*
X142144785Y-77476333D01*
X142259071Y-77476333D01*
X142335261Y-77514428D01*
X142373357Y-77552523D01*
X142411452Y-77628714D01*
X142411452Y-77933476D01*
X141992404Y-76790619D02*
X141992404Y-76943000D01*
X142030500Y-77019190D01*
X142068595Y-77057285D01*
X142182880Y-77133476D01*
X142335261Y-77171571D01*
X142640023Y-77171571D01*
X142716214Y-77133476D01*
X142754309Y-77095380D01*
X142792404Y-77019190D01*
X142792404Y-76866809D01*
X142754309Y-76790619D01*
X142716214Y-76752523D01*
X142640023Y-76714428D01*
X142449547Y-76714428D01*
X142373357Y-76752523D01*
X142335261Y-76790619D01*
X142297166Y-76866809D01*
X142297166Y-77019190D01*
X142335261Y-77095380D01*
X142373357Y-77133476D01*
X142449547Y-77171571D01*
X142792404Y-79381333D02*
X142411452Y-79648000D01*
X142792404Y-79838476D02*
X141992404Y-79838476D01*
X141992404Y-79533714D01*
X142030500Y-79457523D01*
X142068595Y-79419428D01*
X142144785Y-79381333D01*
X142259071Y-79381333D01*
X142335261Y-79419428D01*
X142373357Y-79457523D01*
X142411452Y-79533714D01*
X142411452Y-79838476D01*
X141992404Y-78657523D02*
X141992404Y-79038476D01*
X142373357Y-79076571D01*
X142335261Y-79038476D01*
X142297166Y-78962285D01*
X142297166Y-78771809D01*
X142335261Y-78695619D01*
X142373357Y-78657523D01*
X142449547Y-78619428D01*
X142640023Y-78619428D01*
X142716214Y-78657523D01*
X142754309Y-78695619D01*
X142792404Y-78771809D01*
X142792404Y-78962285D01*
X142754309Y-79038476D01*
X142716214Y-79076571D01*
X145522904Y-85286833D02*
X145141952Y-85553500D01*
X145522904Y-85743976D02*
X144722904Y-85743976D01*
X144722904Y-85439214D01*
X144761000Y-85363023D01*
X144799095Y-85324928D01*
X144875285Y-85286833D01*
X144989571Y-85286833D01*
X145065761Y-85324928D01*
X145103857Y-85363023D01*
X145141952Y-85439214D01*
X145141952Y-85743976D01*
X144989571Y-84601119D02*
X145522904Y-84601119D01*
X144684809Y-84791595D02*
X145256238Y-84982071D01*
X145256238Y-84486833D01*
X145459404Y-83572333D02*
X145078452Y-83839000D01*
X145459404Y-84029476D02*
X144659404Y-84029476D01*
X144659404Y-83724714D01*
X144697500Y-83648523D01*
X144735595Y-83610428D01*
X144811785Y-83572333D01*
X144926071Y-83572333D01*
X145002261Y-83610428D01*
X145040357Y-83648523D01*
X145078452Y-83724714D01*
X145078452Y-84029476D01*
X144659404Y-83305666D02*
X144659404Y-82810428D01*
X144964166Y-83077095D01*
X144964166Y-82962809D01*
X145002261Y-82886619D01*
X145040357Y-82848523D01*
X145116547Y-82810428D01*
X145307023Y-82810428D01*
X145383214Y-82848523D01*
X145421309Y-82886619D01*
X145459404Y-82962809D01*
X145459404Y-83191380D01*
X145421309Y-83267571D01*
X145383214Y-83305666D01*
X137458404Y-82937333D02*
X137077452Y-83204000D01*
X137458404Y-83394476D02*
X136658404Y-83394476D01*
X136658404Y-83089714D01*
X136696500Y-83013523D01*
X136734595Y-82975428D01*
X136810785Y-82937333D01*
X136925071Y-82937333D01*
X137001261Y-82975428D01*
X137039357Y-83013523D01*
X137077452Y-83089714D01*
X137077452Y-83394476D01*
X136734595Y-82632571D02*
X136696500Y-82594476D01*
X136658404Y-82518285D01*
X136658404Y-82327809D01*
X136696500Y-82251619D01*
X136734595Y-82213523D01*
X136810785Y-82175428D01*
X136886976Y-82175428D01*
X137001261Y-82213523D01*
X137458404Y-82670666D01*
X137458404Y-82175428D01*
X130981404Y-80206833D02*
X130600452Y-80473500D01*
X130981404Y-80663976D02*
X130181404Y-80663976D01*
X130181404Y-80359214D01*
X130219500Y-80283023D01*
X130257595Y-80244928D01*
X130333785Y-80206833D01*
X130448071Y-80206833D01*
X130524261Y-80244928D01*
X130562357Y-80283023D01*
X130600452Y-80359214D01*
X130600452Y-80663976D01*
X130981404Y-79444928D02*
X130981404Y-79902071D01*
X130981404Y-79673500D02*
X130181404Y-79673500D01*
X130295690Y-79749690D01*
X130371880Y-79825880D01*
X130409976Y-79902071D01*
X147567666Y-80867214D02*
X147529571Y-80905309D01*
X147415285Y-80943404D01*
X147339095Y-80943404D01*
X147224809Y-80905309D01*
X147148619Y-80829119D01*
X147110523Y-80752928D01*
X147072428Y-80600547D01*
X147072428Y-80486261D01*
X147110523Y-80333880D01*
X147148619Y-80257690D01*
X147224809Y-80181500D01*
X147339095Y-80143404D01*
X147415285Y-80143404D01*
X147529571Y-80181500D01*
X147567666Y-80219595D01*
X148253380Y-80410071D02*
X148253380Y-80943404D01*
X148062904Y-80105309D02*
X147872428Y-80676738D01*
X148367666Y-80676738D01*
X149447214Y-87128333D02*
X149485309Y-87166428D01*
X149523404Y-87280714D01*
X149523404Y-87356904D01*
X149485309Y-87471190D01*
X149409119Y-87547380D01*
X149332928Y-87585476D01*
X149180547Y-87623571D01*
X149066261Y-87623571D01*
X148913880Y-87585476D01*
X148837690Y-87547380D01*
X148761500Y-87471190D01*
X148723404Y-87356904D01*
X148723404Y-87280714D01*
X148761500Y-87166428D01*
X148799595Y-87128333D01*
X148723404Y-86861666D02*
X148723404Y-86366428D01*
X149028166Y-86633095D01*
X149028166Y-86518809D01*
X149066261Y-86442619D01*
X149104357Y-86404523D01*
X149180547Y-86366428D01*
X149371023Y-86366428D01*
X149447214Y-86404523D01*
X149485309Y-86442619D01*
X149523404Y-86518809D01*
X149523404Y-86747380D01*
X149485309Y-86823571D01*
X149447214Y-86861666D01*
X133889714Y-82048333D02*
X133927809Y-82086428D01*
X133965904Y-82200714D01*
X133965904Y-82276904D01*
X133927809Y-82391190D01*
X133851619Y-82467380D01*
X133775428Y-82505476D01*
X133623047Y-82543571D01*
X133508761Y-82543571D01*
X133356380Y-82505476D01*
X133280190Y-82467380D01*
X133204000Y-82391190D01*
X133165904Y-82276904D01*
X133165904Y-82200714D01*
X133204000Y-82086428D01*
X133242095Y-82048333D01*
X133242095Y-81743571D02*
X133204000Y-81705476D01*
X133165904Y-81629285D01*
X133165904Y-81438809D01*
X133204000Y-81362619D01*
X133242095Y-81324523D01*
X133318285Y-81286428D01*
X133394476Y-81286428D01*
X133508761Y-81324523D01*
X133965904Y-81781666D01*
X133965904Y-81286428D01*
X132899166Y-77501714D02*
X132861071Y-77539809D01*
X132746785Y-77577904D01*
X132670595Y-77577904D01*
X132556309Y-77539809D01*
X132480119Y-77463619D01*
X132442023Y-77387428D01*
X132403928Y-77235047D01*
X132403928Y-77120761D01*
X132442023Y-76968380D01*
X132480119Y-76892190D01*
X132556309Y-76816000D01*
X132670595Y-76777904D01*
X132746785Y-76777904D01*
X132861071Y-76816000D01*
X132899166Y-76854095D01*
X133661071Y-77577904D02*
X133203928Y-77577904D01*
X133432500Y-77577904D02*
X133432500Y-76777904D01*
X133356309Y-76892190D01*
X133280119Y-76968380D01*
X133203928Y-77006476D01*
%LPC*%
D12*
X136842500Y-87757000D03*
D13*
X151385000Y-81964000D03*
D14*
X149860000Y-83439000D03*
D13*
X151385000Y-84914000D03*
X128524000Y-79785000D03*
D14*
X130049000Y-78310000D03*
D13*
X128524000Y-76835000D03*
D12*
X152082500Y-88138000D03*
X128079500Y-82359500D03*
D15*
X135008000Y-85918000D03*
X135008000Y-87818000D03*
X132708000Y-87818000D03*
X132708000Y-86868000D03*
X132708000Y-85918000D03*
G36*
G01*
X137714000Y-86133250D02*
X137714000Y-85570750D01*
G75*
G02*
X137957750Y-85327000I243750J0D01*
G01*
X138445250Y-85327000D01*
G75*
G02*
X138689000Y-85570750I0J-243750D01*
G01*
X138689000Y-86133250D01*
G75*
G02*
X138445250Y-86377000I-243750J0D01*
G01*
X137957750Y-86377000D01*
G75*
G02*
X137714000Y-86133250I0J243750D01*
G01*
G37*
G36*
G01*
X136139000Y-86133250D02*
X136139000Y-85570750D01*
G75*
G02*
X136382750Y-85327000I243750J0D01*
G01*
X136870250Y-85327000D01*
G75*
G02*
X137114000Y-85570750I0J-243750D01*
G01*
X137114000Y-86133250D01*
G75*
G02*
X136870250Y-86377000I-243750J0D01*
G01*
X136382750Y-86377000D01*
G75*
G02*
X136139000Y-86133250I0J243750D01*
G01*
G37*
G36*
G01*
X130401750Y-87041000D02*
X130964250Y-87041000D01*
G75*
G02*
X131208000Y-87284750I0J-243750D01*
G01*
X131208000Y-87772250D01*
G75*
G02*
X130964250Y-88016000I-243750J0D01*
G01*
X130401750Y-88016000D01*
G75*
G02*
X130158000Y-87772250I0J243750D01*
G01*
X130158000Y-87284750D01*
G75*
G02*
X130401750Y-87041000I243750J0D01*
G01*
G37*
G36*
G01*
X130401750Y-85466000D02*
X130964250Y-85466000D01*
G75*
G02*
X131208000Y-85709750I0J-243750D01*
G01*
X131208000Y-86197250D01*
G75*
G02*
X130964250Y-86441000I-243750J0D01*
G01*
X130401750Y-86441000D01*
G75*
G02*
X130158000Y-86197250I0J243750D01*
G01*
X130158000Y-85709750D01*
G75*
G02*
X130401750Y-85466000I243750J0D01*
G01*
G37*
G36*
G01*
X139926750Y-83104000D02*
X140489250Y-83104000D01*
G75*
G02*
X140733000Y-83347750I0J-243750D01*
G01*
X140733000Y-83835250D01*
G75*
G02*
X140489250Y-84079000I-243750J0D01*
G01*
X139926750Y-84079000D01*
G75*
G02*
X139683000Y-83835250I0J243750D01*
G01*
X139683000Y-83347750D01*
G75*
G02*
X139926750Y-83104000I243750J0D01*
G01*
G37*
G36*
G01*
X139926750Y-81529000D02*
X140489250Y-81529000D01*
G75*
G02*
X140733000Y-81772750I0J-243750D01*
G01*
X140733000Y-82260250D01*
G75*
G02*
X140489250Y-82504000I-243750J0D01*
G01*
X139926750Y-82504000D01*
G75*
G02*
X139683000Y-82260250I0J243750D01*
G01*
X139683000Y-81772750D01*
G75*
G02*
X139926750Y-81529000I243750J0D01*
G01*
G37*
G36*
G01*
X139362000Y-77161000D02*
X139362000Y-76911000D01*
G75*
G02*
X139487000Y-76786000I125000J0D01*
G01*
X140787000Y-76786000D01*
G75*
G02*
X140912000Y-76911000I0J-125000D01*
G01*
X140912000Y-77161000D01*
G75*
G02*
X140787000Y-77286000I-125000J0D01*
G01*
X139487000Y-77286000D01*
G75*
G02*
X139362000Y-77161000I0J125000D01*
G01*
G37*
G36*
G01*
X139362000Y-77811000D02*
X139362000Y-77561000D01*
G75*
G02*
X139487000Y-77436000I125000J0D01*
G01*
X140787000Y-77436000D01*
G75*
G02*
X140912000Y-77561000I0J-125000D01*
G01*
X140912000Y-77811000D01*
G75*
G02*
X140787000Y-77936000I-125000J0D01*
G01*
X139487000Y-77936000D01*
G75*
G02*
X139362000Y-77811000I0J125000D01*
G01*
G37*
G36*
G01*
X139362000Y-78461000D02*
X139362000Y-78211000D01*
G75*
G02*
X139487000Y-78086000I125000J0D01*
G01*
X140787000Y-78086000D01*
G75*
G02*
X140912000Y-78211000I0J-125000D01*
G01*
X140912000Y-78461000D01*
G75*
G02*
X140787000Y-78586000I-125000J0D01*
G01*
X139487000Y-78586000D01*
G75*
G02*
X139362000Y-78461000I0J125000D01*
G01*
G37*
G36*
G01*
X139362000Y-79111000D02*
X139362000Y-78861000D01*
G75*
G02*
X139487000Y-78736000I125000J0D01*
G01*
X140787000Y-78736000D01*
G75*
G02*
X140912000Y-78861000I0J-125000D01*
G01*
X140912000Y-79111000D01*
G75*
G02*
X140787000Y-79236000I-125000J0D01*
G01*
X139487000Y-79236000D01*
G75*
G02*
X139362000Y-79111000I0J125000D01*
G01*
G37*
G36*
G01*
X139362000Y-79761000D02*
X139362000Y-79511000D01*
G75*
G02*
X139487000Y-79386000I125000J0D01*
G01*
X140787000Y-79386000D01*
G75*
G02*
X140912000Y-79511000I0J-125000D01*
G01*
X140912000Y-79761000D01*
G75*
G02*
X140787000Y-79886000I-125000J0D01*
G01*
X139487000Y-79886000D01*
G75*
G02*
X139362000Y-79761000I0J125000D01*
G01*
G37*
G36*
G01*
X139362000Y-80411000D02*
X139362000Y-80161000D01*
G75*
G02*
X139487000Y-80036000I125000J0D01*
G01*
X140787000Y-80036000D01*
G75*
G02*
X140912000Y-80161000I0J-125000D01*
G01*
X140912000Y-80411000D01*
G75*
G02*
X140787000Y-80536000I-125000J0D01*
G01*
X139487000Y-80536000D01*
G75*
G02*
X139362000Y-80411000I0J125000D01*
G01*
G37*
G36*
G01*
X135062000Y-80411000D02*
X135062000Y-80161000D01*
G75*
G02*
X135187000Y-80036000I125000J0D01*
G01*
X136487000Y-80036000D01*
G75*
G02*
X136612000Y-80161000I0J-125000D01*
G01*
X136612000Y-80411000D01*
G75*
G02*
X136487000Y-80536000I-125000J0D01*
G01*
X135187000Y-80536000D01*
G75*
G02*
X135062000Y-80411000I0J125000D01*
G01*
G37*
G36*
G01*
X135062000Y-79761000D02*
X135062000Y-79511000D01*
G75*
G02*
X135187000Y-79386000I125000J0D01*
G01*
X136487000Y-79386000D01*
G75*
G02*
X136612000Y-79511000I0J-125000D01*
G01*
X136612000Y-79761000D01*
G75*
G02*
X136487000Y-79886000I-125000J0D01*
G01*
X135187000Y-79886000D01*
G75*
G02*
X135062000Y-79761000I0J125000D01*
G01*
G37*
G36*
G01*
X135062000Y-79111000D02*
X135062000Y-78861000D01*
G75*
G02*
X135187000Y-78736000I125000J0D01*
G01*
X136487000Y-78736000D01*
G75*
G02*
X136612000Y-78861000I0J-125000D01*
G01*
X136612000Y-79111000D01*
G75*
G02*
X136487000Y-79236000I-125000J0D01*
G01*
X135187000Y-79236000D01*
G75*
G02*
X135062000Y-79111000I0J125000D01*
G01*
G37*
G36*
G01*
X135062000Y-78461000D02*
X135062000Y-78211000D01*
G75*
G02*
X135187000Y-78086000I125000J0D01*
G01*
X136487000Y-78086000D01*
G75*
G02*
X136612000Y-78211000I0J-125000D01*
G01*
X136612000Y-78461000D01*
G75*
G02*
X136487000Y-78586000I-125000J0D01*
G01*
X135187000Y-78586000D01*
G75*
G02*
X135062000Y-78461000I0J125000D01*
G01*
G37*
G36*
G01*
X135062000Y-77811000D02*
X135062000Y-77561000D01*
G75*
G02*
X135187000Y-77436000I125000J0D01*
G01*
X136487000Y-77436000D01*
G75*
G02*
X136612000Y-77561000I0J-125000D01*
G01*
X136612000Y-77811000D01*
G75*
G02*
X136487000Y-77936000I-125000J0D01*
G01*
X135187000Y-77936000D01*
G75*
G02*
X135062000Y-77811000I0J125000D01*
G01*
G37*
G36*
G01*
X135062000Y-77161000D02*
X135062000Y-76911000D01*
G75*
G02*
X135187000Y-76786000I125000J0D01*
G01*
X136487000Y-76786000D01*
G75*
G02*
X136612000Y-76911000I0J-125000D01*
G01*
X136612000Y-77161000D01*
G75*
G02*
X136487000Y-77286000I-125000J0D01*
G01*
X135187000Y-77286000D01*
G75*
G02*
X135062000Y-77161000I0J125000D01*
G01*
G37*
G36*
G01*
X144124500Y-77061750D02*
X144124500Y-77624250D01*
G75*
G02*
X143880750Y-77868000I-243750J0D01*
G01*
X143393250Y-77868000D01*
G75*
G02*
X143149500Y-77624250I0J243750D01*
G01*
X143149500Y-77061750D01*
G75*
G02*
X143393250Y-76818000I243750J0D01*
G01*
X143880750Y-76818000D01*
G75*
G02*
X144124500Y-77061750I0J-243750D01*
G01*
G37*
G36*
G01*
X145699500Y-77061750D02*
X145699500Y-77624250D01*
G75*
G02*
X145455750Y-77868000I-243750J0D01*
G01*
X144968250Y-77868000D01*
G75*
G02*
X144724500Y-77624250I0J243750D01*
G01*
X144724500Y-77061750D01*
G75*
G02*
X144968250Y-76818000I243750J0D01*
G01*
X145455750Y-76818000D01*
G75*
G02*
X145699500Y-77061750I0J-243750D01*
G01*
G37*
G36*
G01*
X144099000Y-78966750D02*
X144099000Y-79529250D01*
G75*
G02*
X143855250Y-79773000I-243750J0D01*
G01*
X143367750Y-79773000D01*
G75*
G02*
X143124000Y-79529250I0J243750D01*
G01*
X143124000Y-78966750D01*
G75*
G02*
X143367750Y-78723000I243750J0D01*
G01*
X143855250Y-78723000D01*
G75*
G02*
X144099000Y-78966750I0J-243750D01*
G01*
G37*
G36*
G01*
X145674000Y-78966750D02*
X145674000Y-79529250D01*
G75*
G02*
X145430250Y-79773000I-243750J0D01*
G01*
X144942750Y-79773000D01*
G75*
G02*
X144699000Y-79529250I0J243750D01*
G01*
X144699000Y-78966750D01*
G75*
G02*
X144942750Y-78723000I243750J0D01*
G01*
X145430250Y-78723000D01*
G75*
G02*
X145674000Y-78966750I0J-243750D01*
G01*
G37*
G36*
G01*
X146766000Y-84808750D02*
X146766000Y-85371250D01*
G75*
G02*
X146522250Y-85615000I-243750J0D01*
G01*
X146034750Y-85615000D01*
G75*
G02*
X145791000Y-85371250I0J243750D01*
G01*
X145791000Y-84808750D01*
G75*
G02*
X146034750Y-84565000I243750J0D01*
G01*
X146522250Y-84565000D01*
G75*
G02*
X146766000Y-84808750I0J-243750D01*
G01*
G37*
G36*
G01*
X148341000Y-84808750D02*
X148341000Y-85371250D01*
G75*
G02*
X148097250Y-85615000I-243750J0D01*
G01*
X147609750Y-85615000D01*
G75*
G02*
X147366000Y-85371250I0J243750D01*
G01*
X147366000Y-84808750D01*
G75*
G02*
X147609750Y-84565000I243750J0D01*
G01*
X148097250Y-84565000D01*
G75*
G02*
X148341000Y-84808750I0J-243750D01*
G01*
G37*
G36*
G01*
X146766000Y-83157750D02*
X146766000Y-83720250D01*
G75*
G02*
X146522250Y-83964000I-243750J0D01*
G01*
X146034750Y-83964000D01*
G75*
G02*
X145791000Y-83720250I0J243750D01*
G01*
X145791000Y-83157750D01*
G75*
G02*
X146034750Y-82914000I243750J0D01*
G01*
X146522250Y-82914000D01*
G75*
G02*
X146766000Y-83157750I0J-243750D01*
G01*
G37*
G36*
G01*
X148341000Y-83157750D02*
X148341000Y-83720250D01*
G75*
G02*
X148097250Y-83964000I-243750J0D01*
G01*
X147609750Y-83964000D01*
G75*
G02*
X147366000Y-83720250I0J243750D01*
G01*
X147366000Y-83157750D01*
G75*
G02*
X147609750Y-82914000I243750J0D01*
G01*
X148097250Y-82914000D01*
G75*
G02*
X148341000Y-83157750I0J-243750D01*
G01*
G37*
G36*
G01*
X138584250Y-82504000D02*
X138021750Y-82504000D01*
G75*
G02*
X137778000Y-82260250I0J243750D01*
G01*
X137778000Y-81772750D01*
G75*
G02*
X138021750Y-81529000I243750J0D01*
G01*
X138584250Y-81529000D01*
G75*
G02*
X138828000Y-81772750I0J-243750D01*
G01*
X138828000Y-82260250D01*
G75*
G02*
X138584250Y-82504000I-243750J0D01*
G01*
G37*
G36*
G01*
X138584250Y-84079000D02*
X138021750Y-84079000D01*
G75*
G02*
X137778000Y-83835250I0J243750D01*
G01*
X137778000Y-83347750D01*
G75*
G02*
X138021750Y-83104000I243750J0D01*
G01*
X138584250Y-83104000D01*
G75*
G02*
X138828000Y-83347750I0J-243750D01*
G01*
X138828000Y-83835250D01*
G75*
G02*
X138584250Y-84079000I-243750J0D01*
G01*
G37*
G36*
G01*
X132888000Y-80291250D02*
X132888000Y-79728750D01*
G75*
G02*
X133131750Y-79485000I243750J0D01*
G01*
X133619250Y-79485000D01*
G75*
G02*
X133863000Y-79728750I0J-243750D01*
G01*
X133863000Y-80291250D01*
G75*
G02*
X133619250Y-80535000I-243750J0D01*
G01*
X133131750Y-80535000D01*
G75*
G02*
X132888000Y-80291250I0J243750D01*
G01*
G37*
G36*
G01*
X131313000Y-80291250D02*
X131313000Y-79728750D01*
G75*
G02*
X131556750Y-79485000I243750J0D01*
G01*
X132044250Y-79485000D01*
G75*
G02*
X132288000Y-79728750I0J-243750D01*
G01*
X132288000Y-80291250D01*
G75*
G02*
X132044250Y-80535000I-243750J0D01*
G01*
X131556750Y-80535000D01*
G75*
G02*
X131313000Y-80291250I0J243750D01*
G01*
G37*
D12*
X152146000Y-76073000D03*
D16*
X142748000Y-86868000D03*
X127825500Y-86931500D03*
D12*
X149542500Y-76962000D03*
G36*
G01*
X147401000Y-78966750D02*
X147401000Y-79529250D01*
G75*
G02*
X147157250Y-79773000I-243750J0D01*
G01*
X146669750Y-79773000D01*
G75*
G02*
X146426000Y-79529250I0J243750D01*
G01*
X146426000Y-78966750D01*
G75*
G02*
X146669750Y-78723000I243750J0D01*
G01*
X147157250Y-78723000D01*
G75*
G02*
X147401000Y-78966750I0J-243750D01*
G01*
G37*
G36*
G01*
X148976000Y-78966750D02*
X148976000Y-79529250D01*
G75*
G02*
X148732250Y-79773000I-243750J0D01*
G01*
X148244750Y-79773000D01*
G75*
G02*
X148001000Y-79529250I0J243750D01*
G01*
X148001000Y-78966750D01*
G75*
G02*
X148244750Y-78723000I243750J0D01*
G01*
X148732250Y-78723000D01*
G75*
G02*
X148976000Y-78966750I0J-243750D01*
G01*
G37*
G36*
G01*
X147366000Y-87276250D02*
X147366000Y-86713750D01*
G75*
G02*
X147609750Y-86470000I243750J0D01*
G01*
X148097250Y-86470000D01*
G75*
G02*
X148341000Y-86713750I0J-243750D01*
G01*
X148341000Y-87276250D01*
G75*
G02*
X148097250Y-87520000I-243750J0D01*
G01*
X147609750Y-87520000D01*
G75*
G02*
X147366000Y-87276250I0J243750D01*
G01*
G37*
G36*
G01*
X145791000Y-87276250D02*
X145791000Y-86713750D01*
G75*
G02*
X146034750Y-86470000I243750J0D01*
G01*
X146522250Y-86470000D01*
G75*
G02*
X146766000Y-86713750I0J-243750D01*
G01*
X146766000Y-87276250D01*
G75*
G02*
X146522250Y-87520000I-243750J0D01*
G01*
X146034750Y-87520000D01*
G75*
G02*
X145791000Y-87276250I0J243750D01*
G01*
G37*
G36*
G01*
X131272000Y-81633750D02*
X131272000Y-82196250D01*
G75*
G02*
X131028250Y-82440000I-243750J0D01*
G01*
X130540750Y-82440000D01*
G75*
G02*
X130297000Y-82196250I0J243750D01*
G01*
X130297000Y-81633750D01*
G75*
G02*
X130540750Y-81390000I243750J0D01*
G01*
X131028250Y-81390000D01*
G75*
G02*
X131272000Y-81633750I0J-243750D01*
G01*
G37*
G36*
G01*
X132847000Y-81633750D02*
X132847000Y-82196250D01*
G75*
G02*
X132603250Y-82440000I-243750J0D01*
G01*
X132115750Y-82440000D01*
G75*
G02*
X131872000Y-82196250I0J243750D01*
G01*
X131872000Y-81633750D01*
G75*
G02*
X132115750Y-81390000I243750J0D01*
G01*
X132603250Y-81390000D01*
G75*
G02*
X132847000Y-81633750I0J-243750D01*
G01*
G37*
G36*
G01*
X132669000Y-78077750D02*
X132669000Y-78640250D01*
G75*
G02*
X132425250Y-78884000I-243750J0D01*
G01*
X131937750Y-78884000D01*
G75*
G02*
X131694000Y-78640250I0J243750D01*
G01*
X131694000Y-78077750D01*
G75*
G02*
X131937750Y-77834000I243750J0D01*
G01*
X132425250Y-77834000D01*
G75*
G02*
X132669000Y-78077750I0J-243750D01*
G01*
G37*
G36*
G01*
X134244000Y-78077750D02*
X134244000Y-78640250D01*
G75*
G02*
X134000250Y-78884000I-243750J0D01*
G01*
X133512750Y-78884000D01*
G75*
G02*
X133269000Y-78640250I0J243750D01*
G01*
X133269000Y-78077750D01*
G75*
G02*
X133512750Y-77834000I243750J0D01*
G01*
X134000250Y-77834000D01*
G75*
G02*
X134244000Y-78077750I0J-243750D01*
G01*
G37*
M02*
