G04 #@! TF.GenerationSoftware,KiCad,Pcbnew,5.1.6+dfsg1-1~bpo9+1*
G04 #@! TF.CreationDate,2021-11-05T21:37:23+01:00*
G04 #@! TF.ProjectId,sdrtrx-plutoclk,73647274-7278-42d7-906c-75746f636c6b,rev?*
G04 #@! TF.SameCoordinates,Original*
G04 #@! TF.FileFunction,Paste,Top*
G04 #@! TF.FilePolarity,Positive*
%FSLAX46Y46*%
G04 Gerber Fmt 4.6, Leading zero omitted, Abs format (unit mm)*
G04 Created by KiCad (PCBNEW 5.1.6+dfsg1-1~bpo9+1) date 2021-11-05 21:37:23*
%MOMM*%
%LPD*%
G01*
G04 APERTURE LIST*
%ADD10R,2.200000X1.050000*%
%ADD11R,1.050000X1.000000*%
%ADD12R,1.200000X0.650000*%
G04 APERTURE END LIST*
D10*
X151385000Y-81964000D03*
D11*
X149860000Y-83439000D03*
D10*
X151385000Y-84914000D03*
X128524000Y-79785000D03*
D11*
X130049000Y-78310000D03*
D10*
X128524000Y-76835000D03*
D12*
X135008000Y-85918000D03*
X135008000Y-87818000D03*
X132708000Y-87818000D03*
X132708000Y-86868000D03*
X132708000Y-85918000D03*
G36*
G01*
X137764000Y-86108250D02*
X137764000Y-85595750D01*
G75*
G02*
X137982750Y-85377000I218750J0D01*
G01*
X138420250Y-85377000D01*
G75*
G02*
X138639000Y-85595750I0J-218750D01*
G01*
X138639000Y-86108250D01*
G75*
G02*
X138420250Y-86327000I-218750J0D01*
G01*
X137982750Y-86327000D01*
G75*
G02*
X137764000Y-86108250I0J218750D01*
G01*
G37*
G36*
G01*
X136189000Y-86108250D02*
X136189000Y-85595750D01*
G75*
G02*
X136407750Y-85377000I218750J0D01*
G01*
X136845250Y-85377000D01*
G75*
G02*
X137064000Y-85595750I0J-218750D01*
G01*
X137064000Y-86108250D01*
G75*
G02*
X136845250Y-86327000I-218750J0D01*
G01*
X136407750Y-86327000D01*
G75*
G02*
X136189000Y-86108250I0J218750D01*
G01*
G37*
G36*
G01*
X130426750Y-87091000D02*
X130939250Y-87091000D01*
G75*
G02*
X131158000Y-87309750I0J-218750D01*
G01*
X131158000Y-87747250D01*
G75*
G02*
X130939250Y-87966000I-218750J0D01*
G01*
X130426750Y-87966000D01*
G75*
G02*
X130208000Y-87747250I0J218750D01*
G01*
X130208000Y-87309750D01*
G75*
G02*
X130426750Y-87091000I218750J0D01*
G01*
G37*
G36*
G01*
X130426750Y-85516000D02*
X130939250Y-85516000D01*
G75*
G02*
X131158000Y-85734750I0J-218750D01*
G01*
X131158000Y-86172250D01*
G75*
G02*
X130939250Y-86391000I-218750J0D01*
G01*
X130426750Y-86391000D01*
G75*
G02*
X130208000Y-86172250I0J218750D01*
G01*
X130208000Y-85734750D01*
G75*
G02*
X130426750Y-85516000I218750J0D01*
G01*
G37*
G36*
G01*
X139951750Y-83154000D02*
X140464250Y-83154000D01*
G75*
G02*
X140683000Y-83372750I0J-218750D01*
G01*
X140683000Y-83810250D01*
G75*
G02*
X140464250Y-84029000I-218750J0D01*
G01*
X139951750Y-84029000D01*
G75*
G02*
X139733000Y-83810250I0J218750D01*
G01*
X139733000Y-83372750D01*
G75*
G02*
X139951750Y-83154000I218750J0D01*
G01*
G37*
G36*
G01*
X139951750Y-81579000D02*
X140464250Y-81579000D01*
G75*
G02*
X140683000Y-81797750I0J-218750D01*
G01*
X140683000Y-82235250D01*
G75*
G02*
X140464250Y-82454000I-218750J0D01*
G01*
X139951750Y-82454000D01*
G75*
G02*
X139733000Y-82235250I0J218750D01*
G01*
X139733000Y-81797750D01*
G75*
G02*
X139951750Y-81579000I218750J0D01*
G01*
G37*
G36*
G01*
X139412000Y-77136000D02*
X139412000Y-76936000D01*
G75*
G02*
X139512000Y-76836000I100000J0D01*
G01*
X140762000Y-76836000D01*
G75*
G02*
X140862000Y-76936000I0J-100000D01*
G01*
X140862000Y-77136000D01*
G75*
G02*
X140762000Y-77236000I-100000J0D01*
G01*
X139512000Y-77236000D01*
G75*
G02*
X139412000Y-77136000I0J100000D01*
G01*
G37*
G36*
G01*
X139412000Y-77786000D02*
X139412000Y-77586000D01*
G75*
G02*
X139512000Y-77486000I100000J0D01*
G01*
X140762000Y-77486000D01*
G75*
G02*
X140862000Y-77586000I0J-100000D01*
G01*
X140862000Y-77786000D01*
G75*
G02*
X140762000Y-77886000I-100000J0D01*
G01*
X139512000Y-77886000D01*
G75*
G02*
X139412000Y-77786000I0J100000D01*
G01*
G37*
G36*
G01*
X139412000Y-78436000D02*
X139412000Y-78236000D01*
G75*
G02*
X139512000Y-78136000I100000J0D01*
G01*
X140762000Y-78136000D01*
G75*
G02*
X140862000Y-78236000I0J-100000D01*
G01*
X140862000Y-78436000D01*
G75*
G02*
X140762000Y-78536000I-100000J0D01*
G01*
X139512000Y-78536000D01*
G75*
G02*
X139412000Y-78436000I0J100000D01*
G01*
G37*
G36*
G01*
X139412000Y-79086000D02*
X139412000Y-78886000D01*
G75*
G02*
X139512000Y-78786000I100000J0D01*
G01*
X140762000Y-78786000D01*
G75*
G02*
X140862000Y-78886000I0J-100000D01*
G01*
X140862000Y-79086000D01*
G75*
G02*
X140762000Y-79186000I-100000J0D01*
G01*
X139512000Y-79186000D01*
G75*
G02*
X139412000Y-79086000I0J100000D01*
G01*
G37*
G36*
G01*
X139412000Y-79736000D02*
X139412000Y-79536000D01*
G75*
G02*
X139512000Y-79436000I100000J0D01*
G01*
X140762000Y-79436000D01*
G75*
G02*
X140862000Y-79536000I0J-100000D01*
G01*
X140862000Y-79736000D01*
G75*
G02*
X140762000Y-79836000I-100000J0D01*
G01*
X139512000Y-79836000D01*
G75*
G02*
X139412000Y-79736000I0J100000D01*
G01*
G37*
G36*
G01*
X139412000Y-80386000D02*
X139412000Y-80186000D01*
G75*
G02*
X139512000Y-80086000I100000J0D01*
G01*
X140762000Y-80086000D01*
G75*
G02*
X140862000Y-80186000I0J-100000D01*
G01*
X140862000Y-80386000D01*
G75*
G02*
X140762000Y-80486000I-100000J0D01*
G01*
X139512000Y-80486000D01*
G75*
G02*
X139412000Y-80386000I0J100000D01*
G01*
G37*
G36*
G01*
X135112000Y-80386000D02*
X135112000Y-80186000D01*
G75*
G02*
X135212000Y-80086000I100000J0D01*
G01*
X136462000Y-80086000D01*
G75*
G02*
X136562000Y-80186000I0J-100000D01*
G01*
X136562000Y-80386000D01*
G75*
G02*
X136462000Y-80486000I-100000J0D01*
G01*
X135212000Y-80486000D01*
G75*
G02*
X135112000Y-80386000I0J100000D01*
G01*
G37*
G36*
G01*
X135112000Y-79736000D02*
X135112000Y-79536000D01*
G75*
G02*
X135212000Y-79436000I100000J0D01*
G01*
X136462000Y-79436000D01*
G75*
G02*
X136562000Y-79536000I0J-100000D01*
G01*
X136562000Y-79736000D01*
G75*
G02*
X136462000Y-79836000I-100000J0D01*
G01*
X135212000Y-79836000D01*
G75*
G02*
X135112000Y-79736000I0J100000D01*
G01*
G37*
G36*
G01*
X135112000Y-79086000D02*
X135112000Y-78886000D01*
G75*
G02*
X135212000Y-78786000I100000J0D01*
G01*
X136462000Y-78786000D01*
G75*
G02*
X136562000Y-78886000I0J-100000D01*
G01*
X136562000Y-79086000D01*
G75*
G02*
X136462000Y-79186000I-100000J0D01*
G01*
X135212000Y-79186000D01*
G75*
G02*
X135112000Y-79086000I0J100000D01*
G01*
G37*
G36*
G01*
X135112000Y-78436000D02*
X135112000Y-78236000D01*
G75*
G02*
X135212000Y-78136000I100000J0D01*
G01*
X136462000Y-78136000D01*
G75*
G02*
X136562000Y-78236000I0J-100000D01*
G01*
X136562000Y-78436000D01*
G75*
G02*
X136462000Y-78536000I-100000J0D01*
G01*
X135212000Y-78536000D01*
G75*
G02*
X135112000Y-78436000I0J100000D01*
G01*
G37*
G36*
G01*
X135112000Y-77786000D02*
X135112000Y-77586000D01*
G75*
G02*
X135212000Y-77486000I100000J0D01*
G01*
X136462000Y-77486000D01*
G75*
G02*
X136562000Y-77586000I0J-100000D01*
G01*
X136562000Y-77786000D01*
G75*
G02*
X136462000Y-77886000I-100000J0D01*
G01*
X135212000Y-77886000D01*
G75*
G02*
X135112000Y-77786000I0J100000D01*
G01*
G37*
G36*
G01*
X135112000Y-77136000D02*
X135112000Y-76936000D01*
G75*
G02*
X135212000Y-76836000I100000J0D01*
G01*
X136462000Y-76836000D01*
G75*
G02*
X136562000Y-76936000I0J-100000D01*
G01*
X136562000Y-77136000D01*
G75*
G02*
X136462000Y-77236000I-100000J0D01*
G01*
X135212000Y-77236000D01*
G75*
G02*
X135112000Y-77136000I0J100000D01*
G01*
G37*
G36*
G01*
X144074500Y-77086750D02*
X144074500Y-77599250D01*
G75*
G02*
X143855750Y-77818000I-218750J0D01*
G01*
X143418250Y-77818000D01*
G75*
G02*
X143199500Y-77599250I0J218750D01*
G01*
X143199500Y-77086750D01*
G75*
G02*
X143418250Y-76868000I218750J0D01*
G01*
X143855750Y-76868000D01*
G75*
G02*
X144074500Y-77086750I0J-218750D01*
G01*
G37*
G36*
G01*
X145649500Y-77086750D02*
X145649500Y-77599250D01*
G75*
G02*
X145430750Y-77818000I-218750J0D01*
G01*
X144993250Y-77818000D01*
G75*
G02*
X144774500Y-77599250I0J218750D01*
G01*
X144774500Y-77086750D01*
G75*
G02*
X144993250Y-76868000I218750J0D01*
G01*
X145430750Y-76868000D01*
G75*
G02*
X145649500Y-77086750I0J-218750D01*
G01*
G37*
G36*
G01*
X144049000Y-78991750D02*
X144049000Y-79504250D01*
G75*
G02*
X143830250Y-79723000I-218750J0D01*
G01*
X143392750Y-79723000D01*
G75*
G02*
X143174000Y-79504250I0J218750D01*
G01*
X143174000Y-78991750D01*
G75*
G02*
X143392750Y-78773000I218750J0D01*
G01*
X143830250Y-78773000D01*
G75*
G02*
X144049000Y-78991750I0J-218750D01*
G01*
G37*
G36*
G01*
X145624000Y-78991750D02*
X145624000Y-79504250D01*
G75*
G02*
X145405250Y-79723000I-218750J0D01*
G01*
X144967750Y-79723000D01*
G75*
G02*
X144749000Y-79504250I0J218750D01*
G01*
X144749000Y-78991750D01*
G75*
G02*
X144967750Y-78773000I218750J0D01*
G01*
X145405250Y-78773000D01*
G75*
G02*
X145624000Y-78991750I0J-218750D01*
G01*
G37*
G36*
G01*
X146716000Y-84833750D02*
X146716000Y-85346250D01*
G75*
G02*
X146497250Y-85565000I-218750J0D01*
G01*
X146059750Y-85565000D01*
G75*
G02*
X145841000Y-85346250I0J218750D01*
G01*
X145841000Y-84833750D01*
G75*
G02*
X146059750Y-84615000I218750J0D01*
G01*
X146497250Y-84615000D01*
G75*
G02*
X146716000Y-84833750I0J-218750D01*
G01*
G37*
G36*
G01*
X148291000Y-84833750D02*
X148291000Y-85346250D01*
G75*
G02*
X148072250Y-85565000I-218750J0D01*
G01*
X147634750Y-85565000D01*
G75*
G02*
X147416000Y-85346250I0J218750D01*
G01*
X147416000Y-84833750D01*
G75*
G02*
X147634750Y-84615000I218750J0D01*
G01*
X148072250Y-84615000D01*
G75*
G02*
X148291000Y-84833750I0J-218750D01*
G01*
G37*
G36*
G01*
X146716000Y-83182750D02*
X146716000Y-83695250D01*
G75*
G02*
X146497250Y-83914000I-218750J0D01*
G01*
X146059750Y-83914000D01*
G75*
G02*
X145841000Y-83695250I0J218750D01*
G01*
X145841000Y-83182750D01*
G75*
G02*
X146059750Y-82964000I218750J0D01*
G01*
X146497250Y-82964000D01*
G75*
G02*
X146716000Y-83182750I0J-218750D01*
G01*
G37*
G36*
G01*
X148291000Y-83182750D02*
X148291000Y-83695250D01*
G75*
G02*
X148072250Y-83914000I-218750J0D01*
G01*
X147634750Y-83914000D01*
G75*
G02*
X147416000Y-83695250I0J218750D01*
G01*
X147416000Y-83182750D01*
G75*
G02*
X147634750Y-82964000I218750J0D01*
G01*
X148072250Y-82964000D01*
G75*
G02*
X148291000Y-83182750I0J-218750D01*
G01*
G37*
G36*
G01*
X138559250Y-82454000D02*
X138046750Y-82454000D01*
G75*
G02*
X137828000Y-82235250I0J218750D01*
G01*
X137828000Y-81797750D01*
G75*
G02*
X138046750Y-81579000I218750J0D01*
G01*
X138559250Y-81579000D01*
G75*
G02*
X138778000Y-81797750I0J-218750D01*
G01*
X138778000Y-82235250D01*
G75*
G02*
X138559250Y-82454000I-218750J0D01*
G01*
G37*
G36*
G01*
X138559250Y-84029000D02*
X138046750Y-84029000D01*
G75*
G02*
X137828000Y-83810250I0J218750D01*
G01*
X137828000Y-83372750D01*
G75*
G02*
X138046750Y-83154000I218750J0D01*
G01*
X138559250Y-83154000D01*
G75*
G02*
X138778000Y-83372750I0J-218750D01*
G01*
X138778000Y-83810250D01*
G75*
G02*
X138559250Y-84029000I-218750J0D01*
G01*
G37*
G36*
G01*
X132938000Y-80266250D02*
X132938000Y-79753750D01*
G75*
G02*
X133156750Y-79535000I218750J0D01*
G01*
X133594250Y-79535000D01*
G75*
G02*
X133813000Y-79753750I0J-218750D01*
G01*
X133813000Y-80266250D01*
G75*
G02*
X133594250Y-80485000I-218750J0D01*
G01*
X133156750Y-80485000D01*
G75*
G02*
X132938000Y-80266250I0J218750D01*
G01*
G37*
G36*
G01*
X131363000Y-80266250D02*
X131363000Y-79753750D01*
G75*
G02*
X131581750Y-79535000I218750J0D01*
G01*
X132019250Y-79535000D01*
G75*
G02*
X132238000Y-79753750I0J-218750D01*
G01*
X132238000Y-80266250D01*
G75*
G02*
X132019250Y-80485000I-218750J0D01*
G01*
X131581750Y-80485000D01*
G75*
G02*
X131363000Y-80266250I0J218750D01*
G01*
G37*
G36*
G01*
X147351000Y-78991750D02*
X147351000Y-79504250D01*
G75*
G02*
X147132250Y-79723000I-218750J0D01*
G01*
X146694750Y-79723000D01*
G75*
G02*
X146476000Y-79504250I0J218750D01*
G01*
X146476000Y-78991750D01*
G75*
G02*
X146694750Y-78773000I218750J0D01*
G01*
X147132250Y-78773000D01*
G75*
G02*
X147351000Y-78991750I0J-218750D01*
G01*
G37*
G36*
G01*
X148926000Y-78991750D02*
X148926000Y-79504250D01*
G75*
G02*
X148707250Y-79723000I-218750J0D01*
G01*
X148269750Y-79723000D01*
G75*
G02*
X148051000Y-79504250I0J218750D01*
G01*
X148051000Y-78991750D01*
G75*
G02*
X148269750Y-78773000I218750J0D01*
G01*
X148707250Y-78773000D01*
G75*
G02*
X148926000Y-78991750I0J-218750D01*
G01*
G37*
G36*
G01*
X147416000Y-87251250D02*
X147416000Y-86738750D01*
G75*
G02*
X147634750Y-86520000I218750J0D01*
G01*
X148072250Y-86520000D01*
G75*
G02*
X148291000Y-86738750I0J-218750D01*
G01*
X148291000Y-87251250D01*
G75*
G02*
X148072250Y-87470000I-218750J0D01*
G01*
X147634750Y-87470000D01*
G75*
G02*
X147416000Y-87251250I0J218750D01*
G01*
G37*
G36*
G01*
X145841000Y-87251250D02*
X145841000Y-86738750D01*
G75*
G02*
X146059750Y-86520000I218750J0D01*
G01*
X146497250Y-86520000D01*
G75*
G02*
X146716000Y-86738750I0J-218750D01*
G01*
X146716000Y-87251250D01*
G75*
G02*
X146497250Y-87470000I-218750J0D01*
G01*
X146059750Y-87470000D01*
G75*
G02*
X145841000Y-87251250I0J218750D01*
G01*
G37*
G36*
G01*
X131222000Y-81658750D02*
X131222000Y-82171250D01*
G75*
G02*
X131003250Y-82390000I-218750J0D01*
G01*
X130565750Y-82390000D01*
G75*
G02*
X130347000Y-82171250I0J218750D01*
G01*
X130347000Y-81658750D01*
G75*
G02*
X130565750Y-81440000I218750J0D01*
G01*
X131003250Y-81440000D01*
G75*
G02*
X131222000Y-81658750I0J-218750D01*
G01*
G37*
G36*
G01*
X132797000Y-81658750D02*
X132797000Y-82171250D01*
G75*
G02*
X132578250Y-82390000I-218750J0D01*
G01*
X132140750Y-82390000D01*
G75*
G02*
X131922000Y-82171250I0J218750D01*
G01*
X131922000Y-81658750D01*
G75*
G02*
X132140750Y-81440000I218750J0D01*
G01*
X132578250Y-81440000D01*
G75*
G02*
X132797000Y-81658750I0J-218750D01*
G01*
G37*
G36*
G01*
X132619000Y-78102750D02*
X132619000Y-78615250D01*
G75*
G02*
X132400250Y-78834000I-218750J0D01*
G01*
X131962750Y-78834000D01*
G75*
G02*
X131744000Y-78615250I0J218750D01*
G01*
X131744000Y-78102750D01*
G75*
G02*
X131962750Y-77884000I218750J0D01*
G01*
X132400250Y-77884000D01*
G75*
G02*
X132619000Y-78102750I0J-218750D01*
G01*
G37*
G36*
G01*
X134194000Y-78102750D02*
X134194000Y-78615250D01*
G75*
G02*
X133975250Y-78834000I-218750J0D01*
G01*
X133537750Y-78834000D01*
G75*
G02*
X133319000Y-78615250I0J218750D01*
G01*
X133319000Y-78102750D01*
G75*
G02*
X133537750Y-77884000I218750J0D01*
G01*
X133975250Y-77884000D01*
G75*
G02*
X134194000Y-78102750I0J-218750D01*
G01*
G37*
M02*
