M48
; DRILL file {KiCad 5.1.6+dfsg1-1~bpo9+1} date Fri Nov  5 21:37:25 2021
; FORMAT={-:-/ absolute / metric / decimal}
; #@! TF.CreationDate,2021-11-05T21:37:25+01:00
; #@! TF.GenerationSoftware,Kicad,Pcbnew,5.1.6+dfsg1-1~bpo9+1
; #@! TF.FileFunction,Plated,1,2,PTH
FMAT,2
METRIC
T1C0.400
%
G90
G05
T1
X126.301Y-81.216
X126.301Y-82.233
X126.301Y-83.248
X126.301Y-84.328
X130.302Y-88.963
X131.0Y-76.391
X131.445Y-88.963
X132.017Y-76.391
X133.032Y-76.391
X134.048Y-76.391
X135.509Y-81.724
X135.509Y-82.677
X135.509Y-83.693
X140.144Y-85.598
X140.144Y-86.614
X140.144Y-87.694
X140.144Y-88.773
X142.049Y-76.136
X145.415Y-88.773
X146.368Y-88.773
X146.749Y-76.263
X147.32Y-88.773
X148.272Y-88.773
X149.288Y-88.773
X150.114Y-80.264
X150.241Y-86.614
X150.241Y-88.773
X152.273Y-80.264
X152.337Y-86.614
X153.797Y-77.787
X153.797Y-78.867
X153.797Y-79.947
X153.797Y-81.026
T0
M30
