%FSLAX45Y45*%
G04 Gerber Fmt 4.5, Leading zero omitted, Abs format (unit mm)*
G04 Created by KiCad (PCBNEW 5.1.6+dfsg1-1~bpo9+1) date 2021-11-05 21:37:26*
%MOMM*%
%LPD*%
G01*
G04 APERTURE LIST*
%TA.AperFunction,Profile*%
%ADD10C,0.050000*%
%TD*%
%ADD11C,0.200000*%
%ADD12C,0.300000*%
G04 APERTURE END LIST*
D10*
X15500000Y-7500000D02*
X15500000Y-9000000D01*
X12500000Y-7500000D02*
X15500000Y-7500000D01*
X12500000Y-9000000D02*
X12500000Y-7500000D01*
X12500000Y-9000000D02*
X15500000Y-9000000D01*
D11*
X12610150Y-8101650D02*
X12650150Y-8141650D01*
X12650150Y-8101650D02*
X12610150Y-8141650D01*
X12610150Y-8203250D02*
X12650150Y-8243250D01*
X12650150Y-8203250D02*
X12610150Y-8243250D01*
X12610150Y-8304850D02*
X12650150Y-8344850D01*
X12650150Y-8304850D02*
X12610150Y-8344850D01*
X12610150Y-8412800D02*
X12650150Y-8452800D01*
X12650150Y-8412800D02*
X12610150Y-8452800D01*
X13010200Y-8876350D02*
X13050200Y-8916350D01*
X13050200Y-8876350D02*
X13010200Y-8916350D01*
X13080050Y-7619050D02*
X13120050Y-7659050D01*
X13120050Y-7619050D02*
X13080050Y-7659050D01*
X13124500Y-8876350D02*
X13164500Y-8916350D01*
X13164500Y-8876350D02*
X13124500Y-8916350D01*
X13181650Y-7619050D02*
X13221650Y-7659050D01*
X13221650Y-7619050D02*
X13181650Y-7659050D01*
X13283250Y-7619050D02*
X13323250Y-7659050D01*
X13323250Y-7619050D02*
X13283250Y-7659050D01*
X13384850Y-7619050D02*
X13424850Y-7659050D01*
X13424850Y-7619050D02*
X13384850Y-7659050D01*
X13530900Y-8152450D02*
X13570900Y-8192450D01*
X13570900Y-8152450D02*
X13530900Y-8192450D01*
X13530900Y-8247700D02*
X13570900Y-8287700D01*
X13570900Y-8247700D02*
X13530900Y-8287700D01*
X13530900Y-8349300D02*
X13570900Y-8389300D01*
X13570900Y-8349300D02*
X13530900Y-8389300D01*
X13994450Y-8539800D02*
X14034450Y-8579800D01*
X14034450Y-8539800D02*
X13994450Y-8579800D01*
X13994450Y-8641400D02*
X14034450Y-8681400D01*
X14034450Y-8641400D02*
X13994450Y-8681400D01*
X13994450Y-8749350D02*
X14034450Y-8789350D01*
X14034450Y-8749350D02*
X13994450Y-8789350D01*
X13994450Y-8857300D02*
X14034450Y-8897300D01*
X14034450Y-8857300D02*
X13994450Y-8897300D01*
X14184950Y-7593650D02*
X14224950Y-7633650D01*
X14224950Y-7593650D02*
X14184950Y-7633650D01*
X14521500Y-8857300D02*
X14561500Y-8897300D01*
X14561500Y-8857300D02*
X14521500Y-8897300D01*
X14616750Y-8857300D02*
X14656750Y-8897300D01*
X14656750Y-8857300D02*
X14616750Y-8897300D01*
X14654850Y-7606350D02*
X14694850Y-7646350D01*
X14694850Y-7606350D02*
X14654850Y-7646350D01*
X14712000Y-8857300D02*
X14752000Y-8897300D01*
X14752000Y-8857300D02*
X14712000Y-8897300D01*
X14807250Y-8857300D02*
X14847250Y-8897300D01*
X14847250Y-8857300D02*
X14807250Y-8897300D01*
X14908850Y-8857300D02*
X14948850Y-8897300D01*
X14948850Y-8857300D02*
X14908850Y-8897300D01*
X14991400Y-8006400D02*
X15031400Y-8046400D01*
X15031400Y-8006400D02*
X14991400Y-8046400D01*
X15004100Y-8641400D02*
X15044100Y-8681400D01*
X15044100Y-8641400D02*
X15004100Y-8681400D01*
X15004100Y-8857300D02*
X15044100Y-8897300D01*
X15044100Y-8857300D02*
X15004100Y-8897300D01*
X15207300Y-8006400D02*
X15247300Y-8046400D01*
X15247300Y-8006400D02*
X15207300Y-8046400D01*
X15213650Y-8641400D02*
X15253650Y-8681400D01*
X15253650Y-8641400D02*
X15213650Y-8681400D01*
X15359700Y-7758750D02*
X15399700Y-7798750D01*
X15399700Y-7758750D02*
X15359700Y-7798750D01*
X15359700Y-7866700D02*
X15399700Y-7906700D01*
X15399700Y-7866700D02*
X15359700Y-7906700D01*
X15359700Y-7974650D02*
X15399700Y-8014650D01*
X15399700Y-7974650D02*
X15359700Y-8014650D01*
X15359700Y-8082600D02*
X15399700Y-8122600D01*
X15399700Y-8082600D02*
X15359700Y-8122600D01*
D12*
X12783928Y-9468214D02*
X12783928Y-9168214D01*
X12855357Y-9168214D01*
X12898214Y-9182500D01*
X12926786Y-9211072D01*
X12941071Y-9239643D01*
X12955357Y-9296786D01*
X12955357Y-9339643D01*
X12941071Y-9396786D01*
X12926786Y-9425357D01*
X12898214Y-9453929D01*
X12855357Y-9468214D01*
X12783928Y-9468214D01*
X13083928Y-9468214D02*
X13083928Y-9268214D01*
X13083928Y-9325357D02*
X13098214Y-9296786D01*
X13112500Y-9282500D01*
X13141071Y-9268214D01*
X13169643Y-9268214D01*
X13269643Y-9468214D02*
X13269643Y-9268214D01*
X13269643Y-9168214D02*
X13255357Y-9182500D01*
X13269643Y-9196786D01*
X13283928Y-9182500D01*
X13269643Y-9168214D01*
X13269643Y-9196786D01*
X13455357Y-9468214D02*
X13426786Y-9453929D01*
X13412500Y-9425357D01*
X13412500Y-9168214D01*
X13612500Y-9468214D02*
X13583928Y-9453929D01*
X13569643Y-9425357D01*
X13569643Y-9168214D01*
X13955357Y-9468214D02*
X13955357Y-9168214D01*
X14055357Y-9382500D01*
X14155357Y-9168214D01*
X14155357Y-9468214D01*
X14426786Y-9468214D02*
X14426786Y-9311072D01*
X14412500Y-9282500D01*
X14383928Y-9268214D01*
X14326786Y-9268214D01*
X14298214Y-9282500D01*
X14426786Y-9453929D02*
X14398214Y-9468214D01*
X14326786Y-9468214D01*
X14298214Y-9453929D01*
X14283928Y-9425357D01*
X14283928Y-9396786D01*
X14298214Y-9368214D01*
X14326786Y-9353929D01*
X14398214Y-9353929D01*
X14426786Y-9339643D01*
X14569643Y-9268214D02*
X14569643Y-9568214D01*
X14569643Y-9282500D02*
X14598214Y-9268214D01*
X14655357Y-9268214D01*
X14683928Y-9282500D01*
X14698214Y-9296786D01*
X14712500Y-9325357D01*
X14712500Y-9411072D01*
X14698214Y-9439643D01*
X14683928Y-9453929D01*
X14655357Y-9468214D01*
X14598214Y-9468214D01*
X14569643Y-9453929D01*
X14841071Y-9439643D02*
X14855357Y-9453929D01*
X14841071Y-9468214D01*
X14826786Y-9453929D01*
X14841071Y-9439643D01*
X14841071Y-9468214D01*
X14841071Y-9282500D02*
X14855357Y-9296786D01*
X14841071Y-9311072D01*
X14826786Y-9296786D01*
X14841071Y-9282500D01*
X14841071Y-9311072D01*
X12457500Y-9942500D02*
X12497500Y-9982500D01*
X12497500Y-9942500D02*
X12457500Y-9982500D01*
X12841071Y-9798214D02*
X12869643Y-9798214D01*
X12898214Y-9812500D01*
X12912500Y-9826786D01*
X12926786Y-9855357D01*
X12941071Y-9912500D01*
X12941071Y-9983929D01*
X12926786Y-10041072D01*
X12912500Y-10069643D01*
X12898214Y-10083929D01*
X12869643Y-10098214D01*
X12841071Y-10098214D01*
X12812500Y-10083929D01*
X12798214Y-10069643D01*
X12783928Y-10041072D01*
X12769643Y-9983929D01*
X12769643Y-9912500D01*
X12783928Y-9855357D01*
X12798214Y-9826786D01*
X12812500Y-9812500D01*
X12841071Y-9798214D01*
X13069643Y-10069643D02*
X13083928Y-10083929D01*
X13069643Y-10098214D01*
X13055357Y-10083929D01*
X13069643Y-10069643D01*
X13069643Y-10098214D01*
X13341071Y-9898214D02*
X13341071Y-10098214D01*
X13269643Y-9783929D02*
X13198214Y-9998214D01*
X13383928Y-9998214D01*
X13555357Y-9798214D02*
X13583928Y-9798214D01*
X13612500Y-9812500D01*
X13626786Y-9826786D01*
X13641071Y-9855357D01*
X13655357Y-9912500D01*
X13655357Y-9983929D01*
X13641071Y-10041072D01*
X13626786Y-10069643D01*
X13612500Y-10083929D01*
X13583928Y-10098214D01*
X13555357Y-10098214D01*
X13526786Y-10083929D01*
X13512500Y-10069643D01*
X13498214Y-10041072D01*
X13483928Y-9983929D01*
X13483928Y-9912500D01*
X13498214Y-9855357D01*
X13512500Y-9826786D01*
X13526786Y-9812500D01*
X13555357Y-9798214D01*
X13783928Y-10098214D02*
X13783928Y-9898214D01*
X13783928Y-9926786D02*
X13798214Y-9912500D01*
X13826786Y-9898214D01*
X13869643Y-9898214D01*
X13898214Y-9912500D01*
X13912500Y-9941072D01*
X13912500Y-10098214D01*
X13912500Y-9941072D02*
X13926786Y-9912500D01*
X13955357Y-9898214D01*
X13998214Y-9898214D01*
X14026786Y-9912500D01*
X14041071Y-9941072D01*
X14041071Y-10098214D01*
X14183928Y-10098214D02*
X14183928Y-9898214D01*
X14183928Y-9926786D02*
X14198214Y-9912500D01*
X14226786Y-9898214D01*
X14269643Y-9898214D01*
X14298214Y-9912500D01*
X14312500Y-9941072D01*
X14312500Y-10098214D01*
X14312500Y-9941072D02*
X14326786Y-9912500D01*
X14355357Y-9898214D01*
X14398214Y-9898214D01*
X14426786Y-9912500D01*
X14441071Y-9941072D01*
X14441071Y-10098214D01*
X15026786Y-9783929D02*
X14769643Y-10169643D01*
X15412500Y-9798214D02*
X15441071Y-9798214D01*
X15469643Y-9812500D01*
X15483928Y-9826786D01*
X15498214Y-9855357D01*
X15512500Y-9912500D01*
X15512500Y-9983929D01*
X15498214Y-10041072D01*
X15483928Y-10069643D01*
X15469643Y-10083929D01*
X15441071Y-10098214D01*
X15412500Y-10098214D01*
X15383928Y-10083929D01*
X15369643Y-10069643D01*
X15355357Y-10041072D01*
X15341071Y-9983929D01*
X15341071Y-9912500D01*
X15355357Y-9855357D01*
X15369643Y-9826786D01*
X15383928Y-9812500D01*
X15412500Y-9798214D01*
X15641071Y-10069643D02*
X15655357Y-10083929D01*
X15641071Y-10098214D01*
X15626786Y-10083929D01*
X15641071Y-10069643D01*
X15641071Y-10098214D01*
X15841071Y-9798214D02*
X15869643Y-9798214D01*
X15898214Y-9812500D01*
X15912500Y-9826786D01*
X15926786Y-9855357D01*
X15941071Y-9912500D01*
X15941071Y-9983929D01*
X15926786Y-10041072D01*
X15912500Y-10069643D01*
X15898214Y-10083929D01*
X15869643Y-10098214D01*
X15841071Y-10098214D01*
X15812500Y-10083929D01*
X15798214Y-10069643D01*
X15783928Y-10041072D01*
X15769643Y-9983929D01*
X15769643Y-9912500D01*
X15783928Y-9855357D01*
X15798214Y-9826786D01*
X15812500Y-9812500D01*
X15841071Y-9798214D01*
X16226786Y-10098214D02*
X16055357Y-10098214D01*
X16141071Y-10098214D02*
X16141071Y-9798214D01*
X16112500Y-9841072D01*
X16083928Y-9869643D01*
X16055357Y-9883929D01*
X16483928Y-9798214D02*
X16426786Y-9798214D01*
X16398214Y-9812500D01*
X16383928Y-9826786D01*
X16355357Y-9869643D01*
X16341071Y-9926786D01*
X16341071Y-10041072D01*
X16355357Y-10069643D01*
X16369643Y-10083929D01*
X16398214Y-10098214D01*
X16455357Y-10098214D01*
X16483928Y-10083929D01*
X16498214Y-10069643D01*
X16512500Y-10041072D01*
X16512500Y-9969643D01*
X16498214Y-9941072D01*
X16483928Y-9926786D01*
X16455357Y-9912500D01*
X16398214Y-9912500D01*
X16369643Y-9926786D01*
X16355357Y-9941072D01*
X16341071Y-9969643D01*
X16626786Y-9798214D02*
X16626786Y-9855357D01*
X16741071Y-9798214D02*
X16741071Y-9855357D01*
X17183928Y-10212500D02*
X17169643Y-10198214D01*
X17141071Y-10155357D01*
X17126786Y-10126786D01*
X17112500Y-10083929D01*
X17098214Y-10012500D01*
X17098214Y-9955357D01*
X17112500Y-9883929D01*
X17126786Y-9841072D01*
X17141071Y-9812500D01*
X17169643Y-9769643D01*
X17183928Y-9755357D01*
X17269643Y-9798214D02*
X17455357Y-9798214D01*
X17355357Y-9912500D01*
X17398214Y-9912500D01*
X17426786Y-9926786D01*
X17441071Y-9941072D01*
X17455357Y-9969643D01*
X17455357Y-10041072D01*
X17441071Y-10069643D01*
X17426786Y-10083929D01*
X17398214Y-10098214D01*
X17312500Y-10098214D01*
X17283928Y-10083929D01*
X17269643Y-10069643D01*
X17555357Y-9798214D02*
X17741071Y-9798214D01*
X17641071Y-9912500D01*
X17683928Y-9912500D01*
X17712500Y-9926786D01*
X17726786Y-9941072D01*
X17741071Y-9969643D01*
X17741071Y-10041072D01*
X17726786Y-10069643D01*
X17712500Y-10083929D01*
X17683928Y-10098214D01*
X17598214Y-10098214D01*
X17569643Y-10083929D01*
X17555357Y-10069643D01*
X18098214Y-10098214D02*
X18098214Y-9798214D01*
X18226786Y-10098214D02*
X18226786Y-9941072D01*
X18212500Y-9912500D01*
X18183928Y-9898214D01*
X18141071Y-9898214D01*
X18112500Y-9912500D01*
X18098214Y-9926786D01*
X18412500Y-10098214D02*
X18383928Y-10083929D01*
X18369643Y-10069643D01*
X18355357Y-10041072D01*
X18355357Y-9955357D01*
X18369643Y-9926786D01*
X18383928Y-9912500D01*
X18412500Y-9898214D01*
X18455357Y-9898214D01*
X18483928Y-9912500D01*
X18498214Y-9926786D01*
X18512500Y-9955357D01*
X18512500Y-10041072D01*
X18498214Y-10069643D01*
X18483928Y-10083929D01*
X18455357Y-10098214D01*
X18412500Y-10098214D01*
X18683928Y-10098214D02*
X18655357Y-10083929D01*
X18641071Y-10055357D01*
X18641071Y-9798214D01*
X18912500Y-10083929D02*
X18883928Y-10098214D01*
X18826786Y-10098214D01*
X18798214Y-10083929D01*
X18783928Y-10055357D01*
X18783928Y-9941072D01*
X18798214Y-9912500D01*
X18826786Y-9898214D01*
X18883928Y-9898214D01*
X18912500Y-9912500D01*
X18926786Y-9941072D01*
X18926786Y-9969643D01*
X18783928Y-9998214D01*
X19041071Y-10083929D02*
X19069643Y-10098214D01*
X19126786Y-10098214D01*
X19155357Y-10083929D01*
X19169643Y-10055357D01*
X19169643Y-10041072D01*
X19155357Y-10012500D01*
X19126786Y-9998214D01*
X19083928Y-9998214D01*
X19055357Y-9983929D01*
X19041071Y-9955357D01*
X19041071Y-9941072D01*
X19055357Y-9912500D01*
X19083928Y-9898214D01*
X19126786Y-9898214D01*
X19155357Y-9912500D01*
X19269643Y-10212500D02*
X19283928Y-10198214D01*
X19312500Y-10155357D01*
X19326786Y-10126786D01*
X19341071Y-10083929D01*
X19355357Y-10012500D01*
X19355357Y-9955357D01*
X19341071Y-9883929D01*
X19326786Y-9841072D01*
X19312500Y-9812500D01*
X19283928Y-9769643D01*
X19269643Y-9755357D01*
M02*
