G04 #@! TF.GenerationSoftware,KiCad,Pcbnew,5.1.6+dfsg1-1~bpo9+1*
G04 #@! TF.CreationDate,2021-11-05T21:37:23+01:00*
G04 #@! TF.ProjectId,sdrtrx-plutoclk,73647274-7278-42d7-906c-75746f636c6b,rev?*
G04 #@! TF.SameCoordinates,Original*
G04 #@! TF.FileFunction,Copper,L1,Top*
G04 #@! TF.FilePolarity,Positive*
%FSLAX46Y46*%
G04 Gerber Fmt 4.6, Leading zero omitted, Abs format (unit mm)*
G04 Created by KiCad (PCBNEW 5.1.6+dfsg1-1~bpo9+1) date 2021-11-05 21:37:23*
%MOMM*%
%LPD*%
G01*
G04 APERTURE LIST*
G04 #@! TA.AperFunction,SMDPad,CuDef*
%ADD10R,1.000000X1.000000*%
G04 #@! TD*
G04 #@! TA.AperFunction,SMDPad,CuDef*
%ADD11R,2.200000X1.050000*%
G04 #@! TD*
G04 #@! TA.AperFunction,SMDPad,CuDef*
%ADD12R,1.050000X1.000000*%
G04 #@! TD*
G04 #@! TA.AperFunction,SMDPad,CuDef*
%ADD13R,1.200000X0.650000*%
G04 #@! TD*
G04 #@! TA.AperFunction,SMDPad,CuDef*
%ADD14R,3.000000X3.000000*%
G04 #@! TD*
G04 #@! TA.AperFunction,ViaPad*
%ADD15C,0.800000*%
G04 #@! TD*
G04 #@! TA.AperFunction,Conductor*
%ADD16C,0.254000*%
G04 #@! TD*
G04 #@! TA.AperFunction,Conductor*
%ADD17C,0.508000*%
G04 #@! TD*
G04 #@! TA.AperFunction,Conductor*
%ADD18C,0.381000*%
G04 #@! TD*
G04 APERTURE END LIST*
D10*
X136842500Y-87757000D03*
D11*
X151385000Y-81964000D03*
D12*
X149860000Y-83439000D03*
D11*
X151385000Y-84914000D03*
X128524000Y-79785000D03*
D12*
X130049000Y-78310000D03*
D11*
X128524000Y-76835000D03*
D10*
X152082500Y-88138000D03*
X128079500Y-82359500D03*
D13*
X135008000Y-85918000D03*
X135008000Y-87818000D03*
X132708000Y-87818000D03*
X132708000Y-86868000D03*
X132708000Y-85918000D03*
G04 #@! TA.AperFunction,SMDPad,CuDef*
G36*
G01*
X137764000Y-86108250D02*
X137764000Y-85595750D01*
G75*
G02*
X137982750Y-85377000I218750J0D01*
G01*
X138420250Y-85377000D01*
G75*
G02*
X138639000Y-85595750I0J-218750D01*
G01*
X138639000Y-86108250D01*
G75*
G02*
X138420250Y-86327000I-218750J0D01*
G01*
X137982750Y-86327000D01*
G75*
G02*
X137764000Y-86108250I0J218750D01*
G01*
G37*
G04 #@! TD.AperFunction*
G04 #@! TA.AperFunction,SMDPad,CuDef*
G36*
G01*
X136189000Y-86108250D02*
X136189000Y-85595750D01*
G75*
G02*
X136407750Y-85377000I218750J0D01*
G01*
X136845250Y-85377000D01*
G75*
G02*
X137064000Y-85595750I0J-218750D01*
G01*
X137064000Y-86108250D01*
G75*
G02*
X136845250Y-86327000I-218750J0D01*
G01*
X136407750Y-86327000D01*
G75*
G02*
X136189000Y-86108250I0J218750D01*
G01*
G37*
G04 #@! TD.AperFunction*
G04 #@! TA.AperFunction,SMDPad,CuDef*
G36*
G01*
X130426750Y-87091000D02*
X130939250Y-87091000D01*
G75*
G02*
X131158000Y-87309750I0J-218750D01*
G01*
X131158000Y-87747250D01*
G75*
G02*
X130939250Y-87966000I-218750J0D01*
G01*
X130426750Y-87966000D01*
G75*
G02*
X130208000Y-87747250I0J218750D01*
G01*
X130208000Y-87309750D01*
G75*
G02*
X130426750Y-87091000I218750J0D01*
G01*
G37*
G04 #@! TD.AperFunction*
G04 #@! TA.AperFunction,SMDPad,CuDef*
G36*
G01*
X130426750Y-85516000D02*
X130939250Y-85516000D01*
G75*
G02*
X131158000Y-85734750I0J-218750D01*
G01*
X131158000Y-86172250D01*
G75*
G02*
X130939250Y-86391000I-218750J0D01*
G01*
X130426750Y-86391000D01*
G75*
G02*
X130208000Y-86172250I0J218750D01*
G01*
X130208000Y-85734750D01*
G75*
G02*
X130426750Y-85516000I218750J0D01*
G01*
G37*
G04 #@! TD.AperFunction*
G04 #@! TA.AperFunction,SMDPad,CuDef*
G36*
G01*
X139951750Y-83154000D02*
X140464250Y-83154000D01*
G75*
G02*
X140683000Y-83372750I0J-218750D01*
G01*
X140683000Y-83810250D01*
G75*
G02*
X140464250Y-84029000I-218750J0D01*
G01*
X139951750Y-84029000D01*
G75*
G02*
X139733000Y-83810250I0J218750D01*
G01*
X139733000Y-83372750D01*
G75*
G02*
X139951750Y-83154000I218750J0D01*
G01*
G37*
G04 #@! TD.AperFunction*
G04 #@! TA.AperFunction,SMDPad,CuDef*
G36*
G01*
X139951750Y-81579000D02*
X140464250Y-81579000D01*
G75*
G02*
X140683000Y-81797750I0J-218750D01*
G01*
X140683000Y-82235250D01*
G75*
G02*
X140464250Y-82454000I-218750J0D01*
G01*
X139951750Y-82454000D01*
G75*
G02*
X139733000Y-82235250I0J218750D01*
G01*
X139733000Y-81797750D01*
G75*
G02*
X139951750Y-81579000I218750J0D01*
G01*
G37*
G04 #@! TD.AperFunction*
G04 #@! TA.AperFunction,SMDPad,CuDef*
G36*
G01*
X139412000Y-77136000D02*
X139412000Y-76936000D01*
G75*
G02*
X139512000Y-76836000I100000J0D01*
G01*
X140762000Y-76836000D01*
G75*
G02*
X140862000Y-76936000I0J-100000D01*
G01*
X140862000Y-77136000D01*
G75*
G02*
X140762000Y-77236000I-100000J0D01*
G01*
X139512000Y-77236000D01*
G75*
G02*
X139412000Y-77136000I0J100000D01*
G01*
G37*
G04 #@! TD.AperFunction*
G04 #@! TA.AperFunction,SMDPad,CuDef*
G36*
G01*
X139412000Y-77786000D02*
X139412000Y-77586000D01*
G75*
G02*
X139512000Y-77486000I100000J0D01*
G01*
X140762000Y-77486000D01*
G75*
G02*
X140862000Y-77586000I0J-100000D01*
G01*
X140862000Y-77786000D01*
G75*
G02*
X140762000Y-77886000I-100000J0D01*
G01*
X139512000Y-77886000D01*
G75*
G02*
X139412000Y-77786000I0J100000D01*
G01*
G37*
G04 #@! TD.AperFunction*
G04 #@! TA.AperFunction,SMDPad,CuDef*
G36*
G01*
X139412000Y-78436000D02*
X139412000Y-78236000D01*
G75*
G02*
X139512000Y-78136000I100000J0D01*
G01*
X140762000Y-78136000D01*
G75*
G02*
X140862000Y-78236000I0J-100000D01*
G01*
X140862000Y-78436000D01*
G75*
G02*
X140762000Y-78536000I-100000J0D01*
G01*
X139512000Y-78536000D01*
G75*
G02*
X139412000Y-78436000I0J100000D01*
G01*
G37*
G04 #@! TD.AperFunction*
G04 #@! TA.AperFunction,SMDPad,CuDef*
G36*
G01*
X139412000Y-79086000D02*
X139412000Y-78886000D01*
G75*
G02*
X139512000Y-78786000I100000J0D01*
G01*
X140762000Y-78786000D01*
G75*
G02*
X140862000Y-78886000I0J-100000D01*
G01*
X140862000Y-79086000D01*
G75*
G02*
X140762000Y-79186000I-100000J0D01*
G01*
X139512000Y-79186000D01*
G75*
G02*
X139412000Y-79086000I0J100000D01*
G01*
G37*
G04 #@! TD.AperFunction*
G04 #@! TA.AperFunction,SMDPad,CuDef*
G36*
G01*
X139412000Y-79736000D02*
X139412000Y-79536000D01*
G75*
G02*
X139512000Y-79436000I100000J0D01*
G01*
X140762000Y-79436000D01*
G75*
G02*
X140862000Y-79536000I0J-100000D01*
G01*
X140862000Y-79736000D01*
G75*
G02*
X140762000Y-79836000I-100000J0D01*
G01*
X139512000Y-79836000D01*
G75*
G02*
X139412000Y-79736000I0J100000D01*
G01*
G37*
G04 #@! TD.AperFunction*
G04 #@! TA.AperFunction,SMDPad,CuDef*
G36*
G01*
X139412000Y-80386000D02*
X139412000Y-80186000D01*
G75*
G02*
X139512000Y-80086000I100000J0D01*
G01*
X140762000Y-80086000D01*
G75*
G02*
X140862000Y-80186000I0J-100000D01*
G01*
X140862000Y-80386000D01*
G75*
G02*
X140762000Y-80486000I-100000J0D01*
G01*
X139512000Y-80486000D01*
G75*
G02*
X139412000Y-80386000I0J100000D01*
G01*
G37*
G04 #@! TD.AperFunction*
G04 #@! TA.AperFunction,SMDPad,CuDef*
G36*
G01*
X135112000Y-80386000D02*
X135112000Y-80186000D01*
G75*
G02*
X135212000Y-80086000I100000J0D01*
G01*
X136462000Y-80086000D01*
G75*
G02*
X136562000Y-80186000I0J-100000D01*
G01*
X136562000Y-80386000D01*
G75*
G02*
X136462000Y-80486000I-100000J0D01*
G01*
X135212000Y-80486000D01*
G75*
G02*
X135112000Y-80386000I0J100000D01*
G01*
G37*
G04 #@! TD.AperFunction*
G04 #@! TA.AperFunction,SMDPad,CuDef*
G36*
G01*
X135112000Y-79736000D02*
X135112000Y-79536000D01*
G75*
G02*
X135212000Y-79436000I100000J0D01*
G01*
X136462000Y-79436000D01*
G75*
G02*
X136562000Y-79536000I0J-100000D01*
G01*
X136562000Y-79736000D01*
G75*
G02*
X136462000Y-79836000I-100000J0D01*
G01*
X135212000Y-79836000D01*
G75*
G02*
X135112000Y-79736000I0J100000D01*
G01*
G37*
G04 #@! TD.AperFunction*
G04 #@! TA.AperFunction,SMDPad,CuDef*
G36*
G01*
X135112000Y-79086000D02*
X135112000Y-78886000D01*
G75*
G02*
X135212000Y-78786000I100000J0D01*
G01*
X136462000Y-78786000D01*
G75*
G02*
X136562000Y-78886000I0J-100000D01*
G01*
X136562000Y-79086000D01*
G75*
G02*
X136462000Y-79186000I-100000J0D01*
G01*
X135212000Y-79186000D01*
G75*
G02*
X135112000Y-79086000I0J100000D01*
G01*
G37*
G04 #@! TD.AperFunction*
G04 #@! TA.AperFunction,SMDPad,CuDef*
G36*
G01*
X135112000Y-78436000D02*
X135112000Y-78236000D01*
G75*
G02*
X135212000Y-78136000I100000J0D01*
G01*
X136462000Y-78136000D01*
G75*
G02*
X136562000Y-78236000I0J-100000D01*
G01*
X136562000Y-78436000D01*
G75*
G02*
X136462000Y-78536000I-100000J0D01*
G01*
X135212000Y-78536000D01*
G75*
G02*
X135112000Y-78436000I0J100000D01*
G01*
G37*
G04 #@! TD.AperFunction*
G04 #@! TA.AperFunction,SMDPad,CuDef*
G36*
G01*
X135112000Y-77786000D02*
X135112000Y-77586000D01*
G75*
G02*
X135212000Y-77486000I100000J0D01*
G01*
X136462000Y-77486000D01*
G75*
G02*
X136562000Y-77586000I0J-100000D01*
G01*
X136562000Y-77786000D01*
G75*
G02*
X136462000Y-77886000I-100000J0D01*
G01*
X135212000Y-77886000D01*
G75*
G02*
X135112000Y-77786000I0J100000D01*
G01*
G37*
G04 #@! TD.AperFunction*
G04 #@! TA.AperFunction,SMDPad,CuDef*
G36*
G01*
X135112000Y-77136000D02*
X135112000Y-76936000D01*
G75*
G02*
X135212000Y-76836000I100000J0D01*
G01*
X136462000Y-76836000D01*
G75*
G02*
X136562000Y-76936000I0J-100000D01*
G01*
X136562000Y-77136000D01*
G75*
G02*
X136462000Y-77236000I-100000J0D01*
G01*
X135212000Y-77236000D01*
G75*
G02*
X135112000Y-77136000I0J100000D01*
G01*
G37*
G04 #@! TD.AperFunction*
G04 #@! TA.AperFunction,SMDPad,CuDef*
G36*
G01*
X144074500Y-77086750D02*
X144074500Y-77599250D01*
G75*
G02*
X143855750Y-77818000I-218750J0D01*
G01*
X143418250Y-77818000D01*
G75*
G02*
X143199500Y-77599250I0J218750D01*
G01*
X143199500Y-77086750D01*
G75*
G02*
X143418250Y-76868000I218750J0D01*
G01*
X143855750Y-76868000D01*
G75*
G02*
X144074500Y-77086750I0J-218750D01*
G01*
G37*
G04 #@! TD.AperFunction*
G04 #@! TA.AperFunction,SMDPad,CuDef*
G36*
G01*
X145649500Y-77086750D02*
X145649500Y-77599250D01*
G75*
G02*
X145430750Y-77818000I-218750J0D01*
G01*
X144993250Y-77818000D01*
G75*
G02*
X144774500Y-77599250I0J218750D01*
G01*
X144774500Y-77086750D01*
G75*
G02*
X144993250Y-76868000I218750J0D01*
G01*
X145430750Y-76868000D01*
G75*
G02*
X145649500Y-77086750I0J-218750D01*
G01*
G37*
G04 #@! TD.AperFunction*
G04 #@! TA.AperFunction,SMDPad,CuDef*
G36*
G01*
X144049000Y-78991750D02*
X144049000Y-79504250D01*
G75*
G02*
X143830250Y-79723000I-218750J0D01*
G01*
X143392750Y-79723000D01*
G75*
G02*
X143174000Y-79504250I0J218750D01*
G01*
X143174000Y-78991750D01*
G75*
G02*
X143392750Y-78773000I218750J0D01*
G01*
X143830250Y-78773000D01*
G75*
G02*
X144049000Y-78991750I0J-218750D01*
G01*
G37*
G04 #@! TD.AperFunction*
G04 #@! TA.AperFunction,SMDPad,CuDef*
G36*
G01*
X145624000Y-78991750D02*
X145624000Y-79504250D01*
G75*
G02*
X145405250Y-79723000I-218750J0D01*
G01*
X144967750Y-79723000D01*
G75*
G02*
X144749000Y-79504250I0J218750D01*
G01*
X144749000Y-78991750D01*
G75*
G02*
X144967750Y-78773000I218750J0D01*
G01*
X145405250Y-78773000D01*
G75*
G02*
X145624000Y-78991750I0J-218750D01*
G01*
G37*
G04 #@! TD.AperFunction*
G04 #@! TA.AperFunction,SMDPad,CuDef*
G36*
G01*
X146716000Y-84833750D02*
X146716000Y-85346250D01*
G75*
G02*
X146497250Y-85565000I-218750J0D01*
G01*
X146059750Y-85565000D01*
G75*
G02*
X145841000Y-85346250I0J218750D01*
G01*
X145841000Y-84833750D01*
G75*
G02*
X146059750Y-84615000I218750J0D01*
G01*
X146497250Y-84615000D01*
G75*
G02*
X146716000Y-84833750I0J-218750D01*
G01*
G37*
G04 #@! TD.AperFunction*
G04 #@! TA.AperFunction,SMDPad,CuDef*
G36*
G01*
X148291000Y-84833750D02*
X148291000Y-85346250D01*
G75*
G02*
X148072250Y-85565000I-218750J0D01*
G01*
X147634750Y-85565000D01*
G75*
G02*
X147416000Y-85346250I0J218750D01*
G01*
X147416000Y-84833750D01*
G75*
G02*
X147634750Y-84615000I218750J0D01*
G01*
X148072250Y-84615000D01*
G75*
G02*
X148291000Y-84833750I0J-218750D01*
G01*
G37*
G04 #@! TD.AperFunction*
G04 #@! TA.AperFunction,SMDPad,CuDef*
G36*
G01*
X146716000Y-83182750D02*
X146716000Y-83695250D01*
G75*
G02*
X146497250Y-83914000I-218750J0D01*
G01*
X146059750Y-83914000D01*
G75*
G02*
X145841000Y-83695250I0J218750D01*
G01*
X145841000Y-83182750D01*
G75*
G02*
X146059750Y-82964000I218750J0D01*
G01*
X146497250Y-82964000D01*
G75*
G02*
X146716000Y-83182750I0J-218750D01*
G01*
G37*
G04 #@! TD.AperFunction*
G04 #@! TA.AperFunction,SMDPad,CuDef*
G36*
G01*
X148291000Y-83182750D02*
X148291000Y-83695250D01*
G75*
G02*
X148072250Y-83914000I-218750J0D01*
G01*
X147634750Y-83914000D01*
G75*
G02*
X147416000Y-83695250I0J218750D01*
G01*
X147416000Y-83182750D01*
G75*
G02*
X147634750Y-82964000I218750J0D01*
G01*
X148072250Y-82964000D01*
G75*
G02*
X148291000Y-83182750I0J-218750D01*
G01*
G37*
G04 #@! TD.AperFunction*
G04 #@! TA.AperFunction,SMDPad,CuDef*
G36*
G01*
X138559250Y-82454000D02*
X138046750Y-82454000D01*
G75*
G02*
X137828000Y-82235250I0J218750D01*
G01*
X137828000Y-81797750D01*
G75*
G02*
X138046750Y-81579000I218750J0D01*
G01*
X138559250Y-81579000D01*
G75*
G02*
X138778000Y-81797750I0J-218750D01*
G01*
X138778000Y-82235250D01*
G75*
G02*
X138559250Y-82454000I-218750J0D01*
G01*
G37*
G04 #@! TD.AperFunction*
G04 #@! TA.AperFunction,SMDPad,CuDef*
G36*
G01*
X138559250Y-84029000D02*
X138046750Y-84029000D01*
G75*
G02*
X137828000Y-83810250I0J218750D01*
G01*
X137828000Y-83372750D01*
G75*
G02*
X138046750Y-83154000I218750J0D01*
G01*
X138559250Y-83154000D01*
G75*
G02*
X138778000Y-83372750I0J-218750D01*
G01*
X138778000Y-83810250D01*
G75*
G02*
X138559250Y-84029000I-218750J0D01*
G01*
G37*
G04 #@! TD.AperFunction*
G04 #@! TA.AperFunction,SMDPad,CuDef*
G36*
G01*
X132938000Y-80266250D02*
X132938000Y-79753750D01*
G75*
G02*
X133156750Y-79535000I218750J0D01*
G01*
X133594250Y-79535000D01*
G75*
G02*
X133813000Y-79753750I0J-218750D01*
G01*
X133813000Y-80266250D01*
G75*
G02*
X133594250Y-80485000I-218750J0D01*
G01*
X133156750Y-80485000D01*
G75*
G02*
X132938000Y-80266250I0J218750D01*
G01*
G37*
G04 #@! TD.AperFunction*
G04 #@! TA.AperFunction,SMDPad,CuDef*
G36*
G01*
X131363000Y-80266250D02*
X131363000Y-79753750D01*
G75*
G02*
X131581750Y-79535000I218750J0D01*
G01*
X132019250Y-79535000D01*
G75*
G02*
X132238000Y-79753750I0J-218750D01*
G01*
X132238000Y-80266250D01*
G75*
G02*
X132019250Y-80485000I-218750J0D01*
G01*
X131581750Y-80485000D01*
G75*
G02*
X131363000Y-80266250I0J218750D01*
G01*
G37*
G04 #@! TD.AperFunction*
D10*
X152146000Y-76073000D03*
D14*
X142748000Y-86868000D03*
X127825500Y-86931500D03*
D10*
X149542500Y-76962000D03*
G04 #@! TA.AperFunction,SMDPad,CuDef*
G36*
G01*
X147351000Y-78991750D02*
X147351000Y-79504250D01*
G75*
G02*
X147132250Y-79723000I-218750J0D01*
G01*
X146694750Y-79723000D01*
G75*
G02*
X146476000Y-79504250I0J218750D01*
G01*
X146476000Y-78991750D01*
G75*
G02*
X146694750Y-78773000I218750J0D01*
G01*
X147132250Y-78773000D01*
G75*
G02*
X147351000Y-78991750I0J-218750D01*
G01*
G37*
G04 #@! TD.AperFunction*
G04 #@! TA.AperFunction,SMDPad,CuDef*
G36*
G01*
X148926000Y-78991750D02*
X148926000Y-79504250D01*
G75*
G02*
X148707250Y-79723000I-218750J0D01*
G01*
X148269750Y-79723000D01*
G75*
G02*
X148051000Y-79504250I0J218750D01*
G01*
X148051000Y-78991750D01*
G75*
G02*
X148269750Y-78773000I218750J0D01*
G01*
X148707250Y-78773000D01*
G75*
G02*
X148926000Y-78991750I0J-218750D01*
G01*
G37*
G04 #@! TD.AperFunction*
G04 #@! TA.AperFunction,SMDPad,CuDef*
G36*
G01*
X147416000Y-87251250D02*
X147416000Y-86738750D01*
G75*
G02*
X147634750Y-86520000I218750J0D01*
G01*
X148072250Y-86520000D01*
G75*
G02*
X148291000Y-86738750I0J-218750D01*
G01*
X148291000Y-87251250D01*
G75*
G02*
X148072250Y-87470000I-218750J0D01*
G01*
X147634750Y-87470000D01*
G75*
G02*
X147416000Y-87251250I0J218750D01*
G01*
G37*
G04 #@! TD.AperFunction*
G04 #@! TA.AperFunction,SMDPad,CuDef*
G36*
G01*
X145841000Y-87251250D02*
X145841000Y-86738750D01*
G75*
G02*
X146059750Y-86520000I218750J0D01*
G01*
X146497250Y-86520000D01*
G75*
G02*
X146716000Y-86738750I0J-218750D01*
G01*
X146716000Y-87251250D01*
G75*
G02*
X146497250Y-87470000I-218750J0D01*
G01*
X146059750Y-87470000D01*
G75*
G02*
X145841000Y-87251250I0J218750D01*
G01*
G37*
G04 #@! TD.AperFunction*
G04 #@! TA.AperFunction,SMDPad,CuDef*
G36*
G01*
X131222000Y-81658750D02*
X131222000Y-82171250D01*
G75*
G02*
X131003250Y-82390000I-218750J0D01*
G01*
X130565750Y-82390000D01*
G75*
G02*
X130347000Y-82171250I0J218750D01*
G01*
X130347000Y-81658750D01*
G75*
G02*
X130565750Y-81440000I218750J0D01*
G01*
X131003250Y-81440000D01*
G75*
G02*
X131222000Y-81658750I0J-218750D01*
G01*
G37*
G04 #@! TD.AperFunction*
G04 #@! TA.AperFunction,SMDPad,CuDef*
G36*
G01*
X132797000Y-81658750D02*
X132797000Y-82171250D01*
G75*
G02*
X132578250Y-82390000I-218750J0D01*
G01*
X132140750Y-82390000D01*
G75*
G02*
X131922000Y-82171250I0J218750D01*
G01*
X131922000Y-81658750D01*
G75*
G02*
X132140750Y-81440000I218750J0D01*
G01*
X132578250Y-81440000D01*
G75*
G02*
X132797000Y-81658750I0J-218750D01*
G01*
G37*
G04 #@! TD.AperFunction*
G04 #@! TA.AperFunction,SMDPad,CuDef*
G36*
G01*
X132619000Y-78102750D02*
X132619000Y-78615250D01*
G75*
G02*
X132400250Y-78834000I-218750J0D01*
G01*
X131962750Y-78834000D01*
G75*
G02*
X131744000Y-78615250I0J218750D01*
G01*
X131744000Y-78102750D01*
G75*
G02*
X131962750Y-77884000I218750J0D01*
G01*
X132400250Y-77884000D01*
G75*
G02*
X132619000Y-78102750I0J-218750D01*
G01*
G37*
G04 #@! TD.AperFunction*
G04 #@! TA.AperFunction,SMDPad,CuDef*
G36*
G01*
X134194000Y-78102750D02*
X134194000Y-78615250D01*
G75*
G02*
X133975250Y-78834000I-218750J0D01*
G01*
X133537750Y-78834000D01*
G75*
G02*
X133319000Y-78615250I0J218750D01*
G01*
X133319000Y-78102750D01*
G75*
G02*
X133537750Y-77884000I218750J0D01*
G01*
X133975250Y-77884000D01*
G75*
G02*
X134194000Y-78102750I0J-218750D01*
G01*
G37*
G04 #@! TD.AperFunction*
D15*
X145415000Y-88773000D03*
X146367500Y-88773000D03*
X147320000Y-88773000D03*
X148272500Y-88773000D03*
X149288500Y-88773000D03*
X150241000Y-88773000D03*
X140144500Y-88773000D03*
X150241000Y-86614000D03*
X152336500Y-86614000D03*
X152273000Y-80264000D03*
X150114000Y-80264000D03*
X131000500Y-76390500D03*
X132016500Y-76390500D03*
X133032500Y-76390500D03*
X134048500Y-76390500D03*
X126301500Y-81216500D03*
X126301500Y-82232500D03*
X126301500Y-83248500D03*
X126301500Y-84328000D03*
X131445000Y-88963500D03*
X140144500Y-86614000D03*
X140144500Y-85598000D03*
X153797000Y-77787500D03*
X153797000Y-78867000D03*
X153797000Y-79946500D03*
X153797000Y-81026000D03*
X142049500Y-76136500D03*
X146748500Y-76263500D03*
X130302000Y-88963500D03*
X140144500Y-87693500D03*
X135509000Y-81724500D03*
X135509000Y-82677000D03*
X135509000Y-83693000D03*
D16*
X130024000Y-78359000D02*
X132181500Y-78359000D01*
X133731000Y-78384500D02*
X133756500Y-78359000D01*
X135814000Y-78359000D02*
X135837000Y-78336000D01*
X133756500Y-78359000D02*
X135814000Y-78359000D01*
X133756500Y-78397000D02*
X133756500Y-78359000D01*
X132105500Y-80010000D02*
X133756500Y-78359000D01*
X131800500Y-80010000D02*
X132105500Y-80010000D01*
D17*
X130683000Y-87528500D02*
X130683000Y-87439500D01*
X131254500Y-86868000D02*
X132708000Y-86868000D01*
X130683000Y-87439500D02*
X131254500Y-86868000D01*
D16*
X141668500Y-82613500D02*
X142049500Y-82994500D01*
D18*
X135837000Y-77036000D02*
X134313000Y-77036000D01*
X134048500Y-76771500D02*
X134048500Y-76390500D01*
X134313000Y-77036000D02*
X134048500Y-76771500D01*
X140137000Y-77036000D02*
X141869500Y-77036000D01*
X142176500Y-77343000D02*
X143637000Y-77343000D01*
X141869500Y-77036000D02*
X142176500Y-77343000D01*
X133096000Y-83693000D02*
X128206500Y-83693000D01*
X134740000Y-79636000D02*
X134429500Y-79946500D01*
X135837000Y-79636000D02*
X134740000Y-79636000D01*
X134429500Y-79946500D02*
X134429500Y-82359500D01*
X134429500Y-82359500D02*
X133096000Y-83693000D01*
X140905688Y-79636000D02*
X141597188Y-80327500D01*
X140137000Y-79636000D02*
X140905688Y-79636000D01*
X141597188Y-80327500D02*
X141597188Y-82859688D01*
X141597188Y-82859688D02*
X141859000Y-83121500D01*
D16*
X133352324Y-80010000D02*
X133159500Y-80010000D01*
X135837000Y-78986000D02*
X134376324Y-78986000D01*
X133375500Y-79986824D02*
X134376324Y-78986000D01*
X133375500Y-80010000D02*
X133375500Y-79986824D01*
X132359500Y-81915000D02*
X132359500Y-81445000D01*
X132359500Y-81445000D02*
X132842000Y-80962500D01*
X132842000Y-80962500D02*
X133159500Y-80962500D01*
X133375500Y-80746500D02*
X133375500Y-80010000D01*
X133159500Y-80962500D02*
X133375500Y-80746500D01*
X146278500Y-86995000D02*
X146278500Y-85090000D01*
X145212000Y-79222500D02*
X145186500Y-79248000D01*
X145212000Y-77343000D02*
X145212000Y-79222500D01*
X145186500Y-79248000D02*
X146913500Y-79248000D01*
X148590000Y-76962000D02*
X149542500Y-76962000D01*
X148488500Y-77063500D02*
X148590000Y-76962000D01*
X148488500Y-79248000D02*
X148488500Y-77063500D01*
X147853500Y-85090000D02*
X147853500Y-83439000D01*
X147853500Y-83439000D02*
X149860000Y-83439000D01*
D17*
X136560500Y-85918000D02*
X136626500Y-85852000D01*
X135008000Y-85918000D02*
X136560500Y-85918000D01*
D18*
X137795000Y-80708500D02*
X137160000Y-81343500D01*
X135837000Y-77686000D02*
X137566500Y-77686000D01*
X137566500Y-77686000D02*
X137794384Y-77913884D01*
X137160000Y-81343500D02*
X137160000Y-83058000D01*
X137693500Y-83591500D02*
X138303000Y-83591500D01*
X137160000Y-83058000D02*
X137693500Y-83591500D01*
D16*
X137563000Y-80286000D02*
X137794384Y-80517384D01*
X135837000Y-80286000D02*
X137563000Y-80286000D01*
X140137000Y-77686000D02*
X138595000Y-77686000D01*
X138367116Y-77913884D02*
X137794384Y-77913884D01*
X138595000Y-77686000D02*
X138367116Y-77913884D01*
D17*
X136626500Y-85852000D02*
X136626500Y-84607500D01*
X137642500Y-83591500D02*
X138303000Y-83591500D01*
X136626500Y-84607500D02*
X137642500Y-83591500D01*
D18*
X137795000Y-80708500D02*
X137795000Y-80264000D01*
X138077501Y-79981499D02*
X138077501Y-78705001D01*
X137795000Y-80264000D02*
X138077501Y-79981499D01*
X138077501Y-78705001D02*
X138049000Y-78676500D01*
X138049000Y-78168500D02*
X137794384Y-77913884D01*
X138049000Y-78676500D02*
X138049000Y-78168500D01*
D17*
X136626500Y-87541000D02*
X136842500Y-87757000D01*
X136626500Y-85852000D02*
X136626500Y-87541000D01*
D16*
X140137000Y-78986000D02*
X141216000Y-78986000D01*
X141216000Y-78986000D02*
X142303500Y-80073500D01*
X142303500Y-80073500D02*
X142303500Y-81216500D01*
X144526000Y-83439000D02*
X146278500Y-83439000D01*
X142303500Y-81216500D02*
X144526000Y-83439000D01*
X143611500Y-79248000D02*
X142748000Y-79248000D01*
X141836000Y-78336000D02*
X140137000Y-78336000D01*
X142748000Y-79248000D02*
X141836000Y-78336000D01*
X138303000Y-82016500D02*
X140208000Y-82016500D01*
X140208000Y-80357000D02*
X140137000Y-80286000D01*
X140208000Y-82016500D02*
X140208000Y-80357000D01*
D17*
X127254000Y-87757000D02*
X128295500Y-86715500D01*
X132672500Y-85953500D02*
X132708000Y-85918000D01*
X130683000Y-85953500D02*
X132672500Y-85953500D01*
D16*
X132708000Y-87818000D02*
X133728500Y-87818000D01*
X133728500Y-87818000D02*
X133921500Y-87625000D01*
X133921500Y-87625000D02*
X133921500Y-86233000D01*
X133606500Y-85918000D02*
X132708000Y-85918000D01*
X133921500Y-86233000D02*
X133606500Y-85918000D01*
D17*
X129057500Y-85953500D02*
X127254000Y-87757000D01*
X130683000Y-85953500D02*
X129057500Y-85953500D01*
D16*
G36*
X151011000Y-75787250D02*
G01*
X151169750Y-75946000D01*
X152019000Y-75946000D01*
X152019000Y-75926000D01*
X152273000Y-75926000D01*
X152273000Y-75946000D01*
X153122250Y-75946000D01*
X153281000Y-75787250D01*
X153282825Y-75660000D01*
X154340000Y-75660000D01*
X154340001Y-89340000D01*
X125660000Y-89340000D01*
X125660000Y-85431500D01*
X125687428Y-85431500D01*
X125687428Y-88431500D01*
X125699688Y-88555982D01*
X125735998Y-88675680D01*
X125794963Y-88785994D01*
X125874315Y-88882685D01*
X125971006Y-88962037D01*
X126081320Y-89021002D01*
X126201018Y-89057312D01*
X126325500Y-89069572D01*
X129325500Y-89069572D01*
X129449982Y-89057312D01*
X129569680Y-89021002D01*
X129679994Y-88962037D01*
X129776685Y-88882685D01*
X129856037Y-88785994D01*
X129915002Y-88675680D01*
X129951312Y-88555982D01*
X129951982Y-88549175D01*
X129963820Y-88555502D01*
X130083518Y-88591812D01*
X130208000Y-88604072D01*
X130397250Y-88601000D01*
X130556000Y-88442250D01*
X130556000Y-87655500D01*
X130536000Y-87655500D01*
X130536000Y-87401500D01*
X130556000Y-87401500D01*
X130556000Y-87381500D01*
X130810000Y-87381500D01*
X130810000Y-87401500D01*
X130830000Y-87401500D01*
X130830000Y-87655500D01*
X130810000Y-87655500D01*
X130810000Y-88442250D01*
X130968750Y-88601000D01*
X131158000Y-88604072D01*
X131282482Y-88591812D01*
X131402180Y-88555502D01*
X131512494Y-88496537D01*
X131557298Y-88459768D01*
X131577463Y-88497494D01*
X131656815Y-88594185D01*
X131753506Y-88673537D01*
X131863820Y-88732502D01*
X131983518Y-88768812D01*
X132108000Y-88781072D01*
X133308000Y-88781072D01*
X133432482Y-88768812D01*
X133552180Y-88732502D01*
X133662494Y-88673537D01*
X133759185Y-88594185D01*
X133771257Y-88579475D01*
X133877878Y-88568974D01*
X133924515Y-88554827D01*
X133956815Y-88594185D01*
X134053506Y-88673537D01*
X134163820Y-88732502D01*
X134283518Y-88768812D01*
X134408000Y-88781072D01*
X135608000Y-88781072D01*
X135732482Y-88768812D01*
X135852180Y-88732502D01*
X135893823Y-88710243D01*
X135988006Y-88787537D01*
X136098320Y-88846502D01*
X136218018Y-88882812D01*
X136342500Y-88895072D01*
X137342500Y-88895072D01*
X137466982Y-88882812D01*
X137586680Y-88846502D01*
X137696994Y-88787537D01*
X137793685Y-88708185D01*
X137873037Y-88611494D01*
X137932002Y-88501180D01*
X137968312Y-88381482D01*
X137969639Y-88368000D01*
X140609928Y-88368000D01*
X140622188Y-88492482D01*
X140658498Y-88612180D01*
X140717463Y-88722494D01*
X140796815Y-88819185D01*
X140893506Y-88898537D01*
X141003820Y-88957502D01*
X141123518Y-88993812D01*
X141248000Y-89006072D01*
X142462250Y-89003000D01*
X142621000Y-88844250D01*
X142621000Y-86995000D01*
X142875000Y-86995000D01*
X142875000Y-88844250D01*
X143033750Y-89003000D01*
X144248000Y-89006072D01*
X144372482Y-88993812D01*
X144492180Y-88957502D01*
X144602494Y-88898537D01*
X144699185Y-88819185D01*
X144778537Y-88722494D01*
X144823700Y-88638000D01*
X150944428Y-88638000D01*
X150956688Y-88762482D01*
X150992998Y-88882180D01*
X151051963Y-88992494D01*
X151131315Y-89089185D01*
X151228006Y-89168537D01*
X151338320Y-89227502D01*
X151458018Y-89263812D01*
X151582500Y-89276072D01*
X151796750Y-89273000D01*
X151955500Y-89114250D01*
X151955500Y-88265000D01*
X152209500Y-88265000D01*
X152209500Y-89114250D01*
X152368250Y-89273000D01*
X152582500Y-89276072D01*
X152706982Y-89263812D01*
X152826680Y-89227502D01*
X152936994Y-89168537D01*
X153033685Y-89089185D01*
X153113037Y-88992494D01*
X153172002Y-88882180D01*
X153208312Y-88762482D01*
X153220572Y-88638000D01*
X153217500Y-88423750D01*
X153058750Y-88265000D01*
X152209500Y-88265000D01*
X151955500Y-88265000D01*
X151106250Y-88265000D01*
X150947500Y-88423750D01*
X150944428Y-88638000D01*
X144823700Y-88638000D01*
X144837502Y-88612180D01*
X144873812Y-88492482D01*
X144886072Y-88368000D01*
X144883000Y-87153750D01*
X144724250Y-86995000D01*
X142875000Y-86995000D01*
X142621000Y-86995000D01*
X140771750Y-86995000D01*
X140613000Y-87153750D01*
X140609928Y-88368000D01*
X137969639Y-88368000D01*
X137980572Y-88257000D01*
X137980572Y-87257000D01*
X137968312Y-87132518D01*
X137932002Y-87012820D01*
X137904955Y-86962219D01*
X137915750Y-86962000D01*
X138074500Y-86803250D01*
X138074500Y-85979000D01*
X138328500Y-85979000D01*
X138328500Y-86803250D01*
X138487250Y-86962000D01*
X138639000Y-86965072D01*
X138763482Y-86952812D01*
X138883180Y-86916502D01*
X138993494Y-86857537D01*
X139090185Y-86778185D01*
X139169537Y-86681494D01*
X139228502Y-86571180D01*
X139264812Y-86451482D01*
X139277072Y-86327000D01*
X139274000Y-86137750D01*
X139115250Y-85979000D01*
X138328500Y-85979000D01*
X138074500Y-85979000D01*
X138054500Y-85979000D01*
X138054500Y-85725000D01*
X138074500Y-85725000D01*
X138074500Y-84900750D01*
X138328500Y-84900750D01*
X138328500Y-85725000D01*
X139115250Y-85725000D01*
X139274000Y-85566250D01*
X139277072Y-85377000D01*
X139276186Y-85368000D01*
X140609928Y-85368000D01*
X140613000Y-86582250D01*
X140771750Y-86741000D01*
X142621000Y-86741000D01*
X142621000Y-84891750D01*
X142875000Y-84891750D01*
X142875000Y-86741000D01*
X144724250Y-86741000D01*
X144883000Y-86582250D01*
X144886072Y-85368000D01*
X144873812Y-85243518D01*
X144837502Y-85123820D01*
X144778537Y-85013506D01*
X144699185Y-84916815D01*
X144602494Y-84837463D01*
X144492180Y-84778498D01*
X144372482Y-84742188D01*
X144248000Y-84729928D01*
X143033750Y-84733000D01*
X142875000Y-84891750D01*
X142621000Y-84891750D01*
X142462250Y-84733000D01*
X141248000Y-84729928D01*
X141123518Y-84742188D01*
X141003820Y-84778498D01*
X140893506Y-84837463D01*
X140796815Y-84916815D01*
X140717463Y-85013506D01*
X140658498Y-85123820D01*
X140622188Y-85243518D01*
X140609928Y-85368000D01*
X139276186Y-85368000D01*
X139264812Y-85252518D01*
X139228502Y-85132820D01*
X139169537Y-85022506D01*
X139090185Y-84925815D01*
X138993494Y-84846463D01*
X138883180Y-84787498D01*
X138763482Y-84751188D01*
X138639000Y-84738928D01*
X138487250Y-84742000D01*
X138328500Y-84900750D01*
X138074500Y-84900750D01*
X137915750Y-84742000D01*
X137764000Y-84738928D01*
X137751030Y-84740205D01*
X137849696Y-84641539D01*
X137879592Y-84650608D01*
X138046750Y-84667072D01*
X138559250Y-84667072D01*
X138726408Y-84650608D01*
X138887142Y-84601850D01*
X139035275Y-84522671D01*
X139165115Y-84416115D01*
X139198291Y-84375689D01*
X139202463Y-84383494D01*
X139281815Y-84480185D01*
X139378506Y-84559537D01*
X139488820Y-84618502D01*
X139608518Y-84654812D01*
X139733000Y-84667072D01*
X139922250Y-84664000D01*
X140081000Y-84505250D01*
X140081000Y-83718500D01*
X140335000Y-83718500D01*
X140335000Y-84505250D01*
X140493750Y-84664000D01*
X140683000Y-84667072D01*
X140807482Y-84654812D01*
X140927180Y-84618502D01*
X141037494Y-84559537D01*
X141134185Y-84480185D01*
X141213537Y-84383494D01*
X141272502Y-84273180D01*
X141308812Y-84153482D01*
X141321072Y-84029000D01*
X141318000Y-83877250D01*
X141159250Y-83718500D01*
X140335000Y-83718500D01*
X140081000Y-83718500D01*
X140061000Y-83718500D01*
X140061000Y-83464500D01*
X140081000Y-83464500D01*
X140081000Y-83444500D01*
X140335000Y-83444500D01*
X140335000Y-83464500D01*
X141159250Y-83464500D01*
X141318000Y-83305750D01*
X141321072Y-83154000D01*
X141308812Y-83029518D01*
X141272502Y-82909820D01*
X141213537Y-82799506D01*
X141158900Y-82732930D01*
X141176671Y-82711275D01*
X141255850Y-82563142D01*
X141304608Y-82402408D01*
X141321072Y-82235250D01*
X141321072Y-81797750D01*
X141304608Y-81630592D01*
X141255850Y-81469858D01*
X141176671Y-81321725D01*
X141070115Y-81191885D01*
X140970000Y-81109723D01*
X140970000Y-81090473D01*
X141044448Y-81067890D01*
X141172051Y-80999684D01*
X141283896Y-80907896D01*
X141375684Y-80796051D01*
X141443890Y-80668448D01*
X141485890Y-80529991D01*
X141500072Y-80386000D01*
X141500072Y-80347703D01*
X141541500Y-80389131D01*
X141541501Y-81179067D01*
X141537814Y-81216500D01*
X141552527Y-81365878D01*
X141596099Y-81509515D01*
X141666855Y-81641892D01*
X141733817Y-81723485D01*
X141762079Y-81757922D01*
X141791149Y-81781779D01*
X143960716Y-83951346D01*
X143984578Y-83980422D01*
X144020327Y-84009760D01*
X144100607Y-84075645D01*
X144171364Y-84113465D01*
X144232985Y-84146402D01*
X144376622Y-84189974D01*
X144488574Y-84201000D01*
X144488577Y-84201000D01*
X144526000Y-84204686D01*
X144563423Y-84201000D01*
X145371723Y-84201000D01*
X145423836Y-84264500D01*
X145347329Y-84357725D01*
X145268150Y-84505858D01*
X145219392Y-84666592D01*
X145202928Y-84833750D01*
X145202928Y-85346250D01*
X145219392Y-85513408D01*
X145268150Y-85674142D01*
X145347329Y-85822275D01*
X145453885Y-85952115D01*
X145516501Y-86003502D01*
X145516500Y-86081498D01*
X145453885Y-86132885D01*
X145347329Y-86262725D01*
X145268150Y-86410858D01*
X145219392Y-86571592D01*
X145202928Y-86738750D01*
X145202928Y-87251250D01*
X145219392Y-87418408D01*
X145268150Y-87579142D01*
X145347329Y-87727275D01*
X145453885Y-87857115D01*
X145583725Y-87963671D01*
X145731858Y-88042850D01*
X145892592Y-88091608D01*
X146059750Y-88108072D01*
X146497250Y-88108072D01*
X146664408Y-88091608D01*
X146825142Y-88042850D01*
X146973275Y-87963671D01*
X146994930Y-87945900D01*
X147061506Y-88000537D01*
X147171820Y-88059502D01*
X147291518Y-88095812D01*
X147416000Y-88108072D01*
X147567750Y-88105000D01*
X147726500Y-87946250D01*
X147726500Y-87122000D01*
X147980500Y-87122000D01*
X147980500Y-87946250D01*
X148139250Y-88105000D01*
X148291000Y-88108072D01*
X148415482Y-88095812D01*
X148535180Y-88059502D01*
X148645494Y-88000537D01*
X148742185Y-87921185D01*
X148821537Y-87824494D01*
X148880502Y-87714180D01*
X148903610Y-87638000D01*
X150944428Y-87638000D01*
X150947500Y-87852250D01*
X151106250Y-88011000D01*
X151955500Y-88011000D01*
X151955500Y-87161750D01*
X152209500Y-87161750D01*
X152209500Y-88011000D01*
X153058750Y-88011000D01*
X153217500Y-87852250D01*
X153220572Y-87638000D01*
X153208312Y-87513518D01*
X153172002Y-87393820D01*
X153113037Y-87283506D01*
X153033685Y-87186815D01*
X152936994Y-87107463D01*
X152826680Y-87048498D01*
X152706982Y-87012188D01*
X152582500Y-86999928D01*
X152368250Y-87003000D01*
X152209500Y-87161750D01*
X151955500Y-87161750D01*
X151796750Y-87003000D01*
X151582500Y-86999928D01*
X151458018Y-87012188D01*
X151338320Y-87048498D01*
X151228006Y-87107463D01*
X151131315Y-87186815D01*
X151051963Y-87283506D01*
X150992998Y-87393820D01*
X150956688Y-87513518D01*
X150944428Y-87638000D01*
X148903610Y-87638000D01*
X148916812Y-87594482D01*
X148929072Y-87470000D01*
X148926000Y-87280750D01*
X148767250Y-87122000D01*
X147980500Y-87122000D01*
X147726500Y-87122000D01*
X147706500Y-87122000D01*
X147706500Y-86868000D01*
X147726500Y-86868000D01*
X147726500Y-86848000D01*
X147980500Y-86848000D01*
X147980500Y-86868000D01*
X148767250Y-86868000D01*
X148926000Y-86709250D01*
X148929072Y-86520000D01*
X148916812Y-86395518D01*
X148880502Y-86275820D01*
X148821537Y-86165506D01*
X148742185Y-86068815D01*
X148645494Y-85989463D01*
X148637689Y-85985291D01*
X148678115Y-85952115D01*
X148784671Y-85822275D01*
X148863850Y-85674142D01*
X148912608Y-85513408D01*
X148919936Y-85439000D01*
X149646928Y-85439000D01*
X149659188Y-85563482D01*
X149695498Y-85683180D01*
X149754463Y-85793494D01*
X149833815Y-85890185D01*
X149930506Y-85969537D01*
X150040820Y-86028502D01*
X150160518Y-86064812D01*
X150285000Y-86077072D01*
X151099250Y-86074000D01*
X151258000Y-85915250D01*
X151258000Y-85041000D01*
X151512000Y-85041000D01*
X151512000Y-85915250D01*
X151670750Y-86074000D01*
X152485000Y-86077072D01*
X152609482Y-86064812D01*
X152729180Y-86028502D01*
X152839494Y-85969537D01*
X152936185Y-85890185D01*
X153015537Y-85793494D01*
X153074502Y-85683180D01*
X153110812Y-85563482D01*
X153123072Y-85439000D01*
X153120000Y-85199750D01*
X152961250Y-85041000D01*
X151512000Y-85041000D01*
X151258000Y-85041000D01*
X149808750Y-85041000D01*
X149650000Y-85199750D01*
X149646928Y-85439000D01*
X148919936Y-85439000D01*
X148929072Y-85346250D01*
X148929072Y-84833750D01*
X148912608Y-84666592D01*
X148863850Y-84505858D01*
X148784671Y-84357725D01*
X148708164Y-84264500D01*
X148757095Y-84204876D01*
X148804463Y-84293494D01*
X148883815Y-84390185D01*
X148980506Y-84469537D01*
X149090820Y-84528502D01*
X149210518Y-84564812D01*
X149335000Y-84577072D01*
X149649343Y-84577072D01*
X149650000Y-84628250D01*
X149808750Y-84787000D01*
X151258000Y-84787000D01*
X151258000Y-83912750D01*
X151512000Y-83912750D01*
X151512000Y-84787000D01*
X152961250Y-84787000D01*
X153120000Y-84628250D01*
X153123072Y-84389000D01*
X153110812Y-84264518D01*
X153074502Y-84144820D01*
X153015537Y-84034506D01*
X152936185Y-83937815D01*
X152839494Y-83858463D01*
X152729180Y-83799498D01*
X152609482Y-83763188D01*
X152485000Y-83750928D01*
X151670750Y-83754000D01*
X151512000Y-83912750D01*
X151258000Y-83912750D01*
X151099250Y-83754000D01*
X151023072Y-83753713D01*
X151023072Y-83124287D01*
X151099250Y-83124000D01*
X151258000Y-82965250D01*
X151258000Y-82091000D01*
X151512000Y-82091000D01*
X151512000Y-82965250D01*
X151670750Y-83124000D01*
X152485000Y-83127072D01*
X152609482Y-83114812D01*
X152729180Y-83078502D01*
X152839494Y-83019537D01*
X152936185Y-82940185D01*
X153015537Y-82843494D01*
X153074502Y-82733180D01*
X153110812Y-82613482D01*
X153123072Y-82489000D01*
X153120000Y-82249750D01*
X152961250Y-82091000D01*
X151512000Y-82091000D01*
X151258000Y-82091000D01*
X149808750Y-82091000D01*
X149650000Y-82249750D01*
X149649343Y-82300928D01*
X149335000Y-82300928D01*
X149210518Y-82313188D01*
X149090820Y-82349498D01*
X148980506Y-82408463D01*
X148883815Y-82487815D01*
X148804463Y-82584506D01*
X148757095Y-82673124D01*
X148678115Y-82576885D01*
X148548275Y-82470329D01*
X148400142Y-82391150D01*
X148239408Y-82342392D01*
X148072250Y-82325928D01*
X147634750Y-82325928D01*
X147467592Y-82342392D01*
X147306858Y-82391150D01*
X147158725Y-82470329D01*
X147066000Y-82546426D01*
X146973275Y-82470329D01*
X146825142Y-82391150D01*
X146664408Y-82342392D01*
X146497250Y-82325928D01*
X146059750Y-82325928D01*
X145892592Y-82342392D01*
X145731858Y-82391150D01*
X145583725Y-82470329D01*
X145453885Y-82576885D01*
X145371723Y-82677000D01*
X144841630Y-82677000D01*
X143603630Y-81439000D01*
X149646928Y-81439000D01*
X149650000Y-81678250D01*
X149808750Y-81837000D01*
X151258000Y-81837000D01*
X151258000Y-80962750D01*
X151512000Y-80962750D01*
X151512000Y-81837000D01*
X152961250Y-81837000D01*
X153120000Y-81678250D01*
X153123072Y-81439000D01*
X153110812Y-81314518D01*
X153074502Y-81194820D01*
X153015537Y-81084506D01*
X152936185Y-80987815D01*
X152839494Y-80908463D01*
X152729180Y-80849498D01*
X152609482Y-80813188D01*
X152485000Y-80800928D01*
X151670750Y-80804000D01*
X151512000Y-80962750D01*
X151258000Y-80962750D01*
X151099250Y-80804000D01*
X150285000Y-80800928D01*
X150160518Y-80813188D01*
X150040820Y-80849498D01*
X149930506Y-80908463D01*
X149833815Y-80987815D01*
X149754463Y-81084506D01*
X149695498Y-81194820D01*
X149659188Y-81314518D01*
X149646928Y-81439000D01*
X143603630Y-81439000D01*
X143065500Y-80900870D01*
X143065500Y-80296045D01*
X143225592Y-80344608D01*
X143392750Y-80361072D01*
X143830250Y-80361072D01*
X143997408Y-80344608D01*
X144158142Y-80295850D01*
X144306275Y-80216671D01*
X144399000Y-80140574D01*
X144491725Y-80216671D01*
X144639858Y-80295850D01*
X144800592Y-80344608D01*
X144967750Y-80361072D01*
X145405250Y-80361072D01*
X145572408Y-80344608D01*
X145733142Y-80295850D01*
X145881275Y-80216671D01*
X146011115Y-80110115D01*
X146050000Y-80062733D01*
X146088885Y-80110115D01*
X146218725Y-80216671D01*
X146366858Y-80295850D01*
X146527592Y-80344608D01*
X146694750Y-80361072D01*
X147132250Y-80361072D01*
X147299408Y-80344608D01*
X147460142Y-80295850D01*
X147608275Y-80216671D01*
X147701000Y-80140574D01*
X147793725Y-80216671D01*
X147941858Y-80295850D01*
X148102592Y-80344608D01*
X148269750Y-80361072D01*
X148707250Y-80361072D01*
X148874408Y-80344608D01*
X149035142Y-80295850D01*
X149183275Y-80216671D01*
X149313115Y-80110115D01*
X149419671Y-79980275D01*
X149498850Y-79832142D01*
X149547608Y-79671408D01*
X149564072Y-79504250D01*
X149564072Y-78991750D01*
X149547608Y-78824592D01*
X149498850Y-78663858D01*
X149419671Y-78515725D01*
X149313115Y-78385885D01*
X149250500Y-78334499D01*
X149250500Y-78100072D01*
X150042500Y-78100072D01*
X150166982Y-78087812D01*
X150286680Y-78051502D01*
X150396994Y-77992537D01*
X150493685Y-77913185D01*
X150573037Y-77816494D01*
X150632002Y-77706180D01*
X150668312Y-77586482D01*
X150680572Y-77462000D01*
X150680572Y-76573000D01*
X151007928Y-76573000D01*
X151020188Y-76697482D01*
X151056498Y-76817180D01*
X151115463Y-76927494D01*
X151194815Y-77024185D01*
X151291506Y-77103537D01*
X151401820Y-77162502D01*
X151521518Y-77198812D01*
X151646000Y-77211072D01*
X151860250Y-77208000D01*
X152019000Y-77049250D01*
X152019000Y-76200000D01*
X152273000Y-76200000D01*
X152273000Y-77049250D01*
X152431750Y-77208000D01*
X152646000Y-77211072D01*
X152770482Y-77198812D01*
X152890180Y-77162502D01*
X153000494Y-77103537D01*
X153097185Y-77024185D01*
X153176537Y-76927494D01*
X153235502Y-76817180D01*
X153271812Y-76697482D01*
X153284072Y-76573000D01*
X153281000Y-76358750D01*
X153122250Y-76200000D01*
X152273000Y-76200000D01*
X152019000Y-76200000D01*
X151169750Y-76200000D01*
X151011000Y-76358750D01*
X151007928Y-76573000D01*
X150680572Y-76573000D01*
X150680572Y-76462000D01*
X150668312Y-76337518D01*
X150632002Y-76217820D01*
X150573037Y-76107506D01*
X150493685Y-76010815D01*
X150396994Y-75931463D01*
X150286680Y-75872498D01*
X150166982Y-75836188D01*
X150042500Y-75823928D01*
X149042500Y-75823928D01*
X148918018Y-75836188D01*
X148798320Y-75872498D01*
X148688006Y-75931463D01*
X148591315Y-76010815D01*
X148511963Y-76107506D01*
X148457519Y-76209362D01*
X148440622Y-76211026D01*
X148296985Y-76254598D01*
X148164608Y-76325355D01*
X148048578Y-76420578D01*
X148024713Y-76449657D01*
X147976151Y-76498219D01*
X147947079Y-76522078D01*
X147923222Y-76551148D01*
X147923221Y-76551149D01*
X147851855Y-76638108D01*
X147781099Y-76770485D01*
X147737527Y-76914122D01*
X147722814Y-77063500D01*
X147726501Y-77100933D01*
X147726500Y-78334498D01*
X147701000Y-78355426D01*
X147608275Y-78279329D01*
X147460142Y-78200150D01*
X147299408Y-78151392D01*
X147132250Y-78134928D01*
X146694750Y-78134928D01*
X146527592Y-78151392D01*
X146366858Y-78200150D01*
X146218725Y-78279329D01*
X146088885Y-78385885D01*
X146050000Y-78433267D01*
X146011115Y-78385885D01*
X145974000Y-78355426D01*
X145974000Y-78256501D01*
X146036615Y-78205115D01*
X146143171Y-78075275D01*
X146222350Y-77927142D01*
X146271108Y-77766408D01*
X146287572Y-77599250D01*
X146287572Y-77086750D01*
X146271108Y-76919592D01*
X146222350Y-76758858D01*
X146143171Y-76610725D01*
X146036615Y-76480885D01*
X145906775Y-76374329D01*
X145758642Y-76295150D01*
X145597908Y-76246392D01*
X145430750Y-76229928D01*
X144993250Y-76229928D01*
X144826092Y-76246392D01*
X144665358Y-76295150D01*
X144517225Y-76374329D01*
X144495570Y-76392100D01*
X144428994Y-76337463D01*
X144318680Y-76278498D01*
X144198982Y-76242188D01*
X144074500Y-76229928D01*
X143922750Y-76233000D01*
X143764000Y-76391750D01*
X143764000Y-77216000D01*
X143784000Y-77216000D01*
X143784000Y-77470000D01*
X143764000Y-77470000D01*
X143764000Y-77490000D01*
X143510000Y-77490000D01*
X143510000Y-77470000D01*
X142723250Y-77470000D01*
X142564500Y-77628750D01*
X142561428Y-77818000D01*
X142573688Y-77942482D01*
X142597017Y-78019386D01*
X142401284Y-77823654D01*
X142377422Y-77794578D01*
X142261392Y-77699355D01*
X142129015Y-77628598D01*
X141985378Y-77585026D01*
X141873426Y-77574000D01*
X141873423Y-77574000D01*
X141836000Y-77570314D01*
X141798577Y-77574000D01*
X141498890Y-77574000D01*
X141485890Y-77442009D01*
X141474652Y-77404963D01*
X141485844Y-77369996D01*
X141497000Y-77267750D01*
X141338250Y-77109000D01*
X141320741Y-77109000D01*
X141283896Y-77064104D01*
X141172051Y-76972316D01*
X141154622Y-76963000D01*
X141338250Y-76963000D01*
X141433250Y-76868000D01*
X142561428Y-76868000D01*
X142564500Y-77057250D01*
X142723250Y-77216000D01*
X143510000Y-77216000D01*
X143510000Y-76391750D01*
X143351250Y-76233000D01*
X143199500Y-76229928D01*
X143075018Y-76242188D01*
X142955320Y-76278498D01*
X142845006Y-76337463D01*
X142748315Y-76416815D01*
X142668963Y-76513506D01*
X142609998Y-76623820D01*
X142573688Y-76743518D01*
X142561428Y-76868000D01*
X141433250Y-76868000D01*
X141497000Y-76804250D01*
X141485844Y-76702004D01*
X141447715Y-76582873D01*
X141387078Y-76473469D01*
X141306263Y-76377997D01*
X141208375Y-76300126D01*
X141097175Y-76242849D01*
X140976939Y-76208366D01*
X140852285Y-76198002D01*
X140422750Y-76201000D01*
X140264000Y-76359750D01*
X140264000Y-76847928D01*
X140010000Y-76847928D01*
X140010000Y-76359750D01*
X139851250Y-76201000D01*
X139421715Y-76198002D01*
X139297061Y-76208366D01*
X139176825Y-76242849D01*
X139065625Y-76300126D01*
X138967737Y-76377997D01*
X138886922Y-76473469D01*
X138862518Y-76517500D01*
X137111482Y-76517500D01*
X137087078Y-76473469D01*
X137006263Y-76377997D01*
X136908375Y-76300126D01*
X136797175Y-76242849D01*
X136676939Y-76208366D01*
X136552285Y-76198002D01*
X136122750Y-76201000D01*
X135964000Y-76359750D01*
X135964000Y-76847928D01*
X135710000Y-76847928D01*
X135710000Y-76359750D01*
X135551250Y-76201000D01*
X135121715Y-76198002D01*
X134997061Y-76208366D01*
X134876825Y-76242849D01*
X134765625Y-76300126D01*
X134667737Y-76377997D01*
X134586922Y-76473469D01*
X134526285Y-76582873D01*
X134488156Y-76702004D01*
X134477000Y-76804250D01*
X134635750Y-76963000D01*
X134819378Y-76963000D01*
X134801949Y-76972316D01*
X134690104Y-77064104D01*
X134653259Y-77109000D01*
X134635750Y-77109000D01*
X134477000Y-77267750D01*
X134488156Y-77369996D01*
X134499348Y-77404963D01*
X134493320Y-77424834D01*
X134451275Y-77390329D01*
X134303142Y-77311150D01*
X134142408Y-77262392D01*
X133975250Y-77245928D01*
X133537750Y-77245928D01*
X133370592Y-77262392D01*
X133209858Y-77311150D01*
X133061725Y-77390329D01*
X132969000Y-77466426D01*
X132876275Y-77390329D01*
X132728142Y-77311150D01*
X132567408Y-77262392D01*
X132400250Y-77245928D01*
X131962750Y-77245928D01*
X131795592Y-77262392D01*
X131634858Y-77311150D01*
X131486725Y-77390329D01*
X131356885Y-77496885D01*
X131274723Y-77597000D01*
X131172960Y-77597000D01*
X131163502Y-77565820D01*
X131104537Y-77455506D01*
X131025185Y-77358815D01*
X130928494Y-77279463D01*
X130818180Y-77220498D01*
X130698482Y-77184188D01*
X130574000Y-77171928D01*
X130259657Y-77171928D01*
X130259000Y-77120750D01*
X130100250Y-76962000D01*
X128651000Y-76962000D01*
X128651000Y-77836250D01*
X128809750Y-77995000D01*
X128885928Y-77995287D01*
X128885928Y-78624713D01*
X128809750Y-78625000D01*
X128651000Y-78783750D01*
X128651000Y-79658000D01*
X130100250Y-79658000D01*
X130259000Y-79499250D01*
X130259657Y-79448072D01*
X130574000Y-79448072D01*
X130698482Y-79435812D01*
X130801539Y-79404550D01*
X130790150Y-79425858D01*
X130741392Y-79586592D01*
X130724928Y-79753750D01*
X130724928Y-80266250D01*
X130741392Y-80433408D01*
X130790150Y-80594142D01*
X130869329Y-80742275D01*
X130975885Y-80872115D01*
X130990852Y-80884398D01*
X130911500Y-80963750D01*
X130911500Y-81788000D01*
X130931500Y-81788000D01*
X130931500Y-82042000D01*
X130911500Y-82042000D01*
X130911500Y-82866250D01*
X131070250Y-83025000D01*
X131222000Y-83028072D01*
X131346482Y-83015812D01*
X131466180Y-82979502D01*
X131576494Y-82920537D01*
X131643070Y-82865900D01*
X131664725Y-82883671D01*
X131812858Y-82962850D01*
X131973592Y-83011608D01*
X132140750Y-83028072D01*
X132578250Y-83028072D01*
X132745408Y-83011608D01*
X132906142Y-82962850D01*
X133054275Y-82883671D01*
X133184115Y-82777115D01*
X133290671Y-82647275D01*
X133369850Y-82499142D01*
X133418608Y-82338408D01*
X133435072Y-82171250D01*
X133435072Y-81675193D01*
X133452515Y-81669902D01*
X133584892Y-81599145D01*
X133700922Y-81503922D01*
X133724784Y-81474846D01*
X133887847Y-81311783D01*
X133916922Y-81287922D01*
X134012145Y-81171892D01*
X134082902Y-81039515D01*
X134111662Y-80944706D01*
X134200115Y-80872115D01*
X134306671Y-80742275D01*
X134385850Y-80594142D01*
X134434608Y-80433408D01*
X134451072Y-80266250D01*
X134451072Y-79988883D01*
X134486366Y-79953589D01*
X134488156Y-79969996D01*
X134499348Y-80004963D01*
X134488110Y-80042009D01*
X134473928Y-80186000D01*
X134473928Y-80386000D01*
X134488110Y-80529991D01*
X134530110Y-80668448D01*
X134598316Y-80796051D01*
X134690104Y-80907896D01*
X134801949Y-80999684D01*
X134929552Y-81067890D01*
X135068009Y-81109890D01*
X135212000Y-81124072D01*
X136363918Y-81124072D01*
X136346444Y-81181675D01*
X136336458Y-81283070D01*
X136330506Y-81343500D01*
X136334500Y-81384051D01*
X136334501Y-83017440D01*
X136330506Y-83058000D01*
X136346445Y-83219826D01*
X136393647Y-83375433D01*
X136465989Y-83510775D01*
X136028759Y-83948006D01*
X135994842Y-83975841D01*
X135967007Y-84009758D01*
X135967005Y-84009760D01*
X135883748Y-84111209D01*
X135801198Y-84265648D01*
X135750364Y-84433226D01*
X135733200Y-84607500D01*
X135737501Y-84651169D01*
X135737501Y-84968710D01*
X135732482Y-84967188D01*
X135608000Y-84954928D01*
X134408000Y-84954928D01*
X134283518Y-84967188D01*
X134163820Y-85003498D01*
X134053506Y-85062463D01*
X133956815Y-85141815D01*
X133900107Y-85210914D01*
X133899515Y-85210598D01*
X133787829Y-85176718D01*
X133759185Y-85141815D01*
X133662494Y-85062463D01*
X133552180Y-85003498D01*
X133432482Y-84967188D01*
X133308000Y-84954928D01*
X132108000Y-84954928D01*
X131983518Y-84967188D01*
X131863820Y-85003498D01*
X131753506Y-85062463D01*
X131751024Y-85064500D01*
X131466661Y-85064500D01*
X131415275Y-85022329D01*
X131267142Y-84943150D01*
X131106408Y-84894392D01*
X130939250Y-84877928D01*
X130426750Y-84877928D01*
X130259592Y-84894392D01*
X130098858Y-84943150D01*
X129950725Y-85022329D01*
X129899339Y-85064500D01*
X129845774Y-85064500D01*
X129776685Y-84980315D01*
X129679994Y-84900963D01*
X129569680Y-84841998D01*
X129449982Y-84805688D01*
X129325500Y-84793428D01*
X126325500Y-84793428D01*
X126201018Y-84805688D01*
X126081320Y-84841998D01*
X125971006Y-84900963D01*
X125874315Y-84980315D01*
X125794963Y-85077006D01*
X125735998Y-85187320D01*
X125699688Y-85307018D01*
X125687428Y-85431500D01*
X125660000Y-85431500D01*
X125660000Y-82859500D01*
X126941428Y-82859500D01*
X126953688Y-82983982D01*
X126989998Y-83103680D01*
X127048963Y-83213994D01*
X127128315Y-83310685D01*
X127225006Y-83390037D01*
X127335320Y-83449002D01*
X127455018Y-83485312D01*
X127579500Y-83497572D01*
X127793750Y-83494500D01*
X127952500Y-83335750D01*
X127952500Y-82486500D01*
X128206500Y-82486500D01*
X128206500Y-83335750D01*
X128365250Y-83494500D01*
X128579500Y-83497572D01*
X128703982Y-83485312D01*
X128823680Y-83449002D01*
X128933994Y-83390037D01*
X129030685Y-83310685D01*
X129110037Y-83213994D01*
X129169002Y-83103680D01*
X129205312Y-82983982D01*
X129217572Y-82859500D01*
X129214500Y-82645250D01*
X129055750Y-82486500D01*
X128206500Y-82486500D01*
X127952500Y-82486500D01*
X127103250Y-82486500D01*
X126944500Y-82645250D01*
X126941428Y-82859500D01*
X125660000Y-82859500D01*
X125660000Y-82390000D01*
X129708928Y-82390000D01*
X129721188Y-82514482D01*
X129757498Y-82634180D01*
X129816463Y-82744494D01*
X129895815Y-82841185D01*
X129992506Y-82920537D01*
X130102820Y-82979502D01*
X130222518Y-83015812D01*
X130347000Y-83028072D01*
X130498750Y-83025000D01*
X130657500Y-82866250D01*
X130657500Y-82042000D01*
X129870750Y-82042000D01*
X129712000Y-82200750D01*
X129708928Y-82390000D01*
X125660000Y-82390000D01*
X125660000Y-81859500D01*
X126941428Y-81859500D01*
X126944500Y-82073750D01*
X127103250Y-82232500D01*
X127952500Y-82232500D01*
X127952500Y-81383250D01*
X128206500Y-81383250D01*
X128206500Y-82232500D01*
X129055750Y-82232500D01*
X129214500Y-82073750D01*
X129217572Y-81859500D01*
X129205312Y-81735018D01*
X129169002Y-81615320D01*
X129110037Y-81505006D01*
X129056689Y-81440000D01*
X129708928Y-81440000D01*
X129712000Y-81629250D01*
X129870750Y-81788000D01*
X130657500Y-81788000D01*
X130657500Y-80963750D01*
X130498750Y-80805000D01*
X130347000Y-80801928D01*
X130222518Y-80814188D01*
X130102820Y-80850498D01*
X129992506Y-80909463D01*
X129895815Y-80988815D01*
X129816463Y-81085506D01*
X129757498Y-81195820D01*
X129721188Y-81315518D01*
X129708928Y-81440000D01*
X129056689Y-81440000D01*
X129030685Y-81408315D01*
X128933994Y-81328963D01*
X128823680Y-81269998D01*
X128703982Y-81233688D01*
X128579500Y-81221428D01*
X128365250Y-81224500D01*
X128206500Y-81383250D01*
X127952500Y-81383250D01*
X127793750Y-81224500D01*
X127579500Y-81221428D01*
X127455018Y-81233688D01*
X127335320Y-81269998D01*
X127225006Y-81328963D01*
X127128315Y-81408315D01*
X127048963Y-81505006D01*
X126989998Y-81615320D01*
X126953688Y-81735018D01*
X126941428Y-81859500D01*
X125660000Y-81859500D01*
X125660000Y-80310000D01*
X126785928Y-80310000D01*
X126798188Y-80434482D01*
X126834498Y-80554180D01*
X126893463Y-80664494D01*
X126972815Y-80761185D01*
X127069506Y-80840537D01*
X127179820Y-80899502D01*
X127299518Y-80935812D01*
X127424000Y-80948072D01*
X128238250Y-80945000D01*
X128397000Y-80786250D01*
X128397000Y-79912000D01*
X128651000Y-79912000D01*
X128651000Y-80786250D01*
X128809750Y-80945000D01*
X129624000Y-80948072D01*
X129748482Y-80935812D01*
X129868180Y-80899502D01*
X129978494Y-80840537D01*
X130075185Y-80761185D01*
X130154537Y-80664494D01*
X130213502Y-80554180D01*
X130249812Y-80434482D01*
X130262072Y-80310000D01*
X130259000Y-80070750D01*
X130100250Y-79912000D01*
X128651000Y-79912000D01*
X128397000Y-79912000D01*
X126947750Y-79912000D01*
X126789000Y-80070750D01*
X126785928Y-80310000D01*
X125660000Y-80310000D01*
X125660000Y-79260000D01*
X126785928Y-79260000D01*
X126789000Y-79499250D01*
X126947750Y-79658000D01*
X128397000Y-79658000D01*
X128397000Y-78783750D01*
X128238250Y-78625000D01*
X127424000Y-78621928D01*
X127299518Y-78634188D01*
X127179820Y-78670498D01*
X127069506Y-78729463D01*
X126972815Y-78808815D01*
X126893463Y-78905506D01*
X126834498Y-79015820D01*
X126798188Y-79135518D01*
X126785928Y-79260000D01*
X125660000Y-79260000D01*
X125660000Y-77360000D01*
X126785928Y-77360000D01*
X126798188Y-77484482D01*
X126834498Y-77604180D01*
X126893463Y-77714494D01*
X126972815Y-77811185D01*
X127069506Y-77890537D01*
X127179820Y-77949502D01*
X127299518Y-77985812D01*
X127424000Y-77998072D01*
X128238250Y-77995000D01*
X128397000Y-77836250D01*
X128397000Y-76962000D01*
X126947750Y-76962000D01*
X126789000Y-77120750D01*
X126785928Y-77360000D01*
X125660000Y-77360000D01*
X125660000Y-76310000D01*
X126785928Y-76310000D01*
X126789000Y-76549250D01*
X126947750Y-76708000D01*
X128397000Y-76708000D01*
X128397000Y-75833750D01*
X128651000Y-75833750D01*
X128651000Y-76708000D01*
X130100250Y-76708000D01*
X130259000Y-76549250D01*
X130262072Y-76310000D01*
X130249812Y-76185518D01*
X130213502Y-76065820D01*
X130154537Y-75955506D01*
X130075185Y-75858815D01*
X129978494Y-75779463D01*
X129868180Y-75720498D01*
X129748482Y-75684188D01*
X129624000Y-75671928D01*
X128809750Y-75675000D01*
X128651000Y-75833750D01*
X128397000Y-75833750D01*
X128238250Y-75675000D01*
X127424000Y-75671928D01*
X127299518Y-75684188D01*
X127179820Y-75720498D01*
X127069506Y-75779463D01*
X126972815Y-75858815D01*
X126893463Y-75955506D01*
X126834498Y-76065820D01*
X126798188Y-76185518D01*
X126785928Y-76310000D01*
X125660000Y-76310000D01*
X125660000Y-75660000D01*
X151009175Y-75660000D01*
X151011000Y-75787250D01*
G37*
X151011000Y-75787250D02*
X151169750Y-75946000D01*
X152019000Y-75946000D01*
X152019000Y-75926000D01*
X152273000Y-75926000D01*
X152273000Y-75946000D01*
X153122250Y-75946000D01*
X153281000Y-75787250D01*
X153282825Y-75660000D01*
X154340000Y-75660000D01*
X154340001Y-89340000D01*
X125660000Y-89340000D01*
X125660000Y-85431500D01*
X125687428Y-85431500D01*
X125687428Y-88431500D01*
X125699688Y-88555982D01*
X125735998Y-88675680D01*
X125794963Y-88785994D01*
X125874315Y-88882685D01*
X125971006Y-88962037D01*
X126081320Y-89021002D01*
X126201018Y-89057312D01*
X126325500Y-89069572D01*
X129325500Y-89069572D01*
X129449982Y-89057312D01*
X129569680Y-89021002D01*
X129679994Y-88962037D01*
X129776685Y-88882685D01*
X129856037Y-88785994D01*
X129915002Y-88675680D01*
X129951312Y-88555982D01*
X129951982Y-88549175D01*
X129963820Y-88555502D01*
X130083518Y-88591812D01*
X130208000Y-88604072D01*
X130397250Y-88601000D01*
X130556000Y-88442250D01*
X130556000Y-87655500D01*
X130536000Y-87655500D01*
X130536000Y-87401500D01*
X130556000Y-87401500D01*
X130556000Y-87381500D01*
X130810000Y-87381500D01*
X130810000Y-87401500D01*
X130830000Y-87401500D01*
X130830000Y-87655500D01*
X130810000Y-87655500D01*
X130810000Y-88442250D01*
X130968750Y-88601000D01*
X131158000Y-88604072D01*
X131282482Y-88591812D01*
X131402180Y-88555502D01*
X131512494Y-88496537D01*
X131557298Y-88459768D01*
X131577463Y-88497494D01*
X131656815Y-88594185D01*
X131753506Y-88673537D01*
X131863820Y-88732502D01*
X131983518Y-88768812D01*
X132108000Y-88781072D01*
X133308000Y-88781072D01*
X133432482Y-88768812D01*
X133552180Y-88732502D01*
X133662494Y-88673537D01*
X133759185Y-88594185D01*
X133771257Y-88579475D01*
X133877878Y-88568974D01*
X133924515Y-88554827D01*
X133956815Y-88594185D01*
X134053506Y-88673537D01*
X134163820Y-88732502D01*
X134283518Y-88768812D01*
X134408000Y-88781072D01*
X135608000Y-88781072D01*
X135732482Y-88768812D01*
X135852180Y-88732502D01*
X135893823Y-88710243D01*
X135988006Y-88787537D01*
X136098320Y-88846502D01*
X136218018Y-88882812D01*
X136342500Y-88895072D01*
X137342500Y-88895072D01*
X137466982Y-88882812D01*
X137586680Y-88846502D01*
X137696994Y-88787537D01*
X137793685Y-88708185D01*
X137873037Y-88611494D01*
X137932002Y-88501180D01*
X137968312Y-88381482D01*
X137969639Y-88368000D01*
X140609928Y-88368000D01*
X140622188Y-88492482D01*
X140658498Y-88612180D01*
X140717463Y-88722494D01*
X140796815Y-88819185D01*
X140893506Y-88898537D01*
X141003820Y-88957502D01*
X141123518Y-88993812D01*
X141248000Y-89006072D01*
X142462250Y-89003000D01*
X142621000Y-88844250D01*
X142621000Y-86995000D01*
X142875000Y-86995000D01*
X142875000Y-88844250D01*
X143033750Y-89003000D01*
X144248000Y-89006072D01*
X144372482Y-88993812D01*
X144492180Y-88957502D01*
X144602494Y-88898537D01*
X144699185Y-88819185D01*
X144778537Y-88722494D01*
X144823700Y-88638000D01*
X150944428Y-88638000D01*
X150956688Y-88762482D01*
X150992998Y-88882180D01*
X151051963Y-88992494D01*
X151131315Y-89089185D01*
X151228006Y-89168537D01*
X151338320Y-89227502D01*
X151458018Y-89263812D01*
X151582500Y-89276072D01*
X151796750Y-89273000D01*
X151955500Y-89114250D01*
X151955500Y-88265000D01*
X152209500Y-88265000D01*
X152209500Y-89114250D01*
X152368250Y-89273000D01*
X152582500Y-89276072D01*
X152706982Y-89263812D01*
X152826680Y-89227502D01*
X152936994Y-89168537D01*
X153033685Y-89089185D01*
X153113037Y-88992494D01*
X153172002Y-88882180D01*
X153208312Y-88762482D01*
X153220572Y-88638000D01*
X153217500Y-88423750D01*
X153058750Y-88265000D01*
X152209500Y-88265000D01*
X151955500Y-88265000D01*
X151106250Y-88265000D01*
X150947500Y-88423750D01*
X150944428Y-88638000D01*
X144823700Y-88638000D01*
X144837502Y-88612180D01*
X144873812Y-88492482D01*
X144886072Y-88368000D01*
X144883000Y-87153750D01*
X144724250Y-86995000D01*
X142875000Y-86995000D01*
X142621000Y-86995000D01*
X140771750Y-86995000D01*
X140613000Y-87153750D01*
X140609928Y-88368000D01*
X137969639Y-88368000D01*
X137980572Y-88257000D01*
X137980572Y-87257000D01*
X137968312Y-87132518D01*
X137932002Y-87012820D01*
X137904955Y-86962219D01*
X137915750Y-86962000D01*
X138074500Y-86803250D01*
X138074500Y-85979000D01*
X138328500Y-85979000D01*
X138328500Y-86803250D01*
X138487250Y-86962000D01*
X138639000Y-86965072D01*
X138763482Y-86952812D01*
X138883180Y-86916502D01*
X138993494Y-86857537D01*
X139090185Y-86778185D01*
X139169537Y-86681494D01*
X139228502Y-86571180D01*
X139264812Y-86451482D01*
X139277072Y-86327000D01*
X139274000Y-86137750D01*
X139115250Y-85979000D01*
X138328500Y-85979000D01*
X138074500Y-85979000D01*
X138054500Y-85979000D01*
X138054500Y-85725000D01*
X138074500Y-85725000D01*
X138074500Y-84900750D01*
X138328500Y-84900750D01*
X138328500Y-85725000D01*
X139115250Y-85725000D01*
X139274000Y-85566250D01*
X139277072Y-85377000D01*
X139276186Y-85368000D01*
X140609928Y-85368000D01*
X140613000Y-86582250D01*
X140771750Y-86741000D01*
X142621000Y-86741000D01*
X142621000Y-84891750D01*
X142875000Y-84891750D01*
X142875000Y-86741000D01*
X144724250Y-86741000D01*
X144883000Y-86582250D01*
X144886072Y-85368000D01*
X144873812Y-85243518D01*
X144837502Y-85123820D01*
X144778537Y-85013506D01*
X144699185Y-84916815D01*
X144602494Y-84837463D01*
X144492180Y-84778498D01*
X144372482Y-84742188D01*
X144248000Y-84729928D01*
X143033750Y-84733000D01*
X142875000Y-84891750D01*
X142621000Y-84891750D01*
X142462250Y-84733000D01*
X141248000Y-84729928D01*
X141123518Y-84742188D01*
X141003820Y-84778498D01*
X140893506Y-84837463D01*
X140796815Y-84916815D01*
X140717463Y-85013506D01*
X140658498Y-85123820D01*
X140622188Y-85243518D01*
X140609928Y-85368000D01*
X139276186Y-85368000D01*
X139264812Y-85252518D01*
X139228502Y-85132820D01*
X139169537Y-85022506D01*
X139090185Y-84925815D01*
X138993494Y-84846463D01*
X138883180Y-84787498D01*
X138763482Y-84751188D01*
X138639000Y-84738928D01*
X138487250Y-84742000D01*
X138328500Y-84900750D01*
X138074500Y-84900750D01*
X137915750Y-84742000D01*
X137764000Y-84738928D01*
X137751030Y-84740205D01*
X137849696Y-84641539D01*
X137879592Y-84650608D01*
X138046750Y-84667072D01*
X138559250Y-84667072D01*
X138726408Y-84650608D01*
X138887142Y-84601850D01*
X139035275Y-84522671D01*
X139165115Y-84416115D01*
X139198291Y-84375689D01*
X139202463Y-84383494D01*
X139281815Y-84480185D01*
X139378506Y-84559537D01*
X139488820Y-84618502D01*
X139608518Y-84654812D01*
X139733000Y-84667072D01*
X139922250Y-84664000D01*
X140081000Y-84505250D01*
X140081000Y-83718500D01*
X140335000Y-83718500D01*
X140335000Y-84505250D01*
X140493750Y-84664000D01*
X140683000Y-84667072D01*
X140807482Y-84654812D01*
X140927180Y-84618502D01*
X141037494Y-84559537D01*
X141134185Y-84480185D01*
X141213537Y-84383494D01*
X141272502Y-84273180D01*
X141308812Y-84153482D01*
X141321072Y-84029000D01*
X141318000Y-83877250D01*
X141159250Y-83718500D01*
X140335000Y-83718500D01*
X140081000Y-83718500D01*
X140061000Y-83718500D01*
X140061000Y-83464500D01*
X140081000Y-83464500D01*
X140081000Y-83444500D01*
X140335000Y-83444500D01*
X140335000Y-83464500D01*
X141159250Y-83464500D01*
X141318000Y-83305750D01*
X141321072Y-83154000D01*
X141308812Y-83029518D01*
X141272502Y-82909820D01*
X141213537Y-82799506D01*
X141158900Y-82732930D01*
X141176671Y-82711275D01*
X141255850Y-82563142D01*
X141304608Y-82402408D01*
X141321072Y-82235250D01*
X141321072Y-81797750D01*
X141304608Y-81630592D01*
X141255850Y-81469858D01*
X141176671Y-81321725D01*
X141070115Y-81191885D01*
X140970000Y-81109723D01*
X140970000Y-81090473D01*
X141044448Y-81067890D01*
X141172051Y-80999684D01*
X141283896Y-80907896D01*
X141375684Y-80796051D01*
X141443890Y-80668448D01*
X141485890Y-80529991D01*
X141500072Y-80386000D01*
X141500072Y-80347703D01*
X141541500Y-80389131D01*
X141541501Y-81179067D01*
X141537814Y-81216500D01*
X141552527Y-81365878D01*
X141596099Y-81509515D01*
X141666855Y-81641892D01*
X141733817Y-81723485D01*
X141762079Y-81757922D01*
X141791149Y-81781779D01*
X143960716Y-83951346D01*
X143984578Y-83980422D01*
X144020327Y-84009760D01*
X144100607Y-84075645D01*
X144171364Y-84113465D01*
X144232985Y-84146402D01*
X144376622Y-84189974D01*
X144488574Y-84201000D01*
X144488577Y-84201000D01*
X144526000Y-84204686D01*
X144563423Y-84201000D01*
X145371723Y-84201000D01*
X145423836Y-84264500D01*
X145347329Y-84357725D01*
X145268150Y-84505858D01*
X145219392Y-84666592D01*
X145202928Y-84833750D01*
X145202928Y-85346250D01*
X145219392Y-85513408D01*
X145268150Y-85674142D01*
X145347329Y-85822275D01*
X145453885Y-85952115D01*
X145516501Y-86003502D01*
X145516500Y-86081498D01*
X145453885Y-86132885D01*
X145347329Y-86262725D01*
X145268150Y-86410858D01*
X145219392Y-86571592D01*
X145202928Y-86738750D01*
X145202928Y-87251250D01*
X145219392Y-87418408D01*
X145268150Y-87579142D01*
X145347329Y-87727275D01*
X145453885Y-87857115D01*
X145583725Y-87963671D01*
X145731858Y-88042850D01*
X145892592Y-88091608D01*
X146059750Y-88108072D01*
X146497250Y-88108072D01*
X146664408Y-88091608D01*
X146825142Y-88042850D01*
X146973275Y-87963671D01*
X146994930Y-87945900D01*
X147061506Y-88000537D01*
X147171820Y-88059502D01*
X147291518Y-88095812D01*
X147416000Y-88108072D01*
X147567750Y-88105000D01*
X147726500Y-87946250D01*
X147726500Y-87122000D01*
X147980500Y-87122000D01*
X147980500Y-87946250D01*
X148139250Y-88105000D01*
X148291000Y-88108072D01*
X148415482Y-88095812D01*
X148535180Y-88059502D01*
X148645494Y-88000537D01*
X148742185Y-87921185D01*
X148821537Y-87824494D01*
X148880502Y-87714180D01*
X148903610Y-87638000D01*
X150944428Y-87638000D01*
X150947500Y-87852250D01*
X151106250Y-88011000D01*
X151955500Y-88011000D01*
X151955500Y-87161750D01*
X152209500Y-87161750D01*
X152209500Y-88011000D01*
X153058750Y-88011000D01*
X153217500Y-87852250D01*
X153220572Y-87638000D01*
X153208312Y-87513518D01*
X153172002Y-87393820D01*
X153113037Y-87283506D01*
X153033685Y-87186815D01*
X152936994Y-87107463D01*
X152826680Y-87048498D01*
X152706982Y-87012188D01*
X152582500Y-86999928D01*
X152368250Y-87003000D01*
X152209500Y-87161750D01*
X151955500Y-87161750D01*
X151796750Y-87003000D01*
X151582500Y-86999928D01*
X151458018Y-87012188D01*
X151338320Y-87048498D01*
X151228006Y-87107463D01*
X151131315Y-87186815D01*
X151051963Y-87283506D01*
X150992998Y-87393820D01*
X150956688Y-87513518D01*
X150944428Y-87638000D01*
X148903610Y-87638000D01*
X148916812Y-87594482D01*
X148929072Y-87470000D01*
X148926000Y-87280750D01*
X148767250Y-87122000D01*
X147980500Y-87122000D01*
X147726500Y-87122000D01*
X147706500Y-87122000D01*
X147706500Y-86868000D01*
X147726500Y-86868000D01*
X147726500Y-86848000D01*
X147980500Y-86848000D01*
X147980500Y-86868000D01*
X148767250Y-86868000D01*
X148926000Y-86709250D01*
X148929072Y-86520000D01*
X148916812Y-86395518D01*
X148880502Y-86275820D01*
X148821537Y-86165506D01*
X148742185Y-86068815D01*
X148645494Y-85989463D01*
X148637689Y-85985291D01*
X148678115Y-85952115D01*
X148784671Y-85822275D01*
X148863850Y-85674142D01*
X148912608Y-85513408D01*
X148919936Y-85439000D01*
X149646928Y-85439000D01*
X149659188Y-85563482D01*
X149695498Y-85683180D01*
X149754463Y-85793494D01*
X149833815Y-85890185D01*
X149930506Y-85969537D01*
X150040820Y-86028502D01*
X150160518Y-86064812D01*
X150285000Y-86077072D01*
X151099250Y-86074000D01*
X151258000Y-85915250D01*
X151258000Y-85041000D01*
X151512000Y-85041000D01*
X151512000Y-85915250D01*
X151670750Y-86074000D01*
X152485000Y-86077072D01*
X152609482Y-86064812D01*
X152729180Y-86028502D01*
X152839494Y-85969537D01*
X152936185Y-85890185D01*
X153015537Y-85793494D01*
X153074502Y-85683180D01*
X153110812Y-85563482D01*
X153123072Y-85439000D01*
X153120000Y-85199750D01*
X152961250Y-85041000D01*
X151512000Y-85041000D01*
X151258000Y-85041000D01*
X149808750Y-85041000D01*
X149650000Y-85199750D01*
X149646928Y-85439000D01*
X148919936Y-85439000D01*
X148929072Y-85346250D01*
X148929072Y-84833750D01*
X148912608Y-84666592D01*
X148863850Y-84505858D01*
X148784671Y-84357725D01*
X148708164Y-84264500D01*
X148757095Y-84204876D01*
X148804463Y-84293494D01*
X148883815Y-84390185D01*
X148980506Y-84469537D01*
X149090820Y-84528502D01*
X149210518Y-84564812D01*
X149335000Y-84577072D01*
X149649343Y-84577072D01*
X149650000Y-84628250D01*
X149808750Y-84787000D01*
X151258000Y-84787000D01*
X151258000Y-83912750D01*
X151512000Y-83912750D01*
X151512000Y-84787000D01*
X152961250Y-84787000D01*
X153120000Y-84628250D01*
X153123072Y-84389000D01*
X153110812Y-84264518D01*
X153074502Y-84144820D01*
X153015537Y-84034506D01*
X152936185Y-83937815D01*
X152839494Y-83858463D01*
X152729180Y-83799498D01*
X152609482Y-83763188D01*
X152485000Y-83750928D01*
X151670750Y-83754000D01*
X151512000Y-83912750D01*
X151258000Y-83912750D01*
X151099250Y-83754000D01*
X151023072Y-83753713D01*
X151023072Y-83124287D01*
X151099250Y-83124000D01*
X151258000Y-82965250D01*
X151258000Y-82091000D01*
X151512000Y-82091000D01*
X151512000Y-82965250D01*
X151670750Y-83124000D01*
X152485000Y-83127072D01*
X152609482Y-83114812D01*
X152729180Y-83078502D01*
X152839494Y-83019537D01*
X152936185Y-82940185D01*
X153015537Y-82843494D01*
X153074502Y-82733180D01*
X153110812Y-82613482D01*
X153123072Y-82489000D01*
X153120000Y-82249750D01*
X152961250Y-82091000D01*
X151512000Y-82091000D01*
X151258000Y-82091000D01*
X149808750Y-82091000D01*
X149650000Y-82249750D01*
X149649343Y-82300928D01*
X149335000Y-82300928D01*
X149210518Y-82313188D01*
X149090820Y-82349498D01*
X148980506Y-82408463D01*
X148883815Y-82487815D01*
X148804463Y-82584506D01*
X148757095Y-82673124D01*
X148678115Y-82576885D01*
X148548275Y-82470329D01*
X148400142Y-82391150D01*
X148239408Y-82342392D01*
X148072250Y-82325928D01*
X147634750Y-82325928D01*
X147467592Y-82342392D01*
X147306858Y-82391150D01*
X147158725Y-82470329D01*
X147066000Y-82546426D01*
X146973275Y-82470329D01*
X146825142Y-82391150D01*
X146664408Y-82342392D01*
X146497250Y-82325928D01*
X146059750Y-82325928D01*
X145892592Y-82342392D01*
X145731858Y-82391150D01*
X145583725Y-82470329D01*
X145453885Y-82576885D01*
X145371723Y-82677000D01*
X144841630Y-82677000D01*
X143603630Y-81439000D01*
X149646928Y-81439000D01*
X149650000Y-81678250D01*
X149808750Y-81837000D01*
X151258000Y-81837000D01*
X151258000Y-80962750D01*
X151512000Y-80962750D01*
X151512000Y-81837000D01*
X152961250Y-81837000D01*
X153120000Y-81678250D01*
X153123072Y-81439000D01*
X153110812Y-81314518D01*
X153074502Y-81194820D01*
X153015537Y-81084506D01*
X152936185Y-80987815D01*
X152839494Y-80908463D01*
X152729180Y-80849498D01*
X152609482Y-80813188D01*
X152485000Y-80800928D01*
X151670750Y-80804000D01*
X151512000Y-80962750D01*
X151258000Y-80962750D01*
X151099250Y-80804000D01*
X150285000Y-80800928D01*
X150160518Y-80813188D01*
X150040820Y-80849498D01*
X149930506Y-80908463D01*
X149833815Y-80987815D01*
X149754463Y-81084506D01*
X149695498Y-81194820D01*
X149659188Y-81314518D01*
X149646928Y-81439000D01*
X143603630Y-81439000D01*
X143065500Y-80900870D01*
X143065500Y-80296045D01*
X143225592Y-80344608D01*
X143392750Y-80361072D01*
X143830250Y-80361072D01*
X143997408Y-80344608D01*
X144158142Y-80295850D01*
X144306275Y-80216671D01*
X144399000Y-80140574D01*
X144491725Y-80216671D01*
X144639858Y-80295850D01*
X144800592Y-80344608D01*
X144967750Y-80361072D01*
X145405250Y-80361072D01*
X145572408Y-80344608D01*
X145733142Y-80295850D01*
X145881275Y-80216671D01*
X146011115Y-80110115D01*
X146050000Y-80062733D01*
X146088885Y-80110115D01*
X146218725Y-80216671D01*
X146366858Y-80295850D01*
X146527592Y-80344608D01*
X146694750Y-80361072D01*
X147132250Y-80361072D01*
X147299408Y-80344608D01*
X147460142Y-80295850D01*
X147608275Y-80216671D01*
X147701000Y-80140574D01*
X147793725Y-80216671D01*
X147941858Y-80295850D01*
X148102592Y-80344608D01*
X148269750Y-80361072D01*
X148707250Y-80361072D01*
X148874408Y-80344608D01*
X149035142Y-80295850D01*
X149183275Y-80216671D01*
X149313115Y-80110115D01*
X149419671Y-79980275D01*
X149498850Y-79832142D01*
X149547608Y-79671408D01*
X149564072Y-79504250D01*
X149564072Y-78991750D01*
X149547608Y-78824592D01*
X149498850Y-78663858D01*
X149419671Y-78515725D01*
X149313115Y-78385885D01*
X149250500Y-78334499D01*
X149250500Y-78100072D01*
X150042500Y-78100072D01*
X150166982Y-78087812D01*
X150286680Y-78051502D01*
X150396994Y-77992537D01*
X150493685Y-77913185D01*
X150573037Y-77816494D01*
X150632002Y-77706180D01*
X150668312Y-77586482D01*
X150680572Y-77462000D01*
X150680572Y-76573000D01*
X151007928Y-76573000D01*
X151020188Y-76697482D01*
X151056498Y-76817180D01*
X151115463Y-76927494D01*
X151194815Y-77024185D01*
X151291506Y-77103537D01*
X151401820Y-77162502D01*
X151521518Y-77198812D01*
X151646000Y-77211072D01*
X151860250Y-77208000D01*
X152019000Y-77049250D01*
X152019000Y-76200000D01*
X152273000Y-76200000D01*
X152273000Y-77049250D01*
X152431750Y-77208000D01*
X152646000Y-77211072D01*
X152770482Y-77198812D01*
X152890180Y-77162502D01*
X153000494Y-77103537D01*
X153097185Y-77024185D01*
X153176537Y-76927494D01*
X153235502Y-76817180D01*
X153271812Y-76697482D01*
X153284072Y-76573000D01*
X153281000Y-76358750D01*
X153122250Y-76200000D01*
X152273000Y-76200000D01*
X152019000Y-76200000D01*
X151169750Y-76200000D01*
X151011000Y-76358750D01*
X151007928Y-76573000D01*
X150680572Y-76573000D01*
X150680572Y-76462000D01*
X150668312Y-76337518D01*
X150632002Y-76217820D01*
X150573037Y-76107506D01*
X150493685Y-76010815D01*
X150396994Y-75931463D01*
X150286680Y-75872498D01*
X150166982Y-75836188D01*
X150042500Y-75823928D01*
X149042500Y-75823928D01*
X148918018Y-75836188D01*
X148798320Y-75872498D01*
X148688006Y-75931463D01*
X148591315Y-76010815D01*
X148511963Y-76107506D01*
X148457519Y-76209362D01*
X148440622Y-76211026D01*
X148296985Y-76254598D01*
X148164608Y-76325355D01*
X148048578Y-76420578D01*
X148024713Y-76449657D01*
X147976151Y-76498219D01*
X147947079Y-76522078D01*
X147923222Y-76551148D01*
X147923221Y-76551149D01*
X147851855Y-76638108D01*
X147781099Y-76770485D01*
X147737527Y-76914122D01*
X147722814Y-77063500D01*
X147726501Y-77100933D01*
X147726500Y-78334498D01*
X147701000Y-78355426D01*
X147608275Y-78279329D01*
X147460142Y-78200150D01*
X147299408Y-78151392D01*
X147132250Y-78134928D01*
X146694750Y-78134928D01*
X146527592Y-78151392D01*
X146366858Y-78200150D01*
X146218725Y-78279329D01*
X146088885Y-78385885D01*
X146050000Y-78433267D01*
X146011115Y-78385885D01*
X145974000Y-78355426D01*
X145974000Y-78256501D01*
X146036615Y-78205115D01*
X146143171Y-78075275D01*
X146222350Y-77927142D01*
X146271108Y-77766408D01*
X146287572Y-77599250D01*
X146287572Y-77086750D01*
X146271108Y-76919592D01*
X146222350Y-76758858D01*
X146143171Y-76610725D01*
X146036615Y-76480885D01*
X145906775Y-76374329D01*
X145758642Y-76295150D01*
X145597908Y-76246392D01*
X145430750Y-76229928D01*
X144993250Y-76229928D01*
X144826092Y-76246392D01*
X144665358Y-76295150D01*
X144517225Y-76374329D01*
X144495570Y-76392100D01*
X144428994Y-76337463D01*
X144318680Y-76278498D01*
X144198982Y-76242188D01*
X144074500Y-76229928D01*
X143922750Y-76233000D01*
X143764000Y-76391750D01*
X143764000Y-77216000D01*
X143784000Y-77216000D01*
X143784000Y-77470000D01*
X143764000Y-77470000D01*
X143764000Y-77490000D01*
X143510000Y-77490000D01*
X143510000Y-77470000D01*
X142723250Y-77470000D01*
X142564500Y-77628750D01*
X142561428Y-77818000D01*
X142573688Y-77942482D01*
X142597017Y-78019386D01*
X142401284Y-77823654D01*
X142377422Y-77794578D01*
X142261392Y-77699355D01*
X142129015Y-77628598D01*
X141985378Y-77585026D01*
X141873426Y-77574000D01*
X141873423Y-77574000D01*
X141836000Y-77570314D01*
X141798577Y-77574000D01*
X141498890Y-77574000D01*
X141485890Y-77442009D01*
X141474652Y-77404963D01*
X141485844Y-77369996D01*
X141497000Y-77267750D01*
X141338250Y-77109000D01*
X141320741Y-77109000D01*
X141283896Y-77064104D01*
X141172051Y-76972316D01*
X141154622Y-76963000D01*
X141338250Y-76963000D01*
X141433250Y-76868000D01*
X142561428Y-76868000D01*
X142564500Y-77057250D01*
X142723250Y-77216000D01*
X143510000Y-77216000D01*
X143510000Y-76391750D01*
X143351250Y-76233000D01*
X143199500Y-76229928D01*
X143075018Y-76242188D01*
X142955320Y-76278498D01*
X142845006Y-76337463D01*
X142748315Y-76416815D01*
X142668963Y-76513506D01*
X142609998Y-76623820D01*
X142573688Y-76743518D01*
X142561428Y-76868000D01*
X141433250Y-76868000D01*
X141497000Y-76804250D01*
X141485844Y-76702004D01*
X141447715Y-76582873D01*
X141387078Y-76473469D01*
X141306263Y-76377997D01*
X141208375Y-76300126D01*
X141097175Y-76242849D01*
X140976939Y-76208366D01*
X140852285Y-76198002D01*
X140422750Y-76201000D01*
X140264000Y-76359750D01*
X140264000Y-76847928D01*
X140010000Y-76847928D01*
X140010000Y-76359750D01*
X139851250Y-76201000D01*
X139421715Y-76198002D01*
X139297061Y-76208366D01*
X139176825Y-76242849D01*
X139065625Y-76300126D01*
X138967737Y-76377997D01*
X138886922Y-76473469D01*
X138862518Y-76517500D01*
X137111482Y-76517500D01*
X137087078Y-76473469D01*
X137006263Y-76377997D01*
X136908375Y-76300126D01*
X136797175Y-76242849D01*
X136676939Y-76208366D01*
X136552285Y-76198002D01*
X136122750Y-76201000D01*
X135964000Y-76359750D01*
X135964000Y-76847928D01*
X135710000Y-76847928D01*
X135710000Y-76359750D01*
X135551250Y-76201000D01*
X135121715Y-76198002D01*
X134997061Y-76208366D01*
X134876825Y-76242849D01*
X134765625Y-76300126D01*
X134667737Y-76377997D01*
X134586922Y-76473469D01*
X134526285Y-76582873D01*
X134488156Y-76702004D01*
X134477000Y-76804250D01*
X134635750Y-76963000D01*
X134819378Y-76963000D01*
X134801949Y-76972316D01*
X134690104Y-77064104D01*
X134653259Y-77109000D01*
X134635750Y-77109000D01*
X134477000Y-77267750D01*
X134488156Y-77369996D01*
X134499348Y-77404963D01*
X134493320Y-77424834D01*
X134451275Y-77390329D01*
X134303142Y-77311150D01*
X134142408Y-77262392D01*
X133975250Y-77245928D01*
X133537750Y-77245928D01*
X133370592Y-77262392D01*
X133209858Y-77311150D01*
X133061725Y-77390329D01*
X132969000Y-77466426D01*
X132876275Y-77390329D01*
X132728142Y-77311150D01*
X132567408Y-77262392D01*
X132400250Y-77245928D01*
X131962750Y-77245928D01*
X131795592Y-77262392D01*
X131634858Y-77311150D01*
X131486725Y-77390329D01*
X131356885Y-77496885D01*
X131274723Y-77597000D01*
X131172960Y-77597000D01*
X131163502Y-77565820D01*
X131104537Y-77455506D01*
X131025185Y-77358815D01*
X130928494Y-77279463D01*
X130818180Y-77220498D01*
X130698482Y-77184188D01*
X130574000Y-77171928D01*
X130259657Y-77171928D01*
X130259000Y-77120750D01*
X130100250Y-76962000D01*
X128651000Y-76962000D01*
X128651000Y-77836250D01*
X128809750Y-77995000D01*
X128885928Y-77995287D01*
X128885928Y-78624713D01*
X128809750Y-78625000D01*
X128651000Y-78783750D01*
X128651000Y-79658000D01*
X130100250Y-79658000D01*
X130259000Y-79499250D01*
X130259657Y-79448072D01*
X130574000Y-79448072D01*
X130698482Y-79435812D01*
X130801539Y-79404550D01*
X130790150Y-79425858D01*
X130741392Y-79586592D01*
X130724928Y-79753750D01*
X130724928Y-80266250D01*
X130741392Y-80433408D01*
X130790150Y-80594142D01*
X130869329Y-80742275D01*
X130975885Y-80872115D01*
X130990852Y-80884398D01*
X130911500Y-80963750D01*
X130911500Y-81788000D01*
X130931500Y-81788000D01*
X130931500Y-82042000D01*
X130911500Y-82042000D01*
X130911500Y-82866250D01*
X131070250Y-83025000D01*
X131222000Y-83028072D01*
X131346482Y-83015812D01*
X131466180Y-82979502D01*
X131576494Y-82920537D01*
X131643070Y-82865900D01*
X131664725Y-82883671D01*
X131812858Y-82962850D01*
X131973592Y-83011608D01*
X132140750Y-83028072D01*
X132578250Y-83028072D01*
X132745408Y-83011608D01*
X132906142Y-82962850D01*
X133054275Y-82883671D01*
X133184115Y-82777115D01*
X133290671Y-82647275D01*
X133369850Y-82499142D01*
X133418608Y-82338408D01*
X133435072Y-82171250D01*
X133435072Y-81675193D01*
X133452515Y-81669902D01*
X133584892Y-81599145D01*
X133700922Y-81503922D01*
X133724784Y-81474846D01*
X133887847Y-81311783D01*
X133916922Y-81287922D01*
X134012145Y-81171892D01*
X134082902Y-81039515D01*
X134111662Y-80944706D01*
X134200115Y-80872115D01*
X134306671Y-80742275D01*
X134385850Y-80594142D01*
X134434608Y-80433408D01*
X134451072Y-80266250D01*
X134451072Y-79988883D01*
X134486366Y-79953589D01*
X134488156Y-79969996D01*
X134499348Y-80004963D01*
X134488110Y-80042009D01*
X134473928Y-80186000D01*
X134473928Y-80386000D01*
X134488110Y-80529991D01*
X134530110Y-80668448D01*
X134598316Y-80796051D01*
X134690104Y-80907896D01*
X134801949Y-80999684D01*
X134929552Y-81067890D01*
X135068009Y-81109890D01*
X135212000Y-81124072D01*
X136363918Y-81124072D01*
X136346444Y-81181675D01*
X136336458Y-81283070D01*
X136330506Y-81343500D01*
X136334500Y-81384051D01*
X136334501Y-83017440D01*
X136330506Y-83058000D01*
X136346445Y-83219826D01*
X136393647Y-83375433D01*
X136465989Y-83510775D01*
X136028759Y-83948006D01*
X135994842Y-83975841D01*
X135967007Y-84009758D01*
X135967005Y-84009760D01*
X135883748Y-84111209D01*
X135801198Y-84265648D01*
X135750364Y-84433226D01*
X135733200Y-84607500D01*
X135737501Y-84651169D01*
X135737501Y-84968710D01*
X135732482Y-84967188D01*
X135608000Y-84954928D01*
X134408000Y-84954928D01*
X134283518Y-84967188D01*
X134163820Y-85003498D01*
X134053506Y-85062463D01*
X133956815Y-85141815D01*
X133900107Y-85210914D01*
X133899515Y-85210598D01*
X133787829Y-85176718D01*
X133759185Y-85141815D01*
X133662494Y-85062463D01*
X133552180Y-85003498D01*
X133432482Y-84967188D01*
X133308000Y-84954928D01*
X132108000Y-84954928D01*
X131983518Y-84967188D01*
X131863820Y-85003498D01*
X131753506Y-85062463D01*
X131751024Y-85064500D01*
X131466661Y-85064500D01*
X131415275Y-85022329D01*
X131267142Y-84943150D01*
X131106408Y-84894392D01*
X130939250Y-84877928D01*
X130426750Y-84877928D01*
X130259592Y-84894392D01*
X130098858Y-84943150D01*
X129950725Y-85022329D01*
X129899339Y-85064500D01*
X129845774Y-85064500D01*
X129776685Y-84980315D01*
X129679994Y-84900963D01*
X129569680Y-84841998D01*
X129449982Y-84805688D01*
X129325500Y-84793428D01*
X126325500Y-84793428D01*
X126201018Y-84805688D01*
X126081320Y-84841998D01*
X125971006Y-84900963D01*
X125874315Y-84980315D01*
X125794963Y-85077006D01*
X125735998Y-85187320D01*
X125699688Y-85307018D01*
X125687428Y-85431500D01*
X125660000Y-85431500D01*
X125660000Y-82859500D01*
X126941428Y-82859500D01*
X126953688Y-82983982D01*
X126989998Y-83103680D01*
X127048963Y-83213994D01*
X127128315Y-83310685D01*
X127225006Y-83390037D01*
X127335320Y-83449002D01*
X127455018Y-83485312D01*
X127579500Y-83497572D01*
X127793750Y-83494500D01*
X127952500Y-83335750D01*
X127952500Y-82486500D01*
X128206500Y-82486500D01*
X128206500Y-83335750D01*
X128365250Y-83494500D01*
X128579500Y-83497572D01*
X128703982Y-83485312D01*
X128823680Y-83449002D01*
X128933994Y-83390037D01*
X129030685Y-83310685D01*
X129110037Y-83213994D01*
X129169002Y-83103680D01*
X129205312Y-82983982D01*
X129217572Y-82859500D01*
X129214500Y-82645250D01*
X129055750Y-82486500D01*
X128206500Y-82486500D01*
X127952500Y-82486500D01*
X127103250Y-82486500D01*
X126944500Y-82645250D01*
X126941428Y-82859500D01*
X125660000Y-82859500D01*
X125660000Y-82390000D01*
X129708928Y-82390000D01*
X129721188Y-82514482D01*
X129757498Y-82634180D01*
X129816463Y-82744494D01*
X129895815Y-82841185D01*
X129992506Y-82920537D01*
X130102820Y-82979502D01*
X130222518Y-83015812D01*
X130347000Y-83028072D01*
X130498750Y-83025000D01*
X130657500Y-82866250D01*
X130657500Y-82042000D01*
X129870750Y-82042000D01*
X129712000Y-82200750D01*
X129708928Y-82390000D01*
X125660000Y-82390000D01*
X125660000Y-81859500D01*
X126941428Y-81859500D01*
X126944500Y-82073750D01*
X127103250Y-82232500D01*
X127952500Y-82232500D01*
X127952500Y-81383250D01*
X128206500Y-81383250D01*
X128206500Y-82232500D01*
X129055750Y-82232500D01*
X129214500Y-82073750D01*
X129217572Y-81859500D01*
X129205312Y-81735018D01*
X129169002Y-81615320D01*
X129110037Y-81505006D01*
X129056689Y-81440000D01*
X129708928Y-81440000D01*
X129712000Y-81629250D01*
X129870750Y-81788000D01*
X130657500Y-81788000D01*
X130657500Y-80963750D01*
X130498750Y-80805000D01*
X130347000Y-80801928D01*
X130222518Y-80814188D01*
X130102820Y-80850498D01*
X129992506Y-80909463D01*
X129895815Y-80988815D01*
X129816463Y-81085506D01*
X129757498Y-81195820D01*
X129721188Y-81315518D01*
X129708928Y-81440000D01*
X129056689Y-81440000D01*
X129030685Y-81408315D01*
X128933994Y-81328963D01*
X128823680Y-81269998D01*
X128703982Y-81233688D01*
X128579500Y-81221428D01*
X128365250Y-81224500D01*
X128206500Y-81383250D01*
X127952500Y-81383250D01*
X127793750Y-81224500D01*
X127579500Y-81221428D01*
X127455018Y-81233688D01*
X127335320Y-81269998D01*
X127225006Y-81328963D01*
X127128315Y-81408315D01*
X127048963Y-81505006D01*
X126989998Y-81615320D01*
X126953688Y-81735018D01*
X126941428Y-81859500D01*
X125660000Y-81859500D01*
X125660000Y-80310000D01*
X126785928Y-80310000D01*
X126798188Y-80434482D01*
X126834498Y-80554180D01*
X126893463Y-80664494D01*
X126972815Y-80761185D01*
X127069506Y-80840537D01*
X127179820Y-80899502D01*
X127299518Y-80935812D01*
X127424000Y-80948072D01*
X128238250Y-80945000D01*
X128397000Y-80786250D01*
X128397000Y-79912000D01*
X128651000Y-79912000D01*
X128651000Y-80786250D01*
X128809750Y-80945000D01*
X129624000Y-80948072D01*
X129748482Y-80935812D01*
X129868180Y-80899502D01*
X129978494Y-80840537D01*
X130075185Y-80761185D01*
X130154537Y-80664494D01*
X130213502Y-80554180D01*
X130249812Y-80434482D01*
X130262072Y-80310000D01*
X130259000Y-80070750D01*
X130100250Y-79912000D01*
X128651000Y-79912000D01*
X128397000Y-79912000D01*
X126947750Y-79912000D01*
X126789000Y-80070750D01*
X126785928Y-80310000D01*
X125660000Y-80310000D01*
X125660000Y-79260000D01*
X126785928Y-79260000D01*
X126789000Y-79499250D01*
X126947750Y-79658000D01*
X128397000Y-79658000D01*
X128397000Y-78783750D01*
X128238250Y-78625000D01*
X127424000Y-78621928D01*
X127299518Y-78634188D01*
X127179820Y-78670498D01*
X127069506Y-78729463D01*
X126972815Y-78808815D01*
X126893463Y-78905506D01*
X126834498Y-79015820D01*
X126798188Y-79135518D01*
X126785928Y-79260000D01*
X125660000Y-79260000D01*
X125660000Y-77360000D01*
X126785928Y-77360000D01*
X126798188Y-77484482D01*
X126834498Y-77604180D01*
X126893463Y-77714494D01*
X126972815Y-77811185D01*
X127069506Y-77890537D01*
X127179820Y-77949502D01*
X127299518Y-77985812D01*
X127424000Y-77998072D01*
X128238250Y-77995000D01*
X128397000Y-77836250D01*
X128397000Y-76962000D01*
X126947750Y-76962000D01*
X126789000Y-77120750D01*
X126785928Y-77360000D01*
X125660000Y-77360000D01*
X125660000Y-76310000D01*
X126785928Y-76310000D01*
X126789000Y-76549250D01*
X126947750Y-76708000D01*
X128397000Y-76708000D01*
X128397000Y-75833750D01*
X128651000Y-75833750D01*
X128651000Y-76708000D01*
X130100250Y-76708000D01*
X130259000Y-76549250D01*
X130262072Y-76310000D01*
X130249812Y-76185518D01*
X130213502Y-76065820D01*
X130154537Y-75955506D01*
X130075185Y-75858815D01*
X129978494Y-75779463D01*
X129868180Y-75720498D01*
X129748482Y-75684188D01*
X129624000Y-75671928D01*
X128809750Y-75675000D01*
X128651000Y-75833750D01*
X128397000Y-75833750D01*
X128238250Y-75675000D01*
X127424000Y-75671928D01*
X127299518Y-75684188D01*
X127179820Y-75720498D01*
X127069506Y-75779463D01*
X126972815Y-75858815D01*
X126893463Y-75955506D01*
X126834498Y-76065820D01*
X126798188Y-76185518D01*
X126785928Y-76310000D01*
X125660000Y-76310000D01*
X125660000Y-75660000D01*
X151009175Y-75660000D01*
X151011000Y-75787250D01*
M02*
